<?xml version="1.0" encoding="utf-8"?>
<COLLADA xmlns="http://www.collada.org/2005/11/COLLADASchema" version="1.4.1">
  <asset>
    <created>2018-07-01T23:22:11Z</created>
    <modified>2018-07-01T23:22:11Z</modified>
  </asset>
  <library_images>
    <image id="Image">
      <init_from>./dk_eye.0.png</init_from>
    </image>
    <image id="Image1">
      <init_from>./dk_body.png</init_from>
    </image>
  </library_images>
  <library_materials>
    <material id="VisualMaterial" name="mat_dk_eye">
      <instance_effect url="#Effect"/>
      <extra>
        <technique profile="FCOLLADA">
          <user_properties>mat_dk_eye</user_properties>
        </technique>
      </extra>
    </material>
    <material id="VisualMaterial1" name="mat_dk_body">
      <instance_effect url="#Effect1"/>
      <extra>
        <technique profile="FCOLLADA">
          <user_properties>mat_dk_body</user_properties>
        </technique>
      </extra>
    </material>
  </library_materials>
  <library_effects>
    <effect id="Effect" name="dk_eye_0_png">
      <profile_COMMON>
        <newparam sid="Image-surface">
          <surface type="2D">
            <init_from>Image</init_from>
            <format>A8R8G8B8</format>
          </surface>
        </newparam>
        <newparam sid="Image-sampler">
          <sampler2D>
            <source>Image-surface</source>
            <wrap_s>WRAP</wrap_s>
            <wrap_t>WRAP</wrap_t>
            <minfilter>NONE</minfilter>
            <magfilter>NONE</magfilter>
            <mipfilter>NONE</mipfilter>
          </sampler2D>
        </newparam>
        <technique sid="common">
          <phong>
            <emission>
              <color>0 0 0 1</color>
            </emission>
            <ambient>
              <color>0 0 0 1</color>
            </ambient>
            <diffuse>
              <texture texture="Image-sampler" texcoord=""/>
            </diffuse>
            <specular>
              <color>1 1 1 1</color>
            </specular>
            <shininess>
              <float>0</float>
            </shininess>
            <transparent opaque="A_ONE">
              <color>0 0 0 1</color>
            </transparent>
            <transparency>
              <float>1</float>
            </transparency>
            <index_of_refraction>
              <float>1.55</float>
            </index_of_refraction>
          </phong>
          <extra>
            <technique profile="FCOLLADA">
              <spec_level>
                <float>0</float>
              </spec_level>
            </technique>
          </extra>
        </technique>
      </profile_COMMON>
      <extra>
        <technique profile="FCOLLADA">
          <user_properties>dk_eye.0.png</user_properties>
        </technique>
      </extra>
    </effect>
    <effect id="Effect1" name="dk_body_png">
      <profile_COMMON>
        <newparam sid="Image1-surface">
          <surface type="2D">
            <init_from>Image1</init_from>
            <format>A8R8G8B8</format>
          </surface>
        </newparam>
        <newparam sid="Image1-sampler">
          <sampler2D>
            <source>Image1-surface</source>
            <wrap_s>WRAP</wrap_s>
            <wrap_t>WRAP</wrap_t>
            <minfilter>NONE</minfilter>
            <magfilter>NONE</magfilter>
            <mipfilter>NONE</mipfilter>
          </sampler2D>
        </newparam>
        <technique sid="common">
          <phong>
            <emission>
              <color>0 0 0 1</color>
            </emission>
            <ambient>
              <color>0 0 0 1</color>
            </ambient>
            <diffuse>
              <texture texture="Image1-sampler" texcoord=""/>
            </diffuse>
            <specular>
              <color>1 1 1 1</color>
            </specular>
            <shininess>
              <float>0</float>
            </shininess>
            <transparent opaque="A_ONE">
              <color>0 0 0 1</color>
            </transparent>
            <transparency>
              <float>1</float>
            </transparency>
            <index_of_refraction>
              <float>1.55</float>
            </index_of_refraction>
          </phong>
          <extra>
            <technique profile="FCOLLADA">
              <spec_level>
                <float>0</float>
              </spec_level>
            </technique>
          </extra>
        </technique>
      </profile_COMMON>
      <extra>
        <technique profile="FCOLLADA">
          <user_properties>dk_body.png</user_properties>
        </technique>
      </extra>
    </effect>
  </library_effects>
  <library_geometries>
    <geometry id="Geometry" name="mesh_0_">
      <mesh>
        <source id="GeometrySource" name="mesh_0_Pos">
          <float_array id="GeometrySource-array" count="69">-0.000003 5.81539 4.07904 -0.383358 4.93084 3.44325 0.383358 4.93084 3.44325 -0.743281 6.41026 3.55914 0.743271 6.41028 3.55914 -0.944068 1.34831 2.82108 -0.000485 0.13723 2.71799 -0.383358 4.93084 3.44325 0.383358 4.93084 3.44325 0.944094 1.34833 2.82108 -0.000003 5.81539 4.07904 0.743271 6.41028 3.55914 -0.743281 6.41026 3.55914 1.72789 9.8119 5.88084 1.05052 8.41306 6.84859 1.38953 8.31215 6.34816 0.930977 9.34927 6.70964 -0.000013 8.67241 7.16606 -0.000015 9.20339 7.0221 -0.931009 9.34926 6.70964 -1.05054 8.41305 6.84859 -1.72793 9.81188 5.88084 -1.38955 8.31213 6.34816</float_array>
          <technique_common>
            <accessor source="#GeometrySource-array" count="23" stride="3">
              <param name="X" type="float"/>
              <param name="Y" type="float"/>
              <param name="Z" type="float"/>
            </accessor>
          </technique_common>
        </source>
        <source id="GeometrySource1" name="mesh_0_Nrm">
          <float_array id="GeometrySource1-array" count="69">-0.120823 0 0.992674 -0.296051 0.204056 0.933121 -0.296055 -0.204034 0.933125 0.263533 0.402332 0.876744 0.263533 -0.402332 0.876744 -0.156207 0.093053 0.983331 -0.154455 0.000027 0.988 -0.296051 0.204056 0.933121 -0.296055 -0.204034 0.933125 -0.156221 -0.092971 0.983337 -0.120823 0 0.992674 0.263533 -0.402332 0.876744 0.263533 0.402332 0.876744 0.577382 -0.808139 0.116371 0.770783 -0.624761 -0.124771 0.528882 -0.84482 0.081014 0.880411 -0.424306 -0.211759 0.974104 0 -0.226101 0.965157 0 -0.261671 0.880411 0.424306 -0.211759 0.770783 0.624761 -0.12477 0.577382 0.808139 0.116371 0.528882 0.84482 0.081014</float_array>
          <technique_common>
            <accessor source="#GeometrySource1-array" count="23" stride="3">
              <param name="X" type="float"/>
              <param name="Y" type="float"/>
              <param name="Z" type="float"/>
            </accessor>
          </technique_common>
        </source>
        <source id="GeometrySource2" name="mesh_0_UV">
          <float_array id="GeometrySource2-array" count="46">-0.489305 0.560312 -0.425907 0.622161 -0.425907 0.498463 -0.48791 0.680229 -0.487911 0.440395 -0.36899 0.591532 -0.495918 0.748291 -0.011478 0.821025 -0.023758 0.977012 -0.399234 0.97568 -0.489305 0.560312 -0.48791 0.680229 -0.487911 0.440395 -0.020919 0.773864 -0.25476 0.038214 -0.098737 0.043783 -0.283436 0.47984 -0.500784 0.127262 -0.500784 0.383634 -0.718132 0.47984 -0.746808 0.038214 -0.980647 0.773864 -0.90283 0.043783</float_array>
          <technique_common>
            <accessor source="#GeometrySource2-array" count="23" stride="2">
              <param name="S" type="float"/>
              <param name="T" type="float"/>
            </accessor>
          </technique_common>
        </source>
        <source id="GeometrySource3" name="mesh_0_Clr">
          <float_array id="GeometrySource3-array" count="92">0.901961 0.901961 0.901961 1 0.933333 0.933333 0.933333 1 0.933333 0.933333 0.933333 1 0.901961 0.901961 0.901961 1 0.901961 0.901961 0.901961 1 1 1 1 1 1 1 1 1 0.933333 0.933333 0.933333 1 0.933333 0.933333 0.933333 1 1 1 1 1 0 0 0 1 0 0 0 1 0 0 0 1 0.933333 0.933333 0.933333 1 1 1 1 1 1 1 1 1 0.901961 0.901961 0.901961 1 0.968628 0.968628 0.968628 1 0.901961 0.901961 0.901961 1 0.901961 0.901961 0.901961 1 1 1 1 1 0.933333 0.933333 0.933333 1 1 1 1 1</float_array>
          <technique_common>
            <accessor source="#GeometrySource3-array" count="23" stride="4">
              <param name="R" type="float"/>
              <param name="G" type="float"/>
              <param name="B" type="float"/>
              <param name="A" type="float"/>
            </accessor>
          </technique_common>
        </source>
        <vertices id="Geometry-vertices">
          <input semantic="POSITION" source="#GeometrySource"/>
          <input semantic="NORMAL" source="#GeometrySource1"/>
          <input semantic="TEXCOORD" source="#GeometrySource2"/>
          <input semantic="COLOR" source="#GeometrySource3"/>
        </vertices>
        <triangles material="VisualMaterial0" count="15">
          <input semantic="VERTEX" source="#Geometry-vertices" offset="0"/>
          <p>0 1 2 1 0 3 2 4 0 5 6 7 8 7 6 6 9 8 10 11 12 13 14 15 13 16 14 17 14 16 18 17 16 18 19 17 17 19 20 21 20 19 21 22 20</p>
        </triangles>
      </mesh>
    </geometry>
    <geometry id="Geometry1" name="mesh_1_">
      <mesh>
        <source id="GeometrySource4" name="mesh_1_Pos">
          <float_array id="GeometrySource4-array" count="1170">1.06108 2.25569 2.90848 0 0.527022 1.46793 1.78606 0.5691 2.00341 2.5564 3.60044 0.666972 2.30311 3.98973 3.2969 1.82854 1.61362 3.90794 0.737412 0.950315 3.22816 1.68983 0.03547 2.29579 2.83942 0.741195 3.12742 1.71611 0.19517 3.74349 3.7009 3.45444 3.07815 3.64884 2.37775 0.042781 3.94894 2.22575 2.6586 3.2627 0.867008 0.433825 1.77372 -0.434294 0.308446 2.6766 2.23728 -1.35378 0 2.24532 -2.23093 -1.77372 -0.434294 0.308446 -2.6766 2.23728 -1.35378 -3.2627 0.867008 0.433825 -3.64884 2.37775 0.042781 -3.94896 2.22575 2.65854 -1.98608 0.5691 2.00339 -1.0611 2.25569 2.90846 -2.5564 3.60044 0.666935 -2.29998 3.98973 3.29686 -1.82856 1.61362 3.90792 -3.67485 3.45444 3.07809 -2.83944 0.741195 3.12738 -1.88985 0.03547 2.29576 -0.73743 0.950315 3.22815 -1.71613 0.19517 3.74347 -1.98608 0.5691 2.00339 -1.77372 -0.434294 0.308446 1.78606 0.5691 2.00341 1.77372 -0.434294 0.308446 1.77372 -0.434294 0.308446 0 0.527022 1.46793 -1.77372 -0.434294 0.308446 -2.55799 0.708853 3.25435 -1.88106 0.14366 2.56151 -2.99446 -0.7894 4.29263 -3.15278 2.13066 5.72849 -3.07493 1.7006 6.2445 -1.69669 -1.07778 3.61832 -0.738956 -0.86887 4.14714 -1.1016 0.60876 3.19914 -0.566931 2.41416 5.65378 -3.07493 1.7006 6.2445 -0.683327 1.79772 6.32651 -0.683327 1.79772 6.32651 -1.69669 -1.07778 3.61832 -0.738956 -0.86887 4.14714 -0.683327 1.79772 6.32651 -2.99446 -0.7894 4.29263 -1.69669 -1.07778 3.61832 -3.07493 1.7006 6.2445 2.58872 0.69002 3.25924 3.02435 -0.80045 4.30901 1.72284 0.054359 2.57038 3.18315 2.13041 5.72267 3.105 1.70431 6.24192 1.72664 -1.09134 3.63535 0.768866 -0.88027 4.16335 1.13232 0.58999 3.20428 0.597425 2.41423 5.64488 3.105 1.70431 6.24192 0.713389 1.80288 6.32231 0.713389 1.80288 6.32231 1.72664 -1.09134 3.63535 0.768866 -0.88027 4.16335 3.02435 -0.80045 4.30901 0.713389 1.80288 6.32231 1.72664 -1.09134 3.63535 3.105 1.70431 6.24192 0 0.527022 1.46793 3.64884 2.37775 0.042781 2.13997 4.1942 2.32916 0.000003 3.90191 3.0496 -2.13997 4.19417 2.32916 -0.000013 8.65038 4.4461 2.47028 7.60984 3.01346 2.58804 9.15394 2.79586 4.14182 10.31 1.52759 4.78367 8.06729 2.2883 4.4909 6.14552 0.229237 5.42083 9.76899 1.26167 4.15224 10.5219 -0.91766 2.07445 10.3834 2.10065 -0.000021 10.8738 1.62199 -0.00002 10.5182 3.44061 -2.07449 10.3834 2.10065 -4.15228 10.5218 -0.91766 -0.000021 10.9593 -0.012371 -0.000016 9.41557 -2.12435 4.44211 8.03676 -1.83751 5.42083 9.69708 -0.75888 3.91534 4.94299 -2.01498 4.4909 6.14552 0.229237 3.64884 2.37775 0.042781 -0.000004 6.24546 -3.272 0 2.24532 -2.23093 2.6766 2.23728 -1.35378 -3.64884 2.37775 0.042781 -4.78369 8.06723 2.2883 -2.4703 7.6098 3.01346 -2.58806 9.1539 2.79586 -4.14186 10.31 1.52759 -5.42087 9.76891 1.26167 -4.4909 6.23197 0.242759 -3.91534 4.94294 -2.01498 -2.6766 2.23728 -1.35378 -3.64884 2.37775 0.042781 -4.44213 8.0367 -1.83751 -5.42087 9.697 -0.75888 -4.4909 6.23197 0.242759 4.4909 6.14552 0.229237 4.44211 8.03676 -1.83751 8.172 6.20099 0.436428 8.08441 7.96318 -1.48289 5.42083 9.69708 -0.75888 8.18854 9.01366 -0.93543 8.19497 9.77968 0.304953 5.42083 9.76899 1.26167 8.20258 9.31765 1.50793 4.78367 8.06729 2.2883 7.36407 8.0997 2.24535 8.172 6.20099 0.436428 8.28197 8.05098 2.00972 10.2208 6.76801 1.74505 10.241 8.06514 2.17689 12.454 7.20444 2.2459 12.7113 6.27573 0.411789 14.2874 7.90391 0.612308 12.6092 8.85905 2.17969 10.2244 9.32188 1.77826 10.2598 9.97804 0.354354 12.8813 9.6309 0.444973 10.3163 9.38439 -1.0335 12.7322 8.53125 -1.41994 4.4909 6.14552 0.229237 10.1147 5.92372 0.413808 10.2259 7.8929 -1.57261 10.179 6.48298 -0.97869 8.27406 7.96163 -1.43981 12.6641 7.22641 -1.39994 10.1147 5.92372 0.413808 12.7113 6.27573 0.411789 -4.4909 6.23197 0.242759 -8.172 6.201 0.441587 -4.44213 8.0367 -1.83751 -8.08442 7.96323 -1.4744 -5.42087 9.697 -0.75888 -8.18856 9.0137 -0.927023 -8.27407 7.96171 -1.42915 -10.179 6.48329 -0.947966 -10.1147 5.92387 0.431363 -12.7113 6.27592 0.43388 -12.6641 7.22688 -1.35633 -10.226 7.8933 -1.53593 -10.3163 9.38473 -1.00099 -12.7322 8.53171 -1.37628 -14.2874 7.90406 0.631853 -12.8813 9.63107 0.466159 -12.6092 8.85898 2.18023 -10.2244 9.32188 1.78327 -10.2598 9.9782 0.37288 -8.19499 9.7797 0.310454 -8.20261 9.31763 1.5106 -5.42087 9.76891 1.26167 -4.78369 8.06723 2.2883 -4.4909 6.23197 0.242759 -8.172 6.201 0.441587 -7.36408 8.09966 2.24535 -8.28199 8.05095 2.01135 -10.2208 6.76802 1.75068 -10.241 8.06509 2.17829 -12.454 7.20436 2.2459 -12.7113 6.27592 0.43388 -10.1147 5.92387 0.431363 -0.000011 6.48929 3.32443 -0.00001 7.80427 3.24512 1.20031 7.89371 3.61367 2.32119 6.72458 4.01433 1.84064 8.06324 4.18944 2.60152 7.60938 4.73782 2.6988 6.95022 5.60241 2.33158 5.75888 5.56458 1.98946 6.72058 7.32849 1.50441 5.53224 7.18674 1.35475 4.89257 5.98113 -0.000001 4.60555 6.26757 0.000001 5.28679 7.87608 0.85859 6.79445 8.6399 0.000002 6.80313 8.97936 -0.858586 6.79444 8.63991 -1.50441 5.53223 7.18676 -1.35475 4.89257 5.98115 -0.000004 4.67288 5.14157 1.48403 5.57834 4.36374 -0.000006 5.05572 4.43345 -1.48405 5.57834 4.36376 -2.32121 6.72457 4.01436 -1.20033 7.8937 3.61367 -1.84066 8.06321 4.18944 -2.60154 7.60934 4.73782 -2.69882 6.95018 5.60241 -2.33159 5.75887 5.5646 -1.98946 6.72057 7.32851 -0.000006 5.05572 4.43345 0.85859 6.79445 8.6399 1.98946 6.72058 7.32849 0.000002 6.80313 8.97936 -0.858586 6.79444 8.63991 -1.98946 6.72057 7.32851 0.000002 6.80313 8.97936 1.98946 6.72058 7.32849 -1.98946 6.72057 7.32851 -2.69882 6.95018 5.60241 2.6988 6.95022 5.60241 2.20456 8.95518 3.30666 2.84265 8.77919 3.51874 2.38245 8.14896 4.00516 1.84064 8.06324 4.18944 1.92629 8.18298 4.96392 2.96788 9.46052 3.58091 2.20456 8.95518 3.30666 2.4597 9.84563 3.4936 2.86686 9.9038 3.88518 2.42099 9.72435 4.43543 2.4597 9.84563 3.4936 -2.20458 8.95514 3.30666 -2.38247 8.14893 4.00516 -2.84267 8.77915 3.51874 -1.84066 8.06321 4.18944 -1.92631 8.18295 4.96392 -2.96792 9.46048 3.58091 -2.20458 8.95514 3.30666 -2.45974 9.84559 3.4936 -2.8669 9.90376 3.88518 -2.42103 9.72432 4.43543 -2.45974 9.84559 3.4936 1.38953 8.31215 6.34816 1.05052 8.41306 6.84859 1.4802 8.00932 7.19046 2.23477 7.81428 5.98237 1.92629 8.18298 4.96392 1.98945 6.74196 7.24333 0.858581 6.81409 8.55462 -0.000011 8.26334 7.71448 -0.000013 8.67241 7.16606 -1.48022 8.0093 7.19046 -1.05054 8.41305 6.84859 -1.38955 8.31213 6.34816 -2.23479 7.81424 5.98237 -1.92631 8.18295 4.96392 -1.98947 6.74193 7.24333 -0.858595 6.81408 8.55462 -0.000006 6.85333 8.89633 1.98945 6.74196 7.24333 0.858581 6.81409 8.55462 -0.000006 6.85333 8.89633 -1.98947 6.74193 7.24333 -0.858595 6.81408 8.55462 1.4826 11.1725 2.74088 1.46816 9.16957 2.23441 -0.000019 10.4678 1.83585 -0.000024 11.7505 2.60415 -1.48264 11.1724 2.74088 -1.46818 9.16955 2.23441 -2.45974 9.84559 3.4936 -2.20458 8.95514 3.30666 -1.20033 7.8937 3.61367 -1.84066 8.06321 4.18944 -0.00001 7.80427 3.24512 -0.000015 9.16813 1.78564 1.20031 7.89371 3.61367 2.20456 8.95518 3.30666 1.84064 8.06324 4.18944 2.4597 9.84563 3.4936 2.14535 11.0685 3.82941 2.25102 10.6172 4.92788 2.42099 9.72435 4.43543 1.60044 11.5255 5.32552 1.28794 12.1766 4.25821 -0.000027 12.6256 3.84303 -1.28795 12.1766 4.25835 -2.14539 11.0684 3.82941 -1.60084 11.525 5.32548 -0.607468 12.6132 5.54756 -0.230229 12.2238 6.29669 -0.000022 11.3203 6.30152 0.551604 12.5921 5.83365 0.865858 10.7936 6.4074 -0.000019 10.3221 7.08857 -0.8659 10.7936 6.4074 -2.25106 10.6172 4.92788 -2.42103 9.72432 4.43543 1.83246 10.5552 5.85829 1.60044 11.5255 5.32552 0.865858 10.7936 6.4074 2.25102 10.6172 4.92788 2.21654 9.69728 5.28377 1.72789 9.8119 5.88084 1.38953 8.31215 6.34816 1.92629 8.18298 4.96392 2.42099 9.72435 4.43543 1.21784 9.74337 6.92989 0.930977 9.34927 6.70964 -0.000019 10.3221 7.08857 -0.000016 9.48245 7.43014 -0.000015 9.20339 7.0221 -0.931009 9.34926 6.70964 -1.21788 9.74336 6.92989 -1.72793 9.81188 5.88084 -1.8325 10.5552 5.85829 -2.21658 9.69725 5.28377 -1.38955 8.31213 6.34816 -1.92631 8.18295 4.96392 -2.42103 9.72432 4.43543 -2.25106 10.6172 4.92788 -1.60084 11.525 5.32548 -0.8659 10.7936 6.4074 0.435233 12.8298 4.56431 -0.000029 13.1532 5.67486 -0.435289 12.8297 4.56431 0.158399 13.353 4.25973 -0.6307 12.737 6.54292 -0.759527 11.7769 7.1984 0.089817 12.7254 6.69894 -0.6307 12.737 6.54292 1.98945 6.74196 7.24333 -0.000006 6.85333 8.89633 -1.98947 6.74193 7.24333 -2.69882 6.95018 5.60241 2.6988 6.95022 5.60241 -13.9286 8.47148 2.17232 -15.4267 8.78551 2.07126 -13.9411 6.97038 2.63694 -11.8356 8.49702 1.81226 -13.0071 6.48122 1.84976 -14.3287 5.89998 1.77759 -15.7422 6.98725 1.95553 -16.1522 6.8239 0.463861 -14.4049 6.15096 -0.796665 -12.1948 7.68223 -1.22395 -10.9716 7.80952 0.31462 -15.6969 6.96765 -1.24817 -13.7448 8.23037 -1.58098 -15.3491 8.57354 -1.31222 -13.8799 9.30976 0.467931 -15.782 8.98863 0.441976 -15.4267 8.78551 2.07126 -11.8356 8.49702 1.81226 -13.9286 8.47148 2.17232 -15.7422 6.98725 1.95553 -16.1522 6.8239 0.463861 -15.6969 6.96765 -1.24817 -15.3491 8.57354 -1.31222 -11.9692 9.22427 -0.209114 -13.7448 8.23037 -1.58098 -12.1948 7.68223 -1.22395 -10.9716 7.80952 0.31462 15.6969 6.96776 -1.24817 13.7448 8.23046 -1.58098 15.3491 8.57364 -1.31222 14.4049 6.15106 -0.79667 16.1522 6.82401 0.463858 14.3287 5.90007 1.77758 13.0071 6.4813 1.84976 13.9411 6.97047 2.63694 11.8356 8.4971 1.81226 10.9716 7.80959 0.314619 12.1948 7.68232 -1.22395 13.8799 9.30985 0.467934 15.4267 8.78561 2.07126 15.782 8.98874 0.441978 11.8356 8.4971 1.81226 13.9286 8.47157 2.17232 11.9692 9.22435 -0.209111 10.9716 7.80959 0.314619 12.1948 7.68232 -1.22395 13.7448 8.23046 -1.58098 15.3491 8.57364 -1.31222 15.6969 6.96776 -1.24817 16.1522 6.82401 0.463858 15.7422 6.98735 1.95553 13.9286 8.47157 2.17232 15.4267 8.78561 2.07126 15.7422 6.98735 1.95553</float_array>
          <technique_common>
            <accessor source="#GeometrySource4-array" count="390" stride="3">
              <param name="X" type="float"/>
              <param name="Y" type="float"/>
              <param name="Z" type="float"/>
            </accessor>
          </technique_common>
        </source>
        <source id="GeometrySource5" name="mesh_1_Nrm">
          <float_array id="GeometrySource5-array" count="1170">0.290711 0.314642 0.903597 -0.009052 -0.618177 0.785987 -0.063436 -0.990536 -0.121714 -0.230353 0.954018 0.191801 0.528433 0.781607 0.331436 0.989711 0.098764 0.103527 0.11774 -0.194166 0.973877 -0.399947 -0.910967 0.100903 0.34328 -0.540437 -0.768171 0.714958 -0.697181 0.052678 0.499139 0.411812 -0.762411 0.980638 -0.195038 -0.017592 0.108029 -0.407325 -0.906872 0.778288 -0.616599 -0.118627 0.285844 -0.949527 -0.129196 0.550114 -0.477579 -0.68505 0 -0.452698 -0.891664 -0.290907 -0.946486 -0.139778 -0.550114 -0.477579 -0.68505 -0.782327 -0.607679 -0.136712 -0.981375 -0.191286 -0.017669 0.121301 -0.391899 0.911976 -0.072506 -0.978285 0.19417 0.282892 0.312067 -0.906965 -0.228781 0.954822 -0.189671 0.529441 0.781843 -0.329262 0.989766 0.099367 -0.102414 0.49998 0.416458 0.75933 0.379383 -0.511112 0.771254 -0.400421 -0.915794 -0.031363 0.062319 -0.230666 -0.971035 0.712034 -0.701307 -0.034296 -0.072506 -0.978285 0.19417 -0.290907 -0.946486 -0.139778 -0.063436 -0.990536 -0.121714 0.285844 -0.949527 -0.129196 0.285844 -0.949527 -0.129196 -0.009052 -0.618177 0.785987 -0.290907 -0.946486 -0.139778 -0.663973 0.595139 0.452714 -0.970231 -0.242139 0.004598 0.114269 -0.681129 0.723191 -0.02802 0.603395 0.79695 0.8466 0.309388 0.433068 -0.415823 -0.909393 -0.009742 -0.095474 -0.594647 -0.798298 -0.693047 0.454869 -0.559268 0.00819 0.871589 -0.490169 0.8466 0.309388 0.433068 0.897849 -0.232878 -0.373678 0.897849 -0.232878 -0.373678 -0.415823 -0.909393 -0.009742 -0.095474 -0.594647 -0.798298 0.897849 -0.232878 -0.373678 0.114269 -0.681129 0.723191 -0.415823 -0.909393 -0.009742 0.8466 0.309388 0.433068 -0.695698 0.568568 -0.439016 0.102271 -0.693329 -0.713327 -0.962888 -0.267335 0.037119 -0.03235 0.602896 -0.797164 0.844368 0.315677 -0.432886 -0.3921 -0.919919 0.002587 -0.058193 -0.585562 0.808536 -0.673655 0.457962 0.580052 0.001394 0.87179 0.489879 0.844368 0.315677 -0.432886 0.899469 -0.225913 0.374058 0.899469 -0.225913 0.374058 -0.3921 -0.919919 0.002587 -0.058193 -0.585562 0.808536 0.102271 -0.693329 -0.713327 0.899469 -0.225913 0.374058 -0.3921 -0.919919 0.002587 0.844368 0.315677 -0.432886 0 -0.485128 0.874443 0.980638 -0.195038 -0.017592 -0.331681 -0.429072 0.84017 -0.354267 0 0.935144 -0.331681 0.429072 0.84017 0.007587 0 0.999971 0.016639 -0.432567 0.901448 0.352648 -0.468556 0.809997 0.635787 -0.359849 0.68285 -0.065628 -0.348948 0.934841 -0.571645 -0.818104 -0.06268 0.876662 -0.268621 0.399133 0.918135 -0.262981 -0.296428 0.875948 -0.247042 0.414349 0.990095 0 0.140402 0.765363 0 0.643599 0.875948 0.247042 0.414349 0.918135 0.262981 -0.296428 0.958102 0 -0.286429 0.525034 0 -0.851081 -0.010202 -0.335601 -0.941949 0.76008 -0.228055 -0.608498 -0.272976 -0.67509 -0.685374 -0.571645 -0.818104 -0.06268 0.980638 -0.195038 -0.017592 0.032779 0 -0.999463 0 -0.452698 -0.891664 0.550114 -0.477579 -0.68505 -0.981375 -0.191286 -0.017669 -0.066886 0.348396 0.934958 0.016639 0.432567 0.901448 0.352648 0.468556 0.809997 0.635787 0.359849 0.68285 0.876672 0.268395 0.399263 -0.579625 0.812562 -0.061467 -0.272642 0.676673 -0.683945 -0.550114 -0.477579 -0.68505 -0.981375 -0.191286 -0.017669 -0.013269 0.334731 -0.94222 0.759625 0.229168 -0.608647 -0.579625 0.812562 -0.061467 -0.571645 -0.818104 -0.06268 -0.010202 -0.335601 -0.941949 -0.07038 -0.996117 0.052889 0.137261 -0.01574 -0.99041 0.76008 -0.228055 -0.608498 0.031024 0.628596 -0.777113 -0.018634 0.998421 -0.052994 0.876662 -0.268621 0.399133 0.037501 0.647719 0.760956 -0.065628 -0.348948 0.934841 0.132469 -0.135651 0.981861 -0.07038 -0.996117 0.052889 -0.034536 -0.102689 0.994114 -0.081208 -0.673275 0.734919 -0.08918 0.003595 0.996009 0.287499 -0.44111 0.850157 0.352303 -0.93481 0.044858 0.997835 -0.048729 0.044177 0.326911 0.436738 0.838086 -0.038503 0.719525 0.693399 0.017567 0.999739 0.014591 0.388534 0.921343 -0.012988 -0.015013 0.70887 -0.705179 0.418817 0.394641 -0.817833 -0.571645 -0.818104 -0.06268 -0.002457 -0.995766 0.091887 -0.028088 -0.022618 -0.99935 -0.055403 -0.746227 -0.663382 -0.051301 -0.115919 -0.991933 0.399278 -0.462499 -0.791626 -0.002457 -0.995766 0.091887 0.352303 -0.93481 0.044858 -0.579625 0.812562 -0.061467 -0.073001 -0.9959 -0.053419 -0.013269 0.334731 -0.94222 0.143076 -0.015897 0.989584 0.759625 0.229168 -0.608647 0.03718 0.627871 0.777429 -0.039478 -0.116176 0.992444 -0.050581 -0.744171 0.666072 -0.00277 -0.995734 -0.092226 0.352567 -0.9347 -0.045084 0.399061 -0.459929 0.793231 -0.020804 -0.022492 0.999531 -0.00964 0.706833 0.707315 0.418304 0.392257 0.819241 0.997831 -0.048707 -0.044288 0.388773 0.921242 0.012988 0.325291 0.434666 -0.839792 -0.039127 0.717608 -0.695347 0.017476 0.99974 -0.014655 -0.017699 0.998431 0.053134 0.036731 0.647145 -0.761482 0.876672 0.268395 0.399263 -0.066886 0.348396 0.934958 -0.579625 0.812562 -0.061467 -0.073001 -0.9959 -0.053419 0.131597 -0.135595 -0.981986 -0.035331 -0.102485 -0.994107 -0.081823 -0.670757 -0.73715 -0.088428 0.003616 -0.996076 0.28603 -0.438814 -0.851839 0.352567 -0.9347 -0.045084 -0.00277 -0.995734 -0.092226 -0.475472 -0.879731 0 -0.999984 0 -0.005644 -0.910244 -0.394132 -0.126951 -0.377266 -0.554681 -0.741619 -0.54907 -0.649706 -0.525742 -0.169891 -0.856378 -0.487599 0.124213 -0.99224 0.00563 0.403804 -0.370136 -0.836625 0.570741 0.06697 -0.818395 0.810648 -0.123153 -0.572436 0.632684 -0.630812 -0.449207 0.867421 -0.497576 0 0.998827 -0.048433 0 0.865865 0.139597 -0.480407 0.987795 0.15576 0 0.865865 0.139597 0.480406 0.810648 -0.123153 0.572436 0.632684 -0.630812 0.449207 0.459696 -0.888076 0 0.136276 -0.900902 -0.412074 0.078785 -0.996892 0 0.136276 -0.900902 0.412074 -0.377266 -0.554681 0.741619 -0.910244 0.394132 -0.126951 -0.54907 0.649706 -0.525742 -0.169891 0.856378 -0.487599 0.124213 0.99224 0.00563 0.403804 -0.370136 0.836625 0.570741 0.06697 0.818395 0.078785 -0.996892 0 -0.756076 0.654226 0.018375 -0.703117 0.711047 0.006153 -0.751357 0.659896 0 -0.756076 0.654226 -0.018375 -0.703117 0.711047 -0.006153 -0.751357 0.659896 0 -0.703117 0.711047 0.006153 -0.703117 0.711047 -0.006153 0.138714 0 -0.990332 0.138714 0 -0.990332 -0.937142 -0.141897 0.318796 -0.325999 -0.835674 0.442012 -0.324035 -0.337315 0.883867 -0.345654 -0.030817 0.937856 0.394851 -0.840214 0.371662 -0.254664 -0.96519 -0.059615 -0.937142 -0.141897 0.318796 -0.648971 -0.239305 -0.722198 0.029357 -0.635489 -0.771551 0.376208 -0.91588 -0.140112 -0.648971 -0.239305 -0.722198 -0.937142 0.141897 0.318796 -0.324035 0.337315 0.883867 -0.325999 0.835674 0.442012 -0.345654 0.030817 0.937856 0.394851 0.840214 0.371662 -0.254664 0.96519 -0.059615 -0.937142 0.141897 0.318796 -0.648971 0.239306 -0.722198 0.031024 0.628596 -0.777113 0.376208 0.91588 -0.140112 -0.648971 0.239306 -0.722198 0.194537 -0.559633 -0.805584 0.368048 -0.464188 -0.805649 0.494296 -0.558814 -0.665882 0.261482 -0.760935 -0.593805 0.006339 -0.608199 -0.79376 0.494577 -0.808646 -0.318567 0.699413 -0.479805 -0.529724 0.708959 0 -0.70525 0.56631 0 -0.824192 0.494296 0.558814 -0.665882 0.368048 0.464188 -0.805649 0.194537 0.559633 -0.805584 0.261482 0.760935 -0.593805 0.006339 0.608199 -0.793759 0.494577 0.808646 -0.318567 0.699413 0.479805 -0.529724 0.766385 0 -0.642381 -0.011689 0.01212 0.999858 0.023719 0.03623 0.999062 0.03825 0 0.999268 -0.011689 -0.01212 0.999858 0.023721 -0.03623 0.999062 -0.639363 -0.564434 -0.522139 -0.794456 -0.531272 0.294261 -0.9624 0 -0.271636 -0.73517 0 -0.677883 -0.639359 0.564436 -0.522143 -0.794456 0.531272 0.294261 -0.349832 0.921436 -0.169034 -0.534675 0.67577 0.507402 -0.536821 0.465985 0.703336 -0.446858 0.581738 0.679632 -0.667479 0 0.744629 -0.92276 0 0.385375 -0.53682 -0.465985 0.703336 -0.534675 -0.67577 0.507403 -0.446858 -0.581738 0.679632 -0.349832 -0.921436 -0.169034 -0.115039 -0.861436 -0.494666 0.215285 -0.94051 -0.262855 0.376208 -0.91588 -0.140112 0.471226 -0.703826 -0.531578 -0.158974 -0.650956 -0.742283 -0.611312 -0.021158 -0.791107 -0.163448 0.649909 -0.742228 -0.115044 0.861438 -0.494661 0.491185 0.711505 -0.502491 0.162547 0.818315 -0.551306 0.76134 0.290959 0.5794 0.898591 -0.073471 -0.432593 0.487054 -0.764767 -0.421793 0.724872 -0.39765 -0.562526 0.856623 0 -0.515944 0.724846 0.39766 -0.562552 0.215283 0.940517 -0.262834 0.376208 0.91588 -0.140112 0.576409 -0.781094 -0.240095 0.471226 -0.703826 -0.531578 0.724872 -0.39765 -0.562526 0.215285 -0.94051 -0.262855 0.430677 -0.900355 0.062274 0.577382 -0.808139 0.116371 0.528882 -0.84482 0.081014 0.394851 -0.840214 0.371662 0.376208 -0.91588 -0.140112 0.764864 -0.644121 0.009529 0.50357 -0.477772 0.719827 0.856623 0 -0.515944 0.886702 0 0.462342 0.564523 0 0.825417 0.503571 0.477772 0.719827 0.764864 0.644121 0.009529 0.577382 0.808139 0.116371 0.576405 0.781098 -0.24009 0.430677 0.900355 0.062275 0.528882 0.84482 0.081014 0.394851 0.840214 0.371662 0.376208 0.91588 -0.140112 0.215283 0.940517 -0.262834 0.491185 0.711505 -0.502491 0.724846 0.39766 -0.562552 -0.058468 -0.556277 -0.828937 0.074104 0.005706 -0.997234 -0.067668 0.493592 -0.867057 -0.199061 -0.124099 -0.972098 0.199045 0.860585 -0.468801 0.699581 0.268034 0.662378 0.710154 -0.629779 -0.314737 0.199045 0.860585 -0.468801 -0.011689 0.01212 0.999858 0.03825 0 0.999268 -0.011689 -0.01212 0.999858 -0.125901 0 0.992043 -0.125901 0 0.992043 -0.090809 0.453234 -0.886754 0.270273 0.650163 -0.710099 -0.052191 -0.169981 -0.984064 -0.466546 0.514316 -0.719593 -0.550782 -0.775685 -0.308142 0.15108 -0.913446 -0.377877 0.766506 -0.240676 -0.595436 0.834011 -0.551703 0.007003 -0.046618 -0.869644 0.491474 -0.566901 -0.354036 0.74383 -0.988856 -0.144487 0.035882 0.662773 -0.238661 0.709769 -0.095526 0.114724 0.988794 0.320079 0.713767 0.622966 0.029403 0.997716 -0.06082 0.846452 0.531557 0.031065 0.270273 0.650163 -0.710099 -0.466546 0.514316 -0.719593 -0.090809 0.453234 -0.886754 0.766506 -0.240676 -0.595436 0.834011 -0.551703 0.007003 0.662773 -0.238661 0.709769 0.320079 0.713767 0.622966 -0.411633 0.825442 0.386269 -0.095526 0.114724 0.988794 -0.566901 -0.354036 0.74383 -0.988856 -0.144487 0.035882 0.662773 -0.238662 -0.709769 -0.095526 0.114724 -0.988794 0.320079 0.713767 -0.622966 -0.046618 -0.869644 -0.491474 0.834011 -0.551703 -0.007003 0.15108 -0.913446 0.377878 -0.550782 -0.775685 0.308142 -0.052191 -0.169981 0.984064 -0.466546 0.514316 0.719593 -0.988856 -0.144487 -0.035882 -0.566901 -0.354035 -0.74383 0.029403 0.997716 0.06082 0.270273 0.650163 0.710099 0.846452 0.531557 -0.031065 -0.466546 0.514316 0.719593 -0.090809 0.453233 0.886754 -0.411633 0.825442 -0.386268 -0.988856 -0.144487 -0.035882 -0.566901 -0.354035 -0.74383 -0.095526 0.114724 -0.988794 0.320079 0.713767 -0.622966 0.662773 -0.238662 -0.709769 0.834011 -0.551703 -0.007003 0.766506 -0.240676 0.595436 -0.090809 0.453233 0.886754 0.270273 0.650163 0.710099 0.766506 -0.240676 0.595436</float_array>
          <technique_common>
            <accessor source="#GeometrySource5-array" count="390" stride="3">
              <param name="X" type="float"/>
              <param name="Y" type="float"/>
              <param name="Z" type="float"/>
            </accessor>
          </technique_common>
        </source>
        <source id="GeometrySource6" name="mesh_1_UV">
          <float_array id="GeometrySource6-array" count="780">0.665959 0.558195 0.611196 0.504668 0.649282 0.455014 0.631343 0.646803 0.688921 0.607166 0.728211 0.492991 0.703765 0.446539 0.679001 0.398238 0.703765 0.446539 0.723668 0.408416 0.67853 0.584847 0.614325 0.577133 0.665959 0.558195 0.611196 0.504668 0.589825 0.413894 0.575389 0.539312 0.526135 0.412117 0.589825 0.413894 0.575389 0.539312 0.611196 0.504668 0.614325 0.577133 0.665959 0.558195 0.649282 0.455014 0.665959 0.558195 0.631343 0.646803 0.688921 0.607166 0.728211 0.492991 0.67853 0.584847 0.703765 0.446539 0.679001 0.398238 0.703765 0.446539 0.723668 0.408416 0.589825 0.413894 0.649282 0.455014 0.589825 0.413894 0.649282 0.455014 0.626003 0.485233 0.649282 0.455014 0.626003 0.485233 0.461294 0.483323 0.477502 0.432557 0.418491 0.475875 0.438051 0.627038 0.418491 0.627038 0.445039 0.399203 0.534797 0.475875 0.497076 0.483323 0.512417 0.627038 0.438051 0.669951 0.512417 0.669951 0.534797 0.627038 0.510147 0.399203 0.563068 0.62612 0.607983 0.62612 0.563068 0.706275 0.550414 0.666007 0.607983 0.706275 0.461294 0.483323 0.418491 0.475875 0.477502 0.432557 0.438051 0.627038 0.418491 0.627038 0.445039 0.399203 0.534797 0.475875 0.497076 0.483323 0.512417 0.627038 0.438051 0.669951 0.512417 0.669951 0.534797 0.627038 0.510147 0.399203 0.563068 0.62612 0.563068 0.706275 0.607983 0.62612 0.550414 0.666007 0.607983 0.706275 0.342074 0.021363 0.407025 0.277553 0.501139 0.13074 0.49566 0.021363 0.501139 0.13074 0.640663 0.021363 0.630341 0.199245 0.660084 0.186326 0.677396 0.279359 0.628593 0.336488 0.554037 0.385871 0.679795 0.36647 0.733483 0.272254 0.709536 0.139137 0.720284 0.021363 0.670453 0.021363 0.709536 0.139137 0.733483 0.272254 0.749788 0.021363 0.814289 0.021363 0.827278 0.280809 0.745986 0.349246 0.892812 0.252054 0.880998 0.358061 0.989584 0.28363 0.89568 0.021363 0.989584 0.021363 0.989584 0.186341 0.407025 0.277553 0.628568 0.336478 0.630341 0.199245 0.660084 0.186326 0.677396 0.279359 0.679795 0.36647 0.554037 0.385871 0.892812 0.252054 0.989584 0.186341 0.989584 0.28363 0.827278 0.280809 0.745986 0.349246 0.880998 0.358061 0.990096 0.52664 0.991657 0.627649 0.873591 0.527115 0.876394 0.624214 0.960341 0.713353 0.873062 0.698732 0.872856 0.752256 0.956986 0.787974 0.878178 0.808847 0.980458 0.851892 0.898867 0.878497 0.873591 0.975955 0.870514 0.880839 0.809411 0.932948 0.807391 0.883541 0.734802 0.9101 0.730905 0.97596 0.664591 0.766052 0.734172 0.856228 0.807124 0.826684 0.806791 0.755848 0.725464 0.761055 0.803084 0.689981 0.718786 0.644407 0.990096 0.97548 0.811432 0.976453 0.807873 0.620508 0.809391 0.567965 0.870326 0.624206 0.721026 0.595114 0.811432 0.527613 0.730905 0.52712 0.990096 0.52664 0.873591 0.527115 0.991657 0.627649 0.876394 0.624214 0.960341 0.713353 0.873062 0.698732 0.870326 0.624206 0.809391 0.567965 0.811432 0.527613 0.730905 0.52712 0.721026 0.595114 0.807873 0.620508 0.803084 0.689981 0.718786 0.644407 0.664591 0.766052 0.725464 0.761055 0.734172 0.856228 0.807124 0.826684 0.806791 0.755848 0.872856 0.752256 0.878178 0.808847 0.956986 0.787974 0.98046 0.852215 0.990096 0.97548 0.873591 0.975955 0.898868 0.878521 0.870514 0.880839 0.809411 0.932948 0.807391 0.883541 0.734802 0.9101 0.730905 0.97596 0.811432 0.976453 0.188761 0.456987 0.188761 0.583198 0.199995 0.583198 0.198642 0.400406 0.207311 0.579922 0.215801 0.520898 0.213726 0.404996 0.223241 0.28267 0.286178 0.36729 0.277952 0.238565 0.252373 0.161711 0.259886 0.12112 0.349383 0.220218 0.342787 0.351561 0.403425 0.352758 0.342787 0.351561 0.277952 0.238565 0.252373 0.161711 0.23179 0.123932 0.201417 0.284774 0.188761 0.272207 0.201417 0.284774 0.198642 0.400406 0.199995 0.583198 0.207311 0.579922 0.215801 0.520898 0.213726 0.404996 0.223241 0.28267 0.286178 0.36729 0.217587 0.125353 0.224086 0.876847 0.20402 0.84502 0.229284 0.90101 0.224086 0.925174 0.20402 0.957 0.229284 0.90101 0.20402 0.84502 0.20402 0.957 0.178471 0.976964 0.178471 0.825057 0.78823 0.335125 0.806887 0.393731 0.769594 0.437139 0.746881 0.425569 0.756849 0.506562 0.830228 0.399753 0.827358 0.321342 0.851496 0.376612 0.846192 0.44372 0.830828 0.506563 0.868688 0.44894 0.78823 0.335125 0.769594 0.437139 0.806887 0.393731 0.746881 0.425569 0.756849 0.506562 0.830228 0.399753 0.827358 0.321342 0.851496 0.376612 0.846192 0.44372 0.830828 0.506563 0.868688 0.44894 0.301733 0.56459 0.333881 0.556374 0.313376 0.499052 0.234541 0.506401 0.210554 0.579922 0.287776 0.370552 0.342787 0.355062 0.406412 0.546295 0.406412 0.606218 0.313376 0.499052 0.333881 0.556374 0.301733 0.56459 0.234541 0.506401 0.210554 0.579922 0.287776 0.370552 0.342787 0.355062 0.403425 0.356259 0.166922 0.84502 0.157589 0.876847 0.155111 0.90101 0.166922 0.957 0.157589 0.925174 0.510246 0.882723 0.462877 0.802777 0.455278 0.925573 0.506182 0.98216 0.510246 0.882723 0.462877 0.802777 0.503073 0.765102 0.48253 0.731172 0.449438 0.723444 0.469723 0.685256 0.422853 0.778437 0.424337 0.863952 0.449438 0.723444 0.48253 0.731172 0.469723 0.685256 0.503073 0.765102 0.534235 0.821433 0.556408 0.758849 0.525855 0.728686 0.58376 0.807187 0.569673 0.884852 0.568664 0.978715 0.569673 0.884852 0.534235 0.821433 0.58376 0.807187 0.622244 0.86949 0.636264 0.838258 0.635898 0.779064 0.622244 0.86949 0.609621 0.741485 0.640409 0.696888 0.609621 0.741485 0.556408 0.758849 0.525855 0.728686 0.2996 0.862918 0.299376 0.984553 0.351846 0.888124 0.24939 0.89706 0.252386 0.75656 0.294506 0.764408 0.301733 0.56459 0.210554 0.579922 0.210266 0.784601 0.339759 0.755893 0.335212 0.703647 0.407912 0.83812 0.407912 0.713408 0.407912 0.675397 0.335212 0.703647 0.339759 0.755893 0.294506 0.764408 0.2996 0.862918 0.252386 0.75656 0.301733 0.56459 0.210554 0.579922 0.210266 0.784601 0.24939 0.89706 0.299376 0.984553 0.351846 0.888124 0.592537 0.934757 0.632621 0.915242 0.592537 0.934757 0.593964 0.985985 0.646575 0.870053 0.652875 0.789499 0.646575 0.870053 0.649151 0.870516 0.166922 0.84502 0.155111 0.90101 0.166922 0.957 0.178471 0.976964 0.178471 0.825057 0.057601 0.492567 0.007784 0.491521 0.06647 0.416533 0.125573 0.51204 0.101546 0.371664 0.061664 0.354002 0.007784 0.369975 0.007784 0.257424 0.056472 0.160965 0.137443 0.120023 0.181796 0.354709 0.007784 0.123735 0.087322 0.054315 0.007784 0.022379 0.075601 0.749258 0.074094 0.872892 0.007375 0.872892 0.007375 0.590568 0.007375 0.755299 0.007375 0.986139 0.072074 0.986139 0.138952 0.986139 0.145718 0.872892 0.104638 0.602773 0.15452 0.766254 0.155192 0.623359 0.040479 0.527497 0.007784 0.123735 0.087322 0.054315 0.007784 0.022379 0.056472 0.160965 0.007784 0.257424 0.061664 0.354002 0.101546 0.371664 0.06647 0.416533 0.125573 0.51204 0.181796 0.354709 0.137443 0.120023 0.075601 0.749258 0.007375 0.872892 0.074094 0.872892 0.007375 0.590568 0.007375 0.755299 0.104638 0.602773 0.040479 0.527497 0.155192 0.623359 0.15452 0.766254 0.145718 0.872892 0.138952 0.986139 0.072074 0.986139 0.007375 0.986139 0.057601 0.492567 0.007784 0.491521 0.007784 0.369975</float_array>
          <technique_common>
            <accessor source="#GeometrySource6-array" count="390" stride="2">
              <param name="S" type="float"/>
              <param name="T" type="float"/>
            </accessor>
          </technique_common>
        </source>
        <source id="GeometrySource7" name="mesh_1_Clr">
          <float_array id="GeometrySource7-array" count="1560">0.866667 0.866667 0.866667 1 0.733333 0.733333 0.733333 1 0.701961 0.701961 0.701961 1 0.835294 0.835294 0.835294 1 1 1 1 1 1 1 1 1 0.835294 0.835294 0.835294 1 0.670588 0.670588 0.670588 1 0.835294 0.835294 0.835294 1 0.768628 0.768628 0.768628 1 1 1 1 1 0.835294 0.835294 0.835294 1 0.866667 0.866667 0.866667 1 0.8 0.8 0.8 1 0.670588 0.670588 0.670588 1 0.8 0.8 0.8 1 0.8 0.8 0.8 1 0.670588 0.670588 0.670588 1 0.8 0.8 0.8 1 0.8 0.8 0.8 1 0.835294 0.835294 0.835294 1 0.866667 0.866667 0.866667 1 0.701961 0.701961 0.701961 1 0.866667 0.866667 0.866667 1 0.835294 0.835294 0.835294 1 1 1 1 1 1 1 1 1 1 1 1 1 0.835294 0.835294 0.835294 1 0.670588 0.670588 0.670588 1 0.835294 0.835294 0.835294 1 0.768628 0.768628 0.768628 1 0.701961 0.701961 0.701961 1 0.670588 0.670588 0.670588 1 0.701961 0.701961 0.701961 1 0.670588 0.670588 0.670588 1 0.670588 0.670588 0.670588 1 0.733333 0.733333 0.733333 1 0.670588 0.670588 0.670588 1 0.8 0.8 0.8 1 0.768628 0.768628 0.768628 1 0.733333 0.733333 0.733333 1 1 1 1 1 0.901961 0.901961 0.901961 1 0.733333 0.733333 0.733333 1 0.733333 0.733333 0.733333 1 0.8 0.8 0.8 1 1 1 1 1 0.901961 0.901961 0.901961 1 0.901961 0.901961 0.901961 1 0.901961 0.901961 0.901961 1 0.733333 0.733333 0.733333 1 0.733333 0.733333 0.733333 1 0.901961 0.901961 0.901961 1 0.733333 0.733333 0.733333 1 0.733333 0.733333 0.733333 1 0.901961 0.901961 0.901961 1 0.8 0.8 0.8 1 0.733333 0.733333 0.733333 1 0.768628 0.768628 0.768628 1 1 1 1 1 0.901961 0.901961 0.901961 1 0.733333 0.733333 0.733333 1 0.733333 0.733333 0.733333 1 0.8 0.8 0.8 1 1 1 1 1 0.901961 0.901961 0.901961 1 0.901961 0.901961 0.901961 1 0.901961 0.901961 0.901961 1 0.733333 0.733333 0.733333 1 0.733333 0.733333 0.733333 1 0.733333 0.733333 0.733333 1 0.901961 0.901961 0.901961 1 0.733333 0.733333 0.733333 1 0.901961 0.901961 0.901961 1 0.733333 0.733333 0.733333 1 0.835294 0.835294 0.835294 1 1 1 1 1 1 1 1 1 1 1 1 1 0.733333 0.733333 0.733333 1 1 1 1 1 1 1 1 1 1 1 1 1 0.933333 0.933333 0.933333 1 0.8 0.8 0.8 1 0.933333 0.933333 0.933333 1 1 1 1 1 1 1 1 1 1 1 1 1 0.733333 0.733333 0.733333 1 1 1 1 1 1 1 1 1 1 1 1 1 1 1 1 1 0.968628 0.968628 0.968628 1 0.933333 0.933333 0.933333 1 0.835294 0.835294 0.835294 1 0.8 0.8 0.8 1 0.835294 0.835294 0.835294 1 0.901961 0.901961 0.901961 1 0.8 0.8 0.8 1 0.8 0.8 0.8 1 0.835294 0.835294 0.835294 1 0.933333 0.933333 0.933333 1 1 1 1 1 1 1 1 1 1 1 1 1 0.933333 0.933333 0.933333 1 0.8 0.8 0.8 1 0.835294 0.835294 0.835294 1 0.8 0.8 0.8 1 0.835294 0.835294 0.835294 1 0.968628 0.968628 0.968628 1 0.933333 0.933333 0.933333 1 0.8 0.8 0.8 1 0.8 0.8 0.8 1 0.968628 0.968628 0.968628 1 0.8 0.8 0.8 1 1 1 1 1 0.933333 0.933333 0.933333 1 1 1 1 1 1 1 1 1 0.933333 0.933333 0.933333 1 1 1 1 1 0.933333 0.933333 0.933333 1 1 1 1 1 0.8 0.8 0.8 1 0.933333 0.933333 0.933333 1 0.901961 0.901961 0.901961 1 1 1 1 1 0.901961 0.901961 0.901961 1 0.8 0.8 0.8 1 1 1 1 1 1 1 1 1 1 1 1 1 1 1 1 1 1 1 1 1 1 1 1 1 1 1 1 1 0.8 0.8 0.8 1 0.8 0.8 0.8 1 1 1 1 1 0.901961 0.901961 0.901961 1 1 1 1 1 0.901961 0.901961 0.901961 1 0.8 0.8 0.8 1 0.8 0.8 0.8 1 0.8 0.8 0.8 1 0.8 0.8 0.8 1 0.968628 0.968628 0.968628 1 1 1 1 1 0.933333 0.933333 0.933333 1 1 1 1 1 1 1 1 1 0.901961 0.901961 0.901961 1 0.8 0.8 0.8 1 0.8 0.8 0.8 1 0.901961 0.901961 0.901961 1 1 1 1 1 1 1 1 1 1 1 1 1 1 1 1 1 1 1 1 1 1 1 1 1 1 1 1 1 1 1 1 1 1 1 1 1 1 1 1 1 0.933333 0.933333 0.933333 1 0.933333 0.933333 0.933333 1 0.8 0.8 0.8 1 0.8 0.8 0.8 1 1 1 1 1 0.933333 0.933333 0.933333 1 0.901961 0.901961 0.901961 1 1 1 1 1 0.901961 0.901961 0.901961 1 0.8 0.8 0.8 1 0.8 0.8 0.8 1 0.901961 0.901961 0.901961 1 1 1 1 1 0.901961 0.901961 0.901961 1 0.901961 0.901961 0.901961 1 0.901961 0.901961 0.901961 1 0.933333 0.933333 0.933333 1 0.933333 0.933333 0.933333 1 0.901961 0.901961 0.901961 1 1 1 1 1 0.901961 0.901961 0.901961 1 0.866667 0.866667 0.866667 1 0.866667 0.866667 0.866667 1 0.901961 0.901961 0.901961 1 1 1 1 1 1 1 1 1 1 1 1 1 0.901961 0.901961 0.901961 1 0.866667 0.866667 0.866667 1 0.866667 0.866667 0.866667 1 0.901961 0.901961 0.901961 1 0.866667 0.866667 0.866667 1 0.901961 0.901961 0.901961 1 0.901961 0.901961 0.901961 1 0.901961 0.901961 0.901961 1 0.901961 0.901961 0.901961 1 0.933333 0.933333 0.933333 1 0.933333 0.933333 0.933333 1 0.901961 0.901961 0.901961 1 1 1 1 1 0.866667 0.866667 0.866667 1 1 1 1 1 1 1 1 1 1 1 1 1 1 1 1 1 1 1 1 1 0.701961 0.701961 0.701961 1 0.701961 0.701961 0.701961 1 0.701961 0.701961 0.701961 1 0.635294 0.635294 0.635294 1 0.635294 0.635294 0.635294 1 0.901961 0.901961 0.901961 1 1 1 1 1 1 1 1 1 0.901961 0.901961 0.901961 1 0.901961 0.901961 0.901961 1 1 1 1 1 0.901961 0.901961 0.901961 1 0.933333 0.933333 0.933333 1 1 1 1 1 0.968628 0.968628 0.968628 1 0.933333 0.933333 0.933333 1 0.901961 0.901961 0.901961 1 1 1 1 1 1 1 1 1 0.901961 0.901961 0.901961 1 0.901961 0.901961 0.901961 1 1 1 1 1 0.901961 0.901961 0.901961 1 0.933333 0.933333 0.933333 1 1 1 1 1 0.968628 0.968628 0.968628 1 0.933333 0.933333 0.933333 1 1 1 1 1 1 1 1 1 1 1 1 1 1 1 1 1 0.901961 0.901961 0.901961 1 1 1 1 1 1 1 1 1 1 1 1 1 0.968628 0.968628 0.968628 1 1 1 1 1 1 1 1 1 1 1 1 1 1 1 1 1 0.901961 0.901961 0.901961 1 1 1 1 1 1 1 1 1 1 1 1 1 1 1 1 1 1 1 1 1 1 1 1 1 1 1 1 1 1 1 1 1 1 1 1 1 1 1 1 1 1 1 1 1 1 1 1 1 1 1 1 1 1 1 1 1 0.933333 0.933333 0.933333 1 0.901961 0.901961 0.901961 1 0.901961 0.901961 0.901961 1 0.901961 0.901961 0.901961 1 1 1 1 1 1 1 1 1 0.901961 0.901961 0.901961 1 0.901961 0.901961 0.901961 1 0.901961 0.901961 0.901961 1 0.933333 0.933333 0.933333 1 1 1 1 1 1 1 1 1 0.968628 0.968628 0.968628 1 1 1 1 1 1 1 1 1 1 1 1 1 1 1 1 1 1 1 1 1 1 1 1 1 1 1 1 1 0.835294 0.835294 0.835294 1 1 1 1 1 1 1 1 1 1 1 1 1 1 1 1 1 1 1 1 1 1 1 1 1 0.968628 0.968628 0.968628 1 1 1 1 1 1 1 1 1 1 1 1 1 1 1 1 1 1 1 1 1 0.933333 0.933333 0.933333 1 1 1 1 1 0.901961 0.901961 0.901961 1 0.968628 0.968628 0.968628 1 1 1 1 1 0.901961 0.901961 0.901961 1 1 1 1 1 1 1 1 1 0.901961 0.901961 0.901961 1 0.901961 0.901961 0.901961 1 1 1 1 1 0.933333 0.933333 0.933333 1 1 1 1 1 1 1 1 1 1 1 1 1 0.901961 0.901961 0.901961 1 0.968628 0.968628 0.968628 1 1 1 1 1 1 1 1 1 1 1 1 1 1 1 1 1 1 1 1 1 1 1 1 1 1 1 1 1 1 1 1 1 1 1 1 1 1 1 1 1 1 1 1 1 0.701961 0.701961 0.701961 1 0.701961 0.701961 0.701961 1 0.701961 0.701961 0.701961 1 0.635294 0.635294 0.635294 1 0.635294 0.635294 0.635294 1 1 1 1 1 1 1 1 1 0.901961 0.901961 0.901961 1 0.901961 0.901961 0.901961 1 0.8 0.8 0.8 1 0.866667 0.866667 0.866667 1 0.901961 0.901961 0.901961 1 0.901961 0.901961 0.901961 1 0.866667 0.866667 0.866667 1 0.768628 0.768628 0.768628 1 0.901961 0.901961 0.901961 1 0.901961 0.901961 0.901961 1 1 1 1 1 1 1 1 1 1 1 1 1 1 1 1 1 1 1 1 1 0.901961 0.901961 0.901961 1 1 1 1 1 0.901961 0.901961 0.901961 1 0.901961 0.901961 0.901961 1 0.901961 0.901961 0.901961 1 1 1 1 1 0.901961 0.901961 0.901961 1 1 1 1 1 0.768628 0.768628 0.768628 1 0.901961 0.901961 0.901961 1 0.901961 0.901961 0.901961 1 1 1 1 1 1 1 1 1 0.866667 0.866667 0.866667 1 0.901961 0.901961 0.901961 1 0.866667 0.866667 0.866667 1 0.8 0.8 0.8 1 0.901961 0.901961 0.901961 1 0.901961 0.901961 0.901961 1 0.901961 0.901961 0.901961 1 0.768628 0.768628 0.768628 1 1 1 1 1 1 1 1 1 1 1 1 1 0.901961 0.901961 0.901961 1 1 1 1 1 0.901961 0.901961 0.901961 1 0.901961 0.901961 0.901961 1 0.768628 0.768628 0.768628 1 1 1 1 1 1 1 1 1 0.901961 0.901961 0.901961 1 0.901961 0.901961 0.901961 1 0.901961 0.901961 0.901961 1 1 1 1 1 1 1 1 1 0.901961 0.901961 0.901961 1</float_array>
          <technique_common>
            <accessor source="#GeometrySource7-array" count="390" stride="4">
              <param name="R" type="float"/>
              <param name="G" type="float"/>
              <param name="B" type="float"/>
              <param name="A" type="float"/>
            </accessor>
          </technique_common>
        </source>
        <vertices id="Geometry1-vertices">
          <input semantic="POSITION" source="#GeometrySource4"/>
          <input semantic="NORMAL" source="#GeometrySource5"/>
          <input semantic="TEXCOORD" source="#GeometrySource6"/>
          <input semantic="COLOR" source="#GeometrySource7"/>
        </vertices>
        <triangles material="VisualMaterial10" count="496">
          <input semantic="VERTEX" source="#Geometry1-vertices" offset="0"/>
          <p>0 1 2 1 0 3 0 4 3 0 5 4 6 5 0 0 2 6 2 7 6 7 2 8 8 9 7 8 5 9 5 6 9 9 6 7 4 5 10 10 3 4 5 8 10 3 10 11 2 12 8 10 8 12 11 10 12 12 13 11 13 12 2 14 13 2 15 11 13 15 13 14 14 16 15 16 14 17 17 18 16 18 17 19 18 19 20 21 20 19 19 22 21 17 22 19 23 22 1 1 24 23 23 24 25 25 26 23 27 20 21 24 20 27 24 27 25 25 27 26 28 27 21 22 28 21 26 27 28 29 28 22 22 30 29 23 30 22 23 26 30 31 29 30 28 29 31 28 31 26 26 31 30 32 33 1 34 1 35 36 37 38 39 40 41 41 42 39 41 43 42 41 40 44 45 40 46 46 40 39 39 47 46 46 47 45 42 47 39 48 47 42 49 47 48 45 47 50 51 40 45 52 53 54 54 55 52 54 53 56 57 58 59 58 57 60 58 60 61 58 62 59 63 64 59 64 57 59 57 64 65 64 63 65 60 57 65 66 60 65 67 66 65 63 68 65 69 63 59 70 71 72 71 70 73 71 74 72 75 76 77 78 75 77 78 79 75 78 77 80 78 80 79 80 77 81 82 80 81 81 83 82 77 84 81 77 76 84 81 84 83 76 85 84 83 84 86 83 86 87 82 83 88 87 88 83 89 88 87 82 88 90 90 80 82 89 90 88 89 91 90 89 92 91 87 93 89 89 93 92 92 93 94 87 94 93 87 95 94 87 86 96 87 96 95 97 95 98 98 99 97 95 100 94 100 95 97 101 100 97 101 97 102 99 102 97 75 79 103 79 104 103 79 80 105 79 105 104 105 80 106 106 80 90 106 90 91 105 106 107 92 107 91 105 107 104 106 91 107 107 92 108 107 108 104 103 104 109 101 110 100 110 101 111 111 112 110 100 110 113 92 94 113 113 94 100 92 114 108 92 113 114 110 115 113 110 112 115 116 117 118 117 119 118 120 119 117 121 119 120 122 121 120 120 123 122 123 124 122 125 124 123 126 124 125 126 125 127 126 128 124 127 128 126 129 128 127 130 128 129 129 131 130 132 131 129 131 132 133 134 131 133 130 131 134 130 135 128 130 134 135 124 135 122 128 135 124 135 136 122 137 135 134 137 134 133 136 135 137 137 138 136 138 122 136 138 121 122 137 139 138 137 133 139 125 140 127 141 129 127 132 129 141 142 138 139 142 143 144 142 144 138 144 121 138 119 121 144 144 118 119 118 144 143 142 139 145 133 145 139 142 145 143 143 146 118 143 145 147 146 143 147 133 147 145 148 149 150 150 149 151 150 151 152 151 153 152 151 154 153 154 151 149 149 155 154 155 149 156 156 157 155 155 157 158 159 154 155 159 155 158 159 160 154 154 160 153 159 158 161 159 161 160 162 158 157 162 161 158 163 160 161 163 161 162 163 162 164 163 164 165 166 163 165 163 166 160 167 152 153 165 167 166 160 166 167 160 167 153 168 167 165 167 168 169 152 167 169 169 168 170 171 170 172 173 170 168 172 170 173 173 168 174 172 173 174 174 168 165 175 172 174 176 165 164 176 174 165 176 175 174 175 176 177 176 164 177 164 162 177 178 175 177 177 162 178 179 172 175 178 179 175 180 181 182 183 180 182 184 183 182 185 183 184 186 183 185 186 187 183 187 186 188 187 188 189 189 190 187 191 190 189 189 192 191 188 193 189 192 189 193 194 192 193 194 195 192 192 195 196 196 191 192 191 196 197 191 197 198 191 198 190 183 187 199 183 199 180 190 198 199 190 199 187 199 200 180 201 198 197 201 180 200 202 180 201 202 203 180 180 203 181 204 203 202 205 204 202 206 205 202 196 207 197 202 201 207 206 202 207 197 207 201 207 196 208 207 208 206 208 196 195 198 209 199 209 198 201 210 211 212 213 212 214 215 216 217 217 216 218 216 219 218 220 221 222 220 222 223 224 223 222 222 221 224 225 224 221 225 221 226 226 227 225 227 228 225 229 225 228 229 224 225 230 229 228 231 232 233 231 234 232 232 235 233 235 232 234 236 233 235 236 237 233 237 236 238 238 236 239 240 239 236 240 236 235 241 239 240 242 243 244 245 186 185 242 244 245 246 245 185 242 245 246 246 185 184 245 247 186 244 247 245 248 247 244 249 248 244 250 249 244 250 244 243 250 251 249 250 252 251 253 251 252 254 205 206 253 254 251 255 205 254 253 255 254 255 204 205 254 206 256 251 254 256 257 251 256 249 251 257 248 249 258 257 258 249 259 260 261 262 261 263 264 265 266 266 267 264 266 268 267 268 266 269 269 270 268 269 271 270 271 269 272 271 272 273 272 269 274 274 275 265 269 266 275 265 275 266 274 269 275 276 274 265 277 276 265 277 278 276 265 279 277 265 264 279 279 264 280 281 279 280 279 281 282 280 283 281 284 283 280 284 280 264 264 285 284 267 285 264 267 268 285 268 286 285 286 268 287 270 287 268 286 287 288 288 289 286 288 290 289 291 290 288 283 292 291 292 290 291 284 292 283 293 283 291 294 293 291 294 291 295 295 291 288 287 296 288 296 287 270 270 297 296 298 299 300 298 301 299 302 301 298 303 302 298 304 302 303 304 305 302 306 302 305 306 301 302 307 298 300 298 307 303 303 307 308 309 307 300 310 307 309 307 310 308 308 310 311 312 311 310 313 312 310 310 309 313 314 312 313 315 314 313 314 315 316 317 314 316 317 316 318 319 318 316 316 315 320 319 316 320 315 321 320 315 322 321 309 322 313 313 322 315 285 323 284 292 284 323 323 324 292 289 325 286 325 289 324 323 325 324 285 286 325 326 325 323 325 326 285 323 285 326 289 327 324 327 289 290 327 290 328 329 290 292 292 324 329 329 328 290 324 330 329 329 330 328 331 332 333 331 333 334 335 331 334 336 337 338 336 338 339 340 339 338 338 341 340 342 341 338 338 337 342 342 343 341 341 343 344 341 344 340 340 344 345 339 340 346 346 340 345 344 343 347 347 348 344 344 348 345 347 349 348 350 351 352 352 353 350 352 354 353 351 355 352 356 355 351 351 357 356 350 358 351 358 357 351 358 350 359 353 359 350 359 360 358 360 359 361 353 362 359 359 362 361 363 364 365 363 366 364 366 363 367 366 367 368 368 369 366 370 369 368 369 370 371 371 372 369 366 373 364 372 373 369 366 369 373 374 375 376 377 375 374 377 378 375 377 374 379 377 379 380 379 381 380 382 381 379 374 376 383 379 383 382 383 379 374 383 376 384 376 385 384 385 376 386 376 375 386 387 371 370 387 370 388 368 367 389 388 370 389 370 368 389</p>
        </triangles>
      </mesh>
    </geometry>
  </library_geometries>
  <library_controllers>
    <controller id="Controller">
      <skin source="#Geometry">
        <bind_shape_matrix>1 0 0 0 0 1 0 0 0 0 1 0 0 0 0 1</bind_shape_matrix>
        <source id="Controller-joints">
          <Name_array id="Controller-joints-array" count="12">wristL armL2 armL1 wristR armR2 armR1 mouth head spine waist skl_root all_root</Name_array>
          <technique_common>
            <accessor source="#Controller-joints-array" count="12" stride="1">
              <param name="JOINT" type="Name"/>
            </accessor>
          </technique_common>
        </source>
        <source id="Controller-bind_poses">
          <float_array id="Controller-bind_poses-array" count="192">1 0 0 -12.7655 0 1 0 -7.98939 0 0 1 -0.34233 0 0 0 1 1 0 0 -8.18621 0 1 0 -7.98939 0 0 1 -0.34233 0 0 0 1 1 0 0 -4.59504 0 1 0 -7.98939 0 0 1 -0.34233 0 0 0 1 -1 -0.000007 0 -12.765 -0.000007 1 -0.000002 -7.98977 0 -0.000002 -1 0.34235 0 0 0 1 -1 -0.000007 0 -8.18595 -0.000007 1 -0.000002 -7.98977 0 -0.000002 -1 0.34235 0 0 0 1 -1 -0.000007 0 -4.59495 -0.000007 1 -0.000002 -7.98977 0 -0.000002 -1 0.34235 0 0 0 1 0.000002 -0.707109 0.707104 1.36215 0.000001 0.707104 0.707109 -8.53026 -1 -0.000001 0.000002 -0.000012 0 0 0 1 0 -0.000003 1 -3.41324 -1 -0.000003 0 0.000018 0.000003 -1 -0.000003 7.69426 0 0 0 1 -0.000003 1 0 -4.98388 -1 -0.000003 0 0.000018 0 0 1 -0.27488 0 0 0 1 -0.000003 0 1 -0.758501 0 1 0 -1.69327 -1 0 -0.000003 0.000002 0 0 0 1 1 0 0 0 0 1 0 0 0 0 1 -0.473732 0 0 0 1 1 0 0 0 0 1 0 0 0 0 1 0 0 0 0 1</float_array>
          <technique_common>
            <accessor source="#Controller-bind_poses-array" count="12" stride="16">
              <param name="TRANSFORM" type="float4x4"/>
            </accessor>
          </technique_common>
        </source>
        <source id="Controller-weights">
          <float_array id="Controller-weights-array" count="1">1</float_array>
          <technique_common>
            <accessor source="#Controller-weights-array" count="1" stride="1">
              <param name="WEIGHT" type="float"/>
            </accessor>
          </technique_common>
        </source>
        <joints>
          <input semantic="JOINT" source="#Controller-joints"/>
          <input semantic="INV_BIND_MATRIX" source="#Controller-bind_poses"/>
        </joints>
        <vertex_weights count="23">
          <input semantic="JOINT" source="#Controller-joints" offset="0"/>
          <input semantic="WEIGHT" source="#Controller-weights" offset="1"/>
          <vcount>1 1 1 1 1 1 1 1 1 1 1 1 1 1 1 1 1 1 1 1 1 1 1 </vcount>
          <v>8 0 8 0 8 0 8 0 8 0 8 0 8 0 8 0 8 0 8 0 8 0 8 0 8 0 7 0 7 0 7 0 7 0 7 0 7 0 7 0 7 0 7 0 7 0</v>
        </vertex_weights>
      </skin>
      <extra>
        <technique profile="FCOLLADA">
          <user_properties>SkinController</user_properties>
        </technique>
      </extra>
    </controller>
    <controller id="Controller1">
      <skin source="#Geometry1">
        <bind_shape_matrix>1 0 0 0 0 1 0 0 0 0 1 0 0 0 0 1</bind_shape_matrix>
        <source id="Controller1-joints">
          <Name_array id="Controller1-joints-array" count="12">wristL armL2 armL1 wristR armR2 armR1 mouth head spine waist skl_root all_root</Name_array>
          <technique_common>
            <accessor source="#Controller1-joints-array" count="12" stride="1">
              <param name="JOINT" type="Name"/>
            </accessor>
          </technique_common>
        </source>
        <source id="Controller1-bind_poses">
          <float_array id="Controller1-bind_poses-array" count="192">1 0 0 -12.7655 0 1 0 -7.98939 0 0 1 -0.34233 0 0 0 1 1 0 0 -8.18621 0 1 0 -7.98939 0 0 1 -0.34233 0 0 0 1 1 0 0 -4.59504 0 1 0 -7.98939 0 0 1 -0.34233 0 0 0 1 -1 -0.000007 0 -12.765 -0.000007 1 -0.000002 -7.98977 0 -0.000002 -1 0.34235 0 0 0 1 -1 -0.000007 0 -8.18595 -0.000007 1 -0.000002 -7.98977 0 -0.000002 -1 0.34235 0 0 0 1 -1 -0.000007 0 -4.59495 -0.000007 1 -0.000002 -7.98977 0 -0.000002 -1 0.34235 0 0 0 1 0.000002 -0.707109 0.707104 1.36215 0.000001 0.707104 0.707109 -8.53026 -1 -0.000001 0.000002 -0.000012 0 0 0 1 0 -0.000003 1 -3.41324 -1 -0.000003 0 0.000018 0.000003 -1 -0.000003 7.69426 0 0 0 1 -0.000003 1 0 -4.98388 -1 -0.000003 0 0.000018 0 0 1 -0.27488 0 0 0 1 -0.000003 0 1 -0.758501 0 1 0 -1.69327 -1 0 -0.000003 0.000002 0 0 0 1 1 0 0 0 0 1 0 0 0 0 1 -0.473732 0 0 0 1 1 0 0 0 0 1 0 0 0 0 1 0 0 0 0 1</float_array>
          <technique_common>
            <accessor source="#Controller1-bind_poses-array" count="12" stride="16">
              <param name="TRANSFORM" type="float4x4"/>
            </accessor>
          </technique_common>
        </source>
        <source id="Controller1-weights">
          <float_array id="Controller1-weights-array" count="1">1</float_array>
          <technique_common>
            <accessor source="#Controller1-weights-array" count="1" stride="1">
              <param name="WEIGHT" type="float"/>
            </accessor>
          </technique_common>
        </source>
        <joints>
          <input semantic="JOINT" source="#Controller1-joints"/>
          <input semantic="INV_BIND_MATRIX" source="#Controller1-bind_poses"/>
        </joints>
        <vertex_weights count="390">
          <input semantic="JOINT" source="#Controller1-joints" offset="0"/>
          <input semantic="WEIGHT" source="#Controller1-weights" offset="1"/>
          <vcount>1 1 1 1 1 1 1 1 1 1 1 1 1 1 1 1 1 1 1 1 1 1 1 1 1 1 1 1 1 1 1 1 1 1 1 1 1 1 1 1 1 1 1 1 1 1 1 1 1 1 1 1 1 1 1 1 1 1 1 1 1 1 1 1 1 1 1 1 1 1 1 1 1 1 1 1 1 1 1 1 1 1 1 1 1 1 1 1 1 1 1 1 1 1 1 1 1 1 1 1 1 1 1 1 1 1 1 1 1 1 1 1 1 1 1 1 1 1 1 1 1 1 1 1 1 1 1 1 1 1 1 1 1 1 1 1 1 1 1 1 1 1 1 1 1 1 1 1 1 1 1 1 1 1 1 1 1 1 1 1 1 1 1 1 1 1 1 1 1 1 1 1 1 1 1 1 1 1 1 1 1 1 1 1 1 1 1 1 1 1 1 1 1 1 1 1 1 1 1 1 1 1 1 1 1 1 1 1 1 1 1 1 1 1 1 1 1 1 1 1 1 1 1 1 1 1 1 1 1 1 1 1 1 1 1 1 1 1 1 1 1 1 1 1 1 1 1 1 1 1 1 1 1 1 1 1 1 1 1 1 1 1 1 1 1 1 1 1 1 1 1 1 1 1 1 1 1 1 1 1 1 1 1 1 1 1 1 1 1 1 1 1 1 1 1 1 1 1 1 1 1 1 1 1 1 1 1 1 1 1 1 1 1 1 1 1 1 1 1 1 1 1 1 1 1 1 1 1 1 1 1 1 1 1 1 1 1 1 1 1 1 1 1 1 1 1 1 1 1 1 1 1 1 1 1 1 1 1 1 1 1 1 1 1 1 1 1 1 1 1 1 1 1 1 1 1 1 1 1 1 1 1 1 1 1 1 1 1 1 1 </vcount>
          <v>9 0 10 0 9 0 9 0 9 0 9 0 9 0 9 0 9 0 9 0 9 0 10 0 9 0 10 0 10 0 10 0 10 0 10 0 10 0 10 0 10 0 9 0 9 0 9 0 9 0 9 0 9 0 9 0 9 0 9 0 9 0 9 0 9 0 10 0 9 0 10 0 10 0 10 0 10 0 9 0 9 0 9 0 9 0 9 0 9 0 9 0 9 0 9 0 9 0 9 0 9 0 9 0 9 0 9 0 9 0 9 0 9 0 9 0 9 0 9 0 9 0 9 0 9 0 9 0 9 0 9 0 9 0 9 0 9 0 9 0 9 0 9 0 9 0 9 0 9 0 10 0 10 0 8 0 8 0 8 0 8 0 8 0 8 0 8 0 8 0 8 0 8 0 8 0 8 0 8 0 8 0 8 0 8 0 8 0 8 0 8 0 8 0 8 0 8 0 10 0 8 0 10 0 10 0 10 0 8 0 8 0 8 0 8 0 8 0 8 0 8 0 10 0 10 0 8 0 8 0 8 0 8 0 8 0 2 0 2 0 8 0 2 0 2 0 8 0 2 0 8 0 2 0 2 0 1 0 1 0 1 0 1 0 1 0 1 0 1 0 1 0 1 0 1 0 1 0 1 0 8 0 1 0 1 0 1 0 1 0 1 0 1 0 1 0 8 0 5 0 8 0 5 0 8 0 5 0 4 0 4 0 4 0 4 0 4 0 4 0 4 0 4 0 4 0 4 0 4 0 4 0 4 0 5 0 5 0 8 0 8 0 8 0 5 0 5 0 4 0 4 0 4 0 4 0 4 0 4 0 6 0 7 0 7 0 6 0 7 0 7 0 7 0 6 0 6 0 6 0 6 0 6 0 6 0 6 0 6 0 6 0 6 0 6 0 6 0 6 0 6 0 6 0 6 0 7 0 7 0 7 0 7 0 6 0 6 0 6 0 6 0 6 0 6 0 6 0 6 0 6 0 6 0 6 0 7 0 7 0 7 0 7 0 7 0 7 0 7 0 7 0 7 0 7 0 7 0 7 0 7 0 7 0 7 0 7 0 7 0 7 0 7 0 7 0 7 0 7 0 7 0 7 0 7 0 7 0 7 0 7 0 7 0 7 0 7 0 7 0 7 0 7 0 7 0 7 0 7 0 7 0 7 0 7 0 7 0 7 0 7 0 7 0 7 0 7 0 7 0 7 0 7 0 7 0 7 0 7 0 7 0 7 0 7 0 7 0 7 0 7 0 7 0 7 0 7 0 7 0 7 0 7 0 7 0 7 0 7 0 7 0 7 0 7 0 7 0 7 0 7 0 7 0 7 0 7 0 7 0 7 0 7 0 7 0 7 0 7 0 7 0 7 0 7 0 7 0 7 0 7 0 7 0 7 0 7 0 7 0 7 0 7 0 7 0 7 0 7 0 7 0 7 0 7 0 7 0 7 0 7 0 7 0 7 0 7 0 7 0 7 0 7 0 7 0 7 0 7 0 7 0 7 0 7 0 7 0 7 0 7 0 3 0 3 0 3 0 3 0 3 0 3 0 3 0 3 0 3 0 3 0 3 0 3 0 3 0 3 0 3 0 3 0 3 0 3 0 3 0 3 0 3 0 3 0 3 0 3 0 3 0 3 0 3 0 0 0 0 0 0 0 0 0 0 0 0 0 0 0 0 0 0 0 0 0 0 0 0 0 0 0 0 0 0 0 0 0 0 0 0 0 0 0 0 0 0 0 0 0 0 0 0 0 0 0 0 0 0 0</v>
        </vertex_weights>
      </skin>
      <extra>
        <technique profile="FCOLLADA">
          <user_properties>SkinController</user_properties>
        </technique>
      </extra>
    </controller>
  </library_controllers>
  <library_visual_scenes>
    <visual_scene id="VisualSceneNode" name="rdmscene">
      <node id="VisualSceneNode1" name="all_root" sid="all_root" type="JOINT">
        <matrix>1 0 0 0 0 1 0 0 0 0 1 0 0 0 0 1</matrix>
        <node id="VisualSceneNode2" name="skl_root" sid="skl_root" type="JOINT">
          <matrix>1 0 0 0 0 1 0 0 0 0 1 0.473732 0 0 0 1</matrix>
          <node id="VisualSceneNode3" name="spine" sid="spine" type="JOINT">
            <matrix>-0.000003 -1 0 0 1 -0.000003 0 4.98388 0 0 1 -0.198852 0 0 0 1</matrix>
            <node id="VisualSceneNode4" name="armL1" sid="armL1" type="JOINT">
              <matrix>-0.000003 1 0 3.00549 -1 -0.000003 0 -4.59505 0 0 1 0.06745 0 0 0 1</matrix>
              <node id="VisualSceneNode5" name="armL2" sid="armL2" type="JOINT">
                <matrix>1 0 0 3.59117 0 1 0 0 0 0 1 0 0 0 0 1</matrix>
                <node id="VisualSceneNode6" name="wristL" sid="wristL" type="JOINT">
                  <matrix>1 0 0 4.57925 0 1 0 0 0 0 1 0 0 0 0 1</matrix>
                </node>
              </node>
            </node>
            <node id="VisualSceneNode7" name="armR1" sid="armR1" type="JOINT">
              <matrix>-0.000003 1 -0.000002 3.00587 1 0.000003 0 4.595 0 -0.000002 -1 0.06745 0 0 0 1</matrix>
              <node id="VisualSceneNode8" name="armR2" sid="armR2" type="JOINT">
                <matrix>1 0 0 3.591 0 1 0 -0.000000 0 0 1 0 0 0 0 1</matrix>
                <node id="VisualSceneNode9" name="wristR" sid="wristR" type="JOINT">
                  <matrix>1 0 0 4.579 0 1 0 0.000000 0 0 1 0 0 0 0 1</matrix>
                </node>
              </node>
            </node>
            <node id="VisualSceneNode10" name="head" sid="head" type="JOINT">
              <matrix>-0.000003 0 -1 2.71037 0 1 0 0 1 0 -0.000003 3.13839 0 0 0 1</matrix>
              <node id="VisualSceneNode11" name="mouth" sid="mouth" type="JOINT">
                <matrix>0.707107 0.707107 0.000002 1.65538 0 -0.000003 1 0 0.707107 -0.707107 -0.000002 0.699268 0 0 0 1</matrix>
              </node>
            </node>
          </node>
          <node id="VisualSceneNode12" name="waist" sid="waist" type="JOINT">
            <matrix>-0.000003 0 -1 0 0 1 0 1.69327 1 0 -0.000003 0.284769 0 0 0 1</matrix>
          </node>
        </node>
      </node>
      <node id="VisualSceneNode13" name="mesh_0_" type="NODE">
        <matrix>1 0 0 0 0 1 0 0 0 0 1 0 0 0 0 1</matrix>
        <instance_controller url="#Controller">
          <skeleton>#VisualSceneNode1</skeleton>
          <bind_material>
            <technique_common>
              <instance_material symbol="VisualMaterial0" target="#VisualMaterial"/>
            </technique_common>
          </bind_material>
        </instance_controller>
      </node>
      <node id="VisualSceneNode14" name="mesh_1_" type="NODE">
        <matrix>1 0 0 0 0 1 0 0 0 0 1 0 0 0 0 1</matrix>
        <instance_controller url="#Controller1">
          <skeleton>#VisualSceneNode1</skeleton>
          <bind_material>
            <technique_common>
              <instance_material symbol="VisualMaterial10" target="#VisualMaterial1"/>
            </technique_common>
          </bind_material>
        </instance_controller>
      </node>
    </visual_scene>
  </library_visual_scenes>
  <scene>
    <instance_visual_scene url="#VisualSceneNode"/>
  </scene>
</COLLADA>
