<?xml version="1.0" encoding="utf-8"?>
<COLLADA xmlns="http://www.collada.org/2005/11/COLLADASchema" version="1.4.1">
  <asset>
    <created>2018-07-01T19:44:43Z</created>
    <modified>2018-07-01T19:44:43Z</modified>
  </asset>
  <library_images>
    <image id="Image">
      <init_from>./bowser_eye.0.png</init_from>
    </image>
    <image id="Image1">
      <init_from>./bowser_all.png</init_from>
    </image>
  </library_images>
  <library_materials>
    <material id="VisualMaterial" name="mat_bw_eye">
      <instance_effect url="#Effect"/>
      <extra>
        <technique profile="FCOLLADA">
          <user_properties>mat_bw_eye</user_properties>
        </technique>
      </extra>
    </material>
    <material id="VisualMaterial1" name="mat_bw_body">
      <instance_effect url="#Effect1"/>
      <extra>
        <technique profile="FCOLLADA">
          <user_properties>mat_bw_body</user_properties>
        </technique>
      </extra>
    </material>
  </library_materials>
  <library_effects>
    <effect id="Effect" name="bowser_eye_0_png">
      <profile_COMMON>
        <newparam sid="Image-surface">
          <surface type="2D">
            <init_from>Image</init_from>
            <format>A8R8G8B8</format>
          </surface>
        </newparam>
        <newparam sid="Image-sampler">
          <sampler2D>
            <source>Image-surface</source>
            <wrap_s>WRAP</wrap_s>
            <wrap_t>WRAP</wrap_t>
            <minfilter>NONE</minfilter>
            <magfilter>NONE</magfilter>
            <mipfilter>NONE</mipfilter>
          </sampler2D>
        </newparam>
        <technique sid="common">
          <phong>
            <emission>
              <color>0 0 0 1</color>
            </emission>
            <ambient>
              <color>0 0 0 1</color>
            </ambient>
            <diffuse>
              <texture texture="Image-sampler" texcoord=""/>
            </diffuse>
            <specular>
              <color>1 1 1 1</color>
            </specular>
            <shininess>
              <float>0</float>
            </shininess>
            <transparent opaque="A_ONE">
              <color>0 0 0 1</color>
            </transparent>
            <transparency>
              <float>1</float>
            </transparency>
            <index_of_refraction>
              <float>1.55</float>
            </index_of_refraction>
          </phong>
          <extra>
            <technique profile="FCOLLADA">
              <spec_level>
                <float>0</float>
              </spec_level>
            </technique>
          </extra>
        </technique>
      </profile_COMMON>
      <extra>
        <technique profile="FCOLLADA">
          <user_properties>bowser_eye.0.png</user_properties>
        </technique>
      </extra>
    </effect>
    <effect id="Effect1" name="bowser_all_png">
      <profile_COMMON>
        <newparam sid="Image1-surface">
          <surface type="2D">
            <init_from>Image1</init_from>
            <format>A8R8G8B8</format>
          </surface>
        </newparam>
        <newparam sid="Image1-sampler">
          <sampler2D>
            <source>Image1-surface</source>
            <wrap_s>WRAP</wrap_s>
            <wrap_t>WRAP</wrap_t>
            <minfilter>NONE</minfilter>
            <magfilter>NONE</magfilter>
            <mipfilter>NONE</mipfilter>
          </sampler2D>
        </newparam>
        <technique sid="common">
          <phong>
            <emission>
              <color>0 0 0 1</color>
            </emission>
            <ambient>
              <color>0 0 0 1</color>
            </ambient>
            <diffuse>
              <texture texture="Image1-sampler" texcoord=""/>
            </diffuse>
            <specular>
              <color>1 1 1 1</color>
            </specular>
            <shininess>
              <float>0</float>
            </shininess>
            <transparent opaque="A_ONE">
              <color>0 0 0 1</color>
            </transparent>
            <transparency>
              <float>1</float>
            </transparency>
            <index_of_refraction>
              <float>1.55</float>
            </index_of_refraction>
          </phong>
          <extra>
            <technique profile="FCOLLADA">
              <spec_level>
                <float>0</float>
              </spec_level>
            </technique>
          </extra>
        </technique>
      </profile_COMMON>
      <extra>
        <technique profile="FCOLLADA">
          <user_properties>bowser_all.png</user_properties>
        </technique>
      </extra>
    </effect>
  </library_effects>
  <library_geometries>
    <geometry id="Geometry" name="mesh_0_">
      <mesh>
        <source id="GeometrySource" name="mesh_0_Pos">
          <float_array id="GeometrySource-array" count="24">-0.450647 11.7494 8.42112 -2.23591 10.6619 6.85987 -0.620111 10.4407 8.14954 -1.79962 11.9268 7.10835 2.23585 10.6619 6.85987 0.450581 11.7494 8.42112 0.620055 10.4407 8.14954 1.79956 11.9268 7.10835</float_array>
          <technique_common>
            <accessor source="#GeometrySource-array" count="8" stride="3">
              <param name="X" type="float"/>
              <param name="Y" type="float"/>
              <param name="Z" type="float"/>
            </accessor>
          </technique_common>
        </source>
        <source id="GeometrySource1" name="mesh_0_Nrm">
          <float_array id="GeometrySource1-array" count="24">0.866893 0.398699 -0.299225 0.463121 0.705318 -0.536699 0.91445 0.337068 -0.223977 0.50117 0.65289 -0.567947 0.46312 -0.705318 -0.536699 0.866893 -0.398699 -0.299225 0.91445 -0.337068 -0.223977 0.50117 -0.65289 -0.567947</float_array>
          <technique_common>
            <accessor source="#GeometrySource1-array" count="8" stride="3">
              <param name="X" type="float"/>
              <param name="Y" type="float"/>
              <param name="Z" type="float"/>
            </accessor>
          </technique_common>
        </source>
        <source id="GeometrySource2" name="mesh_0_UV">
          <float_array id="GeometrySource2-array" count="16">0.447282 0.905899 0.019095 0.205994 0.404223 0.036775 0.087444 1.0475 0.980904 0.205994 0.552718 0.905899 0.595777 0.036775 0.912555 1.0475</float_array>
          <technique_common>
            <accessor source="#GeometrySource2-array" count="8" stride="2">
              <param name="S" type="float"/>
              <param name="T" type="float"/>
            </accessor>
          </technique_common>
        </source>
        <source id="GeometrySource3" name="mesh_0_Clr">
          <float_array id="GeometrySource3-array" count="32">1 1 1 1 1 1 1 1 0.65098 0.65098 0.65098 1 1 1 1 1 1 1 1 1 1 1 1 1 0.65098 0.65098 0.65098 1 1 1 1 1</float_array>
          <technique_common>
            <accessor source="#GeometrySource3-array" count="8" stride="4">
              <param name="R" type="float"/>
              <param name="G" type="float"/>
              <param name="B" type="float"/>
              <param name="A" type="float"/>
            </accessor>
          </technique_common>
        </source>
        <vertices id="Geometry-vertices">
          <input semantic="POSITION" source="#GeometrySource"/>
          <input semantic="NORMAL" source="#GeometrySource1"/>
          <input semantic="TEXCOORD" source="#GeometrySource2"/>
          <input semantic="COLOR" source="#GeometrySource3"/>
        </vertices>
        <triangles material="VisualMaterial0" count="4">
          <input semantic="VERTEX" source="#Geometry-vertices" offset="0"/>
          <p>0 1 2 0 3 1 4 5 6 4 7 5</p>
        </triangles>
      </mesh>
    </geometry>
    <geometry id="Geometry1" name="mesh_1_">
      <mesh>
        <source id="GeometrySource4" name="mesh_1_Pos">
          <float_array id="GeometrySource4-array" count="2007">10.4756 8.70168 0.703431 8.97323 7.94648 1.05848 8.97324 7.91497 2.66686 12.241 8.30066 2.98305 10.6512 7.00665 4.01768 8.97324 6.05123 3.10728 12.0235 7.13792 3.9797 11.511 8.67027 0.742161 10.6026 4.82009 3.20024 8.97324 5.28462 1.7437 10.9648 4.49179 1.82667 8.97324 6.05123 3.10728 10.6512 7.00665 4.01768 11.288 4.80072 2.71887 12.5722 5.71898 3.17127 12.0235 7.13792 3.9797 9.73006 5.754 1.02754 10.9648 4.49179 1.82667 8.97324 5.28462 1.7437 11.6064 5.28785 1.23372 11.288 4.80072 2.71887 10.6026 4.82009 3.20024 12.5722 5.71898 3.17127 12.9935 6.49748 2.00455 12.1563 7.37864 0.347359 12.241 8.30066 2.98305 11.511 8.67027 0.742161 12.0235 7.13792 3.9797 8.97323 7.94648 1.05848 10.4756 8.70168 0.703431 10.453 6.77497 -0.230414 11.511 8.67027 0.742161 12.1563 7.37864 0.347359 8.97323 7.94648 1.05848 10.453 6.77497 -0.230414 8.97323 6.49455 0.388335 9.73006 5.754 1.02754 8.97324 5.28462 1.7437 9.3822 8.39761 0.826998 6.76843 8.01159 0.931621 9.38221 8.35532 2.98537 9.3822 6.44918 -0.072313 6.76843 6.46364 0.162588 9.38221 4.82551 1.74652 6.65462 4.92244 1.74015 9.38221 5.85426 3.5764 7.21322 6.01646 3.13885 6.54247 5.92101 3.3024 4.08563 5.89976 3.34332 4.62336 4.91742 1.668 6.55898 6.46363 0.161851 4.65586 6.55504 -0.129765 6.55898 8.01153 0.931359 4.1595 8.50161 0.934131 6.65462 8.02737 2.86047 4.08563 8.21488 2.97659 4.08563 5.89976 3.34332 6.54247 5.92101 3.3024 7.21322 6.01646 3.13885 9.38221 5.85426 3.5764 6.76843 8.01159 0.931621 6.55898 8.01153 0.931359 6.76843 6.46364 0.162588 6.55898 6.46363 0.161851 9.3822 8.39761 0.826998 9.38221 8.35532 2.98537 9.38221 5.85426 3.5764 9.3822 6.44918 -0.072313 9.38221 4.82551 1.74652 10.453 6.77497 -0.230414 4.05706 5.47298 3.17586 4.08563 5.89976 3.34332 3.81689 6.07872 3.50729 4.61888 4.58557 1.59316 4.62336 4.91742 1.668 4.65586 6.55504 -0.129765 4.61888 4.58557 1.59316 4.48198 6.5387 -0.318364 4.7018 2.28953 0.728627 2.8933 2.15223 3.0688 4.61888 4.58557 1.59316 -0.000005 -0.311461 1.70126 0 1.70061 3.73377 -2.8933 2.15223 3.0688 -4.7018 2.28954 0.728587 -4.6189 4.5855 1.59316 -4.482 6.53863 -0.318364 -3.89692 2.01559 -1.56328 -4.482 6.53863 -0.318364 -4.6189 4.5855 1.59316 -4.65589 6.555 -0.129763 -4.62338 4.91735 1.668 -4.6189 4.5855 1.59316 -4.08566 5.89973 3.34332 -4.05708 5.47292 3.17586 -2.81548 4.85823 4.01628 -0.000005 4.0593 4.91032 -0.000013 6.34357 5.06647 2.81546 4.85827 4.01628 3.81689 6.07872 3.50729 3.78625 8.31615 3.07838 2.54026 7.32195 3.8926 4.08563 8.21488 2.97659 4.08563 8.21488 2.97659 4.1595 8.50161 0.934131 3.78625 8.31615 3.07838 3.9468 8.64423 0.844666 1.76081 9.60361 1.61332 3.9468 8.64423 0.844666 2.80523 8.92328 -0.584524 2.54026 7.32195 3.8926 3.78625 8.31615 3.07838 4.65586 6.55504 -0.129765 3.9468 8.64423 0.844666 4.48198 6.5387 -0.318364 6.68706 6.85828 -1.55057 3.89692 2.01565 -1.56328 5.77763 2.54523 -2.50273 3.55192 7.18539 -6.06854 3.10937 10.0859 -4.20463 5.72026 9.98277 0.143259 4.08565 8.57193 0.935657 3.62861 9.31254 2.71824 3.27411 10.9124 2.2985 -0.000033 11.8872 2.4744 -0.000027 10.3119 2.94324 -3.62865 9.31248 2.71824 -3.27417 10.9123 2.2985 -0.000032 11.6815 1.11524 -0.000034 12.228 -0.90879 -0.00003 11.1011 -4.94262 -0.000018 7.7775 -7.31868 -3.10943 10.0858 -4.20463 -5.72032 9.98269 0.143259 -6.68708 6.85819 -1.55058 -3.55196 7.18534 -6.06854 -0.000003 3.61595 -7.1921 3.27335 3.47986 -5.97786 3.1215 1.8889 -5.44202 3.19441 0.849679 -4.99339 0.000009 -0.084868 -2.18381 0.000007 0.51858 -6.24635 0.000003 1.52977 -6.33187 -3.27335 3.47981 -5.97786 -5.77763 2.54514 -2.50273 -3.89692 2.01559 -1.56328 -4.08569 8.57187 0.935657 -3.19439 0.849632 -4.99339 0.000009 -0.084868 -2.18381 -3.1215 1.88886 -5.44202 -4.08569 8.57187 0.935657 4.08565 8.57193 0.935657 3.62861 9.31254 2.71824 -0.000027 10.3119 2.94324 -3.62865 9.31248 2.71824 -4.08569 8.57187 0.935657 -3.89692 2.01559 -1.56328 0.000009 -0.084868 -2.18381 3.89692 2.01565 -1.56328 4.08565 8.57193 0.935657 -0.000032 11.5153 -2.78307 -0.000044 14.5598 -1.50533 1.59126 11.2291 -0.190467 -1.59132 11.2291 -0.190467 2.21478 11.045 -1.58492 4.92859 12.4786 -2.46792 3.26235 10.1043 -3.42175 3.67822 10.4123 -0.448533 4.4567 9.27785 -1.85355 2.69723 8.22363 -5.42217 5.95368 9.30871 -5.82345 4.12024 6.82348 -4.78888 3.53742 9.32336 -3.79973 4.74426 7.60014 -2.99112 2.37851 5.38459 -5.91645 5.78778 5.19973 -6.33085 3.5758 3.958 -5.06269 3.63581 6.60192 -5.03963 4.38192 5.21113 -3.92916 -0.00001 5.59191 -6.97675 1.50143 3.42476 -6.37535 -0.000004 3.94188 -8.68006 -1.50143 3.42474 -6.37535 -0.000023 9.04971 -6.33881 1.59198 7.55256 -6.53905 -0.000021 8.54901 -9.65976 -1.59202 7.55254 -6.53905 -0.000012 6.02887 -7.09346 -0.000031 11.4078 -3.38187 1.53642 10.3861 -4.46089 -0.000037 12.9874 -6.54604 -1.53648 10.386 -4.46089 -0.000024 9.49174 -5.82541 -2.21484 11.045 -1.58492 -3.26241 10.1042 -3.42175 -4.92867 12.4785 -2.46792 -3.67828 10.4122 -0.448533 -4.45674 9.27778 -1.85355 -2.69727 8.22359 -5.42217 -4.12028 6.82342 -4.78888 -5.95372 9.30863 -5.82345 -3.53746 9.32331 -3.79973 -4.7443 7.60007 -2.99112 -2.37853 5.38455 -5.91645 -3.57581 3.95794 -5.0627 -5.7878 5.19965 -6.33085 -3.63583 6.60186 -5.03963 -4.38194 5.21107 -3.92916 -2.38395 10.3598 2.37521 -2.43521 9.55827 1.51057 -2.90413 8.14517 4.77095 -2.90413 7.19687 3.89697 -0.000015 6.81697 6.23928 -0.000011 5.83347 5.39728 2.90436 8.14522 4.77095 2.90436 7.19691 3.89697 2.4349 10.3598 2.37521 2.43491 9.55829 1.51057 -2.38395 10.3598 2.37521 -2.90413 8.14517 4.77095 -0.000029 10.7911 1.93035 2.90436 8.14522 4.77095 2.4349 10.3598 2.37521 -0.000015 6.81697 6.23928 3.81689 6.07872 3.50729 2.80523 8.92328 -0.584524 4.48198 6.5387 -0.318364 3.89692 2.01565 -1.56328 -1.76085 9.60359 1.61332 -2.80527 8.92324 -0.584524 -3.94684 8.64417 0.844666 -3.78629 8.3161 3.07838 -3.94684 8.64417 0.844666 -4.15954 8.50158 0.934127 -4.08567 8.21485 2.97659 -3.94684 8.64417 0.844666 -4.65589 6.555 -0.129763 -4.482 6.53863 -0.318364 -2.5403 7.32191 3.8926 -3.81691 6.07866 3.50729 -3.81691 6.07866 3.50729 -3.81691 6.07866 3.50729 -3.78629 8.3161 3.07838 -4.08567 8.21485 2.97659 -2.80527 8.92324 -0.584524 -3.89692 2.01559 -1.56328 -4.482 6.53863 -0.318364 -2.5403 7.32191 3.8926 -3.78629 8.3161 3.07838 -6.55901 6.46358 0.161853 -4.62338 4.91735 1.668 -6.65464 4.92239 1.74015 -4.65589 6.555 -0.129763 -6.55902 8.01148 0.931357 -4.15954 8.50158 0.934127 -6.65467 8.02733 2.86047 -4.08567 8.21485 2.97659 -4.08566 5.89973 3.34332 -6.54249 5.92097 3.3024 -7.21324 6.01641 3.13885 -9.38223 5.8542 3.5764 -9.38225 8.35525 2.98536 -6.76847 8.01154 0.931619 -9.38224 8.39754 0.826995 -9.38223 6.44911 -0.072312 -6.76846 6.46358 0.162589 -9.38222 4.82545 1.74653 -9.38223 5.8542 3.5764 -7.21324 6.01641 3.13885 -6.54249 5.92097 3.3024 -4.08566 5.89973 3.34332 -6.76846 6.46358 0.162589 -6.55901 6.46358 0.161853 -6.55902 8.01148 0.931357 -6.76847 8.01154 0.931619 -10.4756 8.7016 0.703426 -8.97327 7.91491 2.66686 -8.97327 7.94642 1.05848 -12.241 8.30057 2.98305 -10.6512 7.00658 4.01768 -8.97326 6.05117 3.10728 -12.0235 7.13784 3.9797 -11.5111 8.67018 0.742157 -10.6026 4.82001 3.20025 -10.9648 4.49171 1.82668 -8.97325 5.28456 1.7437 -8.97326 6.05117 3.10728 -10.6512 7.00658 4.01768 -11.288 4.80064 2.71888 -12.5722 5.7189 3.17127 -12.0235 7.13784 3.9797 -9.73008 5.75393 1.02754 -8.97325 5.28456 1.7437 -10.9648 4.49171 1.82668 -11.6065 5.28776 1.23373 -11.288 4.80064 2.71888 -10.6026 4.82001 3.20025 -12.5722 5.7189 3.17127 -12.9936 6.49738 2.00455 -12.1563 7.37855 0.347358 -12.241 8.30057 2.98305 -11.5111 8.67018 0.742157 -10.4531 6.77489 -0.230414 -8.97327 7.94642 1.05848 -10.4531 6.77489 -0.230414 -10.4756 8.7016 0.703426 -11.5111 8.67018 0.742157 -12.1563 7.37855 0.347358 -8.97327 7.94642 1.05848 -8.97326 6.49448 0.388336 -10.4531 6.77489 -0.230414 -9.73008 5.75393 1.02754 -8.97325 5.28456 1.7437 -9.38224 8.39754 0.826995 -9.38223 5.8542 3.5764 -9.38225 8.35525 2.98536 -9.38223 6.44911 -0.072312 -9.38222 4.82545 1.74653 -12.0235 7.13784 3.9797 -2.52034 8.97858 4.168 -1.13977 7.62627 4.83556 -3.29134 8.52966 5.31071 -3.23584 10.4417 5.32734 -3.38914 9.49853 6.66116 -2.54622 8.26249 6.41907 -2.23076 8.94577 6.66113 -2.59528 9.46963 7.61788 -2.45411 10.1354 7.65473 -2.23591 10.6619 6.85987 -1.7559 10.3373 7.90371 -1.88746 10.7094 9.02369 -0.629173 10.5493 8.40132 -1.25033 10.6611 9.29747 -0.963222 10.0961 9.89923 -0.540629 11.1409 9.67449 -0.000029 10.8619 10.4605 -0.000026 9.87129 10.7374 0.963168 10.0961 9.89923 -0.000023 9.07694 10.2734 -1.9393 9.2889 9.7728 -2.55301 9.93756 8.98809 -2.49608 8.957 8.47771 -2.10279 8.39301 7.92606 -1.30238 8.23558 9.15435 -0.351852 8.36625 9.43631 -0.000022 8.73735 8.96042 0.351811 8.36626 9.43631 1.30234 8.2356 9.15435 1.93926 9.28892 9.7728 2.49604 8.95704 8.47771 2.10275 8.39304 7.92606 2.59524 9.46967 7.61788 2.55295 9.9376 8.98809 1.8874 10.7094 9.02369 1.25027 10.6611 9.29747 0.629115 10.5493 8.40132 1.75584 10.3373 7.90371 2.45405 10.1355 7.65473 2.23585 10.6619 6.85987 3.3891 9.49858 6.66116 2.23072 8.94581 6.66113 2.54618 8.26251 6.41904 3.2913 8.52968 5.31067 2.21023 7.27769 7.26262 2.34268 7.05929 6.29429 2.38116 6.13385 7.38734 1.6422 7.14627 8.49911 1.4605 5.78087 8.37547 -0.000008 7.39237 8.96081 -0.000008 6.09857 8.20294 -0.000013 5.69456 6.38166 1.13973 7.62628 4.83556 2.5203 8.97861 4.168 3.23578 10.4417 5.32734 2.44994 10.8247 5.57467 2.5868 10.0665 4.46549 -2.52034 8.97858 4.168 -2.02852 7.64403 4.28052 -1.13977 7.62627 4.83556 -2.15458 9.40588 2.985 -2.58686 10.0664 4.46549 -1.73001 11.9454 3.65408 -1.95856 12.2988 5.7732 -0.000029 10.6434 1.77936 -1.73001 11.9454 3.65408 1.72995 11.9454 3.65408 2.15454 9.40591 2.985 -1.73001 11.9454 3.65408 -2.15458 9.40588 2.985 2.15454 9.40591 2.985 2.5203 8.97861 4.168 2.02848 7.64406 4.28052 2.5868 10.0665 4.46549 1.72995 11.9454 3.65408 1.9585 12.2988 5.7732 1.13973 7.62628 4.83556 -2.23076 8.94577 6.66113 -2.54622 8.26249 6.41907 2.23072 8.94581 6.66113 -0.000022 8.73735 8.96042 -2.10279 8.39301 7.92606 -1.30238 8.23558 9.15435 2.10275 8.39304 7.92606 1.30234 8.2356 9.15435 2.54618 8.26251 6.41904 2.21023 7.27769 7.26262 -2.21025 7.27768 7.26264 -0.000011 7.62366 8.12924 1.6422 7.14627 8.49911 -1.64222 7.14626 8.49913 -2.34272 7.05927 6.29432 -2.21025 7.27768 7.26264 -2.38118 6.13383 7.38737 -1.46052 5.78086 8.37549 -1.64222 7.14626 8.49913 -0.000042 14.2086 6.39669 -0.000045 15.1727 3.67697 -1.16413 12.4077 5.67037 -0.000035 12.4864 7.07915 1.16407 12.4077 5.67037 -1.69637 12.8765 3.9575 -0.000038 13.2899 3.9407 -0.000034 12.0621 -0.847373 -1.16413 12.4077 5.67037 1.69629 12.8766 3.95751 1.16407 12.4077 5.67037 -1.16413 12.4077 5.67037 -0.000042 14.4353 4.60626 -0.000039 13.6344 1.80428 1.16407 12.4077 5.67037 1.20608 11.8766 4.1486 1.69629 12.8766 3.95751 1.16407 12.4077 5.67037 -0.000031 11.3071 3.42017 -0.000034 12.0621 -0.847373 -1.69637 12.8765 3.9575 -1.20614 11.8766 4.1486 -1.16413 12.4077 5.67037 -0.000045 15.1727 3.67697 1.16407 12.4077 5.67037 -1.16413 12.4077 5.67037 1.45941 12.0767 4.27407 1.82555 11.9917 5.72999 2.76246 12.9649 4.46393 3.39566 11.9486 4.18117 2.0116 10.8967 4.19729 2.20728 10.9307 5.35523 3.32909 12.6905 5.08048 3.66008 13.14 4.42418 3.32909 12.6905 5.08048 3.12419 14.2867 5.43981 2.76246 12.9649 4.46393 1.33621 8.71011 9.12612 1.25664 7.5714 8.48189 2.00421 8.93605 8.17661 0.888897 8.79677 8.21648 1.46979 8.7948 8.19798 1.57118 7.99933 7.54174 2.06869 9.0934 7.4381 1.86791 9.17723 7.7945 1.80654 8.49218 6.86771 2.32902 9.51211 6.89412 -1.45947 12.0767 4.27407 -2.76254 12.9648 4.46393 -1.82561 11.9917 5.72999 -3.39572 11.9485 4.18117 -2.01166 10.8967 4.19729 -2.20734 10.9307 5.35523 -3.32917 12.6904 5.08048 -3.66016 13.14 4.42418 -3.32917 12.6904 5.08048 -3.12427 14.2867 5.4398 -2.76254 12.9648 4.46393 -1.34685 12.6015 7.59023 -1.72031 11.7048 7.56706 -0.450646 11.4769 8.50362 -2.08673 12.6528 6.8844 -2.17273 11.4515 7.17854 -2.45521 12.0121 6.24169 -1.51082 12.0572 6.55443 -0.438628 11.1244 8.38116 -1.03215 11.2957 7.9567 1.34677 12.6015 7.59023 0.450582 11.4769 8.50362 1.72025 11.7049 7.56706 2.08665 12.6528 6.8844 2.17267 11.4515 7.17854 2.45515 12.0121 6.24169 1.51076 12.0573 6.55443 0.438566 11.1244 8.38116 1.03209 11.2958 7.9567 -1.86795 9.1772 7.7945 -2.32907 9.51208 6.89411 -1.80658 8.49215 6.86771 -1.46983 8.79478 8.19798 -2.06873 9.09337 7.4381 -1.57122 7.99931 7.54174 -1.33625 8.71009 9.12612 -2.00425 8.93602 8.17661 -1.25668 7.57138 8.48189 -0.888942 8.79676 8.21648 0.629115 10.5493 8.40132 -0.000029 10.6446 8.23557 0.540567 11.1409 9.67449 -0.540629 11.1409 9.67449 -0.629173 10.5493 8.40132 -2.58686 10.0664 4.46549 -2.45 10.8247 5.57467 -2.23591 10.6619 6.85987 -1.95856 12.2988 5.7732 -2.45 10.8247 5.57467 -1.79962 11.9268 7.10835 -0.000035 12.5068 7.41287 -0.000036 12.7555 5.65822 1.9585 12.2988 5.7732 1.79956 11.9268 7.10835 2.23585 10.6619 6.85987 2.44994 10.8247 5.57467 2.5868 10.0665 4.46549 -2.58686 10.0664 4.46549 -1.95856 12.2988 5.7732 -0.000036 12.7555 5.65822 -1.73001 11.9454 3.65408 -1.73001 11.9454 3.65408 1.72995 11.9454 3.65408 1.9585 12.2988 5.7732 -0.000035 12.5068 7.41287 -0.450647 11.7494 8.42112 0.450581 11.7494 8.42112 -1.79962 11.9268 7.10835 1.79956 11.9268 7.10835 -0.620111 10.4407 8.14954 0.620055 10.4407 8.14954 -2.23591 10.6619 6.85987 -1.7559 10.3373 7.90371 -0.620111 10.4407 8.14954 2.23585 10.6619 6.85987 0.620055 10.4407 8.14954 1.75584 10.3373 7.90371 -1.7559 10.3373 7.90371 -0.000028 10.5708 8.73039 -0.00003 10.93 7.80213 1.75584 10.3373 7.90371 1.30234 8.2356 9.15435 0.351811 8.36626 9.43631 -0.351852 8.36625 9.43631 -1.30238 8.23558 9.15435 1.32373 8.02028 7.14996 1.38316 7.23018 7.20782 1.7987 7.76622 6.71781 1.03848 7.96622 7.7181 0.619972 7.27548 8.27657 1.54647 7.27758 7.52976 -1.85248 8.15798 6.06733 -1.42154 7.98585 6.58949 -1.4228 8.6606 6.71288 1.42276 8.66061 6.71287 1.4215 7.98586 6.58947 1.85244 8.158 6.0673 -1.0385 7.96621 7.71812 -1.54649 7.27757 7.52978 -0.619992 7.27548 8.27658 -1.32376 8.02027 7.14998 -1.79874 7.76621 6.71783 -1.38318 7.23017 7.20784 -0.000011 7.62366 8.12924 2.81665 -0.299881 -1.43867 3.89692 2.01565 -1.56328 4.29854 0.45826 0.059896 3.43698 -0.939705 0.477529 1.93658 -1.63283 0.212709 2.4566 -1.23612 1.60035 4.91768 0.805937 2.46172 4.7018 2.28953 0.728627 4.60554 2.30613 3.87421 3.22887 0.233255 4.6728 2.95136 -1.57871 3.34149 2.4566 -1.23612 1.60035 1.56319 -1.95168 2.30836 2.98471 -1.87968 3.95672 3.40361 -0.415399 6.04342 3.09754 0.410069 7.05684 1.80286 1.14548 5.25763 1.78189 0.754083 7.40042 0.512657 0.410072 7.05683 0.385143 -0.844188 4.00395 0.665446 0.256975 2.4014 2.4919 2.3918 5.02566 3.23253 3.5364 4.13999 3.89692 2.01565 -1.56328 2.81665 -0.299881 -1.43867 -0.000001 2.99956 -4.35873 0.000002 -0.692468 -1.85599 -2.81665 -0.299874 -1.43869 -3.89692 2.01559 -1.56328 -1.93658 -1.63283 0.212693 -0.000002 -1.63283 0.212701 1.93658 -1.63283 0.212709 3.89692 2.01565 -1.56328 4.48198 6.5387 -0.318364 -2.81665 -0.299874 -1.43869 -4.29854 0.458271 0.05986 -3.89692 2.01559 -1.56328 -3.43698 -0.939696 0.477501 -1.93658 -1.63283 0.212693 -2.45661 -1.23612 1.60033 -4.9177 0.80595 2.46168 -4.7018 2.28954 0.728587 -4.60556 2.30614 3.87417 -3.22889 0.233264 4.67277 -2.95138 -1.5787 3.34147 -2.45661 -1.23612 1.60033 -1.56321 -1.95168 2.30834 -2.98473 -1.87968 3.9567 -3.40363 -0.41539 6.04339 -3.09758 0.410077 7.05682 -1.80288 1.14549 5.25761 -1.78193 0.754088 7.40041 -0.512689 0.410074 7.05683 -0.385163 -0.844187 4.00395 -0.665458 0.256977 2.4014 -2.49192 2.39181 5.02564 -3.23255 3.5364 4.13997 0.665446 0.256975 2.4014 0.385143 -0.844188 4.00395 1.5561 -2.51214 3.02772 0.352885 -1.87968 3.95671 -0.000006 -1.71419 1.77435 1.93658 -1.63283 0.212709 2.4566 -1.23612 1.60035 0.665446 0.256975 2.4014 -0.000005 -0.311461 1.70126 0.778521 2.07297 0.614121 -0.665458 0.256977 2.4014 -0.778523 2.07297 0.614114 -2.45661 -1.23612 1.60033 -1.93658 -1.63283 0.212693 1.5561 -2.51214 3.02772 3.40361 -0.415399 6.04342 0.248756 -0.4154 6.04341 2.98471 -1.87968 3.95672 3.09754 0.410069 7.05684 0.512657 0.410072 7.05683 1.78189 0.754083 7.40042 0.248756 -0.4154 6.04341 0.352885 -1.87968 3.95671 0.352885 -1.87968 3.95671 -0.000006 -1.71419 1.77435 -0.000002 -1.63283 0.212701 1.93658 -1.63283 0.212709 -1.93658 -1.63283 0.212693 0.778521 2.07297 0.614121 2.68031 4.4457 0.789802 -0.665458 0.256977 2.4014 -0.385163 -0.844187 4.00395 -1.55612 -2.51213 3.02771 -0.352907 -1.87968 3.95671 -1.55612 -2.51213 3.02771 -0.248784 -0.4154 6.04341 -3.40363 -0.41539 6.04339 -2.98473 -1.87968 3.9567 -0.352907 -1.87968 3.95671 -3.09758 0.410077 7.05682 -0.512689 0.410074 7.05683 -1.78193 0.754088 7.40041 -0.248784 -0.4154 6.04341 -0.352907 -1.87968 3.95671 -0.778523 2.07297 0.614114 -2.68031 4.44571 0.78978</float_array>
          <technique_common>
            <accessor source="#GeometrySource4-array" count="669" stride="3">
              <param name="X" type="float"/>
              <param name="Y" type="float"/>
              <param name="Z" type="float"/>
            </accessor>
          </technique_common>
        </source>
        <source id="GeometrySource5" name="mesh_1_Nrm">
          <float_array id="GeometrySource5-array" count="2007">-0.228209 0.610755 -0.758221 -0.474043 0.21058 -0.85495 -0.364392 0.931159 0.012694 0.535188 0.840675 -0.082702 -0.067132 0.523879 0.849143 -0.527612 0.147058 0.83666 0.422632 0.597558 0.681401 0.351268 0.302492 -0.886064 -0.129968 -0.346638 0.928951 -0.390994 -0.881001 0.266384 0.065452 -0.965379 0.252506 -0.527612 0.147058 0.83666 -0.067132 0.523879 0.849143 0.504119 -0.422837 0.753042 0.725363 -0.14523 0.672872 0.422632 0.597558 0.681401 -0.142985 -0.962324 -0.231276 0.065452 -0.965379 0.252506 -0.390994 -0.881001 0.266384 0.490769 -0.868096 -0.074533 0.504119 -0.422837 0.753042 -0.129968 -0.346638 0.928951 0.725363 -0.14523 0.672872 0.973593 -0.2198 -0.061685 0.744648 -0.255768 -0.616508 0.535188 0.840675 -0.082702 0.351268 0.302492 -0.886064 0.422632 0.597558 0.681401 -0.474043 0.21058 -0.85495 -0.228209 0.610755 -0.758221 -0.074532 -0.576479 -0.813705 0.351268 0.302492 -0.886064 0.744648 -0.255768 -0.616508 -0.474043 0.21058 -0.85495 -0.074532 -0.576479 -0.813705 -0.288314 -0.81782 -0.498042 -0.142985 -0.962324 -0.231276 -0.390994 -0.881001 0.266384 0.727125 0.298194 -0.618361 -0.064768 0.435295 -0.897955 0.453997 0.885147 0.101987 0.757412 -0.443527 -0.479177 -0.039872 -0.671246 -0.740162 0.496895 -0.785467 0.368967 0.001951 -0.79034 0.612665 0.600928 0.12834 0.788933 0.02221 0.170668 0.985078 0.146442 0.161048 0.976022 0.306106 0.22211 0.925725 -0.795927 -0.555882 0.23978 0.062768 -0.76942 -0.635652 0.485192 -0.363709 -0.795176 0.106336 0.332834 -0.936971 0.330923 0.613967 -0.716613 0.023042 0.970048 0.241818 0.322206 0.924594 0.203248 0.306106 0.22211 0.925725 0.146442 0.161048 0.976022 0.02221 0.170668 0.985078 0.600928 0.12834 0.788933 -0.064768 0.435295 -0.897955 0.106336 0.332834 -0.936971 -0.039872 -0.671246 -0.740162 0.062768 -0.76942 -0.635652 0.727125 0.298194 -0.618361 0.453997 0.885147 0.101987 0.600928 0.12834 0.788933 0.757412 -0.443527 -0.479177 0.496895 -0.785467 0.368967 -0.074532 -0.576479 -0.813705 0.110054 -0.6978 0.707788 0.306106 0.22211 0.925725 0.440231 -0.45433 0.774455 -0.029597 -0.950242 0.310104 -0.795927 -0.555882 0.23978 0.485192 -0.363709 -0.795176 -0.029597 -0.950242 0.310104 -0.11767 -0.856271 -0.502945 0.037415 -0.032222 -0.99878 0.555652 -0.44859 0.700013 -0.029597 -0.950242 0.310104 0.93854 -0.34517 0 0 -0.586422 0.810006 -0.555652 -0.44859 0.700013 0.037415 -0.032222 0.99878 -0.029597 0.950242 0.310105 -0.11767 0.856271 -0.502945 -0.440177 0.769129 -0.463341 -0.11767 0.856271 -0.502945 -0.029597 0.950242 0.310105 0.485192 -0.363709 0.795176 -0.795927 0.555882 0.23978 -0.029597 0.950242 0.310105 0.306107 0.22211 -0.925724 0.110054 0.6978 0.707788 0.406587 0.420563 0.811057 0.268427 0 0.9633 0.541188 0 0.840901 0.406587 -0.420563 0.811057 0.440231 -0.45433 0.774455 0.894521 -0.39773 0.204065 0.719384 -0.294631 0.62903 0.322206 0.924594 0.203248 0.322206 0.924594 0.203248 0.330923 0.613967 -0.716613 0.894521 -0.39773 0.204065 0.572226 -0.565214 -0.594215 0.930862 -0.268745 -0.247532 0.572226 -0.565214 -0.594215 0.204711 -0.571373 -0.794749 0.719384 -0.294631 0.62903 0.894521 -0.39773 0.204065 0.485192 -0.363709 -0.795176 0.572226 -0.565214 -0.594215 -0.11767 -0.856271 -0.502945 0.115499 -0.976951 0.179519 -0.150309 -0.41694 0.89642 -0.509467 -0.857316 0.073839 -0.196705 -0.613251 -0.765003 0.342296 -0.557053 -0.756654 0.631699 -0.771982 -0.070706 -0.14977 -0.45934 0.875543 0.171486 -0.459967 0.871219 0.899247 -0.433085 -0.061579 0.999777 0 0.021103 0.094132 0 0.99556 0.171485 0.459967 0.871219 0.899247 0.433085 -0.061578 0.846495 0 -0.532396 0.802974 0 -0.596014 0.390545 0 -0.920584 -0.266578 0 -0.963813 0.342296 0.557053 -0.756654 0.631699 0.771983 -0.070706 0.115499 0.976951 0.179518 -0.196705 0.613251 -0.765003 -0.694098 0 -0.719881 -0.581751 -0.57722 -0.573047 -0.651923 -0.551555 -0.520368 -0.843869 -0.512491 0.158864 -0.679281 0 0.733879 -0.986644 0 -0.16289 -0.762885 0 -0.646534 -0.581751 0.57722 -0.573047 -0.509467 0.857316 0.073839 -0.150309 0.41694 0.89642 -0.14977 0.45934 0.875543 -0.843869 0.512491 0.158864 -0.679281 0 0.733879 -0.651923 0.551555 -0.520369 -0.14977 0.45934 0.875543 -0.14977 -0.45934 0.875543 0.171486 -0.459967 0.871219 0.094132 0 0.99556 0.171485 0.459967 0.871219 -0.14977 0.45934 0.875543 -0.150309 0.41694 0.89642 -0.679281 0 0.733879 -0.150309 -0.41694 0.89642 -0.14977 -0.45934 0.875543 -0.16044 0 -0.987046 0.802974 0 -0.596014 0.647084 -0.760207 0.05804 0.647083 0.760207 0.05804 0.767061 0.459971 -0.447262 0.611914 -0.62639 -0.482904 -0.266025 -0.145204 -0.952967 0.800433 -0.45068 0.395214 -0.192022 -0.981389 0.001992 -0.219391 0.219526 -0.950619 0.012043 -0.741869 -0.670437 -0.841028 -0.514252 -0.16798 0.902721 -0.111501 -0.415526 0.232255 -0.914667 0.330821 -0.506095 0.119376 -0.854176 -0.340603 -0.7856 -0.516548 -0.919909 -0.327486 0.215687 0.595624 -0.405065 -0.693653 0.23395 -0.862254 0.449205 0.240404 0 -0.970673 -0.690371 -0.688708 -0.221515 -0.611871 0 -0.790957 -0.690371 0.688708 -0.221515 0.759572 0 -0.650424 -0.102763 -0.899408 -0.42486 -0.235097 0 -0.971972 -0.102763 0.899407 -0.42486 -0.976371 0 -0.2161 0.995445 0 -0.095335 0.162137 -0.907902 -0.386557 0.390545 0 -0.920584 0.162137 0.907902 -0.386557 -0.694098 0 -0.719881 0.767061 -0.459972 -0.447262 -0.266025 0.145204 -0.952967 0.611914 0.62639 -0.482904 0.800433 0.45068 0.395214 -0.192022 0.981389 0.001992 -0.219391 -0.219526 -0.950619 -0.841028 0.514252 -0.16798 0.012043 0.741869 -0.670437 0.902721 0.111501 -0.415526 0.232255 0.914667 0.330821 -0.506095 -0.119376 -0.854176 -0.919909 0.327486 0.215687 -0.340603 0.7856 -0.516548 0.595624 0.405065 -0.693653 0.23395 0.862254 0.449205 0.720644 0.692579 0.031725 0.052906 0.988748 -0.139921 0.82193 0.448547 0.351052 -0.049815 0.917036 0.39568 0.366859 0.000018 0.930277 -0.167005 0.000022 0.985956 0.819508 -0.450977 0.353591 -0.062497 -0.915865 0.396593 0.712779 -0.700553 0.034212 0.031159 -0.990085 -0.136973 0.720644 0.692579 0.031725 0.82193 0.448547 0.351052 0.982334 0.000055 0.187134 0.819508 -0.450977 0.353591 0.712779 -0.700553 0.034212 0.366859 0.000018 0.930277 0.440231 -0.45433 0.774455 0.204711 -0.571373 -0.794749 -0.11767 -0.856271 -0.502945 -0.440177 -0.769129 -0.463341 0.930862 0.268745 -0.247532 0.204711 0.571373 -0.794749 0.572226 0.565214 -0.594215 0.894521 0.397731 0.204065 0.572226 0.565214 -0.594215 0.330923 0.613967 0.716613 0.322207 0.924593 -0.203248 0.572226 0.565214 -0.594215 0.485192 -0.363709 0.795176 -0.11767 0.856271 -0.502945 0.719385 0.294631 0.62903 0.440231 0.454331 0.774455 0.440231 0.454331 0.774455 0.440231 0.454331 0.774455 0.894521 0.397731 0.204065 0.322207 0.924593 -0.203248 0.204711 0.571373 -0.794749 -0.440177 0.769129 -0.463341 -0.11767 0.856271 -0.502945 0.719385 0.294631 0.62903 0.894521 0.397731 0.204065 0.062768 -0.76942 0.635651 -0.795927 0.555882 0.23978 0.001951 -0.79034 -0.612665 0.485192 -0.363709 0.795176 0.106336 0.332834 0.936971 0.330923 0.613967 0.716613 0.023042 0.970048 -0.241818 0.322207 0.924593 -0.203248 0.306107 0.22211 -0.925724 0.146442 0.161048 -0.976022 0.02221 0.170668 -0.985078 0.600928 0.128339 -0.788933 0.453997 0.885147 -0.101987 -0.064768 0.435295 0.897955 0.727125 0.298194 0.618361 0.757412 -0.443526 0.479177 -0.039872 -0.671246 0.740161 0.496895 -0.785467 -0.368967 0.600928 0.128339 -0.788933 0.02221 0.170668 -0.985078 0.146442 0.161048 -0.976022 0.306107 0.22211 -0.925724 -0.039872 -0.671246 0.740161 0.062768 -0.76942 0.635651 0.106336 0.332834 0.936971 -0.064768 0.435295 0.897955 -0.228209 0.610755 0.758221 -0.364392 0.931159 -0.012694 -0.474043 0.210581 0.85495 0.535188 0.840675 0.082702 -0.067133 0.523879 -0.849143 -0.527612 0.147057 -0.83666 0.422631 0.597558 -0.681401 0.351268 0.302491 0.886064 -0.129968 -0.346638 -0.928951 0.065452 -0.965379 -0.252506 -0.390994 -0.881001 -0.266384 -0.527612 0.147057 -0.83666 -0.067133 0.523879 -0.849143 0.504118 -0.422837 -0.753043 0.725363 -0.14523 -0.672872 0.422631 0.597558 -0.681401 -0.142985 -0.962324 0.231276 -0.390994 -0.881001 -0.266384 0.065452 -0.965379 -0.252506 0.490769 -0.868096 0.074533 0.504118 -0.422837 -0.753043 -0.129968 -0.346638 -0.928951 0.725363 -0.14523 -0.672872 0.973593 -0.2198 0.061685 0.744648 -0.255768 0.616508 0.535188 0.840675 0.082702 0.351268 0.302491 0.886064 -0.074532 -0.57648 0.813705 -0.474043 0.210581 0.85495 -0.074532 -0.57648 0.813705 -0.228209 0.610755 0.758221 0.351268 0.302491 0.886064 0.744648 -0.255768 0.616508 -0.474043 0.210581 0.85495 -0.288314 -0.81782 0.498042 -0.074532 -0.57648 0.813705 -0.142985 -0.962324 0.231276 -0.390994 -0.881001 -0.266384 0.727125 0.298194 0.618361 0.600928 0.128339 -0.788933 0.453997 0.885147 -0.101987 0.757412 -0.443526 0.479177 0.496895 -0.785467 -0.368967 0.422631 0.597558 -0.681401 -0.34427 0.918599 0.194048 -0.883319 0.468518 0.015453 0.278244 -0.28365 0.917673 -0.230721 0.820606 -0.522852 0.535188 0.840675 0.082702 0.492591 0.764282 0.416206 0.334356 0.259303 0.906073 0.120056 0.947735 0.295608 0.224985 0.727501 -0.64817 0.463121 0.705318 -0.536699 0.090564 0.200761 -0.975445 0.221376 0.326796 -0.918802 -0.242806 0.142803 -0.959506 0.344567 0.358814 -0.867483 0.802962 0.537395 -0.257796 0.156236 0.39577 -0.904962 0.846495 0 -0.532396 0.985473 0 0.16983 0.802962 -0.537395 -0.257796 0.797012 0 0.603964 0.773748 0.578117 0.259027 0.407388 0.881696 -0.238009 0.20608 0.852705 0.480027 -0.221482 0.453276 0.863416 0.240451 0.219257 0.945574 0.097381 -0.403978 0.909571 -0.271827 0 0.962346 0.097381 0.403978 0.909571 0.240451 -0.219258 0.945574 0.773748 -0.578117 0.259027 0.20608 -0.852705 0.480027 -0.221483 -0.453276 0.863415 0.120056 -0.947736 0.295607 0.407388 -0.881695 -0.238009 0.221377 -0.326796 -0.918802 0.344568 -0.358813 -0.867483 -0.242806 -0.142803 -0.959506 0.090563 -0.200761 -0.975445 0.224985 -0.727501 -0.64817 0.46312 -0.705318 -0.536699 0.525675 -0.847092 0.07811 0.334356 -0.259303 0.906073 0.492591 0.764282 -0.416205 0.278245 -0.28365 -0.917672 -0.292506 0.590067 -0.752503 0.331825 -0.585576 -0.739589 0.42225 -0.087161 -0.902279 -0.106318 0.789439 -0.604551 0.943059 0.25742 -0.210653 0.326098 0.945336 0 0.989918 0.141641 0 0.635483 -0.772115 0 -0.883319 -0.468518 0.015453 -0.34427 -0.918599 0.194047 -0.230721 -0.820606 -0.522852 -0.039407 -0.746728 -0.663961 -0.36183 -0.858316 -0.363831 -0.34427 0.918599 0.194048 -0.104804 0.904196 0.414059 -0.883319 0.468518 0.015453 -0.204655 0.876138 -0.436462 -0.36183 0.858316 -0.363831 -0.437274 0.520542 -0.733368 0.093914 0.742354 -0.663393 0.040468 0 -0.999181 -0.437274 0.520542 -0.733368 -0.437273 -0.520542 -0.733368 -0.204655 -0.876138 -0.436462 -0.437274 0.520542 -0.733368 -0.204655 0.876138 -0.436462 -0.204655 -0.876138 -0.436462 -0.34427 -0.918599 0.194047 -0.104804 -0.904197 0.414059 -0.36183 -0.858316 -0.363831 -0.437273 -0.520542 -0.733368 0.093913 -0.742354 -0.663393 -0.883319 -0.468518 0.015453 0.334356 0.259303 0.906073 0.492591 0.764282 0.416206 0.334356 -0.259303 0.906073 -0.370114 0 0.928986 -0.221482 0.453276 0.863416 0.240451 0.219257 0.945574 -0.221483 -0.453276 0.863415 0.240451 -0.219258 0.945574 0.492591 0.764282 -0.416205 -0.292506 0.590067 -0.752503 -0.292505 0.590067 0.752503 -0.820659 0.571418 0 -0.106318 0.789439 -0.604551 -0.106318 0.789439 0.604551 0.331825 -0.585576 0.739589 -0.292505 0.590067 0.752503 0.42225 -0.087162 0.902279 0.943059 0.25742 0.210653 -0.106318 0.789439 0.604551 0.759572 0 -0.650424 -0.737448 0.000001 -0.675404 -0.01345 0.995988 -0.088474 0.947678 0 -0.319229 -0.01345 -0.995988 -0.088474 -0.195331 0.972325 -0.12818 0.094711 0 -0.995505 -0.813721 0 -0.581255 0.388375 0.845021 -0.367565 -0.195331 -0.972325 -0.128181 0.388376 -0.845021 -0.367564 -0.41011 0.799588 0.438713 -0.224138 0 -0.974557 -0.997709 0 0.067647 -0.410111 -0.799587 0.438713 -0.305359 -0.839269 0.449871 -0.195331 -0.972325 -0.128181 0.388376 -0.845021 -0.367564 -0.616983 0 0.786976 -0.813721 0 -0.581255 -0.195331 0.972325 -0.12818 -0.305358 0.839269 0.449871 0.388375 0.845021 -0.367565 -0.737448 0.000001 -0.675404 -0.01345 -0.995988 -0.088474 -0.01345 0.995988 -0.088474 -0.786099 0.296221 -0.542495 0.759602 0.129782 -0.637308 -0.378356 0.527304 -0.760787 -0.712398 -0.651616 0.260551 -0.78157 -0.391115 0.485982 0.4403 -0.706868 0.5536 0.824243 -0.556375 0.105221 -0.498224 -0.804533 -0.323264 0.824243 -0.556375 0.105221 0.624383 0.061802 -0.778669 -0.378356 0.527304 -0.760787 0.843308 0.079591 0.531504 0.843308 0.079591 0.531504 0.470298 -0.806727 0.357787 0.411065 0.88991 0.197702 0.49013 -0.801526 0.342532 0.49013 -0.801526 0.342532 0.49013 -0.801526 0.342532 0.248269 -0.853613 0.457939 0.248269 -0.853613 0.457939 0.248269 -0.853613 0.457939 -0.786099 -0.296221 -0.542495 -0.378356 -0.527304 -0.760787 0.759602 -0.129783 -0.637308 -0.712398 0.651616 0.260551 -0.78157 0.391115 0.485982 0.4403 0.706868 0.5536 0.824243 0.556374 0.10522 -0.498224 0.804533 -0.323264 0.824243 0.556374 0.10522 0.624384 -0.0618 -0.778669 -0.378356 -0.527304 -0.760787 0.449049 -0.074633 -0.890385 0.758859 0.650641 0.028273 0.949235 0.238207 -0.205452 0.249402 0.604626 -0.756456 0.54245 0.824431 -0.161434 -0.303093 0.626163 -0.718369 -0.518531 -0.553756 -0.651521 0.713249 0.606273 0.351722 0.693425 0.609769 0.383853 0.449048 0.074633 -0.890385 0.949235 -0.238206 -0.205452 0.758859 -0.650641 0.028273 0.249402 -0.604626 -0.756456 0.54245 -0.824431 -0.161434 -0.303092 -0.626163 -0.718369 -0.518532 0.553756 -0.651521 0.713249 -0.606273 0.351722 0.693425 -0.609769 0.383853 0.248269 0.853613 0.457939 0.248269 0.853613 0.457939 0.248269 0.853613 0.457939 0.49013 0.801526 0.342532 0.49013 0.801526 0.342532 0.49013 0.801526 0.342532 0.843308 -0.079591 0.531504 0.470298 0.806727 0.357787 0.843308 -0.079591 0.531504 0.411065 -0.88991 0.197702 -0.242806 -0.142803 -0.959506 -0.331059 0 -0.94361 0.156237 -0.395769 -0.904962 0.156236 0.39577 -0.904962 -0.242806 0.142803 -0.959506 -0.36183 0.858316 -0.363831 -0.039406 0.746728 -0.663961 0.463121 0.705318 -0.536699 0.093914 0.742354 -0.663393 -0.039406 0.746728 -0.663961 0.50117 0.65289 -0.567947 0.408429 0 -0.91279 -0.045769 0 -0.998952 0.093913 -0.742354 -0.663393 0.50117 -0.65289 -0.567947 0.46312 -0.705318 -0.536699 -0.039407 -0.746728 -0.663961 -0.36183 -0.858316 -0.363831 -0.36183 0.858316 -0.363831 0.093914 0.742354 -0.663393 -0.045769 0 -0.998952 -0.437274 0.520542 -0.733368 -0.437274 0.520542 -0.733368 -0.437273 -0.520542 -0.733368 0.093913 -0.742354 -0.663393 0.408429 0 -0.91279 0.866893 0.398699 -0.299225 0.866893 -0.398699 -0.299225 0.50117 0.65289 -0.567947 0.50117 -0.65289 -0.567947 0.91445 0.337068 -0.223977 0.91445 -0.337068 -0.223977 0.463121 0.705318 -0.536699 0.090564 0.200761 -0.975445 0.91445 0.337068 -0.223977 0.46312 -0.705318 -0.536699 0.91445 -0.337068 -0.223977 0.090563 -0.200761 -0.975445 0.392617 0.282014 -0.875397 0.408429 0 -0.91279 0.408429 0 -0.91279 0.392619 -0.282014 -0.875396 0.240451 -0.219258 0.945574 0.097381 0.403978 0.909571 0.097381 -0.403978 0.909571 0.240451 0.219257 0.945574 0.239848 0.673427 -0.699263 0.239848 0.673427 -0.699263 0.239848 0.673427 -0.699263 0.14088 0.78091 -0.60855 0.14088 0.78091 -0.60855 0.14088 0.78091 -0.60855 0.386181 0.485548 0.784288 0.386181 0.485548 0.784288 0.386181 0.485548 0.784288 0.386182 0.485547 -0.784288 0.386182 0.485547 -0.784288 0.386182 0.485547 -0.784288 0.14088 0.78091 0.60855 0.14088 0.78091 0.60855 0.14088 0.78091 0.60855 0.239848 0.673426 0.699264 0.239848 0.673426 0.699264 0.239848 0.673426 0.699264 -0.820659 0.571418 0 -0.171206 -0.851187 -0.496154 -0.440177 -0.769129 -0.463341 -0.077008 -0.487013 -0.869993 0.340986 -0.700988 -0.626374 0.385606 -0.896194 -0.219419 0.542976 -0.752599 -0.372521 0.331931 -0.304978 -0.892642 0.037415 -0.032222 -0.99878 0.198506 0.534982 -0.821212 0.35591 0.322362 -0.877161 0.188564 -0.537108 -0.822167 0.542976 -0.752599 -0.372521 -0.190615 -0.945602 0.263633 0.314167 -0.684428 -0.657919 0.641759 -0.241505 -0.727888 0.661977 0.39658 -0.636011 -0.285929 0.90416 0.317394 0.119448 0.992826 0.005451 0.253189 0.493993 0.831785 -0.334941 0.074003 0.939329 0.060512 0.348345 0.935411 0.480759 0.870253 0.107379 -0.050513 0.928826 0.367056 -0.440177 -0.769129 -0.463341 -0.171206 -0.851187 -0.496154 -0.858452 0 -0.512894 -0.052753 -0.998608 0 -0.171206 -0.851187 0.496154 -0.440177 0.769129 -0.463341 0.385606 -0.896194 0.219419 0.363029 -0.931778 0 0.385606 -0.896194 -0.219419 -0.440177 -0.769129 -0.463341 -0.11767 -0.856271 -0.502945 -0.171206 -0.851187 0.496154 -0.077008 -0.487013 0.869993 -0.440177 0.769129 -0.463341 0.340986 -0.700988 0.626374 0.385606 -0.896194 0.219419 0.542976 -0.752599 0.372522 0.331931 -0.304978 0.892642 0.037415 -0.032222 0.99878 0.198506 0.534982 0.821212 0.355909 0.322362 0.877161 0.188564 -0.537108 0.822167 0.542976 -0.752599 0.372522 -0.190614 -0.945602 -0.263633 0.314167 -0.684428 0.657919 0.641759 -0.241505 0.727888 0.661977 0.39658 0.636011 -0.285929 0.90416 -0.317394 0.119448 0.992826 -0.005451 0.253188 0.493993 -0.831785 -0.334941 0.074003 -0.939329 0.060512 0.348345 -0.935411 0.480759 0.870253 -0.107379 -0.050513 0.928826 -0.367056 0.060512 0.348345 0.935411 -0.334941 0.074003 0.939329 0.72923 -0.684046 0.017469 0.106199 -0.492276 0.863936 0.954901 -0.296924 0 0.385606 -0.896194 -0.219419 0.542976 -0.752599 -0.372521 0.060512 0.348345 0.935411 0.514261 0.857634 0 0.013164 0.607051 0.794554 0.060512 0.348345 -0.935411 0.013164 0.607051 -0.794554 0.542976 -0.752599 0.372522 0.385606 -0.896194 0.219419 0.72923 -0.684046 0.017469 0.641759 -0.241505 -0.727888 0.847608 -0.242322 0.47206 0.314167 -0.684428 -0.657919 0.661977 0.39658 -0.636011 0.253189 0.493993 0.831785 0.119448 0.992826 0.005451 0.847608 -0.242322 0.47206 0.106199 -0.492276 0.863936 0.106199 -0.492276 0.863936 0.954901 -0.296924 0 0.363029 -0.931778 0 0.385606 -0.896194 -0.219419 0.385606 -0.896194 0.219419 0.013164 0.607051 0.794554 -0.387217 0.871297 -0.301504 0.060512 0.348345 -0.935411 -0.334941 0.074003 -0.939329 0.72923 -0.684045 -0.017469 0.106199 -0.492276 -0.863936 0.72923 -0.684045 -0.017469 0.847608 -0.242322 -0.47206 0.641759 -0.241505 0.727888 0.314167 -0.684428 0.657919 0.106199 -0.492276 -0.863936 0.661977 0.39658 0.636011 0.253188 0.493993 -0.831785 0.119448 0.992826 -0.005451 0.847608 -0.242322 -0.47206 0.106199 -0.492276 -0.863936 0.013164 0.607051 -0.794554 -0.387217 0.871297 0.301504</float_array>
          <technique_common>
            <accessor source="#GeometrySource5-array" count="669" stride="3">
              <param name="X" type="float"/>
              <param name="Y" type="float"/>
              <param name="Z" type="float"/>
            </accessor>
          </technique_common>
        </source>
        <source id="GeometrySource6" name="mesh_1_UV">
          <float_array id="GeometrySource6-array" count="1338">0.403343 0.62387 0.337737 0.57852 0.33609 0.497534 0.477865 0.4976 0.410755 0.399155 0.307028 0.420953 0.468683 0.405868 0.447052 0.620815 0.539324 0.044769 0.509288 0.041169 0.541752 0.029884 0.497766 0.078878 0.540512 0.094192 0.556075 0.043474 0.587464 0.06149 0.574053 0.096301 0.607787 0.188165 0.574385 0.14792 0.607095 0.153062 0.568322 0.175354 0.56601 0.142413 0.583768 0.121795 0.532735 0.137957 0.521819 0.178363 0.543517 0.231881 0.499988 0.186786 0.505174 0.233014 0.505622 0.143696 0.502774 0.054094 0.537917 0.084163 0.537406 0.041801 0.561332 0.083891 0.575922 0.057281 0.497559 0.256719 0.518693 0.232385 0.543271 0.272567 0.565371 0.24862 0.600474 0.248062 0.284176 0.277899 0.284176 0.158846 0.377267 0.277899 0.20017 0.277899 0.200685 0.158846 0.088638 0.277899 0.088638 0.145713 -0.013245 0.277899 -0.013245 0.171264 -0.013245 0.134183 -0.013245 0.001804 0.088638 0.026134 0.200685 0.132388 0.200685 0.000406 0.284176 0.132388 0.284176 0.000406 0.377267 0.145713 0.377267 0.001804 0.48079 0.001804 0.48079 0.134183 0.48079 0.171264 0.48079 0.277899 0.284176 0.188668 0.284176 0.104303 0.200685 0.188668 0.200685 0.104303 0.073253 0.276056 0.057391 0.276056 0.055843 0.271124 0.074846 0.271465 0.065616 0.26943 0.587651 0.225458 0.189637 0.571481 0.198433 0.595664 0.183827 0.600443 0.223342 0.532565 0.227744 0.547734 0.264002 0.595569 0.223342 0.532565 0.266928 0.590518 0.257017 0.462865 0.145656 0.450566 0.223342 0.532565 0.045439 0.323367 0.000872 0.432706 0.145656 0.450566 0.257017 0.462865 0.223342 0.532565 0.266928 0.590518 0.285585 0.440063 0.266928 0.590518 0.223342 0.532565 0.264002 0.595569 0.227744 0.547734 0.223342 0.532565 0.198433 0.595664 0.189637 0.571481 0.129858 0.577396 0.000879 0.554021 0.000888 0.640949 0.129858 0.577396 0.183827 0.600443 0.200099 0.665079 0.091729 0.67128 0.221773 0.663839 0.397838 0.430414 0.406512 0.569413 0.386931 0.43268 0.392498 0.573934 0.318018 0.519896 0.392498 0.573934 0.326836 0.673182 0.346774 0.368127 0.386931 0.43268 0.420441 0.64751 0.392498 0.573934 0.40484 0.651789 0.679341 0.612292 0.662077 0.412314 0.716943 0.409518 0.830867 0.550935 0.838387 0.680405 0.710103 0.766375 0.656142 0.762109 0.755751 0.993458 0.811628 0.969746 0.99964 0.973842 0.99964 1.04137 1.24353 0.993458 1.18765 0.969746 0.99964 0.902102 0.99964 0.830362 0.99964 0.682219 0.99964 0.540288 1.16089 0.680405 1.28917 0.766375 1.31994 0.612292 1.16841 0.550935 0.999639 0.378851 0.838321 0.411463 0.843809 0.348617 0.85675 0.292099 0.805894 0.287572 0.999638 0.260965 0.999639 0.314146 1.16095 0.411463 1.28233 0.409518 1.3372 0.412314 1.34313 0.762109 1.14253 0.292099 1.19338 0.287572 1.15547 0.348617 1.34313 0.762109 0.634434 0.69033 0.634434 0.69033 0.634434 0.69033 0.634434 0.69033 0.634434 0.69033 1.01547 0.267815 1.00068 0.255287 0.984294 0.267815 0.656142 0.762109 1.0606 -0.012824 1.00027 0.138608 1.00027 -0.012824 1.00027 -0.012824 0.939934 -0.009105 1.00027 0.138608 1.00027 -0.012148 1.00027 -0.012148 1.0606 -0.020938 1.00027 -0.027361 1.00027 0.138608 1.0606 -0.020262 0.939934 -0.012824 1.00027 -0.027361 1.00027 -0.036489 1.00027 0.138608 1.0606 -0.029728 0.939934 -0.029728 1.00027 -0.036489 0.939934 -0.018045 1.00027 -0.024689 1.00027 0.138608 1.00027 -0.024689 0.939934 -0.012824 1.00027 -0.020892 1.00027 0.138608 1.00027 -0.020892 1.0606 -0.020892 0.939934 -0.012824 1.00027 -0.012824 1.00027 0.138608 1.00027 -0.012824 1.0606 -0.012824 0.939934 -0.009105 1.00027 -0.012148 1.00027 0.138608 1.00027 -0.012148 1.0606 -0.020938 1.00027 -0.027361 1.0606 -0.020262 1.00027 0.138608 0.939934 -0.012824 1.00027 -0.027361 1.00027 -0.036489 1.0606 -0.029728 1.00027 0.138608 0.939934 -0.029728 1.00027 -0.036489 -0.132903 0.000195 -0.132903 0.073751 -0.013394 0.000195 -0.013394 0.073751 0.12455 0.000195 0.124547 0.073751 0.262519 0.000195 0.262519 0.073751 0.381029 0.000195 0.381029 0.073751 0.315947 0.015754 0.318586 0.005173 0.32247 0.020715 0.336392 0.012788 0.33072 0.022072 0.330085 0.002908 0.183827 0.600443 0.291812 0.679061 0.266928 0.590518 0.285585 0.440063 0.318018 0.519896 0.326836 0.673182 0.392498 0.573934 0.386931 0.43268 0.392498 0.573934 0.406512 0.569413 0.397838 0.430414 0.392498 0.573934 0.420441 0.64751 0.40484 0.651789 0.091729 0.67128 0.183827 0.600443 0.183827 0.600443 0.183827 0.600443 0.200099 0.665079 0.221773 0.663839 0.291812 0.679061 0.285585 0.440063 0.266928 0.590518 0.346774 0.368127 0.386931 0.43268 0.200685 0.132388 0.088638 0.026134 0.088638 0.145713 0.200685 0.000406 0.284176 0.132388 0.284176 0.000406 0.377267 0.145713 0.377267 0.001804 0.48079 0.001804 0.48079 0.134183 0.48079 0.171264 0.48079 0.277899 0.377267 0.277899 0.284176 0.158846 0.284176 0.277899 0.20017 0.277899 0.200685 0.158846 0.088638 0.277899 -0.013245 0.277899 -0.013245 0.171264 -0.013245 0.134183 -0.013245 0.001804 0.200685 0.188668 0.200685 0.104303 0.284176 0.104303 0.284176 0.188668 0.403343 0.62387 0.33609 0.497534 0.337737 0.57852 0.477865 0.4976 0.410755 0.399155 0.307028 0.420953 0.468683 0.405868 0.447052 0.620815 0.539324 0.044769 0.541752 0.029884 0.509288 0.041169 0.497766 0.078878 0.540512 0.094192 0.556075 0.043474 0.587464 0.06149 0.574053 0.096301 0.607787 0.188165 0.607095 0.153062 0.574385 0.14792 0.568322 0.175354 0.56601 0.142413 0.583768 0.121795 0.532735 0.137957 0.521819 0.178363 0.543517 0.231881 0.499988 0.186786 0.505174 0.233014 0.587651 0.225458 0.502774 0.054094 0.537406 0.041801 0.537917 0.084163 0.561332 0.083891 0.575922 0.057281 0.497559 0.270148 0.543271 0.289804 0.518693 0.239967 0.565371 0.260103 0.600474 0.259411 0.073253 0.276056 0.055843 0.271124 0.057391 0.276056 0.074846 0.271465 0.065616 0.26943 0.505622 0.143696 0.312056 0.889 0.278502 0.804321 0.246531 0.841087 0.247414 0.924842 0.215192 0.896382 0.188308 0.837305 0.174952 0.878333 0.142151 0.890819 0.132032 0.923329 0.168992 0.969301 0.124574 0.95639 0.1014 0.92907 0.108894 0.969688 0.076384 0.959995 0.043523 0.937108 0.042129 0.983882 0.001946 0.960304 0.000729 0.899499 0.043523 0.937108 0.000727 0.862016 0.083767 0.873009 0.103757 0.89725 0.107072 0.863 0.140435 0.825813 0.032227 0.818403 0.009476 0.819646 0.000724 0.855175 0.009476 0.819646 0.032213 0.818403 0.083767 0.873009 0.107072 0.863 0.140435 0.825813 0.142151 0.890819 0.103757 0.89725 0.1014 0.92907 0.076384 0.959995 0.108894 0.969688 0.124574 0.95639 0.132032 0.923329 0.168992 0.969301 0.215192 0.896382 0.174952 0.878333 0.188308 0.837305 0.246531 0.841087 0.174886 0.787395 0.230427 0.786093 0.195851 0.737084 0.144094 0.771172 0.15406 0.713992 0.08514 0.76035 0.119602 0.693997 0.250878 0.702776 0.278502 0.804321 0.312056 0.889 0.247414 0.924842 0.216881 0.976036 0.293938 0.947734 0.349108 0.831372 0.316041 0.797117 0.317279 0.866025 0.373506 0.779294 0.449915 0.868654 0.546677 0.693213 0.638412 0.828101 0.458131 0.698437 0.3583 0.87172 0.557204 0.87172 0.634552 0.741583 0.557204 0.87172 0.634552 0.741583 0.373506 0.779294 0.349108 0.831372 0.316041 0.797117 0.449915 0.868654 0.546677 0.714036 0.638412 0.828101 0.317279 0.866025 0.904058 0.206324 0.889205 0.200353 1.09621 0.206333 1.00013 0.239559 0.919964 0.22294 0.93587 0.239555 1.08031 0.222947 1.0644 0.239562 1.11107 0.200363 1.08638 0.165122 0.913899 0.165113 1.00014 0.147448 1.07284 0.143051 0.927438 0.143044 0.230427 0.786093 0.174886 0.787395 0.195851 0.737084 0.15406 0.713992 0.144094 0.771172 0.723035 0.128222 0.829804 0.251002 0.805369 0.02201 0.680303 -0.010127 0.805369 0.02201 0.798224 0.074345 0.707224 0.122103 0.831736 0.255645 0.698505 0.02532 0.798224 0.074345 0.698505 0.02532 0.806005 0.022017 0.72677 0.095688 0.851854 0.236666 0.806005 0.022017 0.738076 -0.011438 0.71144 0.095454 0.66645 -0.002055 0.8007 0.003416 0.769659 0.174084 0.71144 0.095454 0.738076 -0.011438 0.66645 -0.002055 0.763299 0.132971 0.799155 0.011085 0.682648 0.0048 1.06615 -0.00682 0.990224 -0.00682 1.03655 0.088068 1.00256 0.086202 1.00063 -0.00682 0.93684 -0.00682 0.97407 0.091514 1.00603 0.114226 0.985726 0.111676 1.00672 0.136081 1.02671 0.112443 0.627639 0.3585 0.692438 0.358719 0.627639 0.331657 0.627639 0.386995 0.627639 0.384106 0.692438 0.358719 0.627639 0.331657 0.627639 0.383353 0.692438 0.358719 0.627639 0.331657 1.06615 -0.013234 1.03655 0.088068 0.990224 -0.013234 1.00256 0.086202 1.00063 -0.013234 0.93684 -0.013234 0.97407 0.091514 1.00603 0.114226 0.985726 0.111676 1.00672 0.136081 1.02671 0.112443 0.624289 0.214945 0.699555 0.191367 0.633415 0.093096 0.645873 0.301965 0.748095 0.237669 0.722772 0.326435 0.675257 0.212689 0.660138 0.091309 0.68906 0.136472 0.624289 0.214945 0.633415 0.093096 0.699555 0.191367 0.645873 0.301965 0.748095 0.237669 0.722772 0.326435 0.675257 0.212689 0.660138 0.091309 0.68906 0.136472 0.627639 0.383353 0.627639 0.331657 0.692438 0.358719 0.627639 0.384106 0.627639 0.331657 0.692438 0.358719 0.627639 0.3585 0.627639 0.331657 0.692438 0.358719 0.627639 0.386995 0.114361 0.99961 0.000734 1.01051 0.042129 0.983882 -0.036565 0.983882 0.114361 0.99961 0.293938 0.947734 0.216881 0.976036 0.394617 1.29982 0.509652 1.15569 0.395834 1.15503 0.504775 1.29516 0.622761 1.28514 0.625998 1.12539 0.509652 1.15569 0.504775 1.29516 0.394617 1.29982 0.395834 1.15503 0.320509 1.0851 0.320509 1.0851 0.652787 1.19262 0.472553 1.17018 0.611958 1.29336 0.321546 1.29336 0.611958 1.29336 0.652787 1.19262 0.715228 1.00084 0.649253 1.05591 0.649253 0.946134 0.691227 1.11907 0.691227 0.882608 0.550492 1.08655 0.550492 0.915268 0.482773 1.11138 0.410831 1.11225 0.38597 1.03957 0.482773 0.892598 0.38597 0.964417 0.410831 0.891728 0.410831 1.11225 0.327626 1.00199 0.405695 1.00199 0.410831 0.891728 0.024446 0.808417 0.004228 0.81681 0.004228 0.81681 0.024446 0.808417 0.690934 0.359149 0.627639 0.385745 0.627639 0.332703 0.68757 0.35955 0.62983 0.387579 0.62983 0.332852 0.627639 0.332703 0.627639 0.385745 0.690934 0.359149 0.690934 0.359149 0.627639 0.385745 0.627639 0.332703 0.68757 0.35955 0.62983 0.332852 0.62983 0.387579 0.690934 0.359149 0.627639 0.332703 0.627639 0.385745 0.11962 0.82424 0.539129 0.676548 0.495186 0.681657 0.484325 0.631382 0.52724 0.597964 0.573684 0.621568 0.54268 0.544355 0.477268 0.51734 0.419362 0.673642 0.438672 0.515933 0.437177 0.365151 0.489354 0.354879 0.54268 0.450173 0.542192 0.35266 0.4896 0.2836 0.436428 0.291204 0.416546 0.289614 0.375482 0.371621 0.379456 0.28425 0.346402 0.288879 0.303281 0.354879 0.29762 0.563682 0.378657 0.507983 0.37831 0.538234 0.4708 0.656906 0.411052 0.625149 0.4708 0.518108 0.402457 0.518108 0.411052 0.625149 0.4708 0.656906 0.351303 0.610855 0.351303 0.518108 0.351303 0.610855 0.285585 0.440063 0.266928 0.590518 0.539129 0.676548 0.484325 0.631382 0.495186 0.681657 0.52724 0.597964 0.573684 0.621568 0.54268 0.544355 0.477268 0.51734 0.419362 0.673642 0.438672 0.515933 0.437177 0.365151 0.489354 0.354879 0.54268 0.450173 0.542192 0.35266 0.4896 0.2836 0.436428 0.291204 0.416546 0.289614 0.375482 0.371621 0.379456 0.28425 0.346402 0.288879 0.303281 0.354879 0.29762 0.563682 0.378657 0.507983 0.37831 0.538234 0.617403 0.511815 0.604871 0.354879 0.542216 0.2836 0.600479 0.2836 0.385955 0.530195 0.423008 0.466467 0.447598 0.538774 0.408688 0.574902 0.385955 0.566082 0.422781 0.648466 0.408688 0.574902 0.422781 0.648466 0.447598 0.538774 0.423008 0.466467 0.127715 0.3389 0.221024 0.39837 0.221024 0.287093 0.148478 0.393096 0.280937 0.382553 0.280937 0.295189 0.286633 0.341653 0.328986 0.294372 0.302558 0.294372 0.14331 0.289247 0.000842 0.297334 0.000836 0.333271 0.097714 0.333265 0.097714 0.333265 0.300766 0.642475 0.375324 0.653931 0.617403 0.511815 0.604871 0.354879 0.542216 0.2836 0.600479 0.2836 0.127715 0.3389 0.221024 0.287093 0.221024 0.39837 0.148478 0.393096 0.14331 0.289247 0.280937 0.382553 0.280937 0.295189 0.286633 0.341653 0.328986 0.294372 0.302558 0.294372 0.300766 0.642475 0.375324 0.653931</float_array>
          <technique_common>
            <accessor source="#GeometrySource6-array" count="669" stride="2">
              <param name="S" type="float"/>
              <param name="T" type="float"/>
            </accessor>
          </technique_common>
        </source>
        <source id="GeometrySource7" name="mesh_1_Clr">
          <float_array id="GeometrySource7-array" count="2676">1 1 1 1 0.894118 0.8 0.568627 1 0.894118 0.8 0.568627 1 1 1 1 1 1 1 1 1 0.713726 0.596079 0.301961 1 1 1 1 1 1 1 1 1 1 1 1 1 0.713726 0.596079 0.301961 1 1 1 1 1 0.713726 0.596079 0.301961 1 1 1 1 1 1 1 1 1 1 1 1 1 1 1 1 1 0.713726 0.596079 0.301961 1 1 1 1 1 0.713726 0.596079 0.301961 1 0.713726 0.596079 0.301961 1 1 1 1 1 1 1 1 1 1 1 1 1 1 1 1 1 1 1 1 1 1 1 1 1 1 1 1 1 1 1 1 1 0.894118 0.8 0.568627 1 1 1 1 1 1 1 1 1 1 1 1 1 1 1 1 1 0.894118 0.8 0.568627 1 1 1 1 1 0.713726 0.596079 0.301961 1 0.713726 0.596079 0.301961 1 0.713726 0.596079 0.301961 1 1 1 1 1 0.945098 0.898039 0.784314 1 1 1 1 1 1 1 1 1 0.945098 0.898039 0.784314 1 1 1 1 1 1 0.921569 0.729412 1 1 1 1 1 1 1 1 1 1 1 1 1 1 1 1 1 0.72549 0.72549 0.72549 1 1 0.921569 0.729412 1 0.709804 0.709804 0.709804 1 1 0.921569 0.729412 1 0.709804 0.709804 0.709804 1 1 1 1 1 0.945098 0.898039 0.784314 1 1 1 1 1 1 1 1 1 1 1 1 1 1 1 1 1 0.945098 0.898039 0.784314 1 1 0.921569 0.729412 1 0.945098 0.898039 0.784314 1 1 0.921569 0.729412 1 1 1 1 1 1 1 1 1 1 1 1 1 1 1 1 1 1 1 1 1 1 1 1 1 1 0.976471 0.913725 1 1 1 1 1 1 1 1 1 1 0.870588 0.545098 1 1 0.87451 0.552941 1 0.901961 0.780392 0.466667 1 1 0.878431 0.576471 1 0.917647 0.8 0.501961 1 1 0.909804 0.686275 1 1 0.854902 0.490196 1 1 0.87451 0.560784 1 0.764706 0.572549 0.086274 1 1 0.894118 0.635294 1 1 0.854902 0.490196 1 1 0.909804 0.686275 1 1 0.87451 0.560784 1 0.909804 0.788235 0.486275 1 0.901961 0.780392 0.466667 1 0.917647 0.8 0.501961 1 1 0.878431 0.576471 1 0.901961 0.780392 0.466667 1 1 0.87451 0.552941 1 1 0.870588 0.545098 1 1 1 1 1 1 0.976471 0.913725 1 1 1 1 1 1 1 1 1 0.717647 0.537255 0.082352 1 1 1 1 1 0.960784 0.941176 0.882353 1 0.894118 0.819608 0.631373 1 0.776471 0.639216 0.290196 1 0.917647 0.854902 0.701961 1 0.890196 0.827451 0.662745 1 0.764706 0.611765 0.223529 1 0.843137 0.764706 0.564706 1 0.741176 0.584314 0.2 1 0.615686 0.458824 0.070588 1 0.74902 0.592157 0.2 1 0.717647 0.537255 0.082352 1 0.776471 0.639216 0.290196 1 0.87451 0.796078 0.603922 1 0.709804 0.709804 0.709804 1 0.756863 0.6 0.2 1 0.709804 0.678431 0.603922 1 1 1 1 1 0.698039 0.698039 0.698039 1 1 1 1 1 1 1 1 1 1 1 1 1 1 1 1 1 0.639216 0.639216 0.639216 1 0.72549 0.72549 0.72549 1 1 1 1 1 0.537255 0.537255 0.537255 1 0.588235 0.588235 0.588235 1 0.737255 0.737255 0.737255 1 1 1 1 1 0.654902 0.654902 0.654902 1 0.537255 0.537255 0.537255 1 1 1 1 1 1 1 1 1 1 1 1 1 1 1 1 1 1 1 1 1 1 1 1 1 0.768628 0.768628 0.768628 1 0.819608 0.819608 0.819608 1 0.670588 0.670588 0.670588 1 1 1 1 1 0.588235 0.588235 0.588235 1 1 1 1 1 0.529412 0.529412 0.529412 1 0.819608 0.819608 0.819608 1 1 1 1 1 0.698039 0.698039 0.698039 1 0.709804 0.709804 0.709804 1 1 1 1 1 0.588235 0.588235 0.588235 1 0.670588 0.670588 0.670588 1 0.639216 0.639216 0.639216 1 0.639216 0.639216 0.639216 1 0.72549 0.72549 0.72549 1 0.588235 0.588235 0.588235 1 0.737255 0.737255 0.737255 1 0.639216 0.639216 0.639216 1 0.839216 0.701961 0.356863 1 0.588235 0.588235 0.588235 1 0.839216 0.701961 0.356863 1 0.709804 0.709804 0.709804 1 0.639216 0.639216 0.639216 1 1 1 1 1 0.639216 0.639216 0.639216 1 0.639216 0.639216 0.639216 1 0.639216 0.639216 0.639216 1 1 1 1 1 0.639216 0.639216 0.639216 1 0.639216 0.639216 0.639216 1 0.639216 0.639216 0.639216 1 0.639216 0.639216 0.639216 1 1 1 1 1 0.639216 0.639216 0.639216 1 0.639216 0.639216 0.639216 1 0.639216 0.639216 0.639216 1 0.639216 0.639216 0.639216 1 1 1 1 1 0.639216 0.639216 0.639216 1 0.639216 0.639216 0.639216 1 0.639216 0.639216 0.639216 1 0.639216 0.639216 0.639216 1 0.968628 0.968628 0.968628 1 1 1 1 1 0.968628 0.968628 0.968628 1 0.639216 0.639216 0.639216 1 0.639216 0.639216 0.639216 1 1 1 1 1 0.639216 0.639216 0.639216 1 0.639216 0.639216 0.639216 1 0.639216 0.639216 0.639216 1 0.639216 0.639216 0.639216 1 1 1 1 1 0.639216 0.639216 0.639216 1 0.639216 0.639216 0.639216 1 0.639216 0.639216 0.639216 1 0.639216 0.639216 0.639216 1 1 1 1 1 0.639216 0.639216 0.639216 1 0.639216 0.639216 0.639216 1 0.639216 0.639216 0.639216 1 0.639216 0.639216 0.639216 1 1 1 1 1 0.639216 0.639216 0.639216 1 0.639216 0.639216 0.639216 1 0.639216 0.639216 0.639216 1 0.639216 0.639216 0.639216 1 1 1 1 1 0.639216 0.639216 0.639216 1 0.639216 0.639216 0.639216 1 0.486275 0.486275 0.486275 1 0.486275 0.486275 0.486275 1 0.737255 0.737255 0.737255 1 0.819608 0.819608 0.819608 1 0.486275 0.486275 0.486275 1 0.745098 0.745098 0.745098 1 0.729412 0.729412 0.729412 1 0.815686 0.815686 0.815686 1 0.486275 0.486275 0.486275 1 0.486275 0.486275 0.486275 1 0.486275 0.486275 0.486275 1 0.737255 0.737255 0.737255 1 0.486275 0.486275 0.486275 1 0.729412 0.729412 0.729412 1 0.486275 0.486275 0.486275 1 0.486275 0.486275 0.486275 1 0.980392 0.968628 0.941176 1 0.717647 0.537255 0.082352 1 0.870588 0.737255 0.403922 1 0.498039 0.498039 0.498039 1 0.615686 0.458824 0.070588 1 0.717647 0.537255 0.082352 1 0.74902 0.592157 0.2 1 0.843137 0.764706 0.564706 1 0.741176 0.584314 0.2 1 0.764706 0.611765 0.223529 1 0.890196 0.827451 0.662745 1 0.756863 0.6 0.2 1 0.709804 0.709804 0.709804 1 0.709804 0.678431 0.603922 1 0.776471 0.639216 0.290196 1 0.980392 0.968628 0.941176 1 1 1 1 1 0.960784 0.941176 0.882353 1 0.894118 0.819608 0.631373 1 0.917647 0.854902 0.701961 1 0.717647 0.537255 0.082352 1 0.498039 0.498039 0.498039 1 0.870588 0.737255 0.403922 1 0.776471 0.639216 0.290196 1 0.87451 0.796078 0.603922 1 1 0.921569 0.729412 1 0.72549 0.72549 0.72549 1 1 0.921569 0.729412 1 0.709804 0.709804 0.709804 1 1 0.921569 0.729412 1 0.709804 0.709804 0.709804 1 1 1 1 1 0.945098 0.898039 0.784314 1 1 1 1 1 1 1 1 1 1 1 1 1 1 1 1 1 1 1 1 1 0.945098 0.898039 0.784314 1 1 1 1 1 1 1 1 1 0.945098 0.898039 0.784314 1 1 1 1 1 1 1 1 1 1 1 1 1 1 1 1 1 1 1 1 1 0.945098 0.898039 0.784314 1 1 0.921569 0.729412 1 1 0.921569 0.729412 1 0.945098 0.898039 0.784314 1 1 1 1 1 0.894118 0.8 0.568627 1 0.894118 0.8 0.568627 1 1 1 1 1 1 1 1 1 0.713726 0.596079 0.301961 1 1 1 1 1 1 1 1 1 1 1 1 1 1 1 1 1 0.713726 0.596079 0.301961 1 0.713726 0.596079 0.301961 1 1 1 1 1 1 1 1 1 1 1 1 1 1 1 1 1 0.713726 0.596079 0.301961 1 0.713726 0.596079 0.301961 1 1 1 1 1 0.713726 0.596079 0.301961 1 1 1 1 1 1 1 1 1 1 1 1 1 1 1 1 1 1 1 1 1 1 1 1 1 1 1 1 1 1 1 1 1 0.894118 0.8 0.568627 1 1 1 1 1 1 1 1 1 1 1 1 1 1 1 1 1 0.894118 0.8 0.568627 1 0.713726 0.596079 0.301961 1 1 1 1 1 0.713726 0.596079 0.301961 1 0.713726 0.596079 0.301961 1 1 1 1 1 1 1 1 1 1 1 1 1 1 1 1 1 1 1 1 1 1 1 1 1 0.584314 0.584314 0.584314 1 0.486275 0.486275 0.486275 1 0.898039 0.898039 0.898039 1 0.964706 0.964706 0.964706 1 1 1 1 1 0.886275 0.886275 0.886275 1 0.670588 0.670588 0.670588 1 1 1 1 1 1 1 1 1 0.968628 0.968628 0.968628 1 0.792157 0.792157 0.792157 1 1 1 1 1 0.619608 0.619608 0.619608 1 1 1 1 1 1 1 1 1 1 1 1 1 1 1 1 1 1 1 1 1 1 1 1 1 1 1 1 1 1 1 1 1 1 1 1 1 0.945098 0.945098 0.945098 1 0.772549 0.772549 0.772549 1 0.839216 0.839216 0.839216 1 0.756863 0.756863 0.756863 1 0.596079 0.596079 0.596079 1 0.756863 0.756863 0.756863 1 0.839216 0.839216 0.839216 1 1 1 1 1 0.945098 0.945098 0.945098 1 0.772549 0.772549 0.772549 1 0.941176 0.941176 0.941176 1 1 1 1 1 1 1 1 1 1 1 1 1 0.619608 0.619608 0.619608 1 0.788235 0.788235 0.788235 1 1 1 1 1 0.972549 0.972549 0.972549 1 1 1 1 1 0.635294 0.635294 0.635294 1 0.905882 0.905882 0.905882 1 0.917647 0.917647 0.917647 1 0.929412 0.929412 0.929412 1 0.8 0.8 0.8 1 1 1 1 1 1 1 1 1 1 1 1 1 1 1 1 1 1 1 1 1 0.678431 0.678431 0.678431 1 0.486275 0.486275 0.486275 1 0.588235 0.588235 0.588235 1 0.960784 0.960784 0.960784 1 0.772549 0.772549 0.772549 1 0.745098 0.745098 0.745098 1 0.584314 0.584314 0.584314 1 0.486275 0.486275 0.486275 1 0.486275 0.486275 0.486275 1 0.486275 0.486275 0.486275 1 0.74902 0.74902 0.74902 1 0.788235 0.788235 0.788235 1 0.988235 0.988235 0.988235 1 0.486275 0.486275 0.486275 1 0.788235 0.788235 0.788235 1 0.796078 0.796078 0.796078 1 0.486275 0.486275 0.486275 1 0.788235 0.788235 0.788235 1 0.486275 0.486275 0.486275 1 0.486275 0.486275 0.486275 1 0.588235 0.588235 0.588235 1 0.486275 0.486275 0.486275 1 0.745098 0.745098 0.745098 1 0.796078 0.796078 0.796078 1 0.988235 0.988235 0.988235 1 0.486275 0.486275 0.486275 1 0.670588 0.670588 0.670588 1 0.886275 0.886275 0.886275 1 0.635294 0.635294 0.635294 1 0.596079 0.596079 0.596079 1 0.772549 0.772549 0.772549 1 0.839216 0.839216 0.839216 1 0.772549 0.772549 0.772549 1 0.839216 0.839216 0.839216 1 0.905882 0.905882 0.905882 1 0.929412 0.929412 0.929412 1 0.92549 0.92549 0.92549 1 0.486275 0.486275 0.486275 1 1 1 1 1 1 1 1 1 0.831373 0.831373 0.831373 1 0.92549 0.92549 0.92549 1 1 1 1 1 1 1 1 1 1 1 1 1 1 1 1 1 1 1 1 1 0.584314 0.239216 0.129412 1 0.584314 0.239216 0.129412 1 0.584314 0.239216 0.129412 1 0.968628 0.968628 0.968628 1 0.764706 0.443137 0.341177 1 1 1 1 1 0.584314 0.239216 0.129412 1 0.968628 0.968628 0.968628 1 0.584314 0.239216 0.129412 1 0.584314 0.239216 0.129412 1 0.764706 0.443137 0.341177 1 1 1 1 1 0.584314 0.239216 0.129412 1 0.584314 0.239216 0.129412 1 0.968628 0.968628 0.968628 1 0.584314 0.239216 0.129412 1 0.584314 0.239216 0.129412 1 1 1 1 1 0.968628 0.968628 0.968628 1 0.584314 0.239216 0.129412 1 0.584314 0.239216 0.129412 1 1 1 1 1 0.584314 0.239216 0.129412 1 0.584314 0.239216 0.129412 1 0.486275 0.486275 0.486275 1 0.588235 0.588235 0.588235 1 0.882353 0.882353 0.882353 1 0.862745 0.862745 0.862745 1 0.588235 0.588235 0.588235 1 0.588235 0.588235 0.588235 1 1 1 1 1 1 1 1 1 1 1 1 1 1 1 1 1 0.882353 0.882353 0.882353 1 0.486275 0.486275 0.486275 1 0.968628 0.968628 0.968628 1 0.486275 0.486275 0.486275 1 0.486275 0.486275 0.486275 1 0.486275 0.486275 0.486275 1 0.827451 0.827451 0.827451 1 0.486275 0.486275 0.486275 1 0.486275 0.486275 0.486275 1 0.705882 0.705882 0.705882 1 0.486275 0.486275 0.486275 1 0.486275 0.486275 0.486275 1 0.886275 0.886275 0.886275 1 0.588235 0.588235 0.588235 1 0.847059 0.847059 0.847059 1 0.588235 0.588235 0.588235 1 0.588235 0.588235 0.588235 1 1 1 1 1 1 1 1 1 1 1 1 1 1 1 1 1 0.886275 0.886275 0.886275 1 1 1 1 1 1 1 1 1 0.984314 0.984314 0.984314 1 1 1 1 1 1 1 1 1 0.996078 0.996078 0.996078 1 0.584314 0.239216 0.129412 1 0.584314 0.239216 0.129412 1 0.764706 0.443137 0.341177 1 1 1 1 1 0.988235 0.988235 0.988235 1 1 1 1 1 1 1 1 1 1 1 1 1 0.984314 0.984314 0.984314 1 0.584314 0.239216 0.129412 1 0.584314 0.239216 0.129412 1 0.764706 0.443137 0.341177 1 0.486275 0.486275 0.486275 1 0.486275 0.486275 0.486275 1 0.705882 0.705882 0.705882 1 0.486275 0.486275 0.486275 1 0.486275 0.486275 0.486275 1 0.827451 0.827451 0.827451 1 0.486275 0.486275 0.486275 1 0.486275 0.486275 0.486275 1 0.968628 0.968628 0.968628 1 0.486275 0.486275 0.486275 1 0.619608 0.619608 0.619608 1 0.486275 0.486275 0.486275 1 1 1 1 1 1 1 1 1 0.619608 0.619608 0.619608 1 0.74902 0.74902 0.74902 1 0.772549 0.772549 0.772549 1 1 1 1 1 0.988235 0.988235 0.988235 1 0.772549 0.772549 0.772549 1 1 1 1 1 1 1 1 1 0.486275 0.486275 0.486275 1 0.988235 0.988235 0.988235 1 1 1 1 1 1 1 1 1 0.772549 0.772549 0.772549 1 0.745098 0.745098 0.745098 1 0.74902 0.74902 0.74902 1 0.988235 0.988235 0.988235 1 0.486275 0.486275 0.486275 1 0.788235 0.788235 0.788235 1 0.788235 0.788235 0.788235 1 0.796078 0.796078 0.796078 1 0.988235 0.988235 0.988235 1 1 1 1 1 1 1 1 1 1 1 1 1 1 1 1 1 1 1 1 1 0.65098 0.65098 0.65098 1 0.65098 0.65098 0.65098 1 1 1 1 1 0.792157 0.792157 0.792157 1 0.65098 0.65098 0.65098 1 1 1 1 1 0.65098 0.65098 0.65098 1 0.788235 0.788235 0.788235 1 0.792157 0.792157 0.792157 1 0.6 0.6 0.6 1 0.698039 0.698039 0.698039 1 0.788235 0.788235 0.788235 1 0.839216 0.839216 0.839216 1 0.756863 0.756863 0.756863 1 0.756863 0.756863 0.756863 1 0.839216 0.839216 0.839216 1 0.945098 0.945098 0.945098 1 0.486275 0.486275 0.486275 1 0.486275 0.486275 0.486275 1 0.960784 0.960784 0.960784 1 0.486275 0.486275 0.486275 1 0.486275 0.486275 0.486275 1 0.486275 0.486275 0.486275 1 0.486275 0.486275 0.486275 1 0.854902 0.854902 0.854902 1 0.854902 0.854902 0.854902 1 0.486275 0.486275 0.486275 1 0.486275 0.486275 0.486275 1 0.960784 0.960784 0.960784 1 0.486275 0.486275 0.486275 1 0.486275 0.486275 0.486275 1 0.945098 0.945098 0.945098 1 0.486275 0.486275 0.486275 1 0.486275 0.486275 0.486275 1 0.486275 0.486275 0.486275 1 0.945098 0.854902 0.627451 1 0.901961 0.780392 0.466667 1 1 1 1 1 1 1 1 1 0.980392 0.87451 0.615686 1 1 0.905882 0.662745 1 1 1 1 1 1 0.909804 0.686275 1 1 1 1 1 1 1 1 1 1 1 1 1 1 0.905882 0.662745 1 0.890196 0.8 0.572549 1 1 1 1 1 1 1 1 1 1 1 1 1 0.894118 0.776471 0.478431 1 1 1 1 1 0.960784 0.960784 0.960784 1 0.623529 0.521569 0.266667 1 0.717647 0.6 0.301961 1 1 1 1 1 0.819608 0.709804 0.435294 1 0.901961 0.780392 0.466667 1 0.945098 0.854902 0.627451 1 0.545098 0.392157 0.109804 1 0.945098 0.854902 0.627451 1 0.945098 0.854902 0.627451 1 0.901961 0.780392 0.466667 1 0.980392 0.87451 0.615686 1 0.980392 0.87451 0.615686 1 0.980392 0.87451 0.615686 1 0.901961 0.780392 0.466667 1 0.909804 0.788235 0.486275 1 0.945098 0.854902 0.627451 1 1 1 1 1 0.901961 0.780392 0.466667 1 1 1 1 1 0.980392 0.87451 0.615686 1 1 0.905882 0.662745 1 1 1 1 1 1 0.909804 0.686275 1 1 1 1 1 1 1 1 1 1 1 1 1 1 0.905882 0.662745 1 0.890196 0.8 0.572549 1 1 1 1 1 1 1 1 1 1 1 1 1 0.894118 0.776471 0.478431 1 1 1 1 1 0.960784 0.960784 0.960784 1 0.623529 0.521569 0.266667 1 0.717647 0.6 0.301961 1 1 1 1 1 0.819608 0.709804 0.435294 1 0.717647 0.6 0.301961 1 0.623529 0.521569 0.266667 1 1 1 1 1 0.905882 0.905882 0.905882 1 0.929412 0.776471 0.392157 1 0.980392 0.87451 0.615686 1 1 0.905882 0.662745 1 0.717647 0.6 0.301961 1 0.764706 0.572549 0.086274 1 0.717647 0.6 0.301961 1 0.717647 0.6 0.301961 1 0.717647 0.6 0.301961 1 1 0.905882 0.662745 1 0.980392 0.87451 0.615686 1 1 1 1 1 1 1 1 1 1 1 1 1 1 1 1 1 1 1 1 1 0.960784 0.960784 0.960784 1 1 1 1 1 1 1 1 1 0.905882 0.905882 0.905882 1 0.905882 0.905882 0.905882 1 0.929412 0.776471 0.392157 1 0.980392 0.87451 0.615686 1 0.980392 0.87451 0.615686 1 0.980392 0.87451 0.615686 1 0.717647 0.6 0.301961 1 0.533333 0.384314 0.121569 1 0.717647 0.6 0.301961 1 0.623529 0.521569 0.266667 1 1 1 1 1 0.905882 0.905882 0.905882 1 1 1 1 1 1 1 1 1 1 1 1 1 1 1 1 1 0.905882 0.905882 0.905882 1 1 1 1 1 0.960784 0.960784 0.960784 1 1 1 1 1 1 1 1 1 0.905882 0.905882 0.905882 1 0.717647 0.6 0.301961 1 0.533333 0.384314 0.121569 1</float_array>
          <technique_common>
            <accessor source="#GeometrySource7-array" count="669" stride="4">
              <param name="R" type="float"/>
              <param name="G" type="float"/>
              <param name="B" type="float"/>
              <param name="A" type="float"/>
            </accessor>
          </technique_common>
        </source>
        <vertices id="Geometry1-vertices">
          <input semantic="POSITION" source="#GeometrySource4"/>
          <input semantic="NORMAL" source="#GeometrySource5"/>
          <input semantic="TEXCOORD" source="#GeometrySource6"/>
          <input semantic="COLOR" source="#GeometrySource7"/>
        </vertices>
        <triangles material="VisualMaterial10" count="623">
          <input semantic="VERTEX" source="#Geometry1-vertices" offset="0"/>
          <p>0 1 2 3 0 2 2 4 3 4 2 5 4 6 3 0 3 7 8 9 10 11 9 8 12 11 8 13 12 8 14 12 13 15 12 14 16 17 18 17 16 19 17 19 20 20 21 17 19 22 20 19 23 22 24 23 19 25 22 23 24 25 23 26 25 24 25 27 22 28 29 30 29 31 30 30 31 32 33 34 35 34 36 35 37 35 36 38 39 40 38 41 39 41 42 39 41 43 42 43 44 42 45 44 43 45 46 44 46 47 44 44 47 48 44 48 49 50 44 49 50 49 51 51 52 50 51 53 52 54 52 53 39 54 40 54 53 55 56 54 55 57 54 56 58 54 57 59 40 54 59 54 58 60 61 54 60 62 61 62 44 63 62 63 61 64 65 66 67 64 66 67 66 68 16 69 19 69 24 19 70 71 72 71 70 73 74 71 73 75 74 76 77 75 76 77 76 78 73 70 79 80 79 78 79 81 78 81 79 82 81 82 83 83 84 81 85 84 83 84 86 87 88 84 89 88 89 90 89 91 90 91 92 93 92 83 94 92 94 93 83 95 94 82 96 83 82 79 96 96 95 83 96 97 95 79 70 98 70 72 98 96 98 97 96 79 98 99 71 100 98 101 97 99 100 101 71 102 100 103 104 105 104 106 105 105 106 107 107 108 109 110 111 107 104 112 113 113 114 109 112 114 113 115 116 117 115 117 118 115 118 119 115 119 120 121 115 120 121 120 122 122 120 123 122 123 124 125 122 124 125 124 126 124 127 126 128 124 123 128 127 124 120 128 123 119 129 120 120 129 128 119 130 129 119 118 131 130 119 131 130 131 132 132 129 130 133 128 129 132 133 129 133 127 128 126 127 133 132 134 133 131 135 132 132 135 134 131 136 135 131 118 136 117 137 118 118 137 136 117 138 137 139 117 116 117 139 138 139 116 140 138 139 141 141 139 140 136 137 142 142 138 141 137 138 142 136 143 135 136 142 143 135 143 144 134 135 144 145 134 144 145 146 134 145 144 147 142 141 147 141 148 147 145 147 148 149 142 147 144 143 149 142 149 143 144 149 147 134 150 133 150 126 133 151 152 153 153 154 155 156 157 158 159 116 115 160 161 162 160 163 161 161 163 162 164 165 166 167 165 164 167 168 165 166 165 168 169 170 171 172 170 169 172 173 170 171 170 173 174 175 176 177 175 174 177 178 175 176 175 178 179 180 181 180 182 181 179 181 182 183 184 185 183 185 186 187 185 184 187 186 185 188 189 190 188 190 191 192 191 190 192 190 189 193 194 195 196 193 195 194 197 195 196 195 197 198 199 200 201 198 200 201 200 202 199 202 200 203 204 205 206 203 205 206 205 207 204 207 205 208 209 210 209 211 210 210 211 212 211 213 212 212 213 214 213 215 214 214 215 216 215 217 216 218 219 220 220 219 221 220 221 222 221 219 223 224 101 98 225 226 227 228 229 230 231 228 232 231 232 233 234 231 233 233 235 236 235 237 236 235 229 237 95 97 238 239 95 238 95 240 94 94 240 93 241 242 93 241 238 242 242 243 93 244 245 246 247 228 248 249 250 251 249 252 250 252 249 253 252 253 254 255 254 253 255 256 254 257 256 255 258 257 255 259 258 255 260 259 255 260 255 261 261 255 262 263 261 262 263 262 264 262 265 264 264 265 266 265 251 266 267 266 251 267 251 268 268 251 269 251 250 270 251 270 269 271 272 251 273 272 271 274 255 273 274 273 271 275 276 277 278 276 275 276 278 279 279 280 276 279 278 281 275 282 278 283 284 285 286 283 285 287 283 286 288 283 287 289 288 287 290 289 287 291 292 293 293 294 291 293 295 294 295 293 296 294 295 297 294 297 298 299 294 298 299 298 300 300 298 297 301 299 300 302 294 299 291 294 302 303 304 305 305 304 306 306 304 307 308 309 310 310 309 311 312 311 309 313 314 315 316 314 313 316 317 314 300 297 318 319 320 321 322 319 321 321 323 322 324 323 321 324 325 323 323 325 326 327 323 326 323 328 322 327 328 323 328 327 329 329 327 330 330 331 329 332 331 330 333 332 330 334 332 333 335 334 333 335 333 336 337 335 336 333 338 336 338 337 336 333 339 338 330 340 333 327 340 330 326 340 327 340 339 333 326 341 340 340 341 339 342 341 326 325 342 326 343 338 339 343 339 341 343 341 342 338 343 344 338 344 345 338 345 346 338 346 347 348 337 338 347 348 338 347 349 348 347 350 349 349 350 351 352 349 351 352 348 349 352 337 348 353 337 352 353 354 337 353 355 354 356 355 353 352 351 357 352 357 353 356 353 357 358 356 357 357 359 358 351 359 357 351 350 360 359 351 360 361 359 360 361 362 359 361 363 362 363 364 362 363 365 364 366 365 363 367 365 366 367 366 368 369 367 368 367 369 370 365 370 364 367 370 365 364 370 371 364 371 362 370 320 371 372 362 371 358 359 373 362 373 359 373 362 372 374 358 373 372 375 373 375 374 373 376 377 378 376 379 377 380 379 376 380 381 379 381 380 382 383 384 385 385 386 383 387 383 388 389 390 391 389 392 390 389 393 392 393 394 392 391 390 395 396 397 398 396 398 399 396 399 400 400 399 401 399 398 402 399 402 403 397 404 398 404 397 405 397 406 405 405 406 407 407 408 405 407 406 409 320 370 410 320 410 321 410 411 321 324 321 411 410 370 412 412 411 410 413 370 369 413 369 368 412 370 413 413 368 414 411 412 414 414 412 413 415 416 417 417 418 415 419 415 418 415 419 416 420 421 422 420 423 421 421 424 422 421 425 424 426 427 428 429 428 427 428 429 426 430 431 432 431 430 433 434 431 433 434 433 435 435 433 436 436 437 435 438 439 440 441 442 443 441 443 444 441 444 445 445 444 446 447 446 444 443 442 447 442 446 447 444 443 448 447 444 448 449 448 450 451 449 450 448 451 450 452 453 454 453 452 455 456 457 458 459 460 461 462 463 464 462 465 463 462 466 465 466 467 465 463 468 464 464 468 467 468 465 467 468 469 465 465 469 463 470 471 469 472 471 470 469 471 472 473 474 475 474 473 476 474 476 477 476 478 477 479 473 475 478 476 479 476 473 479 474 480 475 481 480 474 482 483 484 484 485 482 484 486 485 485 486 487 485 488 482 488 483 482 487 488 485 484 483 489 490 484 489 491 492 493 494 495 496 497 498 499 499 500 497 501 502 503 354 501 503 337 354 503 503 335 337 503 504 335 504 503 502 334 505 332 334 502 505 319 322 506 322 328 507 506 322 507 508 509 510 508 511 509 511 512 509 509 512 513 514 513 512 515 514 512 516 514 515 516 517 514 518 514 517 519 510 509 520 521 522 523 521 524 525 524 521 526 527 528 526 529 527 526 528 530 527 531 528 531 532 528 533 534 535 536 537 538 539 540 541 542 541 540 543 544 345 345 545 546 547 548 549 550 551 552 553 554 555 556 557 558 559 560 561 562 563 564 565 414 368 565 368 366 566 567 568 569 566 568 570 566 569 571 570 569 572 569 568 571 569 572 568 573 572 573 568 567 572 573 574 572 574 575 572 575 576 576 577 572 578 577 576 579 578 576 575 580 576 579 576 580 575 581 580 581 575 582 583 581 582 584 583 582 582 585 584 586 585 582 575 587 582 575 574 587 586 582 587 574 588 587 588 586 587 589 590 591 591 590 592 591 592 593 594 591 593 592 595 593 596 595 592 596 592 597 592 590 597 78 598 599 600 601 602 603 601 600 604 603 600 605 603 604 605 606 603 606 601 603 601 606 607 607 602 601 606 608 607 606 609 608 606 610 609 610 606 611 612 610 611 613 610 612 613 614 610 609 610 614 609 614 615 615 616 609 617 616 615 618 616 617 616 618 619 620 616 619 620 621 616 609 616 621 609 621 608 608 621 622 622 621 620 623 577 578 623 578 624 625 578 579 626 624 578 626 578 625 627 628 629 627 629 630 631 627 630 630 632 631 631 633 627 633 631 634 627 633 635 627 635 636 637 638 639 640 638 637 639 638 641 639 641 642 642 641 643 584 585 644 645 644 585 646 637 639 647 648 649 647 650 648 588 651 586 588 652 651 574 652 588 574 573 652 653 612 611 653 654 612 655 613 612 656 655 612 656 612 654 657 658 659 660 657 659 661 658 657 658 662 659 658 663 662 663 664 662 618 665 619 666 619 665 622 620 667 608 668 607 622 667 668 608 622 668</p>
        </triangles>
      </mesh>
    </geometry>
  </library_geometries>
  <library_controllers>
    <controller id="Controller">
      <skin source="#Geometry">
        <bind_shape_matrix>1 0 0 0 0 1 0 0 0 0 1 0 0 0 0 1</bind_shape_matrix>
        <source id="Controller-joints">
          <Name_array id="Controller-joints-array" count="12">wristL armL2 armL1 wristR armR2 armR1 mouth head spine waist skl_root all_root</Name_array>
          <technique_common>
            <accessor source="#Controller-joints-array" count="12" stride="1">
              <param name="JOINT" type="Name"/>
            </accessor>
          </technique_common>
        </source>
        <source id="Controller-bind_poses">
          <float_array id="Controller-bind_poses-array" count="192">1 0.000000 -0.000001 -9.64999 0.000000 0.848049 0.529919 -6.88699 0.000001 -0.529919 0.848049 1.88662 0 0 0 1 1 0.000000 -0.000001 -6.64999 0.000000 0.848048 0.529919 -6.88699 0.000001 -0.529919 0.848049 1.88662 0 0 0 1 1 0.000000 -0.000001 -4.19999 0.000000 0.848048 0.529919 -6.88699 0.000001 -0.529919 0.848048 1.88662 0 0 0 1 -1 -0.000006 -0.000001 -9.64997 -0.000006 0.84805 0.529917 -6.887 -0.000001 0.529917 -0.84805 -1.8866 0 0 0 1 -1 -0.000006 -0.000001 -6.64997 -0.000006 0.84805 0.529917 -6.887 -0.000001 0.529917 -0.84805 -1.8866 0 0 0 1 -1 -0.000006 -0.000001 -4.19997 -0.000006 0.84805 0.529917 -6.887 -0.000001 0.529917 -0.84805 -1.8866 0 0 0 1 0.000003 -0.882946 0.469476 6.05101 0.000001 0.469476 0.882946 -8.85346 -1 -0.000001 0.000003 -0.000022 0 0 0 1 -0.000000 0.052336 0.99863 -3.66665 -1 -0.000003 0 0.000009 0.000003 -0.99863 0.052336 8.52574 0 0 0 1 -0.000003 0.848048 0.529919 -1.88697 -1 -0.000003 0 0.000009 0.000001 -0.529919 0.848048 1.88662 0 0 0 1 -0.000002 -0.573577 0.819152 1.14715 -0.000000 0.819152 0.573577 -1.6383 -1 0.000000 -0.000002 -0.000001 0 0 0 1 1 0 0 0 0 1 0 -2 0 0 1 0 0 0 0 1 1 0 0 0 0 1 0 0 0 0 1 0 0 0 0 1</float_array>
          <technique_common>
            <accessor source="#Controller-bind_poses-array" count="12" stride="16">
              <param name="TRANSFORM" type="float4x4"/>
            </accessor>
          </technique_common>
        </source>
        <source id="Controller-weights">
          <float_array id="Controller-weights-array" count="1">1</float_array>
          <technique_common>
            <accessor source="#Controller-weights-array" count="1" stride="1">
              <param name="WEIGHT" type="float"/>
            </accessor>
          </technique_common>
        </source>
        <joints>
          <input semantic="JOINT" source="#Controller-joints"/>
          <input semantic="INV_BIND_MATRIX" source="#Controller-bind_poses"/>
        </joints>
        <vertex_weights count="8">
          <input semantic="JOINT" source="#Controller-joints" offset="0"/>
          <input semantic="WEIGHT" source="#Controller-weights" offset="1"/>
          <vcount>1 1 1 1 1 1 1 1 </vcount>
          <v>7 0 7 0 7 0 7 0 7 0 7 0 7 0 7 0</v>
        </vertex_weights>
      </skin>
      <extra>
        <technique profile="FCOLLADA">
          <user_properties>SkinController</user_properties>
        </technique>
      </extra>
    </controller>
    <controller id="Controller1">
      <skin source="#Geometry1">
        <bind_shape_matrix>1 0 0 0 0 1 0 0 0 0 1 0 0 0 0 1</bind_shape_matrix>
        <source id="Controller1-joints">
          <Name_array id="Controller1-joints-array" count="12">wristL armL2 armL1 wristR armR2 armR1 mouth head spine waist skl_root all_root</Name_array>
          <technique_common>
            <accessor source="#Controller1-joints-array" count="12" stride="1">
              <param name="JOINT" type="Name"/>
            </accessor>
          </technique_common>
        </source>
        <source id="Controller1-bind_poses">
          <float_array id="Controller1-bind_poses-array" count="192">1 0.000000 -0.000001 -9.64999 0.000000 0.848049 0.529919 -6.88699 0.000001 -0.529919 0.848049 1.88662 0 0 0 1 1 0.000000 -0.000001 -6.64999 0.000000 0.848048 0.529919 -6.88699 0.000001 -0.529919 0.848049 1.88662 0 0 0 1 1 0.000000 -0.000001 -4.19999 0.000000 0.848048 0.529919 -6.88699 0.000001 -0.529919 0.848048 1.88662 0 0 0 1 -1 -0.000006 -0.000001 -9.64997 -0.000006 0.84805 0.529917 -6.887 -0.000001 0.529917 -0.84805 -1.8866 0 0 0 1 -1 -0.000006 -0.000001 -6.64997 -0.000006 0.84805 0.529917 -6.887 -0.000001 0.529917 -0.84805 -1.8866 0 0 0 1 -1 -0.000006 -0.000001 -4.19997 -0.000006 0.84805 0.529917 -6.887 -0.000001 0.529917 -0.84805 -1.8866 0 0 0 1 0.000003 -0.882946 0.469476 6.05101 0.000001 0.469476 0.882946 -8.85346 -1 -0.000001 0.000003 -0.000022 0 0 0 1 -0.000000 0.052336 0.99863 -3.66665 -1 -0.000003 0 0.000009 0.000003 -0.99863 0.052336 8.52574 0 0 0 1 -0.000003 0.848048 0.529919 -1.88697 -1 -0.000003 0 0.000009 0.000001 -0.529919 0.848048 1.88662 0 0 0 1 -0.000002 -0.573577 0.819152 1.14715 -0.000000 0.819152 0.573577 -1.6383 -1 0.000000 -0.000002 -0.000001 0 0 0 1 1 0 0 0 0 1 0 -2 0 0 1 0 0 0 0 1 1 0 0 0 0 1 0 0 0 0 1 0 0 0 0 1</float_array>
          <technique_common>
            <accessor source="#Controller1-bind_poses-array" count="12" stride="16">
              <param name="TRANSFORM" type="float4x4"/>
            </accessor>
          </technique_common>
        </source>
        <source id="Controller1-weights">
          <float_array id="Controller1-weights-array" count="1">1</float_array>
          <technique_common>
            <accessor source="#Controller1-weights-array" count="1" stride="1">
              <param name="WEIGHT" type="float"/>
            </accessor>
          </technique_common>
        </source>
        <joints>
          <input semantic="JOINT" source="#Controller1-joints"/>
          <input semantic="INV_BIND_MATRIX" source="#Controller1-bind_poses"/>
        </joints>
        <vertex_weights count="669">
          <input semantic="JOINT" source="#Controller1-joints" offset="0"/>
          <input semantic="WEIGHT" source="#Controller1-weights" offset="1"/>
          <vcount>1 1 1 1 1 1 1 1 1 1 1 1 1 1 1 1 1 1 1 1 1 1 1 1 1 1 1 1 1 1 1 1 1 1 1 1 1 1 1 1 1 1 1 1 1 1 1 1 1 1 1 1 1 1 1 1 1 1 1 1 1 1 1 1 1 1 1 1 1 1 1 1 1 1 1 1 1 1 1 1 1 1 1 1 1 1 1 1 1 1 1 1 1 1 1 1 1 1 1 1 1 1 1 1 1 1 1 1 1 1 1 1 1 1 1 1 1 1 1 1 1 1 1 1 1 1 1 1 1 1 1 1 1 1 1 1 1 1 1 1 1 1 1 1 1 1 1 1 1 1 1 1 1 1 1 1 1 1 1 1 1 1 1 1 1 1 1 1 1 1 1 1 1 1 1 1 1 1 1 1 1 1 1 1 1 1 1 1 1 1 1 1 1 1 1 1 1 1 1 1 1 1 1 1 1 1 1 1 1 1 1 1 1 1 1 1 1 1 1 1 1 1 1 1 1 1 1 1 1 1 1 1 1 1 1 1 1 1 1 1 1 1 1 1 1 1 1 1 1 1 1 1 1 1 1 1 1 1 1 1 1 1 1 1 1 1 1 1 1 1 1 1 1 1 1 1 1 1 1 1 1 1 1 1 1 1 1 1 1 1 1 1 1 1 1 1 1 1 1 1 1 1 1 1 1 1 1 1 1 1 1 1 1 1 1 1 1 1 1 1 1 1 1 1 1 1 1 1 1 1 1 1 1 1 1 1 1 1 1 1 1 1 1 1 1 1 1 1 1 1 1 1 1 1 1 1 1 1 1 1 1 1 1 1 1 1 1 1 1 1 1 1 1 1 1 1 1 1 1 1 1 1 1 1 1 1 1 1 1 1 1 1 1 1 1 1 1 1 1 1 1 1 1 1 1 1 1 1 1 1 1 1 1 1 1 1 1 1 1 1 1 1 1 1 1 1 1 1 1 1 1 1 1 1 1 1 1 1 1 1 1 1 1 1 1 1 1 1 1 1 1 1 1 1 1 1 1 1 1 1 1 1 1 1 1 1 1 1 1 1 1 1 1 1 1 1 1 1 1 1 1 1 1 1 1 1 1 1 1 1 1 1 1 1 1 1 1 1 1 1 1 1 1 1 1 1 1 1 1 1 1 1 1 1 1 1 1 1 1 1 1 1 1 1 1 1 1 1 1 1 1 1 1 1 1 1 1 1 1 1 1 1 1 1 1 1 1 1 1 1 1 1 1 1 1 1 1 1 1 1 1 1 1 1 1 1 1 1 1 1 1 1 1 1 1 1 1 1 1 1 1 1 1 1 1 1 1 1 1 1 1 1 1 1 1 1 1 1 1 1 1 1 1 1 1 1 1 1 1 1 1 1 1 1 1 1 1 1 1 1 1 1 1 1 1 1 1 1 1 1 1 1 1 1 1 1 1 1 1 1 1 1 1 1 1 1 1 1 1 1 1 1 1 1 1 1 1 1 1 1 1 1 1 1 1 1 1 1 1 </vcount>
          <v>0 0 1 0 1 0 0 0 0 0 1 0 0 0 0 0 0 0 1 0 0 0 1 0 0 0 0 0 0 0 0 0 0 0 0 0 1 0 0 0 0 0 0 0 0 0 0 0 0 0 0 0 0 0 0 0 1 0 0 0 0 0 0 0 0 0 1 0 0 0 1 0 0 0 1 0 1 0 1 0 1 0 1 0 1 0 1 0 2 0 1 0 1 0 2 0 2 0 8 0 2 0 2 0 2 0 2 0 2 0 2 0 2 0 2 0 1 0 1 0 1 0 2 0 1 0 2 0 1 0 1 0 1 0 1 0 1 0 0 0 8 0 2 0 8 0 8 0 8 0 2 0 8 0 8 0 9 0 10 0 8 0 9 0 10 0 10 0 9 0 8 0 8 0 8 0 8 0 8 0 5 0 8 0 8 0 5 0 8 0 8 0 8 0 8 0 8 0 8 0 8 0 8 0 2 0 2 0 2 0 8 0 8 0 8 0 8 0 8 0 8 0 8 0 2 0 8 0 8 0 8 0 8 0 8 0 8 0 8 0 8 0 8 0 8 0 8 0 8 0 8 0 8 0 8 0 8 0 8 0 8 0 8 0 8 0 8 0 8 0 8 0 8 0 8 0 8 0 8 0 8 0 8 0 8 0 8 0 8 0 8 0 8 0 8 0 8 0 8 0 8 0 8 0 8 0 8 0 8 0 8 0 8 0 8 0 8 0 8 0 8 0 8 0 8 0 8 0 8 0 8 0 8 0 8 0 8 0 8 0 8 0 8 0 8 0 8 0 8 0 8 0 8 0 8 0 8 0 8 0 8 0 8 0 8 0 8 0 8 0 8 0 8 0 8 0 8 0 8 0 8 0 8 0 8 0 8 0 8 0 8 0 8 0 8 0 8 0 8 0 8 0 8 0 8 0 8 0 8 0 8 0 8 0 8 0 8 0 8 0 8 0 8 0 8 0 8 0 8 0 8 0 8 0 8 0 8 0 8 0 8 0 8 0 8 0 8 0 8 0 8 0 8 0 8 0 8 0 8 0 8 0 8 0 8 0 5 0 5 0 8 0 5 0 8 0 8 0 8 0 8 0 8 0 8 0 5 0 8 0 8 0 8 0 8 0 8 0 5 0 8 0 5 0 5 0 5 0 5 0 5 0 5 0 5 0 5 0 4 0 4 0 4 0 4 0 4 0 4 0 4 0 4 0 4 0 4 0 5 0 5 0 4 0 5 0 5 0 4 0 3 0 4 0 4 0 3 0 3 0 4 0 3 0 3 0 3 0 3 0 4 0 4 0 3 0 3 0 3 0 3 0 3 0 4 0 3 0 3 0 3 0 3 0 3 0 3 0 3 0 3 0 3 0 3 0 4 0 3 0 3 0 3 0 3 0 4 0 4 0 3 0 3 0 4 0 4 0 4 0 4 0 4 0 4 0 3 0 7 0 8 0 6 0 7 0 7 0 6 0 7 0 7 0 7 0 7 0 7 0 7 0 7 0 7 0 7 0 7 0 7 0 7 0 7 0 7 0 7 0 7 0 7 0 7 0 7 0 7 0 7 0 7 0 7 0 7 0 7 0 7 0 7 0 7 0 7 0 7 0 7 0 7 0 7 0 7 0 7 0 7 0 6 0 6 0 6 0 6 0 6 0 6 0 6 0 6 0 6 0 6 0 8 0 7 0 7 0 7 0 7 0 7 0 8 0 8 0 8 0 7 0 7 0 7 0 8 0 7 0 7 0 8 0 7 0 8 0 8 0 7 0 8 0 7 0 7 0 7 0 8 0 7 0 6 0 7 0 7 0 7 0 7 0 7 0 7 0 6 0 6 0 6 0 6 0 6 0 6 0 6 0 6 0 6 0 6 0 6 0 7 0 7 0 7 0 7 0 7 0 7 0 7 0 7 0 7 0 7 0 7 0 7 0 7 0 7 0 7 0 7 0 7 0 7 0 7 0 7 0 7 0 7 0 7 0 7 0 7 0 7 0 7 0 7 0 7 0 7 0 7 0 7 0 7 0 7 0 7 0 7 0 7 0 7 0 7 0 7 0 7 0 7 0 7 0 7 0 7 0 7 0 7 0 7 0 7 0 7 0 7 0 7 0 7 0 7 0 7 0 7 0 7 0 7 0 7 0 7 0 7 0 7 0 7 0 7 0 7 0 7 0 7 0 7 0 7 0 7 0 7 0 7 0 7 0 7 0 7 0 7 0 7 0 7 0 7 0 7 0 7 0 7 0 7 0 7 0 7 0 7 0 7 0 7 0 7 0 7 0 7 0 7 0 7 0 7 0 7 0 7 0 7 0 7 0 7 0 7 0 7 0 7 0 7 0 7 0 7 0 7 0 7 0 7 0 7 0 7 0 7 0 7 0 7 0 7 0 7 0 7 0 7 0 7 0 7 0 7 0 7 0 7 0 7 0 7 0 7 0 7 0 7 0 7 0 7 0 7 0 7 0 7 0 6 0 6 0 6 0 6 0 6 0 6 0 6 0 6 0 6 0 6 0 6 0 6 0 6 0 6 0 6 0 6 0 6 0 6 0 6 0 9 0 8 0 9 0 9 0 9 0 9 0 9 0 9 0 9 0 9 0 9 0 9 0 9 0 9 0 9 0 9 0 9 0 9 0 9 0 9 0 9 0 9 0 9 0 8 0 9 0 8 0 9 0 9 0 8 0 9 0 9 0 9 0 8 0 8 0 9 0 9 0 8 0 9 0 9 0 9 0 9 0 9 0 9 0 9 0 9 0 9 0 9 0 9 0 9 0 9 0 9 0 9 0 9 0 9 0 9 0 9 0 9 0 9 0 9 0 9 0 9 0 9 0 9 0 9 0 9 0 9 0 9 0 9 0 9 0 9 0 9 0 9 0 9 0 9 0 9 0 9 0 9 0 9 0 9 0 9 0 9 0 9 0 9 0 9 0 9 0 9 0 9 0 9 0 9 0 9 0 9 0 9 0 9 0 9 0 9 0 9 0 9 0 9 0 9 0 9 0 9 0 9 0 9 0</v>
        </vertex_weights>
      </skin>
      <extra>
        <technique profile="FCOLLADA">
          <user_properties>SkinController</user_properties>
        </technique>
      </extra>
    </controller>
  </library_controllers>
  <library_visual_scenes>
    <visual_scene id="VisualSceneNode" name="rdmscene">
      <node id="VisualSceneNode1" name="all_root" sid="all_root" type="JOINT">
        <matrix>1 0 0 0 0 1 0 0 0 0 1 0 0 0 0 1</matrix>
        <node id="VisualSceneNode2" name="skl_root" sid="skl_root" type="JOINT">
          <matrix>1 0 0 0 0 1 0 2 0 0 1 0 0 0 0 1</matrix>
          <node id="VisualSceneNode3" name="spine" sid="spine" type="JOINT">
            <matrix>-0.000003 -1 0.000001 0 0.848048 -0.000003 -0.529919 0.6 0.529919 0 0.848048 -0.6 0 0 0 1</matrix>
            <node id="VisualSceneNode4" name="armL1" sid="armL1" type="JOINT">
              <matrix>-0.000003 1 0 5 -1 -0.000003 0 -4.2 0 0 1 -0.000000 0 0 0 1</matrix>
              <node id="VisualSceneNode5" name="armL2" sid="armL2" type="JOINT">
                <matrix>1 0 0 2.45 0 1 0 0 0 0 1 -0.000000 0 0 0 1</matrix>
                <node id="VisualSceneNode6" name="wristL" sid="wristL" type="JOINT">
                  <matrix>1 0 0 3 0 1 0 0 0 0 1 0.000000 0 0 0 1</matrix>
                </node>
              </node>
            </node>
            <node id="VisualSceneNode7" name="armR1" sid="armR1" type="JOINT">
              <matrix>-0.000003 1 -0.000002 5 1 0.000003 0 4.2 0 -0.000002 -1 0 0 0 0 1</matrix>
              <node id="VisualSceneNode8" name="armR2" sid="armR2" type="JOINT">
                <matrix>1 0 0 2.45 0 1 0 -0.000000 0 0 1 0 0 0 0 1</matrix>
                <node id="VisualSceneNode9" name="wristR" sid="wristR" type="JOINT">
                  <matrix>1 0 0 3 0 1 0 0.000000 0 0 1 0 0 0 0 1</matrix>
                </node>
              </node>
            </node>
            <node id="VisualSceneNode10" name="head" sid="head" type="JOINT">
              <matrix>0.573577 0 -0.819152 7.2 0 1 0 0 0.819152 0 0.573577 0 0 0 0 1</matrix>
              <node id="VisualSceneNode11" name="mouth" sid="mouth" type="JOINT">
                <matrix>0.422622 0.906306 0.000003 1.8 0 -0.000003 1 0 0.906307 -0.422622 -0.000001 -0.700001 0 0 0 1</matrix>
              </node>
            </node>
          </node>
          <node id="VisualSceneNode12" name="waist" sid="waist" type="JOINT">
            <matrix>-0.000002 -0.000000 -1 0 -0.573577 0.819152 0.000000 0 0.819152 0.573577 -0.000002 0 0 0 0 1</matrix>
          </node>
        </node>
      </node>
      <node id="VisualSceneNode13" name="mesh_0_" type="NODE">
        <matrix>1 0 0 0 0 1 0 0 0 0 1 0 0 0 0 1</matrix>
        <instance_controller url="#Controller">
          <skeleton>#VisualSceneNode1</skeleton>
          <bind_material>
            <technique_common>
              <instance_material symbol="VisualMaterial0" target="#VisualMaterial"/>
            </technique_common>
          </bind_material>
        </instance_controller>
      </node>
      <node id="VisualSceneNode14" name="mesh_1_" type="NODE">
        <matrix>1 0 0 0 0 1 0 0 0 0 1 0 0 0 0 1</matrix>
        <instance_controller url="#Controller1">
          <skeleton>#VisualSceneNode1</skeleton>
          <bind_material>
            <technique_common>
              <instance_material symbol="VisualMaterial10" target="#VisualMaterial1"/>
            </technique_common>
          </bind_material>
        </instance_controller>
      </node>
    </visual_scene>
  </library_visual_scenes>
  <scene>
    <instance_visual_scene url="#VisualSceneNode"/>
  </scene>
</COLLADA>
