# Blender v2.79 (sub 0) OBJ File: 'MK7.blend'
# www.blender.org
mtllib bw.mtl
o mesh_1_
v 10.475599 8.701679 0.703432
v 8.973228 7.946479 1.058482
v 8.973239 7.914968 2.666861
v 12.241000 8.300658 2.983051
v 10.651199 7.006649 4.017680
v 8.973239 6.051229 3.107281
v 12.023499 7.137919 3.979701
v 11.511001 8.670269 0.742162
v 10.602600 4.820089 3.200240
v 8.973239 5.284618 1.743701
v 10.964800 4.491789 1.826670
v 8.973239 6.051229 3.107281
v 10.651199 7.006649 4.017680
v 11.288000 4.800719 2.718870
v 12.572200 5.718979 3.171271
v 12.023499 7.137919 3.979701
v 9.730060 5.754000 1.027541
v 10.964800 4.491789 1.826670
v 8.973239 5.284618 1.743701
v 11.606400 5.287849 1.233721
v 11.288000 4.800719 2.718870
v 10.602600 4.820089 3.200240
v 12.572200 5.718979 3.171271
v 12.993500 6.497479 2.004551
v 12.156300 7.378639 0.347360
v 12.241000 8.300658 2.983051
v 11.511001 8.670269 0.742162
v 12.023499 7.137919 3.979701
v 8.973228 7.946479 1.058482
v 10.475599 8.701679 0.703432
v 10.453000 6.774970 -0.230413
v 11.511001 8.670269 0.742162
v 12.156300 7.378639 0.347360
v 8.973228 7.946479 1.058482
v 10.453000 6.774970 -0.230413
v 8.973228 6.494549 0.388336
v 9.730060 5.754000 1.027541
v 8.973239 5.284618 1.743701
v 9.382198 8.397609 0.827000
v 6.768429 8.011589 0.931623
v 9.382209 8.355318 2.985372
v 9.382198 6.449179 -0.072312
v 6.768429 6.463639 0.162589
v 9.382209 4.825509 1.746521
v 6.654620 4.922440 1.740151
v 9.382209 5.854259 3.576401
v 7.213219 6.016459 3.138851
v 6.542470 5.921010 3.302401
v 4.085630 5.899759 3.343321
v 4.623360 4.917419 1.668001
v 6.558980 6.463630 0.161852
v 4.655860 6.555040 -0.129764
v 6.558980 8.011530 0.931360
v 4.159501 8.501610 0.934132
v 6.654620 8.027369 2.860471
v 4.085630 8.214879 2.976591
v 4.085630 5.899759 3.343321
v 6.542470 5.921010 3.302401
v 7.213219 6.016459 3.138851
v 9.382209 5.854259 3.576401
v 6.768429 8.011589 0.931623
v 6.558980 8.011530 0.931360
v 6.768429 6.463639 0.162589
v 6.558980 6.463630 0.161852
v 9.382198 8.397609 0.827000
v 9.382209 8.355318 2.985372
v 9.382209 5.854259 3.576401
v 9.382198 6.449179 -0.072312
v 9.382209 4.825509 1.746521
v 10.453000 6.774970 -0.230413
v 4.057060 5.472980 3.175861
v 4.085630 5.899759 3.343321
v 3.816890 6.078719 3.507291
v 4.618880 4.585569 1.593161
v 4.623360 4.917419 1.668001
v 4.655860 6.555040 -0.129764
v 4.618880 4.585569 1.593161
v 4.481980 6.538700 -0.318363
v 4.701800 2.289530 0.728627
v 2.893300 2.152230 3.068800
v 4.618880 4.585569 1.593161
v -0.000005 -0.311461 1.701260
v 0.000000 1.700609 3.733770
v -2.893300 2.152230 3.068800
v -4.701800 2.289540 0.728587
v -4.618900 4.585499 1.593161
v -4.482000 6.538630 -0.318363
v -3.896920 2.015590 -1.563280
v -4.482000 6.538630 -0.318363
v -4.618900 4.585499 1.593161
v -4.655890 6.555000 -0.129762
v -4.623380 4.917349 1.668001
v -4.618900 4.585499 1.593161
v -4.085660 5.899729 3.343321
v -4.057080 5.472919 3.175861
v -2.815480 4.858230 4.016281
v -0.000005 4.059299 4.910320
v -0.000013 6.343569 5.066471
v 2.815460 4.858269 4.016281
v 3.816890 6.078719 3.507291
v 3.786250 8.316149 3.078382
v 2.540260 7.321949 3.892601
v 4.085630 8.214879 2.976591
v 4.085630 8.214879 2.976591
v 4.159501 8.501610 0.934132
v 3.786250 8.316149 3.078382
v 3.946800 8.644230 0.844668
v 1.760810 9.603610 1.613322
v 3.946800 8.644230 0.844668
v 2.805230 8.923280 -0.584522
v 2.540260 7.321949 3.892601
v 3.786250 8.316149 3.078382
v 4.655860 6.555040 -0.129764
v 3.946800 8.644230 0.844668
v 4.481980 6.538700 -0.318363
v 6.687060 6.858280 -1.550569
v 3.896920 2.015650 -1.563280
v 5.777630 2.545230 -2.502729
v 3.551920 7.185391 -6.068539
v 3.109370 10.085900 -4.204628
v 5.720260 9.982770 0.143261
v 4.085650 8.571930 0.935659
v 3.628610 9.312540 2.718242
v 3.274110 10.912399 2.298502
v -0.000033 11.887199 2.474402
v -0.000027 10.311899 2.943242
v -3.628650 9.312480 2.718241
v -3.274170 10.912300 2.298502
v -0.000032 11.681499 1.115242
v -0.000034 12.228001 -0.908788
v -0.000030 11.101101 -4.942618
v -0.000018 7.777501 -7.318678
v -3.109430 10.085801 -4.204628
v -5.720320 9.982690 0.143261
v -6.687080 6.858191 -1.550579
v -3.551960 7.185341 -6.068539
v -0.000003 3.615951 -7.192100
v 3.273350 3.479861 -5.977859
v 3.121500 1.888901 -5.442019
v 3.194410 0.849680 -4.993390
v 0.000009 -0.084868 -2.183810
v 0.000007 0.518581 -6.246350
v 0.000003 1.529771 -6.331869
v -3.273350 3.479811 -5.977859
v -5.777630 2.545141 -2.502730
v -3.896920 2.015590 -1.563280
v -4.085690 8.571870 0.935658
v -3.194390 0.849633 -4.993390
v 0.000009 -0.084868 -2.183810
v -3.121500 1.888861 -5.442019
v -4.085690 8.571870 0.935658
v 4.085650 8.571930 0.935659
v 3.628610 9.312540 2.718242
v -0.000027 10.311899 2.943242
v -3.628650 9.312480 2.718241
v -4.085690 8.571870 0.935658
v -3.896920 2.015590 -1.563280
v 0.000009 -0.084868 -2.183810
v 3.896920 2.015650 -1.563280
v 4.085650 8.571930 0.935659
v -0.000032 11.515300 -2.783068
v -0.000044 14.559799 -1.505327
v 1.591260 11.229099 -0.190465
v -1.591320 11.229099 -0.190465
v 2.214780 11.045000 -1.584918
v 4.928590 12.478600 -2.467917
v 3.262350 10.104300 -3.421748
v 3.678220 10.412300 -0.448531
v 4.456700 9.277850 -1.853548
v 2.697230 8.223631 -5.422168
v 5.953680 9.308711 -5.823448
v 4.120240 6.823481 -4.788879
v 3.537420 9.323360 -3.799728
v 4.744260 7.600140 -2.991118
v 2.378510 5.384591 -5.916449
v 5.787780 5.199731 -6.330849
v 3.575800 3.958001 -5.062689
v 3.635810 6.601921 -5.039629
v 4.381920 5.211130 -3.929159
v -0.000010 5.591911 -6.976749
v 1.501430 3.424761 -6.375350
v -0.000004 3.941881 -8.680058
v -1.501430 3.424741 -6.375350
v -0.000023 9.049710 -6.338809
v 1.591980 7.552561 -6.539048
v -0.000021 8.549011 -9.659759
v -1.592020 7.552541 -6.539048
v -0.000012 6.028871 -7.093459
v -0.000031 11.407801 -3.381868
v 1.536420 10.386101 -4.460888
v -0.000037 12.987401 -6.546038
v -1.536480 10.386002 -4.460888
v -0.000024 9.491741 -5.825408
v -2.214840 11.045000 -1.584918
v -3.262410 10.104200 -3.421748
v -4.928670 12.478499 -2.467918
v -3.678280 10.412200 -0.448531
v -4.456740 9.277780 -1.853548
v -2.697270 8.223591 -5.422168
v -4.120280 6.823421 -4.788879
v -5.953720 9.308631 -5.823449
v -3.537460 9.323311 -3.799728
v -4.744300 7.600070 -2.991119
v -2.378530 5.384551 -5.916449
v -3.575810 3.957941 -5.062699
v -5.787800 5.199651 -6.330849
v -3.635830 6.601861 -5.039629
v -4.381940 5.211071 -3.929159
v -2.383950 10.359799 2.375212
v -2.435210 9.558270 1.510571
v -2.904130 8.145169 4.770951
v -2.904130 7.196869 3.896971
v -0.000015 6.816969 6.239281
v -0.000011 5.833469 5.397281
v 2.904360 8.145219 4.770951
v 2.904360 7.196909 3.896971
v 2.434900 10.359799 2.375212
v 2.434910 9.558290 1.510572
v -2.383950 10.359799 2.375212
v -2.904130 8.145169 4.770951
v -0.000029 10.791100 1.930352
v 2.904360 8.145219 4.770951
v 2.434900 10.359799 2.375212
v -0.000015 6.816969 6.239281
v 3.816890 6.078719 3.507291
v 2.805230 8.923280 -0.584522
v 4.481980 6.538700 -0.318363
v 3.896920 2.015650 -1.563280
v -1.760850 9.603590 1.613322
v -2.805270 8.923240 -0.584523
v -3.946840 8.644170 0.844667
v -3.786290 8.316099 3.078381
v -3.946840 8.644170 0.844667
v -4.159540 8.501579 0.934128
v -4.085670 8.214848 2.976592
v -3.946840 8.644170 0.844667
v -4.655890 6.555000 -0.129762
v -4.482000 6.538630 -0.318363
v -2.540300 7.321909 3.892601
v -3.816910 6.078660 3.507291
v -3.816910 6.078660 3.507291
v -3.816910 6.078660 3.507291
v -3.786290 8.316099 3.078381
v -4.085670 8.214848 2.976592
v -2.805270 8.923240 -0.584523
v -3.896920 2.015590 -1.563280
v -4.482000 6.538630 -0.318363
v -2.540300 7.321909 3.892601
v -3.786290 8.316099 3.078381
v -6.559011 6.463579 0.161854
v -4.623380 4.917349 1.668001
v -6.654641 4.922389 1.740151
v -4.655890 6.555000 -0.129762
v -6.559021 8.011479 0.931359
v -4.159540 8.501579 0.934128
v -6.654671 8.027329 2.860471
v -4.085670 8.214848 2.976592
v -4.085660 5.899729 3.343321
v -6.542491 5.920969 3.302401
v -7.213240 6.016409 3.138851
v -9.382229 5.854199 3.576401
v -9.382250 8.355248 2.985361
v -6.768470 8.011539 0.931620
v -9.382240 8.397539 0.826996
v -9.382229 6.449110 -0.072311
v -6.768460 6.463579 0.162590
v -9.382219 4.825449 1.746531
v -9.382229 5.854199 3.576401
v -7.213240 6.016409 3.138851
v -6.542491 5.920969 3.302401
v -4.085660 5.899729 3.343321
v -6.768460 6.463579 0.162590
v -6.559011 6.463579 0.161854
v -6.559021 8.011479 0.931359
v -6.768470 8.011539 0.931620
v -10.475598 8.701599 0.703427
v -8.973269 7.914909 2.666861
v -8.973269 7.946419 1.058481
v -12.240999 8.300568 2.983051
v -10.651198 7.006578 4.017680
v -8.973259 6.051169 3.107281
v -12.023499 7.137838 3.979701
v -11.511099 8.670178 0.742158
v -10.602599 4.820008 3.200250
v -10.964799 4.491708 1.826680
v -8.973249 5.284559 1.743701
v -8.973259 6.051169 3.107281
v -10.651198 7.006578 4.017680
v -11.287999 4.800639 2.718880
v -12.572199 5.718898 3.171271
v -12.023499 7.137838 3.979701
v -9.730079 5.753929 1.027541
v -8.973249 5.284559 1.743701
v -10.964799 4.491708 1.826680
v -11.606499 5.287759 1.233731
v -11.287999 4.800639 2.718880
v -10.602599 4.820008 3.200250
v -12.572199 5.718898 3.171271
v -12.993599 6.497378 2.004551
v -12.156299 7.378549 0.347359
v -12.240999 8.300568 2.983051
v -11.511099 8.670178 0.742158
v -10.453099 6.774889 -0.230413
v -8.973269 7.946419 1.058481
v -10.453099 6.774889 -0.230413
v -10.475598 8.701599 0.703427
v -11.511099 8.670178 0.742158
v -12.156299 7.378549 0.347359
v -8.973269 7.946419 1.058481
v -8.973259 6.494479 0.388337
v -10.453099 6.774889 -0.230413
v -9.730079 5.753929 1.027541
v -8.973249 5.284559 1.743701
v -9.382240 8.397539 0.826996
v -9.382229 5.854199 3.576401
v -9.382250 8.355248 2.985361
v -9.382229 6.449110 -0.072311
v -9.382219 4.825449 1.746531
v -12.023499 7.137838 3.979701
v -2.520340 8.978579 4.168002
v -1.139770 7.626269 4.835561
v -3.291340 8.529659 5.310711
v -3.235840 10.441699 5.327342
v -3.389140 9.498528 6.661161
v -2.546220 8.262488 6.419071
v -2.230760 8.945768 6.661131
v -2.595280 9.469628 7.617881
v -2.454110 10.135399 7.654731
v -2.235910 10.661899 6.859872
v -1.755900 10.337298 7.903712
v -1.887460 10.709398 9.023692
v -0.629173 10.549299 8.401321
v -1.250330 10.661098 9.297472
v -0.963222 10.096098 9.899232
v -0.540629 11.140898 9.674492
v -0.000029 10.861897 10.460502
v -0.000026 9.871288 10.737402
v 0.963168 10.096098 9.899232
v -0.000023 9.076938 10.273401
v -1.939300 9.288898 9.772801
v -2.553010 9.937558 8.988091
v -2.496080 8.957000 8.477712
v -2.102790 8.393009 7.926061
v -1.302380 8.235578 9.154350
v -0.351852 8.366248 9.436311
v -0.000022 8.737348 8.960421
v 0.351811 8.366258 9.436311
v 1.302340 8.235598 9.154350
v 1.939260 9.288918 9.772801
v 2.496040 8.957039 8.477712
v 2.102750 8.393039 7.926061
v 2.595240 9.469668 7.617881
v 2.552950 9.937598 8.988091
v 1.887400 10.709398 9.023692
v 1.250270 10.661098 9.297472
v 0.629115 10.549299 8.401321
v 1.755840 10.337298 7.903712
v 2.454050 10.135499 7.654731
v 2.235850 10.661899 6.859872
v 3.389100 9.498579 6.661161
v 2.230720 8.945808 6.661131
v 2.546180 8.262508 6.419041
v 3.291300 8.529679 5.310671
v 2.210230 7.277689 7.262621
v 2.342680 7.059289 6.294291
v 2.381160 6.133848 7.387341
v 1.642200 7.146268 8.499112
v 1.460500 5.780869 8.375472
v -0.000008 7.392368 8.960811
v -0.000008 6.098568 8.202941
v -0.000013 5.694559 6.381661
v 1.139730 7.626279 4.835561
v 2.520300 8.978609 4.168002
v 3.235780 10.441699 5.327342
v 2.449940 10.824698 5.574672
v 2.586800 10.066499 4.465491
v -2.520340 8.978579 4.168002
v -2.028520 7.644029 4.280521
v -1.139770 7.626269 4.835561
v -2.154580 9.405879 2.985002
v -2.586860 10.066399 4.465491
v -1.730010 11.945398 3.654082
v -1.958560 12.298799 5.773202
v -0.000029 10.643400 1.779362
v -1.730010 11.945398 3.654082
v 1.729950 11.945398 3.654082
v 2.154540 9.405909 2.985002
v -1.730010 11.945398 3.654082
v -2.154580 9.405879 2.985002
v 2.154540 9.405909 2.985002
v 2.520300 8.978609 4.168002
v 2.028480 7.644059 4.280521
v 2.586800 10.066499 4.465491
v 1.729950 11.945398 3.654082
v 1.958500 12.298799 5.773202
v 1.139730 7.626279 4.835561
v -2.230760 8.945768 6.661131
v -2.546220 8.262488 6.419071
v 2.230720 8.945808 6.661131
v -0.000022 8.737348 8.960421
v -2.102790 8.393009 7.926061
v -1.302380 8.235578 9.154350
v 2.102750 8.393039 7.926061
v 1.302340 8.235598 9.154350
v 2.546180 8.262508 6.419041
v 2.210230 7.277689 7.262621
v -2.210250 7.277679 7.262641
v -0.000011 7.623658 8.129241
v 1.642200 7.146268 8.499112
v -1.642220 7.146258 8.499131
v -2.342720 7.059269 6.294321
v -2.210250 7.277679 7.262641
v -2.381180 6.133829 7.387371
v -1.460520 5.780859 8.375491
v -1.642220 7.146258 8.499131
v -0.000042 14.208599 6.396692
v -0.000045 15.172699 3.676972
v -1.164130 12.407699 5.670372
v -0.000035 12.486399 7.079152
v 1.164070 12.407699 5.670372
v -1.696370 12.876499 3.957502
v -0.000038 13.289899 3.940702
v -0.000034 12.062099 -0.847371
v -1.164130 12.407699 5.670372
v 1.696290 12.876598 3.957512
v 1.164070 12.407699 5.670372
v -1.164130 12.407699 5.670372
v -0.000042 14.435299 4.606262
v -0.000039 13.634399 1.804282
v 1.164070 12.407699 5.670372
v 1.206080 11.876598 4.148602
v 1.696290 12.876598 3.957512
v 1.164070 12.407699 5.670372
v -0.000031 11.307098 3.420172
v -0.000034 12.062099 -0.847371
v -1.696370 12.876499 3.957502
v -1.206140 11.876598 4.148602
v -1.164130 12.407699 5.670372
v -0.000045 15.172699 3.676972
v 1.164070 12.407699 5.670372
v -1.164130 12.407699 5.670372
v 1.459410 12.076698 4.274072
v 1.825550 11.991699 5.729992
v 2.762460 12.964899 4.463932
v 3.395660 11.948599 4.181172
v 2.011600 10.896699 4.197292
v 2.207280 10.930698 5.355232
v 3.329090 12.690498 5.080482
v 3.660080 13.139998 4.424182
v 3.329090 12.690498 5.080482
v 3.124190 14.286698 5.439812
v 2.762460 12.964899 4.463932
v 1.336210 8.710108 9.126121
v 1.256640 7.571398 8.481891
v 2.004210 8.936049 8.176612
v 0.888897 8.796769 8.216482
v 1.469790 8.794799 8.197982
v 1.571180 7.999328 7.541741
v 2.068690 9.093399 7.438101
v 1.867910 9.177229 7.794501
v 1.806540 8.492179 6.867711
v 2.329020 9.512109 6.894121
v -1.459470 12.076698 4.274072
v -2.762540 12.964799 4.463932
v -1.825610 11.991699 5.729992
v -3.395720 11.948499 4.181172
v -2.011660 10.896699 4.197292
v -2.207340 10.930698 5.355232
v -3.329170 12.690399 5.080482
v -3.660160 13.139998 4.424182
v -3.329170 12.690399 5.080482
v -3.124270 14.286698 5.439802
v -2.762540 12.964799 4.463932
v -1.346850 12.601499 7.590232
v -1.720310 11.704799 7.567062
v -0.450646 11.476899 8.503622
v -2.086730 12.652799 6.884402
v -2.172730 11.451499 7.178542
v -2.455210 12.012098 6.241692
v -1.510820 12.057199 6.554432
v -0.438628 11.124399 8.381162
v -1.032150 11.295699 7.956702
v 1.346770 12.601499 7.590232
v 0.450582 11.476899 8.503622
v 1.720250 11.704899 7.567062
v 2.086650 12.652799 6.884402
v 2.172670 11.451499 7.178542
v 2.455150 12.012098 6.241692
v 1.510760 12.057299 6.554432
v 0.438566 11.124399 8.381162
v 1.032090 11.295798 7.956702
v -1.867950 9.177198 7.794501
v -2.329070 9.512079 6.894111
v -1.806580 8.492148 6.867711
v -1.469830 8.794779 8.197982
v -2.068730 9.093369 7.438101
v -1.571220 7.999309 7.541741
v -1.336250 8.710088 9.126121
v -2.004250 8.936019 8.176612
v -1.256680 7.571378 8.481891
v -0.888942 8.796759 8.216482
v 0.629115 10.549299 8.401321
v -0.000029 10.644599 8.235572
v 0.540567 11.140898 9.674492
v -0.540629 11.140898 9.674492
v -0.629173 10.549299 8.401321
v -2.586860 10.066399 4.465491
v -2.450000 10.824698 5.574672
v -2.235910 10.661899 6.859872
v -1.958560 12.298799 5.773202
v -2.450000 10.824698 5.574672
v -1.799620 11.926799 7.108352
v -0.000035 12.506799 7.412872
v -0.000036 12.755499 5.658222
v 1.958500 12.298799 5.773202
v 1.799560 11.926799 7.108352
v 2.235850 10.661899 6.859872
v 2.449940 10.824698 5.574672
v 2.586800 10.066499 4.465491
v -2.586860 10.066399 4.465491
v -1.958560 12.298799 5.773202
v -0.000036 12.755499 5.658222
v -1.730010 11.945398 3.654082
v -1.730010 11.945398 3.654082
v 1.729950 11.945398 3.654082
v 1.958500 12.298799 5.773202
v -0.000035 12.506799 7.412872
v -0.450647 11.749399 8.421122
v 0.450581 11.749399 8.421122
v -1.799620 11.926799 7.108352
v 1.799560 11.926799 7.108352
v -0.620111 10.440699 8.149542
v 0.620055 10.440699 8.149542
v -2.235910 10.661899 6.859872
v -1.755900 10.337298 7.903712
v -0.620111 10.440699 8.149542
v 2.235850 10.661899 6.859872
v 0.620055 10.440699 8.149542
v 1.755840 10.337298 7.903712
v -1.755900 10.337298 7.903712
v -0.000028 10.570799 8.730392
v -0.000030 10.929998 7.802132
v 1.755840 10.337298 7.903712
v 1.302340 8.235598 9.154350
v 0.351811 8.366258 9.436311
v -0.351852 8.366248 9.436311
v -1.302380 8.235578 9.154350
v 1.323730 8.020279 7.149961
v 1.383160 7.230179 7.207821
v 1.798700 7.766219 6.717811
v 1.038480 7.966218 7.718101
v 0.619972 7.275478 8.276570
v 1.546470 7.277578 7.529761
v -1.852480 8.157979 6.067331
v -1.421540 7.985849 6.589491
v -1.422800 8.660599 6.712881
v 1.422760 8.660609 6.712871
v 1.421500 7.985859 6.589471
v 1.852440 8.157999 6.067301
v -1.038500 7.966208 7.718121
v -1.546490 7.277568 7.529781
v -0.619992 7.275478 8.276582
v -1.323760 8.020268 7.149981
v -1.798740 7.766209 6.717831
v -1.383180 7.230169 7.207841
v -0.000011 7.623658 8.129241
v 2.816650 -0.299881 -1.438670
v 3.896920 2.015650 -1.563280
v 4.298540 0.458260 0.059896
v 3.436980 -0.939705 0.477529
v 1.936580 -1.632830 0.212709
v 2.456600 -1.236120 1.600350
v 4.917680 0.805937 2.461720
v 4.701800 2.289530 0.728627
v 4.605540 2.306129 3.874210
v 3.228870 0.233254 4.672800
v 2.951360 -1.578710 3.341490
v 2.456600 -1.236120 1.600350
v 1.563190 -1.951680 2.308360
v 2.984710 -1.879680 3.956720
v 3.403610 -0.415400 6.043420
v 3.097540 0.410068 7.056840
v 1.802860 1.145479 5.257630
v 1.781890 0.754082 7.400420
v 0.512657 0.410071 7.056830
v 0.385143 -0.844189 4.003950
v 0.665446 0.256975 2.401400
v 2.491900 2.391799 5.025661
v 3.232530 3.536399 4.139990
v 3.896920 2.015650 -1.563280
v 2.816650 -0.299881 -1.438670
v -0.000001 2.999561 -4.358729
v 0.000002 -0.692468 -1.855990
v -2.816650 -0.299874 -1.438690
v -3.896920 2.015590 -1.563280
v -1.936580 -1.632830 0.212693
v -0.000002 -1.632830 0.212701
v 1.936580 -1.632830 0.212709
v 3.896920 2.015650 -1.563280
v 4.481980 6.538700 -0.318363
v -2.816650 -0.299874 -1.438690
v -4.298540 0.458271 0.059860
v -3.896920 2.015590 -1.563280
v -3.436980 -0.939696 0.477501
v -1.936580 -1.632830 0.212693
v -2.456610 -1.236120 1.600330
v -4.917700 0.805950 2.461680
v -4.701800 2.289540 0.728587
v -4.605560 2.306139 3.874170
v -3.228890 0.233263 4.672770
v -2.951380 -1.578700 3.341470
v -2.456610 -1.236120 1.600330
v -1.563210 -1.951680 2.308340
v -2.984730 -1.879680 3.956700
v -3.403630 -0.415391 6.043390
v -3.097580 0.410076 7.056820
v -1.802880 1.145489 5.257610
v -1.781930 0.754087 7.400410
v -0.512689 0.410073 7.056830
v -0.385163 -0.844188 4.003950
v -0.665458 0.256977 2.401400
v -2.491920 2.391809 5.025640
v -3.232550 3.536399 4.139970
v 0.665446 0.256975 2.401400
v 0.385143 -0.844189 4.003950
v 1.556100 -2.512140 3.027719
v 0.352885 -1.879680 3.956710
v -0.000006 -1.714190 1.774350
v 1.936580 -1.632830 0.212709
v 2.456600 -1.236120 1.600350
v 0.665446 0.256975 2.401400
v -0.000005 -0.311461 1.701260
v 0.778521 2.072970 0.614121
v -0.665458 0.256977 2.401400
v -0.778523 2.072970 0.614114
v -2.456610 -1.236120 1.600330
v -1.936580 -1.632830 0.212693
v 1.556100 -2.512140 3.027719
v 3.403610 -0.415400 6.043420
v 0.248756 -0.415401 6.043410
v 2.984710 -1.879680 3.956720
v 3.097540 0.410068 7.056840
v 0.512657 0.410071 7.056830
v 1.781890 0.754082 7.400420
v 0.248756 -0.415401 6.043410
v 0.352885 -1.879680 3.956710
v 0.352885 -1.879680 3.956710
v -0.000006 -1.714190 1.774350
v -0.000002 -1.632830 0.212701
v 1.936580 -1.632830 0.212709
v -1.936580 -1.632830 0.212693
v 0.778521 2.072970 0.614121
v 2.680310 4.445700 0.789803
v -0.665458 0.256977 2.401400
v -0.385163 -0.844188 4.003950
v -1.556120 -2.512130 3.027709
v -0.352907 -1.879680 3.956710
v -1.556120 -2.512130 3.027709
v -0.248784 -0.415401 6.043410
v -3.403630 -0.415391 6.043390
v -2.984730 -1.879680 3.956700
v -0.352907 -1.879680 3.956710
v -3.097580 0.410076 7.056820
v -0.512689 0.410073 7.056830
v -1.781930 0.754087 7.400410
v -0.248784 -0.415401 6.043410
v -0.352907 -1.879680 3.956710
v -0.778523 2.072970 0.614114
v -2.680310 4.445710 0.789781
vt 0.627639 0.384106
vt 0.692438 0.358719
vt 0.627639 0.331657
vt 0.627639 0.383353
vt 0.692438 0.358719
vt 0.627639 0.331657
vt 0.627639 0.383353
vt 0.627639 0.331657
vt 0.692438 0.358719
vt 0.627639 0.384106
vt 0.627639 0.331657
vt 0.692438 0.358719
vt 0.690934 0.359149
vt 0.627639 0.385745
vt 0.627639 0.332703
vt 0.687570 0.359550
vt 0.629830 0.387579
vt 0.629830 0.332852
vt 0.627639 0.332703
vt 0.627639 0.385745
vt 0.690934 0.359149
vt 0.690934 0.359149
vt 0.627639 0.385745
vt 0.627639 0.332703
vt 0.687570 0.359550
vt 0.629830 0.332852
vt 0.629830 0.387579
vt 0.690934 0.359149
vt 0.627639 0.332703
vt 0.627639 0.385745
vt 0.403343 0.623870
vt 0.337737 0.578520
vt 0.336090 0.497534
vt 0.477865 0.497600
vt 0.410755 0.399155
vt 0.307028 0.420953
vt 0.468683 0.405868
vt 0.447052 0.620815
vt 0.539324 0.044769
vt 0.509288 0.041169
vt 0.541752 0.029884
vt 0.497766 0.078878
vt 0.540512 0.094192
vt 0.556075 0.043474
vt 0.587464 0.061490
vt 0.574053 0.096301
vt 0.607787 0.188165
vt 0.574385 0.147920
vt 0.607095 0.153062
vt 0.568322 0.175354
vt 0.566010 0.142413
vt 0.583768 0.121795
vt 0.532735 0.137957
vt 0.521819 0.178363
vt 0.543517 0.231881
vt 0.499988 0.186786
vt 0.505174 0.233014
vt 0.505622 0.143696
vt 0.502774 0.054094
vt 0.537917 0.084163
vt 0.537406 0.041801
vt 0.561332 0.083891
vt 0.575922 0.057281
vt 0.497559 0.256719
vt 0.518693 0.232385
vt 0.543271 0.272567
vt 0.565371 0.248620
vt 0.600474 0.248062
vt 0.284176 0.277899
vt 0.284176 0.158846
vt 0.377267 0.277899
vt 0.200170 0.277899
vt 0.200685 0.158846
vt 0.088638 0.277899
vt 0.088638 0.145713
vt -0.013245 0.277899
vt -0.013245 0.171264
vt -0.013245 0.134183
vt -0.013245 0.001804
vt 0.088638 0.026134
vt 0.200685 0.132388
vt 0.200685 0.000406
vt 0.284176 0.132388
vt 0.284176 0.000406
vt 0.377267 0.145713
vt 0.377267 0.001804
vt 0.480790 0.001804
vt 0.480790 0.134183
vt 0.480790 0.171264
vt 0.480790 0.277899
vt 0.284176 0.188668
vt 0.284176 0.104303
vt 0.200685 0.188668
vt 0.200685 0.104303
vt 0.073253 0.276056
vt 0.057391 0.276056
vt 0.055843 0.271124
vt 0.074846 0.271465
vt 0.065616 0.269430
vt 0.587651 0.225458
vt 0.189637 0.571481
vt 0.198433 0.595664
vt 0.183827 0.600443
vt 0.223342 0.532565
vt 0.227744 0.547734
vt 0.264002 0.595569
vt 0.223342 0.532565
vt 0.266928 0.590518
vt 0.257017 0.462865
vt 0.145656 0.450566
vt 0.223342 0.532565
vt 0.045439 0.323367
vt 0.000872 0.432706
vt 0.145656 0.450566
vt 0.257017 0.462865
vt 0.223342 0.532565
vt 0.266928 0.590518
vt 0.285585 0.440063
vt 0.266928 0.590518
vt 0.223342 0.532565
vt 0.264002 0.595569
vt 0.227744 0.547734
vt 0.223342 0.532565
vt 0.198433 0.595664
vt 0.189637 0.571481
vt 0.129858 0.577396
vt 0.000879 0.554021
vt 0.000888 0.640949
vt 0.129858 0.577396
vt 0.183827 0.600443
vt 0.200099 0.665079
vt 0.091729 0.671280
vt 0.221773 0.663839
vt 0.397838 0.430414
vt 0.406512 0.569413
vt 0.386931 0.432680
vt 0.392498 0.573934
vt 0.318018 0.519896
vt 0.392498 0.573934
vt 0.326836 0.673182
vt 0.346774 0.368127
vt 0.386931 0.432680
vt 0.420441 0.647510
vt 0.392498 0.573934
vt 0.404840 0.651789
vt 0.679341 0.612292
vt 0.662077 0.412314
vt 0.716943 0.409518
vt 0.830867 0.550935
vt 0.838387 0.680405
vt 0.710103 0.766375
vt 0.656142 0.762109
vt 0.755751 0.993458
vt 0.811628 0.969746
vt 0.999640 0.973842
vt 0.999640 1.041370
vt 1.243530 0.993458
vt 1.187650 0.969746
vt 0.999640 0.902102
vt 0.999640 0.830362
vt 0.999640 0.682219
vt 0.999640 0.540288
vt 1.160890 0.680405
vt 1.289170 0.766375
vt 1.319940 0.612292
vt 1.168410 0.550935
vt 0.999639 0.378851
vt 0.838321 0.411463
vt 0.843809 0.348617
vt 0.856750 0.292099
vt 0.805894 0.287572
vt 0.999638 0.260965
vt 0.999639 0.314146
vt 1.160950 0.411463
vt 1.282330 0.409518
vt 1.337200 0.412314
vt 1.343130 0.762109
vt 1.142530 0.292099
vt 1.193380 0.287572
vt 1.155470 0.348617
vt 1.343130 0.762109
vt 0.634434 0.690330
vt 0.634434 0.690330
vt 0.634434 0.690330
vt 0.634434 0.690330
vt 0.634434 0.690330
vt 1.015470 0.267815
vt 1.000680 0.255287
vt 0.984294 0.267815
vt 0.656142 0.762109
vt 1.060600 -0.012824
vt 1.000270 0.138608
vt 1.000270 -0.012824
vt 1.000270 -0.012824
vt 0.939934 -0.009105
vt 1.000270 0.138608
vt 1.000270 -0.012148
vt 1.000270 -0.012148
vt 1.060600 -0.020938
vt 1.000270 -0.027361
vt 1.000270 0.138608
vt 1.060600 -0.020262
vt 0.939934 -0.012824
vt 1.000270 -0.027361
vt 1.000270 -0.036489
vt 1.000270 0.138608
vt 1.060600 -0.029728
vt 0.939934 -0.029728
vt 1.000270 -0.036489
vt 0.939934 -0.018045
vt 1.000270 -0.024689
vt 1.000270 0.138608
vt 1.000270 -0.024689
vt 0.939934 -0.012824
vt 1.000270 -0.020892
vt 1.000270 0.138608
vt 1.000270 -0.020892
vt 1.060600 -0.020892
vt 0.939934 -0.012824
vt 1.000270 -0.012824
vt 1.000270 0.138608
vt 1.000270 -0.012824
vt 1.060600 -0.012824
vt 0.939934 -0.009105
vt 1.000270 -0.012148
vt 1.000270 0.138608
vt 1.000270 -0.012148
vt 1.060600 -0.020938
vt 1.000270 -0.027361
vt 1.060600 -0.020262
vt 1.000270 0.138608
vt 0.939934 -0.012824
vt 1.000270 -0.027361
vt 1.000270 -0.036489
vt 1.060600 -0.029728
vt 1.000270 0.138608
vt 0.939934 -0.029728
vt 1.000270 -0.036489
vt -0.132903 0.000195
vt -0.132903 0.073751
vt -0.013394 0.000195
vt -0.013394 0.073751
vt 0.124550 0.000195
vt 0.124547 0.073751
vt 0.262519 0.000195
vt 0.262519 0.073751
vt 0.381029 0.000195
vt 0.381029 0.073751
vt 0.315947 0.015754
vt 0.318586 0.005173
vt 0.322470 0.020715
vt 0.336392 0.012788
vt 0.330720 0.022072
vt 0.330085 0.002908
vt 0.183827 0.600443
vt 0.291812 0.679061
vt 0.266928 0.590518
vt 0.285585 0.440063
vt 0.318018 0.519896
vt 0.326836 0.673182
vt 0.392498 0.573934
vt 0.386931 0.432680
vt 0.392498 0.573934
vt 0.406512 0.569413
vt 0.397838 0.430414
vt 0.392498 0.573934
vt 0.420441 0.647510
vt 0.404840 0.651789
vt 0.091729 0.671280
vt 0.183827 0.600443
vt 0.183827 0.600443
vt 0.183827 0.600443
vt 0.200099 0.665079
vt 0.221773 0.663839
vt 0.291812 0.679061
vt 0.285585 0.440063
vt 0.266928 0.590518
vt 0.346774 0.368127
vt 0.386931 0.432680
vt 0.200685 0.132388
vt 0.088638 0.026134
vt 0.088638 0.145713
vt 0.200685 0.000406
vt 0.284176 0.132388
vt 0.284176 0.000406
vt 0.377267 0.145713
vt 0.377267 0.001804
vt 0.480790 0.001804
vt 0.480790 0.134183
vt 0.480790 0.171264
vt 0.480790 0.277899
vt 0.377267 0.277899
vt 0.284176 0.158846
vt 0.284176 0.277899
vt 0.200170 0.277899
vt 0.200685 0.158846
vt 0.088638 0.277899
vt -0.013245 0.277899
vt -0.013245 0.171264
vt -0.013245 0.134183
vt -0.013245 0.001804
vt 0.200685 0.188668
vt 0.200685 0.104303
vt 0.284176 0.104303
vt 0.284176 0.188668
vt 0.403343 0.623870
vt 0.336090 0.497534
vt 0.337737 0.578520
vt 0.477865 0.497600
vt 0.410755 0.399155
vt 0.307028 0.420953
vt 0.468683 0.405868
vt 0.447052 0.620815
vt 0.539324 0.044769
vt 0.541752 0.029884
vt 0.509288 0.041169
vt 0.497766 0.078878
vt 0.540512 0.094192
vt 0.556075 0.043474
vt 0.587464 0.061490
vt 0.574053 0.096301
vt 0.607787 0.188165
vt 0.607095 0.153062
vt 0.574385 0.147920
vt 0.568322 0.175354
vt 0.566010 0.142413
vt 0.583768 0.121795
vt 0.532735 0.137957
vt 0.521819 0.178363
vt 0.543517 0.231881
vt 0.499988 0.186786
vt 0.505174 0.233014
vt 0.587651 0.225458
vt 0.502774 0.054094
vt 0.537406 0.041801
vt 0.537917 0.084163
vt 0.561332 0.083891
vt 0.575922 0.057281
vt 0.497559 0.270148
vt 0.543271 0.289804
vt 0.518693 0.239967
vt 0.565371 0.260103
vt 0.600474 0.259411
vt 0.073253 0.276056
vt 0.055843 0.271124
vt 0.057391 0.276056
vt 0.074846 0.271465
vt 0.065616 0.269430
vt 0.505622 0.143696
vt 0.312056 0.889000
vt 0.278502 0.804321
vt 0.246531 0.841087
vt 0.247414 0.924842
vt 0.215192 0.896382
vt 0.188308 0.837305
vt 0.174952 0.878333
vt 0.142151 0.890819
vt 0.132032 0.923329
vt 0.168992 0.969301
vt 0.124574 0.956390
vt 0.101400 0.929070
vt 0.108894 0.969688
vt 0.076384 0.959995
vt 0.043523 0.937108
vt 0.042129 0.983882
vt 0.001946 0.960304
vt 0.000729 0.899499
vt 0.043523 0.937108
vt 0.000727 0.862016
vt 0.083767 0.873009
vt 0.103757 0.897250
vt 0.107072 0.863000
vt 0.140435 0.825813
vt 0.032227 0.818403
vt 0.009476 0.819646
vt 0.000724 0.855175
vt 0.009476 0.819646
vt 0.032213 0.818403
vt 0.083767 0.873009
vt 0.107072 0.863000
vt 0.140435 0.825813
vt 0.142151 0.890819
vt 0.103757 0.897250
vt 0.101400 0.929070
vt 0.076384 0.959995
vt 0.108894 0.969688
vt 0.124574 0.956390
vt 0.132032 0.923329
vt 0.168992 0.969301
vt 0.215192 0.896382
vt 0.174952 0.878333
vt 0.188308 0.837305
vt 0.246531 0.841087
vt 0.174886 0.787395
vt 0.230427 0.786093
vt 0.195851 0.737084
vt 0.144094 0.771172
vt 0.154060 0.713992
vt 0.085140 0.760350
vt 0.119602 0.693997
vt 0.250878 0.702776
vt 0.278502 0.804321
vt 0.312056 0.889000
vt 0.247414 0.924842
vt 0.216881 0.976036
vt 0.293938 0.947734
vt 0.349108 0.831372
vt 0.316041 0.797117
vt 0.317279 0.866025
vt 0.373506 0.779294
vt 0.449915 0.868654
vt 0.546677 0.693213
vt 0.638412 0.828101
vt 0.458131 0.698437
vt 0.358300 0.871720
vt 0.557204 0.871720
vt 0.634552 0.741583
vt 0.557204 0.871720
vt 0.634552 0.741583
vt 0.373506 0.779294
vt 0.349108 0.831372
vt 0.316041 0.797117
vt 0.449915 0.868654
vt 0.546677 0.714036
vt 0.638412 0.828101
vt 0.317279 0.866025
vt 0.904058 0.206324
vt 0.889205 0.200353
vt 1.096210 0.206333
vt 1.000130 0.239559
vt 0.919964 0.222940
vt 0.935870 0.239555
vt 1.080310 0.222947
vt 1.064400 0.239562
vt 1.111070 0.200363
vt 1.086380 0.165122
vt 0.913899 0.165113
vt 1.000140 0.147448
vt 1.072840 0.143051
vt 0.927438 0.143044
vt 0.230427 0.786093
vt 0.174886 0.787395
vt 0.195851 0.737084
vt 0.154060 0.713992
vt 0.144094 0.771172
vt 0.723035 0.128222
vt 0.829804 0.251002
vt 0.805369 0.022010
vt 0.680303 -0.010127
vt 0.805369 0.022010
vt 0.798224 0.074345
vt 0.707224 0.122103
vt 0.831736 0.255645
vt 0.698505 0.025320
vt 0.798224 0.074345
vt 0.698505 0.025320
vt 0.806005 0.022017
vt 0.726770 0.095688
vt 0.851854 0.236666
vt 0.806005 0.022017
vt 0.738076 -0.011438
vt 0.711440 0.095454
vt 0.666450 -0.002055
vt 0.800700 0.003416
vt 0.769659 0.174084
vt 0.711440 0.095454
vt 0.738076 -0.011438
vt 0.666450 -0.002055
vt 0.763299 0.132971
vt 0.799155 0.011085
vt 0.682648 0.004800
vt 1.066150 -0.006820
vt 0.990224 -0.006820
vt 1.036550 0.088068
vt 1.002560 0.086202
vt 1.000630 -0.006820
vt 0.936840 -0.006820
vt 0.974070 0.091514
vt 1.006030 0.114226
vt 0.985726 0.111676
vt 1.006720 0.136081
vt 1.026710 0.112443
vt 0.627639 0.358500
vt 0.692438 0.358719
vt 0.627639 0.331657
vt 0.627639 0.386995
vt 1.066150 -0.013234
vt 1.036550 0.088068
vt 0.990224 -0.013234
vt 1.002560 0.086202
vt 1.000630 -0.013234
vt 0.936840 -0.013234
vt 0.974070 0.091514
vt 1.006030 0.114226
vt 0.985726 0.111676
vt 1.006720 0.136081
vt 1.026710 0.112443
vt 0.624289 0.214945
vt 0.699555 0.191367
vt 0.633415 0.093096
vt 0.645873 0.301965
vt 0.748095 0.237669
vt 0.722772 0.326435
vt 0.675257 0.212689
vt 0.660138 0.091309
vt 0.689060 0.136472
vt 0.624289 0.214945
vt 0.633415 0.093096
vt 0.699555 0.191367
vt 0.645873 0.301965
vt 0.748095 0.237669
vt 0.722772 0.326435
vt 0.675257 0.212689
vt 0.660138 0.091309
vt 0.689060 0.136472
vt 0.627639 0.358500
vt 0.627639 0.331657
vt 0.692438 0.358719
vt 0.627639 0.386995
vt 0.114361 0.999610
vt 0.000734 1.010510
vt 0.042129 0.983882
vt -0.036565 0.983882
vt 0.114361 0.999610
vt 0.293938 0.947734
vt 0.216881 0.976036
vt 0.394617 1.299820
vt 0.509652 1.155690
vt 0.395834 1.155030
vt 0.504775 1.295160
vt 0.622761 1.285140
vt 0.625998 1.125390
vt 0.509652 1.155690
vt 0.504775 1.295160
vt 0.394617 1.299820
vt 0.395834 1.155030
vt 0.320509 1.085100
vt 0.320509 1.085100
vt 0.652787 1.192620
vt 0.472553 1.170180
vt 0.611958 1.293360
vt 0.321546 1.293360
vt 0.611958 1.293360
vt 0.652787 1.192620
vt 0.715228 1.000840
vt 0.649253 1.055910
vt 0.649253 0.946134
vt 0.691227 1.119070
vt 0.691227 0.882608
vt 0.550492 1.086550
vt 0.550492 0.915268
vt 0.482773 1.111380
vt 0.410831 1.112250
vt 0.385970 1.039570
vt 0.482773 0.892598
vt 0.385970 0.964417
vt 0.410831 0.891728
vt 0.410831 1.112250
vt 0.327626 1.001990
vt 0.405695 1.001990
vt 0.410831 0.891728
vt 0.024446 0.808417
vt 0.004228 0.816810
vt 0.004228 0.816810
vt 0.024446 0.808417
vt 0.119620 0.824240
vt 0.539129 0.676548
vt 0.495186 0.681657
vt 0.484325 0.631382
vt 0.527240 0.597964
vt 0.573684 0.621568
vt 0.542680 0.544355
vt 0.477268 0.517340
vt 0.419362 0.673642
vt 0.438672 0.515933
vt 0.437177 0.365151
vt 0.489354 0.354879
vt 0.542680 0.450173
vt 0.542192 0.352660
vt 0.489600 0.283600
vt 0.436428 0.291204
vt 0.416546 0.289614
vt 0.375482 0.371621
vt 0.379456 0.284250
vt 0.346402 0.288879
vt 0.303281 0.354879
vt 0.297620 0.563682
vt 0.378657 0.507983
vt 0.378310 0.538234
vt 0.470800 0.656906
vt 0.411052 0.625149
vt 0.470800 0.518108
vt 0.402457 0.518108
vt 0.411052 0.625149
vt 0.470800 0.656906
vt 0.351303 0.610855
vt 0.351303 0.518108
vt 0.351303 0.610855
vt 0.285585 0.440063
vt 0.266928 0.590518
vt 0.539129 0.676548
vt 0.484325 0.631382
vt 0.495186 0.681657
vt 0.527240 0.597964
vt 0.573684 0.621568
vt 0.542680 0.544355
vt 0.477268 0.517340
vt 0.419362 0.673642
vt 0.438672 0.515933
vt 0.437177 0.365151
vt 0.489354 0.354879
vt 0.542680 0.450173
vt 0.542192 0.352660
vt 0.489600 0.283600
vt 0.436428 0.291204
vt 0.416546 0.289614
vt 0.375482 0.371621
vt 0.379456 0.284250
vt 0.346402 0.288879
vt 0.303281 0.354879
vt 0.297620 0.563682
vt 0.378657 0.507983
vt 0.378310 0.538234
vt 0.617403 0.511815
vt 0.604871 0.354879
vt 0.542216 0.283600
vt 0.600479 0.283600
vt 0.385955 0.530195
vt 0.423008 0.466467
vt 0.447598 0.538774
vt 0.408688 0.574902
vt 0.385955 0.566082
vt 0.422781 0.648466
vt 0.408688 0.574902
vt 0.422781 0.648466
vt 0.447598 0.538774
vt 0.423008 0.466467
vt 0.127715 0.338900
vt 0.221024 0.398370
vt 0.221024 0.287093
vt 0.148478 0.393096
vt 0.280937 0.382553
vt 0.280937 0.295189
vt 0.286633 0.341653
vt 0.328986 0.294372
vt 0.302558 0.294372
vt 0.143310 0.289247
vt 0.000842 0.297334
vt 0.000836 0.333271
vt 0.097714 0.333265
vt 0.097714 0.333265
vt 0.300766 0.642475
vt 0.375324 0.653931
vt 0.617403 0.511815
vt 0.604871 0.354879
vt 0.542216 0.283600
vt 0.600479 0.283600
vt 0.127715 0.338900
vt 0.221024 0.287093
vt 0.221024 0.398370
vt 0.148478 0.393096
vt 0.143310 0.289247
vt 0.280937 0.382553
vt 0.280937 0.295189
vt 0.286633 0.341653
vt 0.328986 0.294372
vt 0.302558 0.294372
vt 0.300766 0.642475
vt 0.375324 0.653931
usemtl mat_bw_body.002
s off
f 457/1 458/2 459/3
f 460/4 461/5 462/6
f 492/7 493/8 494/9
f 495/10 496/11 497/12
f 548/13 549/14 550/15
f 551/16 552/17 553/18
f 554/19 555/20 556/21
f 557/22 558/23 559/24
f 560/25 561/26 562/27
f 563/28 564/29 565/30
s 1
f 1/31 2/32 3/33
f 4/34 1/31 3/33
f 3/33 5/35 4/34
f 5/35 3/33 6/36
f 5/35 7/37 4/34
f 1/31 4/34 8/38
f 9/39 10/40 11/41
f 12/42 10/40 9/39
f 13/43 12/42 9/39
f 14/44 13/43 9/39
f 15/45 13/43 14/44
f 16/46 13/43 15/45
f 17/47 18/48 19/49
f 18/48 17/47 20/50
f 18/48 20/50 21/51
f 21/51 22/52 18/48
f 20/50 23/53 21/51
f 20/50 24/54 23/53
f 25/55 24/54 20/50
f 26/56 23/53 24/54
f 25/55 26/56 24/54
f 27/57 26/56 25/55
f 26/56 28/58 23/53
f 29/59 30/60 31/61
f 30/60 32/62 31/61
f 31/61 32/62 33/63
f 34/64 35/65 36/66
f 35/65 37/67 36/66
f 38/68 36/66 37/67
f 39/69 40/70 41/71
f 39/69 42/72 40/70
f 42/72 43/73 40/70
f 42/72 44/74 43/73
f 44/74 45/75 43/73
f 46/76 45/75 44/74
f 46/76 47/77 45/75
f 47/77 48/78 45/75
f 45/75 48/78 49/79
f 45/75 49/79 50/80
f 51/81 45/75 50/80
f 51/81 50/80 52/82
f 52/82 53/83 51/81
f 52/82 54/84 53/83
f 55/85 53/83 54/84
f 40/70 55/85 41/71
f 55/85 54/84 56/86
f 57/87 55/85 56/86
f 58/88 55/85 57/87
f 59/89 55/85 58/88
f 60/90 41/71 55/85
f 60/90 55/85 59/89
f 61/91 62/92 55/85
f 61/91 63/93 62/92
f 63/93 45/75 64/94
f 63/93 64/94 62/92
f 65/95 66/96 67/97
f 68/98 65/95 67/97
f 68/98 67/97 69/99
f 17/47 70/100 20/50
f 70/100 25/55 20/50
f 71/101 72/102 73/103
f 72/102 71/101 74/104
f 75/105 72/102 74/104
f 76/106 75/105 77/107
f 78/108 76/106 77/107
f 78/108 77/107 79/109
f 74/104 71/101 80/110
f 81/111 80/110 79/109
f 80/110 82/112 79/109
f 82/112 80/110 83/113
f 82/112 83/113 84/114
f 84/114 85/115 82/112
f 86/116 85/115 84/114
f 85/115 87/117 88/118
f 89/119 85/115 90/120
f 89/119 90/120 91/121
f 90/120 92/122 91/121
f 92/122 93/123 94/124
f 93/123 84/114 95/125
f 93/123 95/125 94/124
f 84/114 96/126 95/125
f 83/113 97/127 84/114
f 83/113 80/110 97/127
f 97/127 96/126 84/114
f 97/127 98/128 96/126
f 80/110 71/101 99/129
f 71/101 73/103 99/129
f 97/127 99/129 98/128
f 97/127 80/110 99/129
f 100/130 72/102 101/131
f 99/129 102/132 98/128
f 100/130 101/131 102/132
f 72/102 103/133 101/131
f 104/134 105/135 106/136
f 105/135 107/137 106/136
f 106/136 107/137 108/138
f 108/138 109/139 110/140
f 111/141 112/142 108/138
f 105/135 113/143 114/144
f 114/144 115/145 110/140
f 113/143 115/145 114/144
f 116/146 117/147 118/148
f 116/146 118/148 119/149
f 116/146 119/149 120/150
f 116/146 120/150 121/151
f 122/152 116/146 121/151
f 122/152 121/151 123/153
f 123/153 121/151 124/154
f 123/153 124/154 125/155
f 126/156 123/153 125/155
f 126/156 125/155 127/157
f 125/155 128/158 127/157
f 129/159 125/155 124/154
f 129/159 128/158 125/155
f 121/151 129/159 124/154
f 120/150 130/160 121/151
f 121/151 130/160 129/159
f 120/150 131/161 130/160
f 120/150 119/149 132/162
f 131/161 120/150 132/162
f 131/161 132/162 133/163
f 133/163 130/160 131/161
f 134/164 129/159 130/160
f 133/163 134/164 130/160
f 134/164 128/158 129/159
f 127/157 128/158 134/164
f 133/163 135/165 134/164
f 132/162 136/166 133/163
f 133/163 136/166 135/165
f 132/162 137/167 136/166
f 132/162 119/149 137/167
f 118/148 138/168 119/149
f 119/149 138/168 137/167
f 118/148 139/169 138/168
f 140/170 118/148 117/147
f 118/148 140/170 139/169
f 140/170 117/147 141/171
f 139/169 140/170 142/172
f 142/172 140/170 141/171
f 137/167 138/168 143/173
f 143/173 139/169 142/172
f 138/168 139/169 143/173
f 137/167 144/174 136/166
f 137/167 143/173 144/174
f 136/166 144/174 145/175
f 135/165 136/166 145/175
f 146/176 135/165 145/175
f 146/176 147/177 135/165
f 146/176 145/175 148/178
f 143/173 142/172 148/178
f 142/172 149/179 148/178
f 146/176 148/178 149/179
f 150/180 143/173 148/178
f 145/175 144/174 150/180
f 143/173 150/180 144/174
f 145/175 150/180 148/178
f 135/165 151/181 134/164
f 151/181 127/157 134/164
f 152/182 153/183 154/184
f 154/184 155/185 156/186
f 157/187 158/188 159/189
f 160/190 117/147 116/146
f 161/191 162/192 163/193
f 161/191 164/194 162/192
f 162/192 164/194 163/193
f 165/195 166/196 167/197
f 168/198 166/196 165/195
f 168/198 169/199 166/196
f 167/197 166/196 169/199
f 170/200 171/201 172/202
f 173/203 171/201 170/200
f 173/203 174/204 171/201
f 172/202 171/201 174/204
f 175/205 176/206 177/207
f 178/208 176/206 175/205
f 178/208 179/209 176/206
f 177/207 176/206 179/209
f 180/210 181/211 182/212
f 181/211 183/213 182/212
f 180/210 182/212 183/213
f 184/214 185/215 186/216
f 184/214 186/216 187/217
f 188/218 186/216 185/215
f 188/218 187/217 186/216
f 189/219 190/220 191/221
f 189/219 191/221 192/222
f 193/223 192/222 191/221
f 193/223 191/221 190/220
f 194/224 195/225 196/226
f 197/227 194/224 196/226
f 195/225 198/228 196/226
f 197/227 196/226 198/228
f 199/229 200/230 201/231
f 202/232 199/229 201/231
f 202/232 201/231 203/233
f 200/230 203/233 201/231
f 204/234 205/235 206/236
f 207/237 204/234 206/236
f 207/237 206/236 208/238
f 205/235 208/238 206/236
f 209/239 210/240 211/241
f 210/240 212/242 211/241
f 211/241 212/242 213/243
f 212/242 214/244 213/243
f 213/243 214/244 215/245
f 214/244 216/246 215/245
f 215/245 216/246 217/247
f 216/246 218/248 217/247
f 219/249 220/250 221/251
f 221/251 220/250 222/252
f 221/251 222/252 223/253
f 222/252 220/250 224/254
f 225/255 102/132 99/129
f 226/256 227/257 228/258
f 229/259 230/260 231/261
f 232/262 229/259 233/263
f 232/262 233/263 234/264
f 235/265 232/262 234/264
f 234/264 236/266 237/267
f 236/266 238/268 237/267
f 236/266 230/260 238/268
f 96/126 98/128 239/269
f 240/270 96/126 239/269
f 96/126 241/271 95/125
f 95/125 241/271 94/124
f 242/272 243/273 94/124
f 242/272 239/269 243/273
f 243/273 244/274 94/124
f 245/275 246/276 247/277
f 248/278 229/259 249/279
f 250/280 251/281 252/282
f 250/280 253/283 251/281
f 253/283 250/280 254/284
f 253/283 254/284 255/285
f 256/286 255/285 254/284
f 256/286 257/287 255/285
f 258/288 257/287 256/286
f 259/289 258/288 256/286
f 260/290 259/289 256/286
f 261/291 260/290 256/286
f 261/291 256/286 262/292
f 262/292 256/286 263/293
f 264/294 262/292 263/293
f 264/294 263/293 265/295
f 263/293 266/296 265/295
f 265/295 266/296 267/297
f 266/296 252/282 267/297
f 268/298 267/297 252/282
f 268/298 252/282 269/299
f 269/299 252/282 270/300
f 252/282 251/281 271/301
f 252/282 271/301 270/300
f 272/302 273/303 252/282
f 274/304 273/303 272/302
f 275/305 256/286 274/304
f 275/305 274/304 272/302
f 276/306 277/307 278/308
f 279/309 277/307 276/306
f 277/307 279/309 280/310
f 280/310 281/311 277/307
f 280/310 279/309 282/312
f 276/306 283/313 279/309
f 284/314 285/315 286/316
f 287/317 284/314 286/316
f 288/318 284/314 287/317
f 289/319 284/314 288/318
f 290/320 289/319 288/318
f 291/321 290/320 288/318
f 292/322 293/323 294/324
f 294/324 295/325 292/322
f 294/324 296/326 295/325
f 296/326 294/324 297/327
f 295/325 296/326 298/328
f 295/325 298/328 299/329
f 300/330 295/325 299/329
f 300/330 299/329 301/331
f 301/331 299/329 298/328
f 302/332 300/330 301/331
f 303/333 295/325 300/330
f 292/322 295/325 303/333
f 304/334 305/335 306/336
f 306/336 305/335 307/337
f 307/337 305/335 308/338
f 309/339 310/340 311/341
f 311/341 310/340 312/342
f 313/343 312/342 310/340
f 314/344 315/345 316/346
f 317/347 315/345 314/344
f 317/347 318/348 315/345
f 301/331 298/328 319/349
f 320/350 321/351 322/352
f 323/353 320/350 322/352
f 322/352 324/354 323/353
f 325/355 324/354 322/352
f 325/355 326/356 324/354
f 324/354 326/356 327/357
f 328/358 324/354 327/357
f 324/354 329/359 323/353
f 328/358 329/359 324/354
f 329/359 328/358 330/360
f 330/360 328/358 331/361
f 331/361 332/362 330/360
f 333/363 332/362 331/361
f 334/364 333/363 331/361
f 335/365 333/363 334/364
f 336/366 335/365 334/364
f 336/366 334/364 337/367
f 338/368 336/366 337/367
f 334/364 339/369 337/367
f 339/369 338/368 337/367
f 334/364 340/370 339/369
f 331/361 341/371 334/364
f 328/358 341/371 331/361
f 327/357 341/371 328/358
f 341/371 340/370 334/364
f 327/357 342/372 341/371
f 341/371 342/372 340/370
f 343/373 342/372 327/357
f 326/356 343/373 327/357
f 344/374 339/369 340/370
f 344/374 340/370 342/372
f 344/374 342/372 343/373
f 339/369 344/374 345/375
f 339/369 345/375 346/376
f 339/369 346/376 347/377
f 339/369 347/377 348/378
f 349/379 338/368 339/369
f 348/378 349/379 339/369
f 348/378 350/380 349/379
f 348/378 351/381 350/380
f 350/380 351/381 352/382
f 353/383 350/380 352/382
f 353/383 349/379 350/380
f 353/383 338/368 349/379
f 354/384 338/368 353/383
f 354/384 355/385 338/368
f 354/384 356/386 355/385
f 357/387 356/386 354/384
f 353/383 352/382 358/388
f 353/383 358/388 354/384
f 357/387 354/384 358/388
f 359/389 357/387 358/388
f 358/388 360/390 359/389
f 352/382 360/390 358/388
f 352/382 351/381 361/391
f 360/390 352/382 361/391
f 362/392 360/390 361/391
f 362/392 363/393 360/390
f 362/392 364/394 363/393
f 364/394 365/395 363/393
f 364/394 366/396 365/395
f 367/397 366/396 364/394
f 368/398 366/396 367/397
f 368/398 367/397 369/399
f 370/400 368/398 369/399
f 368/398 370/400 371/401
f 366/396 371/401 365/395
f 368/398 371/401 366/396
f 365/395 371/401 372/402
f 365/395 372/402 363/393
f 371/401 321/351 372/402
f 373/403 363/393 372/402
f 359/389 360/390 374/404
f 363/393 374/404 360/390
f 374/404 363/393 373/403
f 375/405 359/389 374/404
f 373/403 376/406 374/404
f 376/406 375/405 374/404
f 377/407 378/408 379/409
f 377/407 380/410 378/408
f 381/411 380/410 377/407
f 381/411 382/412 380/410
f 382/412 381/411 383/413
f 384/414 385/415 386/416
f 386/416 387/417 384/414
f 388/418 384/414 389/419
f 390/420 391/421 392/422
f 390/420 393/423 391/421
f 390/420 394/424 393/423
f 394/424 395/425 393/423
f 392/422 391/421 396/426
f 397/427 398/428 399/429
f 397/427 399/429 400/430
f 397/427 400/430 401/431
f 401/431 400/430 402/432
f 400/430 399/429 403/433
f 400/430 403/433 404/434
f 398/428 405/435 399/429
f 405/435 398/428 406/436
f 398/428 407/437 406/436
f 406/436 407/437 408/438
f 408/438 409/439 406/436
f 408/438 407/437 410/440
f 321/351 371/401 411/441
f 321/351 411/441 322/352
f 411/441 412/442 322/352
f 325/355 322/352 412/442
f 411/441 371/401 413/443
f 413/443 412/442 411/441
f 414/444 371/401 370/400
f 414/444 370/400 369/399
f 413/443 371/401 414/444
f 414/444 369/399 415/445
f 412/442 413/443 415/445
f 415/445 413/443 414/444
f 416/446 417/447 418/448
f 418/448 419/449 416/446
f 420/450 416/446 419/449
f 416/446 420/450 417/447
f 421/451 422/452 423/453
f 421/451 424/454 422/452
f 422/452 425/455 423/453
f 422/452 426/456 425/455
f 427/457 428/458 429/459
f 430/460 429/459 428/458
f 429/459 430/460 427/457
f 431/461 432/462 433/463
f 432/462 431/461 434/464
f 435/465 432/462 434/464
f 435/465 434/464 436/466
f 436/466 434/464 437/467
f 437/467 438/468 436/466
f 439/469 440/470 441/471
f 442/472 443/473 444/474
f 442/472 444/474 445/475
f 442/472 445/475 446/476
f 446/476 445/475 447/477
f 448/478 447/477 445/475
f 444/474 443/473 448/478
f 443/473 447/477 448/478
f 445/475 444/474 449/479
f 448/478 445/475 449/479
f 450/480 449/479 451/481
f 452/482 450/480 451/481
f 449/479 452/482 451/481
f 453/483 454/484 455/485
f 454/484 453/483 456/486
f 463/487 464/488 465/489
f 463/487 466/490 464/488
f 463/487 467/491 466/490
f 467/491 468/492 466/490
f 464/488 469/493 465/489
f 465/489 469/493 468/492
f 469/493 466/490 468/492
f 469/493 470/494 466/490
f 466/490 470/494 464/488
f 471/495 472/496 470/494
f 473/497 472/496 471/495
f 470/494 472/496 473/497
f 474/498 475/499 476/500
f 475/499 474/498 477/501
f 475/499 477/501 478/502
f 477/501 479/503 478/502
f 480/504 474/498 476/500
f 479/503 477/501 480/504
f 477/501 474/498 480/504
f 475/499 481/505 476/500
f 482/506 481/505 475/499
f 483/507 484/508 485/509
f 485/509 486/510 483/507
f 485/509 487/511 486/510
f 486/510 487/511 488/512
f 486/510 489/513 483/507
f 489/513 484/508 483/507
f 488/512 489/513 486/510
f 485/509 484/508 490/514
f 491/515 485/509 490/514
f 498/516 499/517 500/518
f 500/518 501/519 498/516
f 502/520 503/521 504/522
f 355/385 502/520 504/522
f 338/368 355/385 504/522
f 504/522 336/366 338/368
f 504/522 505/523 336/366
f 505/523 504/522 503/521
f 335/365 506/524 333/363
f 335/365 503/521 506/524
f 320/350 323/353 507/525
f 323/353 329/359 508/526
f 507/525 323/353 508/526
f 509/527 510/528 511/529
f 509/527 512/530 510/528
f 512/530 513/531 510/528
f 510/528 513/531 514/532
f 515/533 514/532 513/531
f 516/534 515/533 513/531
f 517/535 515/533 516/534
f 517/535 518/536 515/533
f 519/537 515/533 518/536
f 520/538 511/529 510/528
f 521/539 522/540 523/541
f 524/542 522/540 525/543
f 526/544 525/543 522/540
f 527/545 528/546 529/547
f 527/545 530/548 528/546
f 527/545 529/547 531/549
f 528/546 532/550 529/547
f 532/550 533/551 529/547
f 534/552 535/553 536/554
f 537/555 538/556 539/557
f 540/558 541/559 542/560
f 543/561 542/560 541/559
f 544/562 545/563 346/376
f 346/376 546/564 547/565
f 566/566 415/445 369/399
f 566/566 369/399 367/397
f 567/567 568/568 569/569
f 570/570 567/567 569/569
f 571/571 567/567 570/570
f 572/572 571/571 570/570
f 573/573 570/570 569/569
f 572/572 570/570 573/573
f 569/569 574/574 573/573
f 574/574 569/569 568/568
f 573/573 574/574 575/575
f 573/573 575/575 576/576
f 573/573 576/576 577/577
f 577/577 578/578 573/573
f 579/579 578/578 577/577
f 580/580 579/579 577/577
f 576/576 581/581 577/577
f 580/580 577/577 581/581
f 576/576 582/582 581/581
f 582/582 576/576 583/583
f 584/584 582/582 583/583
f 585/585 584/584 583/583
f 583/583 586/586 585/585
f 587/587 586/586 583/583
f 576/576 588/588 583/583
f 576/576 575/575 588/588
f 587/587 583/583 588/588
f 575/575 589/589 588/588
f 589/589 587/587 588/588
f 590/590 591/591 592/592
f 592/592 591/591 593/593
f 592/592 593/593 594/594
f 595/595 592/592 594/594
f 593/593 596/596 594/594
f 597/597 596/596 593/593
f 597/597 593/593 598/598
f 593/593 591/591 598/598
f 79/109 599/599 600/600
f 601/601 602/602 603/603
f 604/604 602/602 601/601
f 605/605 604/604 601/601
f 606/606 604/604 605/605
f 606/606 607/607 604/604
f 607/607 602/602 604/604
f 602/602 607/607 608/608
f 608/608 603/603 602/602
f 607/607 609/609 608/608
f 607/607 610/610 609/609
f 607/607 611/611 610/610
f 611/611 607/607 612/612
f 613/613 611/611 612/612
f 614/614 611/611 613/613
f 614/614 615/615 611/611
f 610/610 611/611 615/615
f 610/610 615/615 616/616
f 616/616 617/617 610/610
f 618/618 617/617 616/616
f 619/619 617/617 618/618
f 617/617 619/619 620/620
f 621/621 617/617 620/620
f 621/621 622/622 617/617
f 610/610 617/617 622/622
f 610/610 622/622 609/609
f 609/609 622/622 623/623
f 623/623 622/622 621/621
f 624/624 578/578 579/579
f 624/624 579/579 625/625
f 626/626 579/579 580/580
f 627/627 625/625 579/579
f 627/627 579/579 626/626
f 628/628 629/629 630/630
f 628/628 630/630 631/631
f 632/632 628/628 631/631
f 631/631 633/633 632/632
f 632/632 634/634 628/628
f 634/634 632/632 635/635
f 628/628 634/634 636/636
f 628/628 636/636 637/637
f 638/638 639/639 640/640
f 641/641 639/639 638/638
f 640/640 639/639 642/642
f 640/640 642/642 643/643
f 643/643 642/642 644/644
f 585/585 586/586 645/645
f 646/646 645/645 586/586
f 647/647 638/638 640/640
f 648/648 649/649 650/650
f 648/648 651/651 649/649
f 589/589 652/652 587/587
f 589/589 653/653 652/652
f 575/575 653/653 589/589
f 575/575 574/574 653/653
f 654/654 613/613 612/612
f 654/654 655/655 613/613
f 656/656 614/614 613/613
f 657/657 656/656 613/613
f 657/657 613/613 655/655
f 658/658 659/659 660/660
f 661/661 658/658 660/660
f 662/662 659/659 658/658
f 659/659 663/663 660/660
f 659/659 664/664 663/663
f 664/664 665/665 663/663
f 619/619 666/666 620/620
f 667/667 620/620 666/666
f 623/623 621/621 668/668
f 609/609 669/669 608/608
f 623/623 668/668 669/669
f 609/609 623/623 669/669
o mesh_0_
v -0.450647 11.749399 8.421122
v -2.235910 10.661899 6.859872
v -0.620111 10.440699 8.149542
v -1.799620 11.926799 7.108352
v 2.235850 10.661899 6.859872
v 0.450581 11.749399 8.421122
v 0.620055 10.440699 8.149542
v 1.799560 11.926799 7.108352
vt 0.447282 0.905899
vt 0.019095 0.205994
vt 0.404223 0.036775
vt 0.087444 1.047500
vt 0.980904 0.205994
vt 0.552718 0.905899
vt 0.595777 0.036775
vt 0.912555 1.047500
usemtl mat_bw_eye.002
s 1
f 670/670 671/671 672/672
f 670/670 673/673 671/671
f 674/674 675/675 676/676
f 674/674 677/677 675/675
