<?xml version="1.0" encoding="utf-8"?>
<COLLADA xmlns="http://www.collada.org/2005/11/COLLADASchema" version="1.4.1">
  <asset>
    <created>2018-07-02T16:39:26Z</created>
    <modified>2018-07-02T16:39:26Z</modified>
  </asset>
  <library_images>
    <image id="Image">
      <init_from>./td_body.png</init_from>
    </image>
    <image id="Image1">
      <init_from>./td_eye.0.png</init_from>
    </image>
  </library_images>
  <library_materials>
    <material id="VisualMaterial" name="mat_td_body">
      <instance_effect url="#Effect"/>
      <extra>
        <technique profile="FCOLLADA">
          <user_properties>mat_td_body</user_properties>
        </technique>
      </extra>
    </material>
    <material id="VisualMaterial1" name="mat_td_eye">
      <instance_effect url="#Effect1"/>
      <extra>
        <technique profile="FCOLLADA">
          <user_properties>mat_td_eye</user_properties>
        </technique>
      </extra>
    </material>
  </library_materials>
  <library_effects>
    <effect id="Effect" name="td_body_png">
      <profile_COMMON>
        <newparam sid="Image-surface">
          <surface type="2D">
            <init_from>Image</init_from>
            <format>A8R8G8B8</format>
          </surface>
        </newparam>
        <newparam sid="Image-sampler">
          <sampler2D>
            <source>Image-surface</source>
            <wrap_s>WRAP</wrap_s>
            <wrap_t>WRAP</wrap_t>
            <minfilter>NONE</minfilter>
            <magfilter>NONE</magfilter>
            <mipfilter>NONE</mipfilter>
          </sampler2D>
        </newparam>
        <technique sid="common">
          <phong>
            <emission>
              <color>0 0 0 1</color>
            </emission>
            <ambient>
              <color>0 0 0 1</color>
            </ambient>
            <diffuse>
              <texture texture="Image-sampler" texcoord=""/>
            </diffuse>
            <specular>
              <color>1 1 1 1</color>
            </specular>
            <shininess>
              <float>0</float>
            </shininess>
            <transparent opaque="A_ONE">
              <color>0 0 0 1</color>
            </transparent>
            <transparency>
              <float>1</float>
            </transparency>
            <index_of_refraction>
              <float>1.55</float>
            </index_of_refraction>
          </phong>
          <extra>
            <technique profile="FCOLLADA">
              <spec_level>
                <float>0</float>
              </spec_level>
            </technique>
          </extra>
        </technique>
      </profile_COMMON>
      <extra>
        <technique profile="FCOLLADA">
          <user_properties>td_body.png</user_properties>
        </technique>
      </extra>
    </effect>
    <effect id="Effect1" name="td_eye_0_png">
      <profile_COMMON>
        <newparam sid="Image1-surface">
          <surface type="2D">
            <init_from>Image1</init_from>
            <format>A8R8G8B8</format>
          </surface>
        </newparam>
        <newparam sid="Image1-sampler">
          <sampler2D>
            <source>Image1-surface</source>
            <wrap_s>WRAP</wrap_s>
            <wrap_t>WRAP</wrap_t>
            <minfilter>NONE</minfilter>
            <magfilter>NONE</magfilter>
            <mipfilter>NONE</mipfilter>
          </sampler2D>
        </newparam>
        <technique sid="common">
          <phong>
            <emission>
              <color>0 0 0 1</color>
            </emission>
            <ambient>
              <color>0 0 0 1</color>
            </ambient>
            <diffuse>
              <texture texture="Image1-sampler" texcoord=""/>
            </diffuse>
            <specular>
              <color>1 1 1 1</color>
            </specular>
            <shininess>
              <float>0</float>
            </shininess>
            <transparent opaque="A_ONE">
              <color>0 0 0 1</color>
            </transparent>
            <transparency>
              <float>1</float>
            </transparency>
            <index_of_refraction>
              <float>1.55</float>
            </index_of_refraction>
          </phong>
          <extra>
            <technique profile="FCOLLADA">
              <spec_level>
                <float>0</float>
              </spec_level>
            </technique>
          </extra>
        </technique>
      </profile_COMMON>
      <extra>
        <technique profile="FCOLLADA">
          <user_properties>td_eye.0.png</user_properties>
        </technique>
      </extra>
    </effect>
  </library_effects>
  <library_geometries>
    <geometry id="Geometry" name="mesh_0_">
      <mesh>
        <source id="GeometrySource" name="mesh_0_Pos">
          <float_array id="GeometrySource-array" count="1077">-2.29988 2.28498 -0.202693 -2.09382 2.62628 0.287602 -2.34225 2.64782 0.428486 -3.22964 2.36818 0.061267 -3.23387 2.84251 0.343211 -3.34011 2.86222 0.324925 -3.3371 2.37802 0.084938 -3.3439 2.41443 -0.468058 -3.23804 2.6584 -0.554948 -3.3423 2.83229 -0.595803 -3.23391 3.16367 -0.107455 -2.4221 2.85028 -0.62008 -2.29134 2.86386 -0.53882 -2.23945 3.17656 0.098129 -1.07938 2.55286 -0.597411 -2.29134 2.86386 -0.53882 -1.12399 3.12379 -0.369213 -2.29988 2.28498 -0.202693 -1.39897 2.24541 0.058443 -1.23423 2.60736 0.37892 -2.09382 2.62628 0.287602 -1.13978 3.17529 0.202716 -2.23945 3.17656 0.098129 -4.49046 2.50838 -0.682078 -3.9132 2.37586 -0.70257 -4.16305 2.13863 -0.057815 -4.54139 2.50276 0.51377 -3.83273 2.00308 0.391453 -3.3439 2.41443 -0.468058 -3.3371 2.37802 0.084938 -3.33429 3.16038 -0.140444 -3.3423 2.83229 -0.595803 -3.84009 3.17493 -0.810929 -4.22583 3.22274 -0.643322 -4.28221 3.29483 0.419452 -3.90372 3.1776 0.571663 -3.34011 2.86222 0.324925 -3.3439 2.41443 -0.468058 -3.9132 2.37586 -0.70257 -3.3423 2.83229 -0.595803 -3.84009 3.17493 -0.810929 -4.49046 2.50838 -0.682078 -4.22583 3.22274 -0.643322 -3.75496 2.46975 0.608665 -3.90372 3.1776 0.571663 -4.54139 2.50276 0.51377 -3.34011 2.86222 0.324925 -3.3371 2.37802 0.084938 -3.83273 2.00308 0.391453 -4.28221 3.29483 0.419452 -4.22583 3.22274 -0.643322 -4.28221 3.29483 0.419452 -3.33429 3.16038 -0.140444 1.96943 8.9128 0.039648 -0.000031 9.5452 0.060633 0.000464 9.30096 0.941985 1.75738 9.13778 -1.18733 -0.000031 9.53525 -1.15695 -0.000029 9.05376 -2.43265 1.30513 8.47406 -2.71692 2.79147 8.34637 -1.46191 2.06856 7.52409 -3.17547 -0.000025 7.88146 -3.73402 -1.30519 8.47404 -2.71692 -1.75744 9.13775 -1.18733 -2.76159 8.34219 -1.46262 -1.9685 8.91277 0.039648 -0.000018 5.97306 2.08844 1.0073 7.15988 2.2693 -1.00734 7.15986 2.2693 1.44417 5.78262 1.66195 2.63836 6.72439 1.18233 1.75934 8.18533 1.65009 -0.000027 8.4103 2.10543 -1.7594 8.18531 1.65009 0.000464 9.30096 0.941985 1.96943 8.9128 0.039648 -1.9685 8.91277 0.039648 -2.6384 6.72435 1.18233 -1.44421 5.7826 1.66195 1.58676 4.11695 -1.96052 -0.000012 4.35848 0.122722 -0.000011 3.9258 -2.38885 2.61881 4.9744 -0.148441 1.44417 5.78262 1.66195 -0.000018 5.97306 2.08844 -1.44421 5.7826 1.66195 -2.61884 4.97436 -0.14844 -1.58678 4.11693 -1.96052 2.72833 4.95709 -2.5156 1.58676 4.11695 -1.96052 1.00944 4.58928 -3.44342 2.03489 5.81823 -3.60965 -0.000017 5.5464 -4.21855 0.000472 7.06647 -4.09865 2.06856 7.52409 -3.17547 -0.000025 7.88146 -3.73402 -2.06761 7.52406 -3.17547 -2.03493 5.81821 -3.60965 -1.00946 4.58926 -3.44342 -2.72836 4.95705 -2.5156 -1.58678 4.11693 -1.96052 -0.000011 3.9258 -2.38885 3.26292 5.78833 -0.58365 2.61881 4.9744 -0.148441 2.72833 4.95709 -2.5156 3.28942 6.52013 -2.04453 3.28778 7.49041 -0.125844 2.63836 6.72439 1.18233 1.75934 8.18533 1.65009 1.96943 8.9128 0.039648 2.79147 8.34637 -1.46191 2.06856 7.52409 -3.17547 2.03489 5.81823 -3.60965 1.58676 4.11695 -1.96052 1.44417 5.78262 1.66195 -3.26296 5.78829 -0.58365 -2.72836 4.95705 -2.5156 -2.61884 4.97436 -0.14844 -3.28946 6.52008 -2.04453 -3.28782 7.49036 -0.125844 -2.6384 6.72435 1.18233 -1.7594 8.18531 1.65009 -1.9685 8.91277 0.039648 -2.76159 8.34219 -1.46262 -2.06761 7.52406 -3.17547 -2.03493 5.81821 -3.60965 -1.58678 4.11693 -1.96052 -1.44421 5.7826 1.66195 -2.06761 7.52406 -3.17547 0.832494 3.12935 -0.187636 -0.000008 3.17122 1.21929 -0.000007 2.87656 -0.018769 0.775985 3.32445 1.06134 1.50894 3.7614 0.354549 1.41422 3.76871 -0.798089 0.602724 3.23542 -1.07769 -0.602742 3.23541 -1.07769 -0.580933 3.7818 -1.64113 -1.41424 3.76869 -0.798089 -0.83251 3.12934 -0.187636 -1.50896 3.76137 0.354549 -0.776003 3.32444 1.06134 1.64404 4.508 -0.170823 1.26183 4.508 -1.20925 1.38707 5.60365 0.561612 1.41422 3.76871 -0.798089 1.50894 3.7614 0.354549 1.49568 4.46989 0.767128 0.882873 5.95118 1.05685 0.925583 4.46789 1.42048 1.19643 3.73146 1.13176 0.925583 4.46789 1.42048 0.764158 3.8812 1.54534 1.49568 4.46989 0.767128 1.50894 3.7614 0.354549 0.775985 3.32445 1.06134 0.73246 3.55255 1.38189 -0.000013 4.52024 -2.13042 1.26183 4.508 -1.20925 0.580911 3.78181 -1.64113 -0.580933 3.7818 -1.64113 -1.26185 4.50798 -1.20925 -1.41424 3.76869 -0.798089 1.41422 3.76871 -0.798089 0.580911 3.78181 -1.64113 -1.64406 4.50798 -0.170823 -1.38711 5.60363 0.561611 -1.26185 4.50798 -1.20925 -1.41424 3.76869 -0.798089 -1.50896 3.76137 0.354549 -1.4957 4.46986 0.767128 -0.882911 5.95117 1.05685 -0.925609 4.46788 1.42048 -1.19645 3.73144 1.13176 -0.76418 3.88119 1.54534 -0.925609 4.46788 1.42048 -1.4957 4.46986 0.767128 -1.50896 3.76137 0.354549 -0.776003 3.32444 1.06134 -0.73248 3.55254 1.38189 0.891564 0.199759 0.734246 0.336403 0.42185 1.08534 1.09708 1.4763 1.09162 1.52517 0.314081 0.783321 1.88549 1.37908 1.06646 1.78594 1.89712 1.55664 0.876964 1.96955 1.81322 0.434449 1.49042 1.49176 1.78594 1.89712 1.55664 0.876964 1.96955 1.81322 1.4651 1.92326 2.24289 2.1801 1.3468 2.19623 2.21307 1.35493 1.6497 1.88549 1.37908 1.06646 2.05297 0.505889 1.35697 1.52517 0.314081 0.783321 1.50206 -0.43947 1.06622 0.891564 0.199759 0.734246 0.375389 -0.34879 1.3846 0.613704 -0.40044 1.88585 1.52346 -0.47254 1.62921 1.54639 1.66773 2.47531 0.820614 1.45607 2.58034 0.452603 1.49663 2.14717 0.336403 0.42185 1.08534 0.434449 1.49042 1.49176 2.1801 1.3468 2.19623 0.820614 1.45607 2.58034 1.52346 -0.47254 1.62921 1.54639 1.66773 2.47531 0.613704 -0.40044 1.88585 -0.89157 0.199759 0.734233 -1.09708 1.4763 1.0916 -0.336411 0.42185 1.08534 -1.52517 0.314081 0.783299 -1.88549 1.37908 1.06644 -1.78595 1.89712 1.55662 -0.876976 1.96955 1.8132 -0.43446 1.49042 1.49176 -1.78595 1.89712 1.55662 -1.46512 1.92326 2.24287 -0.876976 1.96955 1.8132 -2.18012 1.3468 2.1962 -2.21309 1.35493 1.64966 -1.88549 1.37908 1.06644 -2.05298 0.505889 1.35694 -1.52517 0.314081 0.783299 -1.50206 -0.43947 1.0662 -0.89157 0.199759 0.734233 -0.375399 -0.34879 1.3846 -0.613718 -0.40044 1.88584 -1.52348 -0.47254 1.62919 -1.54641 1.66773 2.47529 -0.820632 1.45607 2.58033 -0.452619 1.49663 2.14717 -0.336411 0.42185 1.08534 -0.43446 1.49042 1.49176 -2.18012 1.3468 2.1962 -1.52348 -0.47254 1.62919 -0.820632 1.45607 2.58033 -1.54641 1.66773 2.47529 -0.613718 -0.40044 1.88584 1.74362 1.1531 -0.474149 1.62799 0.423175 -0.437798 0.652613 1.00394 -1.32884 1.62301 0.533654 0.554537 1.6913 1.31815 0.588128 0.955317 0.533789 1.34599 1.08443 1.41066 1.36527 -0.000002 1.43673 1.65655 0 0.538607 1.57036 0 -0.167644 1.0524 1.17544 -0.129748 0.098892 0 0.180319 -1.09478 -1.17544 -0.129748 0.098892 -0.955317 0.533789 1.34599 -1.08443 1.41064 1.36527 -0.000004 2.11715 1.38376 -0.865956 2.07009 1.19857 -1.6913 1.31813 0.588128 -1.62301 0.533654 0.554537 -1.74362 1.15308 -0.474149 -1.62799 0.423175 -0.437798 -0.652615 1.00393 -1.32884 0 0.180319 -1.09478 0.865947 2.0701 1.19857 1.23421 2.60738 0.37892 0.590795 2.91736 0.58269 1.6913 1.31815 0.588128 1.08443 1.41066 1.36527 1.74362 1.1531 -0.474149 1.39895 2.24543 0.058443 1.39895 2.24543 0.058443 1.07936 2.55288 -0.597411 0.652613 1.00394 -1.32884 -0.000007 2.90058 -0.787567 -0.652615 1.00393 -1.32884 -1.07938 2.55286 -0.597411 -1.74362 1.15308 -0.474149 -1.39897 2.24541 0.058443 -1.6913 1.31813 0.588128 -1.23423 2.60736 0.37892 -0.865956 2.07009 1.19857 -1.08443 1.41064 1.36527 -0.590811 2.91735 0.58269 -1.13978 3.17529 0.202716 -0.000009 3.38212 0.00093 1.13976 3.17531 0.202716 0.590795 2.91736 0.58269 1.13976 3.17531 0.202716 1.12397 3.12381 -0.369213 -0.000009 3.38212 0.00093 -0.000007 2.90058 -0.787567 -1.12399 3.12379 -0.369213 -1.13978 3.17529 0.202716 1.12397 3.12381 -0.369213 -1.12399 3.12379 -0.369213 -0.000007 2.91305 0.787622 0.865947 2.0701 1.19857 0.590795 2.91736 0.58269 -0.000009 3.38212 0.00093 -0.590811 2.91735 0.58269 -0.865956 2.07009 1.19857 -0.000004 2.11715 1.38376 0.865947 2.0701 1.19857 1.07936 2.55288 -0.597411 1.12397 3.12381 -0.369213 2.29133 2.86388 -0.53882 2.29987 2.285 -0.202695 1.39895 2.24543 0.058443 1.23421 2.60738 0.37892 2.09381 2.6263 0.287601 1.13976 3.17531 0.202716 2.23943 3.17659 0.09813 2.29987 2.285 -0.202695 2.34223 2.64784 0.428486 2.09381 2.6263 0.287601 3.22963 2.36821 0.061266 3.23386 2.84254 0.343211 3.336 2.86225 0.32553 3.33602 2.37805 0.085523 3.34977 2.41446 -0.467343 3.23802 2.65843 -0.554948 3.34978 2.83232 -0.595098 3.23389 3.1637 -0.107454 2.42209 2.8503 -0.620081 2.29133 2.86388 -0.53882 2.23943 3.17659 0.09813 4.49894 2.50842 -0.666921 4.1637 2.13866 -0.046829 3.92198 2.3759 -0.694675 4.53481 2.50279 0.529472 3.82776 2.00311 0.398248 3.34977 2.41446 -0.467343 3.33602 2.37805 0.085523 3.33604 3.16041 -0.139875 3.85023 3.17497 -0.803944 3.34978 2.83232 -0.595098 4.23383 3.22278 -0.631496 4.27684 3.29486 0.431903 3.89646 3.17763 0.57934 3.336 2.86225 0.32553 3.34977 2.41446 -0.467343 3.34978 2.83232 -0.595098 3.92198 2.3759 -0.694675 3.85023 3.17497 -0.803944 4.49894 2.50842 -0.666921 4.23383 3.22278 -0.631496 3.74726 2.46978 0.614466 4.53481 2.50279 0.529472 3.89646 3.17763 0.57934 3.336 2.86225 0.32553 3.33602 2.37805 0.085523 3.82776 2.00311 0.398248 4.27684 3.29486 0.431903 4.27684 3.29486 0.431903 4.23383 3.22278 -0.631496 3.33604 3.16041 -0.139875</float_array>
          <technique_common>
            <accessor source="#GeometrySource-array" count="359" stride="3">
              <param name="X" type="float"/>
              <param name="Y" type="float"/>
              <param name="Z" type="float"/>
            </accessor>
          </technique_common>
        </source>
        <source id="GeometrySource1" name="mesh_0_Nrm">
          <float_array id="GeometrySource1-array" count="1077">-0.044234 -0.988724 0.143069 -0.160197 -0.157385 -0.974457 -0.201745 -0.342716 -0.917521 -0.100535 -0.93767 -0.332668 0.057292 0.301407 -0.951773 -0.474199 0.225723 -0.85099 -0.480582 -0.742287 -0.46696 -0.299347 -0.809248 0.505479 -0.217816 -0.258401 0.941162 -0.384959 0.111813 0.916136 -0.071113 0.986061 0.150424 -0.137458 0.399916 0.906186 -0.113598 0.276402 0.954305 -0.090404 0.952471 -0.290907 0.018779 0.370815 -0.928517 -0.113598 0.276402 0.954305 0.802632 0.121051 -0.584062 -0.044234 -0.988724 0.143069 -0.136644 0.98976 0.041268 0.138422 0.570458 0.809578 -0.160197 -0.157385 -0.974457 0.773643 0.180443 0.607385 -0.090404 0.952471 -0.290907 0.814804 -0.207233 0.541433 -0.086484 -0.55755 0.825626 0.273649 -0.942736 0.190696 0.611069 -0.322504 -0.722901 -0.213775 -0.919452 -0.330013 -0.299347 -0.809248 0.505479 -0.480582 -0.742287 -0.46696 -0.363665 0.931511 0.005875 -0.384959 0.111813 0.916136 -0.105375 0.40792 0.906916 0.392956 0.851257 0.347775 0.514327 0.806059 -0.292807 -0.258422 0.499969 -0.826589 -0.474199 0.225723 -0.85099 -0.299347 -0.809248 0.505479 -0.086484 -0.55755 0.825626 -0.384959 0.111813 0.916136 -0.105375 0.40792 0.906916 0.814804 -0.207233 0.541433 0.392956 0.851257 0.347775 -0.418225 -0.211447 -0.88339 -0.258422 0.499969 -0.826589 0.611069 -0.322504 -0.722901 -0.474199 0.225723 -0.85099 -0.480582 -0.742287 -0.46696 -0.213775 -0.919452 -0.330013 0.514327 0.806059 -0.292807 0.392956 0.851257 0.347775 0.514327 0.806059 -0.292807 -0.363665 0.931511 0.005875 0.234027 -0.519987 -0.821489 0.128369 0.000043 -0.991726 0.44876 0.000006 -0.893652 -0.193399 -0.361866 -0.911948 -0.183866 0 -0.982951 -0.503601 0 -0.863936 -0.580003 -0.352476 -0.734409 -0.263989 -0.723205 -0.638189 -0.73983 -0.523418 -0.422711 -0.796645 0.000044 -0.604447 -0.578895 0.356139 -0.733516 -0.194223 0.366398 -0.909962 -0.264976 0.723546 -0.637392 0.230643 0.522581 -0.8208 0.866395 0 0.499359 0.960525 -0.27704 0.025323 0.960525 0.27704 0.025323 0.751006 -0.35865 0.5544 0.655445 -0.741524 0.143297 0.661737 -0.531407 -0.528877 0.860526 -0.000004 -0.509406 0.661655 0.531383 -0.529004 0.44876 0.000006 -0.893652 0.234027 -0.519987 -0.821489 0.230643 0.522581 -0.8208 0.655445 0.741524 0.143297 0.751006 0.35865 0.554401 -0.061127 -0.326418 0.943247 0.421156 0 0.906988 -0.197879 0 0.980227 0.358475 -0.595892 0.718616 0.751006 -0.35865 0.5544 0.866395 0 0.499359 0.751006 0.35865 0.554401 0.358475 0.595892 0.718616 -0.061127 0.326418 0.943247 -0.328274 -0.74573 0.579761 -0.061127 -0.326418 0.943247 -0.648204 -0.248707 0.719706 -0.84129 -0.531885 0.096591 -0.963447 -0.000005 0.267899 -0.969724 0.000006 -0.244205 -0.73983 -0.523418 -0.422711 -0.796645 0.000044 -0.604447 -0.737511 0.524824 -0.425016 -0.841323 0.531859 0.096446 -0.648204 0.248707 0.719706 -0.328275 0.74573 0.579761 -0.061127 0.326418 0.943247 -0.197879 0 0.980227 0.16533 -0.939976 0.298516 0.358475 -0.595892 0.718616 -0.328274 -0.74573 0.579761 -0.363578 -0.928717 -0.072766 0.238659 -0.918929 -0.314025 0.655445 -0.741524 0.143297 0.661737 -0.531407 -0.528877 0.234027 -0.519987 -0.821489 -0.263989 -0.723205 -0.638189 -0.73983 -0.523418 -0.422711 -0.84129 -0.531885 0.096591 -0.061127 -0.326418 0.943247 0.751006 -0.35865 0.5544 0.16533 0.939976 0.298516 -0.328275 0.74573 0.579761 0.358475 0.595892 0.718616 -0.363856 0.928199 -0.077821 0.23426 0.918692 -0.318004 0.655445 0.741524 0.143297 0.661655 0.531383 -0.529004 0.230643 0.522581 -0.8208 -0.264976 0.723546 -0.637392 -0.737511 0.524824 -0.425016 -0.841323 0.531859 0.096446 -0.061127 0.326418 0.943247 0.751006 0.35865 0.554401 -0.737511 0.524824 -0.425016 0.007546 -0.469588 0.882853 0.409161 0 0.912462 -0.051085 0 0.998694 0.346419 -0.478091 0.807108 0.134878 -0.865582 0.482261 -0.36272 -0.811996 0.457271 -0.43271 -0.304259 0.848639 -0.43271 0.304259 0.848639 -0.784774 0.404143 0.469891 -0.36272 0.811996 0.457271 0.007546 0.469588 0.882853 0.134878 0.865582 0.482261 0.346419 0.478091 0.807108 -0.090136 -0.994732 -0.04883 -0.573519 -0.818741 -0.027195 0.178874 -0.947983 -0.263312 -0.36272 -0.811996 0.457271 0.134878 -0.865582 0.482261 0.410749 -0.911658 -0.012855 0.796711 -0.563625 -0.218125 0.794644 -0.598118 -0.103899 0.579987 -0.732888 0.355656 0.794644 -0.598118 -0.103899 0.873174 -0.459075 0.163762 0.410749 -0.911658 -0.012855 0.134878 -0.865582 0.482261 0.346419 -0.478091 0.807108 0.672752 -0.394803 0.625728 -0.963447 -0.000005 0.267899 -0.573519 -0.818741 -0.027195 -0.784774 -0.404143 0.469891 -0.784774 0.404143 0.469891 -0.573519 0.818741 -0.027195 -0.36272 0.811996 0.457271 -0.36272 -0.811996 0.457271 -0.784774 -0.404143 0.469891 -0.090136 0.994732 -0.04883 0.178874 0.947983 -0.263312 -0.573519 0.818741 -0.027195 -0.36272 0.811996 0.457271 0.134878 0.865582 0.482261 0.410749 0.911658 -0.012855 0.796711 0.563625 -0.218125 0.794644 0.598118 -0.103899 0.579987 0.732888 0.355655 0.873174 0.459075 0.163762 0.794644 0.598118 -0.103899 0.410749 0.911658 -0.012855 0.134878 0.865582 0.482261 0.346419 0.478091 0.807108 0.672752 0.394803 0.625728 -0.954093 -0.16388 0.250699 -0.541498 0.099574 0.834784 -0.834614 0.516843 0.190508 -0.927005 -0.035494 -0.373366 -0.75542 0.32678 -0.567939 -0.272129 0.860993 -0.429693 -0.036721 0.928776 0.368818 -0.397678 0.532803 0.746976 -0.272129 0.860993 -0.429693 -0.036721 0.928776 0.368818 0.459853 0.866677 -0.193409 0.566906 0.135537 -0.812556 -0.216322 0.263641 -0.940052 -0.75542 0.32678 -0.567939 -0.272385 -0.257561 -0.927075 -0.927005 -0.035494 -0.373366 -0.615563 -0.699821 -0.3624 -0.954093 -0.16388 0.250699 -0.273393 -0.567855 0.7764 0.644931 -0.559247 0.520871 0.338775 -0.721705 -0.603634 0.876764 0.388612 -0.283311 0.919531 0.297776 0.2565 0.316274 0.229958 0.920375 -0.541498 0.099574 0.834784 -0.397678 0.532803 0.746976 0.566906 0.135537 -0.812556 0.919531 0.297776 0.2565 0.338775 -0.721705 -0.603634 0.876764 0.388612 -0.283311 0.644931 -0.559247 0.520871 -0.954093 -0.16388 -0.250699 -0.834614 0.516843 -0.190508 -0.541498 0.099574 -0.834784 -0.927005 -0.035494 0.373366 -0.75542 0.32678 0.567939 -0.272129 0.860993 0.429693 -0.036721 0.928776 -0.368818 -0.397678 0.532803 -0.746976 -0.272129 0.860993 0.429693 0.459853 0.866677 0.193409 -0.036721 0.928776 -0.368818 0.566906 0.135537 0.812556 -0.216322 0.263641 0.940052 -0.75542 0.32678 0.567939 -0.272385 -0.257561 0.927075 -0.927005 -0.035494 0.373366 -0.615563 -0.699821 0.3624 -0.954093 -0.16388 -0.250699 -0.273393 -0.567855 -0.7764 0.644931 -0.559247 -0.520871 0.338775 -0.721705 0.603634 0.876764 0.388612 0.283311 0.919531 0.297776 -0.2565 0.316274 0.229958 -0.920375 -0.541498 0.099574 -0.834784 -0.397678 0.532803 -0.746976 0.566906 0.135537 0.812556 0.338775 -0.721705 0.603634 0.919531 0.297776 -0.2565 0.876764 0.388612 0.283311 0.644931 -0.559247 -0.520871 0.161192 -0.899225 -0.406708 0.822935 -0.474423 -0.312571 0.033018 -0.320748 -0.946589 0.849125 -0.412645 0.329714 0.206577 -0.919436 0.33461 0.474289 -0.488895 0.732142 0.145379 -0.541948 0.827743 0.134033 -0.244686 0.960294 0.221478 -0.340869 0.91365 0.186207 -0.888554 0.419285 0.432277 -0.901735 0.003106 0.396057 -0.610134 -0.686204 -0.432277 -0.901735 0.003106 -0.474289 -0.488895 0.732142 0.145379 0.541947 0.827743 0.467083 -0.219692 0.856487 0.505274 0.465882 0.726397 0.206577 0.919436 0.33461 -0.849125 -0.412645 0.329714 0.161192 0.899225 -0.406708 -0.822935 -0.474423 -0.312571 0.033018 0.320748 -0.946589 0.396057 -0.610134 -0.686204 0.505274 -0.465882 0.726397 0.138422 -0.570458 0.809578 0.690252 -0.293685 0.661288 0.206577 -0.919436 0.33461 0.145379 -0.541948 0.827743 0.161192 -0.899225 -0.406708 -0.136644 -0.98976 0.041268 -0.136644 -0.98976 0.041268 0.018779 -0.370815 -0.928517 0.033018 -0.320748 -0.946589 0.466925 -0.196762 -0.862129 0.033018 0.320748 -0.946589 0.018779 0.370815 -0.928517 0.161192 0.899225 -0.406708 -0.136644 0.98976 0.041268 0.206577 0.919436 0.33461 0.138422 0.570458 0.809578 0.505274 0.465882 0.726397 0.145379 0.541947 0.827743 0.690252 0.293685 0.661288 0.773643 0.180443 0.607385 0.981307 -0.13552 0.136643 0.773643 -0.180443 0.607385 0.690252 -0.293685 0.661288 0.773643 -0.180443 0.607385 0.802632 -0.121051 -0.584062 0.981307 -0.13552 0.136643 0.466925 -0.196762 -0.862129 0.802632 0.121051 -0.584062 0.773643 0.180443 0.607385 0.802632 -0.121051 -0.584062 0.802632 0.121051 -0.584062 0.695432 -0.21023 0.687152 0.505274 -0.465882 0.726397 0.690252 -0.293685 0.661288 0.981307 -0.13552 0.136643 0.690252 0.293685 0.661288 0.505274 0.465882 0.726397 0.467083 -0.219692 0.856487 0.505274 -0.465882 0.726397 0.018779 -0.370815 -0.928517 0.802632 -0.121051 -0.584062 -0.158006 0.276402 -0.947964 -0.050861 -0.988724 -0.140849 -0.136644 -0.98976 0.041268 0.138422 -0.570458 0.809578 -0.11455 -0.157386 0.980871 0.773643 -0.180443 0.607385 -0.076731 0.952471 0.294808 -0.050861 -0.988724 -0.140849 -0.15871 -0.342717 0.925935 -0.11455 -0.157386 0.980871 -0.084901 -0.93767 0.336997 0.101643 0.301407 0.948063 -0.433972 0.225723 0.872191 -0.458268 -0.742287 0.488877 -0.322608 -0.809249 -0.490959 -0.261497 -0.258402 -0.929972 -0.42729 0.111813 -0.897174 -0.078055 0.986061 -0.146942 -0.179594 0.399916 -0.898784 -0.158006 0.276402 -0.947964 -0.076731 0.952471 0.294808 0.788651 -0.207233 -0.578865 0.264453 -0.942736 -0.203257 -0.124917 -0.55755 -0.820691 0.644137 -0.322504 0.693598 -0.198143 -0.919452 0.339629 -0.322608 -0.809249 -0.490959 -0.458268 -0.742287 0.488877 -0.363665 0.931511 0.005875 -0.14758 0.407921 -0.901011 -0.42729 0.111813 -0.897174 0.3763 0.851257 -0.365733 0.527431 0.806059 0.268488 -0.219568 0.499968 0.837748 -0.433972 0.225723 0.872191 -0.322608 -0.809249 -0.490959 -0.42729 0.111813 -0.897174 -0.124917 -0.55755 -0.820691 -0.14758 0.407921 -0.901011 0.788651 -0.207233 -0.578865 0.3763 0.851257 -0.365733 -0.376548 -0.211447 0.901943 0.644137 -0.322504 0.693598 -0.219568 0.499968 0.837748 -0.433972 0.225723 0.872191 -0.458268 -0.742287 0.488877 -0.198143 -0.919452 0.339629 0.527431 0.806059 0.268488 0.527431 0.806059 0.268488 0.3763 0.851257 -0.365733 -0.363665 0.931511 0.005875</float_array>
          <technique_common>
            <accessor source="#GeometrySource1-array" count="359" stride="3">
              <param name="X" type="float"/>
              <param name="Y" type="float"/>
              <param name="Z" type="float"/>
            </accessor>
          </technique_common>
        </source>
        <source id="GeometrySource2" name="mesh_0_UV">
          <float_array id="GeometrySource2-array" count="718">0.622245 0.446285 0.622245 0.460875 0.622245 0.451528 0.622245 0.397347 0.622245 0.397871 0.622245 0.39191 0.622245 0.39191 0.622245 0.39191 0.622245 0.396585 0.622245 0.39191 0.622245 0.397775 0.622245 0.43866 0.622245 0.445205 0.622245 0.450562 0.339077 0.616845 0.339077 0.513787 0.339077 0.616412 0.339077 0.567548 0.339077 0.617005 0.339077 0.6168 0.339077 0.558533 0.339077 0.616412 0.339077 0.513564 0.60638 0.880064 0.680343 0.821696 0.404904 0.788105 0.171412 0.888471 0.205381 0.744786 0.576168 0.730998 0.344614 0.711542 0.570737 0.457041 0.570737 0.456901 0.570737 0.433388 0.570737 0.406355 0.570737 0.403098 0.570737 0.428568 0.570737 0.447534 0.007952 0.5444 -0.073696 0.551721 0.040198 0.630898 -0.057092 0.693717 -0.185021 0.601695 -0.155525 0.689005 0.030334 0.61322 0.109401 0.684374 0.154537 0.561214 0.058061 0.685791 0.019822 0.621635 0.025266 0.56735 0.173897 0.642368 0.589306 0.962184 0.21113 0.952875 0.622245 0.39191 -0.806677 0.828702 -1.00137 0.826573 -1.00132 0.737127 -0.827639 0.953225 -1.00137 0.950142 -1.00137 1.07961 -0.872346 1.10846 -0.725414 0.981091 -0.796879 1.15499 -1.00137 1.21168 -1.13039 1.10846 -1.1751 0.953225 -1.27436 0.981163 -1.19596 0.828702 -1.00141 2.81543 -0.888271 2.94425 -1.11454 2.94425 -0.839205 2.81543 -0.713912 2.94422 -0.83369 3.06833 -1.00141 3.06806 -1.16912 3.06833 -1.00135 3.17247 -0.779483 3.18658 -1.22322 3.18658 -1.2889 2.94422 -1.16361 2.81543 0.074659 1.17951 -0.021155 1.01419 -0.021155 1.21986 0.125006 1.01317 0.077011 0.819903 -0.021155 0.774218 0.077011 0.819903 0.125006 1.01317 0.074659 1.17951 -0.697259 -1.07809 -0.752793 -1.15977 -0.883987 -1.11385 -0.785762 -0.994354 -0.993645 -1.02078 -0.993591 -0.872983 -0.768932 -0.828489 -0.993645 -0.79374 -1.21825 -0.828489 -1.20153 -0.994354 -1.1033 -1.11385 -1.29003 -1.07809 -1.2345 -1.15977 -0.993645 -1.22265 -2.99935 0.925207 -2.99924 0.818271 -2.80395 0.926394 -2.89709 1.04346 -3.10829 1.04376 -3.1947 0.924026 -3.31588 1.04376 -3.21007 1.17864 -2.99894 1.18002 -2.79546 1.17815 -2.6894 1.04833 -2.7988 0.81951 -3.19949 0.81704 -2.99935 0.925207 -2.80395 0.926394 -2.99924 0.818271 -2.89709 1.04346 -3.10829 1.04376 -3.1947 0.924026 -3.31588 1.04376 -3.21007 1.17864 -2.99894 1.18002 -2.79546 1.17815 -2.6894 1.04833 -2.7988 0.81951 -3.19949 0.81704 -1.20576 1.15499 1.33689 0.56548 1.21424 0.603523 1.32792 0.603524 1.23043 0.568062 1.29067 0.534568 1.38892 0.538897 1.41768 0.571056 1.41768 0.635991 1.45692 0.63007 1.38892 0.66815 1.33688 0.641567 1.29067 0.672479 1.23043 0.638985 -0.233328 0.590902 -0.208939 0.668614 -0.237836 0.718303 -0.223591 0.52338 -0.24606 0.467885 -0.252091 0.517476 -0.24737 0.732894 -0.26706 0.466658 0.890963 0.552373 0.822102 0.671282 0.796378 0.594421 1.02036 0.665012 1.02036 0.492244 0.83197 0.500454 0.814174 0.547438 0.23742 0.717992 0.23742 0.662942 0.23742 0.567603 0.23742 0.567603 0.23742 0.662942 0.23742 0.53377 0.23742 0.53377 1.45692 0.576977 -0.233328 0.590902 -0.237836 0.718303 -0.208939 0.668614 -0.223591 0.52338 -0.24606 0.467885 -0.252091 0.517476 -0.24737 0.732894 -0.26706 0.466658 0.890963 0.552373 0.796378 0.594421 0.822102 0.671282 1.02036 0.665012 1.02036 0.492244 0.83197 0.500454 0.814174 0.547438 0.824398 0.348991 0.791222 0.344757 0.821839 0.310314 0.857916 0.341756 0.858637 0.308356 0.842056 0.285364 0.794356 0.287175 0.791359 0.310529 0.792917 0.20483 0.792965 0.20483 0.786437 0.150696 0.817191 0.117657 0.822344 0.166888 0.829813 0.228246 0.879894 0.166197 0.902381 0.223367 0.946608 0.170707 0.91519 0.23808 0.946608 0.170707 0.94247 0.117833 0.942396 0.117833 0.799232 0.118403 0.817201 0.117657 0.822344 0.166888 0.901993 0.22689 0.829988 0.226659 1.22186 -0.089142 1.03318 -0.088979 1.19928 0.113691 1.12875 -0.120817 1.04423 0.113816 0.824398 0.348991 0.821839 0.310314 0.791222 0.344757 0.857916 0.341756 0.858637 0.308356 0.842056 0.285364 0.794356 0.287175 0.791359 0.310529 0.792917 0.20483 0.786437 0.150696 0.792965 0.20483 0.817191 0.117657 0.822344 0.166888 0.829813 0.228246 0.879894 0.166197 0.902381 0.223367 0.946608 0.170707 0.91519 0.23808 0.946608 0.170707 0.94247 0.117833 0.942396 0.117833 0.799232 0.118403 0.817201 0.117657 0.822344 0.166888 0.901993 0.22689 0.829988 0.226659 1.22186 -0.089142 1.19928 0.113691 1.03318 -0.088979 1.12875 -0.120817 1.04423 0.113816 0.160083 0.350901 0.16077 0.316129 0.200842 0.350901 0.127319 0.322506 0.126751 0.350901 0.088915 0.322506 0.091191 0.350901 0.04841 0.350901 0.04841 0.322506 0.073204 0.264314 0.146142 0.295697 0.197383 0.302043 0.146142 0.295697 0.088915 0.322506 0.091191 0.350901 0.04841 0.412148 0.094103 0.412148 0.126751 0.350901 0.127319 0.322506 0.160083 0.350901 0.16077 0.316129 0.200842 0.350901 0.203793 0.296942 0.267915 0.106616 0.439603 0.193116 0.294631 0.246933 0.465141 0.021152 0.267915 0.021295 0.543739 0.021152 0.504209 0.164275 0.504209 0.164275 0.57037 0.189481 0.638184 0.020947 0.634808 0.259538 0.638184 0.020947 0.57037 0.189481 0.543739 0.021152 0.504209 0.164275 0.465141 0.021152 0.439603 0.193116 0.267915 0.106616 0.267915 0.021295 0.294631 0.246933 0.438669 0.262526 0.209568 0.457407 0.438669 0.262526 0.294631 0.246933 -0.246125 0.182268 -0.255473 0.080411 0.000339 0.162205 0.000339 0.045884 -0.255473 0.080411 -0.246125 0.182268 0.571674 0.24501 0.571674 0.24501 0.431676 0.620024 0.501464 0.494386 0.501464 0.625769 0.431676 0.659914 0.501464 0.625769 0.501464 0.494386 0.431676 0.494505 0.094103 0.412148 0.339077 0.616845 0.339077 0.616412 0.339077 0.513787 0.339077 0.567548 0.339077 0.617005 0.339077 0.6168 0.339077 0.558533 0.339077 0.616412 0.339077 0.513564 0.622245 0.446285 0.622245 0.451528 0.622245 0.460875 0.622245 0.397347 0.622245 0.397871 0.622245 0.39191 0.622245 0.39191 0.622245 0.39191 0.622245 0.396585 0.622245 0.39191 0.622245 0.397775 0.622245 0.43866 0.622245 0.445205 0.622245 0.450562 0.60638 0.880064 0.404904 0.788105 0.680343 0.821696 0.171412 0.888471 0.205381 0.744786 0.576168 0.730998 0.344614 0.711542 0.570737 0.457041 0.570737 0.433388 0.570737 0.456901 0.570737 0.406355 0.570737 0.403098 0.570737 0.428568 0.570737 0.447534 0.007952 0.5444 0.040198 0.630898 -0.073696 0.551721 -0.057092 0.693717 -0.185021 0.601695 -0.155525 0.689005 0.030334 0.61322 0.154537 0.561214 0.109401 0.684374 0.058061 0.685791 0.019822 0.621635 0.025266 0.56735 0.173897 0.642368 0.21113 0.952875 0.589306 0.962184 0.622245 0.39191</float_array>
          <technique_common>
            <accessor source="#GeometrySource2-array" count="359" stride="2">
              <param name="S" type="float"/>
              <param name="T" type="float"/>
            </accessor>
          </technique_common>
        </source>
        <source id="GeometrySource3" name="mesh_0_Clr">
          <float_array id="GeometrySource3-array" count="1436">1 1 1 1 1 1 1 1 1 1 1 1 0.890196 0.890196 0.890196 1 0.870588 0.870588 0.870588 1 0.756863 0.564706 0.564706 1 0.756863 0.564706 0.564706 1 0.756863 0.564706 0.564706 1 1 1 1 1 0.756863 0.564706 0.564706 1 0.854902 0.854902 0.854902 1 1 1 1 1 1 1 1 1 1 1 1 1 0.537255 0.380392 0.380392 1 1 1 1 1 0.537255 0.380392 0.380392 1 1 1 1 1 0.537255 0.380392 0.380392 1 0.537255 0.380392 0.380392 1 1 1 1 1 0.537255 0.380392 0.380392 1 1 1 1 1 1 1 1 1 1 1 1 1 0.694118 0.388235 0.313726 1 1 1 1 1 1 1 1 1 0.756863 0.564706 0.564706 1 0.756863 0.564706 0.564706 1 0.756863 0.564706 0.564706 1 0.756863 0.564706 0.564706 1 0.960784 0.960784 0.960784 1 1 1 1 1 1 1 1 1 0.937255 0.937255 0.937255 1 0.756863 0.564706 0.564706 1 0.756863 0.564706 0.564706 1 1 1 1 1 0.756863 0.564706 0.564706 1 0.960784 0.960784 0.960784 1 1 1 1 1 1 1 1 1 0.94902 0.94902 0.94902 1 0.937255 0.937255 0.937255 1 1 1 1 1 0.756863 0.564706 0.564706 1 0.756863 0.564706 0.564706 1 1 1 1 1 1 1 1 1 1 1 1 1 1 1 1 1 0.756863 0.564706 0.564706 1 1 1 1 1 1 1 1 1 1 1 1 1 1 1 1 1 1 1 1 1 1 1 1 1 1 1 1 1 1 1 1 1 1 1 1 1 1 1 1 1 1 1 1 1 1 1 1 1 1 1 1 1 1 1 1 1 0.517647 0.482353 0.443137 1 0.87451 0.835294 0.8 1 0.87451 0.835294 0.8 1 0.517647 0.482353 0.443137 1 0.87451 0.835294 0.8 1 1 1 1 1 1 1 1 1 1 1 1 1 1 1 1 1 1 1 1 1 1 1 1 1 0.87451 0.835294 0.8 1 0.517647 0.482353 0.443137 1 0.494118 0.458824 0.423529 1 0.207843 0.172549 0.133333 1 0.647059 0.486275 0.411765 1 0.517647 0.482353 0.443137 1 0.517647 0.482353 0.443137 1 0.517647 0.482353 0.443137 1 0.517647 0.482353 0.443137 1 0.517647 0.482353 0.443137 1 0.505882 0.466667 0.431373 1 0.87451 0.835294 0.8 1 0.494118 0.458824 0.423529 1 0.87451 0.835294 0.8 1 1 1 1 1 1 1 1 1 1 1 1 1 1 1 1 1 1 1 1 1 1 1 1 1 1 1 1 1 0.87451 0.835294 0.8 1 0.87451 0.835294 0.8 1 0.505882 0.466667 0.431373 1 0.647059 0.486275 0.411765 1 0.87451 0.835294 0.8 1 0.517647 0.482353 0.443137 1 0.87451 0.835294 0.8 1 1 1 1 1 1 1 1 1 0.87451 0.835294 0.8 1 1 1 1 1 1 1 1 1 1 1 1 1 1 1 1 1 1 1 1 1 0.494118 0.458824 0.423529 1 0.517647 0.482353 0.443137 1 0.87451 0.835294 0.8 1 0.87451 0.835294 0.8 1 0.517647 0.482353 0.443137 1 1 1 1 1 1 1 1 1 0.87451 0.835294 0.8 1 1 1 1 1 1 1 1 1 1 1 1 1 1 1 1 1 1 1 1 1 0.505882 0.466667 0.431373 1 0.517647 0.482353 0.443137 1 1 1 1 1 0.521569 0.266667 0.266667 1 0.745098 0.486275 0.486275 1 0.576471 0.207843 0.074509 1 0.890196 0.635294 0.635294 1 1 1 1 1 1 1 1 1 0.701961 0.443137 0.443137 1 0.701961 0.443137 0.443137 1 1 1 0.972549 1 1 1 1 1 0.521569 0.266667 0.266667 1 1 1 1 1 0.890196 0.635294 0.635294 1 0.901961 0.72549 0.643137 1 0.576471 0.14902 0.011764 1 0.576471 0.14902 0.011764 1 1 1 1 1 1 1 1 1 1 1 1 1 0.576471 0.14902 0.011764 1 1 1 1 1 1 1 1 1 1 1 1 1 0.992157 1 1 1 1 1 1 1 1 1 1 1 0.890196 0.635294 0.635294 1 1 0.854902 0.854902 1 0.576471 0.14902 0.011764 1 0.576471 0.14902 0.011764 1 1 1 0.972549 1 1 1 0.972549 1 0.576471 0.14902 0.011764 1 1 1 1 1 1 1 1 1 1 1 0.972549 1 0.901961 0.72549 0.643137 1 0.576471 0.14902 0.011764 1 0.576471 0.14902 0.011764 1 1 1 1 1 1 1 1 1 1 1 1 1 0.576471 0.14902 0.011764 1 1 1 1 1 1 1 1 1 1 1 1 1 1 1 1 1 1 1 1 1 1 1 1 1 0.890196 0.635294 0.635294 1 1 0.854902 0.854902 1 0 0 0 1 0.141177 0.078431 0 1 0.141177 0.078431 0 1 0.580392 0.517647 0.439216 1 0.592157 0.529412 0.45098 1 0.643137 0.580392 0.501961 1 0.54902 0.490196 0.411765 1 0.164706 0.105882 0.023529 1 0.643137 0.580392 0.501961 1 0.54902 0.490196 0.411765 1 0.992157 0.992157 0.992157 1 1 1 1 1 0.831373 0.768628 0.690196 1 0.592157 0.529412 0.45098 1 0.831373 0.768628 0.690196 1 0.580392 0.517647 0.439216 1 0.831373 0.768628 0.690196 1 0 0 0 1 0.756863 0.694118 0.615686 1 1 1 1 1 1 1 1 1 1 1 1 1 1 1 1 1 0.772549 0.772549 0.772549 1 0.141177 0.078431 0 1 0.164706 0.105882 0.023529 1 1 1 1 1 1 1 1 1 1 1 1 1 1 1 1 1 1 1 1 1 0 0 0 1 0.141177 0.078431 0 1 0.141177 0.078431 0 1 0.588235 0.52549 0.447059 1 0.592157 0.529412 0.45098 1 0.635294 0.572549 0.494118 1 0.541176 0.478431 0.4 1 0.164706 0.105882 0.023529 1 0.635294 0.572549 0.494118 1 1 1 1 1 0.541176 0.478431 0.4 1 1 1 1 1 0.831373 0.768628 0.690196 1 0.592157 0.529412 0.45098 1 0.831373 0.768628 0.690196 1 0.588235 0.52549 0.447059 1 0.831373 0.768628 0.690196 1 0 0 0 1 0.752941 0.690196 0.611765 1 1 1 1 1 1 1 1 1 1 1 1 1 1 1 1 1 0.776471 0.776471 0.776471 1 0.141177 0.078431 0 1 0.164706 0.105882 0.023529 1 1 1 1 1 1 1 1 1 1 1 1 1 1 1 1 1 1 1 1 1 1 1 1 1 1 1 1 1 1 1 1 1 1 1 1 1 1 1 1 1 0.921569 0.866667 0.788235 1 1 1 1 1 1 1 1 1 0.866667 0.815686 0.745098 1 0.443137 0.407843 0.356863 1 0.54902 0.513726 0.466667 1 0.619608 0.584314 0.541176 1 0.54902 0.513726 0.466667 1 0.921569 0.866667 0.788235 1 1 1 1 1 1 1 1 1 1 1 1 1 1 1 1 1 1 1 1 1 1 1 1 1 1 1 1 1 1 1 1 1 0.619608 0.584314 0.541176 1 1 1 1 1 0.313726 0.301961 0.282353 1 0.321569 0.176471 0.101961 1 1 1 1 1 1 1 1 1 1 1 1 1 0.152941 0.152941 0.152941 1 0.141177 0.141177 0.141177 1 0.352941 0.352941 0.352941 1 1 1 1 1 0.164706 0.164706 0.168628 1 1 1 1 1 0.352941 0.352941 0.352941 1 1 1 1 1 0.141177 0.141177 0.141177 1 1 1 1 1 0.313726 0.301961 0.282353 1 1 1 1 1 1 1 1 1 0.321569 0.176471 0.101961 1 0.313726 0.313726 0.313726 1 0.294118 0.031372 0.031372 1 0.313726 0.313726 0.313726 1 0.32549 0.180392 0.101961 1 0.313726 0.313726 0.313726 1 0.313726 0.313726 0.313726 1 0.294118 0.031372 0.031372 1 0.164706 0.164706 0.168628 1 0.313726 0.313726 0.313726 1 0.313726 0.313726 0.313726 1 0.313726 0.313726 0.313726 1 0.313726 0.313726 0.313726 1 0.466667 0.188235 0.035294 1 1 1 1 1 0.32549 0.180392 0.101961 1 0.294118 0.031372 0.031372 1 0.321569 0.176471 0.101961 1 1 1 1 1 1 1 1 1 1 1 1 1 0.537255 0.380392 0.380392 1 0.537255 0.380392 0.380392 1 1 1 1 1 1 1 1 1 0.537255 0.380392 0.380392 1 0.537255 0.380392 0.380392 1 1 1 1 1 0.537255 0.380392 0.380392 1 1 1 1 1 1 1 1 1 1 1 1 1 1 1 1 1 0.905882 0.905882 0.905882 1 0.890196 0.890196 0.890196 1 0.756863 0.564706 0.564706 1 0.756863 0.564706 0.564706 1 0.756863 0.564706 0.564706 1 1 1 1 1 0.756863 0.564706 0.564706 1 0.858823 0.858823 0.858823 1 1 1 1 1 1 1 1 1 1 1 1 1 1 1 1 1 0.486275 0.486275 0.486275 1 1 1 1 1 1 1 1 1 1 1 1 1 0.756863 0.564706 0.564706 1 0.756863 0.564706 0.564706 1 0.756863 0.564706 0.564706 1 0.956863 0.956863 0.956863 1 0.756863 0.564706 0.564706 1 1 1 1 1 1 1 1 1 0.94902 0.94902 0.94902 1 0.756863 0.564706 0.564706 1 0.756863 0.564706 0.564706 1 0.756863 0.564706 0.564706 1 1 1 1 1 0.956863 0.956863 0.956863 1 1 1 1 1 1 1 1 1 0.960784 0.960784 0.960784 1 1 1 1 1 0.94902 0.94902 0.94902 1 0.756863 0.564706 0.564706 1 0.756863 0.564706 0.564706 1 1 1 1 1 1 1 1 1 1 1 1 1 1 1 1 1 0.756863 0.564706 0.564706 1</float_array>
          <technique_common>
            <accessor source="#GeometrySource3-array" count="359" stride="4">
              <param name="R" type="float"/>
              <param name="G" type="float"/>
              <param name="B" type="float"/>
              <param name="A" type="float"/>
            </accessor>
          </technique_common>
        </source>
        <vertices id="Geometry-vertices">
          <input semantic="POSITION" source="#GeometrySource"/>
          <input semantic="NORMAL" source="#GeometrySource1"/>
          <input semantic="TEXCOORD" source="#GeometrySource2"/>
          <input semantic="COLOR" source="#GeometrySource3"/>
        </vertices>
        <triangles material="VisualMaterial0" count="374">
          <input semantic="VERTEX" source="#Geometry-vertices" offset="0"/>
          <p>0 1 2 3 0 2 3 2 4 3 4 5 6 3 5 7 3 6 7 8 3 0 3 8 8 7 9 8 9 10 11 8 10 0 8 11 0 11 12 4 2 13 1 13 2 11 10 13 12 11 13 4 13 10 14 15 16 14 17 15 14 18 17 17 18 19 20 17 19 21 20 19 22 20 21 16 22 21 16 15 22 23 24 25 25 26 23 25 27 26 25 24 28 27 25 28 28 29 27 30 31 32 32 33 30 33 34 30 30 34 35 36 30 35 37 38 39 38 40 39 40 38 41 41 42 40 43 44 45 43 46 44 47 46 43 48 47 43 43 45 48 44 49 45 50 23 51 23 26 51 9 52 10 5 4 52 4 10 52 53 54 55 56 54 53 57 54 56 58 57 56 56 59 58 60 56 53 60 59 56 60 61 59 59 62 58 62 59 61 63 58 62 58 64 57 64 58 63 57 64 54 65 64 63 65 66 64 66 55 54 66 54 64 67 68 69 68 67 70 68 70 71 72 68 71 73 68 72 68 73 69 73 74 69 72 75 73 73 75 74 76 75 72 74 75 77 74 78 69 69 78 79 69 79 67 80 81 82 83 81 80 84 81 83 85 81 84 85 86 81 86 87 81 88 82 81 87 88 81 89 90 91 92 89 91 92 91 93 92 93 94 92 94 95 96 95 94 97 96 94 94 98 97 94 93 98 98 93 99 93 91 99 98 99 100 100 99 101 91 102 99 101 99 102 90 102 91 103 104 105 106 103 105 107 103 106 107 108 103 108 104 103 109 108 107 107 110 109 107 111 110 106 111 107 106 112 111 106 105 113 106 113 112 104 114 105 115 104 108 116 117 118 119 117 116 120 119 116 120 116 121 121 116 118 122 120 121 123 120 122 123 124 120 120 124 119 119 124 125 119 126 117 119 125 126 118 117 127 128 121 118 65 63 129 129 63 62 130 131 132 131 130 133 133 130 134 134 130 135 130 136 135 132 136 130 137 136 132 137 138 136 137 139 138 137 132 140 140 132 131 140 139 137 141 139 140 142 141 140 131 142 140 143 144 145 146 144 143 147 146 143 147 143 148 143 145 148 148 145 149 150 148 149 151 152 153 151 154 152 151 155 154 156 155 151 151 157 156 151 153 157 158 159 160 158 160 161 158 161 162 161 163 162 160 159 164 136 165 135 138 165 136 166 167 168 169 166 168 170 166 169 170 171 166 166 171 167 172 167 171 173 172 171 174 175 176 174 176 177 174 177 178 179 174 178 174 179 180 174 180 175 181 182 183 184 181 183 184 183 185 186 185 183 186 183 187 183 188 187 183 182 188 189 190 191 189 191 192 189 192 193 194 189 193 193 192 195 194 193 195 196 194 195 196 195 197 197 198 196 199 198 197 200 199 197 195 192 201 195 201 197 201 200 197 192 191 202 202 191 203 191 190 203 204 200 203 204 199 200 203 190 204 199 205 198 204 205 199 206 204 190 206 205 204 207 208 209 207 210 208 208 211 209 212 213 214 215 213 212 215 216 213 217 213 216 217 218 213 213 218 219 213 219 214 220 221 222 220 223 221 220 224 223 225 224 220 224 226 223 225 226 224 227 226 225 227 228 226 228 227 229 230 228 229 228 230 231 226 228 232 232 228 231 226 232 223 223 233 221 221 234 222 233 234 221 235 234 231 235 231 230 234 235 222 230 229 236 235 230 236 237 235 236 237 222 235 238 239 240 238 240 241 239 242 240 243 244 245 246 244 243 247 246 243 248 246 247 249 248 247 248 249 250 251 248 250 252 248 251 248 253 246 253 244 246 248 252 253 252 254 253 245 244 254 254 244 253 252 255 254 252 251 256 256 255 252 251 250 256 250 257 256 257 250 258 258 250 249 259 257 258 257 260 256 256 261 255 260 261 256 260 262 261 255 261 263 262 263 261 254 255 263 263 264 254 262 264 263 245 265 264 266 267 268 269 267 266 269 266 270 269 271 272 269 273 267 271 274 273 274 271 275 275 276 274 276 275 277 277 278 276 278 277 279 279 280 278 281 280 279 281 282 280 281 283 282 281 284 283 283 285 282 285 286 282 285 287 286 268 267 288 289 288 287 290 291 292 293 292 291 293 294 292 295 292 294 296 274 276 297 276 278 298 299 300 300 301 298 302 298 301 298 302 303 304 299 298 304 298 303 305 258 249 306 307 308 306 308 309 306 309 310 309 311 310 312 311 309 313 311 312 307 313 314 307 314 308 314 313 312 315 316 317 318 316 315 318 319 316 320 319 318 321 320 318 322 321 318 322 318 323 315 323 318 323 324 322 323 325 324 326 325 323 315 326 323 315 327 326 319 325 328 319 328 316 317 316 328 327 328 326 326 328 325 329 330 331 330 329 332 330 332 333 330 334 331 333 334 330 334 333 335 336 337 338 337 336 339 339 336 340 336 341 340 342 341 336 343 344 345 345 344 346 346 347 345 347 346 348 349 350 351 349 351 352 353 349 352 349 354 350 354 349 353 351 350 355 329 356 332 357 356 329 358 325 319 325 358 324 320 358 319</p>
        </triangles>
      </mesh>
    </geometry>
    <geometry id="Geometry1" name="mesh_1_">
      <mesh>
        <source id="GeometrySource4" name="mesh_1_Pos">
          <float_array id="GeometrySource4-array" count="45">-0.000019 6.12871 1.33595 -0.000013 4.47597 1.79037 0.882873 5.95118 1.05685 -0.882911 5.95117 1.05685 -0.925609 4.46788 1.42048 -0.76418 3.88119 1.54534 -0.000011 3.88144 1.79397 -0.73248 3.55254 1.38189 -0.000009 3.42935 1.56757 -0.000008 3.17122 1.21929 -0.776003 3.32444 1.06134 0.775985 3.32445 1.06134 0.73246 3.55255 1.38189 0.764158 3.8812 1.54534 0.925583 4.46789 1.42048</float_array>
          <technique_common>
            <accessor source="#GeometrySource4-array" count="15" stride="3">
              <param name="X" type="float"/>
              <param name="Y" type="float"/>
              <param name="Z" type="float"/>
            </accessor>
          </technique_common>
        </source>
        <source id="GeometrySource5" name="mesh_1_Nrm">
          <float_array id="GeometrySource5-array" count="45">0.966366 0 -0.25717 0.992539 0 -0.121928 0.796711 -0.563625 -0.218125 0.796711 0.563625 -0.218125 0.794644 0.598118 -0.103899 0.873174 0.459075 0.163762 0.972533 0 0.232764 0.672752 0.394803 0.625728 0.762443 0 0.647056 0.409161 0 0.912462 0.346419 0.478091 0.807108 0.346419 -0.478091 0.807108 0.672752 -0.394803 0.625728 0.873174 -0.459075 0.163762 0.794644 -0.598118 -0.103899</float_array>
          <technique_common>
            <accessor source="#GeometrySource5-array" count="15" stride="3">
              <param name="X" type="float"/>
              <param name="Y" type="float"/>
              <param name="Z" type="float"/>
            </accessor>
          </technique_common>
        </source>
        <source id="GeometrySource6" name="mesh_1_UV">
          <float_array id="GeometrySource6-array" count="30">1.02599 0.980821 1.02599 0.49129 1.90873 0.949585 1.90873 0.949585 1.91285 0.490762 1.79568 0.277869 1.02599 0.294443 1.76964 0.148776 1.02599 0.128859 1.02599 0.001455 1.82963 0.033535 1.82963 0.033535 1.76964 0.148776 1.79568 0.277869 1.91285 0.490762</float_array>
          <technique_common>
            <accessor source="#GeometrySource6-array" count="15" stride="2">
              <param name="S" type="float"/>
              <param name="T" type="float"/>
            </accessor>
          </technique_common>
        </source>
        <source id="GeometrySource7" name="mesh_1_Clr">
          <float_array id="GeometrySource7-array" count="60">0.576471 0.14902 0.011764 1 1 1 1 1 0.576471 0.14902 0.011764 1 0.576471 0.14902 0.011764 1 1 1 1 1 1 1 1 1 1 1 1 1 1 0.854902 0.854902 1 1 0.776471 0.776471 1 0.745098 0.486275 0.486275 1 0.890196 0.635294 0.635294 1 0.890196 0.635294 0.635294 1 1 0.854902 0.854902 1 0.992157 1 1 1 1 1 1 1</float_array>
          <technique_common>
            <accessor source="#GeometrySource7-array" count="15" stride="4">
              <param name="R" type="float"/>
              <param name="G" type="float"/>
              <param name="B" type="float"/>
              <param name="A" type="float"/>
            </accessor>
          </technique_common>
        </source>
        <vertices id="Geometry1-vertices">
          <input semantic="POSITION" source="#GeometrySource4"/>
          <input semantic="NORMAL" source="#GeometrySource5"/>
          <input semantic="TEXCOORD" source="#GeometrySource6"/>
          <input semantic="COLOR" source="#GeometrySource7"/>
        </vertices>
        <triangles material="VisualMaterial10" count="16">
          <input semantic="VERTEX" source="#Geometry1-vertices" offset="0"/>
          <p>0 1 2 0 3 1 3 4 1 5 1 4 5 6 1 5 7 6 7 8 6 7 9 8 7 10 9 9 11 12 9 12 8 8 12 6 12 13 6 13 1 6 13 14 1 1 14 2</p>
        </triangles>
      </mesh>
    </geometry>
  </library_geometries>
  <library_controllers>
    <controller id="Controller">
      <skin source="#Geometry">
        <bind_shape_matrix>1 0 0 0 0 1 0 0 0 0 1 0 0 0 0 1</bind_shape_matrix>
        <source id="Controller-joints">
          <Name_array id="Controller-joints-array" count="11">wristL armL2 armL1 wristR armR2 armR1 head spine waist skl_root all_root</Name_array>
          <technique_common>
            <accessor source="#Controller-joints-array" count="11" stride="1">
              <param name="JOINT" type="Name"/>
            </accessor>
          </technique_common>
        </source>
        <source id="Controller-bind_poses">
          <float_array id="Controller-bind_poses-array" count="176">1 0 0 -3.28499 0 1 0 -2.76889 0 0 1 0 0 0 0 1 1 0 0 -2.28999 0 1 0 -2.76889 0 0 1 0 0 0 0 1 1 0 0 -1.20999 0 1 0 -2.76889 0 0 1 0 0 0 0 1 -0.998245 -0.000007 -0.059227 -3.2827 -0.000007 1 -0.000002 -2.76847 0.059227 -0.000002 -0.998245 0.097776 0 0 0 1 -0.998911 -0.000007 -0.046663 -2.28867 -0.000007 1 -0.000002 -2.76847 0.046663 -0.000002 -0.998911 0.056469 0 0 0 1 -0.998911 -0.000007 -0.046663 -1.20867 -0.000007 1 -0.000002 -2.76847 0.046663 -0.000002 -0.998911 0.056469 0 0 0 1 0 -0.000003 1 0.000012 -1 -0.000003 0 0.000002 0.000003 -1 -0.000003 3.3559 0 0 0 1 -0.000003 1 0 -0.817998 -1 -0.000003 0 0.000002 0 0 1 0 0 0 0 1 -0.000003 0 1 -0.03039 0 1 0 -1.17 -1 0 -0.000003 0 0 0 0 1 1 0 0 0 0 1 0 0 0 0 1 0 0 0 0 1 1 0 0 0 0 1 0 0 0 0 1 0 0 0 0 1</float_array>
          <technique_common>
            <accessor source="#Controller-bind_poses-array" count="11" stride="16">
              <param name="TRANSFORM" type="float4x4"/>
            </accessor>
          </technique_common>
        </source>
        <source id="Controller-weights">
          <float_array id="Controller-weights-array" count="1">1</float_array>
          <technique_common>
            <accessor source="#Controller-weights-array" count="1" stride="1">
              <param name="WEIGHT" type="float"/>
            </accessor>
          </technique_common>
        </source>
        <joints>
          <input semantic="JOINT" source="#Controller-joints"/>
          <input semantic="INV_BIND_MATRIX" source="#Controller-bind_poses"/>
        </joints>
        <vertex_weights count="359">
          <input semantic="JOINT" source="#Controller-joints" offset="0"/>
          <input semantic="WEIGHT" source="#Controller-weights" offset="1"/>
          <vcount>1 1 1 1 1 1 1 1 1 1 1 1 1 1 1 1 1 1 1 1 1 1 1 1 1 1 1 1 1 1 1 1 1 1 1 1 1 1 1 1 1 1 1 1 1 1 1 1 1 1 1 1 1 1 1 1 1 1 1 1 1 1 1 1 1 1 1 1 1 1 1 1 1 1 1 1 1 1 1 1 1 1 1 1 1 1 1 1 1 1 1 1 1 1 1 1 1 1 1 1 1 1 1 1 1 1 1 1 1 1 1 1 1 1 1 1 1 1 1 1 1 1 1 1 1 1 1 1 1 1 1 1 1 1 1 1 1 1 1 1 1 1 1 1 1 1 1 1 1 1 1 1 1 1 1 1 1 1 1 1 1 1 1 1 1 1 1 1 1 1 1 1 1 1 1 1 1 1 1 1 1 1 1 1 1 1 1 1 1 1 1 1 1 1 1 1 1 1 1 1 1 1 1 1 1 1 1 1 1 1 1 1 1 1 1 1 1 1 1 1 1 1 1 1 1 1 1 1 1 1 1 1 1 1 1 1 1 1 1 1 1 1 1 1 1 1 1 1 1 1 1 1 1 1 1 1 1 1 1 1 1 1 1 1 1 1 1 1 1 1 1 1 1 1 1 1 1 1 1 1 1 1 1 1 1 1 1 1 1 1 1 1 1 1 1 1 1 1 1 1 1 1 1 1 1 1 1 1 1 1 1 1 1 1 1 1 1 1 1 1 1 1 1 1 1 1 1 1 1 1 1 1 1 1 1 1 1 1 1 1 1 1 1 1 1 1 1 1 1 1 1 1 1 1 1 1 1 1 1 </vcount>
          <v>5 0 5 0 4 0 4 0 4 0 3 0 3 0 3 0 4 0 3 0 4 0 4 0 5 0 5 0 7 0 5 0 7 0 5 0 7 0 7 0 5 0 7 0 5 0 3 0 3 0 3 0 3 0 3 0 3 0 3 0 3 0 3 0 3 0 3 0 3 0 3 0 3 0 3 0 3 0 3 0 3 0 3 0 3 0 3 0 3 0 3 0 3 0 3 0 3 0 3 0 3 0 3 0 3 0 6 0 6 0 6 0 6 0 6 0 6 0 6 0 6 0 6 0 6 0 6 0 6 0 6 0 6 0 6 0 6 0 6 0 6 0 6 0 6 0 6 0 6 0 6 0 6 0 6 0 6 0 6 0 6 0 6 0 6 0 6 0 6 0 6 0 6 0 6 0 6 0 6 0 6 0 6 0 6 0 6 0 6 0 6 0 6 0 6 0 6 0 6 0 6 0 6 0 6 0 6 0 6 0 6 0 6 0 6 0 6 0 6 0 6 0 6 0 6 0 6 0 6 0 6 0 6 0 6 0 6 0 6 0 6 0 6 0 6 0 6 0 6 0 6 0 6 0 6 0 6 0 6 0 6 0 6 0 6 0 6 0 6 0 6 0 6 0 6 0 6 0 6 0 6 0 6 0 6 0 6 0 6 0 6 0 6 0 6 0 6 0 6 0 6 0 6 0 6 0 6 0 6 0 6 0 6 0 6 0 6 0 6 0 6 0 6 0 6 0 6 0 6 0 6 0 6 0 6 0 6 0 6 0 6 0 6 0 6 0 6 0 6 0 6 0 6 0 6 0 6 0 6 0 6 0 8 0 8 0 8 0 8 0 8 0 8 0 8 0 8 0 8 0 8 0 8 0 8 0 8 0 8 0 8 0 8 0 8 0 8 0 8 0 8 0 8 0 8 0 8 0 8 0 8 0 8 0 8 0 8 0 8 0 8 0 8 0 8 0 8 0 8 0 8 0 8 0 8 0 8 0 8 0 8 0 8 0 8 0 8 0 8 0 8 0 8 0 8 0 8 0 8 0 8 0 8 0 8 0 8 0 8 0 8 0 8 0 8 0 8 0 8 0 8 0 8 0 8 0 7 0 9 0 7 0 9 0 7 0 9 0 7 0 7 0 9 0 9 0 9 0 9 0 9 0 9 0 7 0 7 0 7 0 7 0 9 0 7 0 9 0 7 0 9 0 7 0 7 0 7 0 7 0 7 0 7 0 7 0 7 0 7 0 7 0 7 0 7 0 7 0 7 0 7 0 7 0 7 0 7 0 7 0 7 0 7 0 7 0 7 0 7 0 7 0 7 0 7 0 7 0 7 0 7 0 7 0 7 0 7 0 7 0 7 0 7 0 7 0 7 0 7 0 7 0 7 0 7 0 2 0 2 0 7 0 7 0 2 0 7 0 2 0 2 0 1 0 2 0 1 0 1 0 0 0 0 0 0 0 1 0 0 0 1 0 1 0 2 0 2 0 0 0 0 0 0 0 0 0 0 0 0 0 0 0 0 0 0 0 0 0 0 0 0 0 0 0 0 0 0 0 0 0 0 0 0 0 0 0 0 0 0 0 0 0 0 0 0 0 0 0 0 0 0 0 0 0 0 0 0 0</v>
        </vertex_weights>
      </skin>
      <extra>
        <technique profile="FCOLLADA">
          <user_properties>SkinController</user_properties>
        </technique>
      </extra>
    </controller>
    <controller id="Controller1">
      <skin source="#Geometry1">
        <bind_shape_matrix>1 0 0 0 0 1 0 0 0 0 1 0 0 0 0 1</bind_shape_matrix>
        <source id="Controller1-joints">
          <Name_array id="Controller1-joints-array" count="11">wristL armL2 armL1 wristR armR2 armR1 head spine waist skl_root all_root</Name_array>
          <technique_common>
            <accessor source="#Controller1-joints-array" count="11" stride="1">
              <param name="JOINT" type="Name"/>
            </accessor>
          </technique_common>
        </source>
        <source id="Controller1-bind_poses">
          <float_array id="Controller1-bind_poses-array" count="176">1 0 0 -3.28499 0 1 0 -2.76889 0 0 1 0 0 0 0 1 1 0 0 -2.28999 0 1 0 -2.76889 0 0 1 0 0 0 0 1 1 0 0 -1.20999 0 1 0 -2.76889 0 0 1 0 0 0 0 1 -0.998245 -0.000007 -0.059227 -3.2827 -0.000007 1 -0.000002 -2.76847 0.059227 -0.000002 -0.998245 0.097776 0 0 0 1 -0.998911 -0.000007 -0.046663 -2.28867 -0.000007 1 -0.000002 -2.76847 0.046663 -0.000002 -0.998911 0.056469 0 0 0 1 -0.998911 -0.000007 -0.046663 -1.20867 -0.000007 1 -0.000002 -2.76847 0.046663 -0.000002 -0.998911 0.056469 0 0 0 1 0 -0.000003 1 0.000012 -1 -0.000003 0 0.000002 0.000003 -1 -0.000003 3.3559 0 0 0 1 -0.000003 1 0 -0.817998 -1 -0.000003 0 0.000002 0 0 1 0 0 0 0 1 -0.000003 0 1 -0.03039 0 1 0 -1.17 -1 0 -0.000003 0 0 0 0 1 1 0 0 0 0 1 0 0 0 0 1 0 0 0 0 1 1 0 0 0 0 1 0 0 0 0 1 0 0 0 0 1</float_array>
          <technique_common>
            <accessor source="#Controller1-bind_poses-array" count="11" stride="16">
              <param name="TRANSFORM" type="float4x4"/>
            </accessor>
          </technique_common>
        </source>
        <source id="Controller1-weights">
          <float_array id="Controller1-weights-array" count="1">1</float_array>
          <technique_common>
            <accessor source="#Controller1-weights-array" count="1" stride="1">
              <param name="WEIGHT" type="float"/>
            </accessor>
          </technique_common>
        </source>
        <joints>
          <input semantic="JOINT" source="#Controller1-joints"/>
          <input semantic="INV_BIND_MATRIX" source="#Controller1-bind_poses"/>
        </joints>
        <vertex_weights count="15">
          <input semantic="JOINT" source="#Controller1-joints" offset="0"/>
          <input semantic="WEIGHT" source="#Controller1-weights" offset="1"/>
          <vcount>1 1 1 1 1 1 1 1 1 1 1 1 1 1 1 </vcount>
          <v>6 0 6 0 6 0 6 0 6 0 6 0 6 0 6 0 6 0 6 0 6 0 6 0 6 0 6 0 6 0</v>
        </vertex_weights>
      </skin>
      <extra>
        <technique profile="FCOLLADA">
          <user_properties>SkinController</user_properties>
        </technique>
      </extra>
    </controller>
  </library_controllers>
  <library_visual_scenes>
    <visual_scene id="VisualSceneNode" name="rdmscene">
      <node id="VisualSceneNode1" name="all_root" sid="all_root" type="JOINT">
        <matrix>1 0 0 0 0 1 0 0 0 0 1 0 0 0 0 1</matrix>
        <node id="VisualSceneNode2" name="skl_root" sid="skl_root" type="JOINT">
          <matrix>1 0 0 0 0 1 0 0 0 0 1 0 0 0 0 1</matrix>
          <node id="VisualSceneNode3" name="spine" sid="spine" type="JOINT">
            <matrix>-0.000003 -1 0 0 1 -0.000003 0 0.817998 0 0 1 0 0 0 0 1</matrix>
            <node id="VisualSceneNode4" name="armL1" sid="armL1" type="JOINT">
              <matrix>-0.000003 1 0 1.95089 -1 -0.000003 0 -1.21 0 0 1 0 0 0 0 1</matrix>
              <node id="VisualSceneNode5" name="armL2" sid="armL2" type="JOINT">
                <matrix>1 0 0 1.08 0 1 0 0 0 0 1 0 0 0 0 1</matrix>
                <node id="VisualSceneNode6" name="wristL" sid="wristL" type="JOINT">
                  <matrix>1 0 0 0.995 0 1 0 0 0 0 1 0 0 0 0 1</matrix>
                </node>
              </node>
            </node>
            <node id="VisualSceneNode7" name="armR1" sid="armR1" type="JOINT">
              <matrix>-0.000003 1 -0.000002 1.95047 0.998911 0.000003 -0.046663 1.21 -0.046663 -0.000002 -0.998911 0 0 0 0 1</matrix>
              <node id="VisualSceneNode8" name="armR2" sid="armR2" type="JOINT">
                <matrix>1 0 0 1.08 0 1 0 0 0 0 1 0 0 0 0 1</matrix>
                <node id="VisualSceneNode9" name="wristR" sid="wristR" type="JOINT">
                  <matrix>0.999921 0 -0.01258 0.995001 0 1 0 0 0.01258 0 0.999921 0 0 0 0 1</matrix>
                </node>
              </node>
            </node>
            <node id="VisualSceneNode10" name="head" sid="head" type="JOINT">
              <matrix>-0.000003 0 -1 2.5379 0 1 0 0 1 0 -0.000003 0 0 0 0 1</matrix>
            </node>
          </node>
          <node id="VisualSceneNode11" name="waist" sid="waist" type="JOINT">
            <matrix>-0.000003 0 -1 0 0 1 0 1.17 1 0 -0.000003 0.03039 0 0 0 1</matrix>
          </node>
        </node>
      </node>
      <node id="VisualSceneNode12" name="mesh_0_" type="NODE">
        <matrix>1 0 0 0 0 1 0 0 0 0 1 0 0 0 0 1</matrix>
        <instance_controller url="#Controller">
          <skeleton>#VisualSceneNode1</skeleton>
          <bind_material>
            <technique_common>
              <instance_material symbol="VisualMaterial0" target="#VisualMaterial"/>
            </technique_common>
          </bind_material>
        </instance_controller>
      </node>
      <node id="VisualSceneNode13" name="mesh_1_" type="NODE">
        <matrix>1 0 0 0 0 1 0 0 0 0 1 0 0 0 0 1</matrix>
        <instance_controller url="#Controller1">
          <skeleton>#VisualSceneNode1</skeleton>
          <bind_material>
            <technique_common>
              <instance_material symbol="VisualMaterial10" target="#VisualMaterial1"/>
            </technique_common>
          </bind_material>
        </instance_controller>
      </node>
    </visual_scene>
  </library_visual_scenes>
  <scene>
    <instance_visual_scene url="#VisualSceneNode"/>
  </scene>
</COLLADA>
