# Wavefront OBJ file
# Exported by Misfit Model 3D 1.3.8
# Mon Sep 14 07:28:59 2015

mtllib yoshi.mtl

# 267 Vertices
v 0.646541 10.8436 1.218692
v 1.5808 10.35509 1.06812
v 1.135797 11.11936 0.874155
v 0.509244 11.20635 0.632178
v -0.000032 10.81719 0.470051
v -0.000029 10.12869 0.98656
v 0.605991 9.782776 1.488408
v 1.633383 9.456242 1.135767
v 1.217356 8.60405 1.273214
v -0.000025 8.908966 1.248145
v 1.849292 9.639916 0.073025
v 1.612988 10.69079 0.087892
v 1.737265 8.791325 0.524169
v -0.646605 10.84359 1.218692
v -1.135863 11.11935 0.874155
v -1.58086 10.35508 1.06812
v -0.50931 11.20635 0.632178
v -0.606047 9.782772 1.488408
v -1.633437 9.45623 1.135767
v -1.217404 8.60404 1.273214
v -1.849348 9.639902 0.073025
v -1.613051 10.69077 0.087892
v -1.737315 8.791311 0.524169
v 1.947523 2.39607 2.048747
v 1.939428 2.527763 0.72484
v 0.81223 1.390891 1.623393
v 2.815846 1.458212 1.11133
v 2.27086 1.678758 -0.107659
v 1.77393 0.18013 -0.075228
v 2.539047 0.401597 0.949594
v 0.889768 0.536128 0.929357
v -2.883034 1.458212 1.11131
v -1.939432 2.527749 0.72484
v -2.270859 1.678758 -0.107675
v -1.947537 2.39607 2.048733
v -0.812242 1.390891 1.623387
v -0.000013 5.51398 0.112841
v 1.40232 4.806665 0.092996
v -0.00001 4.87629 -0.53364
v -1.40234 4.806655 0.092996
v -1.053128 4.171696 -0.734096
v 1.053112 4.171704 -0.734096
v 1.418492 4.128135 1.02914
v -0.000009 4.36818 1.60265
v -1.418508 4.128125 1.02914
v -0.000003 2.769287 2.4274
v 1.563436 3.114275 1.70371
v 2.079165 3.273247 0.614226
v 1.98907 1.16765 1.78432
v 2.54419 1.6835 -0.160437
v 1.79843 -0.258341 0.847972
v 1.72883 0.203118 -0.665449
v -0.0 -0.285512 -1.32851
v -0.0 -0.471941 1.2975
v -0.0 0.917898 2.4591
v -1.98907 1.16765 1.78432
v -1.79843 -0.258341 0.847972
v -1.72883 0.203118 -0.665449
v -2.54419 1.6835 -0.160437
v -2.079175 3.273232 0.614226
v -1.563444 3.114264 1.70371
v -0.000005 3.48081 -2.46509
v -0.000008 4.12584 -1.92599
v 0.763327 3.808843 -1.95223
v 0.763331 2.94327 -2.34683
v 1.085644 3.707664 -0.943171
v -0.000008 4.31905 -1.10508
v -0.76334 3.808837 -1.95223
v -0.763337 2.943264 -2.34683
v -1.086006 3.707376 -0.943432
v -1.080802 2.421777 -1.57644
v -0.000002 2.637123 -2.47086
v 0.0 1.98482 -1.99578
v 1.080799 2.421785 -1.57644
v 1.413569 2.241656 -1.48568
v -0.0 2.031247 0.276734
v 0.000001 1.689223 -2.03712
v -0.000004 3.23823 -1.94524
v 1.378333 3.877255 -0.786111
v -0.00001 4.6283 -0.887289
v -1.378347 3.877245 -0.786111
v -1.413571 2.241646 -1.48568
v 2.810861 1.406528 5.25404
v 2.186738 -0.93688 3.430038
v 2.878765 1.75229 4.240601
v 1.867683 2.35656 4.813147
v 0.78229 1.558765 5.256553
v 0.735932 1.903757 4.268773
v 0.700135 -0.8355 3.439003
v 0.967817 -0.07083 2.346234
v 1.478421 -0.75429 2.602855
v 2.275781 -0.16523 2.344718
v 1.909937 2.082234 3.690167
v 1.793762 0.878834 2.179876
v 0.946723 -0.159033 2.062163
v 0.655742 1.038913 2.614042
v 2.170343 -0.400343 1.953158
v 3.008911 0.566851 2.400811
v 2.008019 2.043598 2.996347
v 1.831567 0.447642 3.639057
v 1.158891 0.791685 2.551094
v 1.88125 1.529385 2.876427
v 1.897412 -0.12137 2.297377
v 2.670811 0.717157 2.53518
v -2.810899 1.406528 5.25402
v -2.878795 1.75229 4.24058
v -2.186762 -0.93688 3.430022
v -1.867717 2.35656 4.813133
v -0.782328 1.558765 5.256547
v -0.735963 1.903757 4.268767
v -0.700159 -0.8355 3.438997
v -0.967834 -0.07083 2.346226
v -1.478439 -0.75429 2.602845
v -2.275799 -0.16523 2.344702
v -1.909963 2.082234 3.690153
v -1.793778 0.878834 2.179863
v -0.655761 1.038913 2.614038
v -0.946738 -0.159033 2.062157
v -2.170357 -0.400343 1.953142
v -3.008929 0.566851 2.400789
v -2.008041 2.043599 2.996333
v -1.831593 0.447642 3.639043
v -1.158909 0.791685 2.551086
v -1.88127 1.529385 2.876413
v -0.889774 0.536128 0.929351
v -1.897428 -0.12137 2.297363
v -2.539053 0.401597 0.949576
v -2.670829 0.717157 2.53516
v -1.77393 0.18013 -0.075241
v 3.125823 3.331024 -0.105538
v 1.756505 3.411716 -0.500456
v 2.855563 4.018808 0.809164
v 3.208493 3.998056 0.721072
v 4.442453 3.414758 0.387001
v 4.440343 3.944175 0.817237
v 4.686718 3.947667 0.83647
v 4.686718 3.341021 0.534511
v 4.686718 3.313743 -0.643708
v 4.428673 3.953829 -0.741549
v 4.686718 4.063985 -0.83315
v 4.686718 4.712241 -0.093358
v 4.413543 4.665157 -0.153762
v 3.047673 4.637452 -0.169522
v 2.782433 3.949646 -0.742032
v 3.122133 3.926804 -0.673491
v 6.947753 3.506975 -1.13201
v 6.511143 2.889086 0.329165
v 5.826533 3.1234 -1.10057
v 7.234133 3.511565 0.208183
v 6.650903 4.586095 -1.27768
v 6.685973 4.696816 1.30492
v 6.964893 3.49831 1.17387
v 6.225833 3.09389 1.20456
v 5.692263 2.517306 1.12662
v 5.668813 4.32504 -1.2475
v 5.631723 4.499251 1.34793
v 5.487785 3.267623 1.51666
v 1.59471 7.50469 1.40435
v 1.552507 6.567634 1.50628
v 2.723641 7.279028 0.409611
v 1.509346 8.52227 -1.288216
v 2.259451 7.139434 -1.621751
v 2.301404 5.626808 -0.019987
v 1.082127 5.290597 1.279351
v 0.653842 5.51676 1.845661
v -0.000012 5.166468 1.958788
v -0.000013 5.137475 1.442027
v -0.000009 4.523913 0.145238
v 1.120984 4.89363 -0.449604
v 1.894706 5.920992 -1.467996
v 1.134972 7.078879 1.323448
v -0.000017 6.650858 0.424937
v 1.175137 6.505692 1.655431
v 0.5376 5.6694 2.054267
v -0.000012 5.390635 2.15621
v -0.653866 5.516759 1.845663
v -0.537624 5.669399 2.054269
v -1.552533 6.567633 1.506286
v -1.175163 6.505691 1.655435
v -1.59475 7.504679 1.40435
v -1.135008 7.078871 1.323448
v -0.000011 5.012593 -1.357589
v -1.121016 4.893629 -0.4496
v -1.894734 5.920978 -1.467996
v -0.000016 6.378088 -2.314134
v -2.259489 7.139418 -1.621751
v -0.00002 7.514188 -2.3357
v -1.509394 8.522259 -1.288216
v -2.723679 7.279008 0.409611
v -2.301435 5.626806 -0.019978
v -1.082153 5.290596 1.279355
v -0.000023 8.225589 -2.489577
v -0.000023 8.337987 -1.937757
v 0.494521 7.36833 -2.18311
v -0.000021 7.825582 -3.144909
v -0.000018 6.990041 -2.999972
v -0.494559 7.368326 -2.18311
v -0.000014 5.94906 -2.832676
v 0.411231 5.764177 -1.732446
v -0.000012 5.194733 -2.818978
v -0.00001 4.848674 -2.071039
v -0.411259 5.764174 -1.732446
v -0.000028 9.864454 -1.347211
v -0.000027 9.358501 -0.334694
v 0.518597 8.925456 -1.162365
v -0.000028 9.643017 -2.146722
v -0.000025 8.972998 -2.159615
v -0.518647 8.925452 -1.162365
v -0.000028 9.762821 2.353438
v -1.905985 8.914293 2.789615
v -2.408109 7.10095 3.062349
v -1.442325 6.190197 1.909825
v -1.300581 5.159648 2.935571
v 1.300559 5.159658 2.935571
v 1.442295 6.190208 1.909825
v 2.408072 7.100967 3.062349
v 1.790523 6.795099 4.713758
v -0.000013 5.46619 4.497653
v -1.775677 6.795086 4.713758
v -0.000019 7.12654 5.450599
v -1.537485 8.795798 4.341325
v -0.000026 9.078402 4.956606
v 1.536825 8.79581 4.341325
v 1.905935 8.914307 2.789615
v -0.000028 9.769876 3.815718
v 0.837042 11.05341 -0.065694
v 0.257574 10.53797 -0.246339
v 1.03287 10.21873 -0.548611
v 1.179914 9.255016 -0.526437
v -0.000026 9.080975 -1.178714
v -1.179966 9.255007 -0.526437
v -0.837108 11.05341 -0.065694
v -0.257636 10.53797 -0.246339
v -1.03293 10.21872 -0.548611
v -0.0 1.82012 -2.67752
v 0.866485 0.983047 -1.92134
v -0.866485 0.983047 -1.92134
v 1.24993 1.8451 -1.47936
v -1.24993 1.8451 -1.47936
v -1.756515 3.411704 -0.500456
v -3.125833 3.331001 -0.105536
v -2.855578 4.018789 0.809164
v -3.208508 3.998034 0.721072
v -4.442463 3.414727 0.387002
v -4.440357 3.944145 0.817237
v -4.686732 3.947635 0.836471
v -4.686728 3.340989 0.534513
v -4.686728 3.313708 -0.643706
v -4.428687 3.953795 -0.741549
v -4.686733 4.063949 -0.83315
v -4.686738 4.712207 -0.09336
v -4.413563 4.665125 -0.153764
v -3.047692 4.63743 -0.169524
v -2.782447 3.949625 -0.742032
v -3.122147 3.92678 -0.673491
v -6.947764 3.506922 -1.132009
v -5.826541 3.123355 -1.100568
v -6.511149 2.88904 0.329168
v -7.234144 3.511513 0.208184
v -6.650922 4.586044 -1.277682
v -6.685992 4.696771 1.304918
v -6.964904 3.498263 1.173871
v -6.225841 3.093848 1.204562
v -5.692267 2.517268 1.126624
v -5.66883 4.324996 -1.247501
v -5.631742 4.499214 1.347929
v -5.487794 3.267587 1.516662

# 1422 Texture Coordinates
vt -0.36884 1.7828
vt -0.90691 1.58565
vt -0.77335 1.80397
vt -0.36884 1.7828
vt -0.77335 1.80397
vt -0.44913 1.92382
vt 0.000004 1.77386
vt -0.36884 1.7828
vt -0.44913 1.92382
vt 0.000004 1.77386
vt 0.000005 1.60389
vt -0.36884 1.7828
vt -0.36884 1.7828
vt 0.000005 1.60389
vt -0.34556 1.4238
vt -0.34556 1.4238
vt -0.90691 1.58565
vt -0.36884 1.7828
vt -0.34556 1.4238
vt -0.88352 1.30203
vt -0.90691 1.58565
vt -0.34556 1.4238
vt -0.69652 1.02489
vt -0.88352 1.30203
vt -0.34556 1.4238
vt 0.000004 1.12808
vt -0.69652 1.02489
vt 0.000005 1.60389
vt 0.000004 1.12808
vt -0.34556 1.4238
vt -0.977786 1.457179
vt -0.90691 1.58565
vt -0.88352 1.30203
vt -0.93549 1.75283
vt -0.90691 1.58565
vt -0.977786 1.457179
vt -0.77335 1.80397
vt -0.90691 1.58565
vt -0.93549 1.75283
vt -0.977427 1.135583
vt -0.88352 1.30203
vt -0.69652 1.02489
vt -0.977786 1.457179
vt -0.88352 1.30203
vt -0.977427 1.135583
vt 0.631153 1.7828
vt 0.226649 1.80397
vt 0.093088 1.58565
vt 0.631153 1.7828
vt 0.550867 1.92382
vt 0.226649 1.80397
vt 0.999996 1.77386
vt 0.550867 1.92382
vt 0.631153 1.7828
vt 0.999996 1.77386
vt 0.631153 1.7828
vt 0.999995 1.60389
vt 0.631153 1.7828
vt 0.654433 1.4238
vt 0.999995 1.60389
vt 0.654433 1.4238
vt 0.631153 1.7828
vt 0.093088 1.58565
vt 0.654433 1.4238
vt 0.093088 1.58565
vt 0.116473 1.30203
vt 0.654433 1.4238
vt 0.116473 1.30203
vt 0.303478 1.02489
vt 0.654433 1.4238
vt 0.303478 1.02489
vt 0.999996 1.12808
vt 0.999995 1.60389
vt 0.654433 1.4238
vt 0.999996 1.12808
vt 0.015282 1.472095
vt 0.116473 1.30203
vt 0.093088 1.58565
vt 0.064504 1.75283
vt 0.015282 1.472095
vt 0.093088 1.58565
vt 0.226649 1.80397
vt 0.064504 1.75283
vt 0.093088 1.58565
vt 0.025817 1.140555
vt 0.303478 1.02489
vt 0.116473 1.30203
vt 0.015282 1.472095
vt 0.025817 1.140555
vt 0.116473 1.30203
vt 0.31642 0.793377
vt 0.315653 0.804624
vt 0.310615 0.794628
vt 0.31642 0.793377
vt 0.32081 0.79829
vt 0.315653 0.804624
vt 0.32081 0.79829
vt 0.31867 0.807336
vt 0.315653 0.804624
vt 0.317342 0.806071
vt 0.31867 0.807336
vt 0.32081 0.79829
vt 0.319376 0.796969
vt 0.317342 0.806071
vt 0.32081 0.79829
vt 0.312074 0.797006
vt 0.317342 0.806071
vt 0.319376 0.796969
vt 0.32081 0.79829
vt 0.315653 0.804624
vt 0.31867 0.807336
vt 0.31642 0.793377
vt 0.315653 0.804624
vt 0.32081 0.79829
vt 0.31642 0.793377
vt 0.310615 0.794628
vt 0.315653 0.804624
vt 1.16209 -0.000721
vt 1.16489 -0.173944
vt 1.20559 -0.000721
vt 1.20559 -0.000721
vt 1.163297 -0.174803
vt 1.16209 -0.000721
vt 1.163297 -0.174803
vt 1.20559 -0.000721
vt 1.191962 -0.173309
vt 1.20559 -0.000721
vt 1.193556 -0.172451
vt 1.191962 -0.173309
vt 1.16489 -0.173944
vt 1.193556 -0.172451
vt 1.20559 -0.000721
vt 1.16209 -0.000721
vt 1.03521 -0.140785
vt 1.16489 -0.173944
vt 1.002942 -0.006932
vt 1.129822 0.133131
vt 1.000842 0.133131
vt 1.007252 0.271611
vt 1.000842 0.133131
vt 1.129822 0.133131
vt 1.16209 -0.000721
vt 1.163297 -0.174803
vt 1.037927 -0.14006
vt 0.085149 0.57643
vt 0.086339 0.490904
vt 0.099208 0.479081
vt 0.085149 0.57643
vt 0.099208 0.479081
vt 0.150788 0.668681
vt 0.099208 0.479081
vt 0.264185 0.510171
vt 0.150788 0.668681
vt 0.264185 0.510171
vt 0.099208 0.479081
vt 0.129405 0.336732
vt 0.264185 0.510171
vt 0.129405 0.336732
vt 0.385892 0.434232
vt 0.175408 0.178588
vt 0.385892 0.434232
vt 0.129405 0.336732
vt 0.385892 0.434232
vt 0.175408 0.178588
vt 0.325723 0.080413
vt 0.175408 0.178588
vt 0.165197 0.065943
vt 0.325723 0.080413
vt 0.175408 0.178588
vt 0.133898 0.202871
vt 0.165197 0.065943
vt 0.133898 0.202871
vt 0.175408 0.178588
vt 0.129405 0.336732
vt 0.133898 0.202871
vt 0.129405 0.336732
vt 0.107088 0.345522
vt 0.133898 0.202871
vt 0.107088 0.345522
vt 0.129405 0.336732
vt 0.133898 0.202871
vt 0.129405 0.336732
vt 0.175408 0.178588
vt 0.175408 0.178588
vt 0.165197 0.065943
vt 0.133898 0.202871
vt 0.175408 0.178588
vt 0.325723 0.080413
vt 0.165197 0.065943
vt 0.385892 0.434232
vt 0.325723 0.080413
vt 0.175408 0.178588
vt 0.175408 0.178588
vt 0.129405 0.336732
vt 0.385892 0.434232
vt 0.264185 0.510171
vt 0.385892 0.434232
vt 0.129405 0.336732
vt 0.264185 0.510171
vt 0.129405 0.336732
vt 0.099208 0.479081
vt 0.099208 0.479081
vt 0.150788 0.668681
vt 0.264185 0.510171
vt 0.085149 0.57643
vt 0.150788 0.668681
vt 0.099208 0.479081
vt 0.085149 0.57643
vt 0.099208 0.479081
vt 0.086339 0.490904
vt 0.086339 0.490904
vt 0.099208 0.479081
vt 0.129405 0.336732
vt 0.086339 0.490904
vt 0.129405 0.336732
vt 0.107088 0.345522
vt 0.086339 0.490904
vt 0.107088 0.345522
vt 0.129405 0.336732
vt 0.086339 0.490904
vt 0.129405 0.336732
vt 0.099208 0.479081
vt 0.996395 0.99521
vt 0.994802 0.906531
vt 0.898145 0.951031
vt 0.898145 0.951031
vt 0.897806 0.951614
vt 0.996395 0.99521
vt 0.898145 0.951031
vt 0.827791 0.922731
vt 0.897806 0.951614
vt 0.994802 0.850931
vt 0.827791 0.922731
vt 0.898145 0.951031
vt 0.994802 0.906531
vt 0.994802 0.850931
vt 0.898145 0.951031
vt 0.994802 0.906531
vt 0.898145 0.951031
vt 0.994802 0.850931
vt 0.996395 0.99521
vt 0.898145 0.951031
vt 0.994802 0.906531
vt 0.898145 0.951031
vt 0.996395 0.99521
vt 0.897806 0.951614
vt 0.898145 0.951031
vt 0.897806 0.951614
vt 0.827791 0.922731
vt 0.898145 0.951031
vt 0.827791 0.922731
vt 0.994802 0.850931
vt 0.897806 0.951614
vt 0.829384 0.924481
vt 0.827791 0.922731
vt 0.829384 0.924481
vt 0.897806 0.951614
vt 0.996395 0.910324
vt 0.996395 0.853313
vt 0.829384 0.924481
vt 0.996395 0.910324
vt 0.996395 0.853313
vt 0.996395 0.910324
vt 0.829384 0.924481
vt 0.996395 0.910324
vt 0.897806 0.951614
vt 0.829384 0.924481
vt 0.996395 0.910324
vt 0.996395 0.99521
vt 0.897806 0.951614
vt 0.996395 0.910324
vt 0.897806 0.951614
vt 0.996395 0.99521
vt 0.827791 0.922731
vt 0.829384 0.924481
vt 0.897806 0.951614
vt 0.759641 0.621139
vt 0.944079 0.664635
vt 0.946443 0.559761
vt 0.759641 0.621139
vt 0.946443 0.559761
vt 0.944079 0.664635
vt 0.944079 0.664635
vt 0.759641 0.73022
vt 0.759641 0.621139
vt 0.944316 0.786266
vt 0.759641 0.73022
vt 0.944079 0.664635
vt 0.944316 0.786266
vt 0.944079 0.664635
vt 0.759641 0.73022
vt 0.944316 0.786266
vt 0.759641 0.73022
vt 0.944079 0.664635
vt 0.944316 0.786266
vt 0.944079 0.664635
vt 0.759641 0.73022
vt 0.944079 0.664635
vt 0.759641 0.621139
vt 0.759641 0.73022
vt 0.759641 0.621139
vt 0.944079 0.664635
vt 0.946443 0.559761
vt 0.759641 0.621139
vt 0.946443 0.559761
vt 0.944079 0.664635
vt 0.759641 0.621139
vt 0.944079 0.664635
vt 0.759641 0.73022
vt 0.759641 0.621139
vt 0.759641 0.73022
vt 0.944079 0.664635
vt 0.738075 0.361056
vt 0.754499 0.362124
vt 0.73965 0.482164
vt 0.738075 0.361056
vt 0.73965 0.482164
vt 0.736097 0.464397
vt 0.738075 0.361043
vt 0.738075 0.361056
vt 0.736097 0.464397
vt 0.739724 0.474781
vt 0.738075 0.361043
vt 0.736097 0.464397
vt 0.754499 0.361043
vt 0.738075 0.361043
vt 0.739724 0.474781
vt 0.754499 0.361043
vt 0.739724 0.474781
vt 0.753575 0.51387
vt 0.753575 0.51387
vt 0.755415 0.444023
vt 0.754499 0.361043
vt 0.755415 0.444023
vt 0.753575 0.51387
vt 0.753575 0.51387
vt 0.755415 0.444023
vt 0.753575 0.51387
vt 0.754499 0.362124
vt 0.754499 0.361043
vt 0.755415 0.444023
vt 0.754499 0.362124
vt 0.73965 0.482164
vt 0.754499 0.362124
vt 0.753575 0.51387
vt 0.753575 0.51387
vt 0.740366 0.535057
vt 0.73965 0.482164
vt 0.753575 0.51387
vt 0.753575 0.51387
vt 0.740366 0.535057
vt 0.739724 0.474781
vt 0.740366 0.535057
vt 0.753575 0.51387
vt 0.739724 0.474781
vt 0.736097 0.464397
vt 0.740366 0.535057
vt 0.736097 0.464397
vt 0.73965 0.482164
vt 0.740366 0.535057
vt 0.467719 0.911492
vt 0.464877 0.999104
vt 0.699934 0.996658
vt 0.467719 0.911492
vt 0.699934 0.996658
vt 0.697398 0.8899
vt 0.560147 0.36832
vt 0.483844 0.427717
vt 0.414878 0.364963
vt 0.560147 0.36832
vt 0.634805 0.427717
vt 0.483844 0.427717
vt 0.634805 0.427717
vt 0.560147 0.36832
vt 0.696111 0.363505
vt 0.560147 0.36832
vt 0.559331 0.315995
vt 0.696111 0.363505
vt 0.560147 0.36832
vt 0.414878 0.364963
vt 0.559331 0.315995
vt 1.688872 0.325951
vt 1.710122 0.336376
vt 1.710122 0.336376
vt 1.688872 0.325951
vt 1.681432 0.336376
vt 1.710122 0.336376
vt 1.688872 0.325951
vt 1.661802 0.336376
vt 1.681432 0.336376
vt 1.688872 0.325951
vt 1.681432 0.336376
vt 1.661802 0.336376
vt 1.688872 0.325951
vt 1.710122 0.336376
vt 1.681432 0.336376
vt 0.3916 0.860552
vt 0.3916 0.850657
vt 0.260107 0.858926
vt 0.3916 0.860552
vt 0.260107 0.858926
vt 0.256044 0.877103
vt 0.3916 0.860552
vt 0.256044 0.877103
vt 0.3916 0.873213
vt 0.256405 0.876703
vt 0.3916 0.873213
vt 0.256044 0.877103
vt 0.256405 0.876703
vt 0.3916 0.861148
vt 0.3916 0.873213
vt 0.256405 0.876703
vt 0.260855 0.859034
vt 0.3916 0.861148
vt 0.264638 0.844292
vt 0.3916 0.861148
vt 0.260855 0.859034
vt 0.264638 0.844292
vt 0.3916 0.850657
vt 0.3916 0.861148
vt 0.3916 0.850657
vt 0.264638 0.844292
vt 0.260107 0.858926
vt 0.738075 0.361056
vt 0.73965 0.482164
vt 0.754499 0.362124
vt 0.738075 0.361056
vt 0.736097 0.464397
vt 0.73965 0.482164
vt 0.738075 0.361043
vt 0.736097 0.464397
vt 0.738075 0.361056
vt 0.739724 0.474781
vt 0.736097 0.464397
vt 0.738075 0.361043
vt 0.754499 0.361043
vt 0.739724 0.474781
vt 0.738075 0.361043
vt 0.754499 0.361043
vt 0.753575 0.51387
vt 0.739724 0.474781
vt 0.753575 0.51387
vt 0.754499 0.361043
vt 0.755415 0.444023
vt 0.755415 0.444023
vt 0.753575 0.51387
vt 0.753575 0.51387
vt 0.755415 0.444023
vt 0.754499 0.362124
vt 0.753575 0.51387
vt 0.754499 0.361043
vt 0.754499 0.362124
vt 0.755415 0.444023
vt 0.73965 0.482164
vt 0.753575 0.51387
vt 0.754499 0.362124
vt 0.753575 0.51387
vt 0.73965 0.482164
vt 0.740366 0.535057
vt 0.753575 0.51387
vt 0.740366 0.535057
vt 0.753575 0.51387
vt 0.739724 0.474781
vt 0.753575 0.51387
vt 0.740366 0.535057
vt 0.739724 0.474781
vt 0.740366 0.535057
vt 0.736097 0.464397
vt 0.736097 0.464397
vt 0.740366 0.535057
vt 0.73965 0.482164
vt 0.467719 0.911492
vt 0.699934 0.996658
vt 0.464877 0.999104
vt 0.467719 0.911492
vt 0.697398 0.8899
vt 0.699934 0.996658
vt 0.560147 0.36832
vt 0.414878 0.364963
vt 0.483844 0.427717
vt 0.560147 0.36832
vt 0.483844 0.427717
vt 0.634805 0.427717
vt 0.634805 0.427717
vt 0.696111 0.363505
vt 0.560147 0.36832
vt 0.560147 0.36832
vt 0.696111 0.363505
vt 0.559331 0.315995
vt 0.560147 0.36832
vt 0.559331 0.315995
vt 0.414878 0.364963
vt 1.688872 0.325951
vt 1.710122 0.336376
vt 1.710122 0.336376
vt 1.688872 0.325951
vt 1.710122 0.336376
vt 1.681432 0.336376
vt 1.688872 0.325951
vt 1.681432 0.336376
vt 1.661802 0.336376
vt 1.688872 0.325951
vt 1.661802 0.336376
vt 1.681432 0.336376
vt 1.688872 0.325951
vt 1.681432 0.336376
vt 1.710122 0.336376
vt 0.3916 0.860552
vt 0.260107 0.858926
vt 0.3916 0.850657
vt 0.3916 0.860552
vt 0.256044 0.877103
vt 0.260107 0.858926
vt 0.3916 0.860552
vt 0.3916 0.873213
vt 0.256044 0.877103
vt 0.256405 0.876703
vt 0.256044 0.877103
vt 0.3916 0.873213
vt 0.256405 0.876703
vt 0.3916 0.873213
vt 0.3916 0.861148
vt 0.256405 0.876703
vt 0.3916 0.861148
vt 0.260855 0.859034
vt 0.264638 0.844292
vt 0.260855 0.859034
vt 0.3916 0.861148
vt 0.264638 0.844292
vt 0.3916 0.861148
vt 0.3916 0.850657
vt 0.3916 0.850657
vt 0.260107 0.858926
vt 0.264638 0.844292
vt 0.312074 0.797006
vt 0.319376 0.796969
vt 0.317342 0.806071
vt 0.319376 0.796969
vt 0.32081 0.79829
vt 0.317342 0.806071
vt 0.317342 0.806071
vt 0.32081 0.79829
vt 0.31867 0.807336
vt 0.299333 -0.24672
vt 0.296444 -0.249336
vt 0.294242 -0.247525
vt 0.299333 -0.24672
vt 0.29742 -0.244677
vt 0.296444 -0.249336
vt 0.299333 -0.24672
vt 0.298864 -0.245573
vt 0.29742 -0.244677
vt 0.303671 -0.247502
vt 0.298864 -0.245573
vt 0.299333 -0.24672
vt 0.303671 -0.247502
vt 0.30362 -0.245375
vt 0.298864 -0.245573
vt 0.304571 -0.245335
vt 0.30362 -0.245375
vt 0.303671 -0.247502
vt 0.304633 -0.247493
vt 0.304571 -0.245335
vt 0.303671 -0.247502
vt 0.304633 -0.24536
vt 0.304633 -0.247493
vt 0.303671 -0.247502
vt 0.304633 -0.24536
vt 0.303671 -0.247502
vt 0.303671 -0.243331
vt 0.303671 -0.243331
vt 0.304633 -0.241267
vt 0.304633 -0.24536
vt 0.304633 -0.24104
vt 0.304633 -0.241267
vt 0.303671 -0.243331
vt 0.304633 -0.24104
vt 0.303671 -0.243331
vt 0.303671 -0.241016
vt 0.304571 -0.245335
vt 0.304633 -0.24104
vt 0.303671 -0.241016
vt 0.304571 -0.245335
vt 0.303671 -0.241016
vt 0.30362 -0.245375
vt 0.30362 -0.245375
vt 0.303671 -0.241016
vt 0.298864 -0.240897
vt 0.30362 -0.245375
vt 0.298864 -0.240897
vt 0.298864 -0.245573
vt 0.29742 -0.244677
vt 0.298864 -0.245573
vt 0.298864 -0.240897
vt 0.298864 -0.240897
vt 0.292285 -0.239351
vt 0.29742 -0.244677
vt 0.291765 -0.243373
vt 0.292285 -0.239351
vt 0.298864 -0.240897
vt 0.291765 -0.243373
vt 0.298864 -0.240897
vt 0.297797 -0.241528
vt 0.294242 -0.247525
vt 0.291765 -0.243373
vt 0.297797 -0.241528
vt 0.294242 -0.247525
vt 0.297797 -0.241528
vt 0.299333 -0.24672
vt 0.299333 -0.24672
vt 0.297797 -0.241528
vt 0.298864 -0.241382
vt 0.303671 -0.243331
vt 0.299333 -0.24672
vt 0.298864 -0.241382
vt 0.303671 -0.243331
vt 0.303671 -0.247502
vt 0.299333 -0.24672
vt 0.303671 -0.241016
vt 0.303671 -0.243331
vt 0.298864 -0.241382
vt 0.303671 -0.241016
vt 0.298864 -0.241382
vt 0.298864 -0.240897
vt 0.298864 -0.241382
vt 0.297797 -0.241528
vt 0.298864 -0.240897
vt 0.292285 -0.239351
vt 0.293087 -0.24199
vt 0.29742 -0.244677
vt 0.29742 -0.244677
vt 0.293087 -0.24199
vt 0.296444 -0.249336
vt 0.474602 0.631889
vt 0.529658 0.536147
vt 0.568491 0.624691
vt 0.474602 0.631889
vt 0.478787 0.53821
vt 0.529658 0.536147
vt 0.322187 0.642667
vt 0.478787 0.53821
vt 0.474602 0.631889
vt 0.324797 0.465994
vt 0.478787 0.53821
vt 0.322187 0.642667
vt 0.478787 0.53821
vt 0.324797 0.465994
vt 0.500353 0.461231
vt 0.529658 0.536147
vt 0.478787 0.53821
vt 0.500353 0.461231
vt 0.529658 0.536147
vt 0.500353 0.461231
vt 0.541164 0.492162
vt 0.587901 0.45978
vt 0.529658 0.536147
vt 0.541164 0.492162
vt 0.587901 0.45978
vt 0.709069 0.601543
vt 0.529658 0.536147
vt 0.709069 0.601543
vt 0.587901 0.45978
vt 0.699979 0.492276
vt 0.529658 0.536147
vt 0.709069 0.601543
vt 0.568491 0.624691
vt 0.417294 0.784463
vt 0.391881 0.759741
vt 0.442567 0.790052
vt 0.392021 0.778873
vt 0.391881 0.759741
vt 0.417294 0.784463
vt 0.401387 0.737967
vt 0.420354 0.729368
vt 0.391881 0.759741
vt 0.391881 0.759741
vt 0.420354 0.729368
vt 0.445824 0.742898
vt 0.442567 0.790052
vt 0.391881 0.759741
vt 0.445824 0.742898
vt 1.4438 -1.31394
vt 1.59571 -1.28946
vt 1.42216 -1.28398
vt 1.53947 -1.23859
vt 1.42216 -1.28398
vt 1.59571 -1.28946
vt 1.48323 -1.18772
vt 1.42216 -1.28398
vt 1.53947 -1.23859
vt 1.42216 -1.28398
vt 1.48323 -1.18772
vt 1.3616 -1.1835
vt 0.588485 0.726754
vt 0.485067 0.801615
vt 0.503219 0.719688
vt 0.588485 0.726754
vt 0.503219 0.719688
vt 0.561352 0.705295
vt 0.561352 0.705295
vt 0.503219 0.719688
vt 0.486765 0.716174
vt 0.486765 0.716174
vt 0.503219 0.719688
vt 0.446593 0.768075
vt 0.503219 0.719688
vt 0.485067 0.801615
vt 0.446593 0.768075
vt 0.485067 0.801615
vt 0.647567 0.780782
vt 0.575858 0.82715
vt 0.588485 0.726754
vt 0.647567 0.780782
vt 0.485067 0.801615
vt 0.420952 0.174936
vt 0.418627 0.103935
vt 0.495789 0.167704
vt 0.470013 0.273396
vt 0.420952 0.174936
vt 0.495789 0.167704
vt 0.60511 0.257033
vt 0.470013 0.273396
vt 0.495789 0.167704
vt 0.60511 0.257033
vt 0.495789 0.167704
vt 0.642077 0.169702
vt 0.534678 0.040433
vt 0.642077 0.169702
vt 0.495789 0.167704
vt 0.495789 0.167704
vt 0.418627 0.103935
vt 0.534678 0.040433
vt 0.418627 0.103935
vt 0.441197 0.008865
vt 0.534678 0.040433
vt 0.418627 0.103935
vt 0.400187 0.023268
vt 0.441197 0.008865
vt 0.441197 0.057024
vt 0.400187 0.071427
vt 0.394041 0.044538
vt 0.430545 0.044747
vt 0.441197 0.057024
vt 0.394041 0.044538
vt 0.441197 0.057024
vt 0.430545 0.044747
vt 0.524947 0.004564
vt 0.441197 0.057024
vt 0.524947 0.004564
vt 0.564882 0.035144
vt 0.564882 0.035144
vt 0.534678 0.088592
vt 0.441197 0.057024
vt 0.564882 0.035144
vt 0.633697 0.117345
vt 0.534678 0.088592
vt 0.633697 0.069186
vt 0.642077 0.169702
vt 0.534678 0.040433
vt 1.11275 0.511005
vt 1.02641 0.51736
vt 1.12143 0.422603
vt 1.12143 0.422603
vt 1.18126 0.503426
vt 1.11275 0.511005
vt 1.18126 0.503426
vt 1.12143 0.422603
vt 1.14516 0.409163
vt 1.05041 0.391229
vt 1.14516 0.409163
vt 1.12143 0.422603
vt 1.12143 0.422603
vt 1.02641 0.51736
vt 1.05041 0.391229
vt 1.05041 0.391229
vt 1.02641 0.51736
vt 1.02641 0.386931
vt 1.02641 0.386931
vt 1.05442 0.368231
vt 1.05041 0.391229
vt 1.02641 0.413356
vt 1.05442 0.41639
vt 1.02641 0.43509
vt 1.05442 0.41639
vt 1.02641 0.413356
vt 1.02641 0.43509
vt 1.05442 0.368231
vt 1.02641 0.386931
vt 1.05041 0.391229
vt 1.05442 0.368231
vt 1.05041 0.391229
vt 1.14516 0.409163
vt 1.14516 0.409163
vt 1.05041 0.391229
vt 1.12143 0.422603
vt 1.18126 0.503426
vt 1.14516 0.409163
vt 1.12143 0.422603
vt 1.12143 0.422603
vt 1.11275 0.511005
vt 1.18126 0.503426
vt 1.11275 0.511005
vt 1.12143 0.422603
vt 1.02641 0.51736
vt 1.12143 0.422603
vt 1.05041 0.391229
vt 1.02641 0.51736
vt 1.05041 0.391229
vt 1.02641 0.386931
vt 1.02641 0.51736
vt 2.671616 0.242027
vt 2.669996 0.253276
vt 2.556306 0.19899
vt 2.671616 0.242027
vt 2.556306 0.19899
vt 2.669996 0.253276
vt 2.556306 0.19899
vt 2.479666 0.195927
vt 2.669996 0.253276
vt 2.5203 0.177646
vt 2.7061 0.266427
vt 2.71063 0.234995
vt 2.5203 0.177646
vt 2.50166 0.202126
vt 2.7061 0.266427
vt 2.70332 0.284575
vt 2.7061 0.266427
vt 2.50166 0.202126
vt 2.70332 0.284575
vt 2.50166 0.202126
vt 2.7061 0.266427
vt 2.70332 0.284575
vt 2.6204 0.257317
vt 2.50166 0.202126
vt 2.70332 0.284575
vt 2.50166 0.202126
vt 2.6204 0.257317
vt 2.556306 0.19899
vt 2.669996 0.253276
vt 2.479666 0.195927
vt 2.5203 0.177646
vt 2.71063 0.234995
vt 2.7061 0.266427
vt 2.5203 0.177646
vt 2.7061 0.266427
vt 2.50166 0.202126
vt 0.420952 0.174936
vt 0.495789 0.167704
vt 0.418627 0.103935
vt 0.470013 0.273396
vt 0.495789 0.167704
vt 0.420952 0.174936
vt 0.60511 0.257033
vt 0.495789 0.167704
vt 0.470013 0.273396
vt 0.60511 0.257033
vt 0.642077 0.169702
vt 0.495789 0.167704
vt 0.495789 0.167704
vt 0.642077 0.169702
vt 0.534678 0.040433
vt 0.495789 0.167704
vt 0.534678 0.040433
vt 0.418627 0.103935
vt 0.418627 0.103935
vt 0.534678 0.040433
vt 0.441197 0.008865
vt 0.418627 0.103935
vt 0.441197 0.008865
vt 0.400187 0.023268
vt 0.400187 0.071427
vt 0.441197 0.057024
vt 0.394041 0.044538
vt 0.430545 0.044747
vt 0.394041 0.044538
vt 0.441197 0.057024
vt 0.441197 0.057024
vt 0.524947 0.004564
vt 0.430545 0.044747
vt 0.441197 0.057024
vt 0.564882 0.035144
vt 0.524947 0.004564
vt 0.564882 0.035144
vt 0.441197 0.057024
vt 0.534678 0.088592
vt 0.564882 0.035144
vt 0.534678 0.088592
vt 0.633697 0.117345
vt 0.642077 0.169702
vt 0.633697 0.069186
vt 0.534678 0.040433
vt 1.05041 0.391229
vt 1.05442 0.368231
vt 1.14516 0.409163
vt 0.91868 0.337932
vt 0.915182 0.327272
vt 0.93309 0.328056
vt 0.927574 0.349445
vt 0.91868 0.337932
vt 0.93309 0.328056
vt 0.942036 0.342925
vt 0.927574 0.349445
vt 0.93309 0.328056
vt 0.951053 0.326443
vt 0.942036 0.342925
vt 0.93309 0.328056
vt 0.951053 0.326443
vt 0.93309 0.328056
vt 0.942036 0.342925
vt 0.942036 0.342925
vt 0.93309 0.328056
vt 0.927574 0.349445
vt 0.927574 0.349445
vt 0.93309 0.328056
vt 0.91868 0.337932
vt 0.91868 0.337932
vt 0.93309 0.328056
vt 0.915182 0.327272
vt 0.965298 0.34627
vt 0.955138 0.335014
vt 0.964896 0.318463
vt 0.980994 0.343263
vt 0.965298 0.34627
vt 0.964896 0.318463
vt 0.964896 0.318463
vt 0.984018 0.325595
vt 0.980994 0.343263
vt 0.964896 0.318463
vt 0.977852 0.309474
vt 0.984018 0.325595
vt 0.964896 0.318463
vt 0.984018 0.325595
vt 0.977852 0.309474
vt 0.964896 0.318463
vt 0.980994 0.343263
vt 0.984018 0.325595
vt 0.980994 0.343263
vt 0.964896 0.318463
vt 0.965298 0.34627
vt 0.965298 0.34627
vt 0.964896 0.318463
vt 0.955138 0.335014
vt 0.792309 0.327928
vt 0.794413 0.309691
vt 0.803316 0.312449
vt 0.801638 0.343714
vt 0.792309 0.327928
vt 0.803316 0.312449
vt 0.813302 0.336007
vt 0.801638 0.343714
vt 0.803316 0.312449
vt 0.819712 0.323306
vt 0.813302 0.336007
vt 0.803316 0.312449
vt 0.819712 0.323306
vt 0.803316 0.312449
vt 0.813302 0.336007
vt 0.813302 0.336007
vt 0.803316 0.312449
vt 0.801638 0.343714
vt 0.801638 0.343714
vt 0.803316 0.312449
vt 0.792309 0.327928
vt 0.792309 0.327928
vt 0.803316 0.312449
vt 0.794413 0.309691
vt 0.267952 0.646074
vt 0.261108 0.650894
vt 0.267797 0.644353
vt 0.267952 0.646074
vt 0.267797 0.644353
vt 0.261108 0.650894
vt 0.267797 0.644353
vt 0.258406 0.646104
vt 0.261108 0.650894
vt 0.266985 0.638147
vt 0.258406 0.646104
vt 0.267797 0.644353
vt 0.266985 0.638147
vt 0.256717 0.635868
vt 0.258406 0.646104
vt 0.263855 0.630727
vt 0.256717 0.635868
vt 0.266985 0.638147
vt 0.267486 0.635743
vt 0.263855 0.630727
vt 0.266985 0.638147
vt 0.264477 0.627562
vt 0.263855 0.630727
vt 0.267486 0.635743
vt 0.264477 0.627562
vt 0.257502 0.624909
vt 0.263855 0.630727
vt 0.264477 0.627562
vt 0.257502 0.624909
vt 0.257502 0.624909
vt 0.264477 0.627562
vt 0.263855 0.630727
vt 0.257502 0.624909
vt 0.264477 0.627562
vt 0.267486 0.635743
vt 0.263855 0.630727
vt 0.267486 0.635743
vt 0.266985 0.638147
vt 0.263855 0.630727
vt 0.263855 0.630727
vt 0.266985 0.638147
vt 0.256717 0.635868
vt 0.263855 0.630727
vt 0.256717 0.635868
vt 0.257502 0.624909
vt 0.257502 0.624909
vt 0.256717 0.635868
vt 0.24649 0.634141
vt 0.247829 0.626639
vt 0.257502 0.624909
vt 0.24649 0.634141
vt 0.257502 0.624909
vt 0.247829 0.626639
vt 0.257502 0.624909
vt 0.247829 0.626639
vt 0.24649 0.634141
vt 0.257502 0.624909
vt 0.24649 0.634141
vt 0.247829 0.626639
vt 0.241927 0.636012
vt 0.248797 0.645436
vt 0.24649 0.634141
vt 0.241927 0.636012
vt 0.241927 0.636012
vt 0.244986 0.647031
vt 0.248797 0.645436
vt 0.241927 0.636012
vt 0.248797 0.645436
vt 0.244986 0.647031
vt 0.248797 0.645436
vt 0.241927 0.636012
vt 0.24649 0.634141
vt 0.248797 0.645436
vt 0.24649 0.634141
vt 0.256717 0.635868
vt 0.258406 0.646104
vt 0.248797 0.645436
vt 0.256717 0.635868
vt 0.248797 0.645436
vt 0.258406 0.646104
vt 0.252052 0.650934
vt 0.258406 0.646104
vt 0.261108 0.650894
vt 0.252052 0.650934
vt 0.267797 0.644353
vt 0.261108 0.650894
vt 0.258406 0.646104
vt 0.266985 0.638147
vt 0.267797 0.644353
vt 0.258406 0.646104
vt 0.266985 0.638147
vt 0.258406 0.646104
vt 0.256717 0.635868
vt 0.282096 0.801694
vt 0.351642 0.995814
vt 0.158856 0.992068
vt 0.282096 0.801694
vt 0.158856 0.992068
vt 0.351642 0.995814
vt 0.24649 0.634141
vt 0.241927 0.636012
vt 0.247829 0.626639
vt 0.248797 0.645436
vt 0.252052 0.650934
vt 0.258406 0.646104
vt 0.258406 0.646104
vt 0.256717 0.635868
vt 0.248797 0.645436
vt 0.248797 0.645436
vt 0.256717 0.635868
vt 0.24649 0.634141
vt 0.257502 0.624909
vt 0.24649 0.634141
vt 0.256717 0.635868
vt 0.263855 0.630727
vt 0.257502 0.624909
vt 0.256717 0.635868
vt 0.258406 0.646104
vt 0.252052 0.650934
vt 0.261108 0.650894
vt 0.420762 0.676776
vt 0.408872 0.673832
vt 0.416134 0.668288
vt 0.407378 0.73072
vt 0.413854 0.729349
vt 0.410766 0.72831
vt 0.410766 0.72831
vt 0.402113 0.724586
vt 0.407378 0.73072
vt 0.402113 0.724586
vt 0.410766 0.72831
vt 0.404776 0.720184
vt 0.402113 0.724586
vt 0.404776 0.720184
vt 0.402113 0.70159
vt 0.402113 0.70159
vt 0.404776 0.720184
vt 0.41279 0.715151
vt 0.41431 0.699959
vt 0.402113 0.70159
vt 0.41279 0.715151
vt 0.41279 0.715151
vt 0.42123 0.706027
vt 0.41431 0.699959
vt 0.418115 0.723107
vt 0.42123 0.706027
vt 0.41279 0.715151
vt 0.410766 0.72831
vt 0.418115 0.723107
vt 0.41279 0.715151
vt 0.410766 0.72831
vt 0.41279 0.715151
vt 0.404776 0.720184
vt 0.410766 0.72831
vt 0.413854 0.729349
vt 0.418115 0.723107
vt 0.430816 0.663747
vt 0.430816 0.671529
vt 0.452389 0.665677
vt 0.430816 0.655119
vt 0.430816 0.663747
vt 0.452389 0.665677
vt 0.430816 0.655119
vt 0.452389 0.665677
vt 0.430816 0.663747
vt 0.430816 0.663747
vt 0.452389 0.665677
vt 0.430816 0.671529
vt 0.430816 0.671529
vt 0.452389 0.665677
vt 0.443676 0.673352
vt 0.430816 0.671529
vt 0.443676 0.673352
vt 0.430816 0.674435
vt 0.430816 0.671529
vt 0.430816 0.674435
vt 0.443676 0.673352
vt 0.430816 0.671529
vt 0.443676 0.673352
vt 0.452389 0.665677
vt 0.443676 0.673352
vt 0.449849 0.668212
vt 0.452389 0.665677
vt 0.41431 0.699959
vt 0.42123 0.706027
vt 0.420165 0.692223
vt 0.420762 0.676776
vt 0.416134 0.668288
vt 0.408872 0.673832
vt 0.407378 0.73072
vt 0.410766 0.72831
vt 0.413854 0.729349
vt 0.410766 0.72831
vt 0.407378 0.73072
vt 0.402113 0.724586
vt 0.402113 0.724586
vt 0.404776 0.720184
vt 0.410766 0.72831
vt 0.402113 0.724586
vt 0.402113 0.70159
vt 0.404776 0.720184
vt 0.402113 0.70159
vt 0.41279 0.715151
vt 0.404776 0.720184
vt 0.41431 0.699959
vt 0.41279 0.715151
vt 0.402113 0.70159
vt 0.41279 0.715151
vt 0.41431 0.699959
vt 0.42123 0.706027
vt 0.418115 0.723107
vt 0.41279 0.715151
vt 0.42123 0.706027
vt 0.410766 0.72831
vt 0.41279 0.715151
vt 0.418115 0.723107
vt 0.410766 0.72831
vt 0.404776 0.720184
vt 0.41279 0.715151
vt 0.410766 0.72831
vt 0.418115 0.723107
vt 0.413854 0.729349
vt 0.443676 0.673352
vt 0.452389 0.665677
vt 0.449849 0.668212
vt 0.41431 0.699959
vt 0.420165 0.692223
vt 0.42123 0.706027
vt 0.006568 -0.443153
vt 0.194318 -0.66421
vt 0.205255 -0.637793
vt 0.205255 -0.637793
vt 0.225477 -0.623847
vt 0.006568 -0.443153
vt 0.006568 -0.443153
vt 0.205255 -0.637793
vt 0.194318 -0.66421
vt 0.205255 -0.637793
vt 0.006568 -0.443153
vt 0.225477 -0.623847
vt 0.303544 -0.316769
vt 0.317039 -0.32674
vt 0.324659 -0.315432
vt 0.303544 -0.316769
vt 0.2875 -0.321651
vt 0.317039 -0.32674
vt 0.303544 -0.316769
vt 0.286303 -0.298559
vt 0.2875 -0.321651
vt 0.290176 -0.289143
vt 0.286303 -0.298559
vt 0.303544 -0.316769
vt 0.290176 -0.289143
vt 0.303544 -0.316769
vt 0.290176 -0.289143
vt 0.303544 -0.316769
vt 0.303544 -0.316769
vt 0.290176 -0.289143
vt 0.303544 -0.316769
vt 0.324659 -0.315432
vt 0.303544 -0.316769
vt 0.303544 -0.316769
vt 0.324659 -0.315432
vt 0.317039 -0.32674
vt 0.303544 -0.316769
vt 0.317039 -0.32674
vt 0.2875 -0.321651
vt 0.303544 -0.316769
vt 0.2875 -0.321651
vt 0.286303 -0.298559
vt 0.290176 -0.289143
vt 0.303544 -0.316769
vt 0.286303 -0.298559
vt 0.2875 -0.321651
vt 0.274867 -0.300275
vt 0.286303 -0.298559
vt 0.317039 -0.32674
vt 0.301403 -0.338935
vt 0.2875 -0.321651
vt 0.317039 -0.32674
vt 0.2875 -0.321651
vt 0.301403 -0.338935
vt 0.2875 -0.321651
vt 0.286303 -0.298559
vt 0.274867 -0.300275
vt 0.299333 -0.24672
vt 0.294242 -0.247525
vt 0.296444 -0.249336
vt 0.299333 -0.24672
vt 0.296444 -0.249336
vt 0.29742 -0.244677
vt 0.299333 -0.24672
vt 0.29742 -0.244677
vt 0.298864 -0.245573
vt 0.303671 -0.247502
vt 0.299333 -0.24672
vt 0.298864 -0.245573
vt 0.303671 -0.247502
vt 0.298864 -0.245573
vt 0.30362 -0.245375
vt 0.303671 -0.247502
vt 0.30362 -0.245375
vt 0.304571 -0.245335
vt 0.304633 -0.247493
vt 0.303671 -0.247502
vt 0.304571 -0.245335
vt 0.304633 -0.24536
vt 0.303671 -0.247502
vt 0.304633 -0.247493
vt 0.304633 -0.24536
vt 0.303671 -0.243331
vt 0.303671 -0.247502
vt 0.303671 -0.243331
vt 0.304633 -0.24536
vt 0.304633 -0.241267
vt 0.304633 -0.24104
vt 0.303671 -0.243331
vt 0.304633 -0.241267
vt 0.304633 -0.24104
vt 0.303671 -0.241016
vt 0.303671 -0.243331
vt 0.304571 -0.245335
vt 0.303671 -0.241016
vt 0.304633 -0.24104
vt 0.304571 -0.245335
vt 0.30362 -0.245375
vt 0.303671 -0.241016
vt 0.30362 -0.245375
vt 0.298864 -0.240897
vt 0.303671 -0.241016
vt 0.30362 -0.245375
vt 0.298864 -0.245573
vt 0.298864 -0.240897
vt 0.29742 -0.244677
vt 0.298864 -0.240897
vt 0.298864 -0.245573
vt 0.298864 -0.240897
vt 0.29742 -0.244677
vt 0.292285 -0.239351
vt 0.291765 -0.243373
vt 0.298864 -0.240897
vt 0.292285 -0.239351
vt 0.291765 -0.243373
vt 0.297797 -0.241528
vt 0.298864 -0.240897
vt 0.294242 -0.247525
vt 0.297797 -0.241528
vt 0.291765 -0.243373
vt 0.294242 -0.247525
vt 0.299333 -0.24672
vt 0.297797 -0.241528
vt 0.299333 -0.24672
vt 0.298864 -0.241382
vt 0.297797 -0.241528
vt 0.303671 -0.243331
vt 0.298864 -0.241382
vt 0.299333 -0.24672
vt 0.303671 -0.243331
vt 0.299333 -0.24672
vt 0.303671 -0.247502
vt 0.303671 -0.241016
vt 0.298864 -0.241382
vt 0.303671 -0.243331
vt 0.303671 -0.241016
vt 0.298864 -0.240897
vt 0.298864 -0.241382
vt 0.298864 -0.241382
vt 0.298864 -0.240897
vt 0.297797 -0.241528
vt 0.292285 -0.239351
vt 0.29742 -0.244677
vt 0.293087 -0.24199
vt 0.29742 -0.244677
vt 0.296444 -0.249336
vt 0.293087 -0.24199
vt 0.474602 0.631889
vt 0.568491 0.624691
vt 0.529658 0.536147
vt 0.474602 0.631889
vt 0.529658 0.536147
vt 0.478787 0.53821
vt 0.322187 0.642667
vt 0.474602 0.631889
vt 0.478787 0.53821
vt 0.324797 0.465994
vt 0.322187 0.642667
vt 0.478787 0.53821
vt 0.478787 0.53821
vt 0.500353 0.461231
vt 0.324797 0.465994
vt 0.529658 0.536147
vt 0.500353 0.461231
vt 0.478787 0.53821
vt 0.529658 0.536147
vt 0.531315 0.492162
vt 0.500353 0.461231
vt 0.587901 0.45978
vt 0.531315 0.492162
vt 0.529658 0.536147
vt 0.587901 0.45978
vt 0.529658 0.536147
vt 0.709069 0.601543
vt 0.709069 0.601543
vt 0.699979 0.492276
vt 0.587901 0.45978
vt 0.529658 0.536147
vt 0.568491 0.624691
vt 0.709069 0.601543
vt 0.417294 0.784463
vt 0.442567 0.790052
vt 0.391881 0.759741
vt 0.392021 0.778873
vt 0.417294 0.784463
vt 0.391881 0.759741
vt 0.401387 0.737967
vt 0.391881 0.759741
vt 0.420354 0.729368
vt 0.391881 0.759741
vt 0.445824 0.742898
vt 0.420354 0.729368
vt 0.442567 0.790052
vt 0.445824 0.742898
vt 0.391881 0.759741
vt 1.4438 -1.31394
vt 1.42216 -1.28398
vt 1.59571 -1.28946
vt 1.53947 -1.23859
vt 1.59571 -1.28946
vt 1.42216 -1.28398
vt 1.48323 -1.18772
vt 1.53947 -1.23859
vt 1.42216 -1.28398
vt 1.42216 -1.28398
vt 1.3616 -1.1835
vt 1.48323 -1.18772
vt 0.588485 0.726754
vt 0.503219 0.719688
vt 0.485067 0.801615
vt 0.588485 0.726754
vt 0.561352 0.705295
vt 0.503219 0.719688
vt 0.561352 0.705295
vt 0.486765 0.716174
vt 0.503219 0.719688
vt 0.486765 0.716174
vt 0.446593 0.768075
vt 0.503219 0.719688
vt 0.503219 0.719688
vt 0.446593 0.768075
vt 0.485067 0.801615
vt 0.485067 0.801615
vt 0.575858 0.82715
vt 0.647567 0.780782
vt 0.588485 0.726754
vt 0.485067 0.801615
vt 0.647567 0.780782

# 1422 Vertex Normals
vn -0.253511 0.527262 0.811003
vn 0.721655 0.300558 0.623601
vn 0.407416 0.863197 0.298167
vn -0.253511 0.527262 0.811003
vn 0.407416 0.863197 0.298167
vn -0.295407 0.942483 0.156396
vn -0.430436 0.877303 0.212285
vn -0.253511 0.527262 0.811003
vn -0.295407 0.942483 0.156396
vn -0.430436 0.877303 0.212285
vn -0.000002 0.355314 0.934747
vn -0.253511 0.527262 0.811003
vn -0.253511 0.527262 0.811003
vn -0.000002 0.355314 0.934747
vn -0.044458 0.091329 0.994828
vn -0.044458 0.091329 0.994828
vn 0.721655 0.300558 0.623601
vn -0.253511 0.527262 0.811003
vn -0.044458 0.091329 0.994828
vn 0.778355 -0.042228 0.626403
vn 0.721655 0.300558 0.623601
vn -0.044458 0.091329 0.994828
vn 0.513869 -0.061846 0.855636
vn 0.778355 -0.042228 0.626403
vn -0.044458 0.091329 0.994828
vn 0.0 -0.024523 0.999699
vn 0.513869 -0.061846 0.855636
vn -0.000002 0.355314 0.934747
vn 0.0 -0.024523 0.999699
vn -0.044458 0.091329 0.994828
vn 0.954766 0.021145 -0.296605
vn 0.721655 0.300558 0.623601
vn 0.778355 -0.042228 0.626403
vn 0.776222 0.542351 -0.321458
vn 0.721655 0.300558 0.623601
vn 0.954766 0.021145 -0.296605
vn 0.407416 0.863197 0.298167
vn 0.721655 0.300558 0.623601
vn 0.776222 0.542351 -0.321458
vn 0.966976 0.18569 0.174574
vn 0.778355 -0.042228 0.626403
vn 0.721537 0.007299 0.692337
vn 0.954766 0.021145 -0.296605
vn 0.778355 -0.042228 0.626403
vn 0.966976 0.18569 0.174574
vn 0.253507 0.527261 0.811005
vn -0.407426 0.863191 0.298171
vn -0.721657 0.300554 0.623601
vn 0.253507 0.527261 0.811005
vn 0.295401 0.942484 0.156403
vn -0.407426 0.863191 0.298171
vn 0.430432 0.877305 0.212285
vn 0.295401 0.942484 0.156403
vn 0.253507 0.527261 0.811005
vn 0.430432 0.877305 0.212285
vn 0.253507 0.527261 0.811005
vn -0.000002 0.355314 0.934747
vn 0.253507 0.527261 0.811005
vn 0.044458 0.091329 0.994828
vn -0.000002 0.355314 0.934747
vn 0.044458 0.091329 0.994828
vn 0.253507 0.527261 0.811005
vn -0.721657 0.300554 0.623601
vn 0.044458 0.091329 0.994828
vn -0.721657 0.300554 0.623601
vn -0.778354 -0.042234 0.626403
vn 0.044458 0.091329 0.994828
vn -0.778354 -0.042234 0.626403
vn -0.513868 -0.061849 0.855637
vn 0.044458 0.091329 0.994828
vn -0.513868 -0.061849 0.855637
vn 0.0 -0.024523 0.999699
vn -0.000002 0.355314 0.934747
vn 0.044458 0.091329 0.994828
vn 0.0 -0.024523 0.999699
vn -0.954766 0.021139 -0.296605
vn -0.778354 -0.042234 0.626403
vn -0.721657 0.300554 0.623601
vn -0.776228 0.542342 -0.321457
vn -0.954766 0.021139 -0.296605
vn -0.721657 0.300554 0.623601
vn -0.407426 0.863191 0.298171
vn -0.776228 0.542342 -0.321457
vn -0.721657 0.300554 0.623601
vn -0.966977 0.185684 0.174574
vn -0.721537 0.007294 0.692338
vn -0.778354 -0.042234 0.626403
vn -0.954766 0.021139 -0.296605
vn -0.966977 0.185684 0.174574
vn -0.778354 -0.042234 0.626403
vn -0.692861 0.654431 0.30276
vn -0.676941 0.732003 0.076954
vn -0.833538 0.409142 0.371237
vn 0.786324 0.532248 0.313698
vn 0.965722 0.190614 -0.176202
vn 0.786833 0.609334 -0.098012
vn 0.965722 0.190614 -0.176202
vn 0.912631 0.14708 -0.381409
vn 0.786833 0.609334 -0.098012
vn 0.710674 -0.619159 -0.334044
vn 0.912631 0.14708 -0.381409
vn 0.965722 0.190614 -0.176202
vn 0.743776 -0.60607 -0.281916
vn 0.835373 -0.209027 -0.50839
vn 0.965722 0.190614 -0.176202
vn -0.54809 -0.831637 0.089317
vn 0.52098 -0.846202 -0.111904
vn 0.479442 -0.877259 -0.023501
vn -0.966422 0.183634 -0.179744
vn -0.764825 0.634551 -0.111301
vn -0.893352 0.161064 -0.419501
vn -0.772711 0.543354 0.328153
vn -0.764825 0.634551 -0.111301
vn -0.966422 0.183634 -0.179744
vn 0.692859 0.654432 0.302761
vn 0.833536 0.409143 0.371241
vn 0.67694 0.732004 0.076952
vn 0.098348 0.991265 0.087866
vn 0.28609 0.95661 -0.055224
vn -0.000002 0.636227 -0.771502
vn -0.000002 0.636227 -0.771502
vn -0.286097 0.956608 -0.055225
vn -0.098355 0.991265 0.087866
vn -0.286097 0.956608 -0.055225
vn -0.000002 0.636227 -0.771502
vn -0.125234 0.40258 -0.906778
vn -0.000002 0.636227 -0.771502
vn 0.144751 0.41702 -0.897297
vn -0.125234 0.40258 -0.906778
vn 0.28609 0.95661 -0.055224
vn 0.144751 0.41702 -0.897297
vn -0.000002 0.636227 -0.771502
vn -0.000003 0.979596 0.200978
vn 0.419097 0.550172 0.722266
vn 0.28609 0.95661 -0.055224
vn 0.419097 0.550172 0.722266
vn 0.082757 0.917389 0.389292
vn -0.000002 0.624748 0.780826
vn -0.4191 0.550169 0.722266
vn -0.000002 0.624748 0.780826
vn -0.082763 0.917389 0.389292
vn -0.000003 0.979596 0.200978
vn -0.286097 0.956608 -0.055225
vn -0.4191 0.550169 0.722266
vn -0.000002 0.624748 0.780826
vn -0.000001 0.208806 0.977957
vn 0.587487 0.367813 0.720814
vn -0.000002 0.624748 0.780826
vn 0.587487 0.367813 0.720814
vn 0.419097 0.550172 0.722266
vn 0.587487 0.367813 0.720814
vn 0.852172 0.023471 0.522736
vn 0.419097 0.550172 0.722266
vn 0.852172 0.023471 0.522736
vn 0.587487 0.367813 0.720814
vn 0.676195 -0.156871 0.719827
vn 0.852172 0.023471 0.522736
vn 0.676195 -0.156871 0.719827
vn 0.951332 -0.025123 -0.307142
vn 0.629374 -0.76874 0.113694
vn 0.951332 -0.025123 -0.307142
vn 0.676195 -0.156871 0.719827
vn 0.951332 -0.025123 -0.307142
vn 0.629374 -0.76874 0.113694
vn 0.660284 -0.577097 -0.480608
vn 0.629374 -0.76874 0.113694
vn -0.0 -0.852017 -0.523513
vn 0.660284 -0.577097 -0.480608
vn 0.629374 -0.76874 0.113694
vn 0.0 -0.830237 0.55741
vn -0.0 -0.852017 -0.523513
vn 0.0 -0.830237 0.55741
vn 0.629374 -0.76874 0.113694
vn 0.676195 -0.156871 0.719827
vn 0.0 -0.830237 0.55741
vn 0.676195 -0.156871 0.719827
vn -0.0 -0.332842 0.942983
vn 0.0 -0.830237 0.55741
vn -0.0 -0.332842 0.942983
vn -0.676195 -0.156872 0.719827
vn 0.0 -0.830237 0.55741
vn -0.676195 -0.156872 0.719827
vn -0.629374 -0.76874 0.113694
vn -0.629374 -0.76874 0.113694
vn -0.0 -0.852017 -0.523513
vn 0.0 -0.830237 0.55741
vn -0.629374 -0.76874 0.113694
vn -0.660284 -0.577097 -0.480608
vn -0.0 -0.852017 -0.523513
vn -0.951332 -0.025124 -0.307142
vn -0.660284 -0.577097 -0.480608
vn -0.629374 -0.76874 0.113694
vn -0.629374 -0.76874 0.113694
vn -0.676195 -0.156872 0.719827
vn -0.951332 -0.025124 -0.307142
vn -0.852172 0.023467 0.522736
vn -0.951332 -0.025124 -0.307142
vn -0.676195 -0.156872 0.719827
vn -0.852172 0.023467 0.522736
vn -0.676195 -0.156872 0.719827
vn -0.587489 0.36781 0.720814
vn -0.587489 0.36781 0.720814
vn -0.4191 0.550169 0.722266
vn -0.852172 0.023467 0.522736
vn -0.000002 0.624748 0.780826
vn -0.4191 0.550169 0.722266
vn -0.587489 0.36781 0.720814
vn -0.000002 0.624748 0.780826
vn -0.587489 0.36781 0.720814
vn -0.000001 0.208806 0.977957
vn -0.000001 0.208806 0.977957
vn -0.587489 0.36781 0.720814
vn -0.676195 -0.156872 0.719827
vn -0.000001 0.208806 0.977957
vn -0.676195 -0.156872 0.719827
vn -0.0 -0.332842 0.942983
vn -0.000001 0.208806 0.977957
vn -0.0 -0.332842 0.942983
vn 0.676195 -0.156871 0.719827
vn -0.000001 0.208806 0.977957
vn 0.676195 -0.156871 0.719827
vn 0.587487 0.367813 0.720814
vn -0.000001 0.366254 -0.930515
vn -0.000003 0.847053 -0.531508
vn 0.559879 0.665409 -0.493726
vn 0.559879 0.665409 -0.493726
vn 0.682335 -0.006527 -0.731011
vn -0.000001 0.366254 -0.930515
vn 0.559879 0.665409 -0.493726
vn 0.876505 0.417058 -0.240419
vn 0.682335 -0.006527 -0.731011
vn -0.000013 0.987254 -0.15915
vn 0.876505 0.417058 -0.240419
vn 0.559879 0.665409 -0.493726
vn -0.000003 0.847053 -0.531508
vn -0.000013 0.987254 -0.15915
vn 0.559879 0.665409 -0.493726
vn -0.000003 0.847053 -0.531508
vn -0.559842 0.665408 -0.49377
vn -0.000013 0.987254 -0.15915
vn -0.000001 0.366254 -0.930515
vn -0.559842 0.665408 -0.49377
vn -0.000003 0.847053 -0.531508
vn -0.559842 0.665408 -0.49377
vn -0.000001 0.366254 -0.930515
vn -0.682263 -0.006549 -0.731077
vn -0.559842 0.665408 -0.49377
vn -0.682263 -0.006549 -0.731077
vn -0.876479 0.417023 -0.240575
vn -0.559842 0.665408 -0.49377
vn -0.876479 0.417023 -0.240575
vn -0.000013 0.987254 -0.15915
vn -0.682263 -0.006549 -0.731077
vn -0.681297 -0.400917 -0.612454
vn -0.876479 0.417023 -0.240575
vn -0.681297 -0.400917 -0.612454
vn -0.682263 -0.006549 -0.731077
vn 0.000002 -0.458967 -0.888453
vn 0.000002 -0.588721 -0.808336
vn -0.681297 -0.400917 -0.612454
vn 0.000002 -0.458967 -0.888453
vn 0.000002 -0.588721 -0.808336
vn 0.000002 -0.458967 -0.888453
vn 0.681347 -0.400856 -0.612439
vn 0.000002 -0.458967 -0.888453
vn 0.682335 -0.006527 -0.731011
vn 0.681347 -0.400856 -0.612439
vn 0.000002 -0.458967 -0.888453
vn -0.000001 0.366254 -0.930515
vn 0.682335 -0.006527 -0.731011
vn 0.000002 -0.458967 -0.888453
vn -0.682263 -0.006549 -0.731077
vn -0.000001 0.366254 -0.930515
vn 0.876505 0.417058 -0.240419
vn 0.681347 -0.400856 -0.612439
vn 0.682335 -0.006527 -0.731011
vn 0.616949 -0.668692 0.415
vn 0.000003 -0.84967 0.527315
vn 0.000004 -0.989251 0.146227
vn 0.430729 0.20575 -0.878715
vn -0.0 0.059211 -0.998245
vn -0.000001 0.365288 -0.930895
vn -0.000001 0.365288 -0.930895
vn 0.436339 0.460746 -0.772865
vn 0.430729 0.20575 -0.878715
vn -0.000002 0.605627 -0.795749
vn 0.436339 0.460746 -0.772865
vn -0.000001 0.365288 -0.930895
vn -0.000001 0.409005 0.912532
vn -0.0 0.111931 0.993716
vn 0.524693 0.095288 0.845941
vn -0.000001 0.409005 0.912532
vn -0.524694 0.095284 0.845942
vn -0.0 0.111931 0.993716
vn -0.000002 0.605627 -0.795749
vn -0.000001 0.365288 -0.930895
vn -0.436342 0.460743 -0.772865
vn -0.000001 0.365288 -0.930895
vn -0.43073 0.205747 -0.878715
vn -0.436342 0.460743 -0.772865
vn -0.43073 0.205747 -0.878715
vn -0.000001 0.365288 -0.930895
vn -0.0 0.059211 -0.998245
vn -0.616944 -0.668696 0.415
vn 0.000004 -0.989251 0.146227
vn 0.000003 -0.84967 0.527315
vn -0.616944 -0.668696 0.415
vn -0.251114 -0.425317 0.86951
vn -0.524694 0.095284 0.845942
vn 0.616949 -0.668692 0.415
vn 0.524693 0.095288 0.845941
vn 0.251117 -0.425315 0.86951
vn 0.59952 -0.287015 0.747127
vn 0.620322 -0.784315 0.007144
vn 0.891704 0.418349 -0.172764
vn 0.731775 0.428447 0.530036
vn 0.891704 0.418349 -0.172764
vn 0.080399 0.96096 0.264748
vn -0.22527 0.308786 0.92407
vn 0.198147 -0.008198 0.980138
vn 0.080399 0.96096 0.264748
vn -0.77683 0.602041 -0.184613
vn -0.629193 0.554167 0.544991
vn 0.080399 0.96096 0.264748
vn -0.68534 -0.704385 0.184799
vn -0.791881 0.113492 0.600037
vn -0.77683 0.602041 -0.184613
vn -0.826565 -0.489692 -0.277477
vn -0.77683 0.602041 -0.184613
vn -0.515695 0.054641 -0.855028
vn -0.515695 0.054641 -0.855028
vn -0.069031 -0.782481 -0.618836
vn -0.826565 -0.489692 -0.277477
vn -0.069031 -0.782481 -0.618836
vn -0.515695 0.054641 -0.855028
vn 0.532291 -0.095786 -0.841125
vn -0.069031 -0.782481 -0.618836
vn 0.532291 -0.095786 -0.841125
vn 0.620322 -0.784315 0.007144
vn -0.68534 -0.704385 0.184799
vn -0.069031 -0.782481 -0.618836
vn 0.620322 -0.784315 0.007144
vn 0.891704 0.418349 -0.172764
vn 0.620322 -0.784315 0.007144
vn 0.626017 -0.286078 -0.725439
vn 0.532291 -0.095786 -0.841125
vn 0.073485 0.790948 -0.607455
vn 0.891704 0.418349 -0.172764
vn 0.306957 -0.038951 -0.950926
vn -0.515695 0.054641 -0.855028
vn 0.073485 0.790948 -0.607455
vn -0.77683 0.602041 -0.184613
vn 0.073485 0.790948 -0.607455
vn -0.515695 0.054641 -0.855028
vn -0.77683 0.602041 -0.184613
vn 0.080399 0.96096 0.264748
vn 0.073485 0.790948 -0.607455
vn 0.080399 0.96096 0.264748
vn 0.891704 0.418349 -0.172764
vn 0.073485 0.790948 -0.607455
vn -0.397853 -0.761325 0.511954
vn 0.620322 -0.784315 0.007144
vn 0.327773 -0.357026 0.874698
vn -0.397853 -0.761325 0.511954
vn 0.327773 -0.357026 0.874698
vn -0.500818 -0.077081 0.862114
vn -0.011113 0.384249 -0.923163
vn -0.176987 0.252341 -0.951315
vn -0.256684 0.468287 -0.845471
vn -0.011113 0.384249 -0.923163
vn 0.088727 0.199097 -0.975955
vn -0.176987 0.252341 -0.951315
vn 0.088727 0.199097 -0.975955
vn -0.011113 0.384249 -0.923163
vn 0.259108 0.380559 -0.887715
vn -0.011113 0.384249 -0.923163
vn 0.033273 0.569569 -0.82127
vn 0.259108 0.380559 -0.887715
vn -0.011113 0.384249 -0.923163
vn -0.256684 0.468287 -0.845471
vn 0.033273 0.569569 -0.82127
vn -0.273492 -0.571998 0.773318
vn -0.455613 -0.714732 0.530636
vn 0.222697 -0.852226 0.473409
vn -0.273492 -0.571998 0.773318
vn -0.666129 -0.032992 0.745106
vn -0.455613 -0.714732 0.530636
vn -0.24249 -0.285854 0.927085
vn 0.127991 0.358277 0.9248
vn -0.666129 -0.032992 0.745106
vn 0.364781 -0.05979 0.929172
vn 0.70908 -0.279712 0.647276
vn 0.127991 0.358277 0.9248
vn 0.144622 -0.643002 0.752086
vn 0.222697 -0.852226 0.473409
vn 0.70908 -0.279712 0.647276
vn -0.912167 -0.171918 0.372016
vn -0.687779 0.49367 0.532212
vn -0.833538 0.409142 0.371237
vn -0.912167 -0.171918 0.372016
vn -0.833538 0.409142 0.371237
vn -0.54809 -0.831637 0.089317
vn -0.912167 -0.171918 0.372016
vn -0.54809 -0.831637 0.089317
vn -0.45101 -0.887517 -0.094357
vn 0.614814 -0.769951 -0.170817
vn -0.033152 -0.998658 -0.039776
vn -0.54809 -0.831637 0.089317
vn 0.614814 -0.769951 -0.170817
vn 0.962936 -0.007421 0.26963
vn 0.370104 -0.911852 -0.177622
vn 0.614814 -0.769951 -0.170817
vn 0.965722 0.190614 -0.176202
vn 0.962936 -0.007421 0.26963
vn 0.786324 0.532248 0.313698
vn 0.962936 -0.007421 0.26963
vn 0.965722 0.190614 -0.176202
vn 0.540823 0.695042 0.473737
vn 0.025457 0.689403 0.72393
vn 0.962936 -0.007421 0.26963
vn -0.295582 0.64028 0.708994
vn -0.295954 0.800663 0.520913
vn -0.833538 0.409142 0.371237
vn -0.599525 -0.287015 0.747122
vn -0.891703 0.41835 -0.17277
vn -0.620322 -0.784315 0.00714
vn -0.731779 0.428448 0.53003
vn -0.080401 0.96096 0.264747
vn -0.891703 0.41835 -0.17277
vn 0.225264 0.308786 0.924071
vn -0.080401 0.96096 0.264747
vn -0.198154 -0.008197 0.980137
vn 0.776831 0.602041 -0.184608
vn -0.080401 0.96096 0.264747
vn 0.62919 0.554167 0.544995
vn 0.685339 -0.704385 0.184804
vn 0.776831 0.602041 -0.184608
vn 0.791877 0.113492 0.600043
vn 0.826566 -0.489692 -0.277471
vn 0.515701 0.05464 -0.855025
vn 0.776831 0.602041 -0.184608
vn 0.515701 0.05464 -0.855025
vn 0.826566 -0.489692 -0.277471
vn 0.069035 -0.782482 -0.618835
vn 0.069035 -0.782482 -0.618835
vn -0.532285 -0.095787 -0.841128
vn 0.515701 0.05464 -0.855025
vn 0.069035 -0.782482 -0.618835
vn -0.620322 -0.784315 0.00714
vn -0.532285 -0.095787 -0.841128
vn 0.685339 -0.704385 0.184804
vn -0.620322 -0.784315 0.00714
vn 0.069035 -0.782482 -0.618835
vn -0.891703 0.41835 -0.17277
vn -0.626012 -0.286079 -0.725443
vn -0.620322 -0.784315 0.00714
vn -0.532285 -0.095787 -0.841128
vn -0.891703 0.41835 -0.17277
vn -0.073481 0.790948 -0.607455
vn -0.306951 -0.038951 -0.950928
vn -0.073481 0.790948 -0.607455
vn 0.515701 0.05464 -0.855025
vn 0.776831 0.602041 -0.184608
vn 0.515701 0.05464 -0.855025
vn -0.073481 0.790948 -0.607455
vn 0.776831 0.602041 -0.184608
vn -0.073481 0.790948 -0.607455
vn -0.080401 0.96096 0.264747
vn -0.080401 0.96096 0.264747
vn -0.073481 0.790948 -0.607455
vn -0.891703 0.41835 -0.17277
vn 0.397849 -0.761325 0.511957
vn -0.327779 -0.357026 0.874696
vn -0.620322 -0.784315 0.00714
vn 0.397849 -0.761325 0.511957
vn 0.500812 -0.07708 0.862117
vn -0.327779 -0.357026 0.874696
vn 0.01112 0.384249 -0.923162
vn 0.256691 0.468287 -0.845469
vn 0.176994 0.252341 -0.951313
vn 0.01112 0.384249 -0.923162
vn 0.176994 0.252341 -0.951313
vn -0.08872 0.199096 -0.975956
vn -0.08872 0.199096 -0.975956
vn -0.259102 0.380559 -0.887717
vn 0.01112 0.384249 -0.923162
vn 0.01112 0.384249 -0.923162
vn -0.259102 0.380559 -0.887717
vn -0.033267 0.569569 -0.82127
vn 0.01112 0.384249 -0.923162
vn -0.033267 0.569569 -0.82127
vn 0.256691 0.468287 -0.845469
vn 0.273486 -0.571998 0.77332
vn -0.2227 -0.852226 0.473407
vn 0.455609 -0.714732 0.53064
vn 0.273486 -0.571998 0.77332
vn 0.455609 -0.714732 0.53064
vn 0.666124 -0.032992 0.745111
vn 0.242483 -0.285854 0.927086
vn 0.666124 -0.032992 0.745111
vn -0.127998 0.358276 0.9248
vn -0.364788 -0.059791 0.929169
vn -0.127998 0.358276 0.9248
vn -0.709084 -0.279713 0.647271
vn -0.144627 -0.643002 0.752085
vn -0.709084 -0.279713 0.647271
vn -0.2227 -0.852226 0.473407
vn 0.912164 -0.171918 0.372022
vn 0.833536 0.409143 0.371241
vn 0.687776 0.49367 0.532216
vn 0.912164 -0.171918 0.372022
vn 0.548089 -0.831637 0.089321
vn 0.833536 0.409143 0.371241
vn 0.912164 -0.171918 0.372022
vn 0.451011 -0.887517 -0.094354
vn 0.548089 -0.831637 0.089321
vn -0.598981 -0.784371 -0.161196
vn 0.548089 -0.831637 0.089321
vn 0.033152 -0.998659 -0.039776
vn -0.598981 -0.784371 -0.161196
vn -0.370103 -0.911852 -0.177625
vn -0.957791 -0.023847 0.286475
vn -0.598981 -0.784371 -0.161196
vn -0.957791 -0.023847 0.286475
vn -0.966422 0.183634 -0.179744
vn -0.772711 0.543354 0.328153
vn -0.966422 0.183634 -0.179744
vn -0.957791 -0.023847 0.286475
vn -0.523578 0.700877 0.484393
vn -0.957791 -0.023847 0.286475
vn -0.025461 0.689403 0.72393
vn 0.295577 0.64028 0.708996
vn 0.833536 0.409143 0.371241
vn 0.295951 0.800664 0.520912
vn 0.548089 -0.831637 0.089321
vn -0.468008 -0.883515 -0.019212
vn -0.511927 -0.847913 -0.137744
vn -0.727507 -0.630671 -0.270161
vn -0.966422 0.183634 -0.179744
vn -0.822693 -0.232169 -0.518917
vn -0.694302 -0.633573 -0.341366
vn -0.966422 0.183634 -0.179744
vn -0.893352 0.161064 -0.419501
vn 0.132091 -0.981612 -0.137801
vn 0.218382 -0.793681 0.567785
vn 0.037552 -0.741871 -0.669491
vn 0.154215 -0.987749 -0.023849
vn 0.236745 -0.617774 0.749871
vn 0.847186 -0.18322 0.498705
vn 0.132091 -0.981612 -0.137801
vn -0.056158 -0.729851 0.681295
vn 0.236745 -0.617774 0.749871
vn -0.341219 -0.838022 0.42578
vn -0.056158 -0.729851 0.681295
vn 0.118214 -0.992742 -0.022132
vn -0.341219 -0.838022 0.42578
vn -0.069706 -0.629301 0.77403
vn -0.056158 -0.729851 0.681295
vn -0.568553 0.047294 0.821286
vn -0.069706 -0.629301 0.77403
vn -0.341219 -0.838022 0.42578
vn -0.651919 -0.630334 0.421522
vn -0.515074 0.186578 0.836593
vn -0.410723 -0.73235 0.543111
vn -0.462014 -0.777268 -0.427079
vn -0.651919 -0.630334 0.421522
vn -0.341219 -0.838022 0.42578
vn -0.462014 -0.777268 -0.427079
vn -0.341219 -0.838022 0.42578
vn -0.404736 -0.436103 -0.803743
vn -0.308587 -0.05847 -0.949397
vn -0.428172 0.161705 -0.889112
vn -0.462014 -0.777268 -0.427079
vn -0.321647 0.931715 -0.168672
vn -0.428172 0.161705 -0.889112
vn -0.420336 0.338522 -0.841856
vn -0.22701 0.883018 -0.410787
vn -0.184582 0.251631 -0.950059
vn -0.020949 0.947543 -0.31894
vn -0.515074 0.186578 0.836593
vn -0.367847 0.928119 -0.057299
vn -0.115673 0.787477 0.605392
vn -0.554703 0.329397 0.76407
vn -0.092689 0.993018 0.07297
vn -0.030398 0.80503 0.592455
vn -0.030398 0.80503 0.592455
vn -0.092689 0.993018 0.07297
vn 0.080909 0.978792 0.188202
vn -0.030398 0.80503 0.592455
vn 0.080909 0.978792 0.188202
vn 0.088035 0.816635 0.570401
vn 0.183386 0.611872 0.769404
vn 0.088035 0.816635 0.570401
vn 0.098667 0.987816 -0.120354
vn 0.098667 0.987816 -0.120354
vn 0.28609 0.95661 -0.055224
vn 0.183386 0.611872 0.769404
vn 0.144751 0.41702 -0.897297
vn 0.28609 0.95661 -0.055224
vn 0.098667 0.987816 -0.120354
vn 0.144751 0.41702 -0.897297
vn 0.098667 0.987816 -0.120354
vn 0.124016 -0.118376 -0.985194
vn 0.533479 -0.263274 -0.803795
vn 0.144751 0.41702 -0.897297
vn 0.124016 -0.118376 -0.985194
vn 0.533479 -0.263274 -0.803795
vn 0.124016 -0.118376 -0.985194
vn 0.178909 -0.947861 -0.263727
vn 0.132091 -0.981612 -0.137801
vn 0.124016 -0.118376 -0.985194
vn 0.056794 0.108676 -0.992453
vn -0.233091 -0.230307 -0.94479
vn 0.063567 -0.963434 -0.260297
vn 0.056794 0.108676 -0.992453
vn -0.286905 -0.667307 -0.687304
vn -0.279087 -0.898446 0.338978
vn 0.132091 -0.981612 -0.137801
vn -0.020949 0.947543 -0.31894
vn -0.184582 0.251631 -0.950059
vn 0.056794 0.108676 -0.992453
vn 0.001568 0.617813 -0.786323
vn 0.056794 0.108676 -0.992453
vn 0.132114 0.904169 -0.406231
vn 0.056794 0.108676 -0.992453
vn 0.124016 -0.118376 -0.985194
vn 0.132114 0.904169 -0.406231
vn 0.28609 0.95661 -0.055224
vn 0.419097 0.550172 0.722266
vn 0.183386 0.611872 0.769404
vn 0.291899 0.160462 0.942893
vn 0.419097 0.550172 0.722266
vn 0.737969 -0.2913 0.608724
vn 0.645242 -0.530437 -0.549817
vn 0.402098 -0.915587 -0.004117
vn -0.125071 -0.513968 -0.848642
vn 0.645242 -0.530437 -0.549817
vn 0.988316 -0.151424 0.017384
vn 0.402098 -0.915587 -0.004117
vn 0.423299 0.576465 -0.698932
vn 0.988316 -0.151424 0.017384
vn 0.645242 -0.530437 -0.549817
vn 0.546193 0.825637 0.141411
vn 0.988316 -0.151424 0.017384
vn 0.530513 0.811161 -0.246118
vn 0.988316 -0.151424 0.017384
vn 0.523991 0.737774 0.425585
vn 0.571766 -0.395168 0.718975
vn 0.402098 -0.915587 -0.004117
vn 0.988316 -0.151424 0.017384
vn 0.571766 -0.395168 0.718975
vn 0.402098 -0.915587 -0.004117
vn 0.571766 -0.395168 0.718975
vn 0.430126 -0.421703 0.798222
vn -0.111959 -0.911021 0.396871
vn 0.402098 -0.915587 -0.004117
vn 0.430126 -0.421703 0.798222
vn -0.230131 -0.957608 0.173284
vn -0.462014 -0.777268 -0.427079
vn 0.402098 -0.915587 -0.004117
vn -0.462014 -0.777268 -0.427079
vn -0.111959 -0.911021 0.396871
vn -0.651919 -0.630334 0.421522
vn 0.402098 -0.915587 -0.004117
vn -0.462014 -0.777268 -0.427079
vn -0.125071 -0.513968 -0.848642
vn -0.298905 0.364895 -0.881764
vn -0.321647 0.931715 -0.168672
vn 0.423299 0.576465 -0.698932
vn -0.428172 0.161705 -0.889112
vn -0.321647 0.931715 -0.168672
vn -0.298905 0.364895 -0.881764
vn -0.515074 0.186578 0.836593
vn -0.164827 0.341418 0.925346
vn -0.367847 0.928119 -0.057299
vn -0.321647 0.931715 -0.168672
vn -0.164827 0.341418 0.925346
vn 0.523991 0.737774 0.425585
vn 0.530513 0.811161 -0.246118
vn -0.321647 0.931715 -0.168672
vn 0.546193 0.825637 0.141411
vn -0.462014 -0.777268 -0.427079
vn -0.428172 0.161705 -0.889112
vn -0.125071 -0.513968 -0.848642
vn -0.298905 0.364895 -0.881764
vn -0.125071 -0.513968 -0.848642
vn -0.428172 0.161705 -0.889112
vn 0.25256 0.285252 -0.924578
vn -0.125071 -0.513968 -0.848642
vn -0.298905 0.364895 -0.881764
vn -0.125071 -0.513968 -0.848642
vn 0.25256 0.285252 -0.924578
vn 0.645242 -0.530437 -0.549817
vn 0.430126 -0.421703 0.798222
vn -0.164827 0.341418 0.925346
vn -0.32303 -0.219396 0.920607
vn 0.430126 -0.421703 0.798222
vn -0.32303 -0.219396 0.920607
vn -0.136761 -0.776601 0.614969
vn -0.111959 -0.911021 0.396871
vn -0.32303 -0.219396 0.920607
vn -0.651919 -0.630334 0.421522
vn -0.651919 -0.630334 0.421522
vn -0.32303 -0.219396 0.920607
vn -0.515074 0.186578 0.836593
vn -0.32303 -0.219396 0.920607
vn -0.164827 0.341418 0.925346
vn -0.515074 0.186578 0.836593
vn -0.164827 0.341418 0.925346
vn 0.571766 -0.395168 0.718975
vn 0.413298 0.519245 0.748044
vn 0.430126 -0.421703 0.798222
vn 0.571766 -0.395168 0.718975
vn -0.164827 0.341418 0.925346
vn 0.85311 0.264491 0.449719
vn 0.627019 -0.168192 0.76063
vn 0.942406 0.19136 0.27432
vn 0.914028 0.276932 0.296416
vn 0.85311 0.264491 0.449719
vn 0.942406 0.19136 0.27432
vn 0.558141 0.605929 -0.566858
vn 0.966976 0.18569 0.174574
vn 0.942406 0.19136 0.27432
vn 0.558141 0.605929 -0.566858
vn 0.942406 0.19136 0.27432
vn 0.727182 0.030922 -0.685747
vn 0.835421 -0.540183 0.101359
vn 0.727182 0.030922 -0.685747
vn 0.942406 0.19136 0.27432
vn 0.942406 0.19136 0.27432
vn 0.627019 -0.168192 0.76063
vn 0.835421 -0.540183 0.101359
vn 0.627019 -0.168192 0.76063
vn 0.471129 -0.774287 0.422513
vn 0.835421 -0.540183 0.101359
vn 0.627019 -0.168192 0.76063
vn 0.541168 -0.521599 0.6596
vn 0.471129 -0.774287 0.422513
vn 0.471129 -0.774287 0.422513
vn 0.541168 -0.521599 0.6596
vn 0.000001 -0.85845 0.512897
vn 0.000001 -0.969332 0.245755
vn 0.471129 -0.774287 0.422513
vn 0.000001 -0.85845 0.512897
vn 0.471129 -0.774287 0.422513
vn 0.000001 -0.969332 0.245755
vn 0.000002 -0.992821 0.119612
vn 0.471129 -0.774287 0.422513
vn 0.000002 -0.992821 0.119612
vn 0.412226 -0.897933 -0.154229
vn 0.412226 -0.897933 -0.154229
vn 0.835421 -0.540183 0.101359
vn 0.471129 -0.774287 0.422513
vn 0.412226 -0.897933 -0.154229
vn 0.525448 -0.574026 -0.628012
vn 0.835421 -0.540183 0.101359
vn 0.525448 -0.574026 -0.628012
vn 0.727182 0.030922 -0.685747
vn 0.835421 -0.540183 0.101359
vn -0.586388 0.374821 0.718093
vn -0.0 0.702135 0.712044
vn -0.228824 0.387946 0.892826
vn -0.228824 0.387946 0.892826
vn 0.439519 0.286766 0.851228
vn -0.586388 0.374821 0.718093
vn 0.439519 0.286766 0.851228
vn -0.228824 0.387946 0.892826
vn 0.627019 -0.168192 0.76063
vn 0.183891 0.186882 0.965018
vn 0.627019 -0.168192 0.76063
vn -0.228824 0.387946 0.892826
vn -0.228824 0.387946 0.892826
vn -0.0 0.702135 0.712044
vn -0.1761 0.60897 0.773398
vn -0.1761 0.60897 0.773398
vn -0.0 0.702135 0.712044
vn -0.328811 0.134864 0.934717
vn 0.080527 -0.439106 0.894819
vn 0.541168 -0.521599 0.6596
vn 0.519357 -0.278894 0.807766
vn 0.000001 -0.85845 0.512897
vn 0.541168 -0.521599 0.6596
vn 0.080527 -0.439106 0.894819
vn -0.541165 -0.5216 0.659601
vn 0.000001 -0.85845 0.512897
vn -0.080523 -0.439106 0.894819
vn -0.541165 -0.5216 0.659601
vn -0.080523 -0.439106 0.894819
vn -0.519353 -0.278896 0.807768
vn -0.541165 -0.5216 0.659601
vn -0.519353 -0.278896 0.807768
vn -0.627017 -0.168193 0.760632
vn -0.627017 -0.168193 0.760632
vn -0.183887 0.186881 0.965019
vn 0.228827 0.387954 0.892822
vn -0.439519 0.286766 0.851228
vn -0.627017 -0.168193 0.760632
vn 0.228827 0.387954 0.892822
vn 0.228827 0.387954 0.892822
vn 0.586389 0.374836 0.718085
vn -0.439519 0.286766 0.851228
vn 0.586389 0.374836 0.718085
vn 0.228827 0.387954 0.892822
vn -0.0 0.702135 0.712044
vn 0.228827 0.387954 0.892822
vn 0.176102 0.608971 0.773397
vn -0.0 0.702135 0.712044
vn 0.176102 0.608971 0.773397
vn 0.328813 0.134866 0.934716
vn -0.0 0.702135 0.712044
vn 0.000002 -0.992821 0.119612
vn 0.000002 -0.8715 -0.490395
vn 0.412226 -0.897933 -0.154229
vn 0.000002 -0.992821 0.119612
vn -0.412224 -0.897934 -0.154226
vn 0.000002 -0.8715 -0.490395
vn -0.412224 -0.897934 -0.154226
vn -0.525446 -0.57403 -0.62801
vn -0.149396 -0.835749 -0.528398
vn -0.525446 -0.57403 -0.62801
vn -0.13484 -0.303743 -0.943164
vn -0.149396 -0.835749 -0.528398
vn -0.525446 -0.57403 -0.62801
vn -0.727183 0.030917 -0.685747
vn -0.13484 -0.303743 -0.943164
vn -0.000001 0.281908 -0.959441
vn -0.13484 -0.303743 -0.943164
vn -0.727183 0.030917 -0.685747
vn -0.000001 0.281908 -0.959441
vn 0.727182 0.030922 -0.685747
vn 0.134842 -0.303742 -0.943164
vn -0.000001 0.281908 -0.959441
vn 0.558141 0.605929 -0.566858
vn 0.727182 0.030922 -0.685747
vn -0.000001 0.281908 -0.959441
vn -0.727183 0.030917 -0.685747
vn -0.558145 0.605926 -0.566858
vn 0.412226 -0.897933 -0.154229
vn 0.1494 -0.835748 -0.528398
vn 0.525448 -0.574026 -0.628012
vn 0.525448 -0.574026 -0.628012
vn 0.1494 -0.835748 -0.528398
vn 0.134842 -0.303742 -0.943164
vn 0.525448 -0.574026 -0.628012
vn 0.134842 -0.303742 -0.943164
vn 0.727182 0.030922 -0.685747
vn -0.853112 0.264488 0.449719
vn -0.942407 0.191353 0.274321
vn -0.627017 -0.168193 0.760632
vn -0.914029 0.276926 0.296416
vn -0.942407 0.191353 0.274321
vn -0.853112 0.264488 0.449719
vn -0.558145 0.605926 -0.566858
vn -0.942407 0.191353 0.274321
vn -0.966977 0.185684 0.174574
vn -0.558145 0.605926 -0.566858
vn -0.727183 0.030917 -0.685747
vn -0.942407 0.191353 0.274321
vn -0.942407 0.191353 0.274321
vn -0.727183 0.030917 -0.685747
vn -0.835418 -0.540187 0.101362
vn -0.942407 0.191353 0.274321
vn -0.835418 -0.540187 0.101362
vn -0.627017 -0.168193 0.760632
vn -0.627017 -0.168193 0.760632
vn -0.835418 -0.540187 0.101362
vn -0.471126 -0.774287 0.422515
vn -0.627017 -0.168193 0.760632
vn -0.471126 -0.774287 0.422515
vn -0.541165 -0.5216 0.659601
vn -0.541165 -0.5216 0.659601
vn -0.471126 -0.774287 0.422515
vn 0.000001 -0.85845 0.512897
vn 0.000001 -0.969332 0.245755
vn 0.000001 -0.85845 0.512897
vn -0.471126 -0.774287 0.422515
vn -0.471126 -0.774287 0.422515
vn 0.000002 -0.992821 0.119612
vn 0.000001 -0.969332 0.245755
vn -0.471126 -0.774287 0.422515
vn -0.412224 -0.897934 -0.154226
vn 0.000002 -0.992821 0.119612
vn -0.412224 -0.897934 -0.154226
vn -0.471126 -0.774287 0.422515
vn -0.835418 -0.540187 0.101362
vn -0.412224 -0.897934 -0.154226
vn -0.835418 -0.540187 0.101362
vn -0.525446 -0.57403 -0.62801
vn -0.727183 0.030917 -0.685747
vn -0.525446 -0.57403 -0.62801
vn -0.835418 -0.540187 0.101362
vn 0.519357 -0.278894 0.807766
vn 0.541168 -0.521599 0.6596
vn 0.627019 -0.168192 0.76063
vn 0.878618 0.444304 -0.174998
vn 0.508809 0.522151 -0.68445
vn 0.941099 0.113029 -0.31868
vn 0.906928 0.171433 -0.384827
vn 0.878618 0.444304 -0.174998
vn 0.941099 0.113029 -0.31868
vn 0.8758 -0.23717 -0.420387
vn 0.906928 0.171433 -0.384827
vn 0.941099 0.113029 -0.31868
vn 0.273944 -0.255968 -0.927057
vn 0.8758 -0.23717 -0.420387
vn 0.941099 0.113029 -0.31868
vn -0.273942 -0.25597 -0.927057
vn -0.9411 0.113022 -0.31868
vn -0.875798 -0.237176 -0.420387
vn -0.875798 -0.237176 -0.420387
vn -0.9411 0.113022 -0.31868
vn -0.90693 0.171426 -0.384827
vn -0.90693 0.171426 -0.384827
vn -0.9411 0.113022 -0.31868
vn -0.878621 0.444297 -0.174998
vn -0.878621 0.444297 -0.174998
vn -0.9411 0.113022 -0.31868
vn -0.508813 0.522147 -0.68445
vn 0.932291 0.168236 -0.320203
vn 0.612966 -0.196628 -0.765251
vn 0.974976 -0.123041 -0.185157
vn 0.947355 -0.183446 -0.262423
vn 0.932291 0.168236 -0.320203
vn 0.974976 -0.123041 -0.185157
vn 0.974976 -0.123041 -0.185157
vn 0.916064 -0.399778 -0.031678
vn 0.947355 -0.183446 -0.262423
vn 0.974976 -0.123041 -0.185157
vn 0.335538 -0.842025 -0.422383
vn 0.916064 -0.399778 -0.031678
vn -0.974975 -0.123048 -0.185157
vn -0.916062 -0.399785 -0.031678
vn -0.335534 -0.842027 -0.422382
vn -0.974975 -0.123048 -0.185157
vn -0.947354 -0.183452 -0.262423
vn -0.916062 -0.399785 -0.031678
vn -0.947354 -0.183452 -0.262423
vn -0.974975 -0.123048 -0.185157
vn -0.932292 0.168229 -0.320203
vn -0.932292 0.168229 -0.320203
vn -0.974975 -0.123048 -0.185157
vn -0.612965 -0.196633 -0.765251
vn 0.868213 0.492079 0.063752
vn 0.527289 0.721772 -0.448343
vn 0.949955 0.223068 -0.21869
vn 0.91995 0.244352 -0.306567
vn 0.868213 0.492079 0.063752
vn 0.949955 0.223068 -0.21869
vn 0.883106 -0.07644 -0.462905
vn 0.91995 0.244352 -0.306567
vn 0.949955 0.223068 -0.21869
vn 0.367299 0.531898 -0.763004
vn 0.883106 -0.07644 -0.462905
vn 0.949955 0.223068 -0.21869
vn -0.367303 0.531896 -0.763004
vn -0.949957 0.223062 -0.21869
vn -0.883105 -0.076446 -0.462905
vn -0.883105 -0.076446 -0.462905
vn -0.949957 0.223062 -0.21869
vn -0.919952 0.244345 -0.306567
vn -0.919952 0.244345 -0.306567
vn -0.949957 0.223062 -0.21869
vn -0.868216 0.492073 0.063752
vn -0.868216 0.492073 0.063752
vn -0.949957 0.223062 -0.21869
vn -0.527295 0.721768 -0.448343
vn -0.000003 0.791366 -0.611342
vn -0.000003 0.932091 -0.362224
vn 0.699054 0.668679 -0.253361
vn -0.000003 0.791366 -0.611342
vn -0.699059 0.668674 -0.253361
vn -0.000003 0.932091 -0.362224
vn -0.699059 0.668674 -0.253361
vn -0.763507 0.628213 -0.149683
vn -0.000003 0.932091 -0.362224
vn -0.994204 0.104946 -0.023362
vn -0.763507 0.628213 -0.149683
vn -0.854303 0.511502 -0.092372
vn -0.994204 0.104946 -0.023362
vn -0.99199 -0.106648 -0.067686
vn -0.763507 0.628213 -0.149683
vn -0.669866 -0.418146 -0.613542
vn -0.99199 -0.106648 -0.067686
vn -0.994204 0.104946 -0.023362
vn -0.570838 -0.30547 -0.762123
vn -0.669866 -0.418146 -0.613542
vn -0.822547 -0.056195 -0.565914
vn 0.000002 -0.646772 -0.762683
vn -0.669866 -0.418146 -0.613542
vn -0.570838 -0.30547 -0.762123
vn 0.000002 -0.646772 -0.762683
vn -0.519678 -0.847968 -0.104329
vn -0.669866 -0.418146 -0.613542
vn 0.000002 -0.646772 -0.762683
vn 0.519284 -0.848008 -0.105955
vn -0.519678 -0.847968 -0.104329
vn 0.000002 -0.646772 -0.762683
vn 0.669869 -0.418141 -0.613542
vn 0.519284 -0.848008 -0.105955
vn 0.000002 -0.646772 -0.762683
vn 0.57084 -0.305467 -0.762123
vn 0.669869 -0.418141 -0.613542
vn 0.57084 -0.305467 -0.762123
vn 0.822547 -0.056189 -0.565914
vn 0.669869 -0.418141 -0.613542
vn 0.669869 -0.418141 -0.613542
vn 0.994203 0.104953 -0.023362
vn 0.99194 -0.105519 -0.070145
vn 0.669869 -0.418141 -0.613542
vn 0.99194 -0.105519 -0.070145
vn 0.519284 -0.848008 -0.105955
vn 0.519284 -0.848008 -0.105955
vn 0.99194 -0.105519 -0.070145
vn 0.676951 -0.302621 0.670937
vn -0.000905 -0.754881 0.655861
vn 0.519284 -0.848008 -0.105955
vn 0.676951 -0.302621 0.670937
vn 0.519284 -0.848008 -0.105955
vn -0.000905 -0.754881 0.655861
vn -0.519678 -0.847968 -0.104329
vn -0.000905 -0.754881 0.655861
vn -0.675643 -0.303058 0.672059
vn -0.519678 -0.847968 -0.104329
vn -0.675643 -0.303058 0.672059
vn -0.000905 -0.754881 0.655861
vn -0.000863 -0.015544 0.999879
vn -0.654277 0.485916 0.579488
vn -0.675643 -0.303058 0.672059
vn -0.000863 -0.015544 0.999879
vn -0.000863 -0.015544 0.999879
vn 0.000072 0.598577 0.801065
vn -0.654277 0.485916 0.579488
vn -0.000863 -0.015544 0.999879
vn 0.65404 0.487542 0.578389
vn 0.000072 0.598577 0.801065
vn 0.65404 0.487542 0.578389
vn -0.000863 -0.015544 0.999879
vn 0.676951 -0.302621 0.670937
vn 0.65404 0.487542 0.578389
vn 0.676951 -0.302621 0.670937
vn 0.99194 -0.105519 -0.070145
vn 0.763518 0.628224 -0.149584
vn 0.65404 0.487542 0.578389
vn 0.99194 -0.105519 -0.070145
vn 0.65404 0.487542 0.578389
vn 0.763518 0.628224 -0.149584
vn 0.000033 0.968436 0.249263
vn 0.763518 0.628224 -0.149584
vn -0.000003 0.932091 -0.362224
vn 0.000033 0.968436 0.249263
vn 0.699054 0.668679 -0.253361
vn -0.000003 0.932091 -0.362224
vn 0.763518 0.628224 -0.149584
vn 0.994203 0.104953 -0.023362
vn 0.854299 0.511508 -0.092373
vn 0.763518 0.628224 -0.149584
vn 0.994203 0.104953 -0.023362
vn 0.763518 0.628224 -0.149584
vn 0.99194 -0.105519 -0.070145
vn 0.65404 0.487542 0.578389
vn 0.000033 0.968436 0.249263
vn 0.000072 0.598577 0.801065
vn -0.654277 0.485916 0.579488
vn 0.000072 0.598577 0.801065
vn 0.000033 0.968436 0.249263
vn 0.676951 -0.302621 0.670937
vn -0.000863 -0.015544 0.999879
vn -0.000905 -0.754881 0.655861
vn -0.654277 0.485916 0.579488
vn 0.000033 0.968436 0.249263
vn -0.763507 0.628213 -0.149683
vn -0.763507 0.628213 -0.149683
vn -0.99199 -0.106648 -0.067686
vn -0.654277 0.485916 0.579488
vn -0.654277 0.485916 0.579488
vn -0.99199 -0.106648 -0.067686
vn -0.675643 -0.303058 0.672059
vn -0.519678 -0.847968 -0.104329
vn -0.675643 -0.303058 0.672059
vn -0.99199 -0.106648 -0.067686
vn -0.669866 -0.418146 -0.613542
vn -0.519678 -0.847968 -0.104329
vn -0.99199 -0.106648 -0.067686
vn -0.763507 0.628213 -0.149683
vn 0.000033 0.968436 0.249263
vn -0.000003 0.932091 -0.362224
vn 0.825789 0.402223 0.395335
vn 0.85311 0.264491 0.449719
vn 0.966976 0.18569 0.174574
vn -0.295407 0.942483 0.156396
vn 0.407416 0.863197 0.298167
vn -0.018727 0.839998 -0.542266
vn -0.018727 0.839998 -0.542266
vn -0.445593 0.87026 -0.209987
vn -0.295407 0.942483 0.156396
vn -0.445593 0.87026 -0.209987
vn -0.018727 0.839998 -0.542266
vn -0.511124 0.432147 -0.742968
vn -0.752642 0.657143 -0.041151
vn -0.511124 0.432147 -0.742968
vn -0.301307 0.494633 -0.815201
vn -0.138998 0.51095 -0.848298
vn -0.511124 0.432147 -0.742968
vn 0.203169 0.249434 -0.94684
vn 0.50297 0.417843 -0.75659
vn -0.000002 0.431249 -0.902233
vn 0.203169 0.249434 -0.94684
vn 0.203169 0.249434 -0.94684
vn 0.954766 0.021145 -0.296605
vn 0.50297 0.417843 -0.75659
vn 0.776222 0.542351 -0.321458
vn 0.954766 0.021145 -0.296605
vn 0.203169 0.249434 -0.94684
vn -0.018727 0.839998 -0.542266
vn 0.776222 0.542351 -0.321458
vn 0.203169 0.249434 -0.94684
vn -0.018727 0.839998 -0.542266
vn 0.203169 0.249434 -0.94684
vn -0.511124 0.432147 -0.742968
vn -0.018727 0.839998 -0.542266
vn 0.407416 0.863197 0.298167
vn 0.776222 0.542351 -0.321458
vn -0.000002 0.56141 -0.827538
vn -0.000003 0.82915 -0.559027
vn 0.558141 0.605929 -0.566858
vn -0.000001 0.281908 -0.959441
vn 0.182159 0.492811 -0.850855
vn 0.558141 0.605929 -0.566858
vn -0.000001 0.281908 -0.959441
vn -0.558145 0.605926 -0.566858
vn -0.182163 0.49281 -0.850855
vn -0.000002 0.56141 -0.827538
vn -0.558145 0.605926 -0.566858
vn -0.000003 0.82915 -0.559027
vn -0.000003 0.82915 -0.559027
vn -0.558145 0.605926 -0.566858
vn -0.502973 0.41784 -0.75659
vn -0.000003 0.82915 -0.559027
vn -0.389312 0.574385 -0.720082
vn -0.000002 0.59474 -0.803918
vn -0.000003 0.82915 -0.559027
vn -0.000002 0.59474 -0.803918
vn 0.389308 0.574387 -0.720082
vn -0.000003 0.82915 -0.559027
vn 0.50297 0.417843 -0.75659
vn 0.558141 0.605929 -0.566858
vn 0.50297 0.417843 -0.75659
vn 0.966976 0.18569 0.174574
vn 0.558141 0.605929 -0.566858
vn 0.567934 0.238561 -0.787744
vn 0.954766 0.021145 -0.296605
vn 0.987856 0.13895 0.069527
vn -0.825792 0.402217 0.395335
vn -0.966977 0.185684 0.174574
vn -0.853112 0.264488 0.449719
vn 0.295401 0.942484 0.156403
vn 0.018718 0.839998 -0.542266
vn -0.407426 0.863191 0.298171
vn 0.018718 0.839998 -0.542266
vn 0.295401 0.942484 0.156403
vn 0.44559 0.870262 -0.209986
vn 0.44559 0.870262 -0.209986
vn 0.511122 0.432149 -0.742968
vn 0.018718 0.839998 -0.542266
vn 0.752639 0.657146 -0.041149
vn 0.301303 0.494636 -0.815201
vn 0.511122 0.432149 -0.742968
vn 0.138994 0.510951 -0.848298
vn -0.203172 0.249431 -0.94684
vn 0.511122 0.432149 -0.742968
vn -0.502973 0.41784 -0.75659
vn -0.203172 0.249431 -0.94684
vn -0.000002 0.431249 -0.902233
vn -0.203172 0.249431 -0.94684
vn -0.502973 0.41784 -0.75659
vn -0.954766 0.021139 -0.296605
vn -0.776228 0.542342 -0.321457
vn -0.203172 0.249431 -0.94684
vn -0.954766 0.021139 -0.296605
vn 0.018718 0.839998 -0.542266
vn -0.203172 0.249431 -0.94684
vn -0.776228 0.542342 -0.321457
vn 0.018718 0.839998 -0.542266
vn 0.511122 0.432149 -0.742968
vn -0.203172 0.249431 -0.94684
vn 0.018718 0.839998 -0.542266
vn -0.776228 0.542342 -0.321457
vn -0.407426 0.863191 0.298171
vn -0.502973 0.41784 -0.75659
vn -0.558145 0.605926 -0.566858
vn -0.966977 0.185684 0.174574
vn -0.567935 0.238558 -0.787744
vn -0.987857 0.138944 0.069527
vn -0.954766 0.021139 -0.296605
vn -0.0 -0.852017 -0.523513
vn 0.0 -0.288131 -0.957591
vn 0.596677 -0.262279 -0.75841
vn 0.596677 -0.262279 -0.75841
vn 0.660284 -0.577097 -0.480608
vn -0.0 -0.852017 -0.523513
vn -0.0 -0.852017 -0.523513
vn -0.596677 -0.262279 -0.75841
vn 0.0 -0.288131 -0.957591
vn -0.596677 -0.262279 -0.75841
vn -0.0 -0.852017 -0.523513
vn -0.660284 -0.577097 -0.480608
vn 0.454862 0.371633 -0.809314
vn 0.596677 -0.262279 -0.75841
vn 0.0 0.022603 -0.999745
vn 0.454862 0.371633 -0.809314
vn 0.951332 -0.025123 -0.307142
vn 0.596677 -0.262279 -0.75841
vn 0.454862 0.371633 -0.809314
vn 0.570017 -0.033593 -0.820946
vn 0.951332 -0.025123 -0.307142
vn 0.144751 0.41702 -0.897297
vn 0.570017 -0.033593 -0.820946
vn 0.454862 0.371633 -0.809314
vn 0.144751 0.41702 -0.897297
vn 0.454862 0.371633 -0.809314
vn -0.125234 0.40258 -0.906778
vn 0.454862 0.371633 -0.809314
vn -0.532538 0.374692 -0.758953
vn -0.125234 0.40258 -0.906778
vn 0.454862 0.371633 -0.809314
vn 0.0 0.609703 -0.79263
vn -0.532538 0.374692 -0.758953
vn -0.532538 0.374692 -0.758953
vn 0.0 0.022603 -0.999745
vn -0.596677 -0.262279 -0.75841
vn -0.532538 0.374692 -0.758953
vn -0.596677 -0.262279 -0.75841
vn -0.951332 -0.025124 -0.307142
vn -0.532538 0.374692 -0.758953
vn -0.951332 -0.025124 -0.307142
vn -0.570016 -0.033596 -0.820946
vn -0.125234 0.40258 -0.906778
vn -0.532538 0.374692 -0.758953
vn -0.570016 -0.033596 -0.820946
vn -0.951332 -0.025124 -0.307142
vn -0.923334 0.109884 0.367941
vn -0.570016 -0.033596 -0.820946
vn -0.596677 -0.262279 -0.75841
vn -0.660284 -0.577097 -0.480608
vn -0.951332 -0.025124 -0.307142
vn 0.596677 -0.262279 -0.75841
vn 0.951332 -0.025123 -0.307142
vn 0.660284 -0.577097 -0.480608
vn 0.951332 -0.025123 -0.307142
vn 0.570017 -0.033593 -0.820946
vn 0.923333 0.109888 0.36794
vn -0.132083 -0.981614 -0.1378
vn -0.037546 -0.741871 -0.66949
vn -0.218377 -0.793682 0.567786
vn -0.154208 -0.987751 -0.023847
vn -0.847185 -0.183224 0.498705
vn -0.23674 -0.617775 0.749872
vn -0.132083 -0.981614 -0.1378
vn -0.23674 -0.617775 0.749872
vn 0.056163 -0.729849 0.681297
vn 0.341225 -0.838018 0.425782
vn -0.118206 -0.992742 -0.02213
vn 0.056163 -0.729849 0.681297
vn 0.341225 -0.838018 0.425782
vn 0.056163 -0.729849 0.681297
vn 0.069712 -0.629298 0.774031
vn 0.341225 -0.838018 0.425782
vn 0.069712 -0.629298 0.774031
vn 0.568552 0.0473 0.821286
vn 0.651923 -0.630329 0.421523
vn 0.410729 -0.732346 0.543113
vn 0.515073 0.186583 0.836592
vn 0.46202 -0.777266 -0.427077
vn 0.341225 -0.838018 0.425782
vn 0.651923 -0.630329 0.421523
vn 0.46202 -0.777266 -0.427077
vn 0.404739 -0.436102 -0.803742
vn 0.341225 -0.838018 0.425782
vn 0.308588 -0.05847 -0.949397
vn 0.46202 -0.777266 -0.427077
vn 0.428171 0.161706 -0.889112
vn 0.32164 0.931717 -0.168674
vn 0.420333 0.338523 -0.841857
vn 0.428171 0.161706 -0.889112
vn 0.227004 0.883019 -0.410789
vn 0.020942 0.947543 -0.318943
vn 0.184581 0.251629 -0.950059
vn 0.515073 0.186583 0.836592
vn 0.115667 0.787479 0.60539
vn 0.36784 0.928122 -0.057301
vn 0.5547 0.329402 0.764069
vn 0.030393 0.805031 0.592453
vn 0.092681 0.993019 0.072968
vn 0.030393 0.805031 0.592453
vn -0.080916 0.978792 0.1882
vn 0.092681 0.993019 0.072968
vn 0.030393 0.805031 0.592453
vn -0.088041 0.816635 0.570399
vn -0.080916 0.978792 0.1882
vn -0.18339 0.611872 0.769403
vn -0.098674 0.987815 -0.120356
vn -0.088041 0.816635 0.570399
vn -0.098674 0.987815 -0.120356
vn -0.18339 0.611872 0.769403
vn -0.286097 0.956608 -0.055225
vn -0.125234 0.40258 -0.906778
vn -0.098674 0.987815 -0.120356
vn -0.286097 0.956608 -0.055225
vn -0.125234 0.40258 -0.906778
vn -0.124015 -0.118379 -0.985194
vn -0.098674 0.987815 -0.120356
vn -0.533477 -0.263276 -0.803796
vn -0.124015 -0.118379 -0.985194
vn -0.125234 0.40258 -0.906778
vn -0.533477 -0.263276 -0.803796
vn -0.178902 -0.947863 -0.263725
vn -0.124015 -0.118379 -0.985194
vn -0.132083 -0.981614 -0.1378
vn -0.056794 0.108673 -0.992454
vn -0.124015 -0.118379 -0.985194
vn 0.233092 -0.230308 -0.944789
vn -0.056794 0.108673 -0.992454
vn -0.063559 -0.963435 -0.260295
vn 0.28691 -0.667307 -0.687302
vn -0.132083 -0.981614 -0.1378
vn 0.279093 -0.898443 0.33898
vn 0.020942 0.947543 -0.318943
vn -0.056794 0.108673 -0.992454
vn 0.184581 0.251629 -0.950059
vn -0.001573 0.617811 -0.786325
vn -0.13212 0.904167 -0.406233
vn -0.056794 0.108673 -0.992454
vn -0.056794 0.108673 -0.992454
vn -0.13212 0.904167 -0.406233
vn -0.124015 -0.118379 -0.985194
vn -0.286097 0.956608 -0.055225
vn -0.18339 0.611872 0.769403
vn -0.4191 0.550169 0.722266
vn -0.2919 0.160461 0.942893
vn -0.737968 -0.291303 0.608725
vn -0.4191 0.550169 0.722266
vn -0.645238 -0.530443 -0.549816
vn 0.125075 -0.513969 -0.848641
vn -0.402091 -0.91559 -0.004115
vn -0.645238 -0.530443 -0.549816
vn -0.402091 -0.91559 -0.004115
vn -0.988315 -0.151431 0.017385
vn -0.423303 0.576461 -0.698933
vn -0.645238 -0.530443 -0.549816
vn -0.988315 -0.151431 0.017385
vn -0.546199 0.825633 0.141409
vn -0.530518 0.811157 -0.24612
vn -0.988315 -0.151431 0.017385
vn -0.988315 -0.151431 0.017385
vn -0.571763 -0.395171 0.718976
vn -0.523997 0.737772 0.425583
vn -0.402091 -0.91559 -0.004115
vn -0.571763 -0.395171 0.718976
vn -0.988315 -0.151431 0.017385
vn -0.402091 -0.91559 -0.004115
vn -0.430123 -0.421704 0.798223
vn -0.571763 -0.395171 0.718976
vn 0.111965 -0.911019 0.396873
vn -0.430123 -0.421704 0.798223
vn -0.402091 -0.91559 -0.004115
vn 0.230138 -0.957606 0.173286
vn -0.402091 -0.91559 -0.004115
vn 0.46202 -0.777266 -0.427077
vn 0.46202 -0.777266 -0.427077
vn 0.651923 -0.630329 0.421523
vn 0.111965 -0.911019 0.396873
vn -0.402091 -0.91559 -0.004115
vn 0.125075 -0.513969 -0.848641
vn 0.46202 -0.777266 -0.427077
vn 0.298903 0.364895 -0.881764
vn -0.423303 0.576461 -0.698933
vn 0.32164 0.931717 -0.168674
vn 0.428171 0.161706 -0.889112
vn 0.298903 0.364895 -0.881764
vn 0.32164 0.931717 -0.168674
vn 0.515073 0.186583 0.836592
vn 0.36784 0.928122 -0.057301
vn 0.164824 0.341421 0.925346
vn 0.32164 0.931717 -0.168674
vn -0.523997 0.737772 0.425583
vn 0.164824 0.341421 0.925346
vn -0.530518 0.811157 -0.24612
vn -0.546199 0.825633 0.141409
vn 0.32164 0.931717 -0.168674
vn 0.46202 -0.777266 -0.427077
vn 0.125075 -0.513969 -0.848641
vn 0.428171 0.161706 -0.889112
vn 0.298903 0.364895 -0.881764
vn 0.428171 0.161706 -0.889112
vn 0.125075 -0.513969 -0.848641
vn -0.252562 0.285248 -0.924579
vn 0.298903 0.364895 -0.881764
vn 0.125075 -0.513969 -0.848641
vn 0.125075 -0.513969 -0.848641
vn -0.645238 -0.530443 -0.549816
vn -0.252562 0.285248 -0.924579
vn -0.430123 -0.421704 0.798223
vn 0.323032 -0.219392 0.920607
vn 0.164824 0.341421 0.925346
vn -0.430123 -0.421704 0.798223
vn 0.136767 -0.776599 0.614971
vn 0.323032 -0.219392 0.920607
vn 0.111965 -0.911019 0.396873
vn 0.651923 -0.630329 0.421523
vn 0.323032 -0.219392 0.920607
vn 0.651923 -0.630329 0.421523
vn 0.515073 0.186583 0.836592
vn 0.323032 -0.219392 0.920607
vn 0.323032 -0.219392 0.920607
vn 0.515073 0.186583 0.836592
vn 0.164824 0.341421 0.925346
vn 0.164824 0.341421 0.925346
vn -0.413302 0.519244 0.748042
vn -0.571763 -0.395171 0.718976
vn -0.430123 -0.421704 0.798223
vn 0.164824 0.341421 0.925346
vn -0.571763 -0.395171 0.718976

# , 30 grouped triangles

usemtl mat_ys_eye
o 
g 

f 1/1/1 2/2/2 3/3/3
f 1/4/4 3/5/5 4/6/6
f 5/7/7 1/8/8 4/9/9
f 5/10/10 6/11/11 1/12/12
f 1/13/13 6/14/14 7/15/15
f 7/16/16 2/17/17 1/18/18
f 7/19/19 8/20/20 2/21/21
f 7/22/22 9/23/23 8/24/24
f 7/25/25 10/26/26 9/27/27
f 6/28/28 10/29/29 7/30/30
f 11/31/31 2/32/32 8/33/33
f 12/34/34 2/35/35 11/36/36
f 3/37/37 2/38/38 12/39/39
f 13/40/40 8/41/41 9/42/42
f 11/43/43 8/44/44 13/45/45
f 14/46/46 15/47/47 16/48/48
f 14/49/49 17/50/50 15/51/51
f 5/52/52 17/53/53 14/54/54
f 5/55/55 14/56/56 6/57/57
f 14/58/58 18/59/59 6/60/60
f 18/61/61 14/62/62 16/63/63
f 18/64/64 16/65/65 19/66/66
f 18/67/67 19/68/68 20/69/69
f 18/70/70 20/71/71 10/72/72
f 6/73/73 18/74/74 10/75/75
f 21/76/76 19/77/77 16/78/78
f 22/79/79 21/80/80 16/81/81
f 15/82/82 22/83/83 16/84/84
f 23/85/85 20/86/86 19/87/87
f 21/88/88 23/89/89 19/90/90
# 2, 444 grouped triangles

usemtl mat_ys_body
o 2
g 2

f 24/91/91 25/92/92 26/93/93
f 24/94/94 27/95/95 25/96/96
f 27/97/97 28/98/98 25/99/99
f 29/100/100 28/101/101 27/102/102
f 30/103/103 29/104/104 27/105/105
f 31/106/106 29/107/107 30/108/108
f 32/109/109 33/110/110 34/111/111
f 35/112/112 33/113/113 32/114/114
f 35/115/115 36/116/116 33/117/117
f 37/118/118 38/119/119 39/120/120
f 39/121/121 40/122/122 37/123/123
f 40/124/124 39/125/125 41/126/126
f 39/127/127 42/128/128 41/129/129
f 38/130/130 42/131/131 39/132/132
f 37/133/133 43/134/134 38/135/135
f 43/136/136 37/137/137 44/138/138
f 45/139/139 44/140/140 37/141/141
f 37/142/142 40/143/143 45/144/144
f 44/145/145 46/146/146 47/147/147
f 44/148/148 47/149/149 43/150/150
f 47/151/151 48/152/152 43/153/153
f 48/154/154 47/155/155 49/156/156
f 48/157/157 49/158/158 50/159/159
f 51/160/160 50/161/161 49/162/162
f 50/163/163 51/164/164 52/165/165
f 51/166/166 53/167/167 52/168/168
f 51/169/169 54/170/170 53/171/171
f 54/172/172 51/173/173 49/174/174
f 54/175/175 49/176/176 55/177/177
f 54/178/178 55/179/179 56/180/180
f 54/181/181 56/182/182 57/183/183
f 57/184/184 53/185/185 54/186/186
f 57/187/187 58/188/188 53/189/189
f 59/190/190 58/191/191 57/192/192
f 57/193/193 56/194/194 59/195/195
f 60/196/196 59/197/197 56/198/198
f 60/199/199 56/200/200 61/201/201
f 61/202/202 45/203/203 60/204/204
f 44/205/205 45/206/206 61/207/207
f 44/208/208 61/209/209 46/210/210
f 46/211/211 61/212/212 56/213/213
f 46/214/214 56/215/215 55/216/216
f 46/217/217 55/218/218 49/219/219
f 46/220/220 49/221/221 47/222/222
f 62/223/223 63/224/224 64/225/225
f 64/226/226 65/227/227 62/228/228
f 64/229/229 66/230/230 65/231/231
f 67/232/232 66/233/233 64/234/234
f 63/235/235 67/236/236 64/237/237
f 63/238/238 68/239/239 67/240/240
f 62/241/241 68/242/242 63/243/243
f 68/244/244 62/245/245 69/246/246
f 68/247/247 69/248/248 70/249/249
f 68/250/250 70/251/251 67/252/252
f 69/253/253 71/254/254 70/255/255
f 71/256/256 69/257/257 72/258/258
f 73/259/259 71/260/260 72/261/261
f 73/262/262 72/263/263 74/264/264
f 72/265/265 65/266/266 74/267/267
f 72/268/268 62/269/269 65/270/270
f 72/271/271 69/272/272 62/273/273
f 66/274/274 74/275/275 65/276/276
f 75/277/277 76/278/278 77/279/279
f 75/280/280 77/281/281 78/282/282
f 78/283/283 79/284/284 75/285/285
f 80/286/286 79/287/287 78/288/288
f 80/289/289 76/290/290 79/291/291
f 80/292/292 81/293/293 76/294/294
f 80/295/295 78/296/296 81/297/297
f 78/298/298 82/299/299 81/300/300
f 82/301/301 78/302/302 77/303/303
f 82/304/304 77/305/305 76/306/306
f 82/307/307 76/308/308 81/309/309
f 75/310/310 79/311/311 76/312/312
f 83/313/313 84/314/314 85/315/315
f 83/316/316 85/317/317 86/318/318
f 87/319/319 83/320/320 86/321/321
f 88/322/322 87/323/323 86/324/324
f 89/325/325 87/326/326 88/327/327
f 89/328/328 88/329/329 90/330/330
f 90/331/331 91/332/332 89/333/333
f 91/334/334 90/335/335 92/336/336
f 91/337/337 92/338/338 84/339/339
f 89/340/340 91/341/341 84/342/342
f 85/343/343 84/344/344 92/345/345
f 92/346/346 93/347/347 85/348/348
f 92/349/349 90/350/350 93/351/351
f 88/352/352 93/353/353 90/354/354
f 88/355/355 86/356/356 93/357/357
f 86/358/358 85/359/359 93/360/360
f 89/361/361 84/362/362 83/363/363
f 89/364/364 83/365/365 87/366/366
f 94/367/367 95/368/368 96/369/369
f 94/370/370 97/371/371 95/372/372
f 97/373/373 94/374/374 98/375/375
f 94/376/376 99/377/377 98/378/378
f 94/379/379 96/380/380 99/381/381
f 100/382/382 95/383/383 97/384/384
f 100/385/385 96/386/386 95/387/387
f 100/388/388 99/389/389 96/390/390
f 100/391/391 98/392/392 99/393/393
f 100/394/394 97/395/395 98/396/396
f 101/397/397 102/398/398 26/399/399
f 101/400/400 26/401/401 31/402/402
f 101/403/403 31/404/404 103/405/405
f 30/406/406 103/407/407 31/408/408
f 30/409/409 104/410/410 103/411/411
f 30/412/412 27/413/413 104/414/414
f 24/415/415 104/416/416 27/417/417
f 24/418/418 102/419/419 104/420/420
f 102/421/421 24/422/422 26/423/423
f 105/424/424 106/425/425 107/426/426
f 105/427/427 108/428/428 106/429/429
f 109/430/430 108/431/431 105/432/432
f 110/433/433 108/434/434 109/435/435
f 111/436/436 110/437/437 109/438/438
f 111/439/439 112/440/440 110/441/441
f 112/442/442 111/443/443 113/444/444
f 113/445/445 114/446/446 112/447/447
f 113/448/448 107/449/449 114/450/450
f 111/451/451 107/452/452 113/453/453
f 106/454/454 114/455/455 107/456/456
f 114/457/457 106/458/458 115/459/459
f 114/460/460 115/461/461 112/462/462
f 110/463/463 112/464/464 115/465/465
f 110/466/466 115/467/467 108/468/468
f 108/469/469 115/470/470 106/471/471
f 111/472/472 105/473/473 107/474/474
f 111/475/475 109/476/476 105/477/477
f 116/478/478 117/479/479 118/480/480
f 116/481/481 118/482/482 119/483/483
f 119/484/484 120/485/485 116/486/486
f 116/487/487 120/488/488 121/489/489
f 116/490/490 121/491/491 117/492/492
f 122/493/493 119/494/494 118/495/495
f 122/496/496 118/497/497 117/498/498
f 122/499/499 117/500/500 121/501/501
f 122/502/502 121/503/503 120/504/504
f 122/505/505 120/506/506 119/507/507
f 123/508/508 36/509/509 124/510/510
f 123/511/511 125/512/512 36/513/513
f 123/514/514 126/515/515 125/516/516
f 127/517/517 125/518/518 126/519/519
f 127/520/520 126/521/521 128/522/522
f 127/523/523 128/524/524 32/525/525
f 35/526/526 32/527/527 128/528/528
f 35/529/529 128/530/530 124/531/531
f 124/532/532 36/533/533 35/534/534
f 125/535/535 127/536/536 129/537/537
f 127/538/538 32/539/539 129/540/540
f 129/541/541 32/542/542 34/543/543
f 130/544/544 48/545/545 131/546/546
f 130/547/547 132/548/548 48/549/549
f 130/550/550 133/551/551 132/552/552
f 134/553/553 133/554/554 130/555/555
f 134/556/556 135/557/557 133/558/558
f 136/559/559 135/560/560 134/561/561
f 137/562/562 136/563/563 134/564/564
f 138/565/565 137/566/566 134/567/567
f 138/568/568 134/569/569 139/570/570
f 139/571/571 140/572/572 138/573/573
f 141/574/574 140/575/575 139/576/576
f 141/577/577 139/578/578 142/579/579
f 136/580/580 141/581/581 142/582/582
f 136/583/583 142/584/584 135/585/585
f 135/586/586 142/587/587 143/588/588
f 135/589/589 143/590/590 133/591/591
f 132/592/592 133/593/593 143/594/594
f 143/595/595 38/596/596 132/597/597
f 42/598/598 38/599/599 143/600/600
f 42/601/601 143/602/602 144/603/603
f 131/604/604 42/605/605 144/606/606
f 131/607/607 144/608/608 130/609/609
f 130/610/610 144/611/611 145/612/612
f 139/613/613 130/614/614 145/615/615
f 139/616/616 134/617/617 130/618/618
f 142/619/619 139/620/620 145/621/621
f 142/622/622 145/623/623 143/624/624
f 145/625/625 144/626/626 143/627/627
f 38/628/628 43/629/629 132/630/630
f 132/631/631 43/632/632 48/633/633
f 146/634/634 147/635/635 148/636/636
f 146/637/637 149/638/638 147/639/639
f 150/640/640 149/641/641 146/642/642
f 151/643/643 149/644/644 150/645/645
f 149/646/646 151/647/647 152/648/648
f 147/649/649 149/650/650 152/651/651
f 147/652/652 152/653/653 153/654/654
f 154/655/655 147/656/656 153/657/657
f 154/658/658 138/659/659 147/660/660
f 138/661/661 154/662/662 137/663/663
f 147/664/664 138/665/665 148/666/666
f 155/667/667 141/668/668 150/669/669
f 140/670/670 141/671/671 155/672/672
f 136/673/673 156/674/674 141/675/675
f 141/676/676 156/677/677 151/678/678
f 150/679/679 141/680/680 151/681/681
f 138/682/682 140/683/683 148/684/684
f 155/685/685 148/686/686 140/687/687
f 150/688/688 148/689/689 155/690/690
f 148/691/691 150/692/692 146/693/693
f 153/694/694 156/695/695 157/696/696
f 153/697/697 157/698/698 154/699/699
f 154/700/700 157/701/701 137/702/702
f 137/703/703 157/704/704 136/705/705
f 157/706/706 156/707/707 136/708/708
f 156/709/709 152/710/710 151/711/711
f 153/712/712 152/713/713 156/714/714
f 158/715/715 159/716/716 160/717/717
f 13/718/718 158/719/719 160/720/720
f 161/721/721 13/722/722 160/723/723
f 161/724/724 160/725/725 162/726/726
f 163/727/727 162/728/728 160/729/729
f 160/730/730 159/731/731 163/732/732
f 159/733/733 164/734/734 163/735/735
f 159/736/736 165/737/737 164/738/738
f 164/739/739 165/740/740 166/741/741
f 167/742/742 164/743/743 166/744/744
f 164/745/745 167/746/746 168/747/747
f 164/748/748 168/749/749 169/750/750
f 169/751/751 163/752/752 164/753/753
f 169/754/754 170/755/755 163/756/756
f 170/757/757 162/758/758 163/759/759
f 171/760/760 172/761/761 173/762/762
f 173/763/763 158/764/764 171/765/765
f 158/766/766 173/767/767 159/768/768
f 174/769/769 159/770/770 173/771/771
f 173/772/772 172/773/773 174/774/774
f 174/775/775 172/776/776 175/777/777
f 175/778/778 165/779/779 174/780/780
f 166/781/781 165/782/782 175/783/783
f 176/784/784 166/785/785 175/786/786
f 176/787/787 175/788/788 177/789/789
f 176/790/790 177/791/791 178/792/792
f 178/793/793 177/794/794 179/795/795
f 180/796/796 178/797/797 179/798/798
f 179/799/799 181/800/800 180/801/801
f 181/802/802 179/803/803 172/804/804
f 179/805/805 177/806/806 172/807/807
f 177/808/808 175/809/809 172/810/810
f 168/811/811 182/812/812 169/813/813
f 168/814/814 183/815/815 182/816/816
f 183/817/817 184/818/818 182/819/819
f 184/820/820 185/821/821 182/822/822
f 184/823/823 186/824/824 185/825/825
f 187/826/826 185/827/827 186/828/828
f 187/829/829 162/830/830 185/831/831
f 187/832/832 161/833/833 162/834/834
f 187/835/835 186/836/836 188/837/837
f 169/838/838 182/839/839 170/840/840
f 170/841/841 182/842/842 185/843/843
f 170/844/844 185/845/845 162/846/846
f 180/847/847 189/848/848 178/849/849
f 23/850/850 189/851/851 180/852/852
f 188/853/853 189/854/854 23/855/855
f 188/856/856 186/857/857 189/858/858
f 189/859/859 186/860/860 190/861/861
f 189/862/862 190/863/863 178/864/864
f 178/865/865 190/866/866 191/867/867
f 178/868/868 191/869/869 176/870/870
f 176/871/871 191/872/872 166/873/873
f 167/874/874 166/875/875 191/876/876
f 191/877/877 168/878/878 167/879/879
f 191/880/880 183/881/881 168/882/882
f 183/883/883 191/884/884 190/885/885
f 183/886/886 190/887/887 184/888/888
f 186/889/889 184/890/890 190/891/891
f 174/892/892 165/893/893 159/894/894
f 192/895/895 193/896/896 194/897/897
f 195/898/898 192/899/899 194/900/900
f 196/901/901 195/902/902 194/903/903
f 185/904/904 196/905/905 194/906/906
f 185/907/907 197/908/908 196/909/909
f 196/910/910 197/911/911 195/912/912
f 195/913/913 197/914/914 192/915/915
f 192/916/916 197/917/917 193/918/918
f 198/919/919 185/920/920 199/921/921
f 200/922/922 198/923/923 199/924/924
f 199/925/925 201/926/926 200/927/927
f 199/928/928 182/929/929 201/930/930
f 202/931/931 201/932/932 182/933/933
f 202/934/934 200/935/935 201/936/936
f 200/937/937 202/938/938 198/939/939
f 198/940/940 202/941/941 185/942/942
f 203/943/943 204/944/944 205/945/945
f 206/946/946 203/947/947 205/948/948
f 207/949/949 206/950/950 205/951/951
f 193/952/952 207/953/953 205/954/954
f 193/955/955 208/956/956 207/957/957
f 207/958/958 208/959/959 206/960/960
f 206/961/961 208/962/962 203/963/963
f 203/964/964 208/965/965 204/966/966
f 10/967/967 209/968/968 9/969/969
f 10/970/970 20/971/971 209/972/972
f 20/973/973 210/974/974 209/975/975
f 180/976/976 210/977/977 20/978/978
f 180/979/979 211/980/980 210/981/981
f 212/982/982 211/983/983 180/984/984
f 181/985/985 212/986/986 180/987/987
f 172/988/988 212/989/989 181/990/990
f 172/991/991 213/992/992 212/993/993
f 172/994/994 214/995/995 213/996/996
f 172/997/997 215/998/998 214/999/999
f 172/1000/1000 171/1001/1001 215/1002/1002
f 171/1003/1003 158/1004/1004 215/1005/1005
f 215/1006/1006 158/1007/1007 216/1008/1008
f 215/1009/1009 216/1010/1010 214/1011/1011
f 214/1012/1012 216/1013/1013 217/1014/1014
f 218/1015/1015 214/1016/1016 217/1017/1017
f 214/1018/1018 218/1019/1019 213/1020/1020
f 218/1021/1021 219/1022/1022 213/1023/1023
f 219/1024/1024 218/1025/1025 220/1026/1026
f 221/1027/1027 219/1028/1028 220/1029/1029
f 220/1030/1030 222/1031/1031 221/1032/1032
f 220/1033/1033 223/1034/1034 222/1035/1035
f 223/1036/1036 220/1037/1037 217/1038/1038
f 223/1039/1039 217/1040/1040 216/1041/1041
f 224/1042/1042 223/1043/1043 216/1044/1044
f 223/1045/1045 224/1046/1046 225/1047/1047
f 224/1048/1048 209/1049/1049 225/1050/1050
f 9/1051/1051 209/1052/1052 224/1053/1053
f 158/1054/1054 9/1055/1055 224/1056/1056
f 158/1057/1057 224/1058/1058 216/1059/1059
f 223/1060/1060 225/1061/1061 222/1062/1062
f 221/1063/1063 222/1064/1064 225/1065/1065
f 217/1066/1066 220/1067/1067 218/1068/1068
f 221/1069/1069 225/1070/1070 210/1071/1071
f 210/1072/1072 211/1073/1073 221/1074/1074
f 221/1075/1075 211/1076/1076 219/1077/1077
f 213/1078/1078 219/1079/1079 211/1080/1080
f 212/1081/1081 213/1082/1082 211/1083/1083
f 210/1084/1084 225/1085/1085 209/1086/1086
f 9/1087/1087 158/1088/1088 13/1089/1089
f 4/1090/1090 3/1091/1091 226/1092/1092
f 226/1093/1093 5/1094/1094 4/1095/1095
f 5/1096/1096 226/1097/1097 227/1098/1098
f 5/1099/1099 227/1100/1100 204/1101/1101
f 204/1102/1102 227/1103/1103 228/1104/1104
f 229/1105/1105 204/1106/1106 228/1107/1107
f 228/1108/1108 11/1109/1109 229/1110/1110
f 12/1111/1111 11/1112/1112 228/1113/1113
f 226/1114/1114 12/1115/1115 228/1116/1116
f 226/1117/1117 228/1118/1118 227/1119/1119
f 226/1120/1120 3/1121/1121 12/1122/1122
f 193/1123/1123 230/1124/1124 161/1125/1125
f 187/1126/1126 193/1127/1127 161/1128/1128
f 187/1129/1129 188/1130/1130 193/1131/1131
f 193/1132/1132 188/1133/1133 230/1134/1134
f 230/1135/1135 188/1136/1136 231/1137/1137
f 230/1138/1138 231/1139/1139 204/1140/1140
f 230/1141/1141 204/1142/1142 229/1143/1143
f 230/1144/1144 229/1145/1145 161/1146/1146
f 229/1147/1147 13/1148/1148 161/1149/1149
f 229/1150/1150 11/1151/1151 13/1152/1152
f 20/1153/1153 23/1154/1154 180/1155/1155
f 17/1156/1156 232/1157/1157 15/1158/1158
f 232/1159/1159 17/1160/1160 5/1161/1161
f 5/1162/1162 233/1163/1163 232/1164/1164
f 5/1165/1165 204/1166/1166 233/1167/1167
f 204/1168/1168 234/1169/1169 233/1170/1170
f 231/1171/1171 234/1172/1172 204/1173/1173
f 234/1174/1174 231/1175/1175 21/1176/1176
f 22/1177/1177 234/1178/1178 21/1179/1179
f 232/1180/1180 234/1181/1181 22/1182/1182
f 232/1183/1183 233/1184/1184 234/1185/1185
f 232/1186/1186 22/1187/1187 15/1188/1188
f 231/1189/1189 188/1190/1190 23/1191/1191
f 231/1192/1192 23/1193/1193 21/1194/1194
f 53/1195/1195 235/1196/1196 236/1197/1197
f 236/1198/1198 52/1199/1199 53/1200/1200
f 53/1201/1201 237/1202/1202 235/1203/1203
f 237/1204/1204 53/1205/1205 58/1206/1206
f 238/1207/1207 236/1208/1208 235/1209/1209
f 238/1210/1210 50/1211/1211 236/1212/1212
f 238/1213/1213 131/1214/1214 50/1215/1215
f 42/1216/1216 131/1217/1217 238/1218/1218
f 42/1219/1219 238/1220/1220 41/1221/1221
f 238/1222/1222 239/1223/1223 41/1224/1224
f 238/1225/1225 235/1226/1226 239/1227/1227
f 239/1228/1228 235/1229/1229 237/1230/1230
f 239/1231/1231 237/1232/1232 59/1233/1233
f 239/1234/1234 59/1235/1235 240/1236/1236
f 41/1237/1237 239/1238/1238 240/1239/1239
f 59/1240/1240 60/1241/1241 240/1242/1242
f 237/1243/1243 58/1244/1244 59/1245/1245
f 236/1246/1246 50/1247/1247 52/1248/1248
f 50/1249/1249 131/1250/1250 48/1251/1251
f 241/1252/1252 240/1253/1253 60/1254/1254
f 241/1255/1255 60/1256/1256 242/1257/1257
f 241/1258/1258 242/1259/1259 243/1260/1260
f 244/1261/1261 241/1262/1262 243/1263/1263
f 244/1264/1264 243/1265/1265 245/1266/1266
f 244/1267/1267 245/1268/1268 246/1269/1269
f 247/1270/1270 244/1271/1271 246/1272/1272
f 248/1273/1273 244/1274/1274 247/1275/1275
f 248/1276/1276 249/1277/1277 244/1278/1278
f 249/1279/1279 248/1280/1280 250/1281/1281
f 251/1282/1282 249/1283/1283 250/1284/1284
f 251/1285/1285 252/1286/1286 249/1287/1287
f 246/1288/1288 252/1289/1289 251/1290/1290
f 246/1291/1291 245/1292/1292 252/1293/1293
f 245/1294/1294 253/1295/1295 252/1296/1296
f 245/1297/1297 243/1298/1298 253/1299/1299
f 242/1300/1300 253/1301/1301 243/1302/1302
f 253/1303/1303 242/1304/1304 40/1305/1305
f 41/1306/1306 253/1307/1307 40/1308/1308
f 41/1309/1309 254/1310/1310 253/1311/1311
f 240/1312/1312 254/1313/1313 41/1314/1314
f 240/1315/1315 241/1316/1316 254/1317/1317
f 241/1318/1318 255/1319/1319 254/1320/1320
f 249/1321/1321 255/1322/1322 241/1323/1323
f 249/1324/1324 241/1325/1325 244/1326/1326
f 252/1327/1327 255/1328/1328 249/1329/1329
f 252/1330/1330 253/1331/1331 255/1332/1332
f 255/1333/1333 253/1334/1334 254/1335/1335
f 40/1336/1336 242/1337/1337 45/1338/1338
f 242/1339/1339 60/1340/1340 45/1341/1341
f 256/1342/1342 257/1343/1343 258/1344/1344
f 256/1345/1345 258/1346/1346 259/1347/1347
f 260/1348/1348 256/1349/1349 259/1350/1350
f 261/1351/1351 260/1352/1352 259/1353/1353
f 259/1354/1354 262/1355/1355 261/1356/1356
f 258/1357/1357 262/1358/1358 259/1359/1359
f 258/1360/1360 263/1361/1361 262/1362/1362
f 264/1363/1363 263/1364/1364 258/1365/1365
f 264/1366/1366 258/1367/1367 248/1368/1368
f 248/1369/1369 247/1370/1370 264/1371/1371
f 258/1372/1372 257/1373/1373 248/1374/1374
f 265/1375/1375 260/1376/1376 251/1377/1377
f 250/1378/1378 265/1379/1379 251/1380/1380
f 246/1381/1381 251/1382/1382 266/1383/1383
f 251/1384/1384 261/1385/1385 266/1386/1386
f 260/1387/1387 261/1388/1388 251/1389/1389
f 248/1390/1390 257/1391/1391 250/1392/1392
f 265/1393/1393 250/1394/1394 257/1395/1395
f 260/1396/1396 265/1397/1397 257/1398/1398
f 257/1399/1399 256/1400/1400 260/1401/1401
f 263/1402/1402 267/1403/1403 266/1404/1404
f 263/1405/1405 264/1406/1406 267/1407/1407
f 264/1408/1408 247/1409/1409 267/1410/1410
f 247/1411/1411 246/1412/1412 267/1413/1413
f 267/1414/1414 246/1415/1415 266/1416/1416
f 266/1417/1417 261/1418/1418 262/1419/1419
f 263/1420/1420 266/1421/1421 262/1422/1422
