<?xml version="1.0" encoding="utf-8"?>
<COLLADA xmlns="http://www.collada.org/2005/11/COLLADASchema" version="1.4.1">
  <asset>
    <created>2018-07-02T17:29:18Z</created>
    <modified>2018-07-02T17:29:18Z</modified>
  </asset>
  <library_images>
    <image id="Image">
      <init_from>./ys_eye.0.png</init_from>
    </image>
    <image id="Image1">
      <init_from>./ys_body.png</init_from>
    </image>
  </library_images>
  <library_materials>
    <material id="VisualMaterial" name="mat_ys_eye">
      <instance_effect url="#Effect"/>
      <extra>
        <technique profile="FCOLLADA">
          <user_properties>mat_ys_eye</user_properties>
        </technique>
      </extra>
    </material>
    <material id="VisualMaterial1" name="mat_ys_body">
      <instance_effect url="#Effect1"/>
      <extra>
        <technique profile="FCOLLADA">
          <user_properties>mat_ys_body</user_properties>
        </technique>
      </extra>
    </material>
  </library_materials>
  <library_effects>
    <effect id="Effect" name="ys_eye_0_png">
      <profile_COMMON>
        <newparam sid="Image-surface">
          <surface type="2D">
            <init_from>Image</init_from>
            <format>A8R8G8B8</format>
          </surface>
        </newparam>
        <newparam sid="Image-sampler">
          <sampler2D>
            <source>Image-surface</source>
            <wrap_s>WRAP</wrap_s>
            <wrap_t>WRAP</wrap_t>
            <minfilter>NONE</minfilter>
            <magfilter>NONE</magfilter>
            <mipfilter>NONE</mipfilter>
          </sampler2D>
        </newparam>
        <technique sid="common">
          <phong>
            <emission>
              <color>0 0 0 1</color>
            </emission>
            <ambient>
              <color>0 0 0 1</color>
            </ambient>
            <diffuse>
              <texture texture="Image-sampler" texcoord=""/>
            </diffuse>
            <specular>
              <color>1 1 1 1</color>
            </specular>
            <shininess>
              <float>0</float>
            </shininess>
            <transparent opaque="A_ONE">
              <color>0 0 0 1</color>
            </transparent>
            <transparency>
              <float>1</float>
            </transparency>
            <index_of_refraction>
              <float>1.55</float>
            </index_of_refraction>
          </phong>
          <extra>
            <technique profile="FCOLLADA">
              <spec_level>
                <float>0</float>
              </spec_level>
            </technique>
          </extra>
        </technique>
      </profile_COMMON>
      <extra>
        <technique profile="FCOLLADA">
          <user_properties>ys_eye.0.png</user_properties>
        </technique>
      </extra>
    </effect>
    <effect id="Effect1" name="ys_body_png">
      <profile_COMMON>
        <newparam sid="Image1-surface">
          <surface type="2D">
            <init_from>Image1</init_from>
            <format>A8R8G8B8</format>
          </surface>
        </newparam>
        <newparam sid="Image1-sampler">
          <sampler2D>
            <source>Image1-surface</source>
            <wrap_s>WRAP</wrap_s>
            <wrap_t>WRAP</wrap_t>
            <minfilter>NONE</minfilter>
            <magfilter>NONE</magfilter>
            <mipfilter>NONE</mipfilter>
          </sampler2D>
        </newparam>
        <technique sid="common">
          <phong>
            <emission>
              <color>0 0 0 1</color>
            </emission>
            <ambient>
              <color>0 0 0 1</color>
            </ambient>
            <diffuse>
              <texture texture="Image1-sampler" texcoord=""/>
            </diffuse>
            <specular>
              <color>1 1 1 1</color>
            </specular>
            <shininess>
              <float>0</float>
            </shininess>
            <transparent opaque="A_ONE">
              <color>0 0 0 1</color>
            </transparent>
            <transparency>
              <float>1</float>
            </transparency>
            <index_of_refraction>
              <float>1.55</float>
            </index_of_refraction>
          </phong>
          <extra>
            <technique profile="FCOLLADA">
              <spec_level>
                <float>0</float>
              </spec_level>
            </technique>
          </extra>
        </technique>
      </profile_COMMON>
      <extra>
        <technique profile="FCOLLADA">
          <user_properties>ys_body.png</user_properties>
        </technique>
      </extra>
    </effect>
  </library_effects>
  <library_geometries>
    <geometry id="Geometry" name="mesh_0_">
      <mesh>
        <source id="GeometrySource" name="mesh_0_Pos">
          <float_array id="GeometrySource-array" count="78">0.646541 10.8436 1.21871 1.5808 10.3551 1.06814 1.1358 11.1194 0.874178 0.509244 11.2064 0.632202 -0.000031 10.8172 0.470073 -0.000029 10.1287 0.986579 0.605991 9.78278 1.48843 1.63338 9.45625 1.13578 1.21736 8.60405 1.27323 -0.000025 8.90897 1.24816 1.84929 9.63992 0.073043 1.61299 10.6908 0.087913 1.73726 8.79133 0.524183 -0.646605 10.8436 1.21871 -1.13586 11.1193 0.874178 -1.58086 10.3551 1.06814 -0.50931 11.2063 0.632202 -0.000031 10.8172 0.470073 -0.000029 10.1287 0.986579 -0.606047 9.78277 1.48843 -1.63344 9.45622 1.13578 -1.2174 8.60404 1.27323 -0.000025 8.90897 1.24816 -1.84935 9.6399 0.073043 -1.61305 10.6908 0.087913 -1.73732 8.7913 0.524183</float_array>
          <technique_common>
            <accessor source="#GeometrySource-array" count="26" stride="3">
              <param name="X" type="float"/>
              <param name="Y" type="float"/>
              <param name="Z" type="float"/>
            </accessor>
          </technique_common>
        </source>
        <source id="GeometrySource1" name="mesh_0_Nrm">
          <float_array id="GeometrySource1-array" count="78">0.811001 0.253512 -0.527266 0.623601 -0.721656 -0.300559 0.298169 -0.407417 -0.863196 0.156399 0.295411 -0.942482 -0.04115 0.752641 -0.657144 0.742054 0.608104 -0.282074 0.994827 0.044458 -0.091333 0.626402 -0.778355 0.042229 0.855637 -0.513868 0.061845 0.94031 0.339537 0.023062 -0.296605 -0.954766 -0.02114 -0.321458 -0.776227 -0.542343 0.174572 -0.966977 -0.185688 0.811001 -0.253512 -0.527266 0.298169 0.407417 -0.863196 0.623601 0.721655 -0.300559 0.156399 -0.295411 -0.942482 -0.04115 -0.752641 -0.657144 0.742053 -0.608104 -0.282074 0.994827 -0.044458 -0.091333 0.626402 0.778355 0.042229 0.855637 0.513868 0.061845 0.94031 -0.339538 0.023062 -0.296605 0.954766 -0.02114 -0.321458 0.776227 -0.542343 0.174572 0.966977 -0.185688</float_array>
          <technique_common>
            <accessor source="#GeometrySource1-array" count="26" stride="3">
              <param name="X" type="float"/>
              <param name="Y" type="float"/>
              <param name="Z" type="float"/>
            </accessor>
          </technique_common>
        </source>
        <source id="GeometrySource2" name="mesh_0_UV">
          <float_array id="GeometrySource2-array" count="52">1.36884 1.7828 1.90691 1.58565 1.77335 1.80397 1.44913 1.92382 0.999996 1.77386 0.999995 1.60389 1.34556 1.4238 1.88352 1.30203 1.69652 1.02489 0.999996 1.12808 2.11415 1.46851 1.93549 1.75283 2.00773 1.13936 0.631153 1.7828 0.226649 1.80397 0.093087 1.58565 0.550867 1.92382 0.999996 1.77386 0.999995 1.60389 0.654433 1.4238 0.116473 1.30203 0.303478 1.02489 0.999996 1.12808 -0.114157 1.46851 0.064504 1.75283 -0.00774 1.13936</float_array>
          <technique_common>
            <accessor source="#GeometrySource2-array" count="26" stride="2">
              <param name="S" type="float"/>
              <param name="T" type="float"/>
            </accessor>
          </technique_common>
        </source>
        <source id="GeometrySource3" name="mesh_0_Clr">
          <float_array id="GeometrySource3-array" count="104">1 1 1 1 1 1 1 1 1 1 1 1 1 1 1 1 0.596079 0.596079 0.596079 1 0.513726 0.513726 0.513726 1 0.901961 0.901961 0.901961 1 0.976471 0.976471 0.976471 1 0.776471 0.776471 0.776471 1 0.662745 0.662745 0.662745 1 1 1 1 1 1 1 1 1 0.909804 0.909804 0.909804 1 1 1 1 1 1 1 1 1 1 1 1 1 1 1 1 1 0.596079 0.596079 0.596079 1 0.513726 0.513726 0.513726 1 0.901961 0.901961 0.901961 1 0.984314 0.984314 0.984314 1 0.776471 0.776471 0.776471 1 0.662745 0.662745 0.662745 1 1 1 1 1 1 1 1 1 0.909804 0.909804 0.909804 1</float_array>
          <technique_common>
            <accessor source="#GeometrySource3-array" count="26" stride="4">
              <param name="R" type="float"/>
              <param name="G" type="float"/>
              <param name="B" type="float"/>
              <param name="A" type="float"/>
            </accessor>
          </technique_common>
        </source>
        <vertices id="Geometry-vertices">
          <input semantic="POSITION" source="#GeometrySource"/>
          <input semantic="NORMAL" source="#GeometrySource1"/>
          <input semantic="TEXCOORD" source="#GeometrySource2"/>
          <input semantic="COLOR" source="#GeometrySource3"/>
        </vertices>
        <triangles material="VisualMaterial0" count="30">
          <input semantic="VERTEX" source="#Geometry-vertices" offset="0"/>
          <p>0 1 2 0 2 3 4 0 3 4 5 0 0 5 6 6 1 0 6 7 1 6 8 7 6 9 8 5 9 6 10 1 7 11 1 10 2 1 11 12 7 8 10 7 12 13 14 15 13 16 14 17 16 13 17 13 18 13 19 18 19 13 15 19 15 20 19 20 21 19 21 22 18 19 22 23 20 15 24 23 15 14 24 15 25 21 20 23 25 20</p>
        </triangles>
      </mesh>
    </geometry>
    <geometry id="Geometry1" name="mesh_1_">
      <mesh>
        <source id="GeometrySource4" name="mesh_1_Pos">
          <float_array id="GeometrySource4-array" count="1206">1.94752 2.39607 2.04875 1.93943 2.52777 0.72484 0.81223 1.39089 1.6234 2.81585 1.45821 1.11134 2.27086 1.67876 -0.107651 1.77393 0.18013 -0.075221 2.53905 0.401597 0.949603 0.889768 0.536128 0.92936 -2.88303 1.45821 1.1113 -1.93943 2.52774 0.72484 -2.27086 1.67876 -0.107683 -1.94754 2.39607 2.04873 -0.812242 1.39089 1.62338 -0.000012 5.51398 0.112841 1.40232 4.80667 0.092995 -0.00001 4.87629 -0.53364 -1.40234 4.80665 0.092995 -1.05313 4.17169 -0.734096 1.05311 4.17171 -0.734096 -0.000012 5.51398 0.112841 1.41849 4.12814 1.02914 -0.000008 4.36818 1.60265 -1.41851 4.12812 1.02914 -0.000008 4.36818 1.60265 -0.000002 2.76929 2.4274 1.56344 3.11428 1.70371 1.41849 4.12814 1.02914 2.07916 3.27325 0.614226 1.98907 1.16765 1.78432 2.54419 1.6835 -0.160437 1.79843 -0.258341 0.847972 1.72883 0.203118 -0.665449 0 -0.285512 -1.32851 0 -0.471941 1.2975 0 0.917898 2.4591 -1.98907 1.16765 1.78432 -1.79843 -0.258341 0.847972 -1.72883 0.203118 -0.665449 -2.54419 1.6835 -0.160437 -2.07917 3.27322 0.614226 -1.56344 3.11426 1.70371 -1.41851 4.12812 1.02914 -0.000005 3.48081 -2.46509 -0.000007 4.12584 -1.92599 0.763327 3.80885 -1.95223 0.763331 2.94327 -2.34683 1.08564 3.70767 -0.943171 -0.000008 4.31905 -1.10508 -0.76334 3.80883 -1.95223 -0.763337 2.94326 -2.34683 -1.08601 3.70737 -0.943432 -1.0808 2.42177 -1.57644 -0.000002 2.63712 -2.47086 0 1.98482 -1.99578 1.0808 2.42179 -1.57644 1.41357 2.24166 -1.48568 0 2.03125 0.276734 0.000001 1.68922 -2.03712 -0.000004 3.23823 -1.94524 1.37833 3.87726 -0.786111 -0.000009 4.6283 -0.887289 -1.37835 3.87724 -0.786111 -1.41357 2.24164 -1.48568 2.81086 1.40653 5.25405 2.18674 -0.93688 3.43005 2.87877 1.75229 4.24061 1.86768 2.35656 4.81315 0.78229 1.55877 5.25656 0.735932 1.90376 4.26878 0.700135 -0.8355 3.43901 0.967817 -0.07083 2.34624 1.47842 -0.75429 2.60286 2.27578 -0.16523 2.34473 1.90994 2.08223 3.69017 0.700135 -0.8355 3.43901 2.18674 -0.93688 3.43005 2.81086 1.40653 5.25405 0.78229 1.55877 5.25656 1.79376 0.887107 2.17988 0.946723 -0.15076 2.06217 0.655742 1.04719 2.61404 2.17034 -0.39207 1.95317 3.00891 0.575124 2.40082 2.00802 2.05187 2.99635 1.83157 0.455915 3.63906 0.946723 -0.15076 2.06217 2.17034 -0.39207 1.95317 0.655742 1.04719 2.61404 2.00802 2.05187 2.99635 3.00891 0.575124 2.40082 1.15889 0.791685 2.5511 1.88125 1.52938 2.87643 0.81223 1.39089 1.6234 0.889768 0.536128 0.92936 1.89741 -0.12137 2.29738 2.53905 0.401597 0.949603 2.67081 0.717157 2.53519 2.81585 1.45821 1.11134 1.94752 2.39607 2.04875 -2.8109 1.40653 5.25401 -2.87879 1.75229 4.24057 -2.18676 -0.93688 3.43001 -1.86772 2.35656 4.81313 -0.782328 1.55877 5.25654 -0.735963 1.90376 4.26876 -0.700159 -0.8355 3.43899 -0.967834 -0.07083 2.34622 -1.47844 -0.75429 2.60284 -2.2758 -0.16523 2.34469 -1.90996 2.08223 3.69015 -0.700159 -0.8355 3.43899 -2.8109 1.40653 5.25401 -2.18676 -0.93688 3.43001 -0.782328 1.55877 5.25654 -1.79378 0.887107 2.17986 -0.655761 1.04719 2.61404 -0.946738 -0.15076 2.06215 -2.17036 -0.39207 1.95313 -3.00893 0.575124 2.40078 -2.00804 2.05187 2.99633 -1.83159 0.455915 3.63904 -2.17036 -0.39207 1.95313 -0.946738 -0.15076 2.06215 -0.655761 1.04719 2.61404 -2.00804 2.05187 2.99633 -3.00893 0.575124 2.40078 -1.15891 0.791685 2.55108 -0.812242 1.39089 1.62338 -1.88127 1.52938 2.87641 -0.889774 0.536128 0.929348 -1.89743 -0.12137 2.29736 -2.53905 0.401597 0.949567 -2.67083 0.717157 2.53515 -2.88303 1.45821 1.1113 -1.94754 2.39607 2.04873 -0.889774 0.536128 0.929348 -2.53905 0.401597 0.949567 -1.77393 0.18013 -0.075247 3.12582 3.33102 -0.105538 2.07916 3.27325 0.614226 1.75651 3.41172 -0.500456 2.85556 4.01881 0.809164 3.20849 3.99806 0.721072 4.44245 3.41476 0.387001 4.44034 3.94418 0.817237 4.68672 3.94767 0.83647 4.68672 3.34102 0.534511 4.68672 3.31374 -0.643708 4.42867 3.95383 -0.741549 4.68672 4.06398 -0.83315 4.68672 4.71224 -0.093358 4.41354 4.66516 -0.153762 3.04767 4.63745 -0.169522 1.40232 4.80667 0.092995 1.05311 4.17171 -0.734096 2.78243 3.94965 -0.742032 3.12213 3.9268 -0.673491 1.41849 4.12814 1.02914 6.94775 3.50697 -1.13201 6.51114 2.88909 0.329165 5.82653 3.1234 -1.10057 7.23413 3.51156 0.208183 6.6509 4.58609 -1.27768 6.68597 4.69682 1.30492 6.96489 3.49831 1.17387 6.22583 3.09389 1.20456 5.69226 2.51731 1.12662 4.68672 3.31374 -0.643708 4.68672 3.34102 0.534511 5.66881 4.32504 -1.2475 4.68672 4.71224 -0.093358 6.6509 4.58609 -1.27768 4.68672 4.06398 -0.83315 4.68672 3.94767 0.83647 5.63172 4.49925 1.34793 6.68597 4.69682 1.30492 4.68672 3.31374 -0.643708 4.68672 4.06398 -0.83315 5.82653 3.1234 -1.10057 5.66881 4.32504 -1.2475 6.6509 4.58609 -1.27768 6.94775 3.50697 -1.13201 6.22583 3.09389 1.20456 5.63172 4.49925 1.34793 5.48778 3.26762 1.51666 5.69226 2.51731 1.12662 4.68672 3.34102 0.534511 4.68672 3.94767 0.83647 6.96489 3.49831 1.17387 6.68597 4.69682 1.30492 1.59471 7.5047 1.40436 1.55251 6.56764 1.50628 2.72364 7.27904 0.40962 1.73726 8.79133 0.524183 1.50935 8.52228 -1.2882 2.25945 7.13944 -1.62174 2.3014 5.62681 -0.01999 1.08213 5.2906 1.27935 0.653842 5.51676 1.84566 -0.000011 5.16647 1.95879 -0.000012 5.13747 1.44203 -0.000009 4.52391 0.145237 1.12098 4.89363 -0.449605 1.89471 5.921 -1.46799 1.13497 7.07888 1.32346 -0.000016 6.65086 0.424944 1.17514 6.50569 1.65543 1.59471 7.5047 1.40436 1.55251 6.56764 1.50628 0.5376 5.6694 2.05427 -0.000011 5.39064 2.15621 0.653842 5.51676 1.84566 -0.000011 5.16647 1.95879 -0.653866 5.51676 1.84566 -0.537624 5.6694 2.05427 -1.55253 6.56763 1.50629 -1.17516 6.50569 1.65544 -1.59475 7.50467 1.40436 -1.13501 7.07887 1.32346 -0.000009 4.52391 0.145237 -0.00001 5.01259 -1.35759 1.12098 4.89363 -0.449605 -1.12102 4.89363 -0.449597 -1.89473 5.92097 -1.46799 -0.000015 6.37809 -2.31413 -2.25949 7.13941 -1.62174 -0.000019 7.51419 -2.33569 2.25945 7.13944 -1.62174 1.50935 8.52228 -1.2882 -1.50939 8.52225 -1.2882 1.89471 5.921 -1.46799 -1.59475 7.50467 1.40436 -2.72368 7.279 0.40962 -1.55253 6.56763 1.50629 -1.73732 8.7913 0.524183 -1.50939 8.52225 -1.2882 -2.25949 7.13941 -1.62174 -2.30143 5.6268 -0.019973 -1.08215 5.2906 1.27936 -0.653866 5.51676 1.84566 -1.12102 4.89363 -0.449597 -1.89473 5.92097 -1.46799 -0.000022 8.22559 -2.48956 -0.000022 8.33799 -1.93774 0.494521 7.36833 -2.1831 -0.000021 7.82558 -3.1449 -0.000018 6.99004 -2.99996 -0.000015 6.37809 -2.31413 -0.494559 7.36832 -2.1831 -0.000014 5.94906 -2.83267 -0.000015 6.37809 -2.31413 0.411231 5.76418 -1.73244 -0.000011 5.19473 -2.81898 -0.00001 4.84867 -2.07104 -0.00001 5.01259 -1.35759 -0.411259 5.76417 -1.73244 -0.000028 9.86445 -1.34719 -0.000026 9.3585 -0.334678 0.518597 8.92546 -1.16235 -0.000027 9.64302 -2.1467 -0.000025 8.973 -2.1596 -0.000022 8.33799 -1.93774 -0.518647 8.92545 -1.16235 -0.000025 8.90897 1.24816 -0.000028 9.76282 2.35346 1.21736 8.60405 1.27323 -1.2174 8.60404 1.27323 -1.90598 8.91429 2.78963 -1.59475 7.50467 1.40436 -2.40811 7.10094 3.06236 -1.44232 6.19019 1.90983 -1.13501 7.07887 1.32346 -0.000016 6.65086 0.424944 -1.30058 5.15964 2.93557 1.30056 5.15966 2.93557 1.44229 6.19021 1.90983 1.13497 7.07888 1.32346 1.59471 7.5047 1.40436 2.40807 7.10098 3.06236 1.79052 6.79511 4.71377 -0.000012 5.46619 4.49766 -1.77568 6.79508 4.71377 -0.000018 7.12654 5.45061 -1.53749 8.79579 4.34134 -0.000025 9.0784 4.95662 1.53682 8.79582 4.34134 1.90594 8.91431 2.78963 -0.000028 9.76988 3.81574 1.53682 8.79582 4.34134 -0.000028 9.76988 3.81574 -0.000025 9.0784 4.95662 -1.53749 8.79579 4.34134 1.21736 8.60405 1.27323 1.59471 7.5047 1.40436 1.73726 8.79133 0.524183 0.509244 11.2064 0.632202 1.1358 11.1194 0.874178 0.837042 11.0534 -0.065671 -0.000031 10.8172 0.470073 0.257574 10.538 -0.246318 -0.000026 9.3585 -0.334678 1.03287 10.2187 -0.548591 1.17991 9.25502 -0.52642 1.84929 9.63992 0.073043 1.61299 10.6908 0.087913 -0.000022 8.33799 -1.93774 -0.000025 9.08097 -1.1787 1.50935 8.52228 -1.2882 -0.000019 7.51419 -2.33569 -1.50939 8.52225 -1.2882 -1.17997 9.255 -0.52642 -0.000026 9.3585 -0.334678 1.17991 9.25502 -0.52642 1.73726 8.79133 0.524183 1.73726 8.79133 0.524183 -1.2174 8.60404 1.27323 -1.73732 8.7913 0.524183 -1.59475 7.50467 1.40436 -0.50931 11.2063 0.632202 -0.837108 11.0534 -0.065671 -1.13586 11.1193 0.874178 -0.000031 10.8172 0.470073 -0.257636 10.538 -0.246318 -1.03293 10.2187 -0.548591 -1.17997 9.255 -0.52642 -1.84935 9.6399 0.073043 -1.61305 10.6908 0.087913 -1.73732 8.7913 0.524183 -1.73732 8.7913 0.524183 0 -0.285512 -1.32851 0 1.82012 -2.67752 0.866485 0.983047 -1.92134 1.72883 0.203118 -0.665449 -0.866485 0.983047 -1.92134 -1.72883 0.203118 -0.665449 1.24993 1.8451 -1.47936 0.866485 0.983047 -1.92134 0 1.82012 -2.67752 2.54419 1.6835 -0.160437 1.75651 3.41172 -0.500456 1.05311 4.17171 -0.734096 -1.05313 4.17169 -0.734096 -1.24993 1.8451 -1.47936 -0.866485 0.983047 -1.92134 -2.54419 1.6835 -0.160437 -1.75652 3.4117 -0.500456 -2.07917 3.27322 0.614226 -1.72883 0.203118 -0.665449 1.72883 0.203118 -0.665449 2.07916 3.27325 0.614226 -3.12583 3.331 -0.105536 -1.75652 3.4117 -0.500456 -2.07917 3.27322 0.614226 -2.85558 4.01879 0.809164 -3.20851 3.99803 0.721072 -4.44246 3.41473 0.387002 -4.44036 3.94415 0.817237 -4.68673 3.94764 0.836471 -4.68673 3.34099 0.534513 -4.68673 3.31371 -0.643706 -4.42869 3.9538 -0.741549 -4.68673 4.06395 -0.83315 -4.68674 4.71221 -0.09336 -4.41356 4.66513 -0.153764 -3.04769 4.63743 -0.169524 -1.40234 4.80665 0.092995 -1.05313 4.17169 -0.734096 -2.78245 3.94962 -0.742032 -3.12215 3.92678 -0.673491 -1.41851 4.12812 1.02914 -6.94776 3.50692 -1.13201 -5.82654 3.12336 -1.10057 -6.51115 2.88904 0.329168 -7.23414 3.51151 0.208184 -6.65092 4.58604 -1.27768 -6.68599 4.69677 1.30492 -6.9649 3.49826 1.17387 -6.22584 3.09385 1.20456 -5.69227 2.51727 1.12662 -4.68673 3.31371 -0.643706 -4.68673 3.34099 0.534513 -5.66883 4.325 -1.2475 -6.65092 4.58604 -1.27768 -4.68674 4.71221 -0.09336 -4.68673 4.06395 -0.83315 -4.68673 3.94764 0.836471 -5.63174 4.49921 1.34793 -6.68599 4.69677 1.30492 -4.68673 3.31371 -0.643706 -5.82654 3.12336 -1.10057 -4.68673 4.06395 -0.83315 -5.66883 4.325 -1.2475 -6.65092 4.58604 -1.27768 -6.94776 3.50692 -1.13201 -6.22584 3.09385 1.20456 -5.48779 3.26759 1.51666 -5.63174 4.49921 1.34793 -5.69227 2.51727 1.12662 -4.68673 3.34099 0.534513 -4.68673 3.94764 0.836471 -6.9649 3.49826 1.17387 -6.68599 4.69677 1.30492</float_array>
          <technique_common>
            <accessor source="#GeometrySource4-array" count="402" stride="3">
              <param name="X" type="float"/>
              <param name="Y" type="float"/>
              <param name="Z" type="float"/>
            </accessor>
          </technique_common>
        </source>
        <source id="GeometrySource5" name="mesh_1_Nrm">
          <float_array id="GeometrySource5-array" count="1206">0.219105 0.965837 -0.138393 0.958617 -0.234898 -0.160864 0.266171 0.496538 0.826198 0.126294 0.194884 -0.972661 -0.618555 0.112869 -0.777593 -0.484343 -0.71854 -0.499111 -0.051338 -0.762648 -0.644773 0.127997 -0.860361 0.493351 0.126294 0.194884 0.972661 0.958617 0.234898 -0.160864 -0.618555 0.112869 0.777593 0.219105 0.965837 0.138393 0.266171 0.496538 -0.826198 0.711931 0 -0.702249 0.95661 -0.286091 -0.055222 0.63623 0 -0.771499 0.95661 0.286091 -0.055222 0.465447 0.15588 -0.871241 0.465447 -0.15588 -0.871241 0.802943 0 0.596056 0.550171 -0.419099 0.722266 0.624749 0 0.780826 0.550171 0.419099 0.722266 0.624749 0 0.780826 0.208806 0 0.977957 0.367811 -0.587488 0.720814 0.550171 -0.419099 0.722266 -0.171685 -0.847852 0.501669 0.695858 -0.181521 0.694861 0.956502 0.11931 -0.266213 0.648942 -0.739145 0.180388 0.682072 -0.581294 -0.443706 0 -0.989662 -0.143417 0 -0.820747 0.571292 0 -0.332842 0.942983 -0.695858 -0.181521 0.694861 -0.648942 -0.739145 0.180388 -0.682072 -0.581294 -0.443706 -0.956502 0.11931 -0.266213 -0.171685 0.847852 0.501668 0.367811 0.587488 0.720814 0.550171 0.419099 0.722266 0.578613 0 -0.815602 0.960577 0.000006 -0.278014 0.699607 -0.580883 -0.416083 0.176467 -0.57107 -0.80171 0.612347 -0.785497 -0.089585 0.994759 0.000013 0.102248 0.699589 0.580867 -0.416135 0.176454 0.57103 -0.801741 0.612338 0.785492 -0.089697 -0.122049 0.791642 -0.598671 -0.098594 0 -0.995128 -0.463893 0 -0.885891 -0.122045 -0.791715 -0.598575 -0.210855 -0.843411 -0.494164 -0.586056 0 0.81027 -0.587037 0 -0.80956 0.578613 0 -0.815602 0.540709 -0.839217 0.057868 0.950178 0 0.311709 0.540709 0.839217 0.057868 -0.210855 0.843411 -0.494164 0.746529 0.472559 -0.468382 0.300093 -0.649082 -0.699026 -0.506579 0.304904 -0.806481 -0.377541 0.925622 0.026214 0.520049 0.612939 0.594857 -0.463933 0.321514 0.825467 0.541995 -0.563455 0.623506 -0.732865 -0.472538 0.489507 -0.207436 -0.978248 -0.000994 -0.74948 -0.485122 -0.450485 -0.961482 0.272141 0.038622 0.541995 -0.563455 0.623506 0.300093 -0.649082 -0.699026 0.746529 0.472559 -0.468382 0.520049 0.612939 0.594857 -0.999286 0.037785 0.000824 -0.337824 -0.777479 0.530473 -0.33477 0.201366 0.920533 -0.335741 -0.783273 -0.523221 -0.336206 0.20005 -0.920297 -0.388339 0.921503 0.005066 0.994496 -0.104688 0.004355 -0.337824 -0.777479 0.530473 -0.335741 -0.783273 -0.523221 -0.33477 0.201366 0.920533 -0.388339 0.921503 0.005066 -0.336206 0.20005 -0.920297 0.368187 -0.071084 0.92703 0.446107 0.843425 0.299372 0.266171 0.496538 0.826198 0.127997 -0.860361 0.493351 0.362056 -0.932141 -0.005386 -0.051338 -0.762648 -0.644773 0.375292 0.069534 -0.924295 0.126294 0.194884 -0.972661 0.219105 0.965837 -0.138393 0.746529 0.472559 0.468382 -0.506579 0.304904 0.806481 0.300093 -0.649082 0.699026 -0.377541 0.925622 -0.026214 0.520049 0.612939 -0.594857 -0.463933 0.321514 -0.825467 0.541995 -0.563455 -0.623506 -0.732865 -0.472538 -0.489507 -0.207436 -0.978248 -0.000994 -0.74948 -0.485122 0.450485 -0.961482 0.272141 -0.038622 0.541995 -0.563455 -0.623506 0.746529 0.472559 0.468382 0.300093 -0.649082 0.699026 0.520049 0.612939 -0.594857 -0.999286 0.037785 0.000824 -0.336206 0.20005 -0.920297 -0.335741 -0.783273 -0.523221 -0.337824 -0.777479 0.530473 -0.33477 0.201366 0.920533 -0.388339 0.921503 -0.005066 0.994496 -0.104688 0.004355 -0.337824 -0.777479 0.530473 -0.335741 -0.783273 -0.523221 -0.336206 0.20005 -0.920297 -0.388339 0.921503 -0.005066 -0.33477 0.201366 0.920533 0.368187 -0.071084 -0.92703 0.266171 0.496538 -0.826198 0.446107 0.843425 -0.299372 0.127997 -0.860361 -0.493351 0.362056 -0.932141 0.005386 -0.051338 -0.762649 0.644773 0.375292 0.069534 0.924295 0.126294 0.194884 0.972661 0.219105 0.965837 0.138393 0.127997 -0.860361 -0.493351 -0.051338 -0.762649 0.644773 -0.484343 -0.71854 0.499111 0.132089 -0.981613 -0.137802 -0.171685 -0.847852 0.501669 -0.198237 -0.558149 -0.805712 0.291899 0.160461 0.942893 0.002749 -0.167972 0.985788 -0.341368 -0.875119 0.342979 -0.14403 0.353304 0.924355 -0.524518 0.309284 0.793237 -0.607238 -0.665137 0.434574 -0.462015 -0.777268 -0.427079 -0.30859 -0.058469 -0.949396 -0.428175 0.161704 -0.889111 -0.321648 0.931715 -0.168672 -0.080091 0.988349 -0.129426 0.098666 0.987816 -0.120353 0.95661 -0.286091 -0.055222 0.465447 -0.15588 -0.871241 0.124016 -0.118376 -0.985194 0.056793 0.108676 -0.992454 0.550171 -0.419099 0.722266 0.645243 -0.530439 -0.549815 0.402097 -0.915588 -0.004119 -0.125071 -0.51397 -0.848641 0.988316 -0.151425 0.017385 0.423299 0.576466 -0.698931 0.523992 0.737775 0.425583 0.571769 -0.395168 0.718973 0.430125 -0.421706 0.798221 -0.111961 -0.911021 0.396869 -0.462015 -0.777268 -0.427079 -0.607238 -0.665137 0.434574 -0.298908 0.364895 -0.881763 -0.321648 0.931715 -0.168672 0.423299 0.576466 -0.698931 -0.428175 0.161704 -0.889111 -0.524518 0.309284 0.793237 -0.164827 0.341418 0.925346 0.523992 0.737775 0.425583 -0.462015 -0.777268 -0.427079 -0.428175 0.161704 -0.889111 -0.125071 -0.51397 -0.848641 -0.298908 0.364895 -0.881763 0.423299 0.576466 -0.698931 0.645243 -0.530439 -0.549815 0.430125 -0.421706 0.798221 -0.164827 0.341418 0.925346 -0.323034 -0.219396 0.920606 -0.111961 -0.911021 0.396869 -0.607238 -0.665137 0.434574 -0.524518 0.309284 0.793237 0.571769 -0.395168 0.718973 0.523992 0.737775 0.425583 0.851225 -0.439523 -0.286767 0.769309 0.212057 -0.602658 0.1879 -0.975123 -0.117593 0.174572 -0.966977 -0.185688 -0.56686 -0.558142 -0.605926 -0.749155 -0.657021 -0.084199 0.442499 -0.407521 -0.798825 0.758316 -0.472568 -0.449039 0.833066 -0.114639 -0.541164 0.928625 -0.371021 0 0.703724 -0.710473 0 0.119615 0 0.99282 0.322853 -0.85196 -0.412225 -0.571085 -0.633794 0.521696 0.65373 0.68052 -0.330953 0.697012 0 -0.71706 0.573167 0.770415 0.279179 0.851225 -0.439523 -0.286767 0.769309 0.212057 -0.602658 0.736638 0.650806 -0.183892 0.94962 0.313404 0 0.833066 -0.114639 -0.541164 0.928625 -0.371021 0 0.928625 -0.371021 0 0.736638 0.650806 0.183892 0.769309 0.212057 0.602658 0.573167 0.770415 -0.279178 0.851225 0.439524 -0.286767 0.653731 -0.680519 -0.330952 0.119615 0 0.99282 -0.586056 0 0.81027 0.322853 -0.85196 -0.412225 0.322853 -0.85196 0.412225 -0.571085 0.633794 0.521696 -0.957894 0 0.287123 -0.749155 0.657021 -0.084199 -0.959443 0 -0.281904 -0.749155 -0.657021 -0.084199 -0.56686 -0.558142 -0.605926 -0.56686 0.558142 -0.605926 -0.571085 -0.633794 0.521696 0.851225 0.439524 -0.286767 0.1879 0.975123 -0.117593 0.769309 0.212057 0.602658 0.174572 0.966977 -0.185688 -0.56686 0.558142 -0.605926 -0.749155 0.657021 -0.084199 0.442499 -0.407521 0.798825 0.758316 -0.472568 0.449039 0.928625 -0.371021 0 0.322853 -0.85196 0.412225 -0.571085 0.633794 0.521696 -0.366479 0 -0.930426 -0.199589 0 -0.97988 -0.318679 -0.9411 -0.113023 -0.913465 0 -0.406917 -0.870948 0 0.491375 -0.665765 0 0.746161 -0.318679 0.9411 -0.113023 -0.885253 0 -0.465111 -0.637471 0 -0.770475 -0.185157 -0.974976 0.123042 -0.819595 0 0.572943 -0.078985 0 0.996876 0.223926 0 0.974606 -0.185157 0.974976 0.123042 0.128482 0 -0.991712 0.446996 0 -0.894536 -0.218691 -0.949957 -0.223062 -0.781996 0 -0.623284 -0.986636 0 0.162939 -0.944037 0 0.32984 -0.218691 0.949957 -0.223062 -0.611345 0 -0.791364 -0.366479 0 -0.930426 -0.509841 -0.548549 -0.662688 -0.509841 0.548549 -0.662688 -0.149687 0.763504 -0.628216 -0.565915 0.822546 0.056194 -0.067687 0.991991 0.106644 -0.662805 0.573907 0.480957 -0.830442 0.363359 0.422299 -0.720389 0 0.69357 -0.086034 0.497213 0.863353 -0.087668 -0.496837 0.863404 -0.662805 -0.573907 0.480957 -0.830441 -0.36336 0.422299 -0.565915 -0.822546 0.056194 -0.070145 -0.99194 0.105522 0.670939 -0.67695 0.302621 0.655863 0.000907 0.754879 0.672059 0.675644 0.303054 0.999879 0.000862 0.01554 0.579485 0.654276 -0.485921 0.801064 -0.000074 -0.598579 0.578387 -0.654042 -0.487542 -0.149587 -0.763519 -0.628221 0.249258 -0.000036 -0.968437 0.578387 -0.654042 -0.487542 0.249258 -0.000036 -0.968437 0.801064 -0.000074 -0.598579 0.579485 0.654276 -0.485921 0.855637 -0.513868 0.061845 0.851225 -0.439523 -0.286767 0.174572 -0.966977 -0.185688 0.156399 0.295411 -0.942482 0.298169 -0.407417 -0.863196 -0.542268 0.018725 -0.839997 -0.04115 0.752641 -0.657144 -0.74297 0.511123 -0.432144 -0.902234 0 -0.431246 -0.946841 -0.203172 -0.249427 -0.756591 -0.502972 -0.417839 -0.296605 -0.954766 -0.02114 -0.321458 -0.776227 -0.542343 -0.81054 0 -0.585683 -0.559027 0 -0.829149 -0.56686 -0.558142 -0.605926 -0.959443 0 -0.281904 -0.56686 0.558142 -0.605926 -0.756591 0.502972 -0.417839 -0.902234 0 -0.431246 -0.756591 -0.502972 -0.417839 0.174572 -0.966977 -0.185688 0.174572 -0.966977 -0.185688 0.855637 0.513868 0.061845 0.174572 0.966977 -0.185688 0.851225 0.439524 -0.286767 0.156399 -0.295411 -0.942482 -0.542268 -0.018725 -0.839997 0.298169 0.407417 -0.863196 -0.04115 -0.752641 -0.657144 -0.74297 -0.511123 -0.432144 -0.946841 0.203173 -0.249427 -0.756591 0.502972 -0.417839 -0.296605 0.954766 -0.02114 -0.321458 0.776227 -0.542343 0.174572 0.966977 -0.185688 0.174572 0.966977 -0.185688 0 -0.989662 -0.143417 0 0.358143 -0.933667 0.703882 0.029142 -0.709719 0.682072 -0.581294 -0.443706 -0.703882 0.029142 -0.709719 -0.682072 -0.581294 -0.443706 0.529082 0.5851 -0.614597 0.703882 0.029142 -0.709719 0 0.358143 -0.933667 0.956502 0.11931 -0.266213 -0.198237 -0.558149 -0.805712 0.465447 -0.15588 -0.871241 0.465447 0.15588 -0.871241 -0.529082 0.5851 -0.614598 -0.703882 0.029142 -0.709719 -0.956502 0.11931 -0.266213 -0.198237 0.558149 -0.805712 -0.171685 0.847852 0.501668 -0.682072 -0.581294 -0.443706 0.682072 -0.581294 -0.443706 -0.171685 -0.847852 0.501669 0.132089 -0.981613 0.137801 -0.198237 0.558149 -0.805712 -0.171685 0.847852 0.501668 0.291899 0.160461 -0.942893 0.00275 -0.167972 -0.985788 -0.341369 -0.875119 -0.342979 -0.144031 0.353303 -0.924355 -0.524518 0.309284 -0.793237 -0.607238 -0.665137 -0.434574 -0.462015 -0.777268 0.427079 -0.30859 -0.058469 0.949396 -0.428175 0.161704 0.889111 -0.321648 0.931715 0.168672 -0.080091 0.988349 0.129426 0.098666 0.987816 0.120353 0.95661 0.286091 -0.055222 0.465447 0.15588 -0.871241 0.124016 -0.118377 0.985194 0.056793 0.108676 0.992454 0.550171 0.419099 0.722266 0.645243 -0.530439 0.549815 -0.125071 -0.51397 0.848641 0.402097 -0.915588 -0.004119 0.988316 -0.151425 -0.017385 0.423299 0.576466 0.698931 0.523992 0.737775 -0.425583 0.571769 -0.395168 -0.718974 0.430125 -0.421706 -0.798221 -0.111961 -0.911021 -0.396869 -0.462015 -0.777268 0.427079 -0.607238 -0.665137 -0.434574 -0.298908 0.364895 0.881763 0.423299 0.576466 0.698931 -0.321648 0.931715 0.168672 -0.428175 0.161704 0.889111 -0.524518 0.309284 -0.793237 -0.164827 0.341418 -0.925346 0.523992 0.737775 -0.425583 -0.462015 -0.777268 0.427079 -0.125071 -0.51397 0.848641 -0.428175 0.161704 0.889111 -0.298908 0.364895 0.881763 0.423299 0.576466 0.698931 0.645243 -0.530439 0.549815 0.430125 -0.421706 -0.798221 -0.323034 -0.219396 -0.920606 -0.164827 0.341418 -0.925346 -0.111961 -0.911021 -0.396869 -0.607238 -0.665137 -0.434574 -0.524518 0.309284 -0.793237 0.571769 -0.395168 -0.718974 0.523992 0.737775 -0.425583</float_array>
          <technique_common>
            <accessor source="#GeometrySource5-array" count="402" stride="3">
              <param name="X" type="float"/>
              <param name="Y" type="float"/>
              <param name="Z" type="float"/>
            </accessor>
          </technique_common>
        </source>
        <source id="GeometrySource6" name="mesh_1_UV">
          <float_array id="GeometrySource6-array" count="804">0.31642 0.793377 0.315653 0.804624 0.310615 0.794628 0.32081 0.79829 0.31867 0.807336 0.317342 0.806071 0.319376 0.796969 0.312074 0.797006 0.32081 0.79829 0.315653 0.804624 0.31867 0.807336 0.31642 0.793377 0.310615 0.794628 1.16209 -0.000721 1.16489 -0.173944 1.20559 -0.000721 1.16489 0.172501 1.28797 0.163837 1.28797 -0.16528 1.16209 -0.000721 1.03521 -0.140785 1.03311 -0.000721 1.03952 0.137758 0.085148 0.57643 0.086339 0.490904 0.099208 0.479081 0.150788 0.668681 0.264185 0.510171 0.129405 0.336732 0.385892 0.434232 0.175408 0.178588 0.325723 0.080413 0.165197 0.065943 0.133898 0.202871 0.107088 0.345522 0.129405 0.336732 0.175408 0.178588 0.325723 0.080413 0.385892 0.434232 0.264185 0.510171 0.099208 0.479081 0.150788 0.668681 0.999582 0.99999 0.999582 1.08621 0.902925 1.04171 0.900993 0.956394 0.832571 1.07001 0.999582 1.14181 0.902925 1.04171 0.900993 0.956394 0.832571 1.07001 0.832571 0.929261 0.999582 0.915104 0.999582 0.858093 0.832571 0.929261 0.759641 0.621139 0.944079 0.664635 0.946443 0.559761 0.944079 0.664635 0.759641 0.73022 0.944316 0.786266 0.759641 0.73022 0.759641 0.621139 0.738075 0.361056 0.754499 0.362124 0.73965 0.482164 0.736097 0.464397 0.738075 0.361043 0.739724 0.474781 0.754499 0.361043 0.753575 0.51387 0.755415 0.444023 0.753575 0.51387 0.740366 0.535057 0.467719 0.911492 0.467719 1.08251 0.697398 1.11095 0.697398 0.8899 0.560147 0.36832 0.483844 0.427717 0.414878 0.364963 0.634805 0.427717 0.696111 0.363505 0.559331 0.315995 1.26111 0.41377 1.28236 0.424195 1.28236 0.424195 1.25367 0.424195 1.23404 0.424195 1.25367 0.424195 0.3916 0.860552 0.3916 0.850657 0.260107 0.858926 0.256044 0.877103 0.3916 0.873213 0.256405 0.876703 0.3916 0.861148 0.260855 0.859034 0.264638 0.844292 0.738075 0.361056 0.73965 0.482164 0.754499 0.362124 0.736097 0.464397 0.738075 0.361043 0.739724 0.474781 0.754499 0.361043 0.753575 0.51387 0.755415 0.444023 0.753575 0.51387 0.740366 0.535057 0.467719 0.911492 0.697398 1.11095 0.467719 1.08251 0.697398 0.8899 0.560147 0.36832 0.414878 0.364963 0.483844 0.427717 0.634805 0.427717 0.696111 0.363505 0.559331 0.315995 1.26111 0.41377 1.28236 0.424195 1.28236 0.424195 1.25367 0.424195 1.23404 0.424195 1.25367 0.424195 0.3916 0.860552 0.260107 0.858926 0.3916 0.850657 0.256044 0.877103 0.3916 0.873213 0.256405 0.876703 0.3916 0.861148 0.260855 0.859034 0.264638 0.844292 0.312074 0.797006 0.319376 0.796969 0.317342 0.806071 0.299333 -0.24672 0.296444 -0.249336 0.294242 -0.247525 0.29742 -0.244677 0.298864 -0.245573 0.303671 -0.247502 0.30362 -0.245375 0.304571 -0.245335 0.304633 -0.247493 0.304633 -0.24536 0.303671 -0.243331 0.304633 -0.241267 0.304633 -0.24104 0.303671 -0.241016 0.298864 -0.240897 0.292285 -0.239351 0.291765 -0.243373 0.297797 -0.241528 0.298864 -0.241382 0.293087 -0.24199 0.474602 0.631889 0.529658 0.536147 0.568491 0.624691 0.478787 0.53821 0.322187 0.642667 0.324797 0.465994 0.500353 0.461231 0.541164 0.492162 0.587901 0.45978 0.709069 0.601543 0.699979 0.492276 0.417294 0.784463 0.391881 0.759741 0.442567 0.790052 0.392021 0.778873 0.401387 0.737967 0.420354 0.729368 0.445824 0.742898 1.4438 -1.31394 1.59571 -1.28946 1.42216 -1.28398 1.53947 -1.23859 1.48323 -1.18772 1.3616 -1.1835 0.588485 0.726754 0.485067 0.801615 0.503219 0.719688 0.561352 0.705295 0.486765 0.716174 0.446593 0.768075 0.647567 0.780782 0.575858 0.82715 0.420952 0.174936 0.418627 0.103935 0.495789 0.167704 0.470013 0.273396 0.60511 0.257033 0.642077 0.169702 0.534678 0.040432 0.441197 0.008865 0.400187 0.023268 0.394041 -0.00362 0.430545 -0.003412 0.524947 -0.043594 0.564882 -0.013014 0.633697 0.069186 1.11275 0.511005 1.02641 0.51736 1.12143 0.422603 1.18126 0.503426 1.14516 0.409163 1.05041 0.391229 1.02641 0.386931 1.05442 0.368231 1.02641 0.365197 1.05442 0.368231 1.05041 0.391229 1.14516 0.409163 1.12143 0.422603 1.18126 0.503426 1.11275 0.511005 2.71225 0.223746 2.71063 0.234995 2.59694 0.180709 2.59694 0.180709 2.5203 0.177646 2.7061 0.266427 2.50166 0.202126 2.70332 0.284575 2.50166 0.202126 2.6204 0.257317 2.6204 0.257317 2.5203 0.177646 0.420952 0.174936 0.495789 0.167704 0.418627 0.103935 0.470013 0.273396 0.60511 0.257033 0.642077 0.169702 0.534678 0.040432 0.441197 0.008865 0.400187 0.023268 0.564882 -0.013014 0.633697 0.069186 0.91868 0.337932 0.915182 0.327272 0.93309 0.328056 0.927574 0.349445 0.942036 0.342925 0.951053 0.326443 0.93309 0.328056 0.965298 0.34627 0.955138 0.335014 0.964896 0.318463 0.980994 0.343263 0.984018 0.325595 0.977852 0.309474 0.964896 0.318463 0.792309 0.327928 0.794413 0.309691 0.803316 0.312449 0.801638 0.343714 0.813302 0.336007 0.819712 0.323306 0.803316 0.312449 0.267952 0.646074 0.261108 0.650894 0.267797 0.644353 0.267797 0.644353 0.258406 0.646104 0.266985 0.638147 0.256717 0.635868 0.263855 0.630727 0.267486 0.635743 0.264477 0.627562 0.257502 0.624909 0.257502 0.624909 0.263855 0.630727 0.267486 0.635743 0.266985 0.638147 0.256717 0.635868 0.24649 0.634141 0.247829 0.626639 0.24649 0.634141 0.241927 0.636012 0.248797 0.645436 0.244986 0.647031 0.248797 0.645436 0.258406 0.646104 0.252052 0.650934 0.282096 0.801694 0.362796 1.02609 0.158856 0.992068 0.282096 0.801694 0.420762 0.676776 0.408872 0.673832 0.416134 0.668288 0.407378 0.73072 0.413854 0.729349 0.410766 0.72831 0.402113 0.724586 0.404776 0.720184 0.402113 0.70159 0.41279 0.715151 0.41431 0.699959 0.42123 0.706027 0.418115 0.723107 0.430816 0.663747 0.430816 0.671529 0.452389 0.665677 0.430816 0.655119 0.452389 0.665677 0.443676 0.673352 0.430816 0.674435 0.443676 0.673352 0.449849 0.668212 0.420165 0.692223 0.420762 0.676776 0.416134 0.668288 0.408872 0.673832 0.407378 0.73072 0.410766 0.72831 0.413854 0.729349 0.402113 0.724586 0.404776 0.720184 0.41279 0.715151 0.41431 0.699959 0.42123 0.706027 0.418115 0.723107 0.449849 0.668212 0.420165 0.692223 -0.016803 -0.436779 0.194318 -0.661671 0.206593 -0.473254 0.229288 -0.373781 0.206593 -0.473254 0.229288 -0.373781 0.303544 -0.316769 0.317039 -0.32674 0.324659 -0.315432 0.2875 -0.321651 0.286303 -0.298559 0.290176 -0.289143 0.290176 -0.289143 0.303544 -0.316769 0.317039 -0.32674 0.2875 -0.321651 0.286303 -0.298559 0.274867 -0.300275 0.301403 -0.338935 0.301403 -0.338935 0.274867 -0.300275 0.299333 -0.24672 0.294242 -0.247525 0.296444 -0.249336 0.29742 -0.244677 0.298864 -0.245573 0.303671 -0.247502 0.30362 -0.245375 0.304571 -0.245335 0.304633 -0.247493 0.304633 -0.24536 0.303671 -0.243331 0.304633 -0.241267 0.304633 -0.24104 0.303671 -0.241016 0.298864 -0.240897 0.292285 -0.239351 0.291765 -0.243373 0.297797 -0.241528 0.298864 -0.241382 0.293087 -0.24199 0.474602 0.631889 0.568491 0.624691 0.529658 0.536147 0.478787 0.53821 0.322187 0.642667 0.324797 0.465994 0.500353 0.461231 0.531315 0.492162 0.587901 0.45978 0.709069 0.601543 0.699979 0.492276 0.417294 0.784463 0.442567 0.790052 0.391881 0.759741 0.392021 0.778873 0.401387 0.737967 0.420354 0.729368 0.445824 0.742898 1.4438 -1.31394 1.42216 -1.28398 1.59571 -1.28946 1.53947 -1.23859 1.48323 -1.18772 1.3616 -1.1835 0.588485 0.726754 0.503219 0.719688 0.485067 0.801615 0.561352 0.705295 0.486765 0.716174 0.446593 0.768075 0.647567 0.780782 0.575858 0.82715</float_array>
          <technique_common>
            <accessor source="#GeometrySource6-array" count="402" stride="2">
              <param name="S" type="float"/>
              <param name="T" type="float"/>
            </accessor>
          </technique_common>
        </source>
        <source id="GeometrySource7" name="mesh_1_Clr">
          <float_array id="GeometrySource7-array" count="1608">1 1 1 1 0.505882 0.505882 0.505882 1 0.505882 0.505882 0.505882 1 1 1 1 1 0.505882 0.505882 0.505882 1 0.505882 0.505882 0.505882 1 1 1 1 1 0.505882 0.505882 0.505882 1 1 1 1 1 0.219608 0.219608 0.219608 1 0.505882 0.505882 0.505882 1 0.992157 0.992157 0.992157 1 0.505882 0.505882 0.505882 1 0 0 0 1 0.14902 0.270588 0.129412 1 0.14902 0.270588 0.129412 1 0.14902 0.270588 0.129412 1 0.505882 0.65098 0.478431 1 0.505882 0.65098 0.478431 1 0 0 0 1 0.607843 0.607843 0.607843 1 0.701961 0.701961 0.701961 1 0.607843 0.607843 0.607843 1 0.701961 0.701961 0.701961 1 1 1 1 1 1 1 1 1 0.607843 0.607843 0.607843 1 0.47451 0.545098 0.462745 1 0.803922 0.803922 0.803922 1 1 1 1 1 0.466667 0.466667 0.466667 1 0.8 0.8 0.8 1 0.337255 0.337255 0.337255 1 0.247059 0.247059 0.247059 1 0.843137 0.843137 0.843137 1 0.803922 0.803922 0.803922 1 0.466667 0.466667 0.466667 1 0.8 0.8 0.8 1 1 1 1 1 0.47451 0.545098 0.462745 1 1 1 1 1 0.607843 0.607843 0.607843 1 1 1 1 1 1 0.929412 0.929412 1 1 0.929412 0.929412 1 1 0.819608 0.819608 1 0.588235 0.298039 0.298039 1 0.588235 0.298039 0.298039 1 1 0.929412 0.929412 1 1 0.819608 0.819608 1 0.588235 0.298039 0.298039 1 0.588235 0.298039 0.298039 1 0.984314 0.694118 0.694118 1 0.588235 0.298039 0.298039 1 0.588235 0.298039 0.298039 1 1 1 1 1 0 0 0 1 0.505882 0.505882 0.505882 1 0.219608 0.219608 0.219608 1 0.580392 0.580392 0.580392 1 0.282353 0.282353 0.282353 1 0.580392 0.580392 0.580392 1 1 1 1 1 1 1 1 1 1 1 1 1 1 1 1 1 0.913725 0.913725 0.913725 1 1 1 1 1 0.67451 0.67451 0.67451 1 1 1 1 1 0.121569 0 0 1 0.443137 0.317647 0.317647 1 0.121569 0 0 1 0.654902 0.654902 0.654902 1 0.454902 0.454902 0.454902 1 0.454902 0.454902 0.454902 1 0.454902 0.454902 0.454902 1 0.454902 0.454902 0.454902 1 0 0 0 1 0.866667 0.866667 0.866667 1 0.368627 0.368627 0.368627 1 1 1 1 1 1 1 1 1 0.705882 0.705882 0.705882 1 0.003921 0.003921 0.003921 1 0.866667 0.866667 0.866667 1 1 1 1 1 0.368627 0.368627 0.368627 1 0.705882 0.705882 0.705882 1 1 1 1 1 0.176471 0.286274 0.156863 1 0.176471 0.286274 0.156863 1 0.505882 0.505882 0.505882 1 0.505882 0.505882 0.505882 1 0.176471 0.286274 0.156863 1 1 1 1 1 0.176471 0.286274 0.156863 1 1 1 1 1 1 1 1 1 1 1 1 1 1 1 1 1 1 1 1 1 0.901961 0.901961 0.901961 1 1 1 1 1 0.670588 0.670588 0.670588 1 1 1 1 1 0.121569 0 0 1 0.443137 0.317647 0.317647 1 0.121569 0 0 1 0.678431 0.678431 0.678431 1 0.454902 0.454902 0.454902 1 0.454902 0.454902 0.454902 1 0.454902 0.454902 0.454902 1 0.454902 0.454902 0.454902 1 0 0 0 1 0.376471 0.376471 0.376471 1 0.866667 0.866667 0.866667 1 1 1 1 1 1 1 1 1 0.705882 0.705882 0.705882 1 0.003921 0.003921 0.003921 1 1 1 1 1 0.866667 0.866667 0.866667 1 0.376471 0.376471 0.376471 1 0.705882 0.705882 0.705882 1 1 1 1 1 0.176471 0.286274 0.156863 1 0.505882 0.505882 0.505882 1 0.176471 0.286274 0.156863 1 0.505882 0.505882 0.505882 1 0.176471 0.286274 0.156863 1 1 1 1 1 0.176471 0.286274 0.156863 1 1 1 1 1 0.992157 0.992157 0.992157 1 0.505882 0.505882 0.505882 1 1 1 1 1 0.505882 0.505882 0.505882 1 1 1 1 1 0.47451 0.545098 0.462745 1 0.427451 0.52549 0.407843 1 1 1 1 1 1 1 1 1 0.929412 0.929412 0.929412 1 0.929412 0.929412 0.929412 1 0.556863 0.658823 0.541176 1 0.556863 0.658823 0.541176 1 0.556863 0.658823 0.541176 1 0.929412 0.929412 0.929412 1 0.556863 0.658823 0.541176 1 0.556863 0.658823 0.541176 1 0.929412 0.929412 0.929412 1 1 1 1 1 0.14902 0.270588 0.129412 1 0.505882 0.65098 0.478431 1 1 1 1 1 1 1 1 1 0.607843 0.607843 0.607843 1 1 1 1 1 0.380392 0.478431 0.364706 1 1 1 1 1 1 1 1 1 1 1 1 1 1 1 1 1 1 1 1 1 1 1 1 1 1 1 1 1 0.556863 0.658823 0.541176 1 0.556863 0.658823 0.541176 1 1 1 1 1 0.556863 0.658823 0.541176 1 1 1 1 1 0.556863 0.658823 0.541176 1 0.556863 0.658823 0.541176 1 0.984314 0.984314 0.984314 1 1 1 1 1 0.556863 0.658823 0.541176 1 0.556863 0.658823 0.541176 1 1 1 1 1 1 1 1 1 1 1 1 1 1 1 1 1 1 1 1 1 0.984314 0.984314 0.984314 1 0.945098 0.945098 0.945098 1 1 1 1 1 0.556863 0.658823 0.541176 1 0.556863 0.658823 0.541176 1 1 1 1 1 1 1 1 1 0.701961 0.701961 0.701961 1 0.635294 0.635294 0.635294 1 1 1 1 1 0.909804 0.909804 0.909804 1 1 1 1 1 1 1 1 1 0.858823 0.858823 0.858823 1 0.541176 0.541176 0.541176 1 0.521569 0.521569 0.521569 1 0.560784 0.560784 0.560784 1 0.458824 0.458824 0.458824 1 0 0 0 1 0.309804 0.309804 0.309804 1 0.909804 0.909804 0.909804 1 0 0 0 1 0 0 0 1 0.219608 0.219608 0.219608 1 0.701961 0.701961 0.701961 1 0.635294 0.635294 0.635294 1 0.231373 0.231373 0.231373 1 0.423529 0.423529 0.423529 1 0.521569 0.521569 0.521569 1 0.560784 0.560784 0.560784 1 0.521569 0.521569 0.521569 1 0.258824 0.258824 0.258824 1 0.643137 0.643137 0.643137 1 0.219608 0.219608 0.219608 1 0.701961 0.701961 0.701961 1 0 0 0 1 0 0 0 1 0.309804 0.309804 0.309804 1 0.309804 0.309804 0.309804 1 0.309804 0.309804 0.309804 1 0.909804 0.909804 0.909804 1 0.423529 0.423529 0.423529 1 1 1 1 1 0.388235 0.392157 0.392157 1 1 1 1 1 1 1 1 1 1 1 1 1 0.909804 0.909804 0.909804 1 0.701961 0.701961 0.701961 1 1 1 1 1 0.643137 0.643137 0.643137 1 0.909804 0.909804 0.909804 1 1 1 1 1 1 1 1 1 0.913725 0.913725 0.913725 1 0.545098 0.545098 0.545098 1 0.521569 0.521569 0.521569 1 0.309804 0.309804 0.309804 1 0.909804 0.909804 0.909804 1 1 1 1 1 0.811765 0.811765 0.811765 1 0.411765 0.192157 0.192157 1 1 1 1 1 1 1 1 1 0.866667 0.866667 0.866667 1 0.411765 0.192157 0.192157 1 1 1 1 1 0.854902 0.854902 0.854902 1 0.517647 0.294118 0.294118 1 1 1 1 1 0.721569 0.721569 0.721569 1 0.643137 0.643137 0.643137 1 0.517647 0.294118 0.294118 1 0.976471 0.976471 0.976471 1 0.4 0.4 0.4 1 0.411765 0.192157 0.192157 1 1 1 1 1 1 1 1 1 0.811765 0.811765 0.811765 1 0.411765 0.192157 0.192157 1 0.701961 0.701961 0.701961 1 0.901961 0.901961 0.901961 1 0.72549 0.72549 0.72549 1 0.72549 0.72549 0.72549 1 1 1 1 1 0.701961 0.701961 0.701961 1 0.866667 0.866667 0.866667 1 0.372549 0.372549 0.372549 1 0 0 0 1 0 0 0 1 0.505882 0.505882 0.505882 1 0.505882 0.505882 0.505882 1 0.372549 0.372549 0.372549 1 0 0 0 1 0.701961 0.701961 0.701961 1 0.866667 0.866667 0.866667 1 1 1 1 1 1 1 1 1 1 1 1 1 1 1 1 1 1 1 1 1 1 1 1 1 1 1 1 1 1 1 1 1 1 1 1 1 1 1 1 1 1 1 1 1 1 1 1 1 1 1 1 1 0.776471 0.776471 0.776471 1 0.701961 0.701961 0.701961 1 0.909804 0.909804 0.909804 1 1 1 1 1 1 1 1 1 1 1 1 1 0.596079 0.596079 0.596079 1 0.992157 0.992157 0.992157 1 0.494118 0.494118 0.494118 1 1 1 1 1 0.615686 0.690196 0.615686 1 1 1 1 1 1 1 1 1 0.384314 0.384314 0.384314 1 0.431373 0.431373 0.431373 1 1 1 1 1 0.388235 0.392157 0.392157 1 1 1 1 1 0.615686 0.690196 0.615686 1 0.494118 0.494118 0.494118 1 0.615686 0.690196 0.615686 1 0.909804 0.909804 0.909804 1 0.909804 0.909804 0.909804 1 0.776471 0.776471 0.776471 1 0.909804 0.909804 0.909804 1 0.701961 0.701961 0.701961 1 1 1 1 1 1 1 1 1 1 1 1 1 0.596079 0.596079 0.596079 1 0.992157 0.992157 0.992157 1 1 1 1 1 0.615686 0.690196 0.615686 1 1 1 1 1 1 1 1 1 0.909804 0.909804 0.909804 1 0.909804 0.909804 0.909804 1 0.337255 0.337255 0.337255 1 1 1 1 1 1 1 1 1 0.8 0.8 0.8 1 1 1 1 1 0.8 0.8 0.8 1 0.94902 0.94902 0.94902 1 1 1 1 1 1 1 1 1 1 1 1 1 0.427451 0.52549 0.407843 1 0.505882 0.65098 0.478431 1 0.505882 0.65098 0.478431 1 0.945098 0.945098 0.945098 1 1 1 1 1 1 1 1 1 0.427451 0.52549 0.407843 1 0.47451 0.545098 0.462745 1 0.8 0.8 0.8 1 0.8 0.8 0.8 1 0.47451 0.545098 0.462745 1 1 1 1 1 0.427451 0.52549 0.407843 1 0.47451 0.545098 0.462745 1 1 1 1 1 0.992157 0.992157 0.992157 1 0.929412 0.929412 0.929412 1 0.929412 0.929412 0.929412 1 0.556863 0.658823 0.541176 1 0.556863 0.658823 0.541176 1 0.556863 0.658823 0.541176 1 0.929412 0.929412 0.929412 1 0.556863 0.658823 0.541176 1 0.556863 0.658823 0.541176 1 0.929412 0.929412 0.929412 1 1 1 1 1 0.14902 0.270588 0.129412 1 0.505882 0.65098 0.478431 1 1 1 1 1 1 1 1 1 0.607843 0.607843 0.607843 1 1 1 1 1 1 1 1 1 0.380392 0.478431 0.364706 1 1 1 1 1 1 1 1 1 1 1 1 1 1 1 1 1 1 1 1 1 1 1 1 1 0.556863 0.658823 0.541176 1 0.556863 0.658823 0.541176 1 1 1 1 1 1 1 1 1 0.556863 0.658823 0.541176 1 0.556863 0.658823 0.541176 1 0.556863 0.658823 0.541176 1 0.984314 0.984314 0.984314 1 1 1 1 1 0.556863 0.658823 0.541176 1 1 1 1 1 0.556863 0.658823 0.541176 1 1 1 1 1 1 1 1 1 1 1 1 1 1 1 1 1 0.945098 0.945098 0.945098 1 0.984314 0.984314 0.984314 1 1 1 1 1 0.556863 0.658823 0.541176 1 0.556863 0.658823 0.541176 1 1 1 1 1 1 1 1 1</float_array>
          <technique_common>
            <accessor source="#GeometrySource7-array" count="402" stride="4">
              <param name="R" type="float"/>
              <param name="G" type="float"/>
              <param name="B" type="float"/>
              <param name="A" type="float"/>
            </accessor>
          </technique_common>
        </source>
        <vertices id="Geometry1-vertices">
          <input semantic="POSITION" source="#GeometrySource4"/>
          <input semantic="NORMAL" source="#GeometrySource5"/>
          <input semantic="TEXCOORD" source="#GeometrySource6"/>
          <input semantic="COLOR" source="#GeometrySource7"/>
        </vertices>
        <triangles material="VisualMaterial10" count="444">
          <input semantic="VERTEX" source="#Geometry1-vertices" offset="0"/>
          <p>0 1 2 0 3 1 3 4 1 5 4 3 6 5 3 7 5 6 8 9 10 11 9 8 11 12 9 13 14 15 15 16 13 16 15 17 14 18 15 15 18 17 19 20 14 20 19 21 22 21 19 19 16 22 23 24 25 23 25 26 25 27 26 24 28 25 27 25 28 27 28 29 30 29 28 29 30 31 30 32 31 33 30 28 30 33 32 33 28 34 24 34 28 33 34 35 24 35 34 36 32 33 33 35 36 36 37 32 38 37 36 36 35 38 39 38 35 23 40 24 39 35 40 24 40 35 23 41 40 40 41 39 42 43 44 44 45 42 44 46 45 47 46 44 43 47 44 42 48 43 43 48 47 48 42 49 48 50 47 48 49 50 49 51 50 52 42 45 52 49 42 51 49 52 53 51 52 53 52 54 46 54 45 52 45 54 55 56 57 55 57 58 58 59 55 55 59 56 60 56 59 60 59 58 60 61 56 60 58 61 62 57 56 62 56 61 62 58 57 58 62 61 63 64 65 63 65 66 67 63 66 68 67 66 69 67 68 69 68 70 69 71 64 70 71 69 65 64 72 71 72 64 71 70 72 72 73 65 72 70 73 68 73 70 68 66 73 66 65 73 74 75 76 74 76 77 78 79 80 78 81 79 81 78 82 78 83 82 78 80 83 84 85 86 84 87 85 84 88 87 84 89 88 84 86 89 90 91 92 90 92 93 90 93 94 95 94 93 95 96 94 95 97 96 91 98 92 98 96 97 98 91 96 99 100 101 99 102 100 103 102 99 104 102 103 105 104 103 105 106 104 106 105 107 105 101 107 107 101 108 107 108 106 100 108 101 104 106 109 104 109 102 102 109 100 108 100 109 108 109 106 110 111 112 110 113 111 114 115 116 114 116 117 117 118 114 114 118 119 114 119 115 120 121 122 120 122 123 120 123 124 120 124 125 120 125 121 126 127 128 126 129 127 126 130 129 131 129 130 131 130 132 131 132 133 128 127 134 134 133 132 134 132 128 135 136 137 136 8 137 137 8 10 138 139 140 138 141 139 138 142 141 143 142 138 143 144 142 145 144 143 146 145 143 147 146 143 148 143 138 147 143 148 148 149 147 150 149 148 150 148 151 145 151 144 145 150 151 144 151 152 144 152 142 141 142 152 152 153 141 154 153 152 140 155 138 140 154 155 154 152 155 138 155 156 151 148 156 151 156 152 156 155 152 148 138 156 141 157 139 153 157 141 158 159 160 158 161 159 162 161 158 163 161 162 159 161 164 161 163 164 159 164 165 166 159 165 166 167 159 159 167 160 167 166 168 169 170 171 172 170 169 173 174 170 170 174 175 171 170 175 176 177 178 179 178 177 180 178 179 178 180 181 182 183 184 182 184 185 185 184 186 186 184 187 184 183 187 182 188 183 183 188 189 190 191 192 193 190 192 194 193 192 194 192 195 192 191 196 196 195 192 191 197 196 191 198 197 197 198 199 200 197 199 197 200 201 197 201 202 202 196 197 203 195 196 202 203 196 204 205 206 206 207 204 207 206 208 209 208 206 206 205 209 209 205 210 210 211 209 209 211 208 212 211 210 213 212 210 213 210 214 214 210 205 213 214 215 216 214 205 215 214 216 217 215 216 216 218 217 218 216 205 219 220 221 219 222 220 222 223 220 223 224 220 223 225 224 226 224 225 226 227 224 226 228 227 226 225 229 230 220 224 221 220 230 230 224 227 231 232 233 234 232 231 235 232 234 235 236 232 232 236 237 232 237 233 238 201 200 200 199 238 233 237 238 233 238 239 239 238 199 240 238 237 238 240 201 236 241 237 240 237 241 242 243 244 245 242 244 246 245 244 247 246 244 246 248 245 245 248 242 242 248 243 247 248 246 249 250 251 252 249 251 251 253 252 251 254 253 255 253 254 255 252 253 252 255 249 249 255 250 256 257 258 259 256 258 260 259 258 261 260 258 261 262 260 260 262 259 259 262 256 256 262 257 263 264 265 263 266 264 266 267 264 268 267 266 268 269 267 270 269 268 271 270 268 272 270 271 272 273 270 270 273 269 272 274 273 272 275 274 272 276 275 276 277 275 275 277 278 275 278 274 274 278 279 280 274 279 274 280 273 280 281 273 273 281 269 279 282 280 281 280 282 283 269 281 283 281 282 267 269 283 282 284 283 285 282 279 285 279 278 282 285 284 286 285 278 277 265 286 277 286 278 265 264 286 283 287 267 267 287 264 286 264 287 285 286 287 288 289 290 291 290 289 292 293 294 295 296 297 297 298 295 298 297 299 298 299 300 300 299 301 297 301 299 302 300 301 301 303 302 297 304 301 304 303 301 297 296 304 305 306 307 308 305 307 305 309 306 308 309 305 306 309 310 306 310 311 306 312 307 306 311 312 312 313 307 302 303 314 315 316 317 318 319 320 319 318 321 321 300 322 321 322 319 300 323 322 319 322 323 324 323 300 323 324 325 326 323 325 319 326 320 319 323 326 310 309 327 324 328 325 329 330 331 331 332 329 329 333 330 333 329 334 335 336 337 335 338 336 335 339 338 340 339 335 340 335 341 335 342 341 335 337 342 342 337 343 342 343 344 342 344 345 341 342 345 344 346 345 343 347 344 336 338 348 338 339 349 350 351 352 350 352 353 350 353 354 355 350 354 355 354 356 355 356 357 358 355 357 359 355 358 360 350 355 359 360 355 360 359 361 362 360 361 357 356 363 362 363 360 357 363 362 356 354 364 356 364 363 353 364 354 364 353 365 366 364 365 351 350 367 351 367 366 366 367 364 350 368 367 363 368 360 363 364 368 368 364 367 360 368 350 353 352 369 365 353 369 370 371 372 370 372 373 374 370 373 375 374 373 372 376 373 373 376 375 372 377 376 378 377 372 378 372 379 372 371 379 379 380 378 381 382 383 384 381 383 385 383 386 383 387 386 382 387 383 388 389 390 391 390 389 392 391 389 389 393 392 394 395 396 394 397 395 397 398 395 398 399 395 395 399 396 394 396 400 396 401 400</p>
        </triangles>
      </mesh>
    </geometry>
  </library_geometries>
  <library_controllers>
    <controller id="Controller">
      <skin source="#Geometry">
        <bind_shape_matrix>1 0 0 0 0 1 0 0 0 0 1 0 0 0 0 1</bind_shape_matrix>
        <source id="Controller-joints">
          <Name_array id="Controller-joints-array" count="12">wristL armL2 armL1 wristR armR2 armR1 mouth head spine waist skl_root all_root</Name_array>
          <technique_common>
            <accessor source="#Controller-joints-array" count="12" stride="1">
              <param name="JOINT" type="Name"/>
            </accessor>
          </technique_common>
        </source>
        <source id="Controller-bind_poses">
          <float_array id="Controller-bind_poses-array" count="192">1 0 0 -4.57999 0 1 0 -3.93001 0 0 1 0 0 0 0 1 1 0 0 -2.99999 0 1 0 -3.93001 0 0 1 0 0 0 0 1 1 0 0 -1.69999 0 1 0 -3.93001 0 0 1 0 0 0 0 1 -1 -0.000007 0 -4.57998 -0.000007 1 -0.000002 -3.93001 0 -0.000002 -1 0.000009 0 0 0 1 -1 -0.000007 0 -2.99998 -0.000007 1 -0.000002 -3.93001 0 -0.000002 -1 0.000009 0 0 0 1 -1 -0.000007 0 -1.69998 -0.000007 1 -0.000002 -3.93001 0 -0.000002 -1 0.000009 0 0 0 1 0.000001 -0.507541 0.861628 3.26856 0.000000 0.861628 0.507541 -5.54888 -1 -0.000000 0.000001 -0.000012 0 0 0 1 0 -0.000003 1 0.000017 -1 -0.000003 0 0.000007 0.000003 -1 -0.000003 4.74 0 0 0 1 -0.000003 1 0 -2 -1 -0.000003 0 0.000007 0 0 1 0 0 0 0 1 -0.000003 0 1 0 0 1 0 -1.25 -1 0 -0.000003 0 0 0 0 1 1 0 0 0 0 1 0 0 0 0 1 0 0 0 0 1 1 0 0 0 0 1 0 0 0 0 1 0 0 0 0 1</float_array>
          <technique_common>
            <accessor source="#Controller-bind_poses-array" count="12" stride="16">
              <param name="TRANSFORM" type="float4x4"/>
            </accessor>
          </technique_common>
        </source>
        <source id="Controller-weights">
          <float_array id="Controller-weights-array" count="1">1</float_array>
          <technique_common>
            <accessor source="#Controller-weights-array" count="1" stride="1">
              <param name="WEIGHT" type="float"/>
            </accessor>
          </technique_common>
        </source>
        <joints>
          <input semantic="JOINT" source="#Controller-joints"/>
          <input semantic="INV_BIND_MATRIX" source="#Controller-bind_poses"/>
        </joints>
        <vertex_weights count="26">
          <input semantic="JOINT" source="#Controller-joints" offset="0"/>
          <input semantic="WEIGHT" source="#Controller-weights" offset="1"/>
          <vcount>1 1 1 1 1 1 1 1 1 1 1 1 1 1 1 1 1 1 1 1 1 1 1 1 1 1 </vcount>
          <v>7 0 7 0 7 0 7 0 7 0 7 0 7 0 7 0 7 0 7 0 7 0 7 0 7 0 7 0 7 0 7 0 7 0 7 0 7 0 7 0 7 0 7 0 7 0 7 0 7 0 7 0</v>
        </vertex_weights>
      </skin>
      <extra>
        <technique profile="FCOLLADA">
          <user_properties>SkinController</user_properties>
        </technique>
      </extra>
    </controller>
    <controller id="Controller1">
      <skin source="#Geometry1">
        <bind_shape_matrix>1 0 0 0 0 1 0 0 0 0 1 0 0 0 0 1</bind_shape_matrix>
        <source id="Controller1-joints">
          <Name_array id="Controller1-joints-array" count="12">wristL armL2 armL1 wristR armR2 armR1 mouth head spine waist skl_root all_root</Name_array>
          <technique_common>
            <accessor source="#Controller1-joints-array" count="12" stride="1">
              <param name="JOINT" type="Name"/>
            </accessor>
          </technique_common>
        </source>
        <source id="Controller1-bind_poses">
          <float_array id="Controller1-bind_poses-array" count="192">1 0 0 -4.57999 0 1 0 -3.93001 0 0 1 0 0 0 0 1 1 0 0 -2.99999 0 1 0 -3.93001 0 0 1 0 0 0 0 1 1 0 0 -1.69999 0 1 0 -3.93001 0 0 1 0 0 0 0 1 -1 -0.000007 0 -4.57998 -0.000007 1 -0.000002 -3.93001 0 -0.000002 -1 0.000009 0 0 0 1 -1 -0.000007 0 -2.99998 -0.000007 1 -0.000002 -3.93001 0 -0.000002 -1 0.000009 0 0 0 1 -1 -0.000007 0 -1.69998 -0.000007 1 -0.000002 -3.93001 0 -0.000002 -1 0.000009 0 0 0 1 0.000001 -0.507541 0.861628 3.26856 0.000000 0.861628 0.507541 -5.54888 -1 -0.000000 0.000001 -0.000012 0 0 0 1 0 -0.000003 1 0.000017 -1 -0.000003 0 0.000007 0.000003 -1 -0.000003 4.74 0 0 0 1 -0.000003 1 0 -2 -1 -0.000003 0 0.000007 0 0 1 0 0 0 0 1 -0.000003 0 1 0 0 1 0 -1.25 -1 0 -0.000003 0 0 0 0 1 1 0 0 0 0 1 0 0 0 0 1 0 0 0 0 1 1 0 0 0 0 1 0 0 0 0 1 0 0 0 0 1</float_array>
          <technique_common>
            <accessor source="#Controller1-bind_poses-array" count="12" stride="16">
              <param name="TRANSFORM" type="float4x4"/>
            </accessor>
          </technique_common>
        </source>
        <source id="Controller1-weights">
          <float_array id="Controller1-weights-array" count="1">1</float_array>
          <technique_common>
            <accessor source="#Controller1-weights-array" count="1" stride="1">
              <param name="WEIGHT" type="float"/>
            </accessor>
          </technique_common>
        </source>
        <joints>
          <input semantic="JOINT" source="#Controller1-joints"/>
          <input semantic="INV_BIND_MATRIX" source="#Controller1-bind_poses"/>
        </joints>
        <vertex_weights count="402">
          <input semantic="JOINT" source="#Controller1-joints" offset="0"/>
          <input semantic="WEIGHT" source="#Controller1-weights" offset="1"/>
          <vcount>1 1 1 1 1 1 1 1 1 1 1 1 1 1 1 1 1 1 1 1 1 1 1 1 1 1 1 1 1 1 1 1 1 1 1 1 1 1 1 1 1 1 1 1 1 1 1 1 1 1 1 1 1 1 1 1 1 1 1 1 1 1 1 1 1 1 1 1 1 1 1 1 1 1 1 1 1 1 1 1 1 1 1 1 1 1 1 1 1 1 1 1 1 1 1 1 1 1 1 1 1 1 1 1 1 1 1 1 1 1 1 1 1 1 1 1 1 1 1 1 1 1 1 1 1 1 1 1 1 1 1 1 1 1 1 1 1 1 1 1 1 1 1 1 1 1 1 1 1 1 1 1 1 1 1 1 1 1 1 1 1 1 1 1 1 1 1 1 1 1 1 1 1 1 1 1 1 1 1 1 1 1 1 1 1 1 1 1 1 1 1 1 1 1 1 1 1 1 1 1 1 1 1 1 1 1 1 1 1 1 1 1 1 1 1 1 1 1 1 1 1 1 1 1 1 1 1 1 1 1 1 1 1 1 1 1 1 1 1 1 1 1 1 1 1 1 1 1 1 1 1 1 1 1 1 1 1 1 1 1 1 1 1 1 1 1 1 1 1 1 1 1 1 1 1 1 1 1 1 1 1 1 1 1 1 1 1 1 1 1 1 1 1 1 1 1 1 1 1 1 1 1 1 1 1 1 1 1 1 1 1 1 1 1 1 1 1 1 1 1 1 1 1 1 1 1 1 1 1 1 1 1 1 1 1 1 1 1 1 1 1 1 1 1 1 1 1 1 1 1 1 1 1 1 1 1 1 1 1 1 1 1 1 1 1 1 1 1 1 1 1 1 1 1 1 1 1 1 1 1 1 1 1 1 1 1 1 1 1 1 1 1 1 1 1 1 1 1 1 1 1 1 </vcount>
          <v>9 0 8 0 9 0 9 0 9 0 9 0 9 0 9 0 9 0 8 0 9 0 9 0 9 0 8 0 8 0 8 0 8 0 8 0 8 0 8 0 8 0 8 0 8 0 8 0 8 0 8 0 8 0 8 0 10 0 10 0 10 0 10 0 10 0 10 0 10 0 10 0 10 0 10 0 10 0 8 0 8 0 8 0 8 0 8 0 8 0 8 0 8 0 8 0 8 0 8 0 8 0 8 0 8 0 8 0 8 0 8 0 8 0 8 0 8 0 8 0 8 0 8 0 8 0 9 0 9 0 9 0 9 0 9 0 9 0 9 0 9 0 9 0 9 0 9 0 9 0 9 0 9 0 9 0 9 0 9 0 9 0 9 0 9 0 9 0 9 0 9 0 9 0 9 0 9 0 9 0 9 0 9 0 9 0 9 0 9 0 9 0 9 0 9 0 9 0 9 0 9 0 9 0 9 0 9 0 9 0 9 0 9 0 9 0 9 0 9 0 9 0 9 0 9 0 9 0 9 0 9 0 9 0 9 0 9 0 9 0 9 0 9 0 9 0 9 0 9 0 9 0 9 0 9 0 9 0 9 0 9 0 9 0 9 0 9 0 9 0 9 0 9 0 9 0 2 0 8 0 8 0 2 0 1 0 1 0 1 0 0 0 0 0 0 0 1 0 0 0 0 0 1 0 2 0 8 0 8 0 2 0 1 0 8 0 0 0 0 0 0 0 0 0 0 0 0 0 0 0 0 0 0 0 0 0 0 0 0 0 0 0 0 0 0 0 0 0 0 0 0 0 0 0 0 0 0 0 0 0 0 0 0 0 0 0 0 0 0 0 0 0 0 0 0 0 0 0 0 0 7 0 6 0 7 0 7 0 7 0 7 0 6 0 6 0 6 0 6 0 6 0 7 0 6 0 7 0 7 0 7 0 6 0 7 0 6 0 6 0 6 0 6 0 6 0 6 0 6 0 6 0 6 0 7 0 7 0 7 0 7 0 6 0 6 0 7 0 7 0 7 0 7 0 7 0 7 0 7 0 7 0 7 0 7 0 6 0 7 0 7 0 7 0 6 0 6 0 6 0 6 0 7 0 7 0 7 0 7 0 7 0 7 0 7 0 7 0 7 0 7 0 7 0 7 0 7 0 7 0 7 0 7 0 7 0 7 0 7 0 7 0 7 0 7 0 7 0 7 0 7 0 7 0 7 0 7 0 7 0 7 0 7 0 7 0 7 0 7 0 7 0 7 0 7 0 7 0 7 0 7 0 7 0 7 0 7 0 7 0 7 0 7 0 7 0 7 0 7 0 7 0 7 0 7 0 7 0 7 0 7 0 7 0 7 0 7 0 7 0 7 0 7 0 7 0 7 0 7 0 7 0 7 0 7 0 7 0 7 0 7 0 7 0 7 0 7 0 7 0 7 0 7 0 7 0 7 0 7 0 7 0 7 0 7 0 7 0 7 0 7 0 7 0 7 0 7 0 10 0 10 0 10 0 10 0 10 0 10 0 10 0 10 0 10 0 10 0 8 0 8 0 8 0 10 0 10 0 10 0 8 0 8 0 10 0 10 0 8 0 5 0 8 0 8 0 5 0 4 0 4 0 4 0 3 0 3 0 3 0 4 0 3 0 3 0 4 0 5 0 8 0 8 0 5 0 4 0 8 0 3 0 3 0 3 0 3 0 3 0 3 0 3 0 3 0 3 0 3 0 3 0 3 0 3 0 3 0 3 0 3 0 3 0 3 0 3 0 3 0 3 0 3 0 3 0 3 0 3 0 3 0 3 0 3 0 3 0 3 0 3 0 3 0</v>
        </vertex_weights>
      </skin>
      <extra>
        <technique profile="FCOLLADA">
          <user_properties>SkinController</user_properties>
        </technique>
      </extra>
    </controller>
  </library_controllers>
  <library_visual_scenes>
    <visual_scene id="VisualSceneNode" name="rdmscene">
      <node id="VisualSceneNode1" name="all_root" sid="all_root" type="JOINT">
        <matrix>1 0 0 0 0 1 0 0 0 0 1 0 0 0 0 1</matrix>
        <node id="VisualSceneNode2" name="skl_root" sid="skl_root" type="JOINT">
          <matrix>1 0 0 0 0 1 0 0 0 0 1 0 0 0 0 1</matrix>
          <node id="VisualSceneNode3" name="spine" sid="spine" type="JOINT">
            <matrix>-0.000003 -1 0 0 1 -0.000003 0 2 0 0 1 0 0 0 0 1</matrix>
            <node id="VisualSceneNode4" name="armL1" sid="armL1" type="JOINT">
              <matrix>-0.000003 1 0 1.93 -1 -0.000003 0 -1.7 0 0 1 0 0 0 0 1</matrix>
              <node id="VisualSceneNode5" name="armL2" sid="armL2" type="JOINT">
                <matrix>1 0 0 1.3 0 1 0 0 0 0 1 0 0 0 0 1</matrix>
                <node id="VisualSceneNode6" name="wristL" sid="wristL" type="JOINT">
                  <matrix>1 0 0 1.58 0 1 0 0 0 0 1 0 0 0 0 1</matrix>
                </node>
              </node>
            </node>
            <node id="VisualSceneNode7" name="armR1" sid="armR1" type="JOINT">
              <matrix>-0.000003 1 -0.000002 1.93 1 0.000003 0 1.7 0 -0.000002 -1 0 0 0 0 1</matrix>
              <node id="VisualSceneNode8" name="armR2" sid="armR2" type="JOINT">
                <matrix>1 0 0 1.3 0 1 0 0 0 0 1 0 0 0 0 1</matrix>
                <node id="VisualSceneNode9" name="wristR" sid="wristR" type="JOINT">
                  <matrix>1 0 0 1.58 0 1 0 0 0 0 1 0 0 0 0 1</matrix>
                </node>
              </node>
            </node>
            <node id="VisualSceneNode10" name="head" sid="head" type="JOINT">
              <matrix>-0.000003 0 -1 2.74 0 1 0 0 1 0 -0.000003 0 0 0 0 1</matrix>
              <node id="VisualSceneNode11" name="mouth" sid="mouth" type="JOINT">
                <matrix>0.861629 0.507538 0.000001 0 0 -0.000003 1 0 0.507538 -0.861629 -0.000003 -1.7 0 0 0 1</matrix>
              </node>
            </node>
          </node>
          <node id="VisualSceneNode12" name="waist" sid="waist" type="JOINT">
            <matrix>-0.000003 0 -1 0 0 1 0 1.25 1 0 -0.000003 0 0 0 0 1</matrix>
          </node>
        </node>
      </node>
      <node id="VisualSceneNode13" name="mesh_0_" type="NODE">
        <matrix>1 0 0 0 0 1 0 0 0 0 1 0 0 0 0 1</matrix>
        <instance_controller url="#Controller">
          <skeleton>#VisualSceneNode1</skeleton>
          <bind_material>
            <technique_common>
              <instance_material symbol="VisualMaterial0" target="#VisualMaterial"/>
            </technique_common>
          </bind_material>
        </instance_controller>
      </node>
      <node id="VisualSceneNode14" name="mesh_1_" type="NODE">
        <matrix>1 0 0 0 0 1 0 0 0 0 1 0 0 0 0 1</matrix>
        <instance_controller url="#Controller1">
          <skeleton>#VisualSceneNode1</skeleton>
          <bind_material>
            <technique_common>
              <instance_material symbol="VisualMaterial10" target="#VisualMaterial1"/>
            </technique_common>
          </bind_material>
        </instance_controller>
      </node>
    </visual_scene>
  </library_visual_scenes>
  <scene>
    <instance_visual_scene url="#VisualSceneNode"/>
  </scene>
</COLLADA>
