<?xml version="1.0"?>
<COLLADA xmlns:xsi="http://www.w3.org/2001/XMLSchema-instance" xmlns:xsd="http://www.w3.org/2001/XMLSchema" version="1.4.1" xmlns="http://www.collada.org/2005/11/COLLADASchema">
  <asset>
    <created>2022-09-13T10:51:08.5488391-05:00</created>
    <modified>2022-09-13T10:51:08.5488391-05:00</modified>
  </asset>
  <library_images>
    <image id="tire_std_default_color">
      <init_from>./tire_std_default_color.png</init_from>
    </image>
    <image id="tire_std_nmap">
      <init_from>./tire_std_nmap.png</init_from>
    </image>
  </library_images>
  <library_materials>
    <material id="mat_tire_std_mat_id" name="mat_tire_std_mat">
      <instance_effect url="#mat_tire_std_eff_id" />
    </material>
  </library_materials>
  <library_effects>
    <effect id="mat_tire_std_eff_id" name="mat_tire_std_eff">
      <profile_COMMON>
        <newparam sid="mat_tire_std_surf">
          <surface type="2D">
            <init_from>tire_std_default_color</init_from>
            <format>PNG</format>
          </surface>
        </newparam>
        <newparam sid="mat_tire_std_samp">
          <sampler2D>
            <source>mat_tire_std_surf</source>
            <wrap_s>WRAP</wrap_s>
            <wrap_t>WRAP</wrap_t>
            <minfilter>LINEAR_MIPMAP_NEAREST</minfilter>
            <magfilter>LINEAR</magfilter>
            <mipfilter>LINEAR</mipfilter>
          </sampler2D>
        </newparam>
        <technique sid="mat_tire_std_tech">
          <phong>
            <diffuse>
              <texture texture="mat_tire_std_samp" texcoord="uv" />
            </diffuse>
          </phong>
        </technique>
      </profile_COMMON>
    </effect>
  </library_effects>
  <library_geometries>
    <geometry id="_0_0_geo_id" name="_0_0">
      <mesh>
        <source id="_0_0_Position_id" name="_0_0_Position">
          <float_array id="_0_0_Position_array_id" count="150">1.32 -8.32081E-05 -0.000424385 1 1.10952 -1.10968 1 1.56924 -0.000424379 1 -1.57007 -0.000424379 1 -1.10968 -1.10968 -1.32 -8.32081E-05 -0.000424385 -1 1.10952 1.10949 -1 1.56924 -0.000424342 -1 -1.57007 -0.000424342 -1 -1.10968 1.10949 -1 1.10952 -1.10968 -1 1.56924 -0.000424342 1 1.10952 -1.10968 1 1.56924 -0.000424379 -1 1.56924 -0.000424342 -1 1.10952 1.10949 1 1.56924 -0.000424379 1 1.10952 1.10949 -1 -8.32081E-05 -1.57008 -1 1.10952 -1.10968 1 -8.32081E-05 -1.57008 1 1.10952 -1.10968 -1 1.10952 1.10949 -1 -8.32081E-05 1.56923 1 1.10952 1.10949 1 -8.32081E-05 1.56923 -1 -1.10968 -1.10968 -1 -8.32081E-05 -1.57008 1 -1.10968 -1.10968 1 -8.32081E-05 -1.57008 -1 -8.32081E-05 1.56923 -1 -1.10968 1.10949 1 -8.32081E-05 1.56923 1 -1.10968 1.10949 -1 -1.57007 -0.000424342 -1 -1.10968 -1.10968 1 -1.57007 -0.000424379 1 -1.10968 -1.10968 -1 -1.10968 1.10949 -1 -1.57007 -0.000424342 1 -1.10968 1.10949 1 -1.57007 -0.000424379 1 1.10952 1.10949 1 -1.10968 1.10949 1 -8.32081E-05 -1.57008 1 -8.32081E-05 1.56923 -1 1.10952 -1.10968 -1 -1.10968 -1.10968 -1 -8.32081E-05 1.56923 -1 -8.32081E-05 -1.57008</float_array>
          <technique_common>
            <accessor source="#_0_0_Position_array_id" count="50" stride="3">
              <param name="X" type="float" />
              <param name="Y" type="float" />
              <param name="Z" type="float" />
            </accessor>
          </technique_common>
        </source>
        <source id="_0_0_Normal_id" name="_0_0_Normal">
          <float_array id="_0_0_Normal_array_id" count="150">1 2.11214E-05 -1.18873E-05 0.656105 0.533742 -0.533522 0.656182 0.754603 -8.0744E-05 0.656278 -0.754519 -8.08202E-05 0.656074 -0.53362 -0.533682 -1 2.11004E-05 -1.18873E-05 -0.656171 0.533625 0.533557 -0.656181 0.754603 -8.07415E-05 -0.656278 -0.754519 -8.08177E-05 -0.65614 -0.533504 0.533717 -0.656105 0.533742 -0.533522 -0.656181 0.754603 -8.07415E-05 0.656105 0.533742 -0.533522 0.656182 0.754603 -8.0744E-05 -0.656181 0.754603 -8.07415E-05 -0.656171 0.533625 0.533557 0.656182 0.754603 -8.0744E-05 0.656171 0.533625 0.533557 -0.656261 0 -0.754534 -0.656105 0.533742 -0.533522 0.656261 0 -0.754534 0.656105 0.533742 -0.533522 -0.656171 0.533625 0.533557 -0.6562 0 0.754587 0.656171 0.533625 0.533557 0.6562 0 0.754587 -0.656074 -0.53362 -0.533682 -0.656261 0 -0.754534 0.656074 -0.53362 -0.533682 0.656261 0 -0.754534 -0.6562 0 0.754587 -0.65614 -0.533504 0.533717 0.6562 0 0.754587 0.65614 -0.533504 0.533717 -0.656278 -0.754519 -8.08177E-05 -0.656074 -0.53362 -0.533682 0.656278 -0.754519 -8.08202E-05 0.656074 -0.53362 -0.533682 -0.65614 -0.533504 0.533717 -0.656278 -0.754519 -8.08177E-05 0.65614 -0.533504 0.533717 0.656278 -0.754519 -8.08202E-05 0.656171 0.533625 0.533557 0.65614 -0.533504 0.533717 0.656261 0 -0.754534 0.6562 0 0.754587 -0.656105 0.533742 -0.533522 -0.656074 -0.53362 -0.533682 -0.6562 0 0.754587 -0.656261 0 -0.754534</float_array>
          <technique_common>
            <accessor source="#_0_0_Normal_array_id" count="50" stride="3">
              <param name="X" type="float" />
              <param name="Y" type="float" />
              <param name="Z" type="float" />
            </accessor>
          </technique_common>
        </source>
        <source id="_0_0_TexCoord0_id" name="_0_0_TexCoord0">
          <float_array id="_0_0_TexCoord0_array_id" count="100">0.25 0.5 0.426777 0.853553 0.25 1 0.25 0 0.426777 0.146447 0.25 0.5 0.426777 0.853553 0.25 1 0.25 0 0.426777 0.146447 0.5 1 0.5 0 1 1 1 0 0.5 1 0.5 0 1 1 1 0 0.5 1 0.5 0 1 1 1 0 0.5 1 0.5 0 1 1 1 0 0.5 1 0.5 0 1 1 1 0 0.5 1 0.5 0 1 1 1 0 0.5 1 0.5 0 1 1 1 0 0.5 1 0.5 0 1 1 1 0 0.0732234 0.853553 0.0732234 0.146446 0.5 0.5 0 0.5 0.0732234 0.853553 0.0732234 0.146446 0.5 0.5 0 0.5</float_array>
          <technique_common>
            <accessor source="#_0_0_TexCoord0_array_id" count="50" stride="2">
              <param name="S" type="float" />
              <param name="T" type="float" />
            </accessor>
          </technique_common>
        </source>
        <source id="_0_0_Tangent_id" name="_0_0_Tangent">
          <float_array id="_0_0_Tangent_array_id" count="150">-1.18861E-05 0 -1 -0.474171 -0.258427 -0.841651 -1.18861E-05 0 -1 -1.18861E-05 0 -1 -0.474204 0.258641 -0.841567 -1.1885E-05 0 1 0.474219 -0.258402 0.841632 -1.1885E-05 0 1 -1.1885E-05 0 1 0.474251 0.258617 0.841548 0.75467 0.464031 -0.463841 0.754603 0.656181 -7.02105E-05 0.75467 -0.464032 0.463841 0.754603 -0.656181 7.02127E-05 0.754603 0.656181 -7.02105E-05 0.754612 0.464013 0.463954 0.754603 -0.656181 7.02127E-05 0.754612 -0.464013 -0.463954 0.754534 0 -0.656261 0.75467 0.464031 -0.463841 0.754534 0 0.656261 0.75467 -0.464032 0.463841 0.754612 0.464013 0.463954 0.754534 0 0.656261 0.754612 -0.464013 -0.463954 0.754534 0 -0.656261 0.754612 -0.464013 -0.463954 0.754534 0 -0.656261 0.754612 0.464013 0.463954 0.754534 0 0.656261 0.754534 0 0.656261 0.75467 -0.464032 0.463841 0.754534 0 -0.656261 0.75467 0.464031 -0.463841 0.754603 -0.656181 7.02127E-05 0.754612 -0.464013 -0.463954 0.754603 0.656181 -7.02105E-05 0.754612 0.464013 0.463954 0.75467 -0.464032 0.463841 0.754603 -0.656181 7.02127E-05 0.75467 0.464031 -0.463841 0.754603 0.656181 -7.02105E-05 0.474219 0.258403 -0.841632 0.474251 -0.258617 -0.841548 -0.754534 0 -0.656261 0.754534 0 -0.656261 -0.474172 0.258427 0.841651 -0.474204 -0.258641 0.841567 0.754534 0 0.656261 -0.754534 0 0.656261</float_array>
          <technique_common>
            <accessor source="#_0_0_Tangent_array_id" count="50" stride="3">
              <param name="X" type="float" />
              <param name="Y" type="float" />
              <param name="Z" type="float" />
            </accessor>
          </technique_common>
        </source>
        <vertices id="_0_0_vtx_id">
          <input semantic="POSITION" source="#_0_0_Position_id" />
          <input semantic="NORMAL" source="#_0_0_Normal_id" />
          <input semantic="TANGENT" source="#_0_0_Tangent_id" />
        </vertices>
        <triangles material="Mdl_4_Mtl_mat_tire_std" count="32">
          <input semantic="VERTEX" source="#_0_0_vtx_id" offset="0" />
          <input semantic="TEXCOORD" source="#_0_0_TexCoord0_id" offset="0" set="0" />
          <p>0 1 2 42 0 2 45 0 42 43 0 45 43 3 0 0 3 4 0 4 44 0 44 1 5 6 7 5 7 46 5 46 49 47 5 49 47 8 5 5 8 9 5 9 48 48 6 5 10 11 12 11 13 12 14 15 16 15 17 16 18 19 20 19 21 20 22 23 24 23 25 24 26 27 28 27 29 28 30 31 32 31 33 32 34 35 36 35 37 36 38 39 40 39 41 40</p>
        </triangles>
      </mesh>
    </geometry>
  </library_geometries>
  <library_visual_scenes>
    <visual_scene id="tire_std_L_04_id" name="tire_std_L_04">
      <node id="_0_0_node_id" name="_0_0_node" type="NODE">
        <matrix>1 0 0 0 0 1 0 0 0 0 1 0 0 0 0 1</matrix>
        <instance_geometry url="#_0_0_geo_id">
          <bind_material>
            <technique_common>
              <instance_material symbol="Mdl_4_Mtl_mat_tire_std" target="#mat_tire_std_mat_id" />
            </technique_common>
          </bind_material>
        </instance_geometry>
      </node>
    </visual_scene>
  </library_visual_scenes>
  <scene>
    <instance_visual_scene url="#tire_std_L_04_id" />
  </scene>
</COLLADA>