<?xml version="1.0"?>
<COLLADA xmlns:xsi="http://www.w3.org/2001/XMLSchema-instance" xmlns:xsd="http://www.w3.org/2001/XMLSchema" version="1.4.1" xmlns="http://www.collada.org/2005/11/COLLADASchema">
  <asset>
    <created>2022-08-26T05:50:03.2649057-05:00</created>
    <modified>2022-08-26T05:50:03.2649057-05:00</modified>
  </asset>
  <library_images>
    <image id="tire_classic_lod">
      <init_from>./tire_classic_lod.png</init_from>
    </image>
  </library_images>
  <library_materials>
    <material id="mat_tire_class_lod_mat_id" name="mat_tire_class_lod_mat">
      <instance_effect url="#mat_tire_class_lod_eff_id" />
    </material>
  </library_materials>
  <library_effects>
    <effect id="mat_tire_class_lod_eff_id" name="mat_tire_class_lod_eff">
      <profile_COMMON>
        <newparam sid="mat_tire_class_lod_surf">
          <surface type="2D">
            <init_from>tire_classic_lod</init_from>
            <format>PNG</format>
          </surface>
        </newparam>
        <newparam sid="mat_tire_class_lod_samp">
          <sampler2D>
            <source>mat_tire_class_lod_surf</source>
            <wrap_s>MIRROR</wrap_s>
            <wrap_t>MIRROR</wrap_t>
            <minfilter>LINEAR_MIPMAP_NEAREST</minfilter>
            <magfilter>LINEAR</magfilter>
            <mipfilter>LINEAR</mipfilter>
          </sampler2D>
        </newparam>
        <technique sid="mat_tire_class_lod_tech">
          <phong>
            <diffuse>
              <texture texture="mat_tire_class_lod_samp" texcoord="uv" />
            </diffuse>
          </phong>
        </technique>
      </profile_COMMON>
    </effect>
  </library_effects>
  <library_geometries>
    <geometry id="_0_0_geo_id" name="_0_0">
      <mesh>
        <source id="_0_0_Position_id" name="_0_0_Position">
          <float_array id="_0_0_Position_array_id" count="66">1.088489 0 3.243313 -1.088505 1.75413 3.038247 -1.088505 -1.75413 3.038247 -1.088489 1.75413 -3.038253 -1.088497 3.50827 -2.759538E-06 1.088497 3.47498 2.759538E-06 1.088505 0 -3.243307 -1.088489 -1.75413 -3.038253 -1.088505 -1.75413 3.038247 -1.088497 -3.50827 -2.759538E-06 1.088497 -3.47498 2.759538E-06 1.088497 -3.47498 2.759538E-06 1.088505 0 -3.243307 1.088497 3.47498 2.759538E-06 -1.088489 1.75413 -3.038253 -1.088505 1.75413 3.038247 -1.088497 3.50827 -2.759538E-06 -1.088489 -1.75413 -3.038253 -1.088505 -1.75413 3.038247 -1.088497 -3.50827 -2.759538E-06 1.088489 0 3.243313 1.088489 0 3.243313</float_array>
          <technique_common>
            <accessor source="#_0_0_Position_array_id" count="22" stride="3">
              <param name="X" type="float" />
              <param name="Y" type="float" />
              <param name="Z" type="float" />
            </accessor>
          </technique_common>
        </source>
        <source id="_0_0_Normal_id" name="_0_0_Normal">
          <float_array id="_0_0_Normal_array_id" count="66">0.5836399 0 0.8120126 -0.6666723 0.4215879 0.6146639 -0.4834376 -0.4951342 0.7218935 -0.4834339 0.4951342 -0.7218959 -0.4448476 0.8956062 -1.12777E-06 0.6699566 0.7424002 1.698462E-06 0.583644 0 -0.8120096 -0.6666695 -0.4215882 -0.6146666 -0.4834376 -0.4951342 0.7218935 -0.4448476 -0.8956062 -1.12777E-06 0.6699566 -0.7424002 1.698462E-06 0.6699566 -0.7424002 1.698462E-06 0.583644 0 -0.8120096 0.6699566 0.7424002 1.698462E-06 -0.4834339 0.4951342 -0.7218959 -0.6666723 0.4215879 0.6146639 -0.4448476 0.8956062 -1.12777E-06 -0.6666695 -0.4215882 -0.6146666 -0.4834376 -0.4951342 0.7218935 -0.4448476 -0.8956062 -1.12777E-06 0.5836399 0 0.8120126 0.5836399 0 0.8120126</float_array>
          <technique_common>
            <accessor source="#_0_0_Normal_array_id" count="22" stride="3">
              <param name="X" type="float" />
              <param name="Y" type="float" />
              <param name="Z" type="float" />
            </accessor>
          </technique_common>
        </source>
        <source id="_0_0_TexCoord0_id" name="_0_0_TexCoord0">
          <float_array id="_0_0_TexCoord0_array_id" count="44">0.987963 3.16126 0.511543 2.74186 0.511543 3.56817 0.511543 1.08925 0.511543 1.91556 0.987963 1.98594 0.987963 0.792594 0.511543 0.262939 0.511543 -1.38968 0.511543 -0.563372 0.987963 -0.424254 0.25 -0.0524248 -0.0262124 0.5 0.25 1.05242 0.0136907 0.759643 0.486309 0.759643 0.25 1.01929 0.0136907 0.240357 0.486309 0.240357 0.25 -0.0192856 0.526212 0.5 0.987963 -1.7966</float_array>
          <technique_common>
            <accessor source="#_0_0_TexCoord0_array_id" count="22" stride="2">
              <param name="S" type="float" />
              <param name="T" type="float" />
            </accessor>
          </technique_common>
        </source>
        <vertices id="_0_0_vtx_id">
          <input semantic="POSITION" source="#_0_0_Position_id" />
          <input semantic="NORMAL" source="#_0_0_Normal_id" />
        </vertices>
        <triangles material="Mdl_5_Mtl_mat_tire_class_lod" count="16">
          <input semantic="VERTEX" source="#_0_0_vtx_id" offset="0" />
          <input semantic="TEXCOORD" source="#_0_0_TexCoord0_id" offset="0" set="0" />
          <p>0 1 2 0 5 1 4 1 5 3 4 5 3 5 6 6 7 3 6 10 7 9 7 10 8 9 10 8 10 21 11 12 13 11 13 20 14 15 16 17 15 14 17 18 15 19 18 17</p>
        </triangles>
      </mesh>
    </geometry>
  </library_geometries>
  <library_visual_scenes>
    <visual_scene id="tire_classic_R_lod_05_id" name="tire_classic_R_lod_05">
      <node id="_0_0_node_id" name="_0_0_node" type="NODE">
        <matrix>1 0 0 0 0 1 0 0 0 0 1 0 0 0 0 1</matrix>
        <instance_geometry url="#_0_0_geo_id">
          <bind_material>
            <technique_common>
              <instance_material symbol="Mdl_5_Mtl_mat_tire_class_lod" target="#mat_tire_class_lod_mat_id" />
            </technique_common>
          </bind_material>
        </instance_geometry>
      </node>
    </visual_scene>
  </library_visual_scenes>
  <scene>
    <instance_visual_scene url="#tire_classic_R_lod_05_id" />
  </scene>
</COLLADA>