<?xml version="1.0"?>
<COLLADA xmlns:xsi="http://www.w3.org/2001/XMLSchema-instance" xmlns:xsd="http://www.w3.org/2001/XMLSchema" version="1.4.1" xmlns="http://www.collada.org/2005/11/COLLADASchema">
  <asset>
    <created>2022-08-26T05:48:23.6433736-05:00</created>
    <modified>2022-08-26T05:48:23.6433736-05:00</modified>
  </asset>
  <library_images>
    <image id="tire_classic_color">
      <init_from>./tire_classic_color.png</init_from>
    </image>
    <image id="tire_classic_nmap">
      <init_from>./tire_classic_nmap.png</init_from>
    </image>
  </library_images>
  <library_materials>
    <material id="mat_tire_classic_mat_id" name="mat_tire_classic_mat">
      <instance_effect url="#mat_tire_classic_eff_id" />
    </material>
  </library_materials>
  <library_effects>
    <effect id="mat_tire_classic_eff_id" name="mat_tire_classic_eff">
      <profile_COMMON>
        <newparam sid="mat_tire_classic_surf">
          <surface type="2D">
            <init_from>tire_classic_color</init_from>
            <format>PNG</format>
          </surface>
        </newparam>
        <newparam sid="mat_tire_classic_samp">
          <sampler2D>
            <source>mat_tire_classic_surf</source>
            <wrap_s>MIRROR</wrap_s>
            <wrap_t>MIRROR</wrap_t>
            <minfilter>LINEAR_MIPMAP_NEAREST</minfilter>
            <magfilter>LINEAR</magfilter>
            <mipfilter>LINEAR</mipfilter>
          </sampler2D>
        </newparam>
        <technique sid="mat_tire_classic_tech">
          <phong>
            <diffuse>
              <texture texture="mat_tire_classic_samp" texcoord="uv" />
            </diffuse>
          </phong>
        </technique>
      </profile_COMMON>
    </effect>
  </library_effects>
  <library_geometries>
    <geometry id="_0_0_geo_id" name="_0_0">
      <mesh>
        <source id="_0_0_Position_id" name="_0_0_Position">
          <float_array id="_0_0_Position_array_id" count="186">0.909667 -2.76641 -2.00992 0.909667 -1.05667 -3.25211 1.35945 0 0 0.909667 1.05668 -3.25211 0.909667 2.76641 -2.00992 0.909667 3.41947 0 0.909667 2.76641 2.00992 0.909667 1.05668 3.25211 0.909667 -1.05668 3.25211 0.909667 -2.76641 2.00992 0.909667 -3.41947 0 -0.909667 -2.76641 -2.00992 -0.909667 -1.05667 -3.25211 0.909667 -2.76641 -2.00992 0.909667 -1.05667 -3.25211 -0.909667 -1.05667 -3.25211 -0.909667 1.05668 -3.25211 0.909667 -1.05667 -3.25211 0.909667 1.05668 -3.25211 -0.909667 1.05668 -3.25211 -0.909667 2.76641 -2.00992 0.909667 1.05668 -3.25211 0.909667 2.76641 -2.00992 -0.909667 2.76641 -2.00992 -0.909667 3.41947 0 0.909667 2.76641 -2.00992 0.909667 3.41947 0 -0.909667 3.41947 0 -0.909667 2.76641 2.00992 0.909667 3.41947 0 0.909667 2.76641 2.00992 -0.909667 2.76641 2.00992 -0.909667 1.05668 3.25211 0.909667 2.76641 2.00992 0.909667 1.05668 3.25211 -0.909667 1.05668 3.25211 -0.909667 -1.05668 3.25211 0.909667 1.05668 3.25211 0.909667 -1.05668 3.25211 -0.909667 -1.05668 3.25211 -0.909667 -2.76641 2.00992 0.909667 -1.05668 3.25211 0.909667 -2.76641 2.00992 -0.909667 -2.76641 2.00992 -0.909667 -3.41947 0 0.909667 -2.76641 2.00992 0.909667 -3.41947 0 -0.909667 -3.41947 0 -0.909667 -2.76641 -2.00992 0.909667 -3.41947 0 0.909667 -2.76641 -2.00992 -0.909667 -1.05667 -3.25211 -0.909667 -2.76641 -2.00992 -1.35945 0 0 -0.909667 1.05668 -3.25211 -0.909667 2.76641 -2.00992 -0.909667 3.41947 0 -0.909667 2.76641 2.00992 -0.909667 1.05668 3.25211 -0.909667 -1.05668 3.25211 -0.909667 -2.76641 2.00992 -0.909667 -3.41947 0</float_array>
          <technique_common>
            <accessor source="#_0_0_Position_array_id" count="62" stride="3">
              <param name="X" type="float" />
              <param name="Y" type="float" />
              <param name="Z" type="float" />
            </accessor>
          </technique_common>
        </source>
        <source id="_0_0_Normal_id" name="_0_0_Normal">
          <float_array id="_0_0_Normal_array_id" count="186">0.675477 -0.596554 -0.433421 0.675477 -0.227863 -0.701291 1 0 0 0.675477 0.227863 -0.701291 0.675477 0.596554 -0.433421 0.675477 0.737381 0 0.675477 0.596554 0.433422 0.675477 0.227863 0.701291 0.675477 -0.227863 0.701291 0.675477 -0.596554 0.433422 0.675477 -0.737381 0 -0.675477 -0.596554 -0.433421 -0.675477 -0.227863 -0.701291 0.675477 -0.596554 -0.433421 0.675477 -0.227863 -0.701291 -0.675477 -0.227863 -0.701291 -0.675477 0.227863 -0.701291 0.675477 -0.227863 -0.701291 0.675477 0.227863 -0.701291 -0.675477 0.227863 -0.701291 -0.675477 0.596554 -0.433421 0.675477 0.227863 -0.701291 0.675477 0.596554 -0.433421 -0.675477 0.596554 -0.433421 -0.675477 0.737381 0 0.675477 0.596554 -0.433421 0.675477 0.737381 0 -0.675477 0.737381 0 -0.675477 0.596554 0.433422 0.675477 0.737381 0 0.675477 0.596554 0.433422 -0.675477 0.596554 0.433422 -0.675477 0.227863 0.701291 0.675477 0.596554 0.433422 0.675477 0.227863 0.701291 -0.675477 0.227863 0.701291 -0.675477 -0.227863 0.701291 0.675477 0.227863 0.701291 0.675477 -0.227863 0.701291 -0.675477 -0.227863 0.701291 -0.675477 -0.596554 0.433421 0.675477 -0.227863 0.701291 0.675477 -0.596554 0.433422 -0.675477 -0.596554 0.433421 -0.675477 -0.737381 0 0.675477 -0.596554 0.433422 0.675477 -0.737381 0 -0.675477 -0.737381 0 -0.675477 -0.596554 -0.433421 0.675477 -0.737381 0 0.675477 -0.596554 -0.433421 -0.675477 -0.227863 -0.701291 -0.675477 -0.596554 -0.433421 -1 0 0 -0.675477 0.227863 -0.701291 -0.675477 0.596554 -0.433421 -0.675477 0.737381 0 -0.675477 0.596554 0.433422 -0.675477 0.227863 0.701291 -0.675477 -0.227863 0.701291 -0.675477 -0.596554 0.433421 -0.675477 -0.737381 0</float_array>
          <technique_common>
            <accessor source="#_0_0_Normal_array_id" count="62" stride="3">
              <param name="X" type="float" />
              <param name="Y" type="float" />
              <param name="Z" type="float" />
            </accessor>
          </technique_common>
        </source>
        <source id="_0_0_TexCoord0_id" name="_0_0_TexCoord0">
          <float_array id="_0_0_TexCoord0_array_id" count="124">0.404508 0.0954913 0.5 0.345491 0.25 0.5 0.5 0.654508 0.404508 0.904508 0.25 1 0.0954915 0.904508 0 0.654508 0 0.345491 0.0954915 0.0954914 0.25 0 0.989802 0.110458 0.989802 1 0.510155 0.110458 0.510155 1 0.989802 0.110458 0.989802 1 0.510155 0.110458 0.510155 1 0.989802 0.110458 0.989802 1 0.510155 0.110458 0.510155 1 0.989802 0.110458 0.989802 1 0.510155 0.110458 0.510155 1 0.989802 0.110458 0.989802 1 0.510155 0.110458 0.510155 1 0.989802 0.110458 0.989802 1 0.510155 0.110458 0.510155 1 0.989802 0.110458 0.989802 1 0.510155 0.110458 0.510155 1 0.989802 0.110458 0.989802 1 0.510155 0.110458 0.510155 1 0.989802 0.110458 0.989802 1 0.510155 0.110458 0.510155 1 0.989802 0.110458 0.989802 1 0.510155 0.110458 0.510155 1 0 0.345491 0.0954915 0.0954914 0.25 0.5 0 0.654508 0.0954915 0.904508 0.25 1 0.404508 0.904508 0.5 0.654508 0.5 0.345491 0.404508 0.0954913 0.25 0</float_array>
          <technique_common>
            <accessor source="#_0_0_TexCoord0_array_id" count="62" stride="2">
              <param name="S" type="float" />
              <param name="T" type="float" />
            </accessor>
          </technique_common>
        </source>
        <source id="_0_0_Tangent_id" name="_0_0_Tangent">
          <float_array id="_0_0_Tangent_array_id" count="186">-0.360682 0.245368 -0.899835 -0.679685 0.176391 -0.71198 0 0 -1 -0.679685 -0.176391 -0.71198 -0.360682 -0.245368 -0.899835 0 0 -1 0.360682 0.245368 -0.899835 0.679685 0.176391 -0.71198 0.679685 -0.176391 -0.711979 0.360682 -0.245368 -0.899835 0 0 -1 -0.737381 0.546473 0.397035 -0.737381 0.208734 0.642417 -0.737381 -0.546472 -0.397035 -0.737381 -0.208734 -0.642417 -0.737381 0.208734 0.642417 -0.737381 -0.208734 0.642417 -0.737381 -0.208734 -0.642417 -0.737381 0.208734 -0.642417 -0.737381 -0.208734 0.642417 -0.737381 -0.546473 0.397035 -0.737381 0.208734 -0.642417 -0.737381 0.546473 -0.397035 -0.737381 -0.546473 0.397035 -0.737381 -0.675477 0 -0.737381 0.546473 -0.397035 -0.737381 0.675477 0 -0.737381 -0.675477 0 -0.737381 -0.546472 -0.397035 -0.737381 0.675477 0 -0.737381 0.546473 0.397035 -0.737381 -0.546472 -0.397035 -0.737381 -0.208734 -0.642417 -0.737381 0.546473 0.397035 -0.737381 0.208734 0.642417 -0.737381 -0.208734 -0.642417 -0.737381 0.208734 -0.642417 -0.737381 0.208734 0.642417 -0.737381 -0.208734 0.642417 -0.737381 0.208734 -0.642417 -0.737381 0.546473 -0.397035 -0.737381 -0.208734 0.642417 -0.737381 -0.546473 0.397035 -0.737381 0.546473 -0.397035 -0.737381 0.675477 0 -0.737381 -0.546473 0.397035 -0.737381 -0.675477 0 -0.737381 0.675477 0 -0.737381 0.546473 0.397035 -0.737381 -0.675477 0 -0.737381 -0.546472 -0.397035 -0.679685 -0.176391 0.71198 -0.360682 -0.245368 0.899835 0 0 1 -0.679685 0.176391 0.71198 -0.360682 0.245368 0.899835 0 0 1 0.360682 -0.245368 0.899835 0.679685 -0.176391 0.71198 0.679685 0.176391 0.71198 0.360682 0.245368 0.899835 0 0 1</float_array>
          <technique_common>
            <accessor source="#_0_0_Tangent_array_id" count="62" stride="3">
              <param name="X" type="float" />
              <param name="Y" type="float" />
              <param name="Z" type="float" />
            </accessor>
          </technique_common>
        </source>
        <vertices id="_0_0_vtx_id">
          <input semantic="POSITION" source="#_0_0_Position_id" />
          <input semantic="NORMAL" source="#_0_0_Normal_id" />
          <input semantic="TANGENT" source="#_0_0_Tangent_id" />
        </vertices>
        <triangles material="Mdl_4_Mtl_mat_tire_classic" count="40">
          <input semantic="VERTEX" source="#_0_0_vtx_id" offset="0" />
          <input semantic="TEXCOORD" source="#_0_0_TexCoord0_id" offset="0" set="0" />
          <p>0 1 2 10 0 2 9 10 2 8 9 2 7 8 2 6 7 2 5 6 2 4 5 2 3 4 2 1 3 2 11 12 13 12 14 13 15 16 17 16 18 17 19 20 21 20 22 21 23 24 25 24 26 25 27 28 29 28 30 29 31 32 33 32 34 33 35 36 37 36 38 37 39 40 41 40 42 41 43 44 45 44 46 45 47 48 49 48 50 49 51 52 53 54 51 53 55 54 53 56 55 53 57 56 53 58 57 53 59 58 53 60 59 53 61 60 53 52 61 53</p>
        </triangles>
      </mesh>
    </geometry>
  </library_geometries>
  <library_visual_scenes>
    <visual_scene id="tire_classic_L_04_id" name="tire_classic_L_04">
      <node id="_0_0_node_id" name="_0_0_node" type="NODE">
        <matrix>1 0 0 0 0 1 0 0 0 0 1 0 0 0 0 1</matrix>
        <instance_geometry url="#_0_0_geo_id">
          <bind_material>
            <technique_common>
              <instance_material symbol="Mdl_4_Mtl_mat_tire_classic" target="#mat_tire_classic_mat_id" />
            </technique_common>
          </bind_material>
        </instance_geometry>
      </node>
    </visual_scene>
  </library_visual_scenes>
  <scene>
    <instance_visual_scene url="#tire_classic_L_04_id" />
  </scene>
</COLLADA>