<?xml version="1.0" encoding="utf-8"?>
<COLLADA xmlns="http://www.collada.org/2005/11/COLLADASchema" version="1.4.1">
  <asset>
    <created>2018-07-01T21:45:58Z</created>
    <modified>2018-07-01T21:45:58Z</modified>
  </asset>
  <library_images>
    <image id="Image">
      <init_from>./ds_eye.0.png</init_from>
    </image>
    <image id="Image1">
      <init_from>./ds_body.png</init_from>
    </image>
  </library_images>
  <library_materials>
    <material id="VisualMaterial" name="mat_ds_eye">
      <instance_effect url="#Effect"/>
      <extra>
        <technique profile="FCOLLADA">
          <user_properties>mat_ds_eye</user_properties>
        </technique>
      </extra>
    </material>
    <material id="VisualMaterial1" name="mat_ds_body">
      <instance_effect url="#Effect1"/>
      <extra>
        <technique profile="FCOLLADA">
          <user_properties>mat_ds_body</user_properties>
        </technique>
      </extra>
    </material>
  </library_materials>
  <library_effects>
    <effect id="Effect" name="ds_eye_0_png">
      <profile_COMMON>
        <newparam sid="Image-surface">
          <surface type="2D">
            <init_from>Image</init_from>
            <format>A8R8G8B8</format>
          </surface>
        </newparam>
        <newparam sid="Image-sampler">
          <sampler2D>
            <source>Image-surface</source>
            <wrap_s>WRAP</wrap_s>
            <wrap_t>WRAP</wrap_t>
            <minfilter>NONE</minfilter>
            <magfilter>NONE</magfilter>
            <mipfilter>NONE</mipfilter>
          </sampler2D>
        </newparam>
        <technique sid="common">
          <phong>
            <emission>
              <color>0 0 0 1</color>
            </emission>
            <ambient>
              <color>0 0 0 1</color>
            </ambient>
            <diffuse>
              <texture texture="Image-sampler" texcoord=""/>
            </diffuse>
            <specular>
              <color>1 1 1 1</color>
            </specular>
            <shininess>
              <float>0</float>
            </shininess>
            <transparent opaque="A_ONE">
              <color>0 0 0 1</color>
            </transparent>
            <transparency>
              <float>1</float>
            </transparency>
            <index_of_refraction>
              <float>1.55</float>
            </index_of_refraction>
          </phong>
          <extra>
            <technique profile="FCOLLADA">
              <spec_level>
                <float>0</float>
              </spec_level>
            </technique>
          </extra>
        </technique>
      </profile_COMMON>
      <extra>
        <technique profile="FCOLLADA">
          <user_properties>ds_eye.0.png</user_properties>
        </technique>
      </extra>
    </effect>
    <effect id="Effect1" name="ds_body_png">
      <profile_COMMON>
        <newparam sid="Image1-surface">
          <surface type="2D">
            <init_from>Image1</init_from>
            <format>A8R8G8B8</format>
          </surface>
        </newparam>
        <newparam sid="Image1-sampler">
          <sampler2D>
            <source>Image1-surface</source>
            <wrap_s>WRAP</wrap_s>
            <wrap_t>WRAP</wrap_t>
            <minfilter>NONE</minfilter>
            <magfilter>NONE</magfilter>
            <mipfilter>NONE</mipfilter>
          </sampler2D>
        </newparam>
        <technique sid="common">
          <phong>
            <emission>
              <color>0 0 0 1</color>
            </emission>
            <ambient>
              <color>0 0 0 1</color>
            </ambient>
            <diffuse>
              <texture texture="Image1-sampler" texcoord=""/>
            </diffuse>
            <specular>
              <color>1 1 1 1</color>
            </specular>
            <shininess>
              <float>0</float>
            </shininess>
            <transparent opaque="A_ONE">
              <color>0 0 0 1</color>
            </transparent>
            <transparency>
              <float>1</float>
            </transparency>
            <index_of_refraction>
              <float>1.55</float>
            </index_of_refraction>
          </phong>
          <extra>
            <technique profile="FCOLLADA">
              <spec_level>
                <float>0</float>
              </spec_level>
            </technique>
          </extra>
        </technique>
      </profile_COMMON>
      <extra>
        <technique profile="FCOLLADA">
          <user_properties>ds_body.png</user_properties>
        </technique>
      </extra>
    </effect>
  </library_effects>
  <library_geometries>
    <geometry id="Geometry" name="mesh_0_">
      <mesh>
        <source id="GeometrySource" name="mesh_0_Pos">
          <float_array id="GeometrySource-array" count="93">1.37728 7.32091 -0.150234 1.42984 8.05173 -0.154348 0.930538 7.12478 0.287555 1.69538 7.97551 -0.893045 0.787192 8.54004 0.410845 0.215437 7.15637 0.559935 0.683303 6.70816 0.528322 1.11682 6.76886 0.199003 1.01326 6.21884 -0.173931 0.000717 5.9203 0.295886 0.000714 6.72155 0.698472 0.255874 6.87815 0.651693 0.000712 7.22034 0.681006 0.000713 7.02824 0.967754 0.255874 6.87815 0.651693 0.000714 6.72155 0.698472 -0.254447 6.87815 0.651693 -0.214012 7.15636 0.559935 0.000575 7.42426 0.615327 0.196968 8.03175 0.624802 -0.000023 9.44305 0.787002 -0.196638 8.03174 0.624802 -0.787232 8.54003 0.410845 -0.929112 7.12477 0.287555 -0.681874 6.70815 0.528322 -1.11538 6.76885 0.199003 -1.37586 7.32089 -0.150234 -1.42988 8.05171 -0.154348 -1.69542 7.97549 -0.893045 -1.01183 6.21883 -0.173931 -0.254447 6.87815 0.651693</float_array>
          <technique_common>
            <accessor source="#GeometrySource-array" count="31" stride="3">
              <param name="X" type="float"/>
              <param name="Y" type="float"/>
              <param name="Z" type="float"/>
            </accessor>
          </technique_common>
        </source>
        <source id="GeometrySource1" name="mesh_0_Nrm">
          <float_array id="GeometrySource1-array" count="93">0.502843 -0.862304 0.05984 0.613948 -0.788436 0.0379 0.820177 -0.566174 -0.082194 0.321974 -0.942218 0.09251 0.916913 -0.203396 0.343367 0.854741 -0.463983 -0.232673 0.886592 -0.4394 0.144507 0.606172 -0.773916 0.183329 0.188089 -0.577772 0.794231 0.57398 0.000032 0.818869 0.959576 0 0.281448 0.939439 -0.319975 -0.122761 0.795394 -0.000017 -0.606093 0.967827 0 -0.251618 0.665924 -0.727382 0.16571 0.75144 0 0.659801 0.665923 0.727384 0.16571 0.85479 0.464001 -0.232457 0.996843 -0.000023 -0.079395 0.979805 -0.18962 0.063454 0.983069 -0.000017 0.183238 0.979796 0.189614 0.063616 0.916824 0.203301 0.343661 0.820206 0.566195 -0.081766 0.886592 0.4394 0.144507 0.60951 0.77153 0.182318 0.506594 0.860327 0.056563 0.61396 0.78836 0.039275 0.327141 0.940862 0.088079 0.189892 0.575549 0.795415 0.939439 0.319975 -0.12276</float_array>
          <technique_common>
            <accessor source="#GeometrySource1-array" count="31" stride="3">
              <param name="X" type="float"/>
              <param name="Y" type="float"/>
              <param name="Z" type="float"/>
            </accessor>
          </technique_common>
        </source>
        <source id="GeometrySource2" name="mesh_0_UV">
          <float_array id="GeometrySource2-array" count="62">0.928379 -0.620432 0.941877 -0.354559 0.781772 -0.6435 0.997412 -0.462104 0.751372 -0.146101 0.578612 -0.618344 0.698943 -0.749766 0.834157 -0.748641 0.710224 -0.930966 0.499947 -0.987206 0.498945 -0.755938 0.571574 -0.712038 0.499948 -0.578095 0.499947 -0.666117 0.571574 -0.712038 0.498945 -0.755938 0.428133 -0.712038 0.421095 -0.618344 0.499813 -0.566874 0.563921 -0.401762 0.499947 -0.004206 0.440509 -0.408228 0.248522 -0.146101 0.216339 -0.6435 0.300951 -0.749766 0.158822 -0.748641 0.071515 -0.620429 0.058017 -0.354558 0.002482 -0.462102 0.289671 -0.930966 0.428133 -0.712038</float_array>
          <technique_common>
            <accessor source="#GeometrySource2-array" count="31" stride="2">
              <param name="S" type="float"/>
              <param name="T" type="float"/>
            </accessor>
          </technique_common>
        </source>
        <vertices id="Geometry-vertices">
          <input semantic="POSITION" source="#GeometrySource"/>
          <input semantic="NORMAL" source="#GeometrySource1"/>
          <input semantic="TEXCOORD" source="#GeometrySource2"/>
        </vertices>
        <triangles material="VisualMaterial0" count="40">
          <input semantic="VERTEX" source="#Geometry-vertices" offset="0"/>
          <p>0 1 2 3 1 0 2 1 4 5 2 4 2 5 6 2 6 7 0 2 7 7 6 8 8 6 9 6 10 9 6 11 10 6 5 11 5 12 13 14 5 13 15 14 13 13 16 15 13 17 16 17 13 12 12 18 17 5 18 12 19 18 5 4 19 5 20 19 4 21 19 20 17 18 21 19 21 18 17 21 22 22 21 20 17 22 23 23 24 17 10 24 9 25 24 23 26 25 23 26 23 27 23 22 27 28 26 27 29 24 25 9 24 29 10 30 24 17 24 30</p>
        </triangles>
      </mesh>
    </geometry>
    <geometry id="Geometry1" name="mesh_1_">
      <mesh>
        <source id="GeometrySource3" name="mesh_1_Pos">
          <float_array id="GeometrySource3-array" count="1167">-4.20863 4.96835 -1.80213 -4.18203 4.4858 -1.2518 -4.28682 4.96803 -1.79451 -4.18204 5.41936 -1.2518 -5.73713 4.96063 -1.78788 -5.66153 4.56717 -1.37614 -6.14236 4.96364 -1.32975 -5.69424 5.31466 -1.37614 -5.7271 4.96871 -0.871765 -4.20152 4.97792 -0.752261 -4.12622 4.97826 -0.746847 -2.73014 5.49141 -1.25418 -2.77692 5.05524 -1.81646 -2.73013 4.48053 -1.25418 -2.74012 5.0605 -0.709918 -1.9109 5.07544 0.068649 -0.961394 5.07544 -0.324648 -1.91091 6.02494 -0.32465 -2.8604 5.07543 -0.324648 -1.91089 4.12593 -0.324645 -0.961387 4.12593 -1.27415 -1.91089 3.73263 -1.27415 -2.8604 4.12592 -1.27415 -2.86041 6.02494 -1.27416 -1.91091 6.41823 -1.27416 -0.961401 6.02495 -1.27416 -0.568098 5.07544 -1.27415 -0.961394 5.07544 -2.22366 -1.91091 6.02493 -2.22366 -1.9109 5.07543 -2.61696 -2.8604 5.07542 -2.22366 -1.91089 4.12592 -2.22366 -2.8604 5.07542 -2.22366 -2.8604 4.12592 -1.27415 -2.86041 6.02494 -1.27416 -2.8604 5.07543 -0.324648 -3.2182 5.05288 -0.349559 -1.64662 5.03729 -1.29111 -3.2474 5.84577 -1.25647 -3.2431 4.09422 -1.25647 -3.28178 5.05525 -2.17411 -3.2182 5.05288 -0.349559 -3.2474 5.84577 -1.25647 -2.682 5.03729 -1.29111 -3.2431 4.09422 -1.25647 -3.28178 5.05525 -2.17411 -5.38557 4.97095 -0.500328 -5.42612 4.23063 -1.34476 -5.44229 4.97287 -2.20075 -5.38557 4.97095 -0.500328 -5.44229 4.97287 -2.20075 -5.42272 5.67229 -1.27652 -5.38557 4.97095 -0.500328 -5.42272 5.67229 -1.27652 -5.96584 5.04714 -0.808371 -5.97893 4.56429 -1.30682 -5.42612 4.23063 -1.34476 -5.99007 5.34051 -1.28208 -6.01344 5.04013 -1.80607 -5.44229 4.97287 -2.20075 -5.97893 4.56429 -1.30682 -5.42612 4.23063 -1.34476 -6.68343 5.15178 -1.99443 -5.99007 5.34051 -1.28208 -6.01344 5.04013 -1.80607 -6.61733 5.43175 -1.27841 -6.65513 5.15877 -0.437644 -5.96584 5.04714 -0.808371 -7.36353 5.20087 -0.585749 -7.34105 5.15066 -1.93299 -7.35833 4.52599 -1.92088 -7.41111 4.51334 -0.613503 -6.70216 4.25802 -0.56737 -6.65513 5.15877 -0.437644 -5.96584 5.04714 -0.808371 -5.97893 4.56429 -1.30682 -6.70875 4.60889 -1.96676 -6.01344 5.04013 -1.80607 -6.68343 5.15178 -1.99443 -7.34105 5.15066 -1.93299 -7.36353 5.20087 -0.585749 4.20642 4.96838 -1.80212 4.28464 4.96806 -1.79478 4.18178 4.48583 -1.25172 4.18178 5.4194 -1.25172 5.73549 4.96067 -1.78786 5.66135 4.56721 -1.37587 6.14232 4.96368 -1.33118 5.69405 5.3147 -1.37598 5.72869 4.96875 -0.871744 4.2136 4.9779 -0.753063 4.12775 4.97829 -0.746585 1.91088 5.07545 0.06865 1.91088 6.02495 -0.324647 0.961379 5.07545 -0.324647 2.86039 5.07545 -0.324647 1.91088 4.12594 -0.324647 0.961379 4.12594 -1.27415 1.91088 3.73265 -1.27415 2.86039 4.12594 -1.27415 2.86039 6.02496 -1.27415 1.91088 6.41825 -1.27415 0.961379 6.02496 -1.27415 0.568083 5.07545 -1.27415 0.961379 5.07545 -2.22366 1.91088 6.02495 -2.22366 1.91088 5.07545 -2.61696 2.86039 5.07545 -2.22366 1.91088 4.12594 -2.22366 2.86039 5.07545 -2.22366 2.86039 6.02496 -1.27415 2.86039 4.12594 -1.27415 2.86039 5.07545 -0.324647 2.73014 4.48055 -1.25413 2.74205 5.06052 -0.709922 2.73014 5.49143 -1.25413 2.77492 5.05526 -1.81655 3.21818 5.0529 -0.349558 3.24738 5.8458 -1.25647 1.64661 5.03731 -1.29111 3.24309 4.09424 -1.25647 3.28176 5.05528 -2.17411 3.21818 5.0529 -0.349558 2.68198 5.03731 -1.29111 3.24738 5.8458 -1.25647 3.24309 4.09424 -1.25647 3.28176 5.05528 -2.17411 5.38849 4.97099 -0.499112 5.43919 4.97291 -2.19967 5.42606 4.23067 -1.34366 5.38849 4.97099 -0.499112 5.4229 5.67232 -1.27541 5.43919 4.97291 -2.19967 5.38849 4.97099 -0.499112 5.96765 5.04718 -0.809198 5.4229 5.67232 -1.27541 5.97899 4.56433 -1.30768 5.42606 4.23067 -1.34366 5.9902 5.34055 -1.28297 6.01172 5.04017 -1.80703 5.43919 4.97291 -2.19967 5.97899 4.56433 -1.30768 5.42606 4.23067 -1.34366 6.68078 5.15183 -1.99443 6.01172 5.04017 -1.80703 5.9902 5.34055 -1.28297 6.61721 5.4318 -1.27821 6.65799 5.15882 -0.437609 5.96765 5.04718 -0.809198 7.36591 5.20092 -0.585756 7.33866 5.15071 -1.93287 7.35599 4.52605 -1.92082 7.4134 4.51339 -0.613679 6.70456 4.25806 -0.567499 6.65799 5.15882 -0.437609 5.96765 5.04718 -0.809198 5.97899 4.56433 -1.30768 6.70619 4.60894 -1.96686 6.01172 5.04017 -1.80703 6.68078 5.15183 -1.99443 7.33866 5.15071 -1.93287 7.36591 5.20092 -0.585756 -1.7967 0.685181 -1.69786 -1.85957 2.43514 -1.32829 0 1.96704 -2.1528 -2.46509 1.52625 0.218982 -1.13899 3.04833 -1.05776 0.000000 2.95454 -1.73523 1.85957 2.43514 -1.32829 1.13899 3.04833 -1.05776 2.46508 1.52625 0.219018 1.7967 0.685181 -1.69783 -0.000014 -1.53349 2.65418 -3.05887 -1.14368 3.26481 -1.88704 1.85723 2.2401 0 2.82243 -0.11793 -0.000012 2.00277 2.29171 1.88702 1.85723 2.24012 3.05883 -1.14368 3.26485 2.20621 -0.091059 4.14257 -0.000021 0.11534 4.6114 -2.20625 -0.091059 4.14253 -3.05887 -1.14368 3.26481 -0.000014 -1.53349 2.65418 -2.20625 -0.091059 4.14253 -0.000021 0.11534 4.6114 2.20621 -0.091059 4.14257 3.05883 -1.14368 3.26485 1.75603 0.10098 1.94151 1.92128 -0.20481 3.98638 2.16973 -0.87567 3.37649 1.78107 -1.36489 3.39836 1.52509 -0.79908 3.37224 1.49277 -0.50513 4.77062 2.0223 0.42336 5.07768 2.33658 -0.60362 4.75916 1.49277 -0.50513 4.77062 2.33658 -0.60362 4.75916 2.0223 0.42336 5.07768 1.78107 -1.36489 3.39836 -1.75605 0.10098 1.94149 -2.16977 -0.87567 3.37646 -1.92132 -0.20481 3.98636 -1.78111 -1.36489 3.39834 -1.52513 -0.79908 3.37222 -1.49281 -0.50513 4.7706 -2.02234 0.42336 5.07765 -2.33662 -0.60362 4.75912 -1.49281 -0.50513 4.7706 -2.02234 0.42336 5.07765 -2.33662 -0.60362 4.75912 -1.78111 -1.36489 3.39834 -0.000007 4.97026 -2.4009 0.000000 2.95454 -1.73523 -1.76886 4.70013 -1.6476 -0.000011 6.12126 -1.94775 1.76884 4.70015 -1.6476 1.13899 3.04833 -1.05776 1.28488 4.22292 0.12363 0.858913 5.93487 -1.17858 -0.858934 5.93485 -1.17858 -1.28488 4.2229 0.12363 -1.13899 3.04833 -1.05776 0 2.82243 -0.11793 -0.000004 4.25413 0.53392 -0.000009 5.6646 -0.315883 -0.000009 5.6646 -0.315883 -0.000011 6.12126 -1.94775 -0.858934 5.93485 -1.17858 0.858913 5.93487 -1.17858 0.656015 6.36024 -1.31323 -0.00001 6.03126 -0.680754 -0.000005 4.56408 -1.14574 -0.000011 6.09111 -1.81072 -0.656039 6.36023 -1.31323 -0.849833 10.3375 -1.33598 -0.000026 10.3375 -0.315475 -0.664438 11.0865 -0.671564 -1.12802 11.6898 -1.33597 -0.664438 11.0865 -2.00038 -0.000026 10.3375 -2.35648 -0.000031 11.6898 -2.4562 0.66438 11.0865 -2.00038 0.84978 10.3375 -1.33598 1.12796 11.6898 -1.33597 0.66438 11.0865 -0.671564 -0.000031 11.6898 -0.215732 -0.000031 11.6898 -0.215732 -0.000028 10.8891 -1.33597 -0.664438 11.0865 -0.671564 0.66438 11.0865 -0.671564 1.12796 11.6898 -1.33597 0.66438 11.0865 -2.00038 -0.000031 11.6898 -2.4562 -0.664438 11.0865 -2.00038 -1.12802 11.6898 -1.33597 1.56184 6.76188 -0.461607 1.53506 7.32538 -0.498496 1.95693 6.4782 -0.749775 2.11843 7.06598 -0.552425 2.32524 6.75801 -1.07483 1.90336 7.60519 -0.823555 2.29845 7.32151 -1.11172 -2.29849 7.32148 -1.11172 -1.9034 7.60517 -0.823555 -2.32526 6.75798 -1.07483 -2.11846 7.06595 -0.552425 -1.5351 7.32536 -0.498496 -1.95695 6.47817 -0.749775 -1.56186 6.76186 -0.461607 2.52458 8.92665 -1.51551 3.10887 8.804 -1.81138 2.25645 8.91904 -1.828 2.36988 10.3562 -0.983125 1.59475 10.3621 -1.3214 1.61565 10.8548 -0.154738 2.56317 10.0579 -0.045743 2.46247 8.82636 0.032227 2.01468 10.019 1.0001 1.33682 8.76759 1.21006 0.642959 9.99861 1.24502 0.686715 10.7378 -0.037288 -0.000026 10.284 0.165168 -0.000023 9.44305 0.787002 0.787192 8.54004 0.410845 1.42984 8.05173 -0.154348 2.23231 8.07861 -0.128928 1.69538 7.97551 -0.893045 2.25645 8.91904 -1.828 2.19179 7.16875 -1.68869 2.25645 8.91904 -1.828 1.69538 7.97551 -0.893045 1.56459 6.93856 -0.893315 1.76106 6.62965 -0.888879 -0.000026 10.2565 -3.05896 -0.000026 10.3954 -1.02274 0.919336 10.6972 -2.40386 1.53269 10.0645 -2.88245 -0.000021 8.83138 -3.68317 1.67645 8.76557 -3.1657 2.25645 8.91904 -1.828 1.59475 10.3621 -1.3214 -0.919392 10.6972 -2.40386 -1.53275 10.0645 -2.88245 -1.67649 8.76554 -3.1657 -2.25649 8.91901 -1.828 -1.59481 10.3621 -1.3214 -0.000026 10.3954 -1.02274 -0.000026 10.3954 -1.02274 -0.686771 10.7377 -0.037288 -0.643009 9.9986 1.24502 -1.61571 10.8548 -0.154738 -0.000026 10.3954 -1.02274 -1.59481 10.3621 -1.3214 -2.36994 10.3562 -0.983125 -2.25649 8.91901 -1.828 -2.52462 8.92661 -1.51551 -2.56323 10.0579 -0.045743 -2.01473 10.0189 1.0001 -1.33686 8.76757 1.21006 -2.46251 8.82633 0.032227 -3.10891 8.80395 -1.81138 -2.23235 8.07858 -0.128928 -1.69542 7.97549 -0.893045 -2.25649 8.91901 -1.828 -1.42988 8.05171 -0.154348 -0.787232 8.54003 0.410845 -0.00001 6.03126 -0.680754 1.01326 6.21884 -0.173931 0.000717 5.9203 0.295886 0.656015 6.36024 -1.31323 1.56459 6.93856 -0.893315 1.11682 6.76886 0.199003 1.37728 7.32091 -0.150234 1.69538 7.97551 -0.893045 -0.000026 10.3954 -1.02274 -2.19181 7.16872 -1.68869 -1.69542 7.97549 -0.893045 -2.25649 8.91901 -1.828 -1.57604 6.93853 -0.893315 -1.76108 6.62962 -0.888897 -1.01183 6.21883 -0.173931 -0.656039 6.36023 -1.31323 -1.57604 6.93853 -0.893315 -1.11538 6.76885 0.199003 -1.37586 7.32089 -0.150234 -1.69542 7.97549 -0.893045 1.76106 6.62965 -0.888879 0.656015 6.36024 -1.31323 1.74756 5.12947 -2.18687 1.56459 6.93856 -0.893315 2.97866 6.06774 -1.26133 2.65368 5.78822 -2.75147 1.9456 5.29556 -3.63651 0.704759 4.80797 -4.13458 0.000009 4.49918 -2.92007 -0.000011 6.09111 -1.81072 -1.74756 5.12944 -2.18689 -0.704739 4.80796 -4.13459 0.000007 5.26002 -4.36211 -0.770764 5.65587 -4.73993 -0.000000 6.05518 -3.45061 0.770776 5.65588 -4.73992 1.19432 5.54544 -4.08813 1.03327 6.16579 -3.29211 -1.03327 6.16578 -3.29212 -1.19431 5.54542 -4.08814 -1.94558 5.29553 -3.63653 -1.92171 6.11667 -4.20099 -1.79176 6.52704 -2.66175 -2.19181 7.16872 -1.68869 -2.79478 6.43329 -2.21127 -2.81998 6.55387 -3.08623 -2.2283 6.07074 -3.35219 -2.65368 5.78819 -2.7515 -2.97868 6.0677 -1.26136 -3.33005 6.74991 -1.55379 -1.76108 6.62962 -0.888897 1.76106 6.62965 -0.888879 3.33003 6.74995 -1.55376 2.19179 7.16875 -1.68869 2.79476 6.43333 -2.21125 1.79174 6.52707 -2.66173 1.92171 6.11669 -4.20097 2.2283 6.07077 -3.35217 2.81997 6.55392 -3.0862 -0.656039 6.36023 -1.31323 -1.76108 6.62962 -0.888897 -1.57604 6.93853 -0.893315</float_array>
          <technique_common>
            <accessor source="#GeometrySource3-array" count="389" stride="3">
              <param name="X" type="float"/>
              <param name="Y" type="float"/>
              <param name="Z" type="float"/>
            </accessor>
          </technique_common>
        </source>
        <source id="GeometrySource4" name="mesh_1_Nrm">
          <float_array id="GeometrySource4-array" count="1167">0.047978 0.035016 0.998235 0.040493 -0.999159 -0.00649 0.050699 0.016747 0.998574 0.057802 0.998325 0.002539 0.294677 0.018913 0.95541 0.383336 -0.923035 0.032555 0.999438 0.017271 0.028734 0.371231 0.927551 0.042851 0.361545 0.026754 -0.931971 0.075023 0.026979 -0.996817 0.043547 0.041908 -0.998172 0.062045 0.998002 -0.011942 0.014265 0.07055 0.997406 -0.017904 -0.99967 -0.018432 0.030904 0.073261 -0.996834 0 0 -1 -0.707107 0 -0.707107 0 0.707107 -0.707107 0.705765 0 -0.708446 0 -0.707107 -0.707107 -0.707107 -0.707107 0 0 -1 0 0.802156 -0.597115 0 0.802156 0.597115 0 0 1 0 -0.707106 0.707107 0 -1 0 0 -0.707107 0 0.707107 0 0.707107 0.707107 0 0 1 0.705765 0 0.708446 0 -0.707107 0.707107 0.705765 0 0.708446 0.802156 -0.597115 0 0.802156 0.597115 0 0.705765 0 -0.708446 -0.513734 0.045693 -0.856732 -0.995413 0.092871 0.022964 -0.45063 0.892656 0.009863 -0.508366 -0.861054 0.012296 -0.475036 0.046556 0.878734 0.868663 -0.035986 0.494094 0.818521 -0.573702 -0.029825 0.998386 -0.042726 -0.037419 0.858382 0.511946 -0.033041 0.827005 -0.036588 -0.561002 -0.999304 -0.016712 0.033352 -0.999304 -0.016712 0.033352 -0.999304 -0.016712 0.033352 -0.999316 0.016075 0.033315 -0.999316 0.016075 0.033315 -0.999316 0.016075 0.033315 0.462641 -0.274369 -0.843021 0.435368 0.899217 -0.043167 -0.111878 0.251689 -0.96132 0.072235 -0.995661 0.058658 0.515271 -0.856635 -0.025941 0 1 0 0.04978 0.278539 0.959134 0.560236 -0.256937 0.787477 0.072235 -0.995661 0.058658 0.515271 -0.856635 -0.025941 -0.09653 0.519317 0.849113 0 1 0 0.04978 0.278539 0.959134 0.021913 0.999225 0.032697 -0.138668 0.511556 -0.847987 -0.111878 0.251689 -0.96132 0.741452 0.574283 -0.347055 0.521171 0.682064 0.513001 0.625242 -0.490781 0.6068 0.607392 -0.379014 -0.698157 -0.231035 -0.869523 -0.436524 -0.138668 0.511556 -0.847987 -0.111878 0.251689 -0.96132 0.072235 -0.995661 0.058658 -0.235316 -0.634784 0.735986 0.04978 0.278539 0.959134 -0.09653 0.519317 0.849113 0.521171 0.682064 0.513001 0.741452 0.574283 -0.347055 0.043547 0.041908 -0.998172 0.049046 0.016739 -0.998656 0.040542 -0.999157 0.00649 0.057802 0.998325 0.002539 0.293696 0.018858 -0.955713 0.383286 -0.923013 -0.033736 0.99933 0.017272 -0.032271 0.371157 0.927525 -0.044052 0.362657 0.026805 0.931537 0.076787 0.026992 0.996682 0.047978 0.035016 0.998235 0 0 1 0 0.707107 0.707107 -0.707107 0 0.707107 0.705765 0 0.708446 0 -0.707107 0.707107 -0.707107 -0.707107 0 0 -1 0 0.802156 -0.597115 0 0.802156 0.597115 0 0 1 0 -0.707106 0.707107 0 -1 0 0 -0.707107 0 -0.707107 0 0.707107 -0.707107 0 0 -1 0.705765 0 -0.708446 0 -0.707107 -0.707107 0.705765 0 -0.708446 0.802156 0.597115 0 0.802156 -0.597115 0 0.705765 0 0.708446 -0.017938 -0.999668 0.018477 0.030728 0.07338 0.996831 0.057802 0.998325 0.002539 0.014332 0.070428 -0.997414 -0.513734 0.045693 0.856732 -0.45063 0.892656 -0.009863 -0.995413 0.092871 -0.022964 -0.508366 -0.861054 -0.012296 -0.475036 0.046556 -0.878734 0.868663 -0.035986 -0.494094 0.998386 -0.042726 0.037419 0.818521 -0.573702 0.029825 0.858382 0.511946 0.033041 0.827005 -0.036588 0.561002 -0.999416 -0.016712 -0.029813 -0.999416 -0.016712 -0.029813 -0.999416 -0.016712 -0.029813 -0.999427 0.016073 -0.029776 -0.999427 0.016073 -0.029776 -0.999427 0.016073 -0.029776 0.465624 -0.274361 0.84138 -0.11032 0.251903 0.961444 0.435529 0.899212 0.041626 0.072396 -0.995614 -0.059257 0.515372 -0.856627 0.024117 0 1 0 0.048573 0.278302 -0.959265 0.557445 -0.256928 -0.789458 0.072396 -0.995614 -0.059257 0.515372 -0.856627 0.024117 -0.096062 0.51962 -0.84898 0.048573 0.278302 -0.959265 0 1 0 0.021919 0.999224 -0.032728 -0.138847 0.511226 0.848156 -0.11032 0.251903 0.961444 0.742105 0.574707 0.344952 0.525367 0.679771 -0.511763 0.624509 -0.490104 -0.608101 0.608147 -0.379611 0.697175 -0.230921 -0.869417 0.436794 -0.138847 0.511226 0.848156 -0.11032 0.251903 0.961444 0.072396 -0.995614 -0.059257 -0.235087 -0.635136 -0.735756 0.048573 0.278302 -0.959265 -0.096062 0.51962 -0.84898 0.525367 0.679771 -0.511763 0.742105 0.574707 0.344952 -0.723318 -0.440276 0.531948 -0.61893 0.473939 -0.626345 0 0.167516 -0.985869 -0.042014 0.388083 0.920666 -0.509005 0.860456 -0.023001 0.565563 0 -0.824705 0.61893 0.473939 -0.626345 0.509005 0.860456 -0.023001 -0.042014 0.388083 -0.920666 -0.723318 -0.440276 -0.531948 -0.4113 -0.9115 0 -0.060443 -0.058294 0.996468 0.40654 0.78637 0.465131 0 0.946443 0.32287 0.484227 0.874943 0 0.40654 0.78637 -0.465131 -0.060443 -0.058294 -0.996468 0.53573 0.617482 -0.575943 0.664706 0.747105 0 0.53573 0.617482 0.575943 0.74095 -0.668626 -0.062709 0.694973 -0.719036 0 0.694973 -0.719036 0 0.644287 -0.764784 0 0.694973 -0.719036 0 0.74095 -0.668626 0.062709 -0.974358 -0.143127 0.173615 -0.256754 0.963367 -0.077463 -0.224698 -0.090105 -0.970253 -0.11372 -0.983022 0.143996 -0.098491 0.087068 0.991322 0.402128 -0.130564 0.906226 0.580093 0.811094 -0.074965 0.364356 -0.33329 -0.869576 0.402128 -0.130564 0.906226 0.364356 -0.33329 -0.869576 0.580093 0.811094 -0.074965 -0.11372 -0.983022 0.143996 -0.974358 -0.143127 -0.173615 -0.224698 -0.090105 0.970253 -0.256754 0.963367 0.077463 -0.11372 -0.983022 -0.143996 -0.098491 0.087068 -0.991322 0.402128 -0.130564 -0.906226 0.580093 0.811093 0.074966 0.364355 -0.33329 0.869576 0.402128 -0.130564 -0.906226 0.580093 0.811093 0.074966 0.364355 -0.33329 0.869576 -0.11372 -0.983022 -0.143996 0.022044 0 -0.999757 -0.413799 0 -0.910368 0.088542 0.818936 -0.567013 0.87092 0 -0.491426 0.088542 -0.818936 -0.567013 0.825183 -0.56473 -0.012389 0.054426 -0.69672 0.715276 0.802427 -0.551357 0.228291 0.802427 0.551357 0.228291 0.054426 0.69672 0.715276 -0.825183 -0.564729 -0.012389 0 -0.582031 0.813167 0.057089 0 0.998369 0.764712 0 0.644373 0.764712 0 0.644373 0.87092 0 -0.491426 0.802427 0.551357 0.228291 0.802427 -0.551357 0.228291 -0.036374 -0.937759 0.345377 0.948359 0 0.317198 -0.9945 0 -0.10474 -0.922437 0 0.386148 -0.036374 0.937759 0.345377 0 0.946443 0.32287 0.961136 0 0.276074 0.652193 0.729778 0.205107 0 0.97949 0.201491 -0.652193 0.729778 0.205107 -0.961136 0 0.276074 -0.997292 0 0.073545 -0.652193 -0.729778 0.205107 0 -0.948381 0.317134 0 -0.97949 0.201491 0.652193 -0.729778 0.205107 0.997292 0 0.073546 -0.581515 0 -0.813535 0 0 -1 -0.146868 -0.143876 -0.978637 -0.146868 0.143876 -0.978637 0 0.578858 -0.815428 0.146868 0.143875 -0.978637 0.581516 0 -0.813535 0.146868 -0.143875 -0.978637 0 -0.578858 -0.815428 0.930207 0.132966 0.342105 0.878598 0.170423 -0.446119 -0.17945 0.149089 0.972404 0.776883 -0.624472 -0.080542 0.072423 -0.93487 0.347523 -0.303509 0.239127 -0.922334 0.020812 -0.897412 -0.440702 0.020812 0.897412 -0.440702 -0.303509 -0.239127 -0.922334 0.072423 0.93487 0.347523 0.776883 0.624472 -0.080541 0.878598 -0.170423 -0.446118 -0.17945 -0.149088 0.972405 0.930207 -0.132966 0.342105 -0.204558 -0.777868 -0.594203 -0.378576 -0.925337 -0.020792 -0.46208 -0.852513 -0.244343 -0.434228 -0.667082 -0.605349 -0.314346 -0.40221 -0.859892 0.082607 -0.200665 -0.976171 0.1796 -0.91973 -0.349056 0.444321 -0.895568 0.023188 0.734925 -0.596364 -0.322854 0.817289 -0.069345 0.572041 0.792405 0.267708 -0.548113 0.212963 0.301679 -0.92932 0.464019 0 -0.885825 0.983069 -0.000017 0.183238 0.916913 -0.203396 0.343367 0.34533 0.077977 0.935236 0.32128 -0.4791 0.816849 -0.290795 -0.135159 0.947191 -0.46208 -0.852513 -0.244343 0.173649 -0.849855 -0.497587 -0.46208 -0.852513 -0.244343 0.561464 -0.826259 0.045333 0.876822 -0.480533 -0.016468 -0.984579 -0.046763 0.168573 -0.639555 0 -0.768746 0.102317 0 -0.994752 -0.197398 -0.140732 -0.970169 -0.621741 -0.584414 -0.521439 -0.989875 0 -0.141939 -0.743037 -0.667103 -0.053571 -0.46208 -0.852513 -0.244343 -0.314346 -0.40221 -0.859892 -0.197398 0.140733 -0.970169 -0.621741 0.584414 -0.521439 -0.743037 0.667103 -0.053571 -0.46208 0.852513 -0.244343 -0.314345 0.40221 -0.859892 -0.187291 0.256469 -0.948233 -0.187291 -0.256469 -0.948233 0.212962 -0.30168 -0.92932 0.792405 -0.267708 -0.548112 0.082607 0.200665 -0.976171 -0.187291 -0.256469 -0.948233 -0.314345 0.40221 -0.859892 -0.434228 0.667082 -0.60535 -0.46208 0.852513 -0.244343 -0.204558 0.777868 -0.594203 0.1796 0.91973 -0.349056 0.734925 0.596364 -0.322854 0.817288 0.069345 0.572041 0.444321 0.895568 0.023188 -0.378577 0.925336 -0.020792 0.32128 0.4791 0.816849 -0.290795 0.135159 0.947191 -0.46208 0.852513 -0.244343 0.34533 -0.077977 0.935236 0.916824 0.203301 0.343661 -0.161883 0.000108 0.98681 0.188089 -0.577772 0.794231 0.57398 0.000032 0.818869 -0.247268 -0.448633 0.858829 0.178694 -0.90265 0.391524 0.606172 -0.773916 0.183329 0.502843 -0.862304 0.05984 0.321974 -0.942218 0.09251 -0.187291 0.256469 -0.948233 0.171361 0.851893 -0.494888 0.558616 0.828402 0.041206 -0.46208 0.852513 -0.244343 0.873407 0.486709 -0.016551 -0.984105 -0.048473 -0.170844 0.189892 0.575549 0.795415 -0.246025 0.445757 0.860681 0.187606 0.901453 0.39011 0.60951 0.77153 0.182318 0.506594 0.860327 0.056563 0.327141 0.940862 0.088079 -0.984579 -0.046763 0.168573 0.810832 0.212258 0.545434 -0.42504 -0.88276 0.200187 0.876822 -0.480533 -0.016468 -0.329428 -0.541235 0.773655 0.270732 -0.442332 0.855013 0.516916 -0.541024 0.663393 0.548735 -0.787222 0.281373 -0.145635 -0.989338 0 0.764712 0 0.644373 -0.42504 -0.88276 -0.200187 0.548735 -0.787222 -0.281373 0.917033 -0.398812 0 0.883886 0.404654 -0.234522 0.778643 0.627467 0 0.883886 0.404654 0.234522 0.890501 0.002308 0.454976 0.808005 0.557615 0.190245 0.808005 0.557615 -0.190245 0.890501 0.002308 -0.454976 0.516916 -0.541024 -0.663393 0.751296 0.557267 -0.353564 0.525367 0.679771 -0.511763 0.171361 0.851893 -0.494888 0.397568 0.397544 -0.826981 0.558004 0.511596 -0.653376 0.656351 0.220319 -0.72157 0.270732 -0.442332 -0.855013 -0.329428 -0.541235 -0.773655 -0.275486 0.53614 -0.79791 -0.984105 -0.048473 -0.170844 -0.984579 -0.046763 0.168573 -0.275487 0.53614 0.79791 0.173649 -0.849855 -0.497587 0.397568 0.397544 0.826981 0.521171 0.682064 0.513001 0.751296 0.557267 0.353565 0.656351 0.220319 0.72157 0.558004 0.511596 0.653376 0.812146 -0.21337 0.54304 -0.984105 -0.048473 -0.170844 0.873407 0.486709 -0.016551</float_array>
          <technique_common>
            <accessor source="#GeometrySource4-array" count="389" stride="3">
              <param name="X" type="float"/>
              <param name="Y" type="float"/>
              <param name="Z" type="float"/>
            </accessor>
          </technique_common>
        </source>
        <source id="GeometrySource5" name="mesh_1_UV">
          <float_array id="GeometrySource5-array" count="778">0.095295 0.078539 0.100505 0.118258 0.095295 0.078539 0.100505 0.037523 0.095295 0.078539 0.100505 0.118258 0.123207 0.078539 0.100505 0.037523 0.095295 0.078539 0.095295 0.078539 0.095295 0.078539 0.017468 0.037523 0.017467 0.078539 0.017467 0.118259 0.017467 0.078539 0.410794 0.275065 0.410794 0.148596 0.36912 0.275065 0.410794 0.401849 0.452468 0.275065 0.491713 0.148596 0.491713 0.275065 0.491713 0.401849 0.331088 0.40185 0.331089 0.275065 0.331089 0.148596 0.331089 0.022349 0.410794 0.148596 0.36912 0.275065 0.410794 0.275065 0.410794 0.401849 0.452468 0.275065 0.419944 0.537042 0.476385 0.42416 0.363503 0.42416 0.419944 0.537042 0.424194 0.862486 0.490181 0.862486 0.424194 0.978702 0.424194 0.755591 0.424194 0.862486 0.177225 0.015907 0.123366 0.015907 0.177225 0.138232 0.226765 0.015907 0.177225 0.015907 0.234653 0.071097 0.271689 0.015284 0.309269 0.071097 0.234653 0.071097 0.309269 0.071097 0.271689 0.132536 0.510422 0.024972 0.561312 0.024972 0.510422 0.086485 0.458554 0.086485 0.458554 0.024972 0.561312 0.086485 0.612546 0.086485 0.612546 0.024972 0.664414 0.086485 0.664414 0.024972 0.611262 0.424051 0.582495 0.498577 0.60702 0.498577 0.582495 0.435167 0.535063 0.458406 0.563131 0.498577 0.547976 0.33242 0.598618 0.332419 0.598618 0.26627 0.547976 0.26627 0.542166 0.189553 0.50477 0.183212 0.519969 0.114363 0.571838 0.114363 0.60288 0.169956 0.623071 0.114363 0.628907 0.170213 0.628981 0.26627 0.50477 0.26627 0.095295 0.078539 0.095295 0.078539 0.100505 0.118258 0.100505 0.037523 0.095295 0.078539 0.100505 0.118258 0.123207 0.078539 0.100505 0.037523 0.095295 0.078539 0.095295 0.078539 0.095295 0.078539 0.410794 0.275065 0.36912 0.275065 0.410794 0.148596 0.410794 0.401849 0.452468 0.275065 0.491713 0.148596 0.491713 0.275065 0.491713 0.401849 0.331088 0.40185 0.331089 0.275065 0.331089 0.148596 0.331089 0.022349 0.410794 0.148596 0.36912 0.275065 0.410794 0.275065 0.410794 0.401849 0.452468 0.275065 0.419944 0.537042 0.363503 0.42416 0.476385 0.42416 0.419944 0.537042 0.017467 0.118259 0.017467 0.078539 0.017468 0.037523 0.017467 0.078539 0.424194 0.862486 0.424194 0.978702 0.490181 0.862486 0.424194 0.755591 0.424194 0.862486 0.177225 0.015907 0.177225 0.138232 0.123366 0.015907 0.226765 0.015907 0.177225 0.015907 0.234653 0.071097 0.309269 0.071097 0.271689 0.015284 0.234653 0.071097 0.271689 0.132536 0.309269 0.071097 0.510422 0.024972 0.510422 0.086485 0.561312 0.024972 0.458554 0.086485 0.458554 0.024972 0.561312 0.086485 0.612546 0.086485 0.612546 0.024972 0.664414 0.086485 0.664414 0.024972 0.611262 0.424051 0.60702 0.498577 0.582495 0.498577 0.582495 0.435167 0.535063 0.458406 0.563131 0.498577 0.547976 0.33242 0.598618 0.332419 0.598618 0.26627 0.547976 0.26627 0.542166 0.189553 0.50477 0.183212 0.519969 0.114363 0.571838 0.114363 0.60288 0.169956 0.623071 0.114363 0.628907 0.170213 0.628981 0.26627 0.50477 0.26627 0.083892 0.556064 0.077859 0.679381 0.0103 0.633283 0.143526 0.689345 0.061583 0.774489 0.0103 0.734332 0.077859 0.679381 0.061583 0.774489 0.143526 0.689345 0.083892 0.556064 0.361551 0.556064 0.361551 0.591631 0.231497 0.79538 0.100158 0.928409 0.231497 0.964264 0.231497 0.79538 0.361551 0.591631 0.361551 0.774488 0.361551 0.981699 0.361551 0.774488 0.416513 0.774488 0.416513 0.981699 0.361551 0.774488 0.361551 0.981699 0.361551 0.774488 0.416513 0.774488 0.989414 0.721074 0.926904 0.88994 0.970753 0.900499 0.991 0.93022 0.970753 0.900499 0.910628 0.980964 0.864683 0.922859 0.910628 0.980964 0.743315 0.07768 0.743315 0.010855 0.787534 0.04307 0.677554 0.04307 0.989414 0.721074 0.970753 0.900499 0.926904 0.88994 0.991 0.93022 0.970753 0.900499 0.910628 0.980964 0.864683 0.922859 0.910628 0.980964 0.743315 0.07768 0.787534 0.04307 0.743315 0.010855 0.677554 0.04307 0.016986 0.366411 0.016986 0.153189 0.143485 0.335665 0.016986 0.535283 0.143485 0.335665 0.16418 0.153189 0.222142 0.324636 0.172537 0.535283 0.172537 0.535283 0.222142 0.324636 0.16418 0.153189 0.321433 0.153189 0.321433 0.334469 0.321433 0.535283 0.088919 0.977299 0.016658 0.977299 0.049234 0.867124 0.049234 0.867124 0.747137 1.52709 0.779317 1.45405 0.734501 1.34576 0.709962 1.49347 0.747137 1.52709 0.47958 0.736021 0.399594 0.736021 0.441523 0.600524 0.509248 0.505681 0.441523 0.600524 0.399594 0.736021 0.373298 0.505681 0.441523 0.600524 0.47958 0.736021 0.509248 0.505681 0.441523 0.600524 0.373298 0.505681 0.011565 0.787717 0.04327 0.843162 0.011565 0.899669 0.011565 0.899669 0.011565 0.787717 0.011565 0.899669 0.011565 0.787717 0.011565 0.899669 0.011565 0.787717 0.860682 0.895631 0.860682 0.775846 0.808814 0.955523 0.808814 0.835738 0.860682 0.895631 0.808814 0.715954 0.860682 0.775846 0.860682 0.775846 0.808814 0.715954 0.860682 0.895631 0.808814 0.835738 0.860682 0.775846 0.808814 0.955523 0.860682 0.895631 0.56363 1.91088 0.528221 1.91014 0.55432 1.97455 0.63417 1.93578 0.669638 1.97529 0.694633 1.84411 0.622968 1.81892 0.576305 1.76361 0.641 1.72714 0.618096 1.61239 0.68496 1.63452 0.736508 1.79399 0.757832 1.63641 0.684582 1.53569 0.616636 1.53846 0.556203 1.58299 0.543566 1.70938 0.510797 1.68625 0.496198 1.87569 0.650128 1.16313 0.639807 1.45563 0.723561 1.31367 0.746267 1.14313 0.729358 1.08522 0.991927 1.68159 0.899421 1.87497 0.939524 1.71538 0.920529 1.64606 0.991927 1.51769 0.916455 1.52957 0.853647 1.57607 0.873958 1.73488 0.939524 1.71538 0.920529 1.64606 0.916455 1.52957 0.853647 1.57607 0.873958 1.73488 0.784919 1.80194 0.784919 1.80194 0.736508 1.79399 0.68496 1.63452 0.694633 1.84411 0.77532 1.94559 0.669638 1.97529 0.63417 1.93578 0.55432 1.97455 0.56363 1.91088 0.622968 1.81892 0.641 1.72714 0.618096 1.61239 0.576305 1.76361 0.528221 1.91014 0.543566 1.70938 0.510797 1.68625 0.496198 1.87569 0.556203 1.58299 0.616636 1.53846 0.779317 1.45405 0.808727 1.54949 0.824707 1.45564 0.747137 1.52709 0.769125 1.62673 0.8241 1.59375 0.824707 1.64818 0.789883 1.71613 0.77532 1.94559 0.650128 1.16313 0.723561 1.31367 0.639807 1.45563 0.746267 1.14313 0.729358 1.08522 0.808727 1.54949 0.747137 1.52709 0.769125 1.62673 0.8241 1.59375 0.824707 1.64818 0.789883 1.71613 0.767494 1.19517 0.795551 1.05459 0.835132 1.13991 0.761645 1.15189 0.779836 1.29499 0.839427 1.23026 0.89064 1.17544 0.940841 1.12301 0.927246 1.03933 0.838089 1.02433 0.835132 1.13991 0.940841 1.12301 0.991927 1.17232 0.949172 1.18703 0.991927 1.27678 0.949172 1.18703 0.928433 1.2067 0.928375 1.29069 0.928375 1.29069 0.928433 1.2067 0.89064 1.17544 0.902421 1.23137 0.879046 1.33985 0.829706 1.4242 0.826439 1.32997 0.853297 1.28822 0.880969 1.27038 0.839427 1.23026 0.779836 1.29499 0.798903 1.34176 0.782938 1.40309 0.782938 1.40309 0.798903 1.34176 0.829706 1.4242 0.826439 1.32997 0.879046 1.33985 0.902421 1.23137 0.880969 1.27038 0.853297 1.28822 0.795551 1.05459 0.767494 1.19517 0.761645 1.15189</float_array>
          <technique_common>
            <accessor source="#GeometrySource5-array" count="389" stride="2">
              <param name="S" type="float"/>
              <param name="T" type="float"/>
            </accessor>
          </technique_common>
        </source>
        <source id="GeometrySource6" name="mesh_1_Clr">
          <float_array id="GeometrySource6-array" count="1556">1 1 1 1 1 1 1 1 1 1 1 1 1 1 1 1 1 1 1 1 0.941176 0.941176 0.941176 1 0.752941 0.752941 0.752941 1 0.941176 0.941176 0.941176 1 0.941176 0.941176 0.941176 1 1 1 1 1 1 1 1 1 1 1 1 1 1 1 1 1 0.941176 0.941176 0.941176 1 0.941176 0.941176 0.941176 1 1 1 1 1 1 1 1 1 1 1 1 1 1 1 1 1 1 1 1 1 1 1 1 1 1 1 1 1 1 1 1 1 1 1 1 1 1 1 1 1 1 1 1 1 1 1 1 1 1 1 1 1 1 1 1 1 1 1 1 1 1 1 1 1 1 1 1 1 1 1 1 1 1 1 1 1 1 1 1 1 1 1 1 1 1 1 1 1 0.376471 0.376471 0.376471 1 1 1 1 1 0.941176 0.941176 0.941176 1 1 1 1 1 1 1 1 1 1 1 1 1 0.564706 0.564706 0.564706 1 0.941176 0.941176 0.941176 1 1 1 1 1 1 1 1 1 0.941176 0.941176 0.941176 1 1 1 1 1 1 1 1 1 1 1 1 1 1 1 1 1 1 1 1 1 1 1 1 1 1 1 1 1 0.941176 0.941176 0.941176 1 0.941176 0.941176 0.941176 1 1 1 1 1 1 1 1 1 1 1 1 1 0.941176 0.941176 0.941176 1 0.941176 0.941176 0.941176 1 1 1 1 1 1 1 1 1 1 1 1 1 1 1 1 1 1 1 1 1 1 1 1 1 1 1 1 1 1 1 1 1 0.941176 0.941176 0.941176 1 0.941176 0.941176 0.941176 1 0.941176 0.941176 0.941176 1 1 1 1 1 1 1 1 1 0.941176 0.941176 0.941176 1 0.941176 0.941176 0.941176 1 1 1 1 1 1 1 1 1 1 1 1 1 1 1 1 1 1 1 1 1 1 1 1 1 1 1 1 1 1 1 1 1 1 1 1 1 0.752941 0.752941 0.752941 1 0.752941 0.752941 0.752941 1 0.941176 0.941176 0.941176 1 0.941176 0.941176 0.941176 1 1 1 1 1 1 1 1 1 1 1 1 1 1 1 1 1 1 1 1 1 1 1 1 1 1 1 1 1 1 1 1 1 1 1 1 1 1 1 1 1 1 1 1 1 1 1 1 1 1 1 1 1 1 1 1 1 1 1 1 1 1 1 1 1 1 1 1 1 1 1 1 1 1 1 1 1 1 1 1 1 1 1 1 1 1 1 1 1 1 1 1 1 0.941176 0.941176 0.941176 1 0.941176 0.941176 0.941176 1 1 1 1 1 1 1 1 1 1 1 1 1 1 1 1 1 0.376471 0.376471 0.376471 1 0.941176 0.941176 0.941176 1 1 1 1 1 1 1 1 1 0.564706 0.564706 0.564706 1 1 1 1 1 0.941176 0.941176 0.941176 1 1 1 1 1 1 1 1 1 1 1 1 1 0.941176 0.941176 0.941176 1 1 1 1 1 1 1 1 1 1 1 1 1 1 1 1 1 1 1 1 1 1 1 1 1 0.941176 0.941176 0.941176 1 0.941176 0.941176 0.941176 1 1 1 1 1 1 1 1 1 1 1 1 1 0.941176 0.941176 0.941176 1 0.941176 0.941176 0.941176 1 1 1 1 1 1 1 1 1 1 1 1 1 1 1 1 1 1 1 1 1 1 1 1 1 1 1 1 1 1 1 1 1 0.941176 0.941176 0.941176 1 0.941176 0.941176 0.941176 1 0.941176 0.941176 0.941176 1 1 1 1 1 1 1 1 1 0.941176 0.941176 0.941176 1 0.941176 0.941176 0.941176 1 1 1 1 1 1 1 1 1 1 1 1 1 1 1 1 1 0.752941 0.752941 0.752941 1 1 1 1 1 0.941176 0.941176 0.941176 1 1 1 1 1 0.941176 0.941176 0.941176 0.941176 0.941176 0.941176 0.941176 1 1 1 1 1 0.941176 0.941176 0.941176 0.941176 1 1 1 1 0.752941 0.752941 0.752941 1 0.752941 0.752941 0.752941 1 0.941176 0.941176 0.941176 1 1 1 1 1 0.941176 0.941176 0.941176 0.941176 1 1 1 1 1 1 1 1 0.941176 0.941176 0.941176 1 1 1 1 1 1 1 1 1 1 1 1 1 0.941176 0.941176 0.941176 1 0.752941 0.752941 0.752941 1 1 1 1 1 1 1 1 1 1 1 1 1 0.941176 0.941176 0.941176 1 0.188235 0.188235 0.188235 1 1 1 1 1 0.941176 0.941176 0.941176 1 0.752941 0.752941 0.752941 1 0.752941 0.752941 0.752941 1 0.941176 0.941176 0.941176 1 1 1 1 1 0.941176 0.941176 0.941176 1 0.941176 0.941176 0.941176 1 0.941176 0.941176 0.941176 1 1 1 1 1 0.752941 0.752941 0.752941 1 0.188235 0.188235 0.188235 1 0.941176 0.941176 0.941176 1 1 1 1 1 0.752941 0.752941 0.752941 1 0.752941 0.752941 0.752941 1 0.941176 0.941176 0.941176 1 1 1 1 1 0.941176 0.941176 0.941176 1 0.941176 0.941176 0.941176 1 1 1 1 1 0.941176 0.941176 0.941176 1 0.752941 0.752941 0.752941 1 0.941176 0.941176 0.941176 1 0.941176 0.941176 0.941176 1 0.752941 0.752941 0.752941 1 0.376471 0.376471 0.376471 1 0.752941 0.752941 0.752941 1 0.941176 0.941176 0.941176 0.941176 1 1 1 1 0.941176 0.941176 0.941176 1 0.941176 0.941176 0.941176 1 1 1 1 1 0.941176 0.941176 0.941176 0.941176 0.941176 0.941176 0.941176 0.941176 1 1 1 1 1 1 1 1 1 1 1 1 0.376471 0.376471 0.376471 1 0.941176 0.941176 0.941176 1 0.941176 0.941176 0.941176 1 0.752941 0.752941 0.752941 1 0.752941 0.752941 0.752941 1 0.188235 0.188235 0.188235 1 0.376471 0.376471 0.376471 1 0.752941 0.752941 0.752941 1 0.941176 0.941176 0.941176 1 1 1 1 1 1 1 1 1 1 1 1 1 1 1 1 1 1 1 1 1 1 1 1 1 1 1 1 1 0.941176 0.941176 0.941176 1 1 1 1 1 1 1 1 1 1 1 1 1 1 1 1 1 0.564706 0.564706 0.564706 1 1 1 1 1 1 1 1 1 1 1 1 1 1 1 1 1 1 1 1 1 1 1 1 1 1 1 1 1 0.752941 0.752941 0.752941 1 0.941176 0.941176 0.941176 1 0.564706 0.564706 0.564706 1 1 1 1 1 0.941176 0.941176 0.941176 1 1 1 1 1 1 1 1 1 1 1 1 1 1 1 1 1 0.941176 0.941176 0.941176 1 1 1 1 1 0.941176 0.941176 0.941176 1 0.564706 0.564706 0.564706 1 0.752941 0.752941 0.752941 1 1 1 1 1 1 1 1 1 1 1 1 1 1 1 1 1 1 1 1 1 1 1 1 1 1 1 1 1 1 1 1 1 1 1 1 1 1 1 1 1 1 1 1 1 1 1 1 1 1 1 1 1 1 1 1 1 1 1 1 1 1 1 1 1 1 1 1 1 1 1 1 1 1 1 1 1 1 1 1 1 1 1 1 1 1 1 1 1 1 1 1 1 1 1 1 1 1 1 1 1 0.752941 0.752941 0.752941 1 1 1 1 1 1 1 1 1 1 1 1 1 1 1 1 1 1 1 1 1 1 1 1 1 1 1 1 1 1 1 1 1 1 1 1 1 1 1 1 1 1 1 1 1 0.752941 0.752941 0.752941 1 0.752941 0.752941 0.752941 1 1 1 1 1 1 1 1 1 1 1 1 1 0.752941 0.752941 0.752941 1 1 1 1 1 1 1 1 1 1 1 1 1 1 1 1 1 1 1 1 1 1 1 1 1 1 1 1 1 1 1 1 1 1 1 1 1 1 1 1 1 1 1 1 1 1 1 1 1 1 1 1 1 1 1 1 1 0.752941 0.752941 0.752941 1 1 1 1 1 1 1 1 1 0.752941 0.752941 0.752941 1 1 1 1 1 1 1 1 1 1 1 1 1 1 1 1 1 0.752941 0.752941 0.752941 1 1 1 1 1 1 1 1 1 1 1 1 1 1 1 1 1 1 1 1 1 1 1 1 1 0.752941 0.752941 0.752941 1 1 1 1 1 1 1 1 1 1 1 1 1 1 1 1 1 1 1 1 1 0.752941 0.752941 0.752941 1 0.564706 0.564706 0.564706 1 1 1 1 1 0.941176 0.941176 0.941176 1 0.941176 0.941176 0.941176 1 0.941176 0.941176 0.941176 1 0.941176 0.941176 0.941176 1 0.564706 0.564706 0.564706 1 0.376471 0.376471 0.376471 1 0.564706 0.564706 0.564706 1 0.941176 0.941176 0.941176 1 1 1 1 1 1 1 1 1 0.941176 0.941176 0.941176 0.941176 1 1 1 1 1 1 1 1 0.941176 0.941176 0.941176 0.941176 0.941176 0.941176 0.941176 0.941176 0.941176 0.941176 0.941176 1 0.941176 0.941176 0.941176 1 1 1 1 1 0.941176 0.941176 0.941176 0.941176 1 1 1 1 1 1 1 1 1 1 1 1 1 1 1 1 0.941176 0.941176 0.941176 1 0.941176 0.941176 0.941176 1 1 1 1 1 1 1 1 1 1 1 1 1 1 1 1 1 1 1 1 1 1 1 1 1 0.941176 0.941176 0.941176 0.941176 1 1 1 1 1 1 1 1 1 1 1 1 0.752941 0.752941 0.752941 1 1 1 1 1 1 1 1 1</float_array>
          <technique_common>
            <accessor source="#GeometrySource6-array" count="389" stride="4">
              <param name="R" type="float"/>
              <param name="G" type="float"/>
              <param name="B" type="float"/>
              <param name="A" type="float"/>
            </accessor>
          </technique_common>
        </source>
        <vertices id="Geometry1-vertices">
          <input semantic="POSITION" source="#GeometrySource3"/>
          <input semantic="NORMAL" source="#GeometrySource4"/>
          <input semantic="TEXCOORD" source="#GeometrySource5"/>
          <input semantic="COLOR" source="#GeometrySource6"/>
        </vertices>
        <triangles material="VisualMaterial10" count="472">
          <input semantic="VERTEX" source="#Geometry1-vertices" offset="0"/>
          <p>0 1 2 3 0 2 4 3 2 2 1 4 4 1 5 4 5 6 7 4 6 7 3 4 8 3 7 8 7 6 5 8 6 5 1 8 8 1 9 9 3 8 9 1 10 10 3 9 3 10 11 11 0 3 12 0 11 1 0 13 13 10 1 13 0 12 14 10 13 11 10 14 15 16 17 15 17 18 15 18 19 15 19 16 19 20 16 19 21 20 19 22 21 18 22 19 17 23 18 17 24 23 16 25 17 17 25 24 16 26 25 16 20 26 27 26 20 27 25 26 28 25 27 28 24 25 28 23 24 29 28 27 30 23 28 29 30 28 31 21 22 31 22 30 27 20 31 29 27 31 29 31 30 31 20 21 32 33 34 34 33 35 36 37 38 36 39 37 40 38 37 39 40 37 41 42 43 41 43 44 44 43 45 45 43 42 46 47 48 49 50 51 52 53 54 54 55 52 52 55 56 54 53 57 53 58 57 59 58 53 59 60 58 61 60 59 62 63 64 63 62 65 66 63 65 67 63 66 65 68 66 62 69 65 69 68 65 69 70 68 68 70 71 71 70 72 73 71 72 73 72 74 74 72 75 75 72 76 72 70 76 76 77 75 70 78 76 76 78 77 70 79 78 80 71 73 81 82 83 84 82 81 82 85 83 85 82 84 85 86 83 85 87 86 88 87 85 88 85 84 89 87 88 86 87 89 86 89 83 89 88 84 84 90 89 89 90 83 90 91 83 91 90 84 92 93 94 92 95 93 92 96 95 92 94 96 96 94 97 96 97 98 96 98 99 95 96 99 93 95 100 93 100 101 93 101 102 94 93 102 94 102 103 94 103 97 104 97 103 104 103 102 105 101 100 105 102 101 105 104 102 106 104 105 106 105 107 107 105 100 108 107 99 108 98 97 106 108 104 106 107 108 104 108 97 108 99 98 109 110 111 110 112 111 113 83 91 83 113 81 114 113 91 84 115 91 115 84 81 115 114 91 113 116 81 116 115 81 117 118 119 117 119 120 120 119 121 121 119 118 122 123 124 122 125 123 125 126 123 126 124 123 127 128 129 130 131 132 133 134 135 134 133 136 133 137 136 134 138 135 135 138 139 140 135 139 140 139 141 142 140 141 143 144 145 145 146 143 147 146 145 148 147 145 146 147 149 150 146 149 143 146 150 150 149 151 149 152 151 152 153 151 154 153 152 154 155 153 155 156 153 156 157 153 153 157 151 157 156 158 157 158 159 151 157 159 151 159 160 161 154 152 162 163 164 163 162 165 163 165 166 166 167 163 167 164 163 167 168 164 169 168 167 168 169 170 168 170 171 171 164 168 164 171 162 172 162 171 162 172 173 165 162 173 165 173 174 166 165 174 166 174 175 175 174 176 169 177 170 175 176 177 169 175 177 171 178 172 170 177 178 170 178 171 179 178 177 177 180 179 180 177 176 180 176 174 174 181 180 181 174 173 182 183 184 183 185 184 183 186 185 187 186 183 188 189 190 188 190 191 192 188 191 189 188 192 193 192 191 189 192 193 189 193 194 195 190 189 195 189 194 190 195 191 196 197 198 196 199 197 200 201 202 200 203 201 204 203 200 202 204 200 202 205 204 205 203 204 202 206 205 207 202 201 207 206 202 201 203 207 208 209 210 208 210 211 212 213 214 212 214 215 212 215 216 212 216 213 213 216 217 216 218 217 216 219 218 216 215 219 214 220 215 214 221 220 214 222 221 213 222 214 221 222 223 218 223 217 223 218 224 223 224 221 224 225 221 221 225 220 218 219 225 224 218 225 226 227 228 229 227 226 230 231 232 230 232 233 234 232 231 234 233 232 235 236 237 238 235 237 235 238 239 239 240 235 241 240 239 241 242 240 242 243 240 243 242 244 244 245 243 243 245 236 245 246 236 237 236 246 247 248 249 247 250 248 250 251 248 248 251 252 253 248 252 253 254 248 254 255 248 255 249 248 256 257 258 256 259 257 258 259 256 260 259 258 257 259 261 260 258 261 257 261 258 261 259 262 260 262 259 262 260 261 263 264 265 264 263 266 263 265 266 267 264 266 265 268 266 268 264 267 264 268 265 269 268 267 269 267 266 268 269 266 270 271 272 273 270 272 274 273 272 273 274 275 273 276 270 273 275 276 276 277 270 271 270 277 275 278 276 278 277 276 278 279 277 278 280 279 275 280 278 281 280 275 280 281 282 283 280 282 279 280 283 284 279 283 284 285 279 279 286 277 277 286 271 279 285 286 287 271 286 286 285 287 288 271 287 289 290 291 292 289 291 289 292 293 294 295 296 294 296 297 298 294 297 299 298 297 297 300 299 296 295 301 301 300 297 296 301 297 294 302 295 294 303 302 298 303 294 304 303 298 303 304 305 302 306 295 306 303 305 302 303 306 307 282 281 308 309 282 310 282 309 283 282 310 309 311 310 312 311 309 313 311 312 314 311 313 313 315 314 314 315 316 314 317 311 314 316 317 311 317 318 311 318 310 318 319 310 319 283 310 317 316 320 318 317 320 318 320 319 316 315 321 321 320 316 320 321 322 319 320 322 323 322 321 324 323 321 319 322 325 322 323 325 326 319 325 326 283 319 327 328 329 327 330 328 328 330 331 328 331 332 333 332 331 333 331 334 335 281 275 274 335 275 336 337 338 339 337 336 336 340 339 327 329 341 327 341 342 341 343 342 341 344 343 345 343 344 345 346 343 347 348 349 347 350 348 349 351 347 349 352 351 349 353 352 354 353 349 355 354 349 349 348 356 355 349 356 355 356 357 355 357 358 358 359 355 354 355 359 360 359 358 359 360 361 359 361 362 362 354 359 363 353 354 362 363 354 361 298 364 299 364 298 361 364 362 362 364 363 361 360 365 361 365 298 304 298 365 360 358 366 360 366 365 358 357 367 366 358 367 368 366 367 368 365 366 369 365 368 369 304 365 304 369 305 305 369 370 369 371 370 369 372 371 373 372 369 367 373 368 368 373 369 357 374 367 373 367 374 372 373 374 374 371 372 357 375 374 371 374 375 375 376 371 371 376 370 370 376 377 377 376 375 378 351 379 380 378 379 381 351 352 351 381 379 381 380 379 382 380 381 299 300 382 382 364 299 300 380 382 382 383 364 383 363 364 383 353 363 384 352 353 383 382 384 353 383 384 385 352 384 384 382 385 382 381 385 352 385 381 357 356 386 357 387 375 387 357 386 387 386 388</p>
        </triangles>
      </mesh>
    </geometry>
  </library_geometries>
  <library_controllers>
    <controller id="Controller">
      <skin source="#Geometry">
        <bind_shape_matrix>1 0 0 0 0 1 0 0 0 0 1 0 0 0 0 1</bind_shape_matrix>
        <source id="Controller-joints">
          <Name_array id="Controller-joints-array" count="12">wristL armL2 armL1 wristR armR2 armR1 hair head spine waist skl_root all_root</Name_array>
          <technique_common>
            <accessor source="#Controller-joints-array" count="12" stride="1">
              <param name="JOINT" type="Name"/>
            </accessor>
          </technique_common>
        </source>
        <source id="Controller-bind_poses">
          <float_array id="Controller-bind_poses-array" count="192">1 0 0 -5.94795 0 1 0 -4.96804 0 0 1 1.27574 0 0 0 1 1 0 0 -4.20682 0 1 0 -4.96804 0 0 1 1.27574 0 0 0 1 1 0 0 -1.91088 0 1 0 -4.96804 0 0 1 1.27574 0 0 0 1 -1 -0.000007 0 -5.94793 -0.000007 1 -0.000002 -4.96804 0 -0.000002 -1 -1.27573 0 0 0 1 -1 -0.000007 0 -4.2068 -0.000007 1 -0.000002 -4.96804 0 -0.000002 -1 -1.27573 0 0 0 1 -1 -0.000007 0 -1.91086 -0.000007 1 -0.000002 -4.96804 0 -0.000002 -1 -1.27573 0 0 0 1 0.000002 0.000003 -1 -1.713 -0.000007 1 0.000003 -7.78076 1 0.000007 0.000002 -0.000034 0 0 0 1 0 -0.000003 1 1.27576 -1 -0.000003 0 0.00001 0.000003 -1 -0.000003 6.41824 0 0 0 1 -0.000003 1 0 -3.01497 -1 -0.000003 0 0.00001 0 0 1 1.27574 0 0 0 1 -0.000003 0 1 1.27574 0 1 0 -1.46746 -1 0 -0.000003 -0.000004 0 0 0 1 1 0 0 0 0 1 0 0 0 0 1 1.27574 0 0 0 1 1 0 0 0 0 1 0 0 0 0 1 0 0 0 0 1</float_array>
          <technique_common>
            <accessor source="#Controller-bind_poses-array" count="12" stride="16">
              <param name="TRANSFORM" type="float4x4"/>
            </accessor>
          </technique_common>
        </source>
        <source id="Controller-weights">
          <float_array id="Controller-weights-array" count="1">1</float_array>
          <technique_common>
            <accessor source="#Controller-weights-array" count="1" stride="1">
              <param name="WEIGHT" type="float"/>
            </accessor>
          </technique_common>
        </source>
        <joints>
          <input semantic="JOINT" source="#Controller-joints"/>
          <input semantic="INV_BIND_MATRIX" source="#Controller-bind_poses"/>
        </joints>
        <vertex_weights count="31">
          <input semantic="JOINT" source="#Controller-joints" offset="0"/>
          <input semantic="WEIGHT" source="#Controller-weights" offset="1"/>
          <vcount>1 1 1 1 1 1 1 1 1 1 1 1 1 1 1 1 1 1 1 1 1 1 1 1 1 1 1 1 1 1 1 </vcount>
          <v>7 0 7 0 7 0 7 0 7 0 7 0 7 0 7 0 7 0 7 0 7 0 7 0 7 0 7 0 7 0 7 0 7 0 7 0 7 0 7 0 7 0 7 0 7 0 7 0 7 0 7 0 7 0 7 0 7 0 7 0 7 0</v>
        </vertex_weights>
      </skin>
      <extra>
        <technique profile="FCOLLADA">
          <user_properties>SkinController</user_properties>
        </technique>
      </extra>
    </controller>
    <controller id="Controller1">
      <skin source="#Geometry1">
        <bind_shape_matrix>1 0 0 0 0 1 0 0 0 0 1 0 0 0 0 1</bind_shape_matrix>
        <source id="Controller1-joints">
          <Name_array id="Controller1-joints-array" count="12">wristL armL2 armL1 wristR armR2 armR1 hair head spine waist skl_root all_root</Name_array>
          <technique_common>
            <accessor source="#Controller1-joints-array" count="12" stride="1">
              <param name="JOINT" type="Name"/>
            </accessor>
          </technique_common>
        </source>
        <source id="Controller1-bind_poses">
          <float_array id="Controller1-bind_poses-array" count="192">1 0 0 -5.94795 0 1 0 -4.96804 0 0 1 1.27574 0 0 0 1 1 0 0 -4.20682 0 1 0 -4.96804 0 0 1 1.27574 0 0 0 1 1 0 0 -1.91088 0 1 0 -4.96804 0 0 1 1.27574 0 0 0 1 -1 -0.000007 0 -5.94793 -0.000007 1 -0.000002 -4.96804 0 -0.000002 -1 -1.27573 0 0 0 1 -1 -0.000007 0 -4.2068 -0.000007 1 -0.000002 -4.96804 0 -0.000002 -1 -1.27573 0 0 0 1 -1 -0.000007 0 -1.91086 -0.000007 1 -0.000002 -4.96804 0 -0.000002 -1 -1.27573 0 0 0 1 0.000002 0.000003 -1 -1.713 -0.000007 1 0.000003 -7.78076 1 0.000007 0.000002 -0.000034 0 0 0 1 0 -0.000003 1 1.27576 -1 -0.000003 0 0.00001 0.000003 -1 -0.000003 6.41824 0 0 0 1 -0.000003 1 0 -3.01497 -1 -0.000003 0 0.00001 0 0 1 1.27574 0 0 0 1 -0.000003 0 1 1.27574 0 1 0 -1.46746 -1 0 -0.000003 -0.000004 0 0 0 1 1 0 0 0 0 1 0 0 0 0 1 1.27574 0 0 0 1 1 0 0 0 0 1 0 0 0 0 1 0 0 0 0 1</float_array>
          <technique_common>
            <accessor source="#Controller1-bind_poses-array" count="12" stride="16">
              <param name="TRANSFORM" type="float4x4"/>
            </accessor>
          </technique_common>
        </source>
        <source id="Controller1-weights">
          <float_array id="Controller1-weights-array" count="1">1</float_array>
          <technique_common>
            <accessor source="#Controller1-weights-array" count="1" stride="1">
              <param name="WEIGHT" type="float"/>
            </accessor>
          </technique_common>
        </source>
        <joints>
          <input semantic="JOINT" source="#Controller1-joints"/>
          <input semantic="INV_BIND_MATRIX" source="#Controller1-bind_poses"/>
        </joints>
        <vertex_weights count="389">
          <input semantic="JOINT" source="#Controller1-joints" offset="0"/>
          <input semantic="WEIGHT" source="#Controller1-weights" offset="1"/>
          <vcount>1 1 1 1 1 1 1 1 1 1 1 1 1 1 1 1 1 1 1 1 1 1 1 1 1 1 1 1 1 1 1 1 1 1 1 1 1 1 1 1 1 1 1 1 1 1 1 1 1 1 1 1 1 1 1 1 1 1 1 1 1 1 1 1 1 1 1 1 1 1 1 1 1 1 1 1 1 1 1 1 1 1 1 1 1 1 1 1 1 1 1 1 1 1 1 1 1 1 1 1 1 1 1 1 1 1 1 1 1 1 1 1 1 1 1 1 1 1 1 1 1 1 1 1 1 1 1 1 1 1 1 1 1 1 1 1 1 1 1 1 1 1 1 1 1 1 1 1 1 1 1 1 1 1 1 1 1 1 1 1 1 1 1 1 1 1 1 1 1 1 1 1 1 1 1 1 1 1 1 1 1 1 1 1 1 1 1 1 1 1 1 1 1 1 1 1 1 1 1 1 1 1 1 1 1 1 1 1 1 1 1 1 1 1 1 1 1 1 1 1 1 1 1 1 1 1 1 1 1 1 1 1 1 1 1 1 1 1 1 1 1 1 1 1 1 1 1 1 1 1 1 1 1 1 1 1 1 1 1 1 1 1 1 1 1 1 1 1 1 1 1 1 1 1 1 1 1 1 1 1 1 1 1 1 1 1 1 1 1 1 1 1 1 1 1 1 1 1 1 1 1 1 1 1 1 1 1 1 1 1 1 1 1 1 1 1 1 1 1 1 1 1 1 1 1 1 1 1 1 1 1 1 1 1 1 1 1 1 1 1 1 1 1 1 1 1 1 1 1 1 1 1 1 1 1 1 1 1 1 1 1 1 1 1 1 1 1 1 1 1 1 1 1 1 1 1 1 1 1 1 1 1 1 1 1 1 1 1 1 </vcount>
          <v>5 0 5 0 4 0 5 0 4 0 4 0 4 0 4 0 4 0 4 0 5 0 5 0 5 0 5 0 5 0 5 0 5 0 5 0 5 0 5 0 5 0 5 0 5 0 5 0 5 0 5 0 5 0 5 0 5 0 5 0 5 0 5 0 5 0 5 0 5 0 5 0 5 0 5 0 5 0 5 0 5 0 5 0 5 0 5 0 5 0 5 0 4 0 4 0 4 0 4 0 4 0 4 0 4 0 4 0 4 0 4 0 4 0 4 0 4 0 4 0 4 0 4 0 3 0 4 0 4 0 3 0 3 0 4 0 3 0 3 0 3 0 3 0 3 0 3 0 4 0 4 0 3 0 4 0 3 0 3 0 3 0 2 0 1 0 2 0 2 0 1 0 1 0 1 0 1 0 1 0 1 0 2 0 2 0 2 0 2 0 2 0 2 0 2 0 2 0 2 0 2 0 2 0 2 0 2 0 2 0 2 0 2 0 2 0 2 0 2 0 2 0 2 0 2 0 2 0 2 0 2 0 2 0 2 0 2 0 2 0 2 0 2 0 2 0 2 0 2 0 2 0 2 0 1 0 1 0 1 0 1 0 1 0 1 0 1 0 1 0 1 0 1 0 1 0 1 0 1 0 1 0 1 0 1 0 0 0 1 0 1 0 0 0 0 0 1 0 0 0 0 0 0 0 0 0 0 0 0 0 1 0 1 0 0 0 1 0 0 0 0 0 0 0 9 0 10 0 10 0 9 0 10 0 8 0 10 0 10 0 9 0 9 0 9 0 9 0 9 0 10 0 9 0 9 0 9 0 9 0 9 0 9 0 9 0 9 0 9 0 9 0 9 0 9 0 9 0 9 0 9 0 9 0 9 0 9 0 9 0 9 0 9 0 9 0 9 0 9 0 9 0 9 0 9 0 9 0 9 0 9 0 9 0 9 0 9 0 9 0 9 0 9 0 8 0 8 0 8 0 8 0 8 0 10 0 8 0 8 0 8 0 8 0 10 0 10 0 8 0 8 0 8 0 8 0 8 0 8 0 7 0 7 0 8 0 7 0 7 0 7 0 7 0 7 0 7 0 7 0 7 0 7 0 7 0 7 0 7 0 7 0 7 0 7 0 7 0 7 0 7 0 7 0 7 0 7 0 7 0 7 0 7 0 7 0 7 0 7 0 7 0 7 0 7 0 7 0 7 0 7 0 7 0 7 0 7 0 7 0 7 0 7 0 7 0 7 0 7 0 7 0 7 0 7 0 7 0 7 0 7 0 7 0 7 0 7 0 7 0 7 0 7 0 7 0 7 0 7 0 7 0 7 0 7 0 6 0 7 0 7 0 7 0 7 0 7 0 7 0 7 0 7 0 7 0 7 0 7 0 7 0 7 0 7 0 7 0 7 0 7 0 7 0 7 0 7 0 7 0 7 0 7 0 7 0 7 0 7 0 7 0 7 0 7 0 7 0 7 0 7 0 7 0 7 0 7 0 7 0 7 0 7 0 7 0 7 0 7 0 7 0 7 0 7 0 7 0 7 0 6 0 7 0 7 0 7 0 7 0 7 0 7 0 6 0 7 0 6 0 7 0 6 0 6 0 6 0 6 0 6 0 7 0 6 0 6 0 6 0 6 0 6 0 6 0 6 0 6 0 6 0 6 0 6 0 6 0 6 0 7 0 6 0 6 0 6 0 6 0 6 0 6 0 6 0 6 0 6 0 7 0 6 0 6 0 6 0 6 0 6 0 7 0 6 0 7 0</v>
        </vertex_weights>
      </skin>
      <extra>
        <technique profile="FCOLLADA">
          <user_properties>SkinController</user_properties>
        </technique>
      </extra>
    </controller>
  </library_controllers>
  <library_visual_scenes>
    <visual_scene id="VisualSceneNode" name="rdmscene">
      <node id="VisualSceneNode1" name="all_root" sid="all_root" type="JOINT">
        <matrix>1 0 0 0 0 1 0 0 0 0 1 0 0 0 0 1</matrix>
        <node id="VisualSceneNode2" name="skl_root" sid="skl_root" type="JOINT">
          <matrix>1 0 0 0 0 1 0 0 0 0 1 -1.27574 0 0 0 1</matrix>
          <node id="VisualSceneNode3" name="spine" sid="spine" type="JOINT">
            <matrix>-0.000003 -1 0 0 1 -0.000003 0 3.01497 0 0 1 0 0 0 0 1</matrix>
            <node id="VisualSceneNode4" name="armL1" sid="armL1" type="JOINT">
              <matrix>-0.000003 1 0 1.95306 -1 -0.000003 0 -1.91089 0 0 1 0 0 0 0 1</matrix>
              <node id="VisualSceneNode5" name="armL2" sid="armL2" type="JOINT">
                <matrix>1 0 0 2.29594 0 1 0 0 0 0 1 0 0 0 0 1</matrix>
                <node id="VisualSceneNode6" name="wristL" sid="wristL" type="JOINT">
                  <matrix>1 0 0 1.74113 0 1 0 0 0 0 1 0 0 0 0 1</matrix>
                </node>
              </node>
            </node>
            <node id="VisualSceneNode7" name="armR1" sid="armR1" type="JOINT">
              <matrix>-0.000003 1 -0.000002 1.95306 1 0.000003 0 1.91089 0 -0.000002 -1 0 0 0 0 1</matrix>
              <node id="VisualSceneNode8" name="armR2" sid="armR2" type="JOINT">
                <matrix>1 0 0 2.29594 0 1 0 -0.000000 0 0 1 0 0 0 0 1</matrix>
                <node id="VisualSceneNode9" name="wristR" sid="wristR" type="JOINT">
                  <matrix>1 0 0 1.74113 0 1 0 -0.000000 0 0 1 0.000000 0 0 0 1</matrix>
                </node>
              </node>
            </node>
            <node id="VisualSceneNode10" name="head" sid="head" type="JOINT">
              <matrix>-0.000003 0 -1 3.40327 0 1 0 0 1 0 -0.000003 0 0 0 0 1</matrix>
              <node id="VisualSceneNode11" name="hair" sid="hair" type="JOINT">
                <matrix>-1 0 0.000002 -0.437238 -0.000002 0.000003 -1 0 0 -1 -0.000003 -1.36252 0 0 0 1</matrix>
              </node>
            </node>
          </node>
          <node id="VisualSceneNode12" name="waist" sid="waist" type="JOINT">
            <matrix>-0.000003 0 -1 0 0 1 0 1.46746 1 0 -0.000003 0 0 0 0 1</matrix>
          </node>
        </node>
      </node>
      <node id="VisualSceneNode13" name="mesh_0_" type="NODE">
        <matrix>1 0 0 0 0 1 0 0 0 0 1 0 0 0 0 1</matrix>
        <instance_controller url="#Controller">
          <skeleton>#VisualSceneNode1</skeleton>
          <bind_material>
            <technique_common>
              <instance_material symbol="VisualMaterial0" target="#VisualMaterial"/>
            </technique_common>
          </bind_material>
        </instance_controller>
      </node>
      <node id="VisualSceneNode14" name="mesh_1_" type="NODE">
        <matrix>1 0 0 0 0 1 0 0 0 0 1 0 0 0 0 1</matrix>
        <instance_controller url="#Controller1">
          <skeleton>#VisualSceneNode1</skeleton>
          <bind_material>
            <technique_common>
              <instance_material symbol="VisualMaterial10" target="#VisualMaterial1"/>
            </technique_common>
          </bind_material>
        </instance_controller>
      </node>
    </visual_scene>
  </library_visual_scenes>
  <scene>
    <instance_visual_scene url="#VisualSceneNode"/>
  </scene>
</COLLADA>
