<?xml version="1.0" encoding="utf-8"?>
<COLLADA xmlns="http://www.collada.org/2005/11/COLLADASchema" version="1.4.1">
  <asset>
    <created>2018-07-02T02:57:50Z</created>
    <modified>2018-07-02T02:57:50Z</modified>
  </asset>
  <library_images>
    <image id="Image">
      <init_from>./lg_eye.0.png</init_from>
    </image>
    <image id="Image1">
      <init_from>./lg_all.png</init_from>
    </image>
  </library_images>
  <library_materials>
    <material id="VisualMaterial" name="mat_lg_eye">
      <instance_effect url="#Effect"/>
      <extra>
        <technique profile="FCOLLADA">
          <user_properties>mat_lg_eye</user_properties>
        </technique>
      </extra>
    </material>
    <material id="VisualMaterial1" name="mat_lg_body">
      <instance_effect url="#Effect1"/>
      <extra>
        <technique profile="FCOLLADA">
          <user_properties>mat_lg_body</user_properties>
        </technique>
      </extra>
    </material>
  </library_materials>
  <library_effects>
    <effect id="Effect" name="lg_eye_0_png">
      <profile_COMMON>
        <newparam sid="Image-surface">
          <surface type="2D">
            <init_from>Image</init_from>
            <format>A8R8G8B8</format>
          </surface>
        </newparam>
        <newparam sid="Image-sampler">
          <sampler2D>
            <source>Image-surface</source>
            <wrap_s>WRAP</wrap_s>
            <wrap_t>WRAP</wrap_t>
            <minfilter>NONE</minfilter>
            <magfilter>NONE</magfilter>
            <mipfilter>NONE</mipfilter>
          </sampler2D>
        </newparam>
        <technique sid="common">
          <phong>
            <emission>
              <color>0 0 0 1</color>
            </emission>
            <ambient>
              <color>0 0 0 1</color>
            </ambient>
            <diffuse>
              <texture texture="Image-sampler" texcoord=""/>
            </diffuse>
            <specular>
              <color>1 1 1 1</color>
            </specular>
            <shininess>
              <float>0</float>
            </shininess>
            <transparent opaque="A_ONE">
              <color>0 0 0 1</color>
            </transparent>
            <transparency>
              <float>1</float>
            </transparency>
            <index_of_refraction>
              <float>1.55</float>
            </index_of_refraction>
          </phong>
          <extra>
            <technique profile="FCOLLADA">
              <spec_level>
                <float>0</float>
              </spec_level>
            </technique>
          </extra>
        </technique>
      </profile_COMMON>
      <extra>
        <technique profile="FCOLLADA">
          <user_properties>lg_eye.0.png</user_properties>
        </technique>
      </extra>
    </effect>
    <effect id="Effect1" name="lg_all_png">
      <profile_COMMON>
        <newparam sid="Image1-surface">
          <surface type="2D">
            <init_from>Image1</init_from>
            <format>A8R8G8B8</format>
          </surface>
        </newparam>
        <newparam sid="Image1-sampler">
          <sampler2D>
            <source>Image1-surface</source>
            <wrap_s>WRAP</wrap_s>
            <wrap_t>WRAP</wrap_t>
            <minfilter>NONE</minfilter>
            <magfilter>NONE</magfilter>
            <mipfilter>NONE</mipfilter>
          </sampler2D>
        </newparam>
        <technique sid="common">
          <phong>
            <emission>
              <color>0 0 0 1</color>
            </emission>
            <ambient>
              <color>0 0 0 1</color>
            </ambient>
            <diffuse>
              <texture texture="Image1-sampler" texcoord=""/>
            </diffuse>
            <specular>
              <color>1 1 1 1</color>
            </specular>
            <shininess>
              <float>0</float>
            </shininess>
            <transparent opaque="A_ONE">
              <color>0 0 0 1</color>
            </transparent>
            <transparency>
              <float>1</float>
            </transparency>
            <index_of_refraction>
              <float>1.55</float>
            </index_of_refraction>
          </phong>
          <extra>
            <technique profile="FCOLLADA">
              <spec_level>
                <float>0</float>
              </spec_level>
            </technique>
          </extra>
        </technique>
      </profile_COMMON>
      <extra>
        <technique profile="FCOLLADA">
          <user_properties>lg_all.png</user_properties>
        </technique>
      </extra>
    </effect>
  </library_effects>
  <library_geometries>
    <geometry id="Geometry" name="mesh_0_">
      <mesh>
        <source id="GeometrySource" name="mesh_0_Pos">
          <float_array id="GeometrySource-array" count="51">-1.27059 7.52894 1.17774 -0.000027 7.59568 1.69875 -0.00003 8.47235 1.58076 -1.35113 8.1718 1.18457 -0.000022 6.33975 1.6772 -1.17381 6.43521 1.25131 -0.00002 5.53642 2.09569 1.17377 6.43522 1.25131 0.721636 4.9492 1.48333 -0.000017 4.906 1.80711 -0.721672 4.94919 1.48333 -0.374171 4.12262 1.2134 0.382916 4.12263 1.2134 1.04806 4.82277 1.0577 1.27053 7.52895 1.17774 1.35107 8.17182 1.18457 -1.02079 4.82275 1.0577</float_array>
          <technique_common>
            <accessor source="#GeometrySource-array" count="17" stride="3">
              <param name="X" type="float"/>
              <param name="Y" type="float"/>
              <param name="Z" type="float"/>
            </accessor>
          </technique_common>
        </source>
        <source id="GeometrySource1" name="mesh_0_Nrm">
          <float_array id="GeometrySource1-array" count="51">0.803504 0.593948 0.040078 0.997572 0 -0.069645 0.999116 0 -0.042034 0.846089 0.527725 0.075097 0.969654 0 -0.24448 0.74324 0.667176 -0.049699 1 0 0.000748 0.74324 -0.667176 -0.049699 0.745026 -0.606034 0.278675 0.878705 -0.000106 0.477365 0.736573 0.612025 0.287899 0.529682 0.438174 0.726251 0.543098 -0.425153 0.724079 0.365698 -0.818095 0.44383 0.803504 -0.593948 0.040078 0.846089 -0.527725 0.075097 0.339973 0.81508 0.469108</float_array>
          <technique_common>
            <accessor source="#GeometrySource1-array" count="17" stride="3">
              <param name="X" type="float"/>
              <param name="Y" type="float"/>
              <param name="Z" type="float"/>
            </accessor>
          </technique_common>
        </source>
        <source id="GeometrySource2" name="mesh_0_UV">
          <float_array id="GeometrySource2-array" count="34">0.183205 0.776298 1 0.786847 1 0.996922 0.091742 0.942183 1 0.510556 0.271463 0.530086 1 0.390379 1.72854 0.530086 1.50478 0.266725 1 0.260056 0.495217 0.266725 0.707834 0.005355 1.29217 0.005355 1.78856 0.249298 1.8168 0.776298 1.90826 0.942183 0.210352 0.249298</float_array>
          <technique_common>
            <accessor source="#GeometrySource2-array" count="17" stride="2">
              <param name="S" type="float"/>
              <param name="T" type="float"/>
            </accessor>
          </technique_common>
        </source>
        <source id="GeometrySource3" name="mesh_0_Clr">
          <float_array id="GeometrySource3-array" count="68">1 1 1 1 1 1 1 1 0.6 0.403922 0.403922 1 0.6 0.403922 0.403922 1 0.933333 0.933333 0.933333 1 1 1 1 1 0.647059 0.403922 0.403922 1 1 1 1 1 1 1 1 1 1 1 1 1 1 1 1 1 0.756863 0.513726 0.513726 1 0.756863 0.513726 0.513726 1 0.886275 0.886275 0.886275 1 1 1 1 1 0.6 0.403922 0.403922 1 0.890196 0.890196 0.890196 1</float_array>
          <technique_common>
            <accessor source="#GeometrySource3-array" count="17" stride="4">
              <param name="R" type="float"/>
              <param name="G" type="float"/>
              <param name="B" type="float"/>
              <param name="A" type="float"/>
            </accessor>
          </technique_common>
        </source>
        <vertices id="Geometry-vertices">
          <input semantic="POSITION" source="#GeometrySource"/>
          <input semantic="NORMAL" source="#GeometrySource1"/>
          <input semantic="TEXCOORD" source="#GeometrySource2"/>
          <input semantic="COLOR" source="#GeometrySource3"/>
        </vertices>
        <triangles material="VisualMaterial0" count="19">
          <input semantic="VERTEX" source="#Geometry-vertices" offset="0"/>
          <p>0 1 2 3 0 2 4 1 0 5 4 0 4 5 6 6 7 4 8 7 6 9 8 6 6 5 10 9 6 10 9 10 11 8 9 12 11 12 9 12 13 8 14 2 1 7 14 4 14 1 4 15 2 14 16 11 10</p>
        </triangles>
      </mesh>
    </geometry>
    <geometry id="Geometry1" name="mesh_1_">
      <mesh>
        <source id="GeometrySource4" name="mesh_1_Pos">
          <float_array id="GeometrySource4-array" count="1281">-0.638993 4.68853 -0.732126 -0.000015 4.38764 -0.913786 -0.009048 1.07153 -0.050806 -0.931517 4.43754 0.114794 -0.000013 3.82416 0.505342 1.01341 4.43755 0.114794 0.638959 4.68854 -0.732126 0.944442 -0.993484 0.870723 0.000003 -1.04633 -0.565754 0.993037 -0.539753 -1.16677 1.88351 -0.515082 0.440631 1.89543 0.139313 -0.634891 2.05888 0.000499 0.592432 1.97823 0.599545 0.183391 1.07226 1.43944 0.492887 1.15025 -0.35237 1.53337 0.000003 -1.00396 1.02045 0.074623 1.10964 2.13664 1.03259 1.6493 2.25468 2.01151 0.432039 2.25044 1.03258 1.45459 3.05339 2.12219 -0.452648 3.50618 1.03259 1.01563 3.87856 0.066389 0.378866 3.92574 -1.50129 2.33898 1.46913 -0.000009 2.67113 1.80534 -1.36617 3.27058 0.705335 -1.83547 2.0903 -0.041977 -2.11369 1.31194 0.47716 -1.88009 1.13967 -1.04007 -1.48534 2.96576 -0.836196 -0.000007 2.09914 -1.2343 -0.000002 0.637929 -1.48236 -0.993033 -0.539767 -1.16677 0.000001 -0.539761 -1.16677 0.993037 -0.539753 -1.16677 1.88009 1.13969 -1.04008 1.89543 0.139313 -0.634891 2.11368 1.31198 0.47716 2.05888 0.000499 0.592432 1.56113 1.04235 1.73259 1.50127 2.339 1.46913 1.83545 2.09032 -0.041977 1.36615 3.2706 0.705335 -0.000004 1.17899 2.36245 -1.56113 1.04233 1.73259 -2.05888 0.00047 0.592432 -1.97658 0.139285 -0.634891 0.000003 -1.04633 -0.565754 -0.000013 3.78294 -0.92314 -1.47853 3.76914 -0.026967 1.48532 2.96578 -0.836196 1.47851 3.76916 -0.026967 -0.000013 3.78585 0.831559 -1.47853 3.76914 -0.026967 1.47851 3.76916 -0.026967 -0.000013 3.78294 -0.92314 -1.15025 -0.352386 1.53337 0.000001 -0.483174 2.01574 0.000003 -1.00396 1.02045 1.15025 -0.35237 1.53337 -1.88351 -0.51511 0.440631 -1.97658 0.139285 -0.634891 -0.993033 -0.539767 -1.16677 -0.944434 -0.993498 0.870724 -1.74577 -0.651846 2.09524 -2.01153 0.432039 2.25042 -1.97823 0.599545 0.183363 -1.0326 1.6493 2.25466 -1.03261 1.45459 3.05337 -2.12221 -0.452647 3.50614 -1.03261 1.01563 3.87854 -0.066417 0.378865 3.92574 -0.074639 1.10964 2.13664 -1.07226 1.43944 0.492871 -2.05888 0.00047 0.592432 -0.403019 -0.651845 2.09525 -0.074639 1.10964 2.13664 -0.401027 -0.57244 1.83969 -1.75894 -0.569018 1.83093 -1.67311 -1.44014 2.73917 -0.391073 -1.46066 2.79164 -0.066417 0.378865 3.92574 0.000003 -1.00396 1.02045 0.074623 1.10964 2.13664 0.403003 -0.651845 2.09525 0.401012 -0.57244 1.83969 1.75892 -0.569019 1.83095 1.74473 -1.44014 2.73919 0.391053 -1.46066 2.79164 0.066389 0.378866 3.92574 -0.81183 6.65774 2.36373 -0.000025 7.14485 2.3433 -0.000023 6.57846 1.32073 -0.245484 5.5093 1.4001 -0.785927 5.89856 2.81295 -0.000019 5.46771 3.04302 0.245444 5.50931 1.4001 0.785885 5.89857 2.81295 0.811782 6.65775 2.36373 0.402626 6.93561 3.18514 -0.000022 6.19894 3.56343 -0.402676 6.93561 3.18514 -1.80007 6.51833 -1.0886 -2.3586 7.03265 -0.830571 -1.78829 7.07903 -0.597583 -2.62099 6.24842 -0.850457 -1.96806 5.36277 -0.498881 -1.23712 5.78283 -0.891633 -1.40412 5.44231 -0.651605 -1.52392 5.46128 -0.130095 -1.78829 7.07903 -0.597583 -2.3586 7.03265 -0.830571 -1.71354 6.22481 -0.145017 -1.94976 7.16459 -0.128604 -2.62099 6.24842 -0.850457 -1.96806 5.36277 -0.498881 -1.52392 5.46128 -0.130095 1.80003 6.51836 -1.0886 1.78917 7.08061 -0.598501 2.35855 7.03268 -0.944668 2.62095 6.24846 -0.964555 1.96802 5.3628 -0.498881 1.23708 5.78285 -0.891633 1.40408 5.44233 -0.651605 1.52388 5.4613 -0.130095 1.78917 7.08061 -0.598501 1.7135 6.22483 -0.145017 2.35855 7.03268 -0.944668 1.9497 7.16463 -0.128604 2.62095 6.24846 -0.964555 1.96802 5.3628 -0.498881 1.52388 5.4613 -0.130095 -0.000031 8.56488 3.57183 -1.59503 8.16102 2.60971 -0.00003 8.47235 1.58076 1.59497 8.16104 2.60971 1.79859 7.83181 0.63334 -1.79865 7.83178 0.63334 -0.000031 8.56488 3.57183 -0.000032 8.98893 1.75538 -1.59503 8.16102 2.60971 1.59497 8.16104 2.60971 1.34652 8.53996 1.27275 1.79859 7.83181 0.63334 -1.34658 8.53994 1.27275 -1.79865 7.83178 0.63334 -0.000027 7.70515 -2.88393 -0.000023 6.5408 -2.90399 -1.10384 6.52953 -2.59632 -1.34126 7.81153 -2.15701 1.3412 7.81155 -2.15701 1.1038 6.52955 -2.59632 2.27799 7.17044 -1.50803 1.29812 9.5934 -1.50293 2.08117 9.28876 -0.46895 1.27164 10.3182 0.283099 -0.000038 10.5574 -0.787728 -1.29818 9.59339 -1.50293 -2.27805 7.17041 -1.50803 -2.08123 9.28873 -0.46895 -2.5257 7.96548 -0.114111 -1.27172 10.3182 0.283099 -0.000039 10.8148 0.392558 -2.08123 9.28873 -0.46895 -1.3912 9.91928 1.06064 -1.27172 10.3182 0.283099 -2.5257 7.96548 -0.114111 -1.34658 8.53994 1.27275 -1.79865 7.83178 0.63334 -1.94976 7.16459 -0.128604 -2.27805 7.17041 -1.50803 -1.80007 6.51833 -1.0886 -1.10384 6.52953 -2.59632 -1.80007 6.51833 -1.0886 -0.000022 6.09518 -2.09139 -0.000023 6.5408 -2.90399 1.1038 6.52955 -2.59632 1.80003 6.51836 -1.0886 2.27799 7.17044 -1.50803 1.9497 7.16463 -0.128604 2.52564 7.96552 -0.114111 1.79859 7.83181 0.63334 1.34652 8.53996 1.27275 1.39112 9.9193 1.06064 2.08117 9.28876 -0.46895 1.27164 10.3182 0.283099 -0.000037 10.3377 1.51549 -1.3912 9.91928 1.06064 -1.34658 8.53994 1.27275 -0.000032 8.98893 1.75538 1.34652 8.53996 1.27275 1.39112 9.9193 1.06064 1.27164 10.3182 0.283099 -0.000039 10.8148 0.392558 -1.27172 10.3182 0.283099 -1.50867 5.67432 0.730768 -0.721672 4.94919 1.48333 -1.17381 6.43521 1.25131 -1.02079 4.82275 1.0577 -1.52392 5.46128 -0.130095 -1.71354 6.22481 -0.145017 -1.54107 6.43485 0.570124 -1.94976 7.16459 -0.128604 -1.79865 7.83178 0.63334 -1.27059 7.52894 1.17774 -1.27059 7.52894 1.17774 -1.35113 8.1718 1.18457 -1.79865 7.83178 0.63334 -1.52392 5.46128 -0.130095 -1.40412 5.44231 -0.651605 -0.931517 4.43754 0.114794 -0.638993 4.68853 -0.732126 -0.000013 3.82416 0.505342 -0.374171 4.12262 1.2134 0.382916 4.12263 1.2134 1.01341 4.43755 0.114794 0.638959 4.68854 -0.732126 1.40408 5.44233 -0.651605 1.52388 5.4613 -0.130095 -0.469767 4.11693 -1.48148 -0.638993 4.68853 -0.732126 -0.709834 5.26152 -1.24379 -0.000015 4.38764 -0.913786 -0.000018 5.14135 -1.48605 0.469737 4.11694 -1.48148 0.638959 4.68854 -0.732126 0.709796 5.26153 -1.24379 -0.000022 6.09518 -2.09139 1.80003 6.51836 -1.0886 1.40408 5.44233 -0.651605 1.34802 4.3599 -1.18166 -1.34806 4.35989 -1.18166 -1.40412 5.44231 -0.651605 -1.80007 6.51833 -1.0886 1.27053 7.52895 1.17774 1.79859 7.83181 0.63334 1.35107 8.17182 1.18457 1.79859 7.83181 0.63334 1.27053 7.52895 1.17774 1.54103 6.43487 0.570124 1.9497 7.16463 -0.128604 1.7135 6.22483 -0.145017 1.50863 5.67434 0.730768 1.52388 5.4613 -0.130095 1.04806 4.82277 1.0577 1.01341 4.43755 0.114794 0.382916 4.12263 1.2134 0.721636 4.9492 1.48333 1.17377 6.43522 1.25131 2.52564 7.96552 -0.114111 -0.000018 5.21624 2.07344 -1.12359 5.64244 1.75293 -0.603483 5.05434 1.6769 -0.00002 5.66885 2.17843 -1.41777 6.31207 1.04936 -1.46029 5.73999 0.910561 -1.20695 5.21065 1.17632 1.12355 5.64318 1.7524 0.603448 5.05435 1.6769 1.41773 6.30852 1.04851 1.46025 5.74004 0.909501 1.20691 5.21066 1.17632 -0.931517 4.43754 0.114794 -0.374171 4.12262 1.2134 -3.36288 3.0227 -0.99018 -1.84523 3.75338 -0.014966 -1.48534 2.96576 -0.836196 -3.40002 3.74559 -0.02069 -3.41195 3.0227 -0.989399 -4.89789 3.75963 -0.071995 -4.91173 3.02615 -0.889139 -3.40001 2.22909 -0.020686 -1.83547 2.0903 -0.041977 -3.01106 3.02271 0.832288 -1.36617 3.27058 0.705335 -3.40002 3.74559 -0.02069 -1.84523 3.75338 -0.014966 -1.47853 3.76914 -0.026967 -1.47853 3.76914 -0.026967 -4.89451 2.14533 -0.111351 -6.32875 2.11371 -1.2904 -4.79001 3.05168 -1.00173 -6.65627 3.32958 -1.26205 -7.25719 2.50546 -1.25689 -5.69198 2.35112 1.46778 -4.89091 2.93169 0.710301 -6.06248 3.47312 1.26756 -4.89451 2.14533 -0.111351 -6.48322 1.91008 1.39824 -7.27556 2.49661 1.1751 -6.97654 3.44267 1.24883 -6.05892 1.36825 0.812818 -4.89451 2.14533 -0.111351 -5.69198 2.35112 1.46778 -6.72592 1.74144 0.253831 -6.32875 2.11371 -1.2904 -7.25719 2.50546 -1.25689 -7.47515 2.5708 0.02979 -7.27556 2.49661 1.1751 -6.48322 1.91008 1.39824 -6.65627 3.32958 -1.26205 -4.90104 3.78401 -0.172656 -4.79001 3.05168 -1.00173 -7.11974 3.81499 -0.029956 -6.06248 3.47312 1.26756 -4.89091 2.93169 0.710301 -6.97654 3.44267 1.24883 -4.78822 1.80059 -0.115407 -5.70473 3.02269 -0.086653 -4.78823 3.02269 -1.23026 -4.78823 3.02269 1.07626 -3.98467 3.0227 -0.09467 -4.78824 4.07877 -0.12003 -3.20541 3.02271 0.833808 -4.89789 3.75963 -0.071995 -4.87286 3.02615 0.750014 -4.89504 2.27286 -0.072964 -6.65627 3.32958 -1.26205 -7.25719 2.50546 -1.25689 -7.11974 3.81499 -0.029956 -7.47515 2.5708 0.02979 -6.97654 3.44267 1.24883 -4.89504 2.27286 -0.072964 4.89449 2.14537 -0.111353 4.79049 3.05126 -1.00182 6.32874 2.11376 -1.2904 6.65625 3.32964 -1.26205 7.25717 2.50552 -1.25689 5.69196 2.35116 1.46778 6.06245 3.47316 1.26756 4.89089 2.93172 0.710301 4.89449 2.14537 -0.111353 6.48321 1.91013 1.39824 7.27554 2.49667 1.1751 6.97652 3.44272 1.24883 6.05891 1.3683 0.812814 5.69196 2.35116 1.46778 4.89449 2.14537 -0.111353 6.72591 1.74149 0.253828 6.32874 2.11376 -1.2904 7.25717 2.50552 -1.25689 7.47513 2.57086 0.029788 7.27554 2.49667 1.1751 6.48321 1.91013 1.39824 6.65625 3.32964 -1.26205 4.79049 3.05126 -1.00182 4.90101 3.78405 -0.172654 7.11971 3.81504 -0.029954 6.06245 3.47316 1.26756 4.89089 2.93172 0.710301 6.97652 3.44272 1.24883 4.78821 1.80063 -0.11541 4.78821 3.02273 -1.23026 5.70471 3.02273 -0.086653 4.78821 3.02273 1.07626 3.98464 3.02273 -0.09467 4.78821 4.07881 -0.120027 3.20538 3.02273 0.833808 4.87284 3.02619 0.750014 4.89786 3.75966 -0.071993 3.39999 2.22912 -0.020688 4.89502 2.27289 -0.072966 3.41193 3.02273 -0.989399 3.36286 3.02273 -0.99018 3.39999 3.74562 -0.020688 4.89786 3.75966 -0.071993 4.91171 3.02619 -0.889139 4.89502 2.27289 -0.072966 3.01104 3.02273 0.832288 1.83545 2.09032 -0.041977 1.36615 3.2706 0.705335 3.39999 3.74562 -0.020688 1.8452 3.7534 -0.014965 1.47851 3.76916 -0.026967 6.65625 3.32964 -1.26205 7.11971 3.81504 -0.029954 7.25717 2.50552 -1.25689 7.47513 2.57086 0.029788 6.97652 3.44272 1.24883 1.8452 3.7534 -0.014965 1.48532 2.96578 -0.836196 1.47851 3.76916 -0.026967 -1.15025 -0.352386 1.53337 1.03257 0.736477 5.90565 1.03257 1.82218 5.03198 0.157683 0.13961 5.45325 2.02961 0.158716 5.46774 2.16844 0.778501 4.5824 2.12219 -0.452648 3.50618 1.55668 -2.08272 3.76887 1.74473 -1.44014 2.73919 0.434146 -2.08591 3.76644 0.391053 -1.46066 2.79164 0.066389 0.378866 3.92574 0.434146 -2.08591 3.76644 0.391053 -1.46066 2.79164 0.115234 0.754189 4.59508 1.03259 1.01563 3.87856 2.12219 -0.452648 3.50618 1.03257 0.736477 5.90565 0.157683 0.13961 5.45325 2.02961 0.158716 5.46774 1.55668 -2.08272 3.76887 0.434146 -2.08591 3.76644 -0.115268 0.754189 4.59508 -1.03261 1.82218 5.03196 -0.157724 0.139609 5.45325 -1.03261 1.01563 3.87854 -0.066417 0.378865 3.92574 -0.434174 -2.08591 3.76644 -0.391073 -1.46066 2.79164 -1.5567 -2.08272 3.76884 -2.12221 -0.452647 3.50614 -1.67311 -1.44014 2.73917 -2.02965 0.158717 5.46772 -1.03261 0.736476 5.90563 -2.16848 0.7785 4.58237 -2.12221 -0.452647 3.50614 -1.03261 0.736476 5.90563 -2.02965 0.158717 5.46772 -0.157724 0.139609 5.45325 -0.434174 -2.08591 3.76644 -1.5567 -2.08272 3.76884 -0.434174 -2.08591 3.76644 -0.391073 -1.46066 2.79164 1.74575 -0.651845 2.09526</float_array>
          <technique_common>
            <accessor source="#GeometrySource4-array" count="427" stride="3">
              <param name="X" type="float"/>
              <param name="Y" type="float"/>
              <param name="Z" type="float"/>
            </accessor>
          </technique_common>
        </source>
        <source id="GeometrySource5" name="mesh_1_Nrm">
          <float_array id="GeometrySource5-array" count="1281">-0.234124 0.66977 0.704695 -0.506666 -0.000198 0.862143 -0.821701 0.042431 -0.568338 0.041225 0.821332 0.568958 0.606596 0.015674 0.794856 0.03611 -0.825568 0.563146 -0.263957 -0.658847 0.704448 -0.979685 -0.200511 0.003576 -0.985621 0 -0.168972 -0.632711 -0.380413 -0.674509 -0.575346 -0.813382 -0.085944 -0.291939 -0.91582 -0.275762 -0.563149 -0.818762 -0.111768 -0.192816 0.159018 -0.968264 -0.880701 0.187323 0.435058 -0.729278 -0.532851 0.429212 -0.80618 0 -0.59167 0.020669 0.735233 0.677499 0.052736 0.947105 -0.31656 0.078036 0.324898 -0.942524 0.372223 0.909942 -0.182906 -0.014094 0.111734 -0.993638 -0.314926 0.94772 -0.051468 0.049082 0.319983 0.946151 0.372983 0.698667 0.610531 0.563871 0 0.825863 0.628352 0.278457 0.726385 -0.396381 0.917839 0.021324 0.130131 0.986752 0.096879 0.083116 0.697488 -0.71176 0.358392 0.295172 -0.88568 0.166033 0 -0.98612 -0.051378 0 -0.998679 -0.635859 0.366939 -0.678998 -0.536381 0 -0.843976 -0.632711 -0.380413 -0.674509 0.065505 -0.707221 -0.703951 -0.291939 -0.91582 -0.275762 0.116256 -0.989377 0.087274 -0.563149 -0.818762 -0.111768 -0.045591 -0.711173 0.701538 0.372983 -0.698667 0.610531 -0.396381 -0.917839 0.021324 0.628352 -0.278457 0.726385 0.032644 0 0.999467 -0.045591 0.711173 0.701538 -0.572868 0.817924 -0.053131 -0.292012 0.921954 -0.254421 -0.985621 0 -0.168972 0.749613 0 -0.661876 0.977843 0.202048 -0.054773 0.358392 -0.295172 -0.88568 0.977843 -0.202048 -0.054773 0.880632 0 0.473801 0.977843 0.202048 -0.054773 0.977843 -0.202048 -0.054773 0.749613 0 -0.661876 -0.729278 0.532852 0.429212 -0.611279 0 0.791415 -0.80618 0 -0.59167 -0.729278 -0.532851 0.429212 -0.590172 0.804813 -0.063037 -0.292012 0.921954 -0.254421 -0.635859 0.366939 -0.678998 -0.979685 0.200511 0.003576 0.51783 -0.772819 0.366881 0.079177 0.318502 0.94461 -0.158137 0.153761 0.975372 0.052736 0.947105 0.31656 0.372224 0.909942 0.182906 -0.025525 0.104845 0.994161 -0.314926 0.94772 0.051469 0.049083 0.319982 -0.946151 0.020669 0.735232 -0.6775 -0.880701 0.187323 -0.435059 -0.572868 0.817924 -0.053131 0.696731 -0.703014 -0.142609 0.020669 0.735232 -0.6775 -0.851992 0.522959 -0.024968 -0.917231 0.396122 -0.042126 -0.471716 -0.662206 0.582209 -0.447836 -0.61132 -0.652481 0.049083 0.319982 -0.946151 -0.80618 0 -0.59167 0.020669 0.735233 0.677499 0.696731 -0.703014 0.142609 -0.85206 0.522871 0.024484 -0.897388 0.440229 0.029892 -0.457814 -0.659271 -0.596463 -0.447823 -0.611403 0.652411 0.049082 0.319983 0.946151 -0.240363 0.873195 -0.423976 -0.158715 0 -0.987324 -0.755525 0 -0.65512 -0.289364 0.7172 0.63395 0.385017 0.857486 0.341291 0.371572 0 0.928404 -0.289364 -0.7172 0.63395 0.385017 -0.857486 0.341291 -0.240363 -0.873196 -0.423976 0.561382 -0.536467 -0.630122 0.988844 0 0.148952 0.561381 0.536467 -0.630123 -0.992431 0.120139 0.025452 -0.035178 0.60942 -0.792067 -0.132 0.785653 -0.604422 -0.162078 0.973882 0.15901 -0.305535 0.487652 0.817829 -0.862455 0.195012 0.467057 -0.39107 0.629802 0.671129 0.198671 0.801928 0.56342 -0.132 0.785653 -0.604422 -0.035178 0.60942 -0.792067 0.502263 0.862927 0.055584 0.229216 0.892761 0.387863 -0.162078 0.973882 0.15901 -0.305535 0.487652 0.817829 0.198671 0.801928 0.56342 -0.99859 -0.005302 0.052825 -0.152107 -0.809603 -0.566927 -0.108834 -0.602806 -0.790431 -0.258947 -0.949387 0.177796 -0.321957 -0.470444 0.8216 -0.862455 -0.195011 0.467057 -0.40478 -0.634592 0.658366 0.201569 -0.818051 0.538667 -0.152107 -0.809603 -0.566927 0.472005 -0.880031 0.052503 -0.108834 -0.602806 -0.790431 0.229454 -0.892713 0.387833 -0.258947 -0.949387 0.177796 -0.321957 -0.470444 0.8216 0.201569 -0.818051 0.538667 0.969247 0 0.246089 0.442574 0.833081 -0.331821 0.091039 0 0.995847 0.442574 -0.833081 -0.331821 0.178262 -0.79688 0.577239 0.178262 0.79688 0.577239 0.969247 0 0.246089 0.215358 0 -0.976535 0.442574 0.833081 -0.331821 0.442574 -0.833081 -0.331821 0.097694 -0.638514 -0.763384 0.178262 -0.79688 0.577239 0.097694 0.638514 -0.763384 0.178262 0.79688 0.577239 -0.934505 0 -0.355949 -0.860296 0 0.509795 -0.737413 0.509634 0.443279 -0.791826 0.406085 -0.456188 -0.791826 -0.406085 -0.456188 -0.737413 -0.509634 0.443279 -0.376647 -0.916561 0.134365 -0.664671 -0.475926 -0.57594 -0.145647 -0.87354 -0.464452 0.01405 -0.536588 -0.843728 -0.414472 0 -0.910062 -0.664671 0.475926 -0.57594 -0.376647 0.91656 0.134365 -0.145647 0.87354 -0.464452 0.385107 0.916969 0.10421 0.01405 0.536588 -0.843728 0.091805 0 -0.995777 -0.145647 0.87354 -0.464452 0.527137 0.725879 -0.441844 0.01405 0.536588 -0.843728 0.385107 0.916969 0.10421 0.815607 0.575879 -0.056109 0.588732 0.776951 0.223028 0.229216 0.892761 0.387863 -0.376647 0.91656 0.134365 -0.364893 0.660239 0.656458 -0.737413 0.509634 0.443279 -0.364893 0.660239 0.656458 -0.635494 0 0.772106 -0.860296 0 0.509795 -0.737413 -0.509634 0.443279 -0.364893 -0.660239 0.656458 -0.376647 -0.916561 0.134365 0.229454 -0.892713 0.387833 0.385108 -0.916969 0.104211 0.588732 -0.776951 0.223029 0.815608 -0.575878 -0.056109 0.527137 -0.725879 -0.441844 -0.145647 -0.87354 -0.464452 0.01405 -0.536588 -0.843728 0.790892 0 -0.611956 0.527137 0.725879 -0.441844 0.815607 0.575879 -0.056109 0.984548 0 -0.175117 0.815608 -0.575878 -0.056109 0.527137 -0.725879 -0.441844 0.01405 -0.536588 -0.843728 0.091805 0 -0.995777 0.01405 0.536588 -0.843728 0.379171 0.910121 0.167059 0.736573 0.612025 0.287899 0.74324 0.667176 -0.049699 0.339973 0.81508 0.469108 0.198671 0.801928 0.56342 0.502263 0.862927 0.055584 0.416428 0.904077 0.096081 0.229216 0.892761 0.387863 0.588732 0.776951 0.223028 0.803504 0.593948 0.040078 0.803504 0.593948 0.040078 0.846089 0.527725 0.075097 0.588732 0.776951 0.223028 0.198671 0.801928 0.56342 -0.39107 0.629802 0.671129 0.041225 0.821332 0.568958 -0.234124 0.66977 0.704695 0.606596 0.015674 0.794856 0.529682 0.438174 0.726251 0.543098 -0.425153 0.724079 0.03611 -0.825568 0.563146 -0.263957 -0.658847 0.704448 -0.40478 -0.634592 0.658366 0.201569 -0.818051 0.538667 -0.556554 0.413218 0.720763 -0.234124 0.66977 0.704695 -0.825507 0.492465 0.27571 -0.506666 -0.000198 0.862143 -0.94926 0 0.314493 -0.556554 -0.413218 0.720763 -0.263957 -0.658847 0.704448 -0.825507 -0.492465 0.27571 -0.635494 0 0.772106 -0.364893 -0.660239 0.656458 -0.40478 -0.634592 0.658366 -0.651769 -0.329141 0.683274 -0.651769 0.329141 0.683274 -0.39107 0.629802 0.671129 -0.364893 0.660239 0.656458 0.803504 -0.593948 0.040078 0.588732 -0.776951 0.223029 0.846089 -0.527725 0.075097 0.588732 -0.776951 0.223029 0.803504 -0.593948 0.040078 0.416428 -0.904077 0.096081 0.229454 -0.892713 0.387833 0.472005 -0.880031 0.052503 0.383317 -0.910305 0.156247 0.201569 -0.818051 0.538667 0.365698 -0.818095 0.44383 0.03611 -0.825568 0.563146 0.543098 -0.425153 0.724079 0.745026 -0.606034 0.278675 0.74324 -0.667176 -0.049699 0.385108 -0.916969 0.104211 0.931426 -0.00025 0.363931 0.71511 0.675399 0.18015 0.675299 0.506988 0.535662 0.968591 0.00008 -0.248658 0.624894 0.697864 -0.349991 0.352728 0.924437 0.144911 0.446358 0.775614 0.446304 0.715042 -0.675712 0.179244 0.675746 -0.507339 0.534766 0.623984 -0.697874 -0.351591 0.352676 -0.924496 0.144664 0.44676 -0.775843 0.445504 0.041225 0.821332 0.568958 0.529682 0.438174 0.726251 -0.00479 0.029924 0.999541 0.000263 0.977112 0.212723 0.358392 0.295172 -0.88568 0.011004 0.991492 -0.129704 0.024316 0.247497 0.968583 0.020256 0.999667 -0.015969 0.039938 -0.360031 0.932085 0.043341 -0.998724 -0.02591 -0.396381 0.917839 0.021324 -0.012135 -0.144938 -0.989366 0.628352 0.278457 0.726385 0.011004 0.991492 -0.129704 0.000263 0.977112 0.212723 0.977843 0.202048 -0.054773 0.977843 0.202048 -0.054773 -0.537345 -0.834541 0.121661 -0.105179 -0.611852 0.783948 -0.356205 0.073336 0.931526 0.097894 0.545949 0.83208 0.789125 -0.213686 0.575864 -0.505343 -0.284243 -0.81476 -0.700934 0.170707 -0.692496 -0.124083 0.526554 -0.841038 -0.537345 -0.834541 0.121661 0.333933 -0.471095 -0.81643 0.778307 -0.176354 -0.602609 0.468953 0.550165 -0.690943 -0.146363 -0.946019 -0.289182 -0.537345 -0.834541 0.121661 -0.505343 -0.284243 -0.81476 0.462143 -0.881282 0.098824 -0.105179 -0.611852 0.783948 0.789125 -0.213686 0.575864 0.973328 -0.229408 0.002347 0.778307 -0.176354 -0.602609 0.333933 -0.471095 -0.81643 0.097894 0.545949 0.83208 -0.230008 0.971442 0.058284 -0.356205 0.073336 0.931526 0.647054 0.762078 0.023643 -0.124083 0.526554 -0.841038 -0.700934 0.170707 -0.692496 0.468953 0.550165 -0.690943 -0.047803 -0.998749 0.014691 0.999058 0.041992 0.010951 -0.049939 0.056543 0.99715 -0.043402 0.051416 -0.997734 -0.999189 0.038545 0.011608 -0.044301 0.998903 0.015147 0.021195 0.236604 -0.971375 0.020256 0.999667 -0.015969 0.052495 -0.334117 -0.941068 0.029194 -0.999572 0.002104 0.097894 0.545949 0.83208 0.789125 -0.213686 0.575864 0.647054 0.762078 0.023643 0.973328 -0.229408 0.002347 0.468953 0.550165 -0.690943 0.029194 -0.999572 0.002104 -0.537334 -0.83455 -0.12165 -0.35625 0.073201 -0.931519 -0.108834 -0.602806 -0.790431 0.097841 0.545886 -0.832127 0.789125 -0.213686 -0.575864 -0.505343 -0.284243 0.81476 -0.124083 0.526554 0.841038 -0.700934 0.170707 0.692496 -0.537334 -0.83455 -0.12165 0.333933 -0.471095 0.81643 0.778307 -0.176354 0.602609 0.468953 0.550165 0.690943 -0.146364 -0.946019 0.289182 -0.505343 -0.284243 0.81476 -0.537334 -0.83455 -0.12165 0.462143 -0.881282 -0.098824 -0.108834 -0.602806 -0.790431 0.789125 -0.213686 -0.575864 0.973328 -0.229408 0.002347 0.778307 -0.176354 0.602609 0.333933 -0.471095 0.81643 0.097841 0.545886 -0.832127 -0.35625 0.073201 -0.931519 -0.230081 0.97142 -0.058354 0.647054 0.762078 -0.023643 -0.124083 0.526554 0.841038 -0.700934 0.170707 0.692496 0.468953 0.550165 0.690943 -0.047802 -0.998749 -0.014691 -0.043402 0.051416 -0.997734 0.999058 0.041993 -0.010951 -0.049939 0.056543 0.99715 -0.999189 0.038546 -0.011608 -0.044301 0.998903 -0.015147 0.021195 0.236604 0.971375 0.052496 -0.334118 0.941068 0.020256 0.999667 0.015969 0.043341 -0.998724 0.02591 0.029194 -0.999572 0.002104 0.024316 0.247497 -0.968583 -0.00479 0.029924 -0.999541 0.011004 0.991492 0.129703 0.020256 0.999667 0.015969 0.039938 -0.360031 -0.932085 0.029194 -0.999572 0.002104 -0.012135 -0.144938 0.989366 -0.396381 -0.917839 0.021324 0.628352 -0.278457 0.726385 0.011004 0.991492 0.129703 0.000263 0.977112 -0.212724 0.977843 -0.202048 -0.054773 0.097841 0.545886 -0.832127 0.647054 0.762078 -0.023643 0.789125 -0.213686 -0.575864 0.973328 -0.229408 0.002347 0.468953 0.550165 0.690943 0.000263 0.977112 -0.212724 0.358392 -0.295172 -0.88568 0.977843 -0.202048 -0.054773 -0.729278 0.532852 0.429212 0.981597 0.188566 0.030161 0.313347 0.947287 0.066784 0.618518 -0.082268 0.781452 0.670567 -0.12977 -0.730411 -0.184533 0.53057 -0.827311 -0.014094 0.111734 -0.993638 0.129219 -0.736292 -0.664211 -0.457814 -0.659271 -0.596463 0.094 -0.65802 0.74711 -0.447823 -0.611403 0.652411 0.049082 0.319983 0.946151 0.094 -0.65802 0.74711 -0.447823 -0.611403 0.652411 -0.115942 0.561849 0.819074 -0.314926 0.94772 -0.051468 -0.014094 0.111734 -0.993638 0.981597 0.188566 0.030161 0.618518 -0.082268 0.781452 0.670567 -0.12977 -0.730411 0.129219 -0.736292 -0.664211 0.094 -0.65802 0.74711 -0.115942 0.561849 -0.819075 0.313347 0.947287 -0.066783 0.618518 -0.082268 -0.781452 -0.314926 0.94772 0.051469 0.049083 0.319982 -0.946151 0.094022 -0.658013 -0.747113 -0.447836 -0.61132 -0.652481 0.104149 -0.741369 0.662967 -0.025525 0.104845 0.994161 -0.471716 -0.662206 0.582209 0.670567 -0.129771 0.730411 0.981597 0.188566 -0.030161 -0.184532 0.530569 0.827311 -0.025525 0.104845 0.994161 0.981597 0.188566 -0.030161 0.670567 -0.129771 0.730411 0.618518 -0.082268 -0.781452 0.094022 -0.658013 -0.747113 0.104149 -0.741369 0.662967 0.094022 -0.658013 -0.747113 -0.447836 -0.61132 -0.652481 0.517829 -0.77282 -0.366882</float_array>
          <technique_common>
            <accessor source="#GeometrySource5-array" count="427" stride="3">
              <param name="X" type="float"/>
              <param name="Y" type="float"/>
              <param name="Z" type="float"/>
            </accessor>
          </technique_common>
        </source>
        <source id="GeometrySource6" name="mesh_1_UV">
          <float_array id="GeometrySource6-array" count="854">1.00052 0.063789 1.00177 0.063789 0.999527 0.231027 0.996269 0.134498 0.993583 0.139215 0.996269 0.134498 1.00052 0.063789 0.480339 0.495324 0.532206 0.511228 0.481216 0.511228 0.43757 0.481711 0.442425 0.501736 0.402222 0.50212 0.404275 0.485423 0.354878 0.495321 0.356733 0.511228 0.310642 0.511228 0.299831 0.447314 0.355252 0.403165 0.417907 0.439314 0.355274 0.398993 0.418571 0.252678 0.355387 0.252678 0.299831 0.252678 0.841781 0.692595 0.968678 0.728499 0.851714 0.867122 0.735458 0.662976 0.76221 0.580685 0.694121 0.490402 0.69414 0.746955 0.587056 0.642871 0.587056 0.345378 0.641152 0.300064 0.587056 0.300064 0.641152 0.300064 0.694121 0.490402 0.723485 0.378198 0.76221 0.580685 0.777715 0.413192 0.833644 0.585109 0.841781 0.692595 0.735458 0.662976 0.851714 0.867122 0.970453 0.566493 0.833644 0.585109 0.777715 0.413192 0.723485 0.378198 0.587056 0.279382 0.589587 0.808266 0.701142 0.983008 0.69414 0.746955 0.701142 0.983008 0.974579 0.915565 0.854065 0.981066 0.854065 0.981066 0.976394 1.05434 0.861966 0.348625 0.970453 0.324554 0.970453 0.299896 0.861966 0.348625 0.43757 0.481711 0.442425 0.501736 0.481216 0.511228 0.480339 0.495324 0.451682 0.45779 0.417907 0.439314 0.404275 0.485423 0.355252 0.403165 0.355274 0.398993 0.418571 0.252678 0.355387 0.252678 0.299831 0.252678 0.299831 0.447314 0.354878 0.495321 0.402222 0.50212 0.525384 0.458449 0.55956 0.447314 0.525384 0.431949 0.452002 0.432141 0.453605 0.252678 0.525384 0.252678 0.55956 0.252678 0.559561 0.510681 0.55956 0.447314 0.525384 0.458449 0.525384 0.431949 0.452002 0.432141 0.453605 0.252678 0.525384 0.252678 0.55956 0.252678 0.999902 0.092542 1.00663 0.09349 1.00663 -0.007396 1.00513 -0.007396 0.999052 0.144602 1.00663 0.099412 1.00812 -0.007396 1.0142 0.144602 1.01335 0.092542 1.01012 0.144602 1.00663 0.18206 1.00313 0.144602 0.983333 0.013297 0.986456 0.147541 0.981751 0.013297 0.987128 0.195603 0.988443 0.110235 0.989173 0.013297 0.991691 0.013297 0.990846 0.077546 0.765083 0.172542 0.817492 0.145357 0.757642 0.11432 0.757642 0.174744 0.825038 0.092856 0.812678 0.022269 0.756815 -0.003765 1.01542 0.013297 1.01701 0.013297 1.01223 0.147541 1.01163 0.195603 1.01031 0.110235 1.00958 0.013297 1.00706 0.013297 1.00791 0.077546 0.765083 0.172542 0.757642 0.11432 0.817492 0.145357 0.757642 0.174744 0.825038 0.092856 0.812678 0.022269 0.756815 -0.003765 0.516043 0.525561 0.449183 0.686342 0.307686 0.525561 0.449183 0.686342 0.294634 0.7433 0.294634 0.7433 0.516043 0.525561 0.310658 0.525561 0.449183 0.686342 0.449183 0.686342 0.302102 0.64998 0.294634 0.7433 0.302102 0.64998 0.294634 0.7433 0.462273 1.00073 0.516357 1.00057 0.505983 1.12403 0.443886 1.13961 0.443886 0.861523 0.505983 0.877102 0.448192 0.739156 0.375844 0.889771 0.319778 0.770585 0.268614 0.870294 0.324067 1.00057 0.375844 1.11136 0.447707 1.25647 0.319778 1.23055 0.407608 1.25189 0.268614 1.13084 0.249367 1.00057 0.139873 0.918361 0.12959 0.899694 0.115454 0.909825 0.143389 0.91666 0.129609 0.898613 0.13316 0.909335 0.136151 0.922272 0.138957 0.931386 0.134827 0.933352 0.133638 0.949058 0.134827 0.933352 0.112575 0.953692 0.112575 0.961669 0.133638 0.949058 0.134827 0.933352 0.138957 0.931386 0.136151 0.922272 0.143389 0.91666 0.13316 0.909335 0.129609 0.898613 0.12959 0.899694 0.139873 0.918361 0.115454 0.909825 0.151446 0.869712 0.006625 0.791338 0.011269 0.514991 0.151446 0.612636 0.291623 0.514991 0.296266 0.791338 0.283829 0.900667 0.151446 1.00469 0.019062 0.900667 0.860582 0.043725 0.822773 0.030342 0.831337 0.112055 0.851985 0.02815 0.937064 0.062458 0.918189 0.159266 0.869924 0.150751 0.916426 0.246311 0.834688 0.24508 0.818812 0.211699 0.97618 0.183785 0.964934 -0.114371 0.957749 0.052653 0.990846 0.194884 0.991691 0.013297 0.992359 0.160781 0.995301 0.083804 0.999343 0.140325 0.998076 0.146901 1.00078 0.146901 1.00659 0.160781 1.00345 0.083804 1.00706 0.013297 1.00791 0.194884 0.375193 0.016941 0.398981 0.037919 0.39346 0.093889 0.345909 0.006697 0.345909 0.089289 0.375193 0.016941 0.398981 0.037919 0.39346 0.093889 0.345909 0.192513 0.433002 0.237199 0.426995 0.122092 0.421543 0.050174 0.421543 0.050174 0.426995 0.122092 0.433002 0.237199 0.97618 0.183785 0.957749 0.052653 0.964934 -0.114371 0.834688 0.24508 0.818812 0.211699 0.869924 0.150751 0.916426 0.246311 0.918189 0.159266 0.860582 0.043725 0.937064 0.062458 0.851985 0.02815 0.910408 0.023766 0.850104 -0.001217 0.822773 0.030342 0.831337 0.112055 0.408066 0.744933 0.749638 0.197716 0.652952 0.098133 0.697268 0.225575 0.749638 0.139203 0.622227 0.013874 0.606869 0.117293 0.643402 0.199696 0.652952 0.098133 0.697268 0.225575 0.622227 0.013874 0.606869 0.117293 0.643402 0.199696 0.910408 0.023766 0.850104 -0.001217 0.551393 0.628152 0.555114 0.818411 0.551408 0.851648 0.555114 0.617451 0.551392 0.622824 0.555114 0.495118 0.55138 0.495758 0.544682 0.63039 0.544682 0.783945 0.535034 0.661435 0.535034 0.850563 0.527638 0.617451 0.527638 0.818934 0.527638 0.874661 0.555114 0.874331 2.33855 -0.007277 2.28366 0.137332 2.24506 -0.049341 2.18018 0.091811 2.23893 0.261934 0.260782 0.024681 0.206376 -0.035716 0.18513 0.105486 0.257796 -0.055563 0.299588 0.076762 0.26356 0.20138 0.198143 0.203997 0.023833 0.176028 -0.010097 0.26287 -0.011766 0.154346 0.062556 0.24675 0.06223 0.409874 0.108126 0.380999 0.093508 0.254881 0.09236 0.131618 0.054812 0.138281 0.143311 0.07947 0.079062 -0.006144 0.133289 -0.00331 0.079062 0.099361 0.014313 0.048431 0.033748 -0.012187 0.020204 0.086403 0.264937 0.387565 0.084827 0.400332 0.274897 0.400333 0.274897 0.400333 0.102404 0.400333 0.274897 0.411366 0.534906 0.642979 0.527638 0.496164 0.53413 0.499117 0.544682 0.496675 0.184171 0.397722 0.108126 0.381315 0.20165 0.263354 0.093508 0.255253 0.18444 0.132053 0.544682 0.49681 2.33855 -0.007277 2.24506 -0.049341 2.28366 0.137332 2.18018 0.091811 2.23893 0.261934 0.260782 0.024681 0.18513 0.105486 0.206376 -0.035716 0.257796 -0.055563 0.299588 0.076762 0.26356 0.20138 0.198143 0.203997 0.023833 0.176028 -0.011766 0.154346 -0.010097 0.26287 0.062556 0.24675 0.06223 0.409874 0.108126 0.380999 0.093508 0.254881 0.09236 0.131618 0.054812 0.138281 0.143311 0.07947 0.133289 -0.00331 0.079062 -0.006144 0.079062 0.099361 0.014313 0.048431 0.033748 -0.012187 0.020204 0.086403 0.264937 0.387565 0.274897 0.400333 0.084827 0.400332 0.274897 0.400333 0.102404 0.400333 0.274897 0.411366 0.534906 0.642979 0.53413 0.499117 0.527638 0.496164 0.544682 0.63039 0.544682 0.496675 0.551392 0.622824 0.551393 0.628152 0.555114 0.617451 0.555114 0.495118 0.55138 0.495758 0.544682 0.49681 0.535034 0.661435 0.544682 0.783945 0.535034 0.850563 0.527638 0.617451 0.527638 0.818934 0.527638 0.874661 0.184171 0.397722 0.20165 0.263354 0.108126 0.381315 0.093508 0.255253 0.18444 0.132053 0.555114 0.818411 0.551408 0.851648 0.555114 0.874331 0.356733 0.511228 0.524501 0.229906 0.571417 0.216582 0.524474 0.183805 0.524474 0.183805 0.56687 0.196734 0.565017 0.071887 0.52369 0.052623 0.565141 0.050123 0.52369 0.02594 0.565141 0.02537 0.567968 0.093724 0.52369 0.052623 0.565141 0.049971 0.566004 0.195789 0.590272 0.161044 0.565017 0.071887 0.46771 0.229906 0.490328 0.159084 0.444393 0.159084 0.464834 0.039953 0.47249 0.039953 0.566004 0.195789 0.571417 0.216582 0.524474 0.183805 0.590272 0.161044 0.567968 0.093724 0.52369 0.052623 0.565141 0.049971 0.52369 0.052623 0.565017 0.071887 0.565141 0.050123 0.524474 0.183805 0.524501 0.229906 0.56687 0.196734 0.565017 0.071887 0.46771 0.229906 0.444393 0.159084 0.490328 0.159084 0.47249 0.039953 0.464834 0.039953 0.52369 0.02594 0.565141 0.02537 0.451682 0.45779</float_array>
          <technique_common>
            <accessor source="#GeometrySource6-array" count="427" stride="2">
              <param name="S" type="float"/>
              <param name="T" type="float"/>
            </accessor>
          </technique_common>
        </source>
        <source id="GeometrySource7" name="mesh_1_Clr">
          <float_array id="GeometrySource7-array" count="1708">0.639216 0.396078 0.396078 1 0.639216 0.396078 0.396078 1 0.407843 0.164706 0.164706 1 0.639216 0.396078 0.396078 1 0.407843 0.164706 0.164706 1 0.639216 0.396078 0.396078 1 0.639216 0.396078 0.396078 1 0.713726 0.713726 0.713726 1 0.713726 0.713726 0.713726 1 0.713726 0.713726 0.713726 1 0.713726 0.713726 0.713726 1 0.831373 0.831373 0.831373 1 0.8 0.8 0.8 1 0.580392 0.580392 0.580392 1 0.439216 0.439216 0.439216 1 0.537255 0.537255 0.537255 1 0.713726 0.713726 0.713726 1 0.439216 0.439216 0.439216 1 0.823529 0.823529 0.823529 1 1 1 1 1 0.921569 0.921569 0.921569 1 1 1 1 1 0.843137 0.843137 0.843137 1 0.439216 0.439216 0.439216 1 1 1 1 1 0.964706 0.964706 0.964706 1 0.913725 0.913725 0.913725 1 0.596079 0.596079 0.596079 1 0.984314 0.984314 0.984314 1 1 1 1 1 0.760784 0.760784 0.760784 1 1 1 1 1 1 1 1 1 0.713726 0.713726 0.713726 1 0.713726 0.713726 0.713726 1 0.713726 0.713726 0.713726 1 1 1 1 1 0.831373 0.831373 0.831373 1 0.988235 0.988235 0.988235 1 0.8 0.8 0.8 1 0.866667 0.866667 0.866667 1 1 1 1 1 0.596079 0.596079 0.596079 1 0.913725 0.913725 0.913725 1 0.666667 0.666667 0.666667 1 0.862745 0.862745 0.862745 1 0.8 0.8 0.8 1 0.831373 0.831373 0.831373 1 0.713726 0.713726 0.713726 1 0.396078 0.396078 0.396078 1 0.607843 0.607843 0.607843 1 0.760784 0.760784 0.760784 1 0.607843 0.607843 0.607843 1 0.639216 0.639216 0.639216 1 0.607843 0.607843 0.607843 1 0.607843 0.607843 0.607843 1 0.396078 0.396078 0.396078 1 0.537255 0.537255 0.537255 1 0.560784 0.560784 0.560784 1 0.713726 0.713726 0.713726 1 0.537255 0.537255 0.537255 1 0.713726 0.713726 0.713726 1 0.831373 0.831373 0.831373 1 0.713726 0.713726 0.713726 1 0.713726 0.713726 0.713726 1 0.490196 0.490196 0.490196 1 1 1 1 1 0.580392 0.580392 0.580392 1 0.823529 0.823529 0.823529 1 0.921569 0.921569 0.921569 1 1 1 1 1 0.854902 0.854902 0.854902 1 0.439216 0.439216 0.439216 1 0.439216 0.439216 0.439216 1 0.439216 0.439216 0.439216 1 0.8 0.8 0.8 1 0.490196 0.490196 0.490196 1 0.439216 0.439216 0.439216 1 0.490196 0.490196 0.490196 1 0.490196 0.490196 0.490196 1 1 1 1 1 0.890196 0.890196 0.890196 1 0.439216 0.439216 0.439216 1 0.713726 0.713726 0.713726 1 0.439216 0.439216 0.439216 1 0.490196 0.490196 0.490196 1 0.490196 0.490196 0.490196 1 0.490196 0.490196 0.490196 1 1 1 1 1 0.886275 0.886275 0.886275 1 0.439216 0.439216 0.439216 1 0.996078 0.905882 0.905882 1 0.968628 0.905882 0.905882 1 0.894118 0.690196 0.67451 1 0.670588 0.466667 0.45098 1 1 1 1 1 0.960784 0.87451 0.87451 1 0.670588 0.466667 0.45098 1 1 1 1 1 0.996078 0.905882 0.905882 1 1 1 1 1 1 1 1 1 1 1 1 1 0.647059 0.458824 0.435294 1 0.870588 0.870588 0.870588 1 0.627451 0.439216 0.415686 1 1 1 1 1 0.878431 0.878431 0.878431 1 0.776471 0.588235 0.564706 1 0.74902 0.560784 0.537255 1 0.627451 0.439216 0.415686 1 0.627451 0.439216 0.415686 1 0.870588 0.870588 0.870588 1 0.921569 0.921569 0.921569 1 0.92549 0.92549 0.92549 1 1 1 1 1 0.878431 0.878431 0.878431 1 0.627451 0.439216 0.415686 1 0.647059 0.458824 0.435294 1 0.627451 0.439216 0.415686 1 0.882353 0.882353 0.882353 1 1 1 1 1 0.882353 0.882353 0.882353 1 0.776471 0.588235 0.564706 1 0.74902 0.560784 0.537255 1 0.627451 0.439216 0.415686 1 0.627451 0.439216 0.415686 1 0.933333 0.933333 0.933333 1 0.882353 0.882353 0.882353 1 0.945098 0.945098 0.945098 1 1 1 1 1 0.882353 0.882353 0.882353 1 0.627451 0.439216 0.415686 1 0.435294 0.435294 0.435294 1 0.435294 0.435294 0.435294 1 0.235294 0.235294 0.235294 1 0.435294 0.435294 0.435294 1 0.435294 0.435294 0.435294 1 0.435294 0.435294 0.435294 1 1 1 1 1 1 1 1 1 1 1 1 1 1 1 1 1 1 1 1 1 0.819608 0.819608 0.819608 1 1 1 1 1 0.819608 0.819608 0.819608 1 1 1 1 1 1 1 1 1 1 1 1 1 1 1 1 1 1 1 1 1 1 1 1 1 1 1 1 1 1 1 1 1 1 1 1 1 1 1 1 1 1 1 1 1 1 1 1 1 1 1 1 1 1 1 1 1 1 1 1 1 1 1 1 1 1 1 1 1 1 1 1 1 1 1 1 1 1 1 1 1 1 1 1 1 0.760784 0.760784 0.760784 1 0.760784 0.760784 0.760784 1 0.596079 0.596079 0.596079 1 1 1 1 1 0.729412 0.541176 0.517647 1 1 1 1 1 0.596079 0.596079 0.596079 1 0.596079 0.596079 0.596079 1 1 1 1 1 1 1 1 1 0.596079 0.596079 0.596079 1 1 1 1 1 0.596079 0.596079 0.596079 1 1 1 1 1 0.760784 0.760784 0.760784 1 0.760784 0.760784 0.760784 1 1 1 1 1 1 1 1 1 1 1 1 1 1 1 1 1 1 1 1 1 0.760784 0.760784 0.760784 1 0.760784 0.760784 0.760784 1 0.760784 0.760784 0.760784 1 1 1 1 1 1 1 1 1 1 1 1 1 1 1 1 1 0.996078 0.996078 0.996078 1 1 1 1 1 1 1 1 1 0.890196 0.890196 0.890196 1 0.870588 0.870588 0.870588 1 0.921569 0.921569 0.921569 1 0.984314 0.984314 0.984314 1 0.92549 0.92549 0.92549 1 0.984314 0.984314 0.984314 1 1 1 1 1 1 1 1 1 0.6 0.403922 0.403922 1 0.984314 0.984314 0.984314 1 0.870588 0.870588 0.870588 1 0.780392 0.780392 0.780392 1 0.639216 0.396078 0.396078 1 0.639216 0.396078 0.396078 1 0.407843 0.164706 0.164706 1 0.756863 0.513726 0.513726 1 0.756863 0.513726 0.513726 1 0.639216 0.396078 0.396078 1 0.639216 0.396078 0.396078 1 0.792157 0.792157 0.792157 1 0.87451 0.87451 0.87451 1 0.937255 0.937255 0.937255 1 0.639216 0.396078 0.396078 1 0.996078 0.996078 0.996078 1 0.639216 0.396078 0.396078 1 1 1 1 1 0.941176 0.941176 0.941176 1 0.639216 0.396078 0.396078 1 0.992157 0.992157 0.992157 1 0.513726 0.513726 0.513726 1 0.513726 0.513726 0.513726 1 0.792157 0.792157 0.792157 1 0.937255 0.937255 0.937255 1 0.945098 0.945098 0.945098 1 0.780392 0.780392 0.780392 1 0.513726 0.513726 0.513726 1 1 1 1 1 0.984314 0.984314 0.984314 1 0.6 0.403922 0.403922 1 0.984314 0.984314 0.984314 1 1 1 1 1 0.996078 0.996078 0.996078 1 0.945098 0.945098 0.945098 1 0.933333 0.933333 0.933333 1 0.996078 0.996078 0.996078 1 0.87451 0.87451 0.87451 1 0.894118 0.894118 0.894118 1 0.639216 0.396078 0.396078 1 0.756863 0.513726 0.513726 1 1 1 1 1 1 1 1 1 1 1 1 1 0.462745 0.462745 0.462745 1 0.984314 0.984314 0.984314 1 0.776471 0.776471 0.776471 1 0.462745 0.462745 0.462745 1 0.835294 0.835294 0.835294 1 0.866667 0.866667 0.866667 1 0.85098 0.85098 0.85098 1 0.984314 0.984314 0.984314 1 0.788235 0.788235 0.788235 1 0.854902 0.854902 0.854902 1 0.870588 0.870588 0.870588 1 0.839216 0.839216 0.839216 1 0.639216 0.396078 0.396078 1 0.756863 0.513726 0.513726 1 1 1 1 1 0.803922 0.803922 0.803922 1 0.760784 0.760784 0.760784 1 0.952941 0.952941 0.952941 1 1 1 1 1 0.615686 0.615686 0.615686 1 0.615686 0.615686 0.615686 1 0.921569 0.921569 0.921569 1 0.596079 0.596079 0.596079 1 0.937255 0.937255 0.937255 1 0.913725 0.913725 0.913725 1 0.952941 0.952941 0.952941 1 0.803922 0.803922 0.803922 1 0.607843 0.607843 0.607843 1 0.607843 0.607843 0.607843 1 0.615686 0.615686 0.615686 1 0.67451 0.67451 0.67451 1 0.615686 0.615686 0.615686 1 1 1 1 1 1 1 1 1 0.984314 0.984314 0.984314 1 0.615686 0.615686 0.615686 1 1 1 1 1 0.615686 0.615686 0.615686 1 0.639216 0.639216 0.639216 1 1 1 1 1 1 1 1 1 0.67451 0.67451 0.67451 1 0.615686 0.615686 0.615686 1 0.984314 0.984314 0.984314 1 0.505882 0.505882 0.505882 1 0.67451 0.67451 0.67451 1 1 1 1 1 1 1 1 1 1 1 1 1 0.639216 0.639216 0.639216 1 1 1 1 1 0.615686 0.615686 0.615686 1 0.615686 0.615686 0.615686 1 1 1 1 1 1 1 1 1 0.615686 0.615686 0.615686 1 1 1 1 1 0.894118 0.894118 0.894118 1 0.439216 0.439216 0.439216 1 0.894118 0.894118 0.894118 1 0.894118 0.894118 0.894118 1 0.439216 0.439216 0.439216 1 0.894118 0.894118 0.894118 1 0.956863 0.956863 0.956863 1 0.615686 0.615686 0.615686 1 0.615686 0.615686 0.615686 1 0.615686 0.615686 0.615686 1 1 1 1 1 1 1 1 1 1 1 1 1 1 1 1 1 1 1 1 1 0.615686 0.615686 0.615686 1 0.615686 0.615686 0.615686 1 0.615686 0.615686 0.615686 1 0.67451 0.67451 0.67451 1 1 1 1 1 1 1 1 1 0.984314 0.984314 0.984314 1 1 1 1 1 0.615686 0.615686 0.615686 1 0.615686 0.615686 0.615686 1 0.639216 0.639216 0.639216 1 1 1 1 1 1 1 1 1 0.67451 0.67451 0.67451 1 0.984314 0.984314 0.984314 1 0.615686 0.615686 0.615686 1 0.505882 0.505882 0.505882 1 0.67451 0.67451 0.67451 1 1 1 1 1 1 1 1 1 1 1 1 1 0.639216 0.639216 0.639216 1 1 1 1 1 0.615686 0.615686 0.615686 1 0.615686 0.615686 0.615686 1 1 1 1 1 1 1 1 1 0.615686 0.615686 0.615686 1 1 1 1 1 0.894118 0.894118 0.894118 1 0.894118 0.894118 0.894118 1 0.439216 0.439216 0.439216 1 0.894118 0.894118 0.894118 1 0.439216 0.439216 0.439216 1 0.894118 0.894118 0.894118 1 0.956863 0.956863 0.956863 1 0.615686 0.615686 0.615686 1 0.615686 0.615686 0.615686 1 0.921569 0.921569 0.921569 1 0.615686 0.615686 0.615686 1 1 1 1 1 1 1 1 1 0.968628 0.968628 0.968628 1 0.615686 0.615686 0.615686 1 0.615686 0.615686 0.615686 1 0.615686 0.615686 0.615686 1 0.941176 0.941176 0.941176 1 0.596079 0.596079 0.596079 1 0.913725 0.913725 0.913725 1 0.968628 0.968628 0.968628 1 0.8 0.8 0.8 1 0.607843 0.607843 0.607843 1 1 1 1 1 1 1 1 1 1 1 1 1 1 1 1 1 1 1 1 1 0.8 0.8 0.8 1 0.760784 0.760784 0.760784 1 0.607843 0.607843 0.607843 1 0.537255 0.537255 0.537255 1 1 1 1 1 1 1 1 1 0.964706 0.964706 0.964706 1 1 1 1 1 1 1 1 1 0.352941 0.352941 0.352941 1 1 1 1 1 0.352941 0.352941 0.352941 1 1 1 1 1 0.352941 0.352941 0.352941 1 0.439216 0.439216 0.439216 1 1 1 1 1 0.352941 0.352941 0.352941 1 0.533333 0.533333 0.533333 1 0.317647 0.317647 0.317647 1 0.317647 0.317647 0.317647 1 0.560784 0.560784 0.560784 1 0.560784 0.560784 0.560784 1 0.560784 0.560784 0.560784 1 0.278431 0.278431 0.278431 1 0.278431 0.278431 0.278431 1 0.529412 0.529412 0.529412 1 1 1 1 1 0.964706 0.964706 0.964706 1 0.317647 0.317647 0.317647 1 0.439216 0.439216 0.439216 1 1 1 1 1 0.352941 0.352941 0.352941 1 1 1 1 1 0.352941 0.352941 0.352941 1 0.352941 0.352941 0.352941 1 1 1 1 1 1 1 1 1 1 1 1 1 0.317647 0.317647 0.317647 1 0.560784 0.560784 0.560784 1 0.560784 0.560784 0.560784 1 0.560784 0.560784 0.560784 1 0.278431 0.278431 0.278431 1 0.278431 0.278431 0.278431 1 1 1 1 1 0.352941 0.352941 0.352941 1 0.490196 0.490196 0.490196 1</float_array>
          <technique_common>
            <accessor source="#GeometrySource7-array" count="427" stride="4">
              <param name="R" type="float"/>
              <param name="G" type="float"/>
              <param name="B" type="float"/>
              <param name="A" type="float"/>
            </accessor>
          </technique_common>
        </source>
        <vertices id="Geometry1-vertices">
          <input semantic="POSITION" source="#GeometrySource4"/>
          <input semantic="NORMAL" source="#GeometrySource5"/>
          <input semantic="TEXCOORD" source="#GeometrySource6"/>
          <input semantic="COLOR" source="#GeometrySource7"/>
        </vertices>
        <triangles material="VisualMaterial10" count="444">
          <input semantic="VERTEX" source="#Geometry1-vertices" offset="0"/>
          <p>0 1 2 3 0 2 4 3 2 5 4 2 1 6 2 6 5 2 7 8 9 9 10 7 10 9 11 10 11 12 13 10 12 14 13 12 12 15 14 16 14 15 16 17 14 18 13 14 14 17 18 19 10 13 19 13 18 17 20 18 20 19 18 20 21 19 20 22 21 23 22 20 23 20 17 24 25 26 27 24 26 27 28 24 29 28 27 27 30 29 31 29 30 32 29 31 33 29 32 32 34 33 32 35 34 35 32 36 32 31 36 36 37 35 37 36 38 37 38 39 38 40 39 38 41 40 42 41 38 36 42 38 42 43 41 41 43 25 25 44 41 41 44 40 25 24 44 28 45 24 24 45 44 28 46 45 28 47 46 47 29 33 47 28 29 33 34 48 48 34 35 49 31 30 50 49 30 49 51 31 42 36 51 31 51 36 52 51 49 25 53 26 25 43 53 26 53 54 43 55 53 53 56 54 53 55 56 57 45 46 57 44 45 57 58 44 59 58 57 44 60 40 59 60 58 60 39 40 58 60 44 61 62 63 61 63 64 64 63 8 61 64 65 61 65 66 66 67 61 61 67 62 66 68 67 66 69 68 70 69 66 70 71 69 69 71 72 69 72 73 69 73 68 74 68 73 74 73 16 68 74 67 67 75 62 67 74 75 76 64 8 65 64 76 76 8 77 65 76 78 78 76 77 66 65 79 79 65 78 66 79 70 79 80 70 80 79 81 79 78 81 81 78 82 78 77 82 83 77 8 84 83 8 85 84 8 85 8 7 86 84 85 86 85 87 87 19 21 86 87 88 88 87 21 89 86 88 89 90 86 90 84 86 91 92 93 91 93 94 94 95 91 96 95 94 94 97 96 97 98 96 97 99 98 99 97 93 99 93 92 98 99 100 99 92 100 98 100 101 96 98 101 95 96 101 91 102 92 101 100 102 102 95 101 95 102 91 102 100 92 103 104 105 106 104 103 107 106 103 108 107 103 109 107 108 107 109 110 111 112 113 114 111 113 115 113 112 116 113 115 117 113 116 118 119 120 121 118 120 122 118 121 123 118 122 124 123 122 122 125 124 126 127 128 129 127 126 130 128 127 131 130 127 132 131 127 133 134 135 133 135 136 135 137 136 138 135 134 139 140 141 139 142 140 142 143 140 144 143 142 141 140 145 146 141 145 147 148 149 150 147 149 147 150 151 148 147 152 152 147 151 152 151 153 151 150 154 154 153 151 155 153 154 156 155 154 154 157 156 150 158 154 154 158 157 149 159 150 158 150 159 159 160 158 160 159 161 162 158 160 158 162 157 157 162 163 157 163 156 164 165 166 164 167 165 167 168 165 168 167 169 170 169 167 167 171 170 170 171 172 173 174 171 173 175 174 173 176 175 177 175 176 177 178 175 177 179 178 180 178 179 180 179 181 180 181 182 183 182 181 183 181 184 184 181 185 184 185 186 187 188 189 187 189 190 191 187 190 191 192 187 192 193 187 187 193 194 195 187 194 188 187 195 196 197 198 199 197 196 196 200 199 196 201 200 201 196 202 196 198 202 203 201 202 202 204 203 202 198 205 204 202 205 206 207 208 209 210 211 212 211 210 213 214 211 213 215 214 216 215 213 217 218 216 219 216 218 220 221 222 221 220 223 224 220 222 223 220 224 225 223 224 226 223 225 225 227 226 224 227 225 222 228 224 227 224 228 228 229 227 227 229 230 227 230 231 226 231 230 226 227 231 221 232 222 222 232 233 221 233 232 228 222 234 222 233 234 235 236 237 238 239 240 240 241 238 241 240 242 242 240 243 243 244 242 245 244 243 246 244 245 246 245 247 245 243 248 240 239 249 243 240 249 243 249 248 250 153 155 251 252 253 252 251 254 255 252 254 256 252 255 256 257 252 253 252 257 251 258 254 251 259 258 260 254 258 260 258 261 262 261 258 262 258 259 200 263 199 263 264 199 265 266 267 265 268 266 268 265 269 268 269 270 270 269 271 269 265 272 272 271 269 272 265 273 273 265 267 274 272 273 275 274 273 275 276 274 275 277 276 278 277 275 266 279 267 280 281 282 281 283 282 281 284 283 285 286 287 288 286 285 289 285 287 289 287 290 287 291 290 292 293 294 295 293 292 295 296 293 297 296 295 297 295 298 295 299 298 292 300 295 300 292 294 295 300 299 301 302 303 304 302 301 302 304 305 306 302 305 307 305 304 308 309 310 308 311 309 312 311 308 308 310 312 313 309 311 313 312 310 310 309 313 311 312 313 272 274 314 314 274 276 276 315 314 314 315 316 316 272 314 316 317 272 318 319 320 319 321 320 320 321 299 320 299 322 323 271 272 324 325 326 326 325 327 326 327 328 329 330 331 332 329 331 333 330 329 333 334 330 330 334 335 336 337 338 339 336 338 339 338 340 341 339 340 341 342 339 339 342 343 344 337 336 339 343 344 336 339 344 345 346 347 348 345 347 347 349 348 350 349 347 351 348 349 352 353 354 352 354 355 356 352 355 352 356 353 353 357 354 357 355 354 357 353 356 355 357 356 358 359 360 359 358 361 359 361 362 363 361 364 365 363 364 365 366 363 361 363 367 366 367 363 368 361 367 361 358 369 369 370 361 364 361 370 371 370 369 372 358 360 358 372 369 371 369 372 371 372 373 374 371 373 375 376 377 377 376 378 376 343 378 376 379 343 380 365 364 381 364 370 380 364 381 380 381 382 74 383 75 74 16 383 384 385 386 387 385 384 387 388 385 387 389 388 387 390 389 390 391 389 390 392 391 392 393 391 394 395 386 394 396 395 394 386 397 385 397 386 397 385 398 397 398 394 385 388 398 399 398 388 400 401 402 403 402 401 404 403 401 405 406 407 405 408 406 405 409 408 409 405 407 409 407 410 409 410 411 412 413 414 415 413 412 407 406 416 406 415 416 406 417 415 406 408 417 415 417 418 418 417 408 419 420 421 422 421 420 423 422 420 412 414 424 414 425 424 7 10 426 85 7 426 87 426 19 85 426 87 10 19 426</p>
        </triangles>
      </mesh>
    </geometry>
  </library_geometries>
  <library_controllers>
    <controller id="Controller">
      <skin source="#Geometry">
        <bind_shape_matrix>1 0 0 0 0 1 0 0 0 0 1 0 0 0 0 1</bind_shape_matrix>
        <source id="Controller-joints">
          <Name_array id="Controller-joints-array" count="11">wristL armL2 armL1 wristR armR2 armR1 head spine waist skl_root all_root</Name_array>
          <technique_common>
            <accessor source="#Controller-joints-array" count="11" stride="1">
              <param name="JOINT" type="Name"/>
            </accessor>
          </technique_common>
        </source>
        <source id="Controller-bind_poses">
          <float_array id="Controller-bind_poses-array" count="176">1 0 0 -4.79999 0 1 0 -3.00001 0 0 1 0 0 0 0 1 1 0 0 -3.39999 0 1 0 -3.00001 0 0 1 0 0 0 0 1 1 0 0 -1.69999 0 1 0 -3.00001 0 0 1 0 0 0 0 1 -1 -0.000007 0 -4.79999 -0.000007 1 -0.000002 -3.00001 0 -0.000002 -1 0.000007 0 0 0 1 -1 -0.000007 0 -3.39999 -0.000007 1 -0.000002 -3.00001 0 -0.000002 -1 0.000007 0 0 0 1 -1 -0.000007 0 -1.69999 -0.000007 1 -0.000002 -3.00001 0 -0.000002 -1 0.000007 0 0 0 1 0 -0.000003 1 0.000014 -1 -0.000003 0 0 0.000003 -1 -0.000003 4 0 0 0 1 -0.000003 1 0 0 -1 -0.000003 0 0 0 0 1 0 0 0 0 1 -0.000003 0 1 0 0 1 0 0 -1 0 -0.000003 0 0 0 0 1 1 0 0 0 0 1 0 0 0 0 1 0 0 0 0 1 1 0 0 0 0 1 0 0 0 0 1 0 0 0 0 1</float_array>
          <technique_common>
            <accessor source="#Controller-bind_poses-array" count="11" stride="16">
              <param name="TRANSFORM" type="float4x4"/>
            </accessor>
          </technique_common>
        </source>
        <source id="Controller-weights">
          <float_array id="Controller-weights-array" count="1">1</float_array>
          <technique_common>
            <accessor source="#Controller-weights-array" count="1" stride="1">
              <param name="WEIGHT" type="float"/>
            </accessor>
          </technique_common>
        </source>
        <joints>
          <input semantic="JOINT" source="#Controller-joints"/>
          <input semantic="INV_BIND_MATRIX" source="#Controller-bind_poses"/>
        </joints>
        <vertex_weights count="17">
          <input semantic="JOINT" source="#Controller-joints" offset="0"/>
          <input semantic="WEIGHT" source="#Controller-weights" offset="1"/>
          <vcount>1 1 1 1 1 1 1 1 1 1 1 1 1 1 1 1 1 </vcount>
          <v>6 0 6 0 6 0 6 0 6 0 6 0 6 0 6 0 6 0 6 0 6 0 6 0 6 0 6 0 6 0 6 0 6 0</v>
        </vertex_weights>
      </skin>
      <extra>
        <technique profile="FCOLLADA">
          <user_properties>SkinController</user_properties>
        </technique>
      </extra>
    </controller>
    <controller id="Controller1">
      <skin source="#Geometry1">
        <bind_shape_matrix>1 0 0 0 0 1 0 0 0 0 1 0 0 0 0 1</bind_shape_matrix>
        <source id="Controller1-joints">
          <Name_array id="Controller1-joints-array" count="11">wristL armL2 armL1 wristR armR2 armR1 head spine waist skl_root all_root</Name_array>
          <technique_common>
            <accessor source="#Controller1-joints-array" count="11" stride="1">
              <param name="JOINT" type="Name"/>
            </accessor>
          </technique_common>
        </source>
        <source id="Controller1-bind_poses">
          <float_array id="Controller1-bind_poses-array" count="176">1 0 0 -4.79999 0 1 0 -3.00001 0 0 1 0 0 0 0 1 1 0 0 -3.39999 0 1 0 -3.00001 0 0 1 0 0 0 0 1 1 0 0 -1.69999 0 1 0 -3.00001 0 0 1 0 0 0 0 1 -1 -0.000007 0 -4.79999 -0.000007 1 -0.000002 -3.00001 0 -0.000002 -1 0.000007 0 0 0 1 -1 -0.000007 0 -3.39999 -0.000007 1 -0.000002 -3.00001 0 -0.000002 -1 0.000007 0 0 0 1 -1 -0.000007 0 -1.69999 -0.000007 1 -0.000002 -3.00001 0 -0.000002 -1 0.000007 0 0 0 1 0 -0.000003 1 0.000014 -1 -0.000003 0 0 0.000003 -1 -0.000003 4 0 0 0 1 -0.000003 1 0 0 -1 -0.000003 0 0 0 0 1 0 0 0 0 1 -0.000003 0 1 0 0 1 0 0 -1 0 -0.000003 0 0 0 0 1 1 0 0 0 0 1 0 0 0 0 1 0 0 0 0 1 1 0 0 0 0 1 0 0 0 0 1 0 0 0 0 1</float_array>
          <technique_common>
            <accessor source="#Controller1-bind_poses-array" count="11" stride="16">
              <param name="TRANSFORM" type="float4x4"/>
            </accessor>
          </technique_common>
        </source>
        <source id="Controller1-weights">
          <float_array id="Controller1-weights-array" count="1">1</float_array>
          <technique_common>
            <accessor source="#Controller1-weights-array" count="1" stride="1">
              <param name="WEIGHT" type="float"/>
            </accessor>
          </technique_common>
        </source>
        <joints>
          <input semantic="JOINT" source="#Controller1-joints"/>
          <input semantic="INV_BIND_MATRIX" source="#Controller1-bind_poses"/>
        </joints>
        <vertex_weights count="427">
          <input semantic="JOINT" source="#Controller1-joints" offset="0"/>
          <input semantic="WEIGHT" source="#Controller1-weights" offset="1"/>
          <vcount>1 1 1 1 1 1 1 1 1 1 1 1 1 1 1 1 1 1 1 1 1 1 1 1 1 1 1 1 1 1 1 1 1 1 1 1 1 1 1 1 1 1 1 1 1 1 1 1 1 1 1 1 1 1 1 1 1 1 1 1 1 1 1 1 1 1 1 1 1 1 1 1 1 1 1 1 1 1 1 1 1 1 1 1 1 1 1 1 1 1 1 1 1 1 1 1 1 1 1 1 1 1 1 1 1 1 1 1 1 1 1 1 1 1 1 1 1 1 1 1 1 1 1 1 1 1 1 1 1 1 1 1 1 1 1 1 1 1 1 1 1 1 1 1 1 1 1 1 1 1 1 1 1 1 1 1 1 1 1 1 1 1 1 1 1 1 1 1 1 1 1 1 1 1 1 1 1 1 1 1 1 1 1 1 1 1 1 1 1 1 1 1 1 1 1 1 1 1 1 1 1 1 1 1 1 1 1 1 1 1 1 1 1 1 1 1 1 1 1 1 1 1 1 1 1 1 1 1 1 1 1 1 1 1 1 1 1 1 1 1 1 1 1 1 1 1 1 1 1 1 1 1 1 1 1 1 1 1 1 1 1 1 1 1 1 1 1 1 1 1 1 1 1 1 1 1 1 1 1 1 1 1 1 1 1 1 1 1 1 1 1 1 1 1 1 1 1 1 1 1 1 1 1 1 1 1 1 1 1 1 1 1 1 1 1 1 1 1 1 1 1 1 1 1 1 1 1 1 1 1 1 1 1 1 1 1 1 1 1 1 1 1 1 1 1 1 1 1 1 1 1 1 1 1 1 1 1 1 1 1 1 1 1 1 1 1 1 1 1 1 1 1 1 1 1 1 1 1 1 1 1 1 1 1 1 1 1 1 1 1 1 1 1 1 1 1 1 1 1 1 1 1 1 1 1 1 1 1 1 1 1 1 1 1 1 1 1 1 1 1 1 1 1 1 1 1 1 </vcount>
          <v>6 0 6 0 7 0 6 0 6 0 6 0 6 0 7 0 7 0 7 0 7 0 7 0 7 0 8 0 8 0 7 0 7 0 8 0 8 0 8 0 8 0 8 0 8 0 8 0 7 0 7 0 7 0 7 0 7 0 7 0 7 0 7 0 7 0 7 0 7 0 7 0 7 0 7 0 7 0 7 0 7 0 7 0 7 0 7 0 7 0 7 0 7 0 7 0 7 0 7 0 7 0 7 0 7 0 7 0 7 0 7 0 7 0 7 0 7 0 7 0 7 0 7 0 7 0 7 0 7 0 8 0 8 0 8 0 8 0 8 0 8 0 8 0 8 0 8 0 8 0 7 0 8 0 8 0 8 0 8 0 8 0 8 0 8 0 7 0 8 0 8 0 8 0 8 0 8 0 8 0 8 0 6 0 6 0 6 0 6 0 6 0 6 0 6 0 6 0 6 0 6 0 6 0 6 0 6 0 6 0 6 0 6 0 6 0 6 0 6 0 6 0 6 0 6 0 6 0 6 0 6 0 6 0 6 0 6 0 6 0 6 0 6 0 6 0 6 0 6 0 6 0 6 0 6 0 6 0 6 0 6 0 6 0 6 0 6 0 6 0 6 0 6 0 6 0 6 0 6 0 6 0 6 0 6 0 6 0 6 0 6 0 6 0 6 0 6 0 6 0 6 0 6 0 6 0 6 0 6 0 6 0 6 0 6 0 6 0 6 0 6 0 6 0 6 0 6 0 6 0 6 0 6 0 6 0 6 0 6 0 6 0 6 0 6 0 6 0 6 0 6 0 6 0 6 0 6 0 6 0 6 0 6 0 6 0 6 0 6 0 6 0 6 0 6 0 6 0 6 0 6 0 6 0 6 0 6 0 6 0 6 0 6 0 6 0 6 0 6 0 6 0 6 0 6 0 6 0 6 0 6 0 6 0 6 0 6 0 6 0 6 0 6 0 6 0 6 0 6 0 6 0 6 0 6 0 6 0 6 0 6 0 6 0 6 0 6 0 6 0 6 0 6 0 6 0 6 0 6 0 6 0 6 0 6 0 6 0 6 0 6 0 6 0 6 0 6 0 6 0 6 0 6 0 6 0 6 0 6 0 6 0 6 0 6 0 6 0 6 0 6 0 6 0 6 0 6 0 6 0 6 0 6 0 6 0 6 0 6 0 6 0 6 0 6 0 6 0 6 0 5 0 5 0 7 0 5 0 4 0 4 0 4 0 5 0 7 0 5 0 7 0 5 0 5 0 7 0 7 0 4 0 3 0 4 0 3 0 3 0 3 0 4 0 3 0 4 0 3 0 3 0 3 0 3 0 4 0 3 0 3 0 3 0 3 0 3 0 3 0 3 0 3 0 4 0 4 0 3 0 3 0 4 0 3 0 4 0 3 0 4 0 4 0 4 0 4 0 4 0 4 0 4 0 4 0 3 0 3 0 3 0 3 0 3 0 4 0 1 0 1 0 0 0 0 0 0 0 0 0 0 0 1 0 1 0 0 0 0 0 0 0 0 0 0 0 1 0 0 0 0 0 0 0 0 0 0 0 0 0 0 0 1 0 1 0 0 0 0 0 1 0 0 0 1 0 1 0 0 0 1 0 1 0 1 0 1 0 1 0 1 0 2 0 1 0 1 0 2 0 2 0 1 0 1 0 1 0 2 0 7 0 7 0 2 0 2 0 7 0 0 0 0 0 0 0 0 0 0 0 2 0 7 0 7 0 7 0 8 0 8 0 8 0 8 0 8 0 8 0 8 0 8 0 8 0 8 0 8 0 8 0 8 0 8 0 8 0 8 0 8 0 8 0 8 0 8 0 8 0 8 0 8 0 8 0 8 0 8 0 8 0 8 0 8 0 8 0 8 0 8 0 8 0 8 0 8 0 8 0 8 0 8 0 8 0 8 0 8 0 8 0 8 0</v>
        </vertex_weights>
      </skin>
      <extra>
        <technique profile="FCOLLADA">
          <user_properties>SkinController</user_properties>
        </technique>
      </extra>
    </controller>
  </library_controllers>
  <library_visual_scenes>
    <visual_scene id="VisualSceneNode" name="rdmscene">
      <node id="VisualSceneNode1" name="all_root" sid="all_root" type="JOINT">
        <matrix>1 0 0 0 0 1 0 0 0 0 1 0 0 0 0 1</matrix>
        <node id="VisualSceneNode2" name="skl_root" sid="skl_root" type="JOINT">
          <matrix>1 0 0 0 0 1 0 0 0 0 1 0 0 0 0 1</matrix>
          <node id="VisualSceneNode3" name="spine" sid="spine" type="JOINT">
            <matrix>-0.000003 -1 0 0 1 -0.000003 0 0 0 0 1 0 0 0 0 1</matrix>
            <node id="VisualSceneNode4" name="armL1" sid="armL1" type="JOINT">
              <matrix>-0.000003 1 0 3 -1 -0.000003 0 -1.7 0 0 1 0 0 0 0 1</matrix>
              <node id="VisualSceneNode5" name="armL2" sid="armL2" type="JOINT">
                <matrix>1 0 0 1.7 0 1 0 0 0 0 1 0 0 0 0 1</matrix>
                <node id="VisualSceneNode6" name="wristL" sid="wristL" type="JOINT">
                  <matrix>1 0 0 1.4 0 1 0 0 0 0 1 0 0 0 0 1</matrix>
                </node>
              </node>
            </node>
            <node id="VisualSceneNode7" name="armR1" sid="armR1" type="JOINT">
              <matrix>-0.000003 1 -0.000002 3 1 0.000003 0 1.7 0 -0.000002 -1 0 0 0 0 1</matrix>
              <node id="VisualSceneNode8" name="armR2" sid="armR2" type="JOINT">
                <matrix>1 0 0 1.7 0 1 0 -0.000000 0 0 1 0 0 0 0 1</matrix>
                <node id="VisualSceneNode9" name="wristR" sid="wristR" type="JOINT">
                  <matrix>1 0 0 1.4 0 1 0 0 0 0 1 0 0 0 0 1</matrix>
                </node>
              </node>
            </node>
            <node id="VisualSceneNode10" name="head" sid="head" type="JOINT">
              <matrix>-0.000003 0 -1 4 0 1 0 0 1 0 -0.000003 0 0 0 0 1</matrix>
            </node>
          </node>
          <node id="VisualSceneNode11" name="waist" sid="waist" type="JOINT">
            <matrix>-0.000003 0 -1 0 0 1 0 0 1 0 -0.000003 0 0 0 0 1</matrix>
          </node>
        </node>
      </node>
      <node id="VisualSceneNode12" name="mesh_0_" type="NODE">
        <matrix>1 0 0 0 0 1 0 0 0 0 1 0 0 0 0 1</matrix>
        <instance_controller url="#Controller">
          <skeleton>#VisualSceneNode1</skeleton>
          <bind_material>
            <technique_common>
              <instance_material symbol="VisualMaterial0" target="#VisualMaterial"/>
            </technique_common>
          </bind_material>
        </instance_controller>
      </node>
      <node id="VisualSceneNode13" name="mesh_1_" type="NODE">
        <matrix>1 0 0 0 0 1 0 0 0 0 1 0 0 0 0 1</matrix>
        <instance_controller url="#Controller1">
          <skeleton>#VisualSceneNode1</skeleton>
          <bind_material>
            <technique_common>
              <instance_material symbol="VisualMaterial10" target="#VisualMaterial1"/>
            </technique_common>
          </bind_material>
        </instance_controller>
      </node>
    </visual_scene>
  </library_visual_scenes>
  <scene>
    <instance_visual_scene url="#VisualSceneNode"/>
  </scene>
</COLLADA>
