<?xml version="1.0" encoding="utf-8"?>
<COLLADA xmlns="http://www.collada.org/2005/11/COLLADASchema" version="1.4.1">
  <asset>
    <contributor>
      <authoring_tool>Every File Explorer</authoring_tool>
    </contributor>
    <created>2022-07-23T19:49:33.6364867-05:00</created>
    <modified>2022-07-23T19:49:33.6364867-05:00</modified>
    <unit meter="1" name="meter" />
  </asset>
  <library_geometries>
    <geometry id="ID7">
      <mesh>
        <source id="ID9">
          <float_array id="ID10" count="129">1.63699996471405 1.32275998592377 1.32275998592377 1.63699996471405 0 1.87066996097565 1.63699996471405 1.32275998592377 -1.32275998592377 1.63699996471405 -1.32275998592377 -1.32275998592377 1.63699996471405 -1.32275998592377 1.32275998592377 1.63699996471405 -1.32275998592377 -1.32275998592377 0 -1.47221004962921 -1.47221004962921 1.63699996471405 0 -1.87066996097565 0 0 -2.08202004432678 1.63699996471405 0 -1.87066996097565 0 0 -2.08202004432678 1.63699996471405 1.32275998592377 -1.32275998592377 0 1.47221004962921 -1.47221004962921 1.63699996471405 1.87066996097565 0 0 2.08202004432678 0 1.63699996471405 1.32275998592377 1.32275998592377 0 1.47221004962921 1.47221004962921 1.63699996471405 0 1.87066996097565 0 0 2.08202004432678 1.63699996471405 -1.32275998592377 1.32275998592377 0 -1.47221004962921 1.47221004962921 1.63699996471405 -1.87066996097565 0 0 -2.08202004432678 0 -1.63699996471405 1.32275998592377 1.32275998592377 -1.63699996471405 1.87066996097565 0 -1.63699996471405 1.32275998592377 -1.32275998592377 -1.63699996471405 0 -1.87066996097565 -1.63699996471405 -1.32275998592377 -1.32275998592377 -1.63699996471405 0 1.87066996097565 -1.63699996471405 1.87066996097565 0 -1.63699996471405 1.32275998592377 1.32275998592377 -1.63699996471405 1.32275998592377 -1.32275998592377 -1.63699996471405 0 -1.87066996097565 -1.63699996471405 -1.32275998592377 -1.32275998592377 -1.63699996471405 0 -1.87066996097565 -1.63699996471405 -1.87066996097565 0 -1.63699996471405 -1.32275998592377 1.32275998592377 -1.63699996471405 0 1.87066996097565 -1.63699996471405 -1.87066996097565 0 -1.63699996471405 -1.32275998592377 1.32275998592377 1.63699996471405 1.87066996097565 0 1.63699996471405 0 -1.87066996097565 1.63699996471405 -1.87066996097565 0 </float_array>
          <technique_common>
            <accessor count="43" source="#ID10" stride="3">
              <param name="X" type="float" />
              <param name="Y" type="float" />
              <param name="Z" type="float" />
            </accessor>
          </technique_common>
        </source>
        <source id="ID11">
          <float_array id="ID12" count="129">0.773181974887848 0.448435992002487 0.448435992002487 0.917653024196625 0 0.397383004426956 0.869962990283966 0.348686993122101 -0.348686993122101 0.869962990283966 -0.348686993122101 -0.348686993122101 0.773181974887848 -0.448435992002487 0.448435992002487 0.869962990283966 -0.348686993122101 -0.348686993122101 0 -0.70710700750351 -0.70710700750351 0.773181974887848 0 -0.634184002876282 0 0 -1 0.773181974887848 0 -0.634184002876282 0 0 -1 0.869962990283966 0.348686993122101 -0.348686993122101 0 0.70710700750351 -0.70710700750351 0.558984994888306 0.829177975654602 0 0 1 0 0.773181974887848 0.448435992002487 0.448435992002487 0 0.70710700750351 0.70710700750351 0.917653024196625 0 0.397383004426956 0 0 1 0.773181974887848 -0.448435992002487 0.448435992002487 0 -0.70710700750351 0.70710700750351 0.558984994888306 -0.829177975654602 0 0 -1 0 -0.773181974887848 0.448435992002487 0.448435992002487 -0.558984994888306 0.829177975654602 0 -0.869962990283966 0.348686993122101 -0.348686993122101 -0.773181974887848 0 -0.634184002876282 -0.869962990283966 -0.348686993122101 -0.348686993122101 -0.917653024196625 0 0.397383004426956 -0.558984994888306 0.829177975654602 0 -0.773181974887848 0.448435992002487 0.448435992002487 -0.869962990283966 0.348686993122101 -0.348686993122101 -0.773181974887848 0 -0.634184002876282 -0.869962990283966 -0.348686993122101 -0.348686993122101 -0.773181974887848 0 -0.634184002876282 -0.558984994888306 -0.829177975654602 0 -0.773181974887848 -0.448435992002487 0.448435992002487 -0.917653024196625 0 0.397383004426956 -0.558984994888306 -0.829177975654602 0 -0.773181974887848 -0.448435992002487 0.448435992002487 0.558984994888306 0.829177975654602 0 0.773181974887848 0 -0.634184002876282 0.558984994888306 -0.829177975654602 0 </float_array>
          <technique_common>
            <accessor count="43" source="#ID12" stride="3">
              <param name="X" type="float" />
              <param name="Y" type="float" />
              <param name="Z" type="float" />
            </accessor>
          </technique_common>
        </source>
        <source id="ID13">
          <float_array id="ID14" count="86">0.578526973724365 0.842947006225586 0.507499992847443 0.5 0.921473026275635 0.842947006225586 0.921473026275635 0.157052993774414 0.578526973724365 0.157052993774414 0.468690991401672 0.919807016849518 0.468690991401672 0.940701007843018 0.458243995904922 0.919807016849518 0.458243995904922 0.940701007843018 0.541819989681244 0.919807016849518 0.541819989681244 0.940701007843018 0.531373023986816 0.919807016849518 0.531373023986816 0.940701007843018 0.520925998687744 0.919807016849518 0.520925998687744 0.940701007843018 0.510478973388672 0.919807016849518 0.510478973388672 0.940701007843018 0.500032007694244 0.919807016849518 0.500032007694244 0.940701007843018 0.489585012197495 0.919807016849518 0.489585012197495 0.940701007843018 0.479137986898422 0.919807016849518 0.479137986898422 0.940701007843018 0.421472996473312 0.842947006225586 0.25 0.985000014305115 0.0785266011953354 0.842947006225586 0.0074999900534749 0.5 0.0785266011953354 0.157052993774414 0.492500007152557 0.5 0.520925998687744 0.961594998836517 0.510478973388672 0.961594998836517 0.531373023986816 0.961594998836517 0.541819989681244 0.961594998836517 0.468690991401672 0.961594998836517 0.458243995904922 0.961594998836517 0.479137986898422 0.961594998836517 0.489585012197495 0.961594998836517 0.500032007694244 0.961594998836517 0.25 0.0149999000132084 0.421472996473312 0.157052993774414 0.75 0.985000014305115 0.992500007152557 0.5 0.75 0.0149999000132084 </float_array>
          <technique_common>
            <accessor count="43" source="#ID14" stride="2">
              <param name="S" type="float" />
              <param name="T" type="float" />
            </accessor>
          </technique_common>
        </source>
        <source id="ID15">
          <float_array id="ID16" count="172">1 1 1 1 1 1 1 1 1 1 1 1 1 1 1 1 1 1 1 1 1 1 1 1 1 1 1 1 1 1 1 1 1 1 1 1 1 1 1 1 1 1 1 1 1 1 1 1 1 1 1 1 1 1 1 1 1 1 1 1 1 1 1 1 1 1 1 1 1 1 1 1 1 1 1 1 1 1 1 1 1 1 1 1 1 1 1 1 1 1 1 1 1 1 1 1 1 1 1 1 1 1 1 1 1 1 1 1 1 1 1 1 1 1 1 1 1 1 1 1 1 1 1 1 1 1 1 1 1 1 1 1 1 1 1 1 1 1 1 1 1 1 1 1 1 1 1 1 1 1 1 1 1 1 1 1 1 1 1 1 1 1 1 1 1 1 1 1 1 1 1 1 </float_array>
          <technique_common>
            <accessor count="43" source="#ID16" stride="4">
              <param name="R" type="float" />
              <param name="G" type="float" />
              <param name="B" type="float" />
              <param name="A" type="float" />
            </accessor>
          </technique_common>
        </source>
        <vertices id="ID8">
          <input semantic="POSITION" source="#ID9" />
          <input semantic="NORMAL" source="#ID11" />
        </vertices>
        <triangles count="44" material="mat_tire_race">
          <input offset="0" semantic="VERTEX" source="#ID8" />
          <input offset="1" semantic="TEXCOORD" source="#ID13" />
          <input offset="2" semantic="COLOR" source="#ID15" />
          <p>0 0 0 1 1 1 2 2 2 0 0 0 2 2 2 40 40 40 1 1 1 41 41 41 2 2 2 3 3 3 41 41 41 1 1 1 3 3 3 1 1 1 4 4 4 42 42 42 3 3 3 4 4 4 5 5 5 6 6 6 7 7 7 22 22 22 6 6 6 5 5 5 21 21 21 22 22 22 5 5 5 20 20 20 22 22 22 21 21 21 19 19 19 20 20 20 21 21 21 18 18 18 20 20 20 19 19 19 17 17 17 18 18 18 19 19 19 16 16 16 18 18 18 17 17 17 15 15 15 16 16 16 17 17 17 14 14 14 16 16 16 15 15 15 13 13 13 14 14 14 15 15 15 12 12 12 14 14 14 13 13 13 11 11 11 12 12 12 13 13 13 10 10 10 12 12 12 11 11 11 9 9 9 10 10 10 11 11 11 10 10 10 32 32 32 12 12 12 32 32 32 31 31 31 12 12 12 12 12 12 31 31 31 14 14 14 31 31 31 29 29 29 14 14 14 14 14 14 29 29 29 16 16 16 29 29 29 30 30 30 16 16 16 16 16 16 30 30 30 18 18 18 30 30 30 37 37 37 18 18 18 18 18 18 37 37 37 20 20 20 37 37 37 36 36 36 20 20 20 20 20 20 36 36 36 22 22 22 36 36 36 35 35 35 22 22 22 22 22 22 35 35 35 6 6 6 35 35 35 33 33 33 6 6 6 6 6 6 33 33 33 8 8 8 6 6 6 8 8 8 7 7 7 33 33 33 34 34 34 8 8 8 23 23 23 24 24 24 25 25 25 28 28 28 23 23 23 25 25 25 26 26 26 28 28 28 25 25 25 26 26 26 27 27 27 28 28 28 27 27 27 39 39 39 28 28 28 27 27 27 38 38 38 39 39 39 </p>
        </triangles>
      </mesh>
    </geometry>
  </library_geometries>
  <library_effects>
    <effect id="ID3">
      <profile_COMMON>
        <newparam sid="ID5">
          <surface type="2D">
            <init_from>ID4</init_from>
          </surface>
        </newparam>
        <newparam sid="ID6">
          <sampler2D>
            <source>ID5</source>
          </sampler2D>
        </newparam>
        <technique sid="COMMON">
          <lambert>
            <diffuse>
              <texture texture="ID6" texcoord="UVSET0" />
            </diffuse>
          </lambert>
        </technique>
      </profile_COMMON>
    </effect>
  </library_effects>
  <library_images>
    <image id="ID4">
      <init_from>tire_race.png</init_from>
    </image>
  </library_images>
  <library_materials>
    <material id="ID2" name="mat_tire_race">
      <instance_effect url="#ID3" />
    </material>
  </library_materials>
  <library_visual_scenes>
    <visual_scene id="ID1">
      <node name="tire_race_R">
        <instance_geometry url="#ID7">
          <bind_material>
            <technique_common>
              <instance_material symbol="mat_tire_race" target="#ID2">
                <bind_vertex_input semantic="UVSET0" input_semantic="TEXCOORD" input_set="0" />
              </instance_material>
            </technique_common>
          </bind_material>
        </instance_geometry>
      </node>
    </visual_scene>
  </library_visual_scenes>
  <scene>
    <instance_visual_scene url="#ID1" />
  </scene>
</COLLADA>