<?xml version="1.0" encoding="utf-8"?>
<COLLADA xmlns="http://www.collada.org/2005/11/COLLADASchema" version="1.4.1">
  <asset>
    <created>2018-07-02T07:17:33Z</created>
    <modified>2018-07-02T07:17:33Z</modified>
  </asset>
  <library_images>
    <image id="Image">
      <init_from>./pc_eye.0.png</init_from>
    </image>
    <image id="Image1">
      <init_from>./pc_body.png</init_from>
    </image>
  </library_images>
  <library_materials>
    <material id="VisualMaterial" name="mat_pc_eye">
      <instance_effect url="#Effect"/>
      <extra>
        <technique profile="FCOLLADA">
          <user_properties>mat_pc_eye</user_properties>
        </technique>
      </extra>
    </material>
    <material id="VisualMaterial1" name="mat_pc_body">
      <instance_effect url="#Effect1"/>
      <extra>
        <technique profile="FCOLLADA">
          <user_properties>mat_pc_body</user_properties>
        </technique>
      </extra>
    </material>
  </library_materials>
  <library_effects>
    <effect id="Effect" name="pc_eye_0_png">
      <profile_COMMON>
        <newparam sid="Image-surface">
          <surface type="2D">
            <init_from>Image</init_from>
            <format>A8R8G8B8</format>
          </surface>
        </newparam>
        <newparam sid="Image-sampler">
          <sampler2D>
            <source>Image-surface</source>
            <wrap_s>WRAP</wrap_s>
            <wrap_t>WRAP</wrap_t>
            <minfilter>NONE</minfilter>
            <magfilter>NONE</magfilter>
            <mipfilter>NONE</mipfilter>
          </sampler2D>
        </newparam>
        <technique sid="common">
          <phong>
            <emission>
              <color>0 0 0 1</color>
            </emission>
            <ambient>
              <color>0 0 0 1</color>
            </ambient>
            <diffuse>
              <texture texture="Image-sampler" texcoord=""/>
            </diffuse>
            <specular>
              <color>1 1 1 1</color>
            </specular>
            <shininess>
              <float>0</float>
            </shininess>
            <transparent opaque="A_ONE">
              <color>0 0 0 1</color>
            </transparent>
            <transparency>
              <float>1</float>
            </transparency>
            <index_of_refraction>
              <float>1.55</float>
            </index_of_refraction>
          </phong>
          <extra>
            <technique profile="FCOLLADA">
              <spec_level>
                <float>0</float>
              </spec_level>
            </technique>
          </extra>
        </technique>
      </profile_COMMON>
      <extra>
        <technique profile="FCOLLADA">
          <user_properties>pc_eye.0.png</user_properties>
        </technique>
      </extra>
    </effect>
    <effect id="Effect1" name="pc_body_png">
      <profile_COMMON>
        <newparam sid="Image1-surface">
          <surface type="2D">
            <init_from>Image1</init_from>
            <format>A8R8G8B8</format>
          </surface>
        </newparam>
        <newparam sid="Image1-sampler">
          <sampler2D>
            <source>Image1-surface</source>
            <wrap_s>WRAP</wrap_s>
            <wrap_t>WRAP</wrap_t>
            <minfilter>NONE</minfilter>
            <magfilter>NONE</magfilter>
            <mipfilter>NONE</mipfilter>
          </sampler2D>
        </newparam>
        <technique sid="common">
          <phong>
            <emission>
              <color>0 0 0 1</color>
            </emission>
            <ambient>
              <color>0 0 0 1</color>
            </ambient>
            <diffuse>
              <texture texture="Image1-sampler" texcoord=""/>
            </diffuse>
            <specular>
              <color>1 1 1 1</color>
            </specular>
            <shininess>
              <float>0</float>
            </shininess>
            <transparent opaque="A_ONE">
              <color>0 0 0 1</color>
            </transparent>
            <transparency>
              <float>1</float>
            </transparency>
            <index_of_refraction>
              <float>1.55</float>
            </index_of_refraction>
          </phong>
          <extra>
            <technique profile="FCOLLADA">
              <spec_level>
                <float>0</float>
              </spec_level>
            </technique>
          </extra>
        </technique>
      </profile_COMMON>
      <extra>
        <technique profile="FCOLLADA">
          <user_properties>pc_body.png</user_properties>
        </technique>
      </extra>
    </effect>
  </library_effects>
  <library_geometries>
    <geometry id="Geometry" name="mesh_0_">
      <mesh>
        <source id="GeometrySource" name="mesh_0_Pos">
          <float_array id="GeometrySource-array" count="156">-0.000019 7.0159 0.724732 -0.000018 6.72895 0.70727 0.380671 7.06461 0.636232 -0.380711 7.06461 0.636232 -0.240896 7.26926 0.691313 -0.00002 7.15105 0.749152 0.240856 7.26927 0.691313 0.778035 7.35598 0.470804 0.209466 7.74412 0.464747 0.780772 7.6088 0.360816 0.763804 8.04187 0.427199 0.454267 8.42138 0.514312 0.102522 8.01096 0.659969 0.327865 8.79665 0.740625 1.03461 8.61803 0.340503 1.08655 9.272 0.467298 1.56192 8.24008 -0.089019 1.29666 7.90266 0.109778 1.49323 7.73249 -0.107783 1.18806 7.00252 0.149852 0.622249 6.76867 0.47114 0.262834 6.42971 0.401517 -0.000017 6.37654 0.491507 -0.262868 6.4297 0.401517 -0.622287 6.76866 0.47114 -0.778077 7.35597 0.470804 -1.1881 7.0025 0.149852 -1.2967 7.90265 0.109778 -0.780816 7.60879 0.360816 -0.76385 8.04186 0.427199 -0.203284 7.74411 0.464747 -0.449647 8.42137 0.514312 -0.099605 8.01096 0.659969 -0.074693 7.7242 0.699747 0.132493 7.29479 0.873674 -0.00002 7.15105 0.749152 -0.00002 7.29496 0.953544 0.073606 7.51444 0.796335 0.074349 7.7242 0.699747 -0.070535 7.51444 0.796335 0.000368 7.38206 0.981314 -0.132535 7.29479 0.873674 0.788536 6.56796 0.233508 0.802126 6.27324 -0.042613 -0.000015 5.95136 0.357204 -0.788572 6.56794 0.233508 -0.80216 6.27323 -0.042613 -1.49327 7.73247 -0.107783 -1.56196 8.24005 -0.089019 -1.03465 8.61802 0.340503 -1.08661 9.27199 0.467298 -0.3277 8.79665 0.740625</float_array>
          <technique_common>
            <accessor source="#GeometrySource-array" count="52" stride="3">
              <param name="X" type="float"/>
              <param name="Y" type="float"/>
              <param name="Z" type="float"/>
            </accessor>
          </technique_common>
        </source>
        <source id="GeometrySource1" name="mesh_0_Nrm">
          <float_array id="GeometrySource1-array" count="156">0.993615 0 0.112822 0.938508 0 0.345258 0.937238 -0.334892 0.097124 0.937237 0.334893 0.097124 0.806919 0.58875 -0.047498 0.984068 0 0.177791 0.806879 -0.588935 -0.045844 0.904934 -0.403391 -0.135534 0.863517 -0.496885 -0.086276 0.948518 -0.286937 -0.134095 0.945466 -0.311646 0.094709 0.882836 -0.41968 0.210877 0.877893 -0.465227 0.113433 0.896815 -0.369929 0.242643 0.872168 -0.464819 0.152531 0.850169 -0.485634 0.203401 0.697075 -0.70609 0.124596 0.827469 -0.561435 0.009327 0.515012 -0.84233 0.15888 0.649308 -0.707906 0.277973 0.831041 -0.448349 0.329172 0.827577 -0.36404 0.427306 0.910029 0 0.414545 0.827577 0.36404 0.427306 0.831041 0.448348 0.329172 0.905048 0.402957 -0.136062 0.649308 0.707906 0.277973 0.827469 0.561435 0.009327 0.948822 0.285899 -0.13416 0.945851 0.310561 0.094433 0.860583 0.501596 -0.088306 0.881862 0.420719 0.212872 0.874796 0.470983 0.113611 0.789144 0.560347 -0.251521 0.673707 -0.69289 0.256949 0.516436 0 0.856326 0.797668 0.000168 0.603097 0.689975 -0.516156 -0.507462 0.791863 -0.557237 -0.249882 0.69124 0.512081 -0.509862 0.952027 -0.000321 -0.306014 0.67432 0.694009 0.252278 0.72252 -0.511466 0.465152 0.188817 -0.582579 0.790538 0.73585 0 0.677145 0.72252 0.511467 0.465152 0.188816 0.582579 0.790538 0.515012 0.84233 0.15888 0.697075 0.70609 0.124596 0.872388 0.464213 0.153118 0.850198 0.485583 0.203403 0.895893 0.370803 0.244707</float_array>
          <technique_common>
            <accessor source="#GeometrySource1-array" count="52" stride="3">
              <param name="X" type="float"/>
              <param name="Y" type="float"/>
              <param name="Z" type="float"/>
            </accessor>
          </technique_common>
        </source>
        <source id="GeometrySource2" name="mesh_0_UV">
          <float_array id="GeometrySource2-array" count="104">0.499987 0.370599 0.499987 0.287848 0.6173 0.370208 0.382674 0.370208 0.436618 0.433569 0.499987 0.402995 0.563356 0.433569 0.696206 0.443329 0.566562 0.543097 0.711317 0.527077 0.701261 0.642083 0.620017 0.731027 0.522345 0.653436 0.594166 0.848689 0.77351 0.783706 0.813794 0.964701 0.977522 0.687154 0.855083 0.619459 0.915232 0.553675 0.836956 0.387764 0.653124 0.310494 0.569995 0.205931 0.499987 0.183329 0.429979 0.205931 0.34685 0.310494 0.304262 0.443329 0.163017 0.387764 0.145117 0.619459 0.297166 0.527077 0.298964 0.642083 0.442118 0.545476 0.379613 0.732812 0.47843 0.654626 0.48 0.552341 0.531671 0.439332 0.499987 0.402995 0.499987 0.445096 0.522345 0.497826 0.52 0.551449 0.47843 0.499016 0.500087 0.458427 0.468302 0.439332 0.683845 0.265541 0.716571 0.195099 0.499987 0.090815 0.316129 0.265541 0.283402 0.195099 0.084741 0.553676 0.022451 0.687154 0.226646 0.783706 0.186179 0.964701 0.405792 0.848771</float_array>
          <technique_common>
            <accessor source="#GeometrySource2-array" count="52" stride="2">
              <param name="S" type="float"/>
              <param name="T" type="float"/>
            </accessor>
          </technique_common>
        </source>
        <source id="GeometrySource3" name="mesh_0_Clr">
          <float_array id="GeometrySource3-array" count="208">1 1 1 1 1 1 1 1 1 1 1 1 1 1 1 1 1 1 1 1 1 1 1 1 1 1 1 1 1 1 1 1 1 1 1 1 1 1 1 1 1 1 1 1 1 1 1 1 1 1 1 1 1 1 1 1 1 1 1 1 1 1 1 1 1 1 1 1 1 1 1 1 1 1 1 1 0.956863 0.956863 0.956863 1 1 1 1 1 1 1 1 1 1 1 1 1 1 1 1 1 1 1 1 1 1 1 1 1 0.956863 0.956863 0.956863 1 1 1 1 1 1 1 1 1 1 1 1 1 1 1 1 1 1 1 1 1 1 1 1 1 1 1 1 1 1 1 1 1 1 1 1 1 1 1 1 1 1 1 1 1 1 1 1 1 1 1 1 1 1 1 1 1 1 1 1 1 0.984314 0.984314 0.984314 1 0.968628 0.968628 0.968628 1 1 1 1 1 0.980392 0.980392 0.980392 1 0.960784 0.960784 0.960784 1 1 1 1 1 1 1 1 1 1 1 1 1 1 1 1 1 1 1 1 1</float_array>
          <technique_common>
            <accessor source="#GeometrySource3-array" count="52" stride="4">
              <param name="R" type="float"/>
              <param name="G" type="float"/>
              <param name="B" type="float"/>
              <param name="A" type="float"/>
            </accessor>
          </technique_common>
        </source>
        <vertices id="Geometry-vertices">
          <input semantic="POSITION" source="#GeometrySource"/>
          <input semantic="NORMAL" source="#GeometrySource1"/>
          <input semantic="TEXCOORD" source="#GeometrySource2"/>
          <input semantic="COLOR" source="#GeometrySource3"/>
        </vertices>
        <triangles material="VisualMaterial0" count="87">
          <input semantic="VERTEX" source="#Geometry-vertices" offset="0"/>
          <p>0 1 2 0 3 1 0 4 3 5 4 0 6 0 2 5 0 6 7 6 2 7 8 6 8 7 9 8 9 10 11 8 10 11 12 8 13 12 11 11 10 14 13 11 14 14 15 13 15 14 16 7 17 9 9 17 10 16 14 17 10 17 14 16 17 18 17 19 18 7 19 17 1 20 2 7 2 20 7 20 19 21 20 1 22 21 1 1 23 22 1 3 24 1 24 23 25 3 4 25 24 3 25 26 24 25 27 26 28 27 25 29 27 28 30 29 28 30 28 25 25 4 30 31 29 30 32 31 30 33 32 30 30 4 33 6 34 35 34 36 35 6 37 34 37 6 38 12 38 8 32 33 38 12 32 38 38 6 8 4 39 33 38 33 39 37 38 39 34 40 36 40 37 39 34 37 40 41 40 39 41 36 40 4 35 41 41 35 36 4 41 39 42 20 21 20 42 19 42 43 19 21 44 42 22 23 44 22 44 21 43 42 44 24 45 23 23 45 44 24 26 45 45 26 46 46 44 45 47 26 27 27 48 47 31 49 29 49 48 27 49 27 29 50 48 49 13 51 12 51 32 12 32 51 31 49 51 50 51 49 31</p>
        </triangles>
      </mesh>
    </geometry>
    <geometry id="Geometry1" name="mesh_1_">
      <mesh>
        <source id="GeometrySource4" name="mesh_1_Pos">
          <float_array id="GeometrySource4-array" count="1254">7.04495 5.17534 -1.61431 6.61077 5.0522 -1.45912 6.63334 5.40356 -0.995023 6.97912 5.47033 -1.01927 7.01677 5.06348 -0.18755 7.76559 5.25904 -0.439199 7.68151 5.14785 -1.47223 7.66941 4.6096 -1.46018 7.78366 4.597 -0.466836 7.14675 4.32359 -0.45535 7.01677 5.06348 -0.18755 6.56715 5.06448 -0.555948 6.58693 4.61115 -1.01266 7.07016 4.59968 -1.58676 6.61077 5.0522 -1.45912 7.04495 5.17534 -1.61431 7.68151 5.14785 -1.47223 6.56715 5.06448 -0.555948 3.7908 5.33404 -0.579341 6.56715 5.06448 -0.555948 6.63334 5.40356 -0.995023 3.60165 5.75391 -1.17236 3.84218 5.36959 -1.71811 6.61077 5.0522 -1.45912 4.41889 4.96493 -1.8045 3.80741 4.62522 -1.71696 6.58693 4.61115 -1.01266 3.53111 4.22313 -1.15758 3.75415 4.62515 -0.580501 4.32591 4.96508 -0.452548 3.80741 4.62522 -1.71696 3.53111 4.22313 -1.15758 4.41889 4.96493 -1.8045 4.32591 4.96508 -0.452548 3.75415 4.62515 -0.580501 4.32591 4.96508 -0.452548 3.60165 5.75391 -1.17236 4.41889 4.96493 -1.8045 3.84218 5.36959 -1.71811 3.7908 5.33404 -0.579341 3.60165 5.75391 -1.17236 7.76559 5.25904 -0.439199 -7.04497 5.17529 -1.61431 -6.63336 5.40351 -0.995024 -6.61079 5.05215 -1.45912 -6.97915 5.47028 -1.01927 -7.01679 5.06343 -0.187551 -7.76562 5.25899 -0.4392 -7.68152 5.14779 -1.47223 -7.66943 4.60955 -1.46018 -7.78368 4.59694 -0.466835 -7.14677 4.32353 -0.455349 -7.01679 5.06343 -0.187551 -6.56717 5.06443 -0.555948 -6.58695 4.6111 -1.01266 -7.07018 4.59962 -1.58676 -6.61079 5.05215 -1.45912 -7.04497 5.17529 -1.61431 -7.68152 5.14779 -1.47223 -6.56717 5.06443 -0.555948 -3.79082 5.33401 -0.579342 -6.63336 5.40351 -0.995024 -6.56717 5.06443 -0.555948 -3.60168 5.75388 -1.17236 -3.8422 5.36955 -1.71811 -6.61079 5.05215 -1.45912 -4.41891 4.9649 -1.8045 -3.80743 4.62519 -1.71696 -6.58695 4.6111 -1.01266 -3.53113 4.2231 -1.15758 -3.75417 4.62512 -0.5805 -4.32593 4.96505 -0.452548 -3.80743 4.62519 -1.71696 -4.41891 4.9649 -1.8045 -3.53113 4.2231 -1.15758 -4.32593 4.96505 -0.452548 -3.75417 4.62512 -0.5805 -4.32593 4.96505 -0.452548 -4.41891 4.9649 -1.8045 -3.60168 5.75388 -1.17236 -3.8422 5.36955 -1.71811 -3.79082 5.33401 -0.579342 -3.60168 5.75388 -1.17236 -7.76562 5.25899 -0.4392 -1.90275 5.06671 0.113665 -0.957299 5.06672 -0.277959 -1.90276 6.01217 -0.277961 -2.84821 5.06671 -0.277959 -1.90275 4.12126 -0.277956 -0.957292 4.12126 -1.22341 -1.90274 3.72963 -1.22341 -2.8482 4.12125 -1.22341 -2.84821 6.01216 -1.22341 -1.90276 6.40378 -1.22342 -0.957306 6.01217 -1.22341 -0.565683 5.06672 -1.22341 -0.957299 5.06671 -2.16887 -1.90276 6.01216 -2.16887 -1.90275 5.06671 -2.56049 -2.84821 5.0667 -2.16887 -1.90275 4.12125 -2.16886 -2.84821 5.0667 -2.16887 -2.8482 4.12125 -1.22341 -2.84821 6.01216 -1.22341 -2.84821 5.06671 -0.277959 -2.7281 5.04914 -0.663256 -4.36672 4.96673 -0.728454 -2.71815 4.47164 -1.1757 -2.72633 5.54304 -1.19457 -4.31147 5.44221 -1.13255 -4.44708 4.95687 -1.61266 -2.76473 5.04391 -1.76508 -4.27153 4.47638 -1.13254 -4.84359 4.96055 -1.15155 2.72807 5.04916 -0.663255 2.71812 4.47166 -1.1757 4.3667 4.96677 -0.728454 2.72629 5.54306 -1.19457 4.31144 5.44225 -1.13254 4.44705 4.9569 -1.61266 2.76471 5.04393 -1.76508 4.2715 4.47641 -1.13254 4.84356 4.96058 -1.15155 1.90272 5.06672 0.113665 1.90272 6.01218 -0.277958 0.957269 5.06672 -0.277958 2.84818 5.06672 -0.277958 1.90272 4.12127 -0.277958 0.957269 4.12127 -1.22341 1.90272 3.72965 -1.22341 2.84818 4.12127 -1.22341 2.84818 6.01218 -1.22341 1.90272 6.4038 -1.22341 0.957269 6.01218 -1.22341 0.565647 5.06672 -1.22341 0.957269 5.06672 -2.16886 1.90272 6.01218 -2.16886 1.90272 5.06672 -2.56048 2.84818 5.06672 -2.16886 1.90272 4.12127 -2.16886 2.84818 5.06672 -2.16886 2.84818 6.01218 -1.22341 2.84818 4.12127 -1.22341 2.84818 5.06672 -0.277958 -0.000031 10.4449 -4.27161 0.960802 10.4325 -3.04483 0.960805 9.5564 -3.46108 -0.000027 9.0895 -3.68291 -0.000028 9.49241 -2.21886 -0.000033 10.8994 -2.823 -0.960866 10.4325 -3.04483 -0.960863 9.55638 -3.46108 -0.000033 10.7635 -3.34574 -0.594047 10.4301 -3.52378 -1.29976 9.88857 -4.99704 -0.57342 9.83183 -3.59198 -0.982623 10.9048 -4.90825 -1.13106 10.7927 -6.70788 -1.38237 9.80285 -6.80536 -0.000014 8.97906 -6.73144 -0.000021 9.2553 -4.81702 -0.000024 9.30064 -3.76468 1.29972 9.88859 -4.99703 1.38233 9.80287 -6.80535 -0.038943 9.03503 -8.73142 1.11568 9.93469 -8.22355 0.8839 10.5801 -8.47602 0.485536 10.3073 -9.41535 -0.20566 9.71382 -9.92187 -0.467591 11.1331 -10.3285 -0.798772 10.3072 -9.41536 -1.11572 9.93467 -8.22356 -0.883942 10.5801 -8.47603 -0.507248 10.6491 -8.7769 -0.172549 10.7269 -9.11593 0.467145 10.6434 -8.7519 -0.069523 10.7393 -8.35462 0.106599 9.89019 -3.07069 -0.000034 10.6745 -3.52432 -0.000034 10.9784 -4.28753 0.982557 10.9048 -4.90823 -0.000033 11.0393 -4.88034 1.131 10.7928 -6.70787 -0.000026 10.7334 -6.96653 0.73833 10.6901 -7.19141 1.47888 11.0027 -7.22461 1.04011 10.4224 -7.39965 0.73833 10.6901 -7.19141 -0.738382 10.6901 -7.19141 -0.591942 10.8972 -8.12158 -0.000026 10.7334 -6.96653 -0.069523 10.7393 -8.35462 -0.836397 11.2831 -8.70209 -0.507248 10.6491 -8.7769 -0.069523 10.7393 -8.35462 0.467145 10.6434 -8.7519 0.591637 11.2832 -8.70209 0.591892 10.8972 -8.12158 0.73833 10.6901 -7.19141 1.04011 10.4224 -7.39965 -1.47894 11.0027 -7.22463 -1.06408 10.399 -7.46218 -0.738382 10.6901 -7.19141 -0.738382 10.6901 -7.19141 -1.06408 10.399 -7.46218 0.593981 10.4301 -3.52377 0.57796 9.83183 -3.59198 -0.921421 10.5063 -1.31247 -0.000032 10.5063 -0.206005 -0.720409 11.3593 -0.592089 -1.29081 12.1508 -1.31246 -0.720409 11.3593 -2.03284 -0.000032 10.5063 -2.41893 -0.000038 12.1508 -2.52705 0.720339 11.3593 -2.03284 0.921357 10.5063 -1.31247 1.29073 12.1508 -1.31246 0.720339 11.3593 -0.592089 -0.000038 12.1508 -0.097861 -0.000038 12.1508 -0.097861 -0.000033 10.9603 -1.31247 -0.720409 11.3593 -0.592089 0.720339 11.3593 -0.592089 1.29073 12.1508 -1.31246 0.720339 11.3593 -2.03284 -0.000038 12.1508 -2.52705 -0.720409 11.3593 -2.03284 -1.29081 12.1508 -1.31246 -1.83318 6.29964 -0.956613 -1.40141 6.30533 -0.956613 -1.6128 6.707 -0.51243 -1.99855 6.73531 -0.956608 -1.6128 7.10789 -0.956607 -1.23603 6.73531 -0.956609 -1.6128 6.707 -1.40079 1.83314 6.29967 -0.956613 1.61276 6.70702 -0.51243 1.40137 6.30535 -0.956613 1.99851 6.73534 -0.956608 1.61276 7.10791 -0.956607 1.23599 6.73533 -0.956609 1.61276 6.70703 -1.40079 1.44414 8.42093 -3.32319 1.54105 10.1679 -2.5681 2.36752 9.11846 -1.57306 1.90313 7.9615 -2.0241 1.97021 8.16391 -1.07592 1.50094 6.90279 -0.658829 1.13336 6.89848 -2.00913 0.653211 6.44419 -1.1789 -0.000017 6.49717 -1.77229 -0.00001 4.55754 -1.09555 -0.000016 6.1096 -0.549121 0.802126 6.27324 -0.042613 -0.000015 5.95136 0.357204 -0.80216 6.27323 -0.042613 -0.653246 6.44418 -1.1789 -1.1334 6.89846 -2.00913 -1.50098 6.90276 -0.658829 -1.1881 7.0025 0.149852 -1.49327 7.73247 -0.107783 -1.97025 8.16389 -1.07592 -1.56196 8.24005 -0.089019 -1.90317 7.96147 -2.0241 -2.36758 9.11842 -1.57306 -1.4442 8.42091 -3.32319 -1.54111 10.1679 -2.5681 -0.000029 9.84702 -3.48609 -0.000033 10.7303 -2.66001 -0.000024 8.41951 -3.75164 -0.000019 7.08255 -3.00128 1.65763 10.3441 -1.17887 -0.000033 10.9199 -1.14906 -1.65769 10.3441 -1.17887 -2.2696 9.45475 -1.06385 2.26954 9.45479 -1.06385 1.3213 9.94676 1.11087 -0.000026 8.9673 1.2898 1.08655 9.272 0.467298 -0.000029 9.88498 1.52969 -1.32136 9.94674 1.11087 -1.08661 9.27199 0.467298 -1.56196 8.24005 -0.089019 -2.49473 9.12533 0.088626 -2.90389 8.76044 -1.10631 -1.97025 8.16389 -1.07592 -2.36758 9.11842 -1.57306 -3.31464 9.5709 -1.41962 -2.76187 9.53402 -0.674605 -2.29195 9.81942 -0.212945 -1.17298 10.8851 0.48897 -0.000034 11.014 0.686201 -0.000033 10.9199 -1.14906 -1.65769 10.3441 -1.17887 -2.11098 10.3357 -0.713467 -2.78276 10.3013 -1.19693 -2.2696 9.45475 -1.06385 -1.65769 10.3441 -1.17887 1.17292 10.8852 0.48897 2.29189 9.81945 -0.212945 2.49467 9.12536 0.088626 1.56192 8.24008 -0.089019 2.90383 8.76048 -1.10631 1.97021 8.16391 -1.07592 2.36752 9.11846 -1.57306 3.31458 9.57094 -1.41962 2.76181 9.53406 -0.674605 2.26954 9.45479 -1.06385 2.36752 9.11846 -1.57306 2.11092 10.3358 -0.713467 2.7827 10.3013 -1.19693 2.26954 9.45479 -1.06385 1.65763 10.3441 -1.17887 1.65763 10.3441 -1.17887 1.49323 7.73249 -0.107783 1.18806 7.00252 0.149852 1.56192 8.24008 -0.089019 -0.000025 8.50658 0.842443 -2.2696 9.45475 -1.06385 -2.36758 9.11842 -1.57306 -1.49108 7.6217 -0.183174 -1.98527 8.44985 -0.544162 -1.85875 7.51656 -0.388684 -1.30395 6.53075 0.117498 -1.45414 6.74911 -0.293453 -1.33175 7.06582 -0.364876 -1.45327 6.60979 -0.584103 -1.37861 6.22473 -0.176011 -1.64397 6.69189 -0.401733 -1.88276 8.16389 -0.882402 -1.49108 7.6217 -0.183174 -1.57974 8.28284 -0.167931 -1.49108 7.6217 -0.183174 -1.33175 7.06582 -0.364876 -1.57974 8.28284 -0.167931 1.98521 8.44988 -0.544162 1.5797 8.28287 -0.167931 1.49104 7.62172 -0.183174 1.85871 7.51659 -0.388684 1.88272 8.16391 -0.882402 1.64393 6.69191 -0.401733 1.4541 6.74913 -0.293453 1.30391 6.53077 0.117498 1.33171 7.06584 -0.364876 1.49104 7.62172 -0.183174 1.45323 6.60981 -0.584103 1.37857 6.22475 -0.176011 1.49104 7.62172 -0.183174 1.5797 8.28287 -0.167931 1.33171 7.06584 -0.364876 -0.000009 4.24892 0.447499 -0.000015 5.81528 -0.227729 -1.0184 4.21782 0.168406 1.01838 4.21784 0.168406 0 2.82333 -0.072128 -1.13413 3.04826 -1.00794 -1.76131 4.69302 -1.59527 -0.855274 6.08438 -1.12825 -0.000016 6.26999 -1.89414 -0.000012 4.96199 -2.34535 1.76129 4.69304 -1.59527 0 2.95487 -1.68253 1.13413 3.04826 -1.00794 0.855242 6.0844 -1.12825 -0.000015 5.81528 -0.227729 -0.000016 6.26999 -1.89414 -0.855274 6.08438 -1.12825 0.855242 6.0844 -1.12825 -1.13413 3.04826 -1.00794 0 2.95487 -1.68253 -1.85164 2.43769 -1.27734 -2.45456 1.53268 0.263351 -1.78903 0.695201 -1.64531 0.000004 1.97158 -2.09831 1.78903 0.695201 -1.64528 1.85164 2.43769 -1.27731 2.45456 1.53268 0.263387 1.13413 3.04826 -1.00794 -1.87899 1.86225 2.27584 0 2.82333 -0.072128 -0.000011 2.00717 2.32723 1.87897 1.86225 2.27586 3.04579 -0.99616 3.14296 -0.000012 -1.52405 2.66797 -3.04581 -0.99616 3.14292 -2.19683 -0.08777 4.14997 -0.000019 0.11775 4.61683 2.19679 -0.08777 4.15001 1.74853 0.11754 1.9484 1.91308 -0.18825 3.99326 2.16048 -0.85911 3.38338 1.77348 -1.34833 3.40525 1.51858 -0.78252 3.37912 1.4864 -0.48858 4.7775 2.01367 0.43992 5.08455 2.32661 -0.58706 4.76605 1.4864 -0.48858 4.7775 2.32661 -0.58706 4.76605 2.01367 0.43992 5.08455 1.77348 -1.34833 3.40525 -1.74855 0.11754 1.94838 -2.16051 -0.85911 3.38335 -1.91312 -0.18825 3.99324 -1.7735 -1.34833 3.40523 -1.51862 -0.78252 3.3791 -1.48644 -0.48858 4.77748 -2.01371 0.43992 5.08452 -2.32665 -0.58706 4.76601 -1.48644 -0.48858 4.77748 -2.01371 0.43992 5.08452 -2.32665 -0.58706 4.76601 -1.7735 -1.34833 3.40523 -3.04581 -0.99616 3.14292 -0.000012 -1.52405 2.66797 -2.19683 -0.08777 4.14997 -0.000019 0.11775 4.61683 2.19679 -0.08777 4.15001 3.04579 -0.99616 3.14296</float_array>
          <technique_common>
            <accessor source="#GeometrySource4-array" count="418" stride="3">
              <param name="X" type="float"/>
              <param name="Y" type="float"/>
              <param name="Z" type="float"/>
            </accessor>
          </technique_common>
        </source>
        <source id="GeometrySource5" name="mesh_1_Nrm">
          <float_array id="GeometrySource5-array" count="1254">-0.073872 0.480942 -0.873635 -0.152072 0.024312 -0.98807 -0.115854 0.993266 0.001077 0.011807 0.999398 -0.03261 -0.170301 0.40835 0.896799 0.776024 0.542798 0.321181 0.576916 0.604543 -0.549267 0.677225 -0.457913 -0.575918 0.662218 -0.43704 0.608657 -0.22071 -0.904351 0.365288 -0.170301 0.40835 0.896799 -0.290521 -0.023591 0.956578 -0.226578 -0.972714 -0.049904 -0.246195 -0.63335 -0.73366 -0.152072 0.024312 -0.98807 -0.073872 0.480942 -0.873635 0.576916 0.604543 -0.549267 -0.290521 -0.023591 0.956578 0.055429 0.680577 0.730577 -0.290521 -0.023591 0.956578 -0.115854 0.993266 0.001077 0.113721 0.993343 0.018342 0.139397 0.69171 -0.708594 -0.152072 0.024312 -0.98807 0.157868 -0.065682 -0.985273 0.154973 -0.691978 -0.705088 -0.226578 -0.972714 -0.049904 0.125577 -0.99205 0.008255 0.0834 -0.674566 0.733489 0.047971 -0.043585 0.997897 -0.402291 0.825923 0.394986 -0.519169 0.854318 -0.024582 -0.549659 0.815572 0.180881 -0.54123 0.80636 -0.238441 -0.39314 0.818754 -0.418429 -0.596098 -0.766228 -0.23992 -0.588679 -0.807042 -0.046264 -0.625744 -0.76603 0.147118 -0.506805 -0.793981 0.335771 -0.446571 -0.791229 -0.41777 -0.588679 -0.807042 -0.046264 0.776024 0.542798 0.321181 -0.073872 0.480942 0.873635 -0.115854 0.993266 0.001077 -0.152072 0.024313 0.98807 0.011937 0.999519 0.02862 -0.170301 0.408351 -0.896798 0.776024 0.542798 -0.321181 0.576916 0.604544 0.549267 0.677225 -0.457913 0.575918 0.662217 -0.43704 -0.608657 -0.22071 -0.904352 -0.365288 -0.170301 0.408351 -0.896798 -0.290521 -0.023591 -0.956578 -0.226578 -0.972714 0.049904 -0.246195 -0.63335 0.73366 -0.152072 0.024313 0.98807 -0.073872 0.480942 0.873635 0.576916 0.604544 0.549267 -0.290521 -0.023591 -0.956578 0.055429 0.680577 -0.730577 -0.115854 0.993266 0.001077 -0.290521 -0.023591 -0.956578 0.113721 0.993343 -0.018342 0.139397 0.69171 0.708595 -0.152072 0.024313 0.98807 0.157868 -0.065682 0.985273 0.154973 -0.691978 0.705089 -0.226578 -0.972714 0.049904 0.125577 -0.99205 -0.008255 0.0834 -0.674566 -0.733488 0.047971 -0.043585 -0.997897 -0.402291 0.825923 -0.394986 -0.549659 0.815572 -0.180881 -0.519169 0.854318 0.024581 -0.54123 0.80636 0.23844 -0.39314 0.818755 0.418428 -0.596098 -0.766228 0.23992 -0.625744 -0.76603 -0.147118 -0.588679 -0.807042 0.046264 -0.506805 -0.793982 -0.335771 -0.446571 -0.791229 0.417769 -0.588679 -0.807042 0.046264 0.776024 0.542798 -0.321181 0 0 -1 -0.69999 0 -0.714153 0 0.707107 -0.707107 0.69999 0 -0.714153 0 -0.707107 -0.707107 -0.707107 -0.707107 0 0 -1 0 0.802156 -0.597114 0 0.802156 0.597114 0 0 1 0 -0.707107 0.707107 0 -1 0 0 -0.707107 0 0.707107 0 0.707107 0.707107 0 0 1 0.705765 0 0.708446 0 -0.707107 0.707107 0.705765 0 0.708446 0.802156 -0.597114 0 0.802156 0.597114 0 0.69999 0 -0.714153 0.042078 0.047097 -0.998004 0.260286 0.014284 -0.965426 0.008935 -0.998946 -0.045025 0.086078 0.995787 -0.03161 0.420101 0.905498 -0.05991 0.3409 0.001938 0.940098 0.091488 0.025155 0.995488 0.382372 -0.921396 -0.06943 0.994068 -0.02152 -0.106606 0.042078 0.047097 0.998004 0.008935 -0.998946 0.045025 0.260286 0.014284 0.965426 0.086078 0.995787 0.03161 0.420101 0.905498 0.059909 0.3409 0.001938 -0.940098 0.091488 0.025155 -0.995488 0.382372 -0.921396 0.06943 0.994068 -0.02152 0.106606 0 0 1 0 0.707107 0.707107 -0.707107 0 0.707107 0.705765 0 0.708446 0 -0.707107 0.707107 -0.707107 -0.707107 0 0 -1 0 0.802156 -0.597114 0 0.802156 0.597114 0 0 1 0 -0.707107 0.707107 0 -1 0 0 -0.69999 0 -0.714153 0 0.707107 -0.707107 0 0 -1 0.69999 0 -0.714153 0 -0.707107 -0.707107 0.69999 0 -0.714153 0.802156 0.597114 0 0.802156 -0.597114 0 0.705765 0 0.708446 0.910914 0.412597 0 0.080685 -0.777276 -0.623965 -0.245397 -0.852329 0.461861 -0.450023 0 0.893017 0.902081 0 0.431567 0.440999 0 -0.897508 0.080685 0.777276 -0.623965 -0.245397 0.852329 0.461861 -0.298229 0 -0.954494 -0.658772 0.320647 -0.680591 -0.216596 -0.413319 -0.884451 -0.58645 -0.434442 -0.68362 -0.229078 0.815963 -0.53078 -0.077349 0.878328 -0.471759 0.059236 -0.2601 -0.963763 -0.064348 -0.997928 -0.000197 -0.092959 -0.99567 0 -0.358535 -0.933425 0.013084 -0.215961 -0.412813 0.884843 0.071697 -0.265273 0.961504 0.252217 -0.9676 -0.011726 0.386925 -0.295467 0.873492 0.219004 0.495115 0.840772 0.498974 0.438843 0.74729 0.74907 -0.660258 -0.054335 0.372517 0.912812 -0.16735 0.30581 0.209867 -0.928674 0.262026 -0.294426 -0.919052 0.136423 0.46541 -0.874518 -0.042921 0.920878 -0.387481 0.00215 0.979491 0.201475 0.29353 0.906235 0.304268 0.011807 0.999398 -0.03261 -0.989688 -0.134252 0.049942 -0.58058 0.814198 0.002956 -0.236018 0.971749 0 -0.229078 0.815963 0.53078 0.037887 0.999263 0.006091 -0.077349 0.878328 0.47176 0.037887 0.999263 0.006091 0.149436 0.970038 0.191558 0.50299 0.70386 0.50158 0.95885 0.084201 0.27114 0.149436 0.970038 0.191558 0.138968 0.972838 -0.185132 -0.27736 0.92599 -0.256152 0.037887 0.999263 0.006091 0.147563 0.988568 0.030948 0.427273 0.856809 -0.288645 0.99269 0.12052 0.006515 0.147563 0.988568 0.030948 0.996743 0.079835 -0.011381 0.502665 0.818603 0.277879 -0.255942 0.928461 0.269174 0.149436 0.970038 0.191558 0.028139 0.599995 0.799509 0.422137 0.739928 -0.523744 0.935 0.145754 -0.323311 0.138968 0.972838 -0.185132 0.138968 0.972838 -0.185132 0.041662 0.577695 -0.815189 -0.619931 0.332406 0.710768 -0.520608 -0.437686 0.733075 0 0.948062 0.318084 0.965132 0 0.261762 0.660194 0.723486 0.201775 0 0.975691 0.21915 -0.660194 0.723485 0.201775 -0.965132 0 0.261762 -0.997845 0 0.065608 -0.660194 -0.723485 0.201775 0 -0.948062 0.318084 0 -0.975691 0.21915 0.660194 -0.723486 0.201775 0.997846 0 0.065608 -0.69999 0 -0.714153 0 0 -1 -0.272836 -0.242717 -0.93094 -0.272836 0.242717 -0.93094 0 0.677981 -0.73508 0.272836 0.242717 -0.93094 0.69999 0 -0.714153 0.272836 -0.242717 -0.93094 0 -0.677981 -0.73508 -0.000001 0.579661 0.814858 -0.000001 -0.590736 0.806865 0.999397 -0.008327 0.033723 -0.000001 0.970901 -0.239481 0 0 -1 -0.000001 -0.973337 -0.229378 -0.999397 -0.008327 0.033722 -0.000001 -0.579661 0.814857 0.999397 0.008326 0.033723 -0.000001 0.590736 0.806865 -0.000001 -0.970901 -0.239481 0 0 -1 -0.000001 0.973337 -0.229378 -0.999397 0.008327 0.033722 -0.75172 -0.631805 0.189049 -0.524683 -0.614122 -0.589544 -0.26967 -0.952 -0.144822 -0.211357 -0.882334 0.420494 0.193895 -0.941088 0.277054 0.084172 -0.834089 0.54517 -0.38529 -0.519911 0.762394 -0.186407 -0.595111 0.781726 -0.587625 0 0.809133 -0.988657 0 -0.15019 0.145141 0 0.989411 0.188817 -0.582579 0.790538 0.73585 0 0.677145 0.188816 0.582579 0.790538 -0.186407 0.595111 0.781726 -0.38529 0.519911 0.762394 0.084172 0.834089 0.54517 0.649308 0.707906 0.277973 0.515012 0.84233 0.15888 0.193895 0.941088 0.277054 0.697075 0.70609 0.124596 -0.211358 0.882334 0.420494 -0.26967 0.952 -0.144822 -0.75172 0.631805 0.189049 -0.524683 0.614122 -0.589544 -0.904651 0 -0.426154 -0.357643 0 -0.933858 -0.986375 0 0.164513 -0.689461 0 0.724323 -0.306283 -0.436343 -0.846047 -0.130668 0 -0.991426 -0.306283 0.436343 -0.846047 -0.197794 0.819316 -0.538144 -0.197793 -0.819316 -0.538144 0.877603 -0.468976 0.099366 0.805299 0 0.592869 0.677874 -0.292694 0.674402 0.939969 0 -0.341261 0.877604 0.468976 0.099366 0.677874 0.292693 0.674402 0.621749 0.298783 0.723987 0.618817 0.785316 0.018551 -0.125648 0.68047 0.721924 -0.301173 0.506462 0.807955 -0.976143 0.183784 0.115619 -0.225515 0.683602 -0.694141 0.177483 0.445476 -0.877525 0.376032 0.767039 -0.519857 0.320416 0.433062 -0.842491 0.421447 0 -0.906853 -0.130668 0 -0.991426 -0.306283 0.436343 -0.846047 0.176706 0.412529 -0.893641 -0.151635 0.765948 -0.624764 -0.60986 0.631573 0.478734 -0.306283 0.436343 -0.846047 0.320415 -0.433062 -0.842491 0.376032 -0.767039 -0.519857 0.618816 -0.785317 0.018551 0.621749 -0.298783 0.723987 -0.125648 -0.68047 0.721924 -0.301173 -0.506462 0.807955 -0.976143 -0.183784 0.115619 -0.225515 -0.683602 -0.694141 0.177483 -0.445477 -0.877525 -0.349882 0.08367 -0.93305 -0.976143 -0.183784 0.115619 0.176705 -0.412529 -0.893642 -0.151637 -0.765948 -0.624764 -0.609861 -0.631573 0.478734 -0.306283 -0.436343 -0.846047 -0.306283 -0.436343 -0.846047 0.515012 -0.84233 0.15888 0.649308 -0.707906 0.277973 0.697075 -0.70609 0.124596 0.717438 0 0.696622 -0.349882 -0.08367 -0.93305 -0.976143 0.183784 0.115619 0.814153 0.579462 -0.037133 0.540976 0.837728 0.074537 0.458153 0.874829 0.157387 0.714077 -0.379176 0.58849 0.72005 -0.421218 0.551455 -0.22009 -0.968138 0.119454 -0.691355 -0.569744 0.44432 0.655165 0.378723 0.653703 0.115022 0.936595 0.330999 -0.648458 0.721888 0.241619 0.183243 -0.959259 -0.215044 0.705602 0.699997 0.110135 0.445968 -0.888404 -0.108859 0.445968 -0.888404 -0.108859 0.445968 -0.888404 -0.108859 0.540976 -0.837728 0.074537 0.705602 -0.699997 0.110135 0.814152 -0.579463 -0.037133 0.458153 -0.874829 0.157387 -0.648458 -0.721888 0.241619 0.115022 -0.936595 0.330999 0.72005 0.421218 0.551455 0.714076 0.379176 0.58849 -0.22009 0.968138 0.119454 0.183243 0.959259 -0.215044 -0.691355 0.569744 0.44432 0.655165 -0.378722 0.653704 0.445967 0.888405 -0.108859 0.445967 0.888405 -0.108859 0.445967 0.888405 -0.108859 0.027938 0 0.99961 0.705765 0 0.708446 0.032912 0.6595 0.750984 0.032912 -0.6595 0.750984 0 -0.500596 0.865681 -0.85029 -0.521455 0.071354 0.064519 0.841094 -0.537027 0.75572 0.601565 0.258857 0.850295 0 -0.526306 0 0 -1 0.064519 -0.841094 -0.537027 0 -0.413799 -0.910368 0.85029 -0.521455 0.071354 0.75572 -0.601566 0.258857 0.705765 0 0.708446 0.850295 0 -0.526306 0.75572 0.601565 0.258857 0.75572 -0.601566 0.258857 -0.509006 0.860456 -0.023001 0 0.565563 -0.824705 -0.626345 0.473939 0.61893 -0.043144 0.391024 0.919369 -0.722143 -0.437064 0.536177 -0.985869 0.167516 0 -0.722143 -0.437064 -0.536177 -0.626345 0.473939 -0.61893 -0.043144 0.391024 -0.919369 0.509006 0.860456 -0.023001 0.409386 0.785941 0.463356 0 0.948062 0.318084 0.487251 0.873262 0 0.409386 0.785941 -0.463356 -0.055773 -0.050762 -0.997152 -0.409118 -0.912482 0 -0.055773 -0.050762 0.997152 0.543228 0.61521 0.571332 0.670178 0.742201 0 0.543228 0.61521 -0.571332 -0.97418 -0.144263 0.173669 -0.25678 0.963371 -0.077332 -0.223947 -0.090082 -0.970429 -0.11331 -0.983069 0.144003 -0.098141 0.086851 0.991375 0.401843 -0.130933 0.9063 0.583324 0.808821 -0.074443 0.364474 -0.33329 -0.869527 0.401843 -0.130933 0.9063 0.364474 -0.33329 -0.869527 0.583324 0.808821 -0.074443 -0.11331 -0.983069 0.144003 -0.97418 -0.144264 -0.173669 -0.223947 -0.090082 0.970429 -0.25678 0.963371 0.077332 -0.11331 -0.983069 -0.144003 -0.098141 0.086851 -0.991375 0.401843 -0.130933 -0.9063 0.583324 0.808821 0.074443 0.364474 -0.33329 0.869527 0.401843 -0.130933 -0.9063 0.583324 0.808821 0.074443 0.364474 -0.33329 0.869527 -0.11331 -0.983069 -0.144003 0.679431 -0.733434 0.021164 0.662135 -0.749384 0 0.661517 -0.748684 0.04322 0.644287 -0.764784 0 0.661517 -0.748684 -0.04322 0.679431 -0.733434 -0.021164</float_array>
          <technique_common>
            <accessor source="#GeometrySource5-array" count="418" stride="3">
              <param name="X" type="float"/>
              <param name="Y" type="float"/>
              <param name="Z" type="float"/>
            </accessor>
          </technique_common>
        </source>
        <source id="GeometrySource6" name="mesh_1_UV">
          <float_array id="GeometrySource6-array" count="836">0.632243 0.565801 0.628001 0.640326 0.603476 0.640327 0.596317 0.576917 0.556044 0.600156 0.568957 0.474169 0.619599 0.474169 0.619599 0.40802 0.568957 0.40802 0.563147 0.331303 0.525751 0.324962 0.54095 0.256113 0.592818 0.256113 0.623861 0.311706 0.644052 0.256113 0.649888 0.311963 0.649961 0.40802 0.584112 0.640327 0.510333 0.173579 0.692884 0.085081 0.692884 0.144338 0.510333 0.245508 0.510333 0.173579 0.692884 0.085081 0.540086 0.119357 0.504587 0.08998 0.692884 0.022397 0.504587 0.022397 0.504587 0.08998 0.540086 0.119357 0.244062 0.090032 0.192914 0.090032 0.244062 0.042077 0.140342 0.042077 0.140342 0.090032 0.140342 0.042077 0.192914 0.090032 0.244062 0.042077 0.244062 0.090032 0.140342 0.090032 0.192914 0.090032 0.525751 0.40802 0.632243 0.565801 0.603476 0.640327 0.628001 0.640326 0.596317 0.576917 0.556044 0.600156 0.568957 0.474169 0.619599 0.474169 0.619599 0.40802 0.568957 0.40802 0.563147 0.331303 0.525751 0.324962 0.54095 0.256113 0.592818 0.256113 0.623861 0.311706 0.644052 0.256113 0.649888 0.311963 0.649961 0.40802 0.584112 0.640327 0.510333 0.173579 0.692884 0.144338 0.692884 0.085081 0.510333 0.245508 0.510333 0.173579 0.692884 0.085081 0.540086 0.119357 0.504587 0.08998 0.692884 0.022397 0.504587 0.022397 0.504587 0.08998 0.540086 0.119357 0.244062 0.090032 0.244062 0.042077 0.192914 0.090032 0.140342 0.042077 0.140342 0.090032 0.140342 0.042077 0.244062 0.042077 0.192914 0.090032 0.244062 0.090032 0.140342 0.090032 0.192914 0.090032 0.525751 0.40802 0.414285 0.275065 0.414285 0.148596 0.372611 0.275065 0.414285 0.401849 0.455958 0.275065 0.495204 0.148596 0.495204 0.275065 0.495204 0.401849 0.334579 0.401849 0.334579 0.275065 0.334579 0.148596 0.334579 0.022349 0.414285 0.148596 0.372611 0.275065 0.414285 0.275065 0.414285 0.401849 0.455958 0.275065 0.737144 0.67414 0.793585 0.561258 0.680703 0.561258 0.737144 0.67414 0.014252 0.078539 0.09208 0.078539 0.014252 0.118259 0.014253 0.037523 0.09729 0.037523 0.09208 0.078539 0.014252 0.078539 0.09729 0.118258 0.119992 0.078539 0.014252 0.078539 0.014252 0.118259 0.09208 0.078539 0.014253 0.037523 0.09729 0.037523 0.09208 0.078539 0.014252 0.078539 0.09729 0.118258 0.119992 0.078539 0.414285 0.275065 0.372611 0.275065 0.414285 0.148596 0.414285 0.401849 0.455958 0.275065 0.495204 0.148596 0.495204 0.275065 0.495204 0.401849 0.334579 0.401849 0.334579 0.275065 0.334579 0.148596 0.334579 0.022349 0.414285 0.148596 0.372611 0.275065 0.414285 0.275065 0.414285 0.401849 0.455958 0.275065 0.737144 0.67414 0.680703 0.561258 0.793585 0.561258 0.737144 0.67414 0.865691 0.975427 0.892919 0.934492 0.834731 0.934492 0.818607 0.934492 0.865691 0.872924 0.915527 0.934492 0.892919 0.934492 0.834731 0.934492 0.896796 0.949878 0.77166 0.849649 0.716097 0.80761 0.770356 0.796682 0.720998 0.897182 0.649491 0.892114 0.647942 0.800907 0.648135 0.664975 0.729974 0.696448 0.774804 0.716803 0.716097 0.80761 0.647942 0.800907 0.559003 0.673473 0.584003 0.800939 0.569076 0.881986 0.518623 0.832346 0.503011 0.732599 0.466673 0.880584 0.518623 0.832346 0.584003 0.800939 0.569076 0.881986 0.546896 0.896885 0.516762 0.920923 0.546896 0.896885 0.544329 0.943812 0.791851 0.811687 0.777307 0.917424 0.751757 0.957828 0.720998 0.897182 0.724346 0.969232 0.649491 0.892114 0.641885 0.981329 0.634088 0.937959 0.624671 0.890567 0.617572 0.855066 0.647942 0.800907 0.617572 0.890567 0.580987 0.925716 0.617572 0.93761 0.573487 0.972057 0.552215 0.948786 0.546896 0.896885 0.569076 0.881986 0.546896 0.896885 0.552215 0.948786 0.580987 0.925716 0.617572 0.890567 0.617572 0.855066 0.624671 0.890567 0.617572 0.855066 0.647942 0.800907 0.634088 0.937959 0.617572 0.855066 0.77166 0.849649 0.770356 0.796682 0.479349 0.750789 0.399363 0.750789 0.441292 0.615293 0.509017 0.520449 0.441292 0.615293 0.399363 0.750789 0.373067 0.52045 0.441292 0.615293 0.479349 0.750789 0.509017 0.520449 0.441292 0.615293 0.373067 0.52045 0.461884 0.510629 0.440493 0.571288 0.418691 0.510629 0.418691 0.510629 0.461884 0.510629 0.418691 0.510629 0.461884 0.510629 0.418691 0.510629 0.461884 0.510629 0.272978 0.044584 0.308356 0.044865 0.290878 0.066893 0.271063 0.091673 0.290853 0.112489 0.310339 0.091673 0.290878 0.066893 0.272978 0.044584 0.290878 0.066893 0.308356 0.044865 0.271063 0.091673 0.290853 0.112489 0.310339 0.091673 0.290878 0.066893 0.784486 0.306433 0.744385 0.433852 0.810329 0.469336 0.833154 0.376077 0.857663 0.483607 0.899924 0.354503 0.863053 0.266044 0.917111 0.239032 0.900034 0.179958 0.941241 0.127512 0.963172 0.224511 0.953712 0.313592 0.993518 0.274965 0.953712 0.313592 0.917111 0.239032 0.863053 0.266044 0.899924 0.354503 0.931417 0.401853 0.920182 0.447303 0.857663 0.483607 0.908947 0.492753 0.833154 0.376077 0.810329 0.469336 0.784486 0.306433 0.744385 0.433852 0.708465 0.288303 0.68022 0.394517 0.76299 0.193329 0.836796 0.154242 0.755173 0.537459 0.663793 0.536727 0.755173 0.537459 0.804017 0.526217 0.804017 0.526217 0.931353 0.658406 0.99081 0.564582 0.941581 0.593768 0.99081 0.652489 0.931353 0.658406 0.941581 0.593768 0.908947 0.492753 0.884539 0.579394 0.841161 0.543795 0.857663 0.483607 0.815734 0.537659 0.82466 0.603984 0.865674 0.630781 0.881882 0.657577 0.935271 0.758127 0.993625 0.775348 0.945812 0.930723 0.868864 0.814456 0.870234 0.746349 0.832679 0.740273 0.84362 0.677048 0.881882 0.657577 0.935271 0.758127 0.881882 0.657577 0.884539 0.579394 0.908947 0.492753 0.841161 0.543795 0.857663 0.483607 0.815734 0.537659 0.82466 0.603984 0.865674 0.630781 0.84362 0.677048 0.831787 0.692355 0.870234 0.746349 0.832679 0.740273 0.84362 0.677048 0.881882 0.657577 0.868864 0.814456 0.920182 0.447303 0.931417 0.401853 0.908947 0.492753 0.993625 0.513752 0.84362 0.677048 0.831787 0.692355 0.907071 0.423141 0.891457 0.49248 0.90007 0.432877 0.925274 0.372506 0.911273 0.378331 0.90685 0.405236 0.901703 0.357422 0.92058 0.337209 0.907584 0.375327 0.874296 0.474815 0.907071 0.423141 0.902948 0.483713 0.907071 0.423141 0.90685 0.405236 0.902948 0.483713 0.891457 0.49248 0.902948 0.483713 0.907071 0.423141 0.90007 0.432877 0.874296 0.474815 0.907584 0.375327 0.911273 0.378331 0.925274 0.372506 0.90685 0.405236 0.907071 0.423141 0.901703 0.357422 0.92058 0.337209 0.907071 0.423141 0.902948 0.483713 0.90685 0.405236 0.318218 0.334469 0.318218 0.535283 0.254776 0.324636 0.254776 0.324636 0.318218 0.153189 0.160965 0.153189 0.112307 0.352873 0.169322 0.535283 0.013771 0.535283 0.013771 0.366411 0.112307 0.352873 0.013771 0.153189 0.160965 0.153189 0.169322 0.535283 0.09116 0.977299 0.018899 0.977299 0.051475 0.867124 0.051475 0.867124 0.058368 0.774489 0.007085 0.734332 0.074644 0.679381 0.140311 0.689345 0.080677 0.556064 0.007085 0.633283 0.080677 0.556064 0.074644 0.679381 0.140311 0.689345 0.058368 0.774489 0.228282 0.79538 0.096942 0.928409 0.228282 0.964264 0.228282 0.79538 0.358336 0.591631 0.358336 0.556064 0.358336 0.591631 0.358336 0.774488 0.358336 0.981698 0.358336 0.774488 0.861519 0.114789 0.757458 0.143611 0.773834 0.061576 0.770492 0.011791 0.773834 0.061576 0.709712 0.128569 0.713198 0.237065 0.709712 0.128569 0.913128 0.092745 0.913128 0.02592 0.957348 0.058135 0.847368 0.058135 0.861519 0.114789 0.773834 0.061576 0.757458 0.143611 0.770492 0.011791 0.773834 0.061576 0.709712 0.128569 0.713198 0.237065 0.709712 0.128569 0.913128 0.092745 0.957348 0.058135 0.913128 0.02592 0.847368 0.058135 0.413298 0.774488 0.413298 0.981698 0.358336 0.774488 0.358336 0.981698 0.358336 0.774488 0.413298 0.774488</float_array>
          <technique_common>
            <accessor source="#GeometrySource6-array" count="418" stride="2">
              <param name="S" type="float"/>
              <param name="T" type="float"/>
            </accessor>
          </technique_common>
        </source>
        <source id="GeometrySource7" name="mesh_1_Clr">
          <float_array id="GeometrySource7-array" count="1672">0.964706 0.964706 0.964706 1 0.862745 0.862745 0.862745 1 0.862745 0.862745 0.862745 1 0.964706 0.964706 0.964706 1 0.964706 0.964706 0.964706 1 0.964706 0.964706 0.964706 1 0.964706 0.964706 0.964706 1 0.964706 0.964706 0.964706 1 0.964706 0.964706 0.964706 1 0.964706 0.964706 0.964706 1 0.964706 0.964706 0.964706 1 0.862745 0.862745 0.862745 1 0.862745 0.862745 0.862745 1 0.964706 0.964706 0.964706 1 0.862745 0.862745 0.862745 1 0.964706 0.964706 0.964706 1 0.964706 0.964706 0.964706 1 0.862745 0.862745 0.862745 1 0.964706 0.964706 0.964706 1 0.862745 0.862745 0.862745 1 0.862745 0.862745 0.862745 1 0.964706 0.964706 0.964706 1 0.964706 0.964706 0.964706 1 0.862745 0.862745 0.862745 1 0.964706 0.964706 0.964706 1 0.964706 0.964706 0.964706 1 0.862745 0.862745 0.862745 1 0.964706 0.964706 0.964706 1 0.964706 0.964706 0.964706 1 0.964706 0.964706 0.964706 1 0.686275 0.686275 0.686275 1 0.686275 0.686275 0.686275 1 0.686275 0.686275 0.686275 1 0.686275 0.686275 0.686275 1 0.686275 0.686275 0.686275 1 0.686275 0.686275 0.686275 1 0.686275 0.686275 0.686275 1 0.686275 0.686275 0.686275 1 0.686275 0.686275 0.686275 1 0.686275 0.686275 0.686275 1 0.964706 0.964706 0.964706 1 0.964706 0.964706 0.964706 1 0.964706 0.964706 0.964706 1 0.862745 0.862745 0.862745 1 0.862745 0.862745 0.862745 1 0.964706 0.964706 0.964706 1 0.964706 0.964706 0.964706 1 0.964706 0.964706 0.964706 1 0.964706 0.964706 0.964706 1 0.964706 0.964706 0.964706 1 0.964706 0.964706 0.964706 1 0.964706 0.964706 0.964706 1 0.964706 0.964706 0.964706 1 0.862745 0.862745 0.862745 1 0.862745 0.862745 0.862745 1 0.964706 0.964706 0.964706 1 0.862745 0.862745 0.862745 1 0.964706 0.964706 0.964706 1 0.964706 0.964706 0.964706 1 0.862745 0.862745 0.862745 1 0.964706 0.964706 0.964706 1 0.862745 0.862745 0.862745 1 0.862745 0.862745 0.862745 1 0.964706 0.964706 0.964706 1 0.964706 0.964706 0.964706 1 0.862745 0.862745 0.862745 1 0.964706 0.964706 0.964706 1 0.964706 0.964706 0.964706 1 0.862745 0.862745 0.862745 1 0.964706 0.964706 0.964706 1 0.964706 0.964706 0.964706 1 0.964706 0.964706 0.964706 1 0.686275 0.686275 0.686275 1 0.686275 0.686275 0.686275 1 0.686275 0.686275 0.686275 1 0.686275 0.686275 0.686275 1 0.686275 0.686275 0.686275 1 0.686275 0.686275 0.686275 1 0.686275 0.686275 0.686275 1 0.686275 0.686275 0.686275 1 0.686275 0.686275 0.686275 1 0.686275 0.686275 0.686275 1 0.964706 0.964706 0.964706 1 0.964706 0.964706 0.964706 1 1 1 1 1 0.976471 0.976471 0.976471 1 1 1 1 1 0.94902 0.94902 0.94902 1 1 1 1 1 0.933333 0.933333 0.933333 1 1 1 1 1 0.827451 0.827451 0.827451 1 1 1 1 1 1 1 1 1 0.976471 0.976471 0.976471 1 0.976471 0.976471 0.976471 1 0.976471 0.976471 0.976471 1 1 1 1 1 0.988235 0.988235 0.988235 1 0.976471 0.976471 0.976471 1 1 1 1 1 0.976471 0.976471 0.976471 1 0.827451 0.827451 0.827451 1 1 1 1 1 0.94902 0.94902 0.94902 1 0.898039 0.870588 0.815686 1 0.866667 0.788235 0.709804 1 0.815686 0.788235 0.733333 1 0.933333 0.905882 0.85098 1 0.878431 0.8 0.721569 1 0.882353 0.803922 0.72549 1 0.882353 0.854902 0.8 1 0.784314 0.701961 0.623529 1 0.882353 0.803922 0.72549 1 0.898039 0.870588 0.815686 1 0.815686 0.788235 0.733333 1 0.866667 0.788235 0.709804 1 0.933333 0.905882 0.85098 1 0.878431 0.8 0.721569 1 0.882353 0.803922 0.72549 1 0.882353 0.854902 0.8 1 0.784314 0.701961 0.623529 1 0.882353 0.803922 0.72549 1 1 1 1 1 1 1 1 1 0.976471 0.976471 0.976471 1 0.956863 0.956863 0.956863 1 1 1 1 1 0.933333 0.933333 0.933333 1 1 1 1 1 0.827451 0.827451 0.827451 1 1 1 1 1 1 1 1 1 0.976471 0.976471 0.976471 1 0.976471 0.976471 0.976471 1 0.976471 0.976471 0.976471 1 1 1 1 1 1 1 1 1 0.984314 0.984314 0.984314 1 1 1 1 1 0.984314 0.984314 0.984314 1 1 1 1 1 0.827451 0.827451 0.827451 1 0.956863 0.956863 0.956863 1 0 0 0 1 1 1 1 1 0.87451 0.87451 0.87451 1 0.756863 0.756863 0.756863 1 0 0 0 1 1 1 1 1 1 1 1 1 0.890196 0.890196 0.890196 1 0.784314 0.784314 0.784314 1 0.929412 0.898039 0.47451 1 0.929412 0.898039 0.47451 1 0.929412 0.898039 0.47451 1 0.909804 0.886275 0.596079 1 0.945098 0.929412 0.701961 1 0.929412 0.898039 0.47451 1 0.741176 0.717647 0.364706 1 0.752941 0.72549 0.368627 1 0.752941 0.72549 0.368627 1 0.929412 0.898039 0.47451 1 0.929412 0.898039 0.47451 1 0.741176 0.717647 0.364706 1 0.929412 0.898039 0.47451 1 0.929412 0.898039 0.47451 1 0.929412 0.898039 0.47451 1 0.784314 0.764706 0.513726 1 0.945098 0.929412 0.701961 1 0.929412 0.898039 0.47451 1 0.929412 0.898039 0.47451 1 0.929412 0.898039 0.47451 1 0.858823 0.827451 0.427451 1 0.917647 0.901961 0.682353 1 0.858823 0.827451 0.427451 1 0.858823 0.827451 0.427451 1 0.929412 0.898039 0.47451 1 0.929412 0.898039 0.47451 1 0.909804 0.886275 0.596079 1 0.909804 0.886275 0.596079 1 0.909804 0.886275 0.596079 1 0.945098 0.929412 0.701961 1 0.909804 0.886275 0.596079 1 0.929412 0.898039 0.47451 1 0.945098 0.929412 0.701961 1 0.835294 0.803922 0.407843 1 0.929412 0.898039 0.47451 1 0.929412 0.898039 0.47451 1 0.945098 0.929412 0.701961 1 0.909804 0.886275 0.596079 1 0.858823 0.827451 0.427451 1 0.945098 0.929412 0.701961 1 0.858823 0.827451 0.427451 1 0.858823 0.827451 0.427451 1 0.858823 0.827451 0.427451 1 0.945098 0.929412 0.701961 1 0.945098 0.929412 0.701961 1 0.929412 0.898039 0.47451 1 0.835294 0.803922 0.407843 1 0.945098 0.929412 0.701961 1 0.835294 0.803922 0.407843 1 0.929412 0.898039 0.47451 1 0.929412 0.898039 0.47451 1 0.835294 0.803922 0.407843 1 0.929412 0.898039 0.47451 1 0.929412 0.898039 0.47451 1 0.568627 0.568627 0.568627 1 0.568627 0.568627 0.568627 1 1 0.917647 0.627451 1 1 0.917647 0.627451 1 1 0.917647 0.627451 1 0.552941 0.552941 0.552941 1 1 0.917647 0.627451 1 1 0.917647 0.627451 1 0.568627 0.568627 0.568627 1 1 0.917647 0.627451 1 1 0.917647 0.627451 1 1 0.917647 0.627451 1 1 0.917647 0.627451 1 0.431373 0.431373 0.431373 1 1 0.917647 0.627451 1 1 0.917647 0.627451 1 1 0.917647 0.627451 1 1 0.917647 0.627451 1 1 0.917647 0.627451 1 1 0.917647 0.627451 1 1 0.917647 0.627451 1 0.501961 0.501961 0.501961 1 0.564706 0.564706 0.564706 1 1 1 1 1 0.945098 0.945098 0.945098 1 0.960784 0.960784 0.960784 1 0.529412 0.529412 0.529412 1 1 1 1 1 0.470588 0.470588 0.470588 1 1 1 1 1 0.54902 0.54902 0.54902 1 0.960784 0.960784 0.960784 1 0.976471 0.976471 0.976471 1 0.564706 0.564706 0.564706 1 1 1 1 1 0.901961 0.878431 0.592157 1 0.901961 0.878431 0.592157 1 0.929412 0.898039 0.47451 1 0.85098 0.831373 0.556863 1 0.784314 0.784314 0.784314 1 0.827451 0.827451 0.827451 1 0.768628 0.74902 0.505882 1 0.67451 0.67451 0.67451 1 0.666667 0.666667 0.666667 1 0.34902 0.34902 0.34902 1 0.729412 0.729412 0.729412 1 0.968628 0.968628 0.968628 1 1 1 1 1 0.960784 0.960784 0.960784 1 0.705882 0.705882 0.705882 1 0.768628 0.74902 0.505882 1 0.811765 0.811765 0.811765 1 0.956863 0.956863 0.956863 1 1 1 1 1 0.768628 0.768628 0.768628 1 1 1 1 1 0.85098 0.831373 0.556863 1 0.929412 0.898039 0.47451 1 0.901961 0.878431 0.592157 1 0.901961 0.878431 0.592157 1 0.901961 0.878431 0.592157 1 0.945098 0.929412 0.701961 1 0.901961 0.878431 0.592157 1 0.768628 0.74902 0.505882 1 0.945098 0.929412 0.701961 1 0.945098 0.929412 0.701961 1 0.945098 0.929412 0.701961 1 0.929412 0.898039 0.47451 1 0.929412 0.898039 0.47451 1 0.952941 0.929412 0.631373 1 0.921569 0.890196 0.439216 1 0.976471 0.909804 0.023529 1 0.945098 0.929412 0.701961 1 0.964706 0.941176 0.635294 1 0.976471 0.909804 0.023529 1 0.976471 0.909804 0.023529 1 0.945098 0.929412 0.701961 1 0.92549 0.898039 0.556863 1 0.976471 0.909804 0.023529 1 0.929412 0.898039 0.47451 1 0.945098 0.929412 0.701961 1 0.929412 0.898039 0.47451 1 0.929412 0.898039 0.47451 1 0.945098 0.929412 0.701961 1 0.945098 0.929412 0.701961 1 0.945098 0.929412 0.701961 1 0.945098 0.929412 0.701961 1 0.945098 0.929412 0.701961 1 0.945098 0.929412 0.701961 1 0.929412 0.898039 0.47451 1 0.945098 0.929412 0.701961 1 0.945098 0.929412 0.701961 1 0.929412 0.898039 0.47451 1 0.945098 0.929412 0.701961 1 0.976471 0.909804 0.023529 1 0.913725 0.882353 0.490196 1 0.976471 0.909804 0.023529 1 0.929412 0.898039 0.47451 1 0.945098 0.929412 0.701961 1 0.929412 0.898039 0.47451 1 0.929412 0.898039 0.47451 1 0.929412 0.898039 0.47451 1 0.945098 0.929412 0.701961 1 0.945098 0.929412 0.701961 1 0.929412 0.898039 0.47451 1 0.945098 0.929412 0.701961 1 0.945098 0.929412 0.701961 1 1 1 1 1 0.956863 0.956863 0.956863 1 1 1 1 1 0.976471 0.909804 0.023529 1 0.929412 0.898039 0.47451 1 0.929412 0.898039 0.47451 1 0.866667 0.819608 0.52549 1 0.968628 0.917647 0.654902 1 0.992157 0.996078 0.768628 1 0.968628 0.960784 0.792157 1 0.968628 0.960784 0.792157 1 0.815686 0.756863 0.466667 1 0.968628 0.960784 0.792157 1 0.968628 0.960784 0.792157 1 0.992157 0.996078 0.768628 1 0.968628 0.917647 0.654902 1 0.866667 0.819608 0.52549 1 0.968628 0.917647 0.654902 1 0 0 0 1 0 0 0 1 0 0 0 1 0.968628 0.917647 0.654902 1 0.968628 0.917647 0.654902 1 0.866667 0.819608 0.52549 1 0.992157 0.996078 0.768628 1 0.968628 0.917647 0.654902 1 0.992157 0.996078 0.768628 1 0.968628 0.960784 0.792157 1 0.968628 0.960784 0.792157 1 0.815686 0.756863 0.466667 1 0.866667 0.819608 0.52549 1 0.968628 0.960784 0.792157 1 0.968628 0.960784 0.792157 1 0 0 0 1 0 0 0 1 0 0 0 1 1 1 1 1 0.94902 0.94902 0.94902 1 0.862745 0.862745 0.862745 1 0.862745 0.862745 0.862745 1 0.866667 0.866667 0.866667 1 0.776471 0.776471 0.776471 1 0.756863 0.756863 0.756863 1 0.788235 0.788235 0.788235 1 0.937255 0.937255 0.937255 1 1 1 1 1 0.756863 0.756863 0.756863 1 0.792157 0.792157 0.792157 1 0.792157 0.792157 0.792157 1 0.776471 0.776471 0.776471 1 0.94902 0.94902 0.94902 1 0.937255 0.937255 0.937255 1 0.788235 0.788235 0.788235 1 0.776471 0.776471 0.776471 1 0.776471 0.776471 0.776471 1 0.792157 0.792157 0.792157 1 0.752941 0.752941 0.752941 1 0.721569 0.721569 0.721569 1 0.588235 0.588235 0.588235 1 0.705882 0.705882 0.705882 1 0.537255 0.537255 0.537255 1 0.737255 0.737255 0.737255 1 0.721569 0.721569 0.721569 1 0.792157 0.792157 0.792157 1 0.909804 0.909804 0.909804 1 0.866667 0.866667 0.866667 1 1 1 1 1 0.968628 0.968628 0.968628 1 0.580392 0.580392 0.580392 1 0.47451 0.47451 0.47451 1 0.576471 0.576471 0.576471 1 0.8 0.8 0.8 1 0.92549 0.92549 0.92549 1 0.803922 0.803922 0.803922 1 0.447059 0.447059 0.447059 1 0.964706 0.964706 0.964706 1 0.537255 0.537255 0.537255 1 0.478431 0.478431 0.478431 1 0.513726 0.513726 0.513726 1 0.490196 0.490196 0.490196 1 1 1 1 1 0.501961 0.501961 0.501961 1 0.490196 0.490196 0.490196 1 0.501961 0.501961 0.501961 1 1 1 1 1 0.478431 0.478431 0.478431 1 0.447059 0.447059 0.447059 1 0.521569 0.521569 0.521569 1 0.964706 0.964706 0.964706 1 0.486275 0.486275 0.486275 1 0.501961 0.501961 0.501961 1 0.498039 0.498039 0.498039 1 1 1 1 1 0.505882 0.505882 0.505882 1 0.498039 0.498039 0.498039 1 1 1 1 1 0.505882 0.505882 0.505882 1 0.486275 0.486275 0.486275 1 0.576471 0.576471 0.576471 1 0.47451 0.47451 0.47451 1 0.8 0.8 0.8 1 0.92549 0.92549 0.92549 1 0.803922 0.803922 0.803922 1 0.580392 0.580392 0.580392 1</float_array>
          <technique_common>
            <accessor source="#GeometrySource7-array" count="418" stride="4">
              <param name="R" type="float"/>
              <param name="G" type="float"/>
              <param name="B" type="float"/>
              <param name="A" type="float"/>
            </accessor>
          </technique_common>
        </source>
        <vertices id="Geometry1-vertices">
          <input semantic="POSITION" source="#GeometrySource4"/>
          <input semantic="NORMAL" source="#GeometrySource5"/>
          <input semantic="TEXCOORD" source="#GeometrySource6"/>
          <input semantic="COLOR" source="#GeometrySource7"/>
        </vertices>
        <triangles material="VisualMaterial10" count="516">
          <input semantic="VERTEX" source="#Geometry1-vertices" offset="0"/>
          <p>0 1 2 2 3 0 3 2 4 3 4 5 0 3 6 6 3 5 6 5 7 5 8 7 8 9 7 10 9 8 10 11 9 11 12 9 9 13 7 12 13 9 13 12 14 13 14 15 7 13 15 7 15 16 2 17 4 18 19 20 18 20 21 21 20 22 20 23 22 24 22 23 25 24 23 25 23 26 27 25 26 27 26 28 26 19 28 29 28 19 18 29 19 30 31 32 31 33 32 31 34 33 35 36 37 38 37 36 39 40 35 41 10 8 42 43 44 43 42 45 45 46 43 45 47 46 42 48 45 48 47 45 48 49 47 47 49 50 50 49 51 52 50 51 52 51 53 53 51 54 51 49 55 54 51 55 55 56 54 49 57 55 55 57 56 49 58 57 43 46 59 60 61 62 60 63 61 63 64 61 61 64 65 66 65 64 67 65 66 67 68 65 69 68 67 68 70 62 69 70 68 71 62 70 60 62 71 72 73 74 74 73 75 74 75 76 77 78 79 80 79 78 81 77 82 83 50 52 84 85 86 84 86 87 84 87 88 84 88 85 88 89 85 88 90 89 88 91 90 87 91 88 86 92 87 86 93 92 86 94 93 85 94 86 85 95 94 85 89 95 96 95 89 96 94 95 97 92 93 97 94 96 97 93 94 98 97 96 99 92 97 98 99 97 100 90 91 100 91 99 96 89 100 98 96 100 98 100 99 100 89 90 101 102 103 103 102 104 105 106 107 108 106 105 109 106 108 108 110 109 107 110 111 111 110 108 107 106 112 112 110 107 110 112 113 109 110 113 106 109 113 112 106 113 114 115 116 117 114 116 118 117 116 117 118 119 120 117 119 115 120 119 121 115 119 115 121 116 119 122 121 118 122 119 116 122 118 121 122 116 123 124 125 123 126 124 123 127 126 123 125 127 127 125 128 127 128 129 127 129 130 126 127 130 124 126 131 124 131 132 125 124 133 124 132 133 125 133 134 125 134 128 135 134 133 135 128 134 136 133 132 136 135 133 136 132 131 137 135 136 138 136 131 137 136 138 139 130 129 139 138 130 137 139 135 137 138 139 139 129 128 135 139 128 140 141 142 141 143 142 144 145 146 146 147 144 148 147 146 148 146 145 148 145 149 148 149 150 148 151 147 151 144 147 144 151 150 148 150 151 152 145 144 149 145 152 149 152 150 152 144 150 153 154 155 154 153 156 154 156 157 154 157 158 159 154 158 160 154 159 154 161 155 160 161 154 160 162 161 160 159 162 159 163 162 158 164 159 163 159 164 165 163 164 166 163 165 165 167 166 168 167 165 164 168 165 168 169 167 168 170 169 171 164 158 164 171 168 168 171 170 172 171 158 171 172 170 173 170 172 170 173 169 169 174 167 169 173 174 167 175 166 174 175 167 174 173 176 174 176 175 153 155 177 155 161 177 178 156 153 178 153 177 179 156 178 179 178 180 180 181 179 156 179 181 181 157 156 162 163 182 162 182 180 181 180 182 157 181 183 182 183 181 182 184 183 185 182 163 182 185 184 186 185 163 185 186 187 188 189 172 188 190 189 191 189 190 172 189 192 192 189 191 172 192 193 194 193 192 166 195 196 194 196 195 166 196 197 191 190 197 196 191 197 198 197 190 198 166 197 166 198 199 166 199 163 200 158 157 201 158 200 200 202 201 157 183 203 157 203 200 172 204 188 172 158 204 178 205 180 162 180 205 205 178 177 162 206 161 161 206 177 205 177 206 205 206 162 207 208 209 210 207 209 207 210 211 211 212 207 213 212 211 213 214 212 214 215 212 215 214 216 215 217 208 216 217 215 217 218 208 209 208 218 219 220 221 219 222 220 222 223 220 220 223 224 225 220 224 225 226 220 226 227 220 227 221 220 228 229 230 231 228 230 232 231 230 229 233 230 233 232 230 232 233 234 231 232 234 228 231 234 229 228 234 233 229 234 235 236 237 238 236 235 239 236 238 240 236 239 237 236 240 239 241 240 238 241 239 235 241 238 237 241 235 240 241 237 242 243 244 245 242 244 245 244 246 245 246 247 245 248 242 248 245 247 249 248 247 249 250 248 249 251 250 249 252 251 253 249 247 252 249 253 252 253 254 252 254 255 256 251 252 252 255 256 256 250 251 256 257 250 256 258 257 255 258 256 259 258 255 260 258 259 260 261 258 261 260 262 263 258 261 257 258 263 263 261 264 263 265 257 263 264 265 265 264 266 267 265 266 267 243 242 267 266 268 267 268 243 242 269 267 265 267 269 270 265 269 270 269 242 248 250 270 248 270 242 257 270 250 257 265 270 243 271 244 243 268 271 271 268 272 268 266 273 266 264 273 272 268 273 273 264 274 271 275 244 276 277 278 277 276 279 277 279 280 280 281 277 281 280 282 282 280 283 284 282 283 284 285 282 285 284 286 286 284 287 284 283 287 283 288 287 280 289 283 289 288 283 290 280 279 280 290 289 290 279 291 290 291 292 290 292 293 289 290 294 294 290 293 293 295 294 289 294 295 289 295 296 297 296 295 298 291 279 298 292 291 298 279 276 276 299 298 276 300 299 301 300 276 278 301 276 302 300 301 302 301 303 303 304 302 304 305 302 302 305 300 300 305 306 299 300 306 306 305 307 299 306 307 305 308 307 299 309 298 299 310 309 299 311 310 312 310 311 298 313 292 309 313 298 313 309 310 247 246 314 315 253 247 247 314 315 246 316 314 277 281 317 277 317 278 288 318 287 289 318 288 287 318 319 320 321 322 322 323 320 323 322 324 324 325 323 324 326 325 327 326 324 327 324 328 324 322 328 326 327 328 328 322 329 326 329 325 326 328 329 329 322 321 325 330 323 320 331 321 332 333 334 335 336 337 335 337 338 339 335 338 340 339 338 341 340 338 342 341 338 338 337 342 341 342 343 343 342 344 345 339 340 345 343 339 341 343 345 346 341 345 345 340 346 346 340 341 347 348 349 350 351 352 350 353 351 354 353 350 354 350 352 352 355 354 356 355 352 356 352 357 352 351 357 356 357 358 359 356 358 359 358 360 361 355 356 359 360 361 359 361 356 361 360 362 353 354 362 360 353 362 360 363 353 360 358 363 353 363 351 364 365 366 367 365 364 368 369 370 370 371 368 370 372 371 372 370 373 369 373 370 373 374 372 374 373 375 369 375 373 375 376 374 377 375 369 375 377 376 368 371 378 368 378 379 379 378 380 377 379 381 377 381 376 379 380 381 376 381 382 376 382 374 374 382 383 383 372 374 372 383 384 371 372 384 371 384 378 385 378 384 386 381 380 378 385 386 386 380 378 381 386 387 387 382 381 388 389 390 388 390 391 392 388 391 389 388 392 389 392 393 393 392 391 389 393 394 395 390 389 395 389 394 390 395 391 396 397 398 396 399 397 400 401 402 400 403 401 404 403 400 402 404 400 405 403 404 402 405 404 402 406 405 401 403 407 407 402 401 407 406 402 408 409 410 408 410 411 412 413 414 413 415 414 413 416 415 417 416 413</p>
        </triangles>
      </mesh>
    </geometry>
  </library_geometries>
  <library_controllers>
    <controller id="Controller">
      <skin source="#Geometry">
        <bind_shape_matrix>1 0 0 0 0 1 0 0 0 0 1 0 0 0 0 1</bind_shape_matrix>
        <source id="Controller-joints">
          <Name_array id="Controller-joints-array" count="12">wristL armL2 armL1 wristR armR2 armR1 hair head spine waist skl_root all_root</Name_array>
          <technique_common>
            <accessor source="#Controller-joints-array" count="12" stride="1">
              <param name="JOINT" type="Name"/>
            </accessor>
          </technique_common>
        </source>
        <source id="Controller-bind_poses">
          <float_array id="Controller-bind_poses-array" count="192">1 0 0 -6.5903 0 1 0 -5.00801 0 0 1 1.09159 0 0 0 1 1 0 0 -4.29582 0 1 0 -5.00801 0 0 1 1.09159 0 0 0 1 1 0 0 -1.90754 0 1 0 -5.00801 0 0 1 1.09159 0 0 0 1 -1 -0.000007 0 -6.59953 -0.000007 1 -0.000002 -5.00801 0 -0.000002 -1 -1.09157 0 0 0 1 -1 -0.000007 0 -4.3156 -0.000007 1 -0.000002 -5.00801 0 -0.000002 -1 -1.09157 0 0 0 1 -1 -0.000007 0 -1.89583 -0.000007 1 -0.000002 -5.00801 0 -0.000002 -1 -1.09157 0 0 0 1 0.000002 0.000003 -1 -3.28993 -0.000007 1 0.000003 -9.99516 1 0.000007 0.000002 -0.000033 0 0 0 1 0 -0.000003 1 1.19223 -1 -0.000003 0 0.000005 0.000003 -1 -0.000003 6.2414 0 0 0 1 -0.000003 1 0 -1.59927 -1 -0.000003 0 0.000005 0 0 1 0.754831 0 0 0 1 -0.000003 0 1 0.754831 0 1 0 -1.59927 -1 0 -0.000003 -0.000002 0 0 0 1 1 0 0 0 0 1 0 -1.59927 0 0 1 0.754831 0 0 0 1 1 0 0 0 0 1 0 0 0 0 1 0 0 0 0 1</float_array>
          <technique_common>
            <accessor source="#Controller-bind_poses-array" count="12" stride="16">
              <param name="TRANSFORM" type="float4x4"/>
            </accessor>
          </technique_common>
        </source>
        <source id="Controller-weights">
          <float_array id="Controller-weights-array" count="1">1</float_array>
          <technique_common>
            <accessor source="#Controller-weights-array" count="1" stride="1">
              <param name="WEIGHT" type="float"/>
            </accessor>
          </technique_common>
        </source>
        <joints>
          <input semantic="JOINT" source="#Controller-joints"/>
          <input semantic="INV_BIND_MATRIX" source="#Controller-bind_poses"/>
        </joints>
        <vertex_weights count="52">
          <input semantic="JOINT" source="#Controller-joints" offset="0"/>
          <input semantic="WEIGHT" source="#Controller-weights" offset="1"/>
          <vcount>1 1 1 1 1 1 1 1 1 1 1 1 1 1 1 1 1 1 1 1 1 1 1 1 1 1 1 1 1 1 1 1 1 1 1 1 1 1 1 1 1 1 1 1 1 1 1 1 1 1 1 1 </vcount>
          <v>7 0 7 0 7 0 7 0 7 0 7 0 7 0 7 0 7 0 7 0 7 0 7 0 7 0 7 0 7 0 7 0 7 0 7 0 7 0 7 0 7 0 7 0 7 0 7 0 7 0 7 0 7 0 7 0 7 0 7 0 7 0 7 0 7 0 7 0 7 0 7 0 7 0 7 0 7 0 7 0 7 0 7 0 7 0 7 0 7 0 7 0 7 0 7 0 7 0 7 0 7 0 7 0</v>
        </vertex_weights>
      </skin>
      <extra>
        <technique profile="FCOLLADA">
          <user_properties>SkinController</user_properties>
        </technique>
      </extra>
    </controller>
    <controller id="Controller1">
      <skin source="#Geometry1">
        <bind_shape_matrix>1 0 0 0 0 1 0 0 0 0 1 0 0 0 0 1</bind_shape_matrix>
        <source id="Controller1-joints">
          <Name_array id="Controller1-joints-array" count="12">wristL armL2 armL1 wristR armR2 armR1 hair head spine waist skl_root all_root</Name_array>
          <technique_common>
            <accessor source="#Controller1-joints-array" count="12" stride="1">
              <param name="JOINT" type="Name"/>
            </accessor>
          </technique_common>
        </source>
        <source id="Controller1-bind_poses">
          <float_array id="Controller1-bind_poses-array" count="192">1 0 0 -6.5903 0 1 0 -5.00801 0 0 1 1.09159 0 0 0 1 1 0 0 -4.29582 0 1 0 -5.00801 0 0 1 1.09159 0 0 0 1 1 0 0 -1.90754 0 1 0 -5.00801 0 0 1 1.09159 0 0 0 1 -1 -0.000007 0 -6.59953 -0.000007 1 -0.000002 -5.00801 0 -0.000002 -1 -1.09157 0 0 0 1 -1 -0.000007 0 -4.3156 -0.000007 1 -0.000002 -5.00801 0 -0.000002 -1 -1.09157 0 0 0 1 -1 -0.000007 0 -1.89583 -0.000007 1 -0.000002 -5.00801 0 -0.000002 -1 -1.09157 0 0 0 1 0.000002 0.000003 -1 -3.28993 -0.000007 1 0.000003 -9.99516 1 0.000007 0.000002 -0.000033 0 0 0 1 0 -0.000003 1 1.19223 -1 -0.000003 0 0.000005 0.000003 -1 -0.000003 6.2414 0 0 0 1 -0.000003 1 0 -1.59927 -1 -0.000003 0 0.000005 0 0 1 0.754831 0 0 0 1 -0.000003 0 1 0.754831 0 1 0 -1.59927 -1 0 -0.000003 -0.000002 0 0 0 1 1 0 0 0 0 1 0 -1.59927 0 0 1 0.754831 0 0 0 1 1 0 0 0 0 1 0 0 0 0 1 0 0 0 0 1</float_array>
          <technique_common>
            <accessor source="#Controller1-bind_poses-array" count="12" stride="16">
              <param name="TRANSFORM" type="float4x4"/>
            </accessor>
          </technique_common>
        </source>
        <source id="Controller1-weights">
          <float_array id="Controller1-weights-array" count="1">1</float_array>
          <technique_common>
            <accessor source="#Controller1-weights-array" count="1" stride="1">
              <param name="WEIGHT" type="float"/>
            </accessor>
          </technique_common>
        </source>
        <joints>
          <input semantic="JOINT" source="#Controller1-joints"/>
          <input semantic="INV_BIND_MATRIX" source="#Controller1-bind_poses"/>
        </joints>
        <vertex_weights count="418">
          <input semantic="JOINT" source="#Controller1-joints" offset="0"/>
          <input semantic="WEIGHT" source="#Controller1-weights" offset="1"/>
          <vcount>1 1 1 1 1 1 1 1 1 1 1 1 1 1 1 1 1 1 1 1 1 1 1 1 1 1 1 1 1 1 1 1 1 1 1 1 1 1 1 1 1 1 1 1 1 1 1 1 1 1 1 1 1 1 1 1 1 1 1 1 1 1 1 1 1 1 1 1 1 1 1 1 1 1 1 1 1 1 1 1 1 1 1 1 1 1 1 1 1 1 1 1 1 1 1 1 1 1 1 1 1 1 1 1 1 1 1 1 1 1 1 1 1 1 1 1 1 1 1 1 1 1 1 1 1 1 1 1 1 1 1 1 1 1 1 1 1 1 1 1 1 1 1 1 1 1 1 1 1 1 1 1 1 1 1 1 1 1 1 1 1 1 1 1 1 1 1 1 1 1 1 1 1 1 1 1 1 1 1 1 1 1 1 1 1 1 1 1 1 1 1 1 1 1 1 1 1 1 1 1 1 1 1 1 1 1 1 1 1 1 1 1 1 1 1 1 1 1 1 1 1 1 1 1 1 1 1 1 1 1 1 1 1 1 1 1 1 1 1 1 1 1 1 1 1 1 1 1 1 1 1 1 1 1 1 1 1 1 1 1 1 1 1 1 1 1 1 1 1 1 1 1 1 1 1 1 1 1 1 1 1 1 1 1 1 1 1 1 1 1 1 1 1 1 1 1 1 1 1 1 1 1 1 1 1 1 1 1 1 1 1 1 1 1 1 1 1 1 1 1 1 1 1 1 1 1 1 1 1 1 1 1 1 1 1 1 1 1 1 1 1 1 1 1 1 1 1 1 1 1 1 1 1 1 1 1 1 1 1 1 1 1 1 1 1 1 1 1 1 1 1 1 1 1 1 1 1 1 1 1 1 1 1 1 1 1 1 1 1 1 1 1 1 1 1 1 1 1 1 1 1 1 1 1 1 1 1 1 1 1 1 1 1 1 1 1 1 1 </vcount>
          <v>0 0 1 0 1 0 0 0 0 0 0 0 0 0 0 0 0 0 0 0 0 0 1 0 1 0 0 0 1 0 0 0 0 0 1 0 1 0 1 0 1 0 1 0 1 0 1 0 1 0 1 0 1 0 1 0 1 0 1 0 1 0 1 0 1 0 1 0 1 0 1 0 1 0 1 0 1 0 1 0 1 0 0 0 3 0 4 0 4 0 3 0 3 0 3 0 3 0 3 0 3 0 3 0 3 0 4 0 4 0 3 0 4 0 3 0 3 0 4 0 4 0 4 0 4 0 4 0 4 0 4 0 4 0 4 0 4 0 4 0 4 0 4 0 4 0 4 0 4 0 4 0 4 0 4 0 4 0 4 0 4 0 4 0 4 0 3 0 5 0 5 0 5 0 5 0 5 0 5 0 5 0 5 0 5 0 5 0 5 0 5 0 5 0 5 0 5 0 5 0 5 0 5 0 5 0 5 0 5 0 5 0 5 0 5 0 5 0 5 0 5 0 5 0 5 0 5 0 2 0 2 0 2 0 2 0 2 0 2 0 2 0 2 0 2 0 2 0 2 0 2 0 2 0 2 0 2 0 2 0 2 0 2 0 2 0 2 0 2 0 2 0 2 0 2 0 2 0 2 0 2 0 2 0 2 0 2 0 6 0 7 0 7 0 7 0 7 0 7 0 7 0 7 0 7 0 6 0 6 0 6 0 6 0 6 0 6 0 6 0 6 0 6 0 6 0 6 0 6 0 6 0 6 0 6 0 6 0 6 0 6 0 6 0 6 0 6 0 6 0 6 0 6 0 6 0 6 0 6 0 6 0 6 0 6 0 6 0 6 0 6 0 6 0 6 0 6 0 6 0 6 0 6 0 6 0 6 0 6 0 6 0 6 0 6 0 6 0 6 0 6 0 6 0 6 0 6 0 6 0 6 0 6 0 7 0 7 0 7 0 7 0 7 0 7 0 7 0 7 0 7 0 7 0 7 0 7 0 7 0 7 0 7 0 7 0 7 0 7 0 7 0 7 0 7 0 7 0 7 0 7 0 7 0 7 0 7 0 7 0 7 0 7 0 7 0 7 0 7 0 7 0 7 0 7 0 7 0 7 0 7 0 7 0 7 0 7 0 7 0 7 0 8 0 7 0 7 0 7 0 7 0 7 0 7 0 7 0 7 0 7 0 7 0 7 0 7 0 7 0 7 0 7 0 7 0 7 0 7 0 7 0 7 0 7 0 7 0 7 0 7 0 7 0 7 0 7 0 7 0 7 0 7 0 7 0 7 0 7 0 7 0 7 0 7 0 7 0 7 0 7 0 7 0 7 0 7 0 7 0 7 0 7 0 7 0 7 0 7 0 7 0 7 0 7 0 7 0 7 0 7 0 7 0 7 0 7 0 7 0 7 0 7 0 7 0 7 0 7 0 7 0 7 0 7 0 7 0 7 0 7 0 7 0 7 0 7 0 7 0 7 0 7 0 7 0 7 0 7 0 7 0 7 0 7 0 7 0 7 0 7 0 7 0 7 0 7 0 7 0 7 0 7 0 7 0 7 0 7 0 7 0 7 0 7 0 7 0 7 0 8 0 8 0 8 0 8 0 10 0 10 0 8 0 8 0 8 0 8 0 8 0 10 0 10 0 8 0 8 0 8 0 8 0 8 0 10 0 10 0 9 0 9 0 9 0 9 0 9 0 9 0 9 0 10 0 9 0 10 0 9 0 9 0 9 0 9 0 9 0 9 0 9 0 9 0 9 0 9 0 9 0 9 0 9 0 9 0 9 0 9 0 9 0 9 0 9 0 9 0 9 0 9 0 9 0 9 0 9 0 9 0 9 0 9 0 9 0 9 0 9 0 9 0 9 0 9 0 9 0 9 0 9 0 9 0</v>
        </vertex_weights>
      </skin>
      <extra>
        <technique profile="FCOLLADA">
          <user_properties>SkinController</user_properties>
        </technique>
      </extra>
    </controller>
  </library_controllers>
  <library_visual_scenes>
    <visual_scene id="VisualSceneNode" name="rdmscene">
      <node id="VisualSceneNode1" name="all_root" sid="all_root" type="JOINT">
        <matrix>1 0 0 0 0 1 0 0 0 0 1 0 0 0 0 1</matrix>
        <node id="VisualSceneNode2" name="skl_root" sid="skl_root" type="JOINT">
          <matrix>1 0 0 0 0 1 0 1.59927 0 0 1 -0.754831 0 0 0 1</matrix>
          <node id="VisualSceneNode3" name="spine" sid="spine" type="JOINT">
            <matrix>-0.000003 -1 0 0 1 -0.000003 0 0 0 0 1 0 0 0 0 1</matrix>
            <node id="VisualSceneNode4" name="armL1" sid="armL1" type="JOINT">
              <matrix>-0.000003 1 0 3.40873 -1 -0.000003 0 -1.90755 0 0 1 -0.336754 0 0 0 1</matrix>
              <node id="VisualSceneNode5" name="armL2" sid="armL2" type="JOINT">
                <matrix>1 0 0 2.38828 0 1 0 0 0 0 1 0 0 0 0 1</matrix>
                <node id="VisualSceneNode6" name="wristL" sid="wristL" type="JOINT">
                  <matrix>1 0 0 2.29448 0 1 0 0 0 0 1 0 0 0 0 1</matrix>
                </node>
              </node>
            </node>
            <node id="VisualSceneNode7" name="armR1" sid="armR1" type="JOINT">
              <matrix>-0.000003 1 -0.000002 3.40873 1 0.000003 0 1.89585 0 -0.000002 -1 -0.336754 0 0 0 1</matrix>
              <node id="VisualSceneNode8" name="armR2" sid="armR2" type="JOINT">
                <matrix>1 0 0 2.41977 0 1 0 -0.000000 0 0 1 0 0 0 0 1</matrix>
                <node id="VisualSceneNode9" name="wristR" sid="wristR" type="JOINT">
                  <matrix>1 0 0 2.28393 0 1 0 -0.000000 0 0 1 0.000000 0 0 0 1</matrix>
                </node>
              </node>
            </node>
            <node id="VisualSceneNode10" name="head" sid="head" type="JOINT">
              <matrix>-0.000003 0 -1 4.64213 0 1 0 0 1 0 -0.000003 -0.437376 0 0 0 1</matrix>
              <node id="VisualSceneNode11" name="hair" sid="hair" type="JOINT">
                <matrix>-1 0 0.000002 -2.0977 -0.000002 0.000003 -1 0 0 -1 -0.000003 -3.75376 0 0 0 1</matrix>
              </node>
            </node>
          </node>
          <node id="VisualSceneNode12" name="waist" sid="waist" type="JOINT">
            <matrix>-0.000003 0 -1 0 0 1 0 0 1 0 -0.000003 0 0 0 0 1</matrix>
          </node>
        </node>
      </node>
      <node id="VisualSceneNode13" name="mesh_0_" type="NODE">
        <matrix>1 0 0 0 0 1 0 0 0 0 1 0 0 0 0 1</matrix>
        <instance_controller url="#Controller">
          <skeleton>#VisualSceneNode1</skeleton>
          <bind_material>
            <technique_common>
              <instance_material symbol="VisualMaterial0" target="#VisualMaterial"/>
            </technique_common>
          </bind_material>
        </instance_controller>
      </node>
      <node id="VisualSceneNode14" name="mesh_1_" type="NODE">
        <matrix>1 0 0 0 0 1 0 0 0 0 1 0 0 0 0 1</matrix>
        <instance_controller url="#Controller1">
          <skeleton>#VisualSceneNode1</skeleton>
          <bind_material>
            <technique_common>
              <instance_material symbol="VisualMaterial10" target="#VisualMaterial1"/>
            </technique_common>
          </bind_material>
        </instance_controller>
      </node>
    </visual_scene>
  </library_visual_scenes>
  <scene>
    <instance_visual_scene url="#VisualSceneNode"/>
  </scene>
</COLLADA>
