# Wavefront OBJ file
# Exported by Misfit Model 3D 1.3.8
# Sun Sep 20 10:21:35 2015

mtllib ys_lod.mtl

# 546 Vertices
v 0.203364 1.63155 5.81904
v 2.55242 1.37546 5.74202
v 1.47821 2.69552 4.7042
v 1.47821 2.69552 4.7042
v 0.393291 1.29315 3.82405
v 0.203364 1.63155 5.81904
v 2.02774 1.11493 3.77043
v 0.393291 1.29315 3.82405
v 1.47821 2.69552 4.7042
v 2.02774 1.11493 3.77043
v 1.47821 2.69552 4.7042
v 2.55242 1.37546 5.74202
v 0.717694 -1.4617 3.26827
v 2.02774 1.11493 3.77043
v 2.55242 1.37546 5.74202
v 2.02774 1.11493 3.77043
v 0.717694 -1.4617 3.26827
v 2.45651 0.574067 2.96393
v 2.02774 1.11493 3.77043
v 2.45651 0.574067 2.96393
v 1.34298 1.68964 3.74382
v 2.02774 1.11493 3.77043
v 1.34298 1.68964 3.74382
v 0.393291 1.29315 3.82405
v 1.34298 1.68964 3.74382
v 0.226721 1.01699 2.56308
v 0.393291 1.29315 3.82405
v 0.717694 -1.4617 3.26827
v 0.393291 1.29315 3.82405
v 0.226721 1.01699 2.56308
v 0.393291 1.29315 3.82405
v 0.717694 -1.4617 3.26827
v 0.203364 1.63155 5.81904
v 2.45651 0.574067 2.96393
v 0.717694 -1.4617 3.26827
v 1.25207 0.232844 2.11132
v 0.203364 1.63155 5.81904
v 0.717694 -1.4617 3.26827
v 2.55242 1.37546 5.74202
v 2.45651 0.574067 2.96393
v 0.226721 1.01699 2.56308
v 1.34298 1.68964 3.74382
v 1.25207 0.232844 2.11132
v 0.226721 1.01699 2.56308
v 2.45651 0.574067 2.96393
v -0.203212 1.63157 5.81905
v -1.47805 2.69554 4.70421
v -2.55227 1.37548 5.74202
v -0.393138 1.29316 3.82405
v -1.47805 2.69554 4.70421
v -0.203212 1.63157 5.81905
v -2.02758 1.11494 3.77043
v -1.47805 2.69554 4.70421
v -0.393138 1.29316 3.82405
v -2.02758 1.11494 3.77043
v -2.55227 1.37548 5.74202
v -1.47805 2.69554 4.70421
v -0.717487 -1.46166 3.26826
v -2.55227 1.37548 5.74202
v -2.02758 1.11494 3.77043
v -2.45638 0.574049 2.96397
v -0.717487 -1.46166 3.26826
v -2.02758 1.11494 3.77043
v -2.45638 0.574049 2.96397
v -1.25197 0.232846 2.11131
v -0.717487 -1.46166 3.26826
v -2.45638 0.574049 2.96397
v -2.02758 1.11494 3.77043
v -1.34284 1.68967 3.74379
v -0.393138 1.29316 3.82405
v -1.34284 1.68967 3.74379
v -2.02758 1.11494 3.77043
v -0.393138 1.29316 3.82405
v -0.226621 1.01703 2.56301
v -1.34284 1.68967 3.74379
v -0.393138 1.29316 3.82405
v -0.717487 -1.46166 3.26826
v -0.226621 1.01703 2.56301
v -0.717487 -1.46166 3.26826
v -0.393138 1.29316 3.82405
v -0.203212 1.63157 5.81905
v -0.203212 1.63157 5.81905
v -2.55227 1.37548 5.74202
v -0.717487 -1.46166 3.26826
v -2.45638 0.574049 2.96397
v -1.34284 1.68967 3.74379
v -0.226621 1.01703 2.56301
v -1.25197 0.232846 2.11131
v -2.45638 0.574049 2.96397
v -0.226621 1.01703 2.56301
v 0.0 10.0983 -2.55544
v -0.696942 9.47234 -0.614345
v 0.696941 9.47234 -0.614345
v 0.0 10.0983 -2.55544
v 0.0 8.47553 -2.10862
v -0.696942 9.47234 -0.614345
v 0.0 10.0983 -2.55544
v 0.696941 9.47234 -0.614345
v 0.0 8.47553 -2.10862
v 0.0 8.03775 -3.62811
v -0.64135 7.66265 -2.48949
v 0.0 8.47553 -2.10862
v 0.0 6.66459 -2.76548
v -0.64135 7.66265 -2.48949
v 0.0 8.03775 -3.62811
v 0.0 6.66459 -2.76548
v 0.0 8.03775 -3.62811
v 0.641349 7.66265 -2.48949
v 0.0 8.03775 -3.62811
v 0.0 8.47553 -2.10862
v 0.641349 7.66265 -2.48949
v 0.0 6.66459 -2.76548
v 0.0 5.41989 -3.27668
v -0.615294 5.32004 -0.657334
v 0.0 6.66459 -2.76548
v 0.615293 5.32004 -0.657334
v 0.0 5.41989 -3.27668
v 0.615293 5.32004 -0.657334
v -0.615294 5.32004 -0.657334
v 0.0 5.41989 -3.27668
v 0.0 1.7348 -2.02922
v -1.92083 1.05848 -1.20373
v -1.34638 5.01258 -0.234478
v -1.92083 1.05848 -1.20373
v 0.0 1.7348 -2.02922
v 0.0 1.54986 -3.27832
v 0.0 1.54986 -3.27832
v 0.0 1.7348 -2.02922
v 1.92083 1.05848 -1.20373
v 0.0 1.7348 -2.02922
v 1.34638 5.01258 -0.234478
v 1.92083 1.05848 -1.20373
v 0.0 1.7348 -2.02922
v 0.0 6.05337 -0.233249
v 1.34638 5.01258 -0.234478
v 0.0 1.7348 -2.02922
v -1.34638 5.01258 -0.234478
v 0.0 6.05337 -0.233249
v 0.0 0.697246 2.50869
v 0.0 3.52655 2.6872
v -2.64242 1.41787 0.77381
v -2.64242 1.41787 0.77381
v 0.0 -0.826038 -0.673987
v 0.0 0.697246 2.50869
v 0.0 -0.826038 -0.673987
v -2.64242 1.41787 0.77381
v -1.92083 1.05848 -1.20373
v 0.0 -0.826038 -0.673987
v -1.92083 1.05848 -1.20373
v 0.0 1.54986 -3.27832
v 0.0 -0.826038 -0.673987
v 0.0 1.54986 -3.27832
v 1.92083 1.05848 -1.20373
v 0.0 -0.826038 -0.673987
v 1.92083 1.05848 -1.20373
v 2.64242 1.41787 0.77381
v 2.64242 1.41787 0.77381
v 0.0 0.697246 2.50869
v 0.0 -0.826038 -0.673987
v 0.0 0.697246 2.50869
v 2.64242 1.41787 0.77381
v 0.0 3.52655 2.6872
v 1.34638 5.01258 -0.234478
v 0.0 3.52655 2.6872
v 2.64242 1.41787 0.77381
v 0.0 6.05337 -0.233249
v 0.0 3.52655 2.6872
v 1.34638 5.01258 -0.234478
v 0.0 6.05337 -0.233249
v -1.34638 5.01258 -0.234478
v 0.0 3.52655 2.6872
v 0.0 3.52655 2.6872
v -1.34638 5.01258 -0.234478
v -2.64242 1.41787 0.77381
v -1.34638 5.01258 -0.234478
v -1.92083 1.05848 -1.20373
v -2.64242 1.41787 0.77381
v -2.44048 1.16566 2.34544
v -1.45253 2.27554 3.24721
v -2.08805 1.24883 -0.486372
v -2.44048 1.16566 2.34544
v -2.08805 1.24883 -0.486372
v -0.78336 -0.520237 4.16413
v -2.44048 1.16566 2.34544
v -0.78336 -0.520237 4.16413
v -1.45253 2.27554 3.24721
v -0.453513 1.15647 2.24167
v -1.45253 2.27554 3.24721
v -0.78336 -0.520237 4.16413
v -0.453513 1.15647 2.24167
v -1.71185 1.78758 1.0549
v -1.45253 2.27554 3.24721
v -2.08805 1.24883 -0.486372
v -1.71185 1.78758 1.0549
v -0.453513 1.15647 2.24167
v -1.45253 2.27554 3.24721
v -1.71185 1.78758 1.0549
v -2.08805 1.24883 -0.486372
v 1.45262 2.27552 3.24725
v 0.45359 1.15645 2.24177
v 0.783572 -0.520285 4.16415
v 2.44057 1.16569 2.34543
v 1.45262 2.27552 3.24725
v 0.783572 -0.520285 4.16415
v 2.44057 1.16569 2.34543
v 0.783572 -0.520285 4.16415
v 2.08805 1.24883 -0.486372
v 2.44057 1.16569 2.34543
v 2.08805 1.24883 -0.486372
v 1.45262 2.27552 3.24725
v 2.08805 1.24883 -0.486372
v 1.71185 1.78758 1.0549
v 1.45262 2.27552 3.24725
v 1.71185 1.78758 1.0549
v 2.08805 1.24883 -0.486372
v 0.45359 1.15645 2.24177
v 1.71185 1.78758 1.0549
v 0.45359 1.15645 2.24177
v 1.45262 2.27552 3.24725
v 0.0 2.3233 0.392864
v 0.0 4.73655 -1.21948
v -1.63766 2.99429 -1.32693
v 0.0 2.3233 0.392864
v 1.63766 2.99429 -1.32693
v 0.0 4.73655 -1.21948
v 0.0 3.38956 -2.74281
v 0.0 4.73655 -1.21948
v 1.63766 2.99429 -1.32693
v 1.63766 2.99429 -1.32693
v 0.0 1.57326 -2.37779
v 0.0 3.38956 -2.74281
v 0.0 2.3233 0.392864
v 0.0 1.57326 -2.37779
v 1.63766 2.99429 -1.32693
v 0.0 2.3233 0.392864
v -1.63766 2.99429 -1.32693
v 0.0 1.57326 -2.37779
v 0.0 1.57326 -2.37779
v -1.63766 2.99429 -1.32693
v 0.0 3.38956 -2.74281
v -1.63766 2.99429 -1.32693
v 0.0 4.73655 -1.21948
v 0.0 3.38956 -2.74281
v -1.21738 8.81529 0.790174
v -1.62704 8.97565 0.131351
v -1.80952 7.21184 0.921081
v -1.62704 8.97565 0.131351
v -2.6915 6.83291 -0.861585
v -1.80952 7.21184 0.921081
v -1.74578 8.22643 -1.77992
v -2.6915 6.83291 -0.861585
v -1.62704 8.97565 0.131351
v -1.74578 8.22643 -1.77992
v -1.62704 8.97565 0.131351
v -0.965196 9.46663 -1.00934
v -1.74578 8.22643 -1.77992
v -0.965196 9.46663 -1.00934
v 0.0 7.91716 -2.76569
v 0.0 6.43397 -2.78837
v -1.74578 8.22643 -1.77992
v 0.0 7.91716 -2.76569
v 1.74578 8.22643 -1.77992
v 0.0 6.43397 -2.78837
v 0.0 7.91716 -2.76569
v 1.74578 8.22643 -1.77992
v 2.6915 6.83291 -0.861585
v 0.0 6.43397 -2.78837
v 1.74578 8.22643 -1.77992
v 1.62704 8.97565 0.131351
v 2.6915 6.83291 -0.861585
v 1.74578 8.22643 -1.77992
v 0.965195 9.46663 -1.00934
v 1.62704 8.97565 0.131351
v 0.965195 9.46663 -1.00934
v 1.74578 8.22643 -1.77992
v 0.0 7.91716 -2.76569
v 0.965195 9.46663 -1.00934
v 0.0 7.91716 -2.76569
v -0.965196 9.46663 -1.00934
v -1.79965 10.0395 0.315288
v -1.21738 8.81529 0.790174
v -0.741755 10.7743 0.884912
v -1.79965 10.0395 0.315288
v -1.62704 8.97565 0.131351
v -1.21738 8.81529 0.790174
v 0.0 9.14784 0.92732
v -0.741755 10.7743 0.884912
v -1.21738 8.81529 0.790174
v 0.0 10.4533 0.609749
v -0.741755 10.7743 0.884912
v 0.0 9.14784 0.92732
v -1.79965 10.0395 0.315288
v -0.741755 10.7743 0.884912
v -0.942638 11.4273 0.263577
v -1.79965 10.0395 0.315288
v -0.942638 11.4273 0.263577
v -1.05829 10.7928 -0.835577
v -1.79965 10.0395 0.315288
v -1.05829 10.7928 -0.835577
v -0.965196 9.46663 -1.00934
v -1.79965 10.0395 0.315288
v -0.965196 9.46663 -1.00934
v -1.62704 8.97565 0.131351
v -0.942638 11.4273 0.263577
v 0.0 10.9335 0.132095
v -1.05829 10.7928 -0.835577
v -0.942638 11.4273 0.263577
v -0.741755 10.7743 0.884912
v 0.0 10.9335 0.132095
v -0.741755 10.7743 0.884912
v 0.0 10.4533 0.609749
v 0.0 10.9335 0.132095
v 0.942637 11.4273 0.263577
v 0.0 10.9335 0.132095
v 0.741755 10.7743 0.884912
v 1.79965 10.0395 0.315288
v 0.942637 11.4273 0.263577
v 0.741755 10.7743 0.884912
v 1.79965 10.0395 0.315288
v 1.05829 10.7928 -0.835577
v 0.942637 11.4273 0.263577
v 1.79965 10.0395 0.315288
v 0.965195 9.46663 -1.00934
v 1.05829 10.7928 -0.835577
v 1.62704 8.97565 0.131351
v 0.965195 9.46663 -1.00934
v 1.79965 10.0395 0.315288
v -1.08214 5.25737 1.14131
v -1.80952 7.21184 0.921081
v -2.6915 6.83291 -0.861585
v 0.0 4.27187 0.024604
v -1.08214 5.25737 1.14131
v -2.6915 6.83291 -0.861585
v 1.08214 5.25737 1.14131
v -1.08214 5.25737 1.14131
v 0.0 4.27187 0.024604
v 1.08214 5.25737 1.14131
v 0.0 5.94663 1.93507
v -1.08214 5.25737 1.14131
v 0.0 5.94663 1.93507
v 1.08214 5.25737 1.14131
v 1.80951 7.21184 0.921081
v 1.80951 7.21184 0.921081
v 1.08214 5.25737 1.14131
v 2.6915 6.83291 -0.861585
v 1.62704 8.97565 0.131351
v 1.80951 7.21184 0.921081
v 2.6915 6.83291 -0.861585
v 1.21738 8.81529 0.790174
v 1.80951 7.21184 0.921081
v 1.62704 8.97565 0.131351
v 0.965195 9.46663 -1.00934
v -0.965196 9.46663 -1.00934
v 1.05829 10.7928 -0.835577
v -0.965196 9.46663 -1.00934
v -1.05829 10.7928 -0.835577
v 1.05829 10.7928 -0.835577
v -1.05829 10.7928 -0.835577
v 0.0 10.9335 0.132095
v 1.05829 10.7928 -0.835577
v 0.741755 10.7743 0.884912
v 0.0 9.14784 0.92732
v 1.21738 8.81529 0.790174
v 1.79965 10.0395 0.315288
v 0.741755 10.7743 0.884912
v 1.21738 8.81529 0.790174
v 1.79965 10.0395 0.315288
v 1.21738 8.81529 0.790174
v 1.62704 8.97565 0.131351
v 0.0 10.9335 0.132095
v 0.0 10.4533 0.609749
v 0.741755 10.7743 0.884912
v 1.05829 10.7928 -0.835577
v 0.0 10.9335 0.132095
v 0.942637 11.4273 0.263577
v 0.0 10.4533 0.609749
v 0.0 9.14784 0.92732
v 0.741755 10.7743 0.884912
v 1.34638 5.01258 -0.234478
v 2.64242 1.41787 0.77381
v 1.92083 1.05848 -1.20373
v 0.0 4.27187 0.024604
v -2.6915 6.83291 -0.861585
v 0.0 6.43397 -2.78837
v 0.0 4.27187 0.024604
v 0.0 6.43397 -2.78837
v 2.6915 6.83291 -0.861585
v 2.6915 6.83291 -0.861585
v 1.08214 5.25737 1.14131
v 0.0 4.27187 0.024604
v 0.0 5.94663 1.93507
v -1.80952 7.21184 0.921081
v -1.08214 5.25737 1.14131
v -2.6915 6.83291 -0.861585
v -1.74578 8.22643 -1.77992
v 0.0 6.43397 -2.78837
v -3.20705 3.64935 1.6432
v -1.61946 4.34673 4.29015
v -1.94975 4.17587 1.66048
v -2.06294 1.857 3.75449
v -1.61946 4.34673 4.29015
v -3.20705 3.64935 1.6432
v -2.06294 1.857 3.75449
v -0.246192 2.99028 2.99911
v -1.61946 4.34673 4.29015
v -2.06294 1.857 3.75449
v -2.1055 2.20153 1.49239
v -0.246192 2.99028 2.99911
v -2.06294 1.857 3.75449
v -3.20705 3.64935 1.6432
v -2.1055 2.20153 1.49239
v -0.246192 2.99028 2.99911
v -2.1055 2.20153 1.49239
v -1.94975 4.17587 1.66048
v -0.246192 2.99028 2.99911
v -1.94975 4.17587 1.66048
v -1.61946 4.34673 4.29015
v -2.1055 2.20153 1.49239
v -1.03139 4.99609 -0.229918
v -1.94975 4.17587 1.66048
v -1.03139 4.99609 -0.229918
v -3.20705 3.64935 1.6432
v -1.94975 4.17587 1.66048
v -3.20705 3.64935 1.6432
v -1.03139 4.99609 -0.229918
v -2.9865 2.97447 0.032828
v -2.1055 2.20153 1.49239
v -3.20705 3.64935 1.6432
v -2.9865 2.97447 0.032828
v -2.1055 2.20153 1.49239
v -2.9865 2.97447 0.032828
v -1.36877 3.42689 -0.39884
v -2.9865 2.97447 0.032828
v -1.03139 4.99609 -0.229918
v -1.36877 3.42689 -0.39884
v 1.61946 4.34673 4.29015
v 3.207 3.6494 1.64326
v 1.94971 4.1759 1.66062
v 2.06294 1.857 3.75449
v 3.207 3.6494 1.64326
v 1.61946 4.34673 4.29015
v 2.06294 1.857 3.75449
v 1.61946 4.34673 4.29015
v 0.246192 2.99028 2.99911
v 1.61946 4.34673 4.29015
v 1.94971 4.1759 1.66062
v 0.246192 2.99028 2.99911
v 0.246192 2.99028 2.99911
v 1.94971 4.1759 1.66062
v 2.1055 2.20153 1.4924
v 2.1055 2.20153 1.4924
v 2.06294 1.857 3.75449
v 0.246192 2.99028 2.99911
v 3.207 3.6494 1.64326
v 2.06294 1.857 3.75449
v 2.1055 2.20153 1.4924
v 2.1055 2.20153 1.4924
v 2.98634 2.97462 0.032628
v 3.207 3.6494 1.64326
v 2.98634 2.97462 0.032628
v 2.1055 2.20153 1.4924
v 1.36877 3.42689 -0.39884
v 1.03139 4.99609 -0.229918
v 2.98634 2.97462 0.032628
v 1.36877 3.42689 -0.39884
v 3.207 3.6494 1.64326
v 2.98634 2.97462 0.032628
v 1.03139 4.99609 -0.229918
v 1.94971 4.1759 1.66062
v 3.207 3.6494 1.64326
v 1.03139 4.99609 -0.229918
v 2.1055 2.20153 1.4924
v 1.94971 4.1759 1.66062
v 1.03139 4.99609 -0.229918
v 0.0 5.27339 2.92844
v -2.05152 6.31585 2.64005
v -1.80952 7.21184 0.921081
v -2.05152 6.31585 2.64005
v 0.0 5.27339 2.92844
v -1.52818 7.03494 3.99543
v -2.05152 6.31585 2.64005
v -1.52818 7.03494 3.99543
v -2.02549 8.92425 2.77742
v -2.05152 6.31585 2.64005
v -2.02549 8.92425 2.77742
v -1.80952 7.21184 0.921081
v -1.80952 7.21184 0.921081
v -2.02549 8.92425 2.77742
v -1.21738 8.81529 0.790174
v -1.21738 8.81529 0.790174
v -2.02549 8.92425 2.77742
v 0.0 10.0351 2.51787
v -1.21738 8.81529 0.790174
v 0.0 10.0351 2.51787
v 0.0 9.14784 0.92732
v 1.21738 8.81529 0.790174
v 0.0 9.14784 0.92732
v 0.0 10.0351 2.51787
v 2.02549 8.92425 2.77742
v 1.21738 8.81529 0.790174
v 0.0 10.0351 2.51787
v 1.80951 7.21184 0.921081
v 1.21738 8.81529 0.790174
v 2.02549 8.92425 2.77742
v 2.05152 6.31585 2.64005
v 1.80951 7.21184 0.921081
v 2.02549 8.92425 2.77742
v 0.0 5.27339 2.92844
v 1.80951 7.21184 0.921081
v 2.05152 6.31585 2.64005
v 1.80951 7.21184 0.921081
v 0.0 5.27339 2.92844
v 0.0 6.70883 -0.876065
v -1.80952 7.21184 0.921081
v 0.0 6.70883 -0.876065
v 0.0 5.27339 2.92844
v 0.0 5.27339 2.92844
v 0.0 6.75895 4.69727
v -1.52818 7.03494 3.99543
v 1.52817 7.03494 3.99543
v 0.0 6.75895 4.69727
v 0.0 5.27339 2.92844
v 1.52817 7.03494 3.99543
v 0.0 9.23926 4.45257
v 0.0 6.75895 4.69727
v 2.02549 8.92425 2.77742
v 0.0 9.23926 4.45257
v 1.52817 7.03494 3.99543
v 2.02549 8.92425 2.77742
v 1.52817 7.03494 3.99543
v 2.05152 6.31585 2.64005
v 2.05152 6.31585 2.64005
v 1.52817 7.03494 3.99543
v 0.0 5.27339 2.92844
v 0.0 9.23926 4.45257
v 2.02549 8.92425 2.77742
v 0.0 10.0351 2.51787
v 0.0 9.23926 4.45257
v 0.0 10.0351 2.51787
v -2.02549 8.92425 2.77742
v 0.0 6.75895 4.69727
v 0.0 9.23926 4.45257
v -1.52818 7.03494 3.99543
v -1.52818 7.03494 3.99543
v 0.0 9.23926 4.45257
v -2.02549 8.92425 2.77742

# 546 Texture Coordinates
vt 0.384917 0.621655
vt 0.407453 0.621655
vt 0.392545 0.70352
vt 0.392545 0.70352
vt 0.511657 0.701055
vt 0.384917 0.621655
vt 0.511657 0.701055
vt 0.511657 0.701055
vt 0.392545 0.70352
vt 0.511657 0.701055
vt 0.392545 0.70352
vt 0.407453 0.621655
vt 0.60233 0.621655
vt 0.511657 0.701055
vt 0.407453 0.621655
vt 0.511657 0.701055
vt 0.60233 0.621655
vt 0.530466 0.730405
vt 0.511657 0.701055
vt 0.530466 0.730405
vt 0.390735 0.730405
vt 0.511657 0.701055
vt 0.390735 0.730405
vt 0.511657 0.701055
vt 0.390735 0.730405
vt 0.530466 0.730405
vt 0.511657 0.701055
vt 0.60233 0.621655
vt 0.511657 0.701055
vt 0.530466 0.730405
vt 0.511657 0.701055
vt 0.60233 0.621655
vt 0.384917 0.621655
vt 0.530466 0.730405
vt 0.60233 0.621655
vt 0.619551 0.730405
vt 0.41993 0.604237
vt 0.615675 0.5625
vt 0.41993 0.514881
vt 0.373897 0.559217
vt 0.251014 0.559215
vt 0.312456 0.508468
vt 0.312982 0.616481
vt 0.251014 0.559215
vt 0.373897 0.559217
vt 0.384917 0.620372
vt 0.392545 0.70352
vt 0.407453 0.620372
vt 0.511657 0.701055
vt 0.392545 0.70352
vt 0.384917 0.620372
vt 0.511657 0.701055
vt 0.392545 0.70352
vt 0.511657 0.701055
vt 0.511657 0.701055
vt 0.407453 0.620372
vt 0.392545 0.70352
vt 0.60233 0.620372
vt 0.407453 0.620372
vt 0.511657 0.701055
vt 0.530466 0.730405
vt 0.60233 0.620372
vt 0.511657 0.701055
vt 0.530466 0.730405
vt 0.619551 0.730405
vt 0.60233 0.620372
vt 0.530466 0.730405
vt 0.511657 0.701055
vt 0.390735 0.730405
vt 0.511657 0.701055
vt 0.390735 0.730405
vt 0.511657 0.701055
vt 0.511657 0.701055
vt 0.530466 0.730405
vt 0.390735 0.730405
vt 0.511657 0.701055
vt 0.60233 0.620372
vt 0.530466 0.730405
vt 0.60233 0.620372
vt 0.511657 0.701055
vt 0.384917 0.620372
vt 0.419585 0.515165
vt 0.419585 0.604651
vt 0.615675 0.5625
vt 0.373875 0.559217
vt 0.312566 0.508468
vt 0.251036 0.559215
vt 0.313039 0.616481
vt 0.373875 0.559217
vt 0.251036 0.559215
vt 0.6875 0.505225
vt 0.629053 0.735329
vt 0.629053 0.735329
vt 0.6875 0.505225
vt 0.748659 0.735329
vt 0.629053 0.735329
vt 0.6875 0.505225
vt 0.629053 0.735329
vt 0.748659 0.735329
vt 0.6875 0.505225
vt 0.6875 0.735329
vt 0.748659 0.735329
vt 0.629053 0.735329
vt 0.6875 0.735329
vt 0.6875 0.505225
vt 0.629053 0.735329
vt 0.6875 0.505225
vt 0.6875 0.735329
vt 0.6875 0.505225
vt 0.748659 0.735329
vt 0.6875 0.735329
vt 0.629053 0.735329
vt 0.6875 0.505225
vt 0.748659 0.735329
vt 0.629053 0.735329
vt 0.748659 0.735329
vt 0.6875 0.505225
vt 0.748659 0.735329
vt 0.748659 0.735329
vt 0.6875 0.505225
vt 0.330042 0.156351
vt 0.419958 0.109969
vt 0.395004 0.322563
vt 0.419958 0.109969
vt 0.330042 0.156351
vt 0.330042 0.163958
vt 0.330042 0.163958
vt 0.330042 0.156351
vt 0.419958 0.109969
vt 0.330042 0.156351
vt 0.395004 0.322563
vt 0.419958 0.109969
vt 0.330042 0.156351
vt 0.330042 0.390031
vt 0.395004 0.322563
vt 0.330042 0.156351
vt 0.395004 0.322563
vt 0.330042 0.390031
vt 0.098343 0.029887
vt 0.030058 0.244984
vt 0.310593 0.152486
vt 0.310593 0.152486
vt 0.20577 0.02182
vt 0.098343 0.029887
vt 0.20577 0.02182
vt 0.310593 0.152486
vt 0.370167 0.119312
vt 0.20577 0.02182
vt 0.370167 0.119312
vt 0.39853 0.057643
vt 0.20577 0.02182
vt 0.39853 0.057643
vt 0.370167 0.119312
vt 0.20577 0.02182
vt 0.370167 0.119312
vt 0.310593 0.152486
vt 0.310593 0.152486
vt 0.098343 0.029887
vt 0.20577 0.02182
vt 0.098343 0.029887
vt 0.310593 0.152486
vt 0.030058 0.244984
vt 0.199704 0.435773
vt 0.030058 0.244984
vt 0.310593 0.152486
vt 0.123727 0.501984
vt 0.030058 0.244984
vt 0.199704 0.435773
vt 0.123727 0.501984
vt 0.199704 0.435773
vt 0.030058 0.244984
vt 0.030058 0.244984
vt 0.199704 0.435773
vt 0.310593 0.152486
vt 0.199704 0.435773
vt 0.370167 0.119312
vt 0.310593 0.152486
vt 0.09265 0.508206
vt 0.09265 0.619136
vt 0.233825 0.509609
vt 0.09265 0.508206
vt 0.233825 0.509609
vt 0.003333 0.531299
vt 0.09265 0.508206
vt 0.003333 0.531299
vt 0.09265 0.619136
vt 0.09265 0.508578
vt 0.09265 0.619136
vt 0.003333 0.531299
vt 0.09265 0.508578
vt 0.233825 0.608313
vt 0.09265 0.619136
vt 0.233825 0.509609
vt 0.233825 0.608313
vt 0.09265 0.508578
vt 0.09265 0.619136
vt 0.233825 0.608313
vt 0.233825 0.509609
vt 0.09265 0.619136
vt 0.09265 0.508578
vt 0.003333 0.531299
vt 0.09265 0.508206
vt 0.09265 0.619136
vt 0.003333 0.531299
vt 0.09265 0.508206
vt 0.003333 0.531299
vt 0.233825 0.509609
vt 0.09265 0.508206
vt 0.233825 0.509609
vt 0.09265 0.619136
vt 0.233825 0.509609
vt 0.233825 0.608313
vt 0.09265 0.619136
vt 0.233825 0.608313
vt 0.233825 0.509609
vt 0.09265 0.508578
vt 0.233825 0.608313
vt 0.09265 0.508578
vt 0.09265 0.619136
vt 0.9655 0.529751
vt 0.759436 0.522985
vt 0.9655 0.75845
vt 0.9655 0.529751
vt 0.9655 0.75845
vt 0.759436 0.522985
vt 0.759436 0.758719
vt 0.759436 0.522985
vt 0.9655 0.75845
vt 0.9655 0.75845
vt 0.759436 0.964459
vt 0.759436 0.758719
vt 0.9655 0.964459
vt 0.759436 0.964459
vt 0.9655 0.75845
vt 0.9655 0.964459
vt 0.9655 0.75845
vt 0.759436 0.964459
vt 0.759436 0.964459
vt 0.9655 0.75845
vt 0.759436 0.758719
vt 0.9655 0.75845
vt 0.759436 0.522985
vt 0.759436 0.758719
vt 0.64244 0.410395
vt 0.709815 0.404908
vt 0.635067 0.316946
vt 0.709815 0.404908
vt 0.743793 0.250638
vt 0.635067 0.316946
vt 0.838618 0.359536
vt 0.743793 0.250638
vt 0.709815 0.404908
vt 0.838618 0.359536
vt 0.709815 0.404908
vt 0.791045 0.459498
vt 0.838618 0.359536
vt 0.791045 0.459498
vt 0.986701 0.321442
vt 0.992638 0.218964
vt 0.838618 0.359536
vt 0.986701 0.321442
vt 0.838618 0.359536
vt 0.992638 0.218964
vt 0.986701 0.321442
vt 0.838618 0.359536
vt 0.743793 0.250638
vt 0.992638 0.218964
vt 0.838618 0.359536
vt 0.709815 0.404908
vt 0.743793 0.250638
vt 0.838618 0.359536
vt 0.791045 0.459498
vt 0.709815 0.404908
vt 0.791045 0.459498
vt 0.838618 0.359536
vt 0.986701 0.321442
vt 0.791045 0.459498
vt 0.986701 0.321442
vt 0.791045 0.459498
vt 0.3458 0.878819
vt 0.252884 0.650849
vt 0.128677 0.996745
vt 0.3458 0.878819
vt 0.372843 0.735133
vt 0.252884 0.650849
vt 0.050196 0.628523
vt 0.128677 0.996745
vt 0.252884 0.650849
vt 0.006112 0.913197
vt 0.128677 0.996745
vt 0.050196 0.628523
vt 0.004416 0.533732
vt 0.004416 0.565799
vt 0.177173 0.588925
vt 0.004416 0.533732
vt 0.177173 0.588925
vt 0.242914 0.566162
vt 0.004416 0.533732
vt 0.242914 0.566162
vt 0.242914 0.508785
vt 0.004416 0.533732
vt 0.242914 0.508785
vt 0.004416 0.508785
vt 0.177173 0.588925
vt 0.181461 0.616215
vt 0.242914 0.566162
vt 0.177173 0.588925
vt 0.004416 0.565799
vt 0.181461 0.616215
vt 0.004416 0.565799
vt 0.004416 0.616215
vt 0.181461 0.616215
vt 0.177173 0.588925
vt 0.181461 0.616215
vt 0.004416 0.565799
vt 0.004416 0.533732
vt 0.177173 0.588925
vt 0.004416 0.565799
vt 0.004416 0.533732
vt 0.242914 0.566162
vt 0.177173 0.588925
vt 0.004416 0.533732
vt 0.242914 0.508785
vt 0.242914 0.566162
vt 0.004416 0.508785
vt 0.242914 0.508785
vt 0.004416 0.533732
vt 0.612318 0.134829
vt 0.635067 0.316946
vt 0.743793 0.250638
vt 0.800144 -0.003675
vt 0.612318 0.134829
vt 0.743793 0.250638
vt 0.612318 0.134829
vt 0.612318 0.134829
vt 0.800144 -0.003675
vt 0.612318 0.134829
vt 0.544483 0.158549
vt 0.612318 0.134829
vt 0.544483 0.158549
vt 0.612318 0.134829
vt 0.635067 0.316946
vt 0.635067 0.316946
vt 0.612318 0.134829
vt 0.743793 0.250638
vt 0.709815 0.404908
vt 0.635067 0.316946
vt 0.743793 0.250638
vt 0.64244 0.410395
vt 0.635067 0.316946
vt 0.709815 0.404908
vt 0.582491 1.08385
vt 0.582491 0.915562
vt 0.497176 1.09197
vt 0.582491 0.915562
vt 0.497176 0.907446
vt 0.497176 1.09197
vt 0.497176 0.907446
vt 0.488124 0.999706
vt 0.497176 1.09197
vt 0.128621 0.996807
vt 0.0503 0.628457
vt 0.252964 0.650894
vt 0.345689 0.878761
vt 0.128621 0.996807
vt 0.252964 0.650894
vt 0.345689 0.878761
vt 0.252964 0.650894
vt 0.372815 0.735411
vt 0.181461 0.616215
vt 0.004416 0.616215
vt 0.004416 0.565799
vt 0.242914 0.566162
vt 0.181461 0.616215
vt 0.177173 0.588925
vt 0.005937 0.913389
vt 0.0503 0.628457
vt 0.128621 0.996807
vt 0.199704 0.435773
vt 0.310593 0.152486
vt 0.370167 0.119312
vt 0.800144 -0.003675
vt 0.743793 0.250638
vt 0.992638 0.218964
vt 0.800144 -0.003675
vt 0.992638 0.218964
vt 0.743793 0.250638
vt 0.743793 0.250638
vt 0.612318 0.134829
vt 0.800144 -0.003675
vt 0.544483 0.158549
vt 0.635067 0.316946
vt 0.612318 0.134829
vt 0.743793 0.250638
vt 0.838618 0.359536
vt 0.992638 0.218964
vt 0.628673 0.946556
vt 0.674301 0.832087
vt 0.628673 0.877445
vt 0.674301 0.996165
vt 0.674301 0.832087
vt 0.628673 0.946556
vt 0.674301 0.996165
vt 0.746668 0.900621
vt 0.674301 0.832087
vt 0.722792 0.835602
vt 0.646054 0.785529
vt 0.709517 0.753088
vt 0.722792 0.835602
vt 0.649584 0.835602
vt 0.646054 0.785529
vt 0.709517 0.753088
vt 0.646054 0.785529
vt 0.649584 0.835602
vt 0.709517 0.753088
vt 0.649584 0.835602
vt 0.723707 0.835602
vt 0.238536 0.57189
vt 0.033822 0.616822
vt 0.238536 0.613631
vt 0.033822 0.616822
vt 0.205541 0.60925
vt 0.238536 0.613631
vt 0.205541 0.60925
vt 0.033822 0.616822
vt 0.167577 0.61194
vt 0.238536 0.57189
vt 0.205541 0.60925
vt 0.167577 0.61194
vt 0.238536 0.57189
vt 0.167577 0.61194
vt 0.010544 0.567777
vt 0.167577 0.61194
vt 0.033822 0.616822
vt 0.010544 0.567777
vt 0.674301 0.832087
vt 0.628673 0.946556
vt 0.628673 0.877445
vt 0.674301 0.996165
vt 0.628673 0.946556
vt 0.674301 0.832087
vt 0.674301 0.996165
vt 0.674301 0.832087
vt 0.746668 0.900621
vt 0.723707 0.835602
vt 0.649584 0.835602
vt 0.709517 0.753088
vt 0.709517 0.753088
vt 0.649584 0.835602
vt 0.646054 0.785529
vt 0.646054 0.785529
vt 0.722792 0.835602
vt 0.709517 0.753088
vt 0.649584 0.835602
vt 0.722792 0.835602
vt 0.646054 0.785529
vt 0.238536 0.57189
vt 0.167577 0.61194
vt 0.205541 0.60925
vt 0.167577 0.61194
vt 0.238536 0.57189
vt 0.010544 0.567777
vt 0.033822 0.616822
vt 0.167577 0.61194
vt 0.010544 0.567777
vt 0.205541 0.60925
vt 0.167577 0.61194
vt 0.033822 0.616822
vt 0.238536 0.613631
vt 0.205541 0.60925
vt 0.033822 0.616822
vt 0.238536 0.57189
vt 0.238536 0.613631
vt 0.033822 0.616822
vt 0.324738 0.280798
vt 0.33111 0.332575
vt 0.356396 0.362251
vt 0.33111 0.332575
vt 0.324738 0.280798
vt 0.311176 0.341604
vt 0.33111 0.332575
vt 0.311176 0.341604
vt 0.329097 0.402568
vt 0.33111 0.332575
vt 0.329097 0.402568
vt 0.356396 0.362251
vt 0.356396 0.362251
vt 0.329097 0.402568
vt 0.358324 0.39892
vt 0.358324 0.39892
vt 0.329097 0.402568
vt 0.332917 0.439617
vt 0.358324 0.39892
vt 0.332917 0.439617
vt 0.356308 0.410013
vt 0.358324 0.39892
vt 0.356308 0.410013
vt 0.332917 0.439617
vt 0.329097 0.402568
vt 0.358324 0.39892
vt 0.332917 0.439617
vt 0.356396 0.362251
vt 0.358324 0.39892
vt 0.329097 0.402568
vt 0.33111 0.332575
vt 0.356396 0.362251
vt 0.329097 0.402568
vt 0.324738 0.280798
vt 0.356396 0.362251
vt 0.33111 0.332575
vt 0.356396 0.362251
vt 0.324738 0.280798
vt 0.382826 0.341918
vt 0.356396 0.362251
vt 0.382826 0.341918
vt 0.324738 0.280798
vt 0.324738 0.280798
vt 0.300853 0.336618
vt 0.311176 0.341604
vt 0.311176 0.341604
vt 0.300853 0.336618
vt 0.324738 0.280798
vt 0.311176 0.341604
vt 0.30446 0.413087
vt 0.300853 0.336618
vt 0.329097 0.402568
vt 0.30446 0.413087
vt 0.311176 0.341604
vt 0.329097 0.402568
vt 0.311176 0.341604
vt 0.33111 0.332575
vt 0.33111 0.332575
vt 0.311176 0.341604
vt 0.324738 0.280798
vt 0.381934 0.757705
vt 0.647846 0.857886
vt 0.380766 0.992667
vt 0.381934 0.757705
vt 0.380766 0.992667
vt 0.647846 0.857886
vt 0.300853 0.336618
vt 0.30446 0.413087
vt 0.311176 0.341604
vt 0.311176 0.341604
vt 0.30446 0.413087
vt 0.329097 0.402568

# 546 Vertex Normals
vn 0.096584 0.662551 0.742764
vn 0.096584 0.662551 0.742764
vn 0.096584 0.662551 0.742764
vn -0.719053 0.670642 -0.182213
vn -0.719053 0.670642 -0.182213
vn -0.719053 0.670642 -0.182213
vn 0.028136 0.515674 -0.856323
vn 0.028136 0.515674 -0.856323
vn 0.028136 0.515674 -0.856323
vn 0.840815 0.460467 -0.284605
vn 0.840815 0.460467 -0.284605
vn 0.840815 0.460467 -0.284605
vn 0.890406 -0.417278 -0.181815
vn 0.890406 -0.417278 -0.181815
vn 0.890406 -0.417278 -0.181815
vn 0.632033 -0.444993 0.634441
vn 0.632033 -0.444993 0.634441
vn 0.632033 -0.444993 0.634441
vn 0.63778 0.752248 -0.165409
vn 0.63778 0.752248 -0.165409
vn 0.63778 0.752248 -0.165409
vn 0.043259 0.097579 0.994287
vn 0.043259 0.097579 0.994287
vn 0.043259 0.097579 0.994287
vn -0.391633 0.908273 -0.147184
vn -0.391633 0.908273 -0.147184
vn -0.391633 0.908273 -0.147184
vn -0.975848 -0.147433 0.161195
vn -0.975848 -0.147433 0.161195
vn -0.975848 -0.147433 0.161195
vn -0.991861 -0.101212 -0.077259
vn -0.991861 -0.101212 -0.077259
vn -0.991861 -0.101212 -0.077259
vn 0.574368 -0.577344 -0.580323
vn 0.574368 -0.577344 -0.580323
vn 0.574368 -0.577344 -0.580323
vn -0.044619 -0.639983 0.767093
vn -0.044619 -0.639983 0.767093
vn -0.044619 -0.639983 0.767093
vn 0.25878 0.713498 -0.651117
vn 0.25878 0.713498 -0.651117
vn 0.25878 0.713498 -0.651117
vn 0.25878 0.713499 -0.651115
vn 0.25878 0.713499 -0.651115
vn 0.25878 0.713499 -0.651115
vn -0.096586 0.662549 0.742765
vn -0.096586 0.662549 0.742765
vn -0.096586 0.662549 0.742765
vn 0.719056 0.670639 -0.182215
vn 0.719056 0.670639 -0.182215
vn 0.719056 0.670639 -0.182215
vn -0.028137 0.515676 -0.856322
vn -0.028137 0.515676 -0.856322
vn -0.028137 0.515676 -0.856322
vn -0.840813 0.460468 -0.284611
vn -0.840813 0.460468 -0.284611
vn -0.840813 0.460468 -0.284611
vn -0.890398 -0.417295 -0.181813
vn -0.890398 -0.417295 -0.181813
vn -0.890398 -0.417295 -0.181813
vn -0.631984 -0.444997 0.634488
vn -0.631984 -0.444997 0.634488
vn -0.631984 -0.444997 0.634488
vn -0.574379 -0.577371 -0.580286
vn -0.574379 -0.577371 -0.580286
vn -0.574379 -0.577371 -0.580286
vn -0.637809 0.752227 -0.16539
vn -0.637809 0.752227 -0.16539
vn -0.637809 0.752227 -0.16539
vn -0.043265 0.097633 0.994282
vn -0.043265 0.097633 0.994282
vn -0.043265 0.097633 0.994282
vn 0.391649 0.908269 -0.147168
vn 0.391649 0.908269 -0.147168
vn 0.391649 0.908269 -0.147168
vn 0.975862 -0.147407 0.161138
vn 0.975862 -0.147407 0.161138
vn 0.975862 -0.147407 0.161138
vn 0.991862 -0.101193 -0.077261
vn 0.991862 -0.101193 -0.077261
vn 0.991862 -0.101193 -0.077261
vn 0.044616 -0.639987 0.767089
vn 0.044616 -0.639987 0.767089
vn 0.044616 -0.639987 0.767089
vn -0.258831 0.713479 -0.651117
vn -0.258831 0.713479 -0.651117
vn -0.258831 0.713479 -0.651117
vn -0.258831 0.713481 -0.651115
vn -0.258831 0.713481 -0.651115
vn -0.258831 0.713481 -0.651115
vn 0.0 0.951737 0.306914
vn 0.0 0.951737 0.306914
vn 0.0 0.951737 0.306914
vn -0.925675 -0.100431 -0.364746
vn -0.925675 -0.100431 -0.364746
vn -0.925675 -0.100431 -0.364746
vn 0.925675 -0.100431 -0.364746
vn 0.925675 -0.100431 -0.364746
vn 0.925675 -0.100431 -0.364746
vn -0.725284 0.661541 -0.190596
vn -0.725284 0.661541 -0.190596
vn -0.725284 0.661541 -0.190596
vn -0.766164 -0.341855 -0.544176
vn -0.766164 -0.341855 -0.544176
vn -0.766164 -0.341855 -0.544176
vn 0.766165 -0.341855 -0.544175
vn 0.766165 -0.341855 -0.544175
vn 0.766165 -0.341855 -0.544175
vn 0.725284 0.661541 -0.190596
vn 0.725284 0.661541 -0.190596
vn 0.725284 0.661541 -0.190596
vn -0.970136 0.092151 -0.224376
vn -0.970136 0.092151 -0.224376
vn -0.970136 0.092151 -0.224376
vn 0.970136 0.092151 -0.224375
vn 0.970136 0.092151 -0.224375
vn 0.970136 0.092151 -0.224375
vn 0.0 -0.999274 -0.038092
vn 0.0 -0.999274 -0.038092
vn 0.0 -0.999274 -0.038092
vn -0.459524 0.273863 -0.844889
vn -0.459524 0.273863 -0.844889
vn -0.459524 0.273863 -0.844889
vn -0.380338 0.914874 -0.135455
vn -0.380338 0.914874 -0.135455
vn -0.380338 0.914874 -0.135455
vn 0.380338 0.914874 -0.135455
vn 0.380338 0.914874 -0.135455
vn 0.380338 0.914874 -0.135455
vn 0.459524 0.273863 -0.844889
vn 0.459524 0.273863 -0.844889
vn 0.459524 0.273863 -0.844889
vn 0.28382 0.368199 -0.885367
vn 0.28382 0.368199 -0.885367
vn 0.28382 0.368199 -0.885367
vn -0.28382 0.368199 -0.885367
vn -0.28382 0.368199 -0.885367
vn -0.28382 0.368199 -0.885367
vn -0.558001 -0.052253 0.828194
vn -0.558001 -0.052253 0.828194
vn -0.558001 -0.052253 0.828194
vn -0.467903 -0.797177 0.381543
vn -0.467903 -0.797177 0.381543
vn -0.467903 -0.797177 0.381543
vn -0.679098 -0.724812 -0.116074
vn -0.679098 -0.724812 -0.116074
vn -0.679098 -0.724812 -0.116074
vn -0.474417 -0.650334 -0.593291
vn -0.474417 -0.650334 -0.593291
vn -0.474417 -0.650334 -0.593291
vn 0.474417 -0.650334 -0.593291
vn 0.474417 -0.650334 -0.593291
vn 0.474417 -0.650334 -0.593291
vn 0.679098 -0.724812 -0.116074
vn 0.679098 -0.724812 -0.116074
vn 0.679098 -0.724812 -0.116074
vn 0.467903 -0.797177 0.381543
vn 0.467903 -0.797177 0.381543
vn 0.467903 -0.797177 0.381543
vn 0.558001 -0.052253 0.828194
vn 0.558001 -0.052253 0.828194
vn 0.558001 -0.052253 0.828194
vn 0.727202 0.415453 0.546421
vn 0.727202 0.415453 0.546421
vn 0.727202 0.415453 0.546421
vn 0.505064 0.65269 0.564718
vn 0.505064 0.65269 0.564718
vn 0.505064 0.65269 0.564718
vn -0.505064 0.65269 0.564718
vn -0.505064 0.65269 0.564718
vn -0.505064 0.65269 0.564718
vn -0.727202 0.415453 0.546421
vn -0.727202 0.415453 0.546421
vn -0.727202 0.415453 0.546421
vn -0.902376 0.221685 -0.369559
vn -0.902376 0.221685 -0.369559
vn -0.902376 0.221685 -0.369559
vn -0.71675 0.693926 -0.068822
vn -0.71675 0.693926 -0.068822
vn -0.71675 0.693926 -0.068822
vn -0.65147 -0.751629 -0.103153
vn -0.65147 -0.751629 -0.103153
vn -0.65147 -0.751629 -0.103153
vn -0.709209 0.06061 0.702388
vn -0.709209 0.06061 0.702388
vn -0.709209 0.06061 0.702388
vn 0.828964 0.34324 0.441593
vn 0.828964 0.34324 0.441593
vn 0.828964 0.34324 0.441593
vn 0.606742 0.757672 -0.24041
vn 0.606742 0.757672 -0.24041
vn 0.606742 0.757672 -0.24041
vn 0.677271 0.627231 -0.384559
vn 0.677271 0.627231 -0.384559
vn 0.677271 0.627231 -0.384559
vn -0.708515 0.701969 -0.072435
vn -0.708515 0.701969 -0.072435
vn -0.708515 0.701969 -0.072435
vn -0.828948 0.343211 0.441646
vn -0.828948 0.343211 0.441646
vn -0.828948 0.343211 0.441646
vn 0.709232 0.060622 0.702364
vn 0.709232 0.060622 0.702364
vn 0.709232 0.060622 0.702364
vn 0.651503 -0.751598 -0.10317
vn 0.651503 -0.751598 -0.10317
vn 0.651503 -0.751598 -0.10317
vn 0.71672 0.693954 -0.068848
vn 0.71672 0.693954 -0.068848
vn 0.71672 0.693954 -0.068848
vn 0.708428 0.702051 -0.072485
vn 0.708428 0.702051 -0.072485
vn 0.708428 0.702051 -0.072485
vn -0.677322 0.62718 -0.384553
vn -0.677322 0.62718 -0.384553
vn -0.677322 0.62718 -0.384553
vn -0.606771 0.75766 -0.240375
vn -0.606771 0.75766 -0.240375
vn -0.606771 0.75766 -0.240375
vn -0.542373 0.466728 0.698568
vn -0.542373 0.466728 0.698568
vn -0.542373 0.466728 0.698568
vn 0.542373 0.466728 0.698568
vn 0.542373 0.466728 0.698568
vn 0.542373 0.466728 0.698568
vn 0.601799 0.598296 -0.529037
vn 0.601799 0.598296 -0.529037
vn 0.601799 0.598296 -0.529037
vn 0.624729 -0.153849 -0.765535
vn 0.624729 -0.153849 -0.765535
vn 0.624729 -0.153849 -0.765535
vn 0.556558 -0.801944 0.217093
vn 0.556558 -0.801944 0.217093
vn 0.556558 -0.801944 0.217093
vn -0.556558 -0.801944 0.217093
vn -0.556558 -0.801944 0.217093
vn -0.556558 -0.801944 0.217093
vn -0.624729 -0.153849 -0.765535
vn -0.624729 -0.153849 -0.765535
vn -0.624729 -0.153849 -0.765535
vn -0.601799 0.598296 -0.529037
vn -0.601799 0.598296 -0.529037
vn -0.601799 0.598296 -0.529037
vn -0.764512 0.327649 0.555129
vn -0.764512 0.327649 0.555129
vn -0.764512 0.327649 0.555129
vn -0.885824 0.262857 0.38239
vn -0.885824 0.262857 0.38239
vn -0.885824 0.262857 0.38239
vn -0.859616 0.491586 -0.139297
vn -0.859616 0.491586 -0.139297
vn -0.859616 0.491586 -0.139297
vn -0.773924 0.604459 -0.188868
vn -0.773924 0.604459 -0.188868
vn -0.773924 0.604459 -0.188868
vn -0.293674 0.630992 -0.718056
vn -0.293674 0.630992 -0.718056
vn -0.293674 0.630992 -0.718056
vn -0.489853 0.013329 -0.871703
vn -0.489853 0.013329 -0.871703
vn -0.489853 0.013329 -0.871703
vn 0.489853 0.013329 -0.871703
vn 0.489853 0.013329 -0.871703
vn 0.489853 0.013329 -0.871703
vn 0.589725 -0.125526 -0.797789
vn 0.589725 -0.125526 -0.797789
vn 0.589725 -0.125526 -0.797789
vn 0.859616 0.491586 -0.139297
vn 0.859616 0.491586 -0.139297
vn 0.859616 0.491586 -0.139297
vn 0.773924 0.60446 -0.188868
vn 0.773924 0.60446 -0.188868
vn 0.773924 0.60446 -0.188868
vn 0.293674 0.630993 -0.718056
vn 0.293674 0.630993 -0.718056
vn 0.293674 0.630993 -0.718056
vn -0.0 0.749891 -0.661561
vn -0.0 0.749891 -0.661561
vn -0.0 0.749891 -0.661561
vn -0.517205 0.084384 0.851691
vn -0.517205 0.084384 0.851691
vn -0.517205 0.084384 0.851691
vn -0.851483 -0.220419 0.475806
vn -0.851483 -0.220419 0.475806
vn -0.851483 -0.220419 0.475806
vn -0.105885 -0.022369 0.994127
vn -0.105885 -0.022369 0.994127
vn -0.105885 -0.022369 0.994127
vn 0.419958 0.214516 0.881827
vn 0.419958 0.214516 0.881827
vn 0.419958 0.214516 0.881827
vn -0.638439 0.41833 0.646062
vn -0.638439 0.41833 0.646062
vn -0.638439 0.41833 0.646062
vn -0.836063 0.508634 -0.205645
vn -0.836063 0.508634 -0.205645
vn -0.836063 0.508634 -0.205645
vn -0.843897 0.011042 -0.536391
vn -0.843897 0.011042 -0.536391
vn -0.843897 0.011042 -0.536391
vn -0.854552 -0.049259 -0.517025
vn -0.854552 -0.049259 -0.517025
vn -0.854552 -0.049259 -0.517025
vn 0.347668 0.795729 -0.495926
vn 0.347668 0.795729 -0.495926
vn 0.347668 0.795729 -0.495926
vn 0.440267 0.686297 0.578931
vn 0.440267 0.686297 0.578931
vn 0.440267 0.686297 0.578931
vn 0.494019 0.613159 0.616427
vn 0.494019 0.613159 0.616427
vn 0.494019 0.613159 0.616427
vn -0.440267 0.686297 0.578932
vn -0.440267 0.686297 0.578932
vn -0.440267 0.686297 0.578932
vn 0.638439 0.41833 0.646062
vn 0.638439 0.41833 0.646062
vn 0.638439 0.41833 0.646062
vn 0.836063 0.508634 -0.205645
vn 0.836063 0.508634 -0.205645
vn 0.836063 0.508634 -0.205645
vn 0.843897 0.011041 -0.536391
vn 0.843897 0.011041 -0.536391
vn 0.843897 0.011041 -0.536391
vn 0.854552 -0.049259 -0.517025
vn 0.854552 -0.049259 -0.517025
vn 0.854552 -0.049259 -0.517025
vn -0.842278 -0.260274 0.472044
vn -0.842278 -0.260274 0.472044
vn -0.842278 -0.260274 0.472044
vn -0.685385 -0.727854 -0.021834
vn -0.685385 -0.727854 -0.021834
vn -0.685385 -0.727854 -0.021834
vn -0.0 -0.749781 0.661686
vn -0.0 -0.749781 0.661686
vn -0.0 -0.749781 0.661686
vn 0.0 -0.75506 0.655655
vn 0.0 -0.75506 0.655655
vn 0.0 -0.75506 0.655655
vn 0.542372 -0.107966 0.833172
vn 0.542372 -0.107966 0.833172
vn 0.542372 -0.107966 0.833172
vn 0.842277 -0.260269 0.472048
vn 0.842277 -0.260269 0.472048
vn 0.842277 -0.260269 0.472048
vn 0.885822 0.262854 0.382395
vn 0.885822 0.262854 0.382395
vn 0.885822 0.262854 0.382395
vn 0.764514 0.327645 0.555129
vn 0.764514 0.327645 0.555129
vn 0.764514 0.327645 0.555129
vn -0.0 0.129916 -0.991525
vn -0.0 0.129916 -0.991525
vn -0.0 0.129916 -0.991525
vn 0.0 0.129916 -0.991525
vn 0.0 0.129916 -0.991525
vn 0.0 0.129916 -0.991525
vn 0.0 0.989594 -0.143888
vn 0.0 0.989594 -0.143888
vn 0.0 0.989594 -0.143888
vn 0.105885 -0.022369 0.994127
vn 0.105885 -0.022369 0.994127
vn 0.105885 -0.022369 0.994127
vn 0.517205 0.084384 0.851691
vn 0.517205 0.084384 0.851691
vn 0.517205 0.084384 0.851691
vn 0.851483 -0.220419 0.475806
vn 0.851483 -0.220419 0.475806
vn 0.851483 -0.220419 0.475806
vn -0.494019 0.613159 0.616427
vn -0.494019 0.613159 0.616427
vn -0.494019 0.613159 0.616427
vn -0.347669 0.795728 -0.495926
vn -0.347669 0.795728 -0.495926
vn -0.347669 0.795728 -0.495926
vn -0.419958 0.214516 0.881827
vn -0.419958 0.214516 0.881827
vn -0.419958 0.214516 0.881827
vn 0.902376 0.221685 -0.369559
vn 0.902376 0.221685 -0.369559
vn 0.902376 0.221685 -0.369559
vn -0.484455 -0.693606 -0.533117
vn -0.484455 -0.693606 -0.533117
vn -0.484455 -0.693606 -0.533117
vn 0.484455 -0.693606 -0.533118
vn 0.484455 -0.693606 -0.533118
vn 0.484455 -0.693606 -0.533118
vn 0.685385 -0.727854 -0.021834
vn 0.685385 -0.727854 -0.021834
vn 0.685385 -0.727854 -0.021834
vn -0.542371 -0.107968 0.833173
vn -0.542371 -0.107968 0.833173
vn -0.542371 -0.107968 0.833173
vn -0.589725 -0.125526 -0.797789
vn -0.589725 -0.125526 -0.797789
vn -0.589725 -0.125526 -0.797789
vn -0.386109 0.922382 -0.011435
vn -0.386109 0.922382 -0.011435
vn -0.386109 0.922382 -0.011435
vn -0.861881 0.044845 0.505124
vn -0.861881 0.044845 0.505124
vn -0.861881 0.044845 0.505124
vn 0.507117 -0.266662 0.819588
vn 0.507117 -0.266662 0.819588
vn 0.507117 -0.266662 0.819588
vn 0.481175 -0.865238 -0.140833
vn 0.481175 -0.865238 -0.140833
vn 0.481175 -0.865238 -0.140833
vn -0.797338 -0.598706 -0.076185
vn -0.797338 -0.598706 -0.076185
vn -0.797338 -0.598706 -0.076185
vn 0.625106 0.017124 -0.780352
vn 0.625106 0.017124 -0.780352
vn 0.625106 0.017124 -0.780352
vn 0.632785 0.763492 -0.129086
vn 0.632785 0.763492 -0.129086
vn 0.632785 0.763492 -0.129086
vn 0.911695 -0.105723 0.397032
vn 0.911695 -0.105723 0.397032
vn 0.911695 -0.105723 0.397032
vn -0.380365 0.901517 0.206375
vn -0.380365 0.901517 0.206375
vn -0.380365 0.901517 0.206375
vn -0.694223 0.624985 -0.356999
vn -0.694223 0.624985 -0.356999
vn -0.694223 0.624985 -0.356999
vn -0.779543 -0.608547 0.148269
vn -0.779543 -0.608547 0.148269
vn -0.779543 -0.608547 0.148269
vn 0.101585 -0.852493 -0.512772
vn 0.101585 -0.852493 -0.512772
vn 0.101585 -0.852493 -0.512772
vn -0.297125 0.165121 -0.940453
vn -0.297125 0.165121 -0.940453
vn -0.297125 0.165121 -0.940453
vn 0.386099 0.922387 -0.011433
vn 0.386099 0.922387 -0.011433
vn 0.386099 0.922387 -0.011433
vn 0.861882 0.044846 0.505121
vn 0.861882 0.044846 0.505121
vn 0.861882 0.044846 0.505121
vn -0.507117 -0.266662 0.819588
vn -0.507117 -0.266662 0.819588
vn -0.507117 -0.266662 0.819588
vn -0.632792 0.763488 -0.129075
vn -0.632792 0.763488 -0.129075
vn -0.632792 0.763488 -0.129075
vn -0.625093 0.017165 -0.780362
vn -0.625093 0.017165 -0.780362
vn -0.625093 0.017165 -0.780362
vn -0.481175 -0.865238 -0.140834
vn -0.481175 -0.865238 -0.140834
vn -0.481175 -0.865238 -0.140834
vn 0.797362 -0.598674 -0.07618
vn 0.797362 -0.598674 -0.07618
vn 0.797362 -0.598674 -0.07618
vn 0.779586 -0.608523 0.148138
vn 0.779586 -0.608523 0.148138
vn 0.779586 -0.608523 0.148138
vn -0.10158 -0.852494 -0.512772
vn -0.10158 -0.852494 -0.512772
vn -0.10158 -0.852494 -0.512772
vn 0.297026 0.165103 -0.940487
vn 0.297026 0.165103 -0.940487
vn 0.297026 0.165103 -0.940487
vn 0.694218 0.625012 -0.35696
vn 0.694218 0.625012 -0.35696
vn 0.694218 0.625012 -0.35696
vn 0.380368 0.90152 0.206353
vn 0.380368 0.90152 0.206353
vn 0.380368 0.90152 0.206353
vn -0.911715 -0.105763 0.396977
vn -0.911715 -0.105763 0.396977
vn -0.911715 -0.105763 0.396977
vn -0.345912 -0.811183 -0.471517
vn -0.345912 -0.811183 -0.471517
vn -0.345912 -0.811183 -0.471517
vn -0.438979 -0.712436 0.547478
vn -0.438979 -0.712436 0.547478
vn -0.438979 -0.712436 0.547478
vn -0.931049 -0.009919 0.364759
vn -0.931049 -0.009919 0.364759
vn -0.931049 -0.009919 0.364759
vn -0.991266 0.016781 -0.130806
vn -0.991266 0.016781 -0.130806
vn -0.991266 0.016781 -0.130806
vn -0.879574 0.2943 -0.373814
vn -0.879574 0.2943 -0.373814
vn -0.879574 0.2943 -0.373814
vn -0.490153 0.836443 -0.245181
vn -0.490153 0.836443 -0.245181
vn -0.490153 0.836443 -0.245181
vn -0.180656 0.858943 -0.479146
vn -0.180656 0.858943 -0.479146
vn -0.180656 0.858943 -0.479146
vn 0.180656 0.858943 -0.479146
vn 0.180656 0.858943 -0.479146
vn 0.180656 0.858943 -0.479146
vn 0.490153 0.836443 -0.245181
vn 0.490153 0.836443 -0.245181
vn 0.490153 0.836443 -0.245181
vn 0.879576 0.294295 -0.373814
vn 0.879576 0.294295 -0.373814
vn 0.879576 0.294295 -0.373814
vn 0.991265 0.016781 -0.130811
vn 0.991265 0.016781 -0.130811
vn 0.991265 0.016781 -0.130811
vn 0.345911 -0.811182 -0.471518
vn 0.345911 -0.811182 -0.471518
vn 0.345911 -0.811182 -0.471518
vn 0.521184 -0.7985 -0.301274
vn 0.521184 -0.7985 -0.301274
vn 0.521184 -0.7985 -0.301274
vn -0.521181 -0.798501 -0.301274
vn -0.521181 -0.798501 -0.301274
vn -0.521181 -0.798501 -0.301274
vn -0.397861 -0.702543 0.590034
vn -0.397861 -0.702543 0.590034
vn -0.397861 -0.702543 0.590034
vn 0.397864 -0.702542 0.590033
vn 0.397864 -0.702542 0.590033
vn 0.397864 -0.702542 0.590033
vn 0.402215 0.089889 0.911122
vn 0.402215 0.089889 0.911122
vn 0.402215 0.089889 0.911122
vn 0.636009 0.292858 0.713952
vn 0.636009 0.292858 0.713952
vn 0.636009 0.292858 0.713952
vn 0.931047 -0.009919 0.364766
vn 0.931047 -0.009919 0.364766
vn 0.931047 -0.009919 0.364766
vn 0.438978 -0.712435 0.54748
vn 0.438978 -0.712435 0.54748
vn 0.438978 -0.712435 0.54748
vn 0.416744 0.840677 0.345813
vn 0.416744 0.840677 0.345813
vn 0.416744 0.840677 0.345813
vn -0.416744 0.840677 0.345813
vn -0.416744 0.840677 0.345813
vn -0.416744 0.840677 0.345813
vn -0.402213 0.089889 0.911123
vn -0.402213 0.089889 0.911123
vn -0.402213 0.089889 0.911123
vn -0.636008 0.292861 0.713951
vn -0.636008 0.292861 0.713951
vn -0.636008 0.292861 0.713951

# , 182 grouped triangles

usemtl mat_ys_lod_all
o 
g 

f 1/1/1 2/2/2 3/3/3
f 4/4/4 5/5/5 6/6/6
f 7/7/7 8/8/8 9/9/9
f 10/10/10 11/11/11 12/12/12
f 13/13/13 14/14/14 15/15/15
f 16/16/16 17/17/17 18/18/18
f 19/19/19 20/20/20 21/21/21
f 22/22/22 23/23/23 24/24/24
f 25/25/25 26/26/26 27/27/27
f 28/28/28 29/29/29 30/30/30
f 31/31/31 32/32/32 33/33/33
f 34/34/34 35/35/35 36/36/36
f 37/37/37 38/38/38 39/39/39
f 40/40/40 41/41/41 42/42/42
f 43/43/43 44/44/44 45/45/45
f 46/46/46 47/47/47 48/48/48
f 49/49/49 50/50/50 51/51/51
f 52/52/52 53/53/53 54/54/54
f 55/55/55 56/56/56 57/57/57
f 58/58/58 59/59/59 60/60/60
f 61/61/61 62/62/62 63/63/63
f 64/64/64 65/65/65 66/66/66
f 67/67/67 68/68/68 69/69/69
f 70/70/70 71/71/71 72/72/72
f 73/73/73 74/74/74 75/75/75
f 76/76/76 77/77/77 78/78/78
f 79/79/79 80/80/80 81/81/81
f 82/82/82 83/83/83 84/84/84
f 85/85/85 86/86/86 87/87/87
f 88/88/88 89/89/89 90/90/90
f 91/91/91 92/92/92 93/93/93
f 94/94/94 95/95/95 96/96/96
f 97/97/97 98/98/98 99/99/99
f 100/100/100 101/101/101 102/102/102
f 103/103/103 104/104/104 105/105/105
f 106/106/106 107/107/107 108/108/108
f 109/109/109 110/110/110 111/111/111
f 112/112/112 113/113/113 114/114/114
f 115/115/115 116/116/116 117/117/117
f 118/118/118 119/119/119 120/120/120
f 121/121/121 122/122/122 123/123/123
f 124/124/124 125/125/125 126/126/126
f 127/127/127 128/128/128 129/129/129
f 130/130/130 131/131/131 132/132/132
f 133/133/133 134/134/134 135/135/135
f 136/136/136 137/137/137 138/138/138
f 139/139/139 140/140/140 141/141/141
f 142/142/142 143/143/143 144/144/144
f 145/145/145 146/146/146 147/147/147
f 148/148/148 149/149/149 150/150/150
f 151/151/151 152/152/152 153/153/153
f 154/154/154 155/155/155 156/156/156
f 157/157/157 158/158/158 159/159/159
f 160/160/160 161/161/161 162/162/162
f 163/163/163 164/164/164 165/165/165
f 166/166/166 167/167/167 168/168/168
f 169/169/169 170/170/170 171/171/171
f 172/172/172 173/173/173 174/174/174
f 175/175/175 176/176/176 177/177/177
f 178/178/178 179/179/179 180/180/180
f 181/181/181 182/182/182 183/183/183
f 184/184/184 185/185/185 186/186/186
f 187/187/187 188/188/188 189/189/189
f 190/190/190 191/191/191 192/192/192
f 193/193/193 194/194/194 195/195/195
f 196/196/196 197/197/197 198/198/198
f 199/199/199 200/200/200 201/201/201
f 202/202/202 203/203/203 204/204/204
f 205/205/205 206/206/206 207/207/207
f 208/208/208 209/209/209 210/210/210
f 211/211/211 212/212/212 213/213/213
f 214/214/214 215/215/215 216/216/216
f 217/217/217 218/218/218 219/219/219
f 220/220/220 221/221/221 222/222/222
f 223/223/223 224/224/224 225/225/225
f 226/226/226 227/227/227 228/228/228
f 229/229/229 230/230/230 231/231/231
f 232/232/232 233/233/233 234/234/234
f 235/235/235 236/236/236 237/237/237
f 238/238/238 239/239/239 240/240/240
f 241/241/241 242/242/242 243/243/243
f 244/244/244 245/245/245 246/246/246
f 247/247/247 248/248/248 249/249/249
f 250/250/250 251/251/251 252/252/252
f 253/253/253 254/254/254 255/255/255
f 256/256/256 257/257/257 258/258/258
f 259/259/259 260/260/260 261/261/261
f 262/262/262 263/263/263 264/264/264
f 265/265/265 266/266/266 267/267/267
f 268/268/268 269/269/269 270/270/270
f 271/271/271 272/272/272 273/273/273
f 274/274/274 275/275/275 276/276/276
f 277/277/277 278/278/278 279/279/279
f 280/280/280 281/281/281 282/282/282
f 283/283/283 284/284/284 285/285/285
f 286/286/286 287/287/287 288/288/288
f 289/289/289 290/290/290 291/291/291
f 292/292/292 293/293/293 294/294/294
f 295/295/295 296/296/296 297/297/297
f 298/298/298 299/299/299 300/300/300
f 301/301/301 302/302/302 303/303/303
f 304/304/304 305/305/305 306/306/306
f 307/307/307 308/308/308 309/309/309
f 310/310/310 311/311/311 312/312/312
f 313/313/313 314/314/314 315/315/315
f 316/316/316 317/317/317 318/318/318
f 319/319/319 320/320/320 321/321/321
f 322/322/322 323/323/323 324/324/324
f 325/325/325 326/326/326 327/327/327
f 328/328/328 329/329/329 330/330/330
f 331/331/331 332/332/332 333/333/333
f 334/334/334 335/335/335 336/336/336
f 337/337/337 338/338/338 339/339/339
f 340/340/340 341/341/341 342/342/342
f 343/343/343 344/344/344 345/345/345
f 346/346/346 347/347/347 348/348/348
f 349/349/349 350/350/350 351/351/351
f 352/352/352 353/353/353 354/354/354
f 355/355/355 356/356/356 357/357/357
f 358/358/358 359/359/359 360/360/360
f 361/361/361 362/362/362 363/363/363
f 364/364/364 365/365/365 366/366/366
f 367/367/367 368/368/368 369/369/369
f 370/370/370 371/371/371 372/372/372
f 373/373/373 374/374/374 375/375/375
f 376/376/376 377/377/377 378/378/378
f 379/379/379 380/380/380 381/381/381
f 382/382/382 383/383/383 384/384/384
f 385/385/385 386/386/386 387/387/387
f 388/388/388 389/389/389 390/390/390
f 391/391/391 392/392/392 393/393/393
f 394/394/394 395/395/395 396/396/396
f 397/397/397 398/398/398 399/399/399
f 400/400/400 401/401/401 402/402/402
f 403/403/403 404/404/404 405/405/405
f 406/406/406 407/407/407 408/408/408
f 409/409/409 410/410/410 411/411/411
f 412/412/412 413/413/413 414/414/414
f 415/415/415 416/416/416 417/417/417
f 418/418/418 419/419/419 420/420/420
f 421/421/421 422/422/422 423/423/423
f 424/424/424 425/425/425 426/426/426
f 427/427/427 428/428/428 429/429/429
f 430/430/430 431/431/431 432/432/432
f 433/433/433 434/434/434 435/435/435
f 436/436/436 437/437/437 438/438/438
f 439/439/439 440/440/440 441/441/441
f 442/442/442 443/443/443 444/444/444
f 445/445/445 446/446/446 447/447/447
f 448/448/448 449/449/449 450/450/450
f 451/451/451 452/452/452 453/453/453
f 454/454/454 455/455/455 456/456/456
f 457/457/457 458/458/458 459/459/459
f 460/460/460 461/461/461 462/462/462
f 463/463/463 464/464/464 465/465/465
f 466/466/466 467/467/467 468/468/468
f 469/469/469 470/470/470 471/471/471
f 472/472/472 473/473/473 474/474/474
f 475/475/475 476/476/476 477/477/477
f 478/478/478 479/479/479 480/480/480
f 481/481/481 482/482/482 483/483/483
f 484/484/484 485/485/485 486/486/486
f 487/487/487 488/488/488 489/489/489
f 490/490/490 491/491/491 492/492/492
f 493/493/493 494/494/494 495/495/495
f 496/496/496 497/497/497 498/498/498
f 499/499/499 500/500/500 501/501/501
f 502/502/502 503/503/503 504/504/504
f 505/505/505 506/506/506 507/507/507
f 508/508/508 509/509/509 510/510/510
f 511/511/511 512/512/512 513/513/513
f 514/514/514 515/515/515 516/516/516
f 517/517/517 518/518/518 519/519/519
f 520/520/520 521/521/521 522/522/522
f 523/523/523 524/524/524 525/525/525
f 526/526/526 527/527/527 528/528/528
f 529/529/529 530/530/530 531/531/531
f 532/532/532 533/533/533 534/534/534
f 535/535/535 536/536/536 537/537/537
f 538/538/538 539/539/539 540/540/540
f 541/541/541 542/542/542 543/543/543
f 544/544/544 545/545/545 546/546/546
